v -0.19492237467035806 0.8288635961970325 -0.11485015079377861
v -0.19492312779773563 1.4628887565755526 -0.11485007206775454
v -0.19492236014656983 0.8288636268951227 0.11362846732842016
v -0.1949231132739545 1.4628887872736278 0.11362843429572793
v 0.19492222327301448 0.8288636003592823 -0.11485019047636415
v 0.19492318377911555 1.4628887607378207 -0.11485011175044899
v 0.19492223779677428 0.8288636310573124 0.11362798061096936
v 0.1949231983028697 1.4628887914358388 0.11362796992991146
v -0.1949223544709564 0.9270911972508622 0.11362846158127048
v -0.1949223689947451 0.927091166552771 -0.1148501639915094
v 0.19492225837354887 0.9270912014130531 0.11362798231439981
v 0.19492224384978812 0.927091170715021 -0.11485020367409587
v 0.1949276674536228 1.4628894374733494 0.03590850758834471
v 0.19491804745296998 1.4628897081017682 -0.04816125555274647
v 0.23025344176635607 1.4628898025781183 -0.08350480832788063
v 0.23027120907390136 1.4628893044276379 0.0712438700888685
v 0.31292288398987705 0.6473918467370194 -0.04816740421690553
v 0.3482630125408285 0.6939761185540864 -0.04816274684593234
v 0.31292804386126194 0.6939768858412452 -0.08350669914379619
v 0.31291206081619205 0.647391602524865 0.035902279871337324
v 0.3129081214525414 0.6939764363155797 0.07124186686508793
v 0.3482521893652251 0.6939758743418888 0.035906952143463775
v 0.23024261112363328 0.6939780070407277 0.07123126414421418
v 0.2302465504897002 0.6473932328547533 0.03589165852419445
v 0.1949076871547604 0.6939788935374095 0.03588725597312436
v 0.23026253353427226 0.6939784565664364 -0.08351731676582319
v 0.19491851032940455 0.6939791377495855 -0.04818243556569513
v 0.23025737366290558 0.6473934770668968 -0.04817802183876009
v 0.1949160130238481 1.1001917158650611 -0.04816711986496307
v 0.19491836711504887 1.067487173336746 -0.04817197380839773
v 0.23025810567898775 1.0674852408544866 -0.08351117404068767
v 0.2302535556783258 1.1116975404409999 -0.08350847155433996
v 0.19491760161313398 1.0674851277759063 0.035897785189894
v 0.31291906826827764 1.4628897574673358 -0.08351429233080582
v 0.3482626546410724 1.462889624420221 -0.048178501426972484
v 0.34827227460122856 1.4628893537929413 0.035890907811505765
v 0.31293677597286945 1.46288925931684 0.07123440099392811
v 0.34826215629248547 1.0674835167333607 0.03589881848507268
v 0.31292240282655553 1.067483780284447 0.07123802988803532
v 0.31291916803787495 1.1116969053102215 -0.0835129226992724
v 0.3129281567694191 1.0232718396458669 -0.0835082476448158
v 0.3129236591920812 1.067484492541178 -0.08351059232640093
v 0.2302626024985202 1.0232727011417126 -0.08351385476637328
v 0.2302568642145683 1.0674845285977268 0.07123745562443376
v 0.19492074086380543 1.0347823911265854 -0.04817681896860994
v 0.34826059394714026 1.1001903320608422 -0.04817520752980356
v 0.34826293669430775 1.0674858007123476 -0.04817075052262185
v 0.3482652543967055 1.0347811488913814 -0.0481662810077955
v -0.3129128292977328 0.6473921193442912 -0.048173512419020945
v -0.31291023437882864 0.6939769857403263 -0.08351300302047504
v -0.3482529573457119 0.6939763578246417 -0.048176773718984475
v -0.34827220796149266 1.4628884679483711 -0.04816228157576375
v -0.31293639205782026 1.462888425053636 -0.08350575217591935
v -0.3129204614491612 0.6473921685043451 0.03589625234564989
v -0.3482605894984931 0.6939764069847044 0.03589300594685391
v -0.3129242830160029 0.693977076230114 0.07123571149094808
v -0.31292043089792265 1.4628885600866466 0.07124289543319937
v -0.34826353683636374 1.462888541306958 0.03590710282706206
v -0.23025869642000324 0.6939786094115548 0.07124325358854573
v -0.19491598834918053 0.6939793565364554 0.03590696840625532
v -0.23025490465378554 0.6473937612904038 0.03590377581404814
v -0.19491905465067189 1.4628884889879021 0.03589133370065046
v -0.2302549004008422 1.4628885318822735 0.07123437589558057
v -0.2302446477814762 0.6939785189217584 -0.08350547582404494
v -0.2302472725026953 0.647393712130352 -0.048165985225330804
v -0.19490835619707575 0.6939793073763971 -0.048162803808999295
v -0.23027075725111512 1.4628883968492403 -0.08351425682313934
v -0.1949277258123032 1.4628884156290065 -0.04817840460468373
v -0.3482620787347509 1.06748341289486 0.035900100467293486
v -0.3129223576212449 1.0674837867096878 0.07123935699137733
v -0.23025351915103856 1.0232722647725259 -0.083507745738773
v -0.2302622715596463 1.1116967028660172 -0.0835118863845587
v -0.31291909172427845 1.0232714497630193 -0.08351125007594198
v -0.312927920390764 1.111696132107877 -0.08350738224978495
v -0.1949209368319777 1.1001910033163707 -0.04817431722374316
v -0.1949154869537711 1.0347820509671573 -0.04816683366154452
v -0.34826545992417635 1.1001897389241602 -0.04816579286486126
v -0.3482600620939701 1.0347808949641784 -0.04817319744915842
v -0.1949175296168163 1.0674849211156825 0.0358992120339187
v -0.2302568139744327 1.0674844795935277 0.07123886082080058
v -0.23025794904819435 1.0674846052506464 -0.08350982023854242
v -0.31292349269496045 1.067483912366812 -0.0835093166173842
v -0.19491819813187147 1.06748664799473 -0.04817057489172544
v -0.3482627770508723 1.0674853781925215 -0.048169496468512304
v -0.1918838466646494 0.8436102920330435 -0.049203425563792015
v -0.14871100692521677 0.8436112425049334 -0.09240124675042741
v -0.1487110407436878 0.8436099494498376 0.09223961861547698
v -0.19188386465989143 0.8436096739796775 0.049046484841521666
v -0.006566155205969733 0.8436120624906404 0.04904649869797363
v -0.04976977701506276 0.8436111716336306 0.09223961111226164
v -0.049769743196549907 0.8436125838980112 -0.092401246803025
v -0.006566137210662891 0.8436128593579363 -0.0492034117072917
v -0.1262034975440305 -0.00020634619766896515 -0.05887228371547742
v -0.14871141271773633 0.04431318654082782 -0.09240141664380537
v -0.1493189978169249 -0.0002061162146902304 -0.03369139347052059
v -0.1918842497275559 0.04430945303886321 -0.049203574335740276
v -0.14934742918693078 -0.00021387560882740498 0.03349287213258308
v -0.19188420605880843 0.04429859712220546 0.0490463524216896
v -0.12620344529496272 -0.00021247697052704771 0.05867686073015726
v -0.14871133064817404 0.044301014195950464 0.09223947945492234
v -0.07230595020492644 -0.00020478748421400356 0.058676833417903744
v -0.04977001103545075 0.04431452588041441 0.09223941441562174
v -0.04916832542330971 -0.00020272866152838857 0.03349282136650941
v -0.006566391936898636 0.044314712897144296 0.049046258510056395
v -0.04915202733315751 -0.00020538338122187528 -0.033691440508046865
v -0.006566435609734946 0.04431424021069513 -0.04920366825052264
v -0.07230600245694067 -0.00020682017234781102 -0.058872311030000235
v -0.04977009310981386 0.04431338776856495 -0.09240147423621926
v -0.049769904723879654 0.4818827062563367 -0.09240134115463347
v -0.14871115669156373 0.5242816318529151 0.092239574776419
v -0.148711261409088 0.4419828965348913 0.09223956255712847
v -0.19188404556915123 0.45269592704589745 0.04904644890411614
v -0.1918839983046438 0.5109566801867303 0.04904641950185807
v -0.006566262682762962 0.5109651482644402 0.049046406416990145
v -0.006566257615305821 0.4527056466070261 0.04904638193366626
v -0.00656627298110667 0.48188268347432694 -0.04920351875143346
v -0.1918840347656613 0.481882738965807 -0.04920347872126475
v -0.14871127089770353 0.48188273588330005 -0.09240131233189418
v -0.049769878991059585 0.5242882780019817 0.09223955288980515
v -0.04976988126255845 0.4419905558480539 0.0922395193516237
v -0.14871124676974118 0.4818826938021604 0.09223957585286316
v -0.1918840219268456 0.4818827165738624 0.04904643986169332
v -0.006566260142290964 0.4818826610823823 0.04904639983152461
v -0.04976988059591829 0.48188266417519876 0.09223953957953772
v 0.14934708117578507 -0.0002142221851814059 0.03349288392965704
v 0.04916804566806936 -0.00020300119926950578 0.0334929702090259
v 0.07230573027858839 -0.00020507449243267195 0.058676934337233
v 0.12620319064895477 -0.00021280381396230247 0.05867688791771737
v 0.006566493579759662 0.8436118632818138 0.04904647436147737
v 0.006566530570232724 0.8436126557489887 -0.049203363905333745
v 0.04977016432816684 0.8436123529748223 -0.09240114946018518
v 0.049770094812075956 0.8436109489795793 0.09223957288544297
v 0.006566395176595279 0.5109650620796871 0.04904644115911026
v 0.00656640256154941 0.48188267142283187 0.04904646816698066
v 0.006566377050175763 0.4818826864860823 -0.049203382608422504
v 0.19188378715117363 0.044309108529640054 -0.049203573522729756
v 0.14871093495290041 0.04431286942816852 -0.09240132886107388
v 0.1262030853507257 -0.00020668530743709807 -0.05887218058348518
v 0.14931857468406776 -0.0002064697767157846 -0.03369133822969074
v 0.1487111003493261 0.04430071634828785 0.0922394479479192
v 0.19188387515864352 0.0442982628600047 0.04904628975962516
v 0.04976968651947812 0.04431314376948846 -0.09240125109982762
v 0.006566131042441032 0.04431403264791066 -0.049203413919764724
v 0.04915165753821583 -0.0002056629234487259 -0.033691248236907556
v 0.07230562497623363 -0.0002071194546246399 -0.058872134165098254
v 0.0065662190556362 0.04431451559210275 0.04904644936415651
v 0.04976985192262404 0.044314301158929835 0.09223951826042383
v 0.19188412630630547 0.5109564781169416 0.04904644820435066
v 0.19188410868731656 0.48188260401164396 0.04904641966402253
v 0.14871136925358402 0.48188261309398284 0.09223954647050098
v 0.14871129804017663 0.5242814624245606 0.09223957279429132
v 0.04977000955502578 0.5242881704452271 0.09223955413203716
v 0.04977001961140637 0.48188264908490075 0.09223955746512752
v 0.1487114661668668 0.843610953459459 -0.09240110858959907
v 0.14871139665081554 0.8436096686735003 0.09223962120663107
v 0.19188428670965416 0.8436099795606382 -0.04920330130943683
v 0.19188424971924467 0.8436093659073916 0.04904653695740716
v 0.006566407725079741 0.45270573951992477 0.04904648464826854
v 0.1918840831759429 0.4818826190748944 -0.04920343111138063
v 0.14871132131010728 0.4818826414023213 -0.09240121428364528
v 0.04977002766938815 0.4419906147555394 0.09223955469119578
v 0.14871136395654358 0.44198288607128644 0.09223950658680195
v 0.04976997166793154 0.481882677393238 -0.09240119583843771
v 0.19188408883897906 0.4526958900296174 0.04904638059417872
v -0.09206343732194325 1.4298523711275615 0.056768780317573216
v -0.09206359509636168 1.5696366020049963 0.056768654304802366
v -0.09206347654728707 1.429852237146158 -0.06637215892703119
v -0.09206361196996397 1.5696364680236234 -0.06637228121451456
v 0.09206393930982922 1.429852591556897 0.05676874391108487
v 0.0920637815354118 1.5696368224343398 0.056768625348895096
v 0.09206388518332419 1.4298524575754712 -0.06637219905880803
v 0.09206376466180798 1.5696366884529547 -0.06637232134629345
v -0.19492236014656983 0.8288636268951227 0.11362846732842016
v -0.1949223544709564 0.9270911972508622 0.11362846158127048
v 0.19492223779677428 0.8288636310573124 0.11362798061096936
v 0.19492225837354887 0.9270912014130531 0.11362798231439981
v 0.19492222327301448 0.8288636003592823 -0.11485019047636415
v 0.19492224384978812 0.927091170715021 -0.11485020367409587
v -0.1949223689947451 0.927091166552771 -0.1148501639915094
v -0.19492237467035806 0.8288635961970325 -0.11485015079377861
v -0.19492237467035806 0.8288635961970325 -0.11485015079377861
v -0.19492236014656983 0.8288636268951227 0.11362846732842016
v 0.19492223779677428 0.8288636310573124 0.11362798061096936
v 0.19492222327301448 0.8288636003592823 -0.11485019047636415
v -0.1949231132739545 1.4628887872736278 0.11362843429572793
v -0.1949223544709564 0.9270911972508622 0.11362846158127048
v -0.1949223689947451 0.927091166552771 -0.1148501639915094
v -0.19492312779773563 1.4628887565755526 -0.11485007206775454
v 0.1949231983028697 1.4628887914358388 0.11362796992991146
v 0.19492225837354887 0.9270912014130531 0.11362798231439981
v -0.1949223544709564 0.9270911972508622 0.11362846158127048
v -0.1949231132739545 1.4628887872736278 0.11362843429572793
v 0.19492318377911555 1.4628887607378207 -0.11485011175044899
v 0.19492224384978812 0.927091170715021 -0.11485020367409587
v 0.19492225837354887 0.9270912014130531 0.11362798231439981
v 0.1949231983028697 1.4628887914358388 0.11362796992991146
v -0.1949223689947451 0.927091166552771 -0.1148501639915094
v 0.19492224384978812 0.927091170715021 -0.11485020367409587
v 0.19492318377911555 1.4628887607378207 -0.11485011175044899
v -0.19492312779773563 1.4628887565755526 -0.11485007206775454
v 0.31291206081619205 0.647391602524865 0.035902279871337324
v 0.3482521893652251 0.6939758743418888 0.035906952143463775
v 0.3482630125408285 0.6939761185540864 -0.04816274684593234
v 0.31292288398987705 0.6473918467370194 -0.04816740421690553
v 0.2302465504897002 0.6473932328547533 0.03589165852419445
v 0.23024261112363328 0.6939780070407277 0.07123126414421418
v 0.3129081214525414 0.6939764363155797 0.07124186686508793
v 0.31291206081619205 0.647391602524865 0.035902279871337324
v 0.31292288398987705 0.6473918467370194 -0.04816740421690553
v 0.31292804386126194 0.6939768858412452 -0.08350669914379619
v 0.23026253353427226 0.6939784565664364 -0.08351731676582319
v 0.23025737366290558 0.6473934770668968 -0.04817802183876009
v 0.1949076871547604 0.6939788935374095 0.03588725597312436
v 0.2302465504897002 0.6473932328547533 0.03589165852419445
v 0.23025737366290558 0.6473934770668968 -0.04817802183876009
v 0.19491851032940455 0.6939791377495855 -0.04818243556569513
v 0.31291206081619205 0.647391602524865 0.035902279871337324
v 0.31292288398987705 0.6473918467370194 -0.04816740421690553
v 0.23025737366290558 0.6473934770668968 -0.04817802183876009
v 0.2302465504897002 0.6473932328547533 0.03589165852419445
v 0.19491836711504887 1.067487173336746 -0.04817197380839773
v 0.1949160130238481 1.1001917158650611 -0.04816711986496307
v 0.3482521893652251 0.6939758743418888 0.035906952143463775
v 0.3129081214525414 0.6939764363155797 0.07124186686508793
v 0.31293677597286945 1.46288925931684 0.07123440099392811
v 0.34827227460122856 1.4628893537929413 0.035890907811505765
v 0.2302535556783258 1.1116975404409999 -0.08350847155433996
v 0.31291906826827764 1.4628897574673358 -0.08351429233080582
v 0.23025344176635607 1.4628898025781183 -0.08350480832788063
v 0.23025810567898775 1.0674852408544866 -0.08351117404068767
v 0.23026253353427226 0.6939784565664364 -0.08351731676582319
v 0.31292804386126194 0.6939768858412452 -0.08350669914379619
v 0.31292240282655553 1.067483780284447 0.07123802988803532
v 0.23027120907390136 1.4628893044276379 0.0712438700888685
v 0.31293677597286945 1.46288925931684 0.07123440099392811
v 0.3129081214525414 0.6939764363155797 0.07124186686508793
v 0.23024261112363328 0.6939780070407277 0.07123126414421418
v 0.2302626024985202 1.0232727011417126 -0.08351385476637328
v 0.19491851032940455 0.6939791377495855 -0.04818243556569513
v 0.23026253353427226 0.6939784565664364 -0.08351731676582319
v 0.23025344176635607 1.4628898025781183 -0.08350480832788063
v 0.19491804745296998 1.4628897081017682 -0.04816125555274647
v 0.34826215629248547 1.0674835167333607 0.03589881848507268
v 0.34827227460122856 1.4628893537929413 0.035890907811505765
v 0.3482626546410724 1.462889624420221 -0.048178501426972484
v 0.3482630125408285 0.6939761185540864 -0.04816274684593234
v 0.3482521893652251 0.6939758743418888 0.035906952143463775
v 0.19492074086380543 1.0347823911265854 -0.04817681896860994
v 0.1949076871547604 0.6939788935374095 0.03588725597312436
v 0.19491851032940455 0.6939791377495855 -0.04818243556569513
v 0.19491804745296998 1.4628897081017682 -0.04816125555274647
v 0.1949276674536228 1.4628894374733494 0.03590850758834471
v 0.31291916803787495 1.1116969053102215 -0.0835129226992724
v 0.34826059394714026 1.1001903320608422 -0.04817520752980356
v 0.3482626546410724 1.462889624420221 -0.048178501426972484
v 0.31291906826827764 1.4628897574673358 -0.08351429233080582
v 0.3482652543967055 1.0347811488913814 -0.0481662810077955
v 0.34826293669430775 1.0674858007123476 -0.04817075052262185
v 0.3129236591920812 1.067484492541178 -0.08351059232640093
v 0.3129281567694191 1.0232718396458669 -0.0835082476448158
v 0.31292804386126194 0.6939768858412452 -0.08350669914379619
v 0.3482630125408285 0.6939761185540864 -0.04816274684593234
v 0.19491760161313398 1.0674851277759063 0.035897785189894
v 0.2302568642145683 1.0674845285977268 0.07123745562443376
v 0.23024261112363328 0.6939780070407277 0.07123126414421418
v 0.1949076871547604 0.6939788935374095 0.03588725597312436
v 0.1949276674536228 1.4628894374733494 0.03590850758834471
v 0.23027120907390136 1.4628893044276379 0.0712438700888685
v -0.3129204614491612 0.6473921685043451 0.03589625234564989
v -0.3129128292977328 0.6473921193442912 -0.048173512419020945
v -0.3482529573457119 0.6939763578246417 -0.048176773718984475
v -0.3482605894984931 0.6939764069847044 0.03589300594685391
v -0.23025490465378554 0.6473937612904038 0.03590377581404814
v -0.3129204614491612 0.6473921685043451 0.03589625234564989
v -0.3129242830160029 0.693977076230114 0.07123571149094808
v -0.23025869642000324 0.6939786094115548 0.07124325358854573
v -0.3129128292977328 0.6473921193442912 -0.048173512419020945
v -0.2302472725026953 0.647393712130352 -0.048165985225330804
v -0.2302446477814762 0.6939785189217584 -0.08350547582404494
v -0.31291023437882864 0.6939769857403263 -0.08351300302047504
v -0.19491598834918053 0.6939793565364554 0.03590696840625532
v -0.19490835619707575 0.6939793073763971 -0.048162803808999295
v -0.2302472725026953 0.647393712130352 -0.048165985225330804
v -0.23025490465378554 0.6473937612904038 0.03590377581404814
v -0.3129204614491612 0.6473921685043451 0.03589625234564989
v -0.23025490465378554 0.6473937612904038 0.03590377581404814
v -0.2302472725026953 0.647393712130352 -0.048165985225330804
v -0.3129128292977328 0.6473921193442912 -0.048173512419020945
v -0.1949209368319777 1.1001910033163707 -0.04817431722374316
v -0.19491819813187147 1.06748664799473 -0.04817057489172544
v -0.3482605894984931 0.6939764069847044 0.03589300594685391
v -0.3129242830160029 0.693977076230114 0.07123571149094808
v -0.31292043089792265 1.4628885600866466 0.07124289543319937
v -0.34826353683636374 1.462888541306958 0.03590710282706206
v -0.31293639205782026 1.462888425053636 -0.08350575217591935
v -0.2302622715596463 1.1116967028660172 -0.0835118863845587
v -0.23027075725111512 1.4628883968492403 -0.08351425682313934
v -0.23025794904819435 1.0674846052506464 -0.08350982023854242
v -0.2302446477814762 0.6939785189217584 -0.08350547582404494
v -0.31291023437882864 0.6939769857403263 -0.08351300302047504
v -0.2302549004008422 1.4628885318822735 0.07123437589558057
v -0.3129223576212449 1.0674837867096878 0.07123935699137733
v -0.31292043089792265 1.4628885600866466 0.07124289543319937
v -0.3129242830160029 0.693977076230114 0.07123571149094808
v -0.23025869642000324 0.6939786094115548 0.07124325358854573
v -0.19490835619707575 0.6939793073763971 -0.048162803808999295
v -0.23025351915103856 1.0232722647725259 -0.083507745738773
v -0.2302446477814762 0.6939785189217584 -0.08350547582404494
v -0.23027075725111512 1.4628883968492403 -0.08351425682313934
v -0.1949277258123032 1.4628884156290065 -0.04817840460468373
v -0.34826353683636374 1.462888541306958 0.03590710282706206
v -0.3482620787347509 1.06748341289486 0.035900100467293486
v -0.34827220796149266 1.4628884679483711 -0.04816228157576375
v -0.3482529573457119 0.6939763578246417 -0.048176773718984475
v -0.3482605894984931 0.6939764069847044 0.03589300594685391
v -0.19491598834918053 0.6939793565364554 0.03590696840625532
v -0.1949154869537711 1.0347820509671573 -0.04816683366154452
v -0.19490835619707575 0.6939793073763971 -0.048162803808999295
v -0.1949277258123032 1.4628884156290065 -0.04817840460468373
v -0.19491905465067189 1.4628884889879021 0.03589133370065046
v -0.34827220796149266 1.4628884679483711 -0.04816228157576375
v -0.34826545992417635 1.1001897389241602 -0.04816579286486126
v -0.312927920390764 1.111696132107877 -0.08350738224978495
v -0.31293639205782026 1.462888425053636 -0.08350575217591935
v -0.3482600620939701 1.0347808949641784 -0.04817319744915842
v -0.31291909172427845 1.0232714497630193 -0.08351125007594198
v -0.31292349269496045 1.067483912366812 -0.0835093166173842
v -0.3482627770508723 1.0674853781925215 -0.048169496468512304
v -0.31291023437882864 0.6939769857403263 -0.08351300302047504
v -0.3482529573457119 0.6939763578246417 -0.048176773718984475
v -0.23025869642000324 0.6939786094115548 0.07124325358854573
v -0.2302568139744327 1.0674844795935277 0.07123886082080058
v -0.1949175296168163 1.0674849211156825 0.0358992120339187
v -0.19491598834918053 0.6939793565364554 0.03590696840625532
v -0.19491905465067189 1.4628884889879021 0.03589133370065046
v -0.2302549004008422 1.4628885318822735 0.07123437589558057
v -0.12620344529496272 -0.00021247697052704771 0.05867686073015726
v -0.14934742918693078 -0.00021387560882740498 0.03349287213258308
v -0.04916832542330971 -0.00020272866152838857 0.03349282136650941
v -0.07230595020492644 -0.00020478748421400356 0.058676833417903744
v -0.1493189978169249 -0.0002061162146902304 -0.03369139347052059
v -0.1918842497275559 0.04430945303886321 -0.049203574335740276
v -0.19188420605880843 0.04429859712220546 0.0490463524216896
v -0.14934742918693078 -0.00021387560882740498 0.03349287213258308
v -0.12620344529496272 -0.00021247697052704771 0.05867686073015726
v -0.14871133064817404 0.044301014195950464 0.09223947945492234
v -0.04977001103545075 0.04431452588041441 0.09223941441562174
v -0.07230595020492644 -0.00020478748421400356 0.058676833417903744
v -0.04916832542330971 -0.00020272866152838857 0.03349282136650941
v -0.006566391936898636 0.044314712897144296 0.049046258510056395
v -0.006566435609734946 0.04431424021069513 -0.04920366825052264
v -0.04915202733315751 -0.00020538338122187528 -0.033691440508046865
v -0.07230600245694067 -0.00020682017234781102 -0.058872311030000235
v -0.04977009310981386 0.04431338776856495 -0.09240147423621926
v -0.14871141271773633 0.04431318654082782 -0.09240141664380537
v -0.1262034975440305 -0.00020634619766896515 -0.05887228371547742
v -0.006566262682762962 0.5109651482644402 0.049046406416990145
v -0.006566260142290964 0.4818826610823823 0.04904639983152461
v -0.1493189978169249 -0.0002061162146902304 -0.03369139347052059
v -0.04915202733315751 -0.00020538338122187528 -0.033691440508046865
v -0.1262034975440305 -0.00020634619766896515 -0.05887228371547742
v -0.07230600245694067 -0.00020682017234781102 -0.058872311030000235
v -0.006566391936898636 0.044314712897144296 0.049046258510056395
v -0.006566435609734946 0.04431424021069513 -0.04920366825052264
v -0.006566137210662891 0.8436128593579363 -0.0492034117072917
v -0.006566155205969733 0.8436120624906404 0.04904649869797363
v -0.1918838466646494 0.8436102920330435 -0.049203425563792015
v -0.14871100692521677 0.8436112425049334 -0.09240124675042741
v -0.14871141271773633 0.04431318654082782 -0.09240141664380537
v -0.1918842497275559 0.04430945303886321 -0.049203574335740276
v -0.04976977701506276 0.8436111716336306 0.09223961111226164
v -0.049769878991059585 0.5242882780019817 0.09223955288980515
v -0.14871115669156373 0.5242816318529151 0.092239574776419
v -0.1487110407436878 0.8436099494498376 0.09223961861547698
v -0.04976988059591829 0.48188266417519876 0.09223953957953772
v -0.14871124676974118 0.4818826938021604 0.09223957585286316
v -0.14871133064817404 0.044301014195950464 0.09223947945492234
v -0.04977001103545075 0.04431452588041441 0.09223941441562174
v -0.14871100692521677 0.8436112425049334 -0.09240124675042741
v -0.14871127089770353 0.48188273588330005 -0.09240131233189418
v -0.049769743196549907 0.8436125838980112 -0.092401246803025
v -0.04977009310981386 0.04431338776856495 -0.09240147423621926
v -0.14871141271773633 0.04431318654082782 -0.09240141664380537
v -0.006566435609734946 0.04431424021069513 -0.04920366825052264
v -0.00656627298110667 0.48188268347432694 -0.04920351875143346
v -0.049769904723879654 0.4818827062563367 -0.09240134115463347
v -0.04977009310981386 0.04431338776856495 -0.09240147423621926
v -0.049769743196549907 0.8436125838980112 -0.092401246803025
v -0.006566137210662891 0.8436128593579363 -0.0492034117072917
v -0.19188420605880843 0.04429859712220546 0.0490463524216896
v -0.148711261409088 0.4419828965348913 0.09223956255712847
v -0.14871133064817404 0.044301014195950464 0.09223947945492234
v -0.1487110407436878 0.8436099494498376 0.09223961861547698
v -0.19188386465989143 0.8436096739796775 0.049046484841521666
v -0.04977001103545075 0.04431452588041441 0.09223941441562174
v -0.04976988126255845 0.4419905558480539 0.0922395193516237
v -0.006566257615305821 0.4527056466070261 0.04904638193366626
v -0.006566391936898636 0.044314712897144296 0.049046258510056395
v -0.006566155205969733 0.8436120624906404 0.04904649869797363
v -0.04976977701506276 0.8436111716336306 0.09223961111226164
v -0.19188386465989143 0.8436096739796775 0.049046484841521666
v -0.1918839983046438 0.5109566801867303 0.04904641950185807
v -0.1918840347656613 0.481882738965807 -0.04920347872126475
v -0.1918838466646494 0.8436102920330435 -0.049203425563792015
v -0.19188404556915123 0.45269592704589745 0.04904644890411614
v -0.1918840219268456 0.4818827165738624 0.04904643986169332
v -0.1918842497275559 0.04430945303886321 -0.049203574335740276
v -0.19188420605880843 0.04429859712220546 0.0490463524216896
v 0.14934708117578507 -0.0002142221851814059 0.03349288392965704
v 0.12620319064895477 -0.00021280381396230247 0.05867688791771737
v 0.07230573027858839 -0.00020507449243267195 0.058676934337233
v 0.04916804566806936 -0.00020300119926950578 0.0334929702090259
v 0.14931857468406776 -0.0002064697767157846 -0.03369133822969074
v 0.14934708117578507 -0.0002142221851814059 0.03349288392965704
v 0.19188387515864352 0.0442982628600047 0.04904628975962516
v 0.19188378715117363 0.044309108529640054 -0.049203573522729756
v 0.12620319064895477 -0.00021280381396230247 0.05867688791771737
v 0.07230573027858839 -0.00020507449243267195 0.058676934337233
v 0.04976985192262404 0.044314301158929835 0.09223951826042383
v 0.1487111003493261 0.04430071634828785 0.0922394479479192
v 0.04916804566806936 -0.00020300119926950578 0.0334929702090259
v 0.04915165753821583 -0.0002056629234487259 -0.033691248236907556
v 0.006566131042441032 0.04431403264791066 -0.049203413919764724
v 0.0065662190556362 0.04431451559210275 0.04904644936415651
v 0.07230562497623363 -0.0002071194546246399 -0.058872134165098254
v 0.1262030853507257 -0.00020668530743709807 -0.05887218058348518
v 0.14871093495290041 0.04431286942816852 -0.09240132886107388
v 0.04976968651947812 0.04431314376948846 -0.09240125109982762
v 0.006566395176595279 0.5109650620796871 0.04904644115911026
v 0.00656640256154941 0.48188267142283187 0.04904646816698066
v 0.14931857468406776 -0.0002064697767157846 -0.03369133822969074
v 0.04915165753821583 -0.0002056629234487259 -0.033691248236907556
v 0.1262030853507257 -0.00020668530743709807 -0.05887218058348518
v 0.07230562497623363 -0.0002071194546246399 -0.058872134165098254
v 0.0065662190556362 0.04431451559210275 0.04904644936415651
v 0.006566131042441032 0.04431403264791066 -0.049203413919764724
v 0.006566530570232724 0.8436126557489887 -0.049203363905333745
v 0.006566493579759662 0.8436118632818138 0.04904647436147737
v 0.19188428670965416 0.8436099795606382 -0.04920330130943683
v 0.1487114661668668 0.843610953459459 -0.09240110858959907
v 0.14871093495290041 0.04431286942816852 -0.09240132886107388
v 0.19188378715117363 0.044309108529640054 -0.049203573522729756
v 0.14871129804017663 0.5242814624245606 0.09223957279429132
v 0.04977000955502578 0.5242881704452271 0.09223955413203716
v 0.049770094812075956 0.8436109489795793 0.09223957288544297
v 0.14871139665081554 0.8436096686735003 0.09223962120663107
v 0.04977001961140637 0.48188264908490075 0.09223955746512752
v 0.14871136925358402 0.48188261309398284 0.09223954647050098
v 0.1487111003493261 0.04430071634828785 0.0922394479479192
v 0.04976985192262404 0.044314301158929835 0.09223951826042383
v 0.14871132131010728 0.4818826414023213 -0.09240121428364528
v 0.1487114661668668 0.843610953459459 -0.09240110858959907
v 0.04977016432816684 0.8436123529748223 -0.09240114946018518
v 0.04976968651947812 0.04431314376948846 -0.09240125109982762
v 0.14871093495290041 0.04431286942816852 -0.09240132886107388
v 0.04976997166793154 0.481882677393238 -0.09240119583843771
v 0.006566377050175763 0.4818826864860823 -0.049203382608422504
v 0.006566131042441032 0.04431403264791066 -0.049203413919764724
v 0.04976968651947812 0.04431314376948846 -0.09240125109982762
v 0.04977016432816684 0.8436123529748223 -0.09240114946018518
v 0.006566530570232724 0.8436126557489887 -0.049203363905333745
v 0.14871136395654358 0.44198288607128644 0.09223950658680195
v 0.19188387515864352 0.0442982628600047 0.04904628975962516
v 0.1487111003493261 0.04430071634828785 0.0922394479479192
v 0.14871139665081554 0.8436096686735003 0.09223962120663107
v 0.19188424971924467 0.8436093659073916 0.04904653695740716
v 0.006566407725079741 0.45270573951992477 0.04904648464826854
v 0.04977002766938815 0.4419906147555394 0.09223955469119578
v 0.04976985192262404 0.044314301158929835 0.09223951826042383
v 0.0065662190556362 0.04431451559210275 0.04904644936415651
v 0.006566493579759662 0.8436118632818138 0.04904647436147737
v 0.049770094812075956 0.8436109489795793 0.09223957288544297
v 0.1918840831759429 0.4818826190748944 -0.04920343111138063
v 0.19188412630630547 0.5109564781169416 0.04904644820435066
v 0.19188424971924467 0.8436093659073916 0.04904653695740716
v 0.19188428670965416 0.8436099795606382 -0.04920330130943683
v 0.19188408883897906 0.4526958900296174 0.04904638059417872
v 0.19188410868731656 0.48188260401164396 0.04904641966402253
v 0.19188378715117363 0.044309108529640054 -0.049203573522729756
v 0.19188387515864352 0.0442982628600047 0.04904628975962516
v -0.09206361196996397 1.5696364680236234 -0.06637228121451456
v -0.09206347654728707 1.429852237146158 -0.06637215892703119
v 0.09206388518332419 1.4298524575754712 -0.06637219905880803
v 0.09206376466180798 1.5696366884529547 -0.06637232134629345
v 0.09206393930982922 1.429852591556897 0.05676874391108487
v -0.09206343732194325 1.4298523711275615 0.056768780317573216
v -0.09206359509636168 1.5696366020049963 0.056768654304802366
v 0.0920637815354118 1.5696368224343398 0.056768625348895096
v 0.09206388518332419 1.4298524575754712 -0.06637219905880803
v -0.09206347654728707 1.429852237146158 -0.06637215892703119
v -0.09206343732194325 1.4298523711275615 0.056768780317573216
v 0.09206393930982922 1.429852591556897 0.05676874391108487
v -0.09206361196996397 1.5696364680236234 -0.06637228121451456
v 0.09206376466180798 1.5696366884529547 -0.06637232134629345
v 0.0920637815354118 1.5696368224343398 0.056768625348895096
v -0.09206359509636168 1.5696366020049963 0.056768654304802366
vt 0.339111328125 0.458251953125
vt 0.55419921875 0.50048828125
vt 0.2496337890625 0.458251953125
vt 0.6435546875 0.50048828125
vt 0.00777435302734375 0.458251953125
vt 0.55419921875 0.65283203125
vt 0.09716796875 0.458251953125
vt 0.6435546875 0.65283203125
vt 0.2496337890625 0.419921875
vt 0.339111328125 0.419921875
vt 0.09716796875 0.419921875
vt 0.00777435302734375 0.419921875
vt 0.61669921875 0.69287109375
vt 0.61669921875 0.7255859375
vt 0.63037109375 0.73974609375
vt 0.63037109375 0.67919921875
vt 0.6630859375 0.8212890625
vt 0.68408203125 0.8173828125
vt 0.6669921875 0.7998046875
vt 0.6630859375 0.8515625
vt 0.6669921875 0.873046875
vt 0.68408203125 0.85546875
vt 0.62939453125 0.873046875
vt 0.63330078125 0.8515625
vt 0.61181640625 0.85546875
vt 0.62939453125 0.7998046875
vt 0.61181640625 0.8173828125
vt 0.63330078125 0.8212890625
vt 0.0679931640625 0.63037109375
vt 0.0679931640625 0.6171875
vt 0.0484619140625 0.6171875
vt 0.0484619140625 0.634765625
vt 0.10089111328125 0.6171875
vt 0.66259765625 0.73974609375
vt 0.6767578125 0.7255859375
vt 0.6767578125 0.69287109375
vt 0.66259765625 0.67919921875
vt 0.17236328125 0.6171875
vt 0.15283203125 0.6171875
vt 0.2247314453125 0.634765625
vt 0.2247314453125 0.60009765625
vt 0.2247314453125 0.6171875
vt 0.257080078125 0.60009765625
vt 0.12042236328125 0.6171875
vt 0.0679931640625 0.6044921875
vt 0.2052001953125 0.63037109375
vt 0.2052001953125 0.6171875
vt 0.2052001953125 0.6044921875
vt 0.6318359375 0.92041015625
vt 0.6279296875 0.8994140625
vt 0.61083984375 0.9169921875
vt 0.533203125 0.7255859375
vt 0.54736328125 0.73974609375
vt 0.6318359375 0.951171875
vt 0.61083984375 0.955078125
vt 0.6279296875 0.97216796875
vt 0.54736328125 0.67919921875
vt 0.533203125 0.69287109375
vt 0.66552734375 0.97216796875
vt 0.68310546875 0.955078125
vt 0.662109375 0.951171875
vt 0.59326171875 0.69287109375
vt 0.57958984375 0.67919921875
vt 0.66552734375 0.8994140625
vt 0.662109375 0.92041015625
vt 0.68310546875 0.9169921875
vt 0.57958984375 0.73974609375
vt 0.59326171875 0.7255859375
vt 0.35546875 0.6171875
vt 0.375 0.6171875
vt 0.270751953125 0.60009765625
vt 0.4794921875 0.634765625
vt 0.302978515625 0.60009765625
vt 0.302978515625 0.634765625
vt 0.4599609375 0.63037109375
vt 0.4599609375 0.6044921875
vt 0.32275390625 0.63037109375
vt 0.32275390625 0.6044921875
vt 0.427001953125 0.6171875
vt 0.407470703125 0.6171875
vt 0.4794921875 0.6171875
vt 0.302978515625 0.6171875
vt 0.4599609375 0.6171875
vt 0.32275390625 0.6171875
vt 0.11126708984375 0.389404296875
vt 0.128173828125 0.40625
vt 0.128173828125 0.333984375
vt 0.11126708984375 0.35107421875
vt 0.1837158203125 0.35107421875
vt 0.1668701171875 0.333984375
vt 0.1668701171875 0.40625
vt 0.1837158203125 0.389404296875
vt 0.66064453125 0.386962890625
vt 0.671875 0.4072265625
vt 0.66943359375 0.37890625
vt 0.69189453125 0.387939453125
vt 0.66943359375 0.3544921875
vt 0.69189453125 0.34521484375
vt 0.66064453125 0.34619140625
vt 0.671875 0.326171875
vt 0.64013671875 0.34619140625
vt 0.62890625 0.326171875
vt 0.63134765625 0.3544921875
vt 0.60888671875 0.34521484375
vt 0.63134765625 0.37890625
vt 0.60888671875 0.387939453125
vt 0.64013671875 0.386962890625
vt 0.62890625 0.4072265625
vt 0.0286102294921875 0.1766357421875
vt 0.153564453125 0.1932373046875
vt 0.153564453125 0.1610107421875
vt 0.129638671875 0.1651611328125
vt 0.129638671875 0.18798828125
vt 0.216064453125 0.18798828125
vt 0.216064453125 0.165283203125
vt 0.254638671875 0.1766357421875
vt 0.0911865234375 0.1766357421875
vt 0.06732177734375 0.1766357421875
vt 0.1922607421875 0.1932373046875
vt 0.1922607421875 0.1610107421875
vt 0.153564453125 0.1766357421875
vt 0.129638671875 0.1766357421875
vt 0.216064453125 0.1766357421875
vt 0.1922607421875 0.1766357421875
vt 0.6279296875 0.25146484375
vt 0.666015625 0.25146484375
vt 0.6572265625 0.2431640625
vt 0.63671875 0.2431640625
vt 0.014862060546875 0.3505859375
vt 0.014862060546875 0.38916015625
vt 0.031768798828125 0.406005859375
vt 0.031768798828125 0.333740234375
vt 0.38037109375 0.18798828125
vt 0.38037109375 0.1766357421875
vt 0.342041015625 0.1766357421875
vt 0.60546875 0.284912109375
vt 0.6259765625 0.30419921875
vt 0.63671875 0.283935546875
vt 0.6279296875 0.27587890625
vt 0.6259765625 0.2230224609375
vt 0.60546875 0.2423095703125
vt 0.66845703125 0.30419921875
vt 0.6884765625 0.284912109375
vt 0.666015625 0.27587890625
vt 0.6572265625 0.283935546875
vt 0.6884765625 0.2423095703125
vt 0.66845703125 0.2230224609375
vt 0.466796875 0.18798828125
vt 0.466796875 0.1766357421875
vt 0.443115234375 0.1766357421875
vt 0.443115234375 0.1932373046875
vt 0.404296875 0.1932373046875
vt 0.404296875 0.1766357421875
vt 0.0704345703125 0.406005859375
vt 0.0704345703125 0.333740234375
vt 0.08734130859375 0.38916015625
vt 0.08734130859375 0.3505859375
vt 0.38037109375 0.165283203125
vt 0.50537109375 0.1766357421875
vt 0.529296875 0.1766357421875
vt 0.404296875 0.1610107421875
vt 0.443115234375 0.1610107421875
vt 0.56787109375 0.1766357421875
vt 0.466796875 0.1651611328125
vt 0.9404296875 0.9013671875
vt 0.88525390625 0.9013671875
vt 0.9404296875 0.8466796875
vt 0.88525390625 0.8466796875
vt 0.8740234375 0.84716796875
vt 0.8193359375 0.84716796875
vt 0.93310546875 0.9921875
vt 0.98779296875 0.9921875
vt 0.2496337890625 0.458251953125
vt 0.2496337890625 0.419921875
vt 0.09716796875 0.458251953125
vt 0.09716796875 0.419921875
vt 0.491455078125 0.458251953125
vt 0.491455078125 0.419921875
vt 0.339111328125 0.419921875
vt 0.339111328125 0.458251953125
vt 0.70166015625 0.040313720703125
vt 0.6123046875 0.040313720703125
vt 0.6123046875 0.19287109375
vt 0.70166015625 0.19287109375
vt 0.251708984375 0.99365234375
vt 0.251708984375 0.7841796875
vt 0.162353515625 0.7841796875
vt 0.162353515625 0.99365234375
vt 0.404296875 0.99365234375
vt 0.404296875 0.7841796875
vt 0.251708984375 0.7841796875
vt 0.251708984375 0.99365234375
vt 0.49365234375 0.99365234375
vt 0.49365234375 0.7841796875
vt 0.404296875 0.7841796875
vt 0.404296875 0.99365234375
vt 0.162353515625 0.7841796875
vt 0.00986480712890625 0.7841796875
vt 0.009857177734375 0.99365234375
vt 0.162353515625 0.99365234375
vt 0.6630859375 0.8515625
vt 0.68408203125 0.85546875
vt 0.68408203125 0.8173828125
vt 0.6630859375 0.8212890625
vt 0.63330078125 0.8515625
vt 0.62939453125 0.873046875
vt 0.6669921875 0.873046875
vt 0.6630859375 0.8515625
vt 0.6630859375 0.8212890625
vt 0.6669921875 0.7998046875
vt 0.62939453125 0.7998046875
vt 0.63330078125 0.8212890625
vt 0.61181640625 0.85546875
vt 0.63330078125 0.8515625
vt 0.63330078125 0.8212890625
vt 0.61181640625 0.8173828125
vt 0.6630859375 0.8515625
vt 0.6630859375 0.8212890625
vt 0.63330078125 0.8212890625
vt 0.63330078125 0.8515625
vt 0.0679931640625 0.6171875
vt 0.0679931640625 0.63037109375
vt 0.17236328125 0.47119140625
vt 0.15283203125 0.47119140625
vt 0.15283203125 0.77197265625
vt 0.17236328125 0.77197265625
vt 0.257080078125 0.634765625
vt 0.2247314453125 0.77197265625
vt 0.257080078125 0.77197265625
vt 0.257080078125 0.6171875
vt 0.257080078125 0.47119140625
vt 0.2247314453125 0.47119140625
vt 0.15283203125 0.6171875
vt 0.12042236328125 0.77197265625
vt 0.15283203125 0.77197265625
vt 0.15283203125 0.47119140625
vt 0.12042236328125 0.47119140625
vt 0.0484619140625 0.60009765625
vt 0.0679931640625 0.47119140625
vt 0.0484619140625 0.47119140625
vt 0.0484619140625 0.77197265625
vt 0.0679931640625 0.77197265625
vt 0.17236328125 0.6171875
vt 0.17236328125 0.77197265625
vt 0.2052001953125 0.77197265625
vt 0.2052001953125 0.47119140625
vt 0.17236328125 0.47119140625
vt 0.0679931640625 0.6044921875
vt 0.10089111328125 0.47119140625
vt 0.0679931640625 0.47119140625
vt 0.0679931640625 0.77197265625
vt 0.10089111328125 0.77197265625
vt 0.2247314453125 0.634765625
vt 0.2052001953125 0.63037109375
vt 0.2052001953125 0.77197265625
vt 0.2247314453125 0.77197265625
vt 0.2052001953125 0.6044921875
vt 0.2052001953125 0.6171875
vt 0.2247314453125 0.6171875
vt 0.2247314453125 0.60009765625
vt 0.2247314453125 0.47119140625
vt 0.2052001953125 0.47119140625
vt 0.10089111328125 0.6171875
vt 0.12042236328125 0.6171875
vt 0.12042236328125 0.47119140625
vt 0.10089111328125 0.47119140625
vt 0.10089111328125 0.77197265625
vt 0.12042236328125 0.77197265625
vt 0.6318359375 0.951171875
vt 0.6318359375 0.92041015625
vt 0.61083984375 0.9169921875
vt 0.61083984375 0.955078125
vt 0.662109375 0.951171875
vt 0.6318359375 0.951171875
vt 0.6279296875 0.97216796875
vt 0.66552734375 0.97216796875
vt 0.6318359375 0.92041015625
vt 0.662109375 0.92041015625
vt 0.66552734375 0.8994140625
vt 0.6279296875 0.8994140625
vt 0.68310546875 0.955078125
vt 0.68310546875 0.9169921875
vt 0.662109375 0.92041015625
vt 0.662109375 0.951171875
vt 0.6318359375 0.951171875
vt 0.662109375 0.951171875
vt 0.662109375 0.92041015625
vt 0.6318359375 0.92041015625
vt 0.4599609375 0.63037109375
vt 0.4599609375 0.6171875
vt 0.35546875 0.47119140625
vt 0.375 0.47119140625
vt 0.375 0.77197265625
vt 0.35546875 0.77197265625
vt 0.302978515625 0.77197265625
vt 0.270751953125 0.634765625
vt 0.270751953125 0.77197265625
vt 0.270751953125 0.6171875
vt 0.270751953125 0.47119140625
vt 0.302978515625 0.47119140625
vt 0.407470703125 0.77197265625
vt 0.375 0.6171875
vt 0.375 0.77197265625
vt 0.375 0.47119140625
vt 0.407470703125 0.47119140625
vt 0.4599609375 0.47119140625
vt 0.4794921875 0.60009765625
vt 0.4794921875 0.47119140625
vt 0.4794921875 0.77197265625
vt 0.4599609375 0.77197265625
vt 0.35546875 0.77197265625
vt 0.35546875 0.6171875
vt 0.32275390625 0.77197265625
vt 0.32275390625 0.47119140625
vt 0.35546875 0.47119140625
vt 0.427001953125 0.47119140625
vt 0.4599609375 0.6044921875
vt 0.4599609375 0.47119140625
vt 0.4599609375 0.77197265625
vt 0.427001953125 0.77197265625
vt 0.32275390625 0.77197265625
vt 0.32275390625 0.63037109375
vt 0.302978515625 0.634765625
vt 0.302978515625 0.77197265625
vt 0.32275390625 0.6044921875
vt 0.302978515625 0.60009765625
vt 0.302978515625 0.6171875
vt 0.32275390625 0.6171875
vt 0.302978515625 0.47119140625
vt 0.32275390625 0.47119140625
vt 0.407470703125 0.47119140625
vt 0.407470703125 0.6171875
vt 0.427001953125 0.6171875
vt 0.427001953125 0.47119140625
vt 0.427001953125 0.77197265625
vt 0.407470703125 0.77197265625
vt 0.66064453125 0.34619140625
vt 0.66943359375 0.3544921875
vt 0.63134765625 0.3544921875
vt 0.64013671875 0.34619140625
vt 0.66943359375 0.37890625
vt 0.69189453125 0.387939453125
vt 0.69189453125 0.34521484375
vt 0.66943359375 0.3544921875
vt 0.66064453125 0.34619140625
vt 0.671875 0.326171875
vt 0.62890625 0.326171875
vt 0.64013671875 0.34619140625
vt 0.63134765625 0.3544921875
vt 0.60888671875 0.34521484375
vt 0.60888671875 0.387939453125
vt 0.63134765625 0.37890625
vt 0.64013671875 0.386962890625
vt 0.62890625 0.4072265625
vt 0.671875 0.4072265625
vt 0.66064453125 0.386962890625
vt 0.216064453125 0.18798828125
vt 0.216064453125 0.1766357421875
vt 0.66943359375 0.37890625
vt 0.63134765625 0.37890625
vt 0.66064453125 0.386962890625
vt 0.64013671875 0.386962890625
vt 0.216064453125 0.005474090576171875
vt 0.254638671875 0.005474090576171875
vt 0.254638671875 0.318115234375
vt 0.216064453125 0.318115234375
vt 0.0911865234375 0.318115234375
vt 0.06732177734375 0.318115234375
vt 0.06732177734375 0.00547027587890625
vt 0.0911865234375 0.00547027587890625
vt 0.1922607421875 0.318115234375
vt 0.1922607421875 0.1932373046875
vt 0.153564453125 0.1932373046875
vt 0.153564453125 0.318115234375
vt 0.1922607421875 0.1766357421875
vt 0.153564453125 0.1766357421875
vt 0.153564453125 0.005466461181640625
vt 0.1922607421875 0.005474090576171875
vt 0.06732177734375 0.318115234375
vt 0.06732177734375 0.1766357421875
vt 0.0286102294921875 0.318115234375
vt 0.0286102294921875 0.00547027587890625
vt 0.06732177734375 0.00547027587890625
vt 0.254638671875 0.005474090576171875
vt 0.254638671875 0.1766357421875
vt 0.278564453125 0.1766357421875
vt 0.278564453125 0.005474090576171875
vt 0.278564453125 0.318115234375
vt 0.254638671875 0.318115234375
vt 0.129638671875 0.005466461181640625
vt 0.153564453125 0.1610107421875
vt 0.153564453125 0.005466461181640625
vt 0.153564453125 0.318115234375
vt 0.129638671875 0.318115234375
vt 0.1922607421875 0.005474090576171875
vt 0.1922607421875 0.1610107421875
vt 0.216064453125 0.165283203125
vt 0.216064453125 0.005474090576171875
vt 0.216064453125 0.318115234375
vt 0.1922607421875 0.318115234375
vt 0.129638671875 0.318115234375
vt 0.129638671875 0.18798828125
vt 0.0911865234375 0.1766357421875
vt 0.0911865234375 0.318115234375
vt 0.129638671875 0.1651611328125
vt 0.129638671875 0.1766357421875
vt 0.0911865234375 0.00547027587890625
vt 0.129638671875 0.005466461181640625
vt 0.6279296875 0.25146484375
vt 0.63671875 0.2431640625
vt 0.6572265625 0.2431640625
vt 0.666015625 0.25146484375
vt 0.6279296875 0.27587890625
vt 0.6279296875 0.25146484375
vt 0.60546875 0.2423095703125
vt 0.60546875 0.284912109375
vt 0.63671875 0.2431640625
vt 0.6572265625 0.2431640625
vt 0.66845703125 0.2230224609375
vt 0.6259765625 0.2230224609375
vt 0.666015625 0.25146484375
vt 0.666015625 0.27587890625
vt 0.6884765625 0.284912109375
vt 0.6884765625 0.2423095703125
vt 0.6572265625 0.283935546875
vt 0.63671875 0.283935546875
vt 0.6259765625 0.30419921875
vt 0.66845703125 0.30419921875
vt 0.38037109375 0.18798828125
vt 0.38037109375 0.1766357421875
vt 0.6279296875 0.27587890625
vt 0.666015625 0.27587890625
vt 0.63671875 0.283935546875
vt 0.6572265625 0.283935546875
vt 0.38037109375 0.005474090576171875
vt 0.342041015625 0.005474090576171875
vt 0.342041015625 0.318115234375
vt 0.38037109375 0.318115234375
vt 0.50537109375 0.318115234375
vt 0.529296875 0.318115234375
vt 0.529296875 0.00547027587890625
vt 0.50537109375 0.00547027587890625
vt 0.443115234375 0.1932373046875
vt 0.404296875 0.1932373046875
vt 0.404296875 0.318115234375
vt 0.443115234375 0.318115234375
vt 0.404296875 0.1766357421875
vt 0.443115234375 0.1766357421875
vt 0.443115234375 0.005466461181640625
vt 0.404296875 0.005474090576171875
vt 0.529296875 0.1766357421875
vt 0.529296875 0.318115234375
vt 0.56787109375 0.318115234375
vt 0.56787109375 0.00547027587890625
vt 0.529296875 0.00547027587890625
vt 0.318115234375 0.1766357421875
vt 0.342041015625 0.1766357421875
vt 0.342041015625 0.005474090576171875
vt 0.318115234375 0.005474090576171875
vt 0.318115234375 0.318115234375
vt 0.342041015625 0.318115234375
vt 0.443115234375 0.1610107421875
vt 0.466796875 0.005466461181640625
vt 0.443115234375 0.005466461181640625
vt 0.443115234375 0.318115234375
vt 0.466796875 0.318115234375
vt 0.38037109375 0.165283203125
vt 0.404296875 0.1610107421875
vt 0.404296875 0.005474090576171875
vt 0.38037109375 0.005474090576171875
vt 0.38037109375 0.318115234375
vt 0.404296875 0.318115234375
vt 0.50537109375 0.1766357421875
vt 0.466796875 0.18798828125
vt 0.466796875 0.318115234375
vt 0.50537109375 0.318115234375
vt 0.466796875 0.1651611328125
vt 0.466796875 0.1766357421875
vt 0.50537109375 0.00547027587890625
vt 0.466796875 0.005466461181640625
vt 0.98779296875 0.9111328125
vt 0.93310546875 0.9111328125
vt 0.8740234375 0.90185546875
vt 0.8193359375 0.90185546875
vt 0.87841796875 0.9921875
vt 0.87841796875 0.9111328125
vt 0.82373046875 0.9111328125
vt 0.82373046875 0.9921875
vt 0.93310546875 0.9921875
vt 0.93310546875 0.9111328125
vt 0.87841796875 0.9111328125
vt 0.87841796875 0.9921875
vt 0.7685546875 0.9111328125
vt 0.7685546875 0.9921875
vt 0.82373046875 0.9921875
vt 0.82373046875 0.9111328125
vn -0.9999999657716353 -1.0676694398538343e-08 6.356743850039736e-08
vn 5.778024943960934e-08 1.0000001001304146 -1.3435873511563568e-07
vn -0.9999999657716353 -1.0676694398538343e-08 6.356743850039736e-08
vn 5.778024943960934e-08 1.0000001001304146 -1.3435873511563568e-07
vn 0.9999999657716353 1.0676694398538343e-08 -6.356743850039736e-08
vn 5.778024943960934e-08 1.0000001001304146 -1.3435873511563568e-07
vn 6.356738895004278e-08 1.3435870903718188e-07 1.0000000659019475
vn 5.778024943960934e-08 1.0000001001304146 -1.3435873511563568e-07
vn -0.9999999657716353 -1.0676694398538343e-08 6.356743850039736e-08
vn -0.9999999657716353 -1.0676694398538343e-08 6.356743850039736e-08
vn 6.356738895004278e-08 1.3435870903718188e-07 1.0000000659019475
vn 0.9999999657716353 1.0676694398538343e-08 -6.356743850039736e-08
vn 5.955948594372926e-07 1.0000006151270062 3.205957954546079e-06
vn 5.955948594372926e-07 1.0000006151270062 3.205957954546079e-06
vn 5.955948594372926e-07 1.0000006151270062 3.205957954546079e-06
vn 5.955948594372926e-07 1.0000006151270062 3.205957954546079e-06
vn 0.6231899102845695 -0.47270791404510953 -0.6230419174339052
vn 0.6231899102845695 -0.47270791404510953 -0.6230419174339052
vn 0.6231899102845695 -0.47270791404510953 -0.6230419174339052
vn 0.6230299454211395 -0.4727113852113344 0.623199107792646
vn 0.6230299454211395 -0.4727113852113344 0.623199107792646
vn 0.6230299454211395 -0.4727113852113344 0.623199107792646
vn -0.6232073046655643 -0.4726936639925302 0.6230352460652309
vn -0.6232073046655643 -0.4726936639925302 0.6230352460652309
vn -0.6232073046655643 -0.4726936639925302 0.6230352460652309
vn -0.6230467446613236 -0.47268983521877156 -0.6231987457392293
vn -0.6230467446613236 -0.47268983521877156 -0.6231987457392293
vn -0.6230467446613236 -0.47268983521877156 -0.6231987457392293
vn -0.7071458712343466 1.1313563424783637e-05 -0.7070676473741444
vn -0.7071014523566725 1.0929753087417801e-05 -0.7071117741873255
vn -0.7071014523566725 1.0929753087417801e-05 -0.7071117741873255
vn -0.7071458712343466 1.1313563424783637e-05 -0.7070676473741444
vn -0.9999998897140162 1.4246823945330132e-05 -7.127073686595848e-06
vn 5.955948594372926e-07 1.0000006151270062 3.205957954546079e-06
vn 5.955948594372926e-07 1.0000006151270062 3.205957954546079e-06
vn 5.955948594372926e-07 1.0000006151270062 3.205957954546079e-06
vn 5.955948594372926e-07 1.0000006151270062 3.205957954546079e-06
vn 0.7071010947253213 -1.2120831081058389e-05 0.7071121914135671
vn 0.7071010947253213 -1.2120831081058389e-05 0.7071121914135671
vn -5.363648595046757e-05 3.1405393279809085e-06 -0.9999999401542587
vn 6.794812977958253e-05 2.9834305748130524e-06 -0.9999996250835763
vn 7.155821914557486e-06 3.0619849513969804e-06 -0.9999997826189175
vn 6.794812977958253e-05 2.9834305748130524e-06 -0.9999996250835763
vn -7.155821914557486e-06 -3.0619849513969804e-06 0.9999997826189175
vn -0.7070572717533482 1.1826823815106915e-05 -0.7071557816437779
vn 1.0000000608099502 -1.4012753632229794e-05 -5.366494666676822e-05
vn 0.9999998897139487 -1.4396876117303411e-05 7.12707322899794e-06
vn 0.9999997186181269 -1.4481593672182051e-05 6.791909408588173e-05
vn -0.623054092596756 -0.47270945339375403 -0.6231772287821876
vn -0.623054092596756 -0.47270945339375403 -0.6231772287821876
vn -0.623054092596756 -0.47270945339375403 -0.6231772287821876
vn 4.0809707036958517e-07 0.9999994311739209 -8.74262616966563e-07
vn 4.0809707036958517e-07 0.9999994311739209 -8.74262616966563e-07
vn -0.6231677672520043 -0.4727086352432219 0.6230641578081404
vn -0.6231677672520043 -0.4727086352432219 0.6230641578081404
vn -0.6231677672520043 -0.4727086352432219 0.6230641578081404
vn 4.0809707036958517e-07 0.9999994311739209 -8.74262616966563e-07
vn 4.0809707036958517e-07 0.9999994311739209 -8.74262616966563e-07
vn 0.6230707068308943 -0.4726912714119376 0.6231742584778446
vn 0.6230707068308943 -0.4726912714119376 0.6231742584778446
vn 0.6230707068308943 -0.4726912714119376 0.6231742584778446
vn 4.0809707036958517e-07 0.9999994311739209 -8.74262616966563e-07
vn 4.0809707036958517e-07 0.9999994311739209 -8.74262616966563e-07
vn 0.6231837252721831 -0.47269179153559965 -0.6230609292864743
vn 0.6231837252721831 -0.47269179153559965 -0.6230609292864743
vn 0.6231837252721831 -0.47269179153559965 -0.6230609292864743
vn 4.0809707036958517e-07 0.9999994311739209 -8.74262616966563e-07
vn 4.0809707036958517e-07 0.9999994311739209 -8.74262616966563e-07
vn -0.7071020070181648 -8.963156198392584e-06 0.707111519852748
vn -0.7071020070181648 -8.963156198392584e-06 0.707111519852748
vn 4.230207334416927e-05 -6.567138900081419e-07 -1.0000002709567628
vn 0.707069095619133 7.87001780472694e-06 -0.7071442623108014
vn 4.230207334416927e-05 -6.567138900081419e-07 -1.0000002709567628
vn -5.4660951235711234e-05 -8.006350082918625e-07 -0.9999999584996853
vn 0.707069095619133 7.87001780472694e-06 -0.7071442623108014
vn 0.7071351569685335 8.876537891556746e-06 -0.7070786583193085
vn -0.9999997809570742 -1.323403459474928e-05 5.466642344030592e-05
vn -1.0000001202914126 -1.3919246713399052e-05 -4.230160972352389e-05
vn 0.999999950624301 1.3715418096444354e-05 -6.1824069819366254e-06
vn 6.179438945770983e-06 7.286744491500022e-07 1.000000114728224
vn 0.7071019474123551 7.689322992370561e-06 -0.7071116390607588
vn -6.179438945770983e-06 -7.286744491500022e-07 -1.000000114728224
vn 0.7071019474123551 7.689322992370561e-06 -0.7071116390607588
vn -0.9999999506243048 -1.3726342941685897e-05 6.182406989860246e-06
vn -1.3774692213870048e-05 0.9999999740382582 2.703884593535404e-07
vn -1.3260548872346861e-05 0.9999999740365934 7.0189409792292735e-06
vn -1.3260548872346861e-05 0.9999999740365934 7.0189409792292735e-06
vn -1.3774692213870048e-05 0.9999999740382582 2.703884593535404e-07
vn -1.3765386265046432e-05 0.9999999740382555 2.703884600493254e-07
vn -1.3255894177737883e-05 0.9999999740364711 7.55832944858093e-06
vn -1.3255894177737883e-05 0.9999999740364711 7.55832944858093e-06
vn -1.3765386265046432e-05 0.9999999740382555 2.703884600493254e-07
vn -0.5315069571384697 -0.6722897079712091 -0.5152934069857468
vn -0.5315069571384697 -0.6722897079712091 -0.5152934069857468
vn -0.5315069571384697 -0.6722897079712091 -0.5152934069857468
vn -0.5315069571384697 -0.6722897079712091 -0.5152934069857468
vn 9.07147371505191e-05 -0.9999995859624617 -2.5592667162500648e-05
vn -0.5312770211040998 -0.672460833406706 0.5153071020354452
vn 0.00012219348931333439 -0.999999585974804 -1.3168675043241455e-05
vn -0.5312770211040998 -0.672460833406706 0.5153071020354452
vn 0.00012219348931333439 -0.999999585974804 -1.3168675043241455e-05
vn 0.5310466216052941 -0.6727148299655471 0.5152131034355704
vn 9.07147371505191e-05 -0.9999995859624617 -2.5592667162500648e-05
vn 0.5310466216052941 -0.6727148299655471 0.5152131034355704
vn 0.5311897512283742 -0.6724068524158769 -0.5154675144457161
vn 0.5311897512283742 -0.6724068524158769 -0.5154675144457161
vn 0.5311897512283742 -0.6724068524158769 -0.5154675144457161
vn 0.5311897512283742 -0.6724068524158769 -0.5154675144457161
vn -1.306751748975156e-07 2.2790819258916312e-07 -1.0000007468329382
vn -0.7072729323065309 5.164846183990561e-08 0.7069411398297532
vn 2.87590647446965e-07 -2.2986753786454492e-07 1.0000007884486943
vn -0.7072731485908396 4.968767003986691e-08 0.7069412255135257
vn -0.7072729323065309 5.164846183990561e-08 0.7069411398297532
vn 1.0000000375050144 -2.988674914421304e-07 -7.062027391596657e-08
vn 1.000000319893099 -3.000118545272605e-07 -3.613963387950753e-07
vn 1.0000001786990567 -2.9943967298469546e-07 -2.160083063555209e-07
vn -0.707311431786926 3.7290584241807537e-07 -0.7069025810968155
vn -0.707311431786926 3.7290584241807537e-07 -0.7069025810968155
vn 0.7070207079377442 -3.7109492308568806e-07 0.7071933465912177
vn 2.87590647446965e-07 -2.2986753786454492e-07 1.0000007884486943
vn -0.7072732192626479 5.0668166785837815e-08 0.7069409740552519
vn -0.7072732192626479 5.0668166785837815e-08 0.7069409740552519
vn 1.0000001786990567 -2.9943967298469546e-07 -2.160083063555209e-07
vn 0.7070209187343626 -3.728851023435082e-07 0.7071932732292365
vn -9.158102524200476e-05 -1.0000005322218142 -2.5452722032167416e-05
vn -9.158102524200476e-05 -1.0000005322218142 -2.5452722032167416e-05
vn -0.00012305974047862928 -1.000000532209598 -1.302861847859899e-05
vn -0.00012305974047862928 -1.000000532209598 -1.302861847859899e-05
vn 1.4483406002936828e-05 0.9999999654221982 1.838916301216568e-07
vn 1.4483406002936828e-05 0.9999999654221982 1.838916301216568e-07
vn 1.3973908692844703e-05 0.9999999654210394 7.471827512149319e-06
vn 1.3973908692844703e-05 0.9999999654210394 7.471827512149319e-06
vn -1.0000002218595332 3.2645361286354177e-07 -3.8025028929303266e-08
vn -1.0000000869167032 3.63760134920974e-07 2.6172870019569997e-07
vn -1.0000000869167032 3.63760134920974e-07 2.6172870019569997e-07
vn 0.531505758983379 -0.6722906715234053 -0.5152934688291575
vn 0.531505758983379 -0.6722906715234053 -0.5152934688291575
vn 0.531505758983379 -0.6722906715234053 -0.5152934688291575
vn 0.531505758983379 -0.6722906715234053 -0.5152934688291575
vn 0.5312772638797713 -0.672461629751837 0.5153059574544264
vn 0.5312772638797713 -0.672461629751837 0.5153059574544264
vn -0.5311905633048558 -0.6724072096235708 -0.515466420393469
vn -0.5311905633048558 -0.6724072096235708 -0.515466420393469
vn -0.5311905633048558 -0.6724072096235708 -0.515466420393469
vn -0.5311905633048558 -0.6724072096235708 -0.515466420393469
vn -0.5310461718158356 -0.6727149011536354 0.5152136506492856
vn -0.5310461718158356 -0.6727149011536354 0.5152136506492856
vn 0.7072731816621425 -3.484278738337149e-07 0.7069404344826145
vn 0.7072736091037288 -3.656629297875858e-07 0.7069400290574385
vn 0.7072736091037288 -3.656629297875858e-07 0.7069400290574385
vn 0.7072731816621425 -3.484278738337149e-07 0.7069404344826145
vn -0.7070211365675079 1.1323157496430027e-07 0.7071926275589734
vn -0.7070207566153754 1.4876221570059911e-07 0.7071929441130596
vn 1.3978561872474017e-05 0.9999999654211347 6.93243944075525e-06
vn 1.3978561872474017e-05 0.9999999654211347 6.93243944075525e-06
vn 1.4492712865540779e-05 0.9999999654221954 1.8389163326531617e-07
vn 1.4492712865540779e-05 0.9999999654221954 1.8389163326531617e-07
vn -0.9999999519738734 4.010666569784062e-07 5.614824293207032e-07
vn 0.7073113293593918 -1.4891248208903836e-07 -0.7069022523200652
vn 0.7073113293593918 -1.4891248208903836e-07 -0.7069022523200652
vn 5.777328105526723e-07 -1.4037137515900713e-07 1.0000001203349522
vn 5.777328105526723e-07 -1.4037137515900713e-07 1.0000001203349522
vn -2.5965815612900314e-07 1.5331576761229047e-07 -1.00000005667862
vn 0.7072736193127962 -3.8289789701291033e-07 0.7069399812601995
vn -0.9999999657719597 -1.1971567940302286e-06 1.370280526191938e-07
vn -0.9999999657719597 -1.1971567940302286e-06 1.370280526191938e-07
vn -0.9999999657719597 -1.1971567940302286e-06 1.370280526191938e-07
vn -0.9999999657719597 -1.1971567940302286e-06 1.370280526191938e-07
vn 0.9999999657719597 1.1971567940302286e-06 -1.370280526191938e-07
vn 0.9999999657719597 1.1971567940302286e-06 -1.370280526191938e-07
vn -1.3702675988709888e-07 -1.0880328393686262e-06 -1.0000000659013362
vn -1.3702675988709888e-07 -1.0880328393686262e-06 -1.0000000659013362
vn 6.356738895004278e-08 1.3435870903718188e-07 1.0000000659019475
vn 6.356738895004278e-08 1.3435870903718188e-07 1.0000000659019475
vn 0.9999999657716353 1.0676694398538343e-08 -6.356743850039736e-08
vn 0.9999999657716353 1.0676694398538343e-08 -6.356743850039736e-08
vn -6.356738895004278e-08 -1.3435870903718188e-07 -1.0000000659019475
vn -6.356738895004278e-08 -1.3435870903718188e-07 -1.0000000659019475
vn -6.356738895004278e-08 -1.3435870903718188e-07 -1.0000000659019475
vn -6.356738895004278e-08 -1.3435870903718188e-07 -1.0000000659019475
vn -5.778024943960934e-08 -1.0000001001304146 1.3435873511563568e-07
vn -5.778024943960934e-08 -1.0000001001304146 1.3435873511563568e-07
vn -5.778024943960934e-08 -1.0000001001304146 1.3435873511563568e-07
vn -5.778024943960934e-08 -1.0000001001304146 1.3435873511563568e-07
vn -0.9999999657716353 -1.0676694398538343e-08 6.356743850039736e-08
vn -0.9999999657716353 -1.0676694398538343e-08 6.356743850039736e-08
vn -0.9999999657716353 -1.0676694398538343e-08 6.356743850039736e-08
vn -0.9999999657716353 -1.0676694398538343e-08 6.356743850039736e-08
vn 6.356738895004278e-08 1.3435870903718188e-07 1.0000000659019475
vn 6.356738895004278e-08 1.3435870903718188e-07 1.0000000659019475
vn 6.356738895004278e-08 1.3435870903718188e-07 1.0000000659019475
vn 6.356738895004278e-08 1.3435870903718188e-07 1.0000000659019475
vn 0.9999999657716353 1.0676694398538343e-08 -6.356743850039736e-08
vn 0.9999999657716353 1.0676694398538343e-08 -6.356743850039736e-08
vn 0.9999999657716353 1.0676694398538343e-08 -6.356743850039736e-08
vn 0.9999999657716353 1.0676694398538343e-08 -6.356743850039736e-08
vn -6.356738895004278e-08 -1.3435870903718188e-07 -1.0000000659019475
vn -6.356738895004278e-08 -1.3435870903718188e-07 -1.0000000659019475
vn -6.356738895004278e-08 -1.3435870903718188e-07 -1.0000000659019475
vn -6.356738895004278e-08 -1.3435870903718188e-07 -1.0000000659019475
vn 0.7966878926330555 -0.6043909440412814 0.00010079404977948338
vn 0.7966878926330555 -0.6043909440412814 0.00010079404977948338
vn 0.7966878926330555 -0.6043909440412814 0.00010079404977948338
vn 0.7966878926330555 -0.6043909440412814 0.00010079404977948338
vn -0.0001139064596041732 -0.604380658151959 0.7966956211477678
vn -0.0001139064596041732 -0.604380658151959 0.7966956211477678
vn -0.0001139064596041732 -0.604380658151959 0.7966956211477678
vn -0.0001139064596041732 -0.604380658151959 0.7966956211477678
vn 9.076454366638535e-05 -0.6043756719062794 -0.7966993001005609
vn 9.076454366638535e-05 -0.6043756719062794 -0.7966993001005609
vn 9.076454366638535e-05 -0.6043756719062794 -0.7966993001005609
vn 9.076454366638535e-05 -0.6043756719062794 -0.7966993001005609
vn -0.796706857963394 -0.6043659224607121 -0.00010429365270906555
vn -0.796706857963394 -0.6043659224607121 -0.00010429365270906555
vn -0.796706857963394 -0.6043659224607121 -0.00010429365270906555
vn -0.796706857963394 -0.6043659224607121 -0.00010429365270906555
vn -1.968639178960956e-05 -1.0000006923604765 -2.8957247045512566e-06
vn -1.968639178960956e-05 -1.0000006923604765 -2.8957247045512566e-06
vn -1.968639178960956e-05 -1.0000006923604765 -2.8957247045512566e-06
vn -1.968639178960956e-05 -1.0000006923604765 -2.8957247045512566e-06
vn -0.9999998897139487 1.4396894307209337e-05 -7.127073228942463e-06
vn -1.0000000608099435 1.4025389250138017e-05 5.366494670628959e-05
vn 0.7070149986170395 -2.2337183364769324e-06 0.7071978222932022
vn 0.7070149986170395 -2.2337183364769324e-06 0.7071978222932022
vn 0.7071871908712212 -2.6621148544021477e-06 0.7070265606219918
vn 0.7071871908712212 -2.6621148544021477e-06 0.7070265606219918
vn -5.363648595046757e-05 3.1405393279809085e-06 -0.9999999401542587
vn -0.00011442879381549261 3.2190937045648366e-06 -1.0000000976896
vn -0.00011442879381549261 3.2190937045648366e-06 -1.0000000976896
vn 7.155821914557486e-06 3.0619849513969804e-06 -0.9999997826189175
vn 0.00012874043764460758 2.9048761982291243e-06 -0.9999994675482351
vn 0.00012874043764460758 2.9048761982291243e-06 -0.9999994675482351
vn -7.155821914557486e-06 -3.0619849513969804e-06 0.9999997826189175
vn 0.00011442879381549261 -3.2190937045648366e-06 1.0000000976896
vn 0.00011442879381549261 -3.2190937045648366e-06 1.0000000976896
vn -0.00012874043764460758 -2.9048761982291243e-06 0.9999994675482351
vn -0.00012874043764460758 -2.9048761982291243e-06 0.9999994675482351
vn -0.7070572717533482 1.1826823815106915e-05 -0.7071557816437779
vn -0.7070140448172234 1.2576981987551442e-05 -0.707198775814337
vn -0.7070140448172234 1.2576981987551442e-05 -0.707198775814337
vn -0.7071892171908964 2.6621092447477196e-06 -0.7070244742272673
vn -0.7071892171908964 2.6621092447477196e-06 -0.7070244742272673
vn 0.9999998897140161 -1.4247173191523932e-05 7.127073685530789e-06
vn 1.0000002319060177 -1.3628627526825199e-05 -0.00011445696649105998
vn 1.0000002319060177 -1.3628627526825199e-05 -0.00011445696649105998
vn 0.9999995475223277 -1.4566311233147987e-05 0.00012871111496741216
vn 0.9999995475223277 -1.4566311233147987e-05 0.00012871111496741216
vn -0.9999997186181317 1.4468257742394135e-05 -6.791909412550823e-05
vn -0.9999995475223359 1.4539670295898402e-05 -0.00012871111504449048
vn -0.9999995475223359 1.4539670295898402e-05 -0.00012871111504449048
vn -1.0000002319060028 1.3653835097485385e-05 0.00011445696657187434
vn -1.0000002319060028 1.3653835097485385e-05 0.00011445696657187434
vn 0.7070697794800079 -6.626557237274362e-06 -0.7071437795896951
vn 0.7070697794800079 -6.626557237274362e-06 -0.7071437795896951
vn 0.7070273907689095 1.8903674429842785e-06 -0.7071863410733197
vn 0.7070273907689095 1.8903674429842785e-06 -0.7071863410733197
vn 0.7071555107093999 -7.300644501327459e-06 -0.7070575837952846
vn 0.7071125258870934 -6.0521822982655594e-06 -0.7071008605044815
vn 0.7071125258870934 -6.0521822982655594e-06 -0.7071008605044815
vn 0.7071555107093999 -7.300644501327459e-06 -0.7070575837952846
vn 0.7071980187345535 -8.542216683027302e-06 -0.7070147839697143
vn 0.7071980187345535 -8.542216683027302e-06 -0.7070147839697143
vn -0.7071110357805728 7.833251965472183e-06 0.7071022910316969
vn -0.7071110357805728 7.833251965472183e-06 0.7071022910316969
vn -0.7071969459973538 8.136515447678043e-06 0.7070159165942803
vn -0.7071969459973538 8.136515447678043e-06 0.7070159165942803
vn -0.7070251255258838 -1.8903761620328594e-06 0.7071886653954507
vn -0.7070251255258838 -1.8903761620328594e-06 0.7071886653954507
vn -0.796688830977071 -0.6043899414856932 -7.197955200495306e-05
vn -0.796688830977071 -0.6043899414856932 -7.197955200495306e-05
vn -0.796688830977071 -0.6043899414856932 -7.197955200495306e-05
vn -0.796688830977071 -0.6043899414856932 -7.197955200495306e-05
vn -6.133468520746465e-05 -0.6043772372469786 0.7966984254430151
vn -6.133468520746465e-05 -0.6043772372469786 0.7966984254430151
vn -6.133468520746465e-05 -0.6043772372469786 0.7966984254430151
vn -6.133468520746465e-05 -0.6043772372469786 0.7966984254430151
vn 8.379349681436496e-05 -0.6043778113627851 -0.7966979651808401
vn 8.379349681436496e-05 -0.6043778113627851 -0.7966979651808401
vn 8.379349681436496e-05 -0.6043778113627851 -0.7966979651808401
vn 8.379349681436496e-05 -0.6043778113627851 -0.7966979651808401
vn 0.7967071026148678 -0.6043656435646989 7.267785303685598e-05
vn 0.7967071026148678 -0.6043656435646989 7.267785303685598e-05
vn 0.7967071026148678 -0.6043656435646989 7.267785303685598e-05
vn 0.7967071026148678 -0.6043656435646989 7.267785303685598e-05
vn 1.911250877191386e-05 -0.9999996322214773 5.780650312079829e-07
vn 1.911250877191386e-05 -0.9999996322214773 5.780650312079829e-07
vn 1.911250877191386e-05 -0.9999996322214773 5.780650312079829e-07
vn 1.911250877191386e-05 -0.9999996322214773 5.780650312079829e-07
vn 0.9999997809571879 1.3538275876133244e-05 -5.46664236836301e-05
vn 0.9999999506244035 1.4017965914778135e-05 -6.1824072013698346e-06
vn -0.7071709294047539 5.549529218629375e-07 0.7070431144540366
vn -0.7071709294047539 5.549529218629375e-07 0.7070431144540366
vn -0.7070331442120252 8.582737864329832e-07 0.7071799848250577
vn -0.7070331442120252 8.582737864329832e-07 0.7071799848250577
vn -0.00010314246352565148 -8.725955674337228e-07 -0.9999998022711464
vn -5.4660951235711234e-05 -8.006350082918625e-07 -0.9999999584996853
vn -0.00010314246352565148 -8.725955674337228e-07 -0.9999998022711464
vn -6.179438945770983e-06 -7.286744491500022e-07 -1.000000114728224
vn 9.078358563410951e-05 -5.847533308662816e-07 -1.0000004271853016
vn 9.078358563410951e-05 -5.847533308662816e-07 -1.0000004271853016
vn 0.00010314246352565148 8.725955674337228e-07 0.9999998022711464
vn 6.179438945770983e-06 7.286744491500022e-07 1.000000114728224
vn 0.00010314246352565148 8.725955674337228e-07 0.9999998022711464
vn -9.078358563410951e-05 5.847533308662816e-07 1.0000004271853016
vn -9.078358563410951e-05 5.847533308662816e-07 1.0000004271853016
vn 0.7071695586247642 9.790568625396968e-06 -0.7070444854918729
vn 0.7071351569685335 8.876537891556746e-06 -0.7070786583193085
vn 0.7071695586247642 9.790568625396968e-06 -0.7070444854918729
vn 0.7070351113674146 -8.582727411763116e-07 -0.7071780180750611
vn 0.7070351113674146 -8.582727411763116e-07 -0.7071780180750611
vn -0.999999611289812 -1.2741723565271442e-05 0.00010315043982266176
vn -0.9999999506242541 -1.3576640183880542e-05 6.182406881283172e-06
vn -0.999999611289812 -1.2741723565271442e-05 0.00010315043982266176
vn -1.0000002899585092 -1.4112149591462459e-05 -9.07856264603911e-05
vn -1.0000002899585092 -1.4112149591462459e-05 -9.07856264603911e-05
vn 1.000000289958495 1.4058807746821674e-05 9.07856264911323e-05
vn 1.0000001202914044 1.389255942152138e-05 4.2301609740891845e-05
vn 1.000000289958495 1.4058807746821674e-05 9.07856264911323e-05
vn 0.9999996112898223 1.2766930196592881e-05 -0.00010315043984469898
vn 0.9999996112898223 1.2766930196592881e-05 -0.00010315043984469898
vn -0.7071812149099042 -3.757607296883196e-07 -0.7070319025799376
vn -0.7071465169552721 -8.870127939663178e-06 -0.7070668329766494
vn -0.7071465169552721 -8.870127939663178e-06 -0.7070668329766494
vn -0.7071812149099042 -3.757607296883196e-07 -0.7070319025799376
vn -0.7070781342046382 -9.571763970108775e-06 -0.7071356803925575
vn -0.7070781342046382 -9.571763970108775e-06 -0.7071356803925575
vn -0.7071121765700784 -8.371132328402759e-06 -0.7071013460945306
vn -0.7071121765700784 -8.371132328402759e-06 -0.7071013460945306
vn -0.7070436745798028 -1.0666023402492649e-05 -0.707170372292512
vn -0.7070436745798028 -1.0666023402492649e-05 -0.707170372292512
vn 0.7070423631553979 2.72013574307274e-07 0.7071716834821998
vn 0.7071104480470832 1.0050034157053386e-05 0.7071031342435479
vn 0.7071104480470832 1.0050034157053386e-05 0.7071031342435479
vn 0.7070423631553979 2.72013574307274e-07 0.7071716834821998
vn 0.7071785329785816 3.7576398530570745e-07 0.7070345850650932
vn 0.7071785329785816 3.7576398530570745e-07 0.7070345850650932
vn -0.5312770211040998 -0.672460833406706 0.5153071020354452
vn -0.5312770211040998 -0.672460833406706 0.5153071020354452
vn 0.5310466216052941 -0.6727148299655471 0.5152131034355704
vn 0.5310466216052941 -0.6727148299655471 0.5152131034355704
vn -0.7228664027225654 -0.6909877987921331 -0.00020178395582752653
vn -0.7228664027225654 -0.6909877987921331 -0.00020178395582752653
vn -0.7228664027225654 -0.6909877987921331 -0.00020178395582752653
vn -0.7228664027225654 -0.6909877987921331 -0.00020178395582752653
vn 8.388609298304545e-05 -0.602009768727737 0.7984891719542707
vn 8.388609298304545e-05 -0.602009768727737 0.7984891719542707
vn 8.388609298304545e-05 -0.602009768727737 0.7984891719542707
vn 8.388609298304545e-05 -0.602009768727737 0.7984891719542707
vn 0.7225547077637907 -0.6913136745545829 8.39786533781066e-05
vn 0.7225547077637907 -0.6913136745545829 8.39786533781066e-05
vn 0.7225547077637907 -0.6913136745545829 8.39786533781066e-05
vn 0.7225547077637907 -0.6913136745545829 8.39786533781066e-05
vn -5.7220511837531e-07 -0.6015971132510612 -0.7988001662452531
vn -5.7220511837531e-07 -0.6015971132510612 -0.7988001662452531
vn -5.7220511837531e-07 -0.6015971132510612 -0.7988001662452531
vn -5.7220511837531e-07 -0.6015971132510612 -0.7988001662452531
vn 0.7070207079377442 -3.7109492308568806e-07 0.7071933465912177
vn 0.7070209187343626 -3.728851023435082e-07 0.7071932732292365
vn 3.042795480384859e-05 -0.9999995859502091 -2.779983646937174e-07
vn 3.042795480384859e-05 -0.9999995859502091 -2.779983646937174e-07
vn -3.609140591747276e-07 -0.9999995859486805 3.304876476040037e-05
vn -3.609140591747276e-07 -0.9999995859486805 3.304876476040037e-05
vn 1.0000004610871411 -3.005840360698255e-07 -5.067843712346296e-07
vn 1.0000004610871411 -3.005840360698255e-07 -5.067843712346296e-07
vn 0.9999998963109723 -2.982953098995654e-07 7.476775852358779e-08
vn 0.9999998963109723 -2.982953098995654e-07 7.476775852358779e-08
vn -0.70731101020288 3.693262905814538e-07 -0.7069027279294468
vn -0.70731101020288 3.693262905814538e-07 -0.7069027279294468
vn -0.7073118533709719 3.7648539425469696e-07 -0.7069024342641842
vn -0.7073118533709719 3.7648539425469696e-07 -0.7069024342641842
vn -1.8315577020138324e-07 -2.2398950203839953e-07 1.0000006636014254
vn -2.624029765193383e-08 -2.2594884731378133e-07 1.0000007052171818
vn -2.624029765193383e-08 -2.2594884731378133e-07 1.0000007052171818
vn -1.8315577020138324e-07 -2.2398950203839953e-07 1.0000006636014254
vn 1.306751748975156e-07 -2.2790819258916312e-07 1.0000007468329382
vn 1.306751748975156e-07 -2.2790819258916312e-07 1.0000007468329382
vn 4.445061199964144e-07 -2.3182688313992672e-07 1.0000008300644507
vn 4.445061199964144e-07 -2.3182688313992672e-07 1.0000008300644507
vn 1.8315577020138324e-07 2.2398950203839953e-07 -1.0000006636014254
vn -1.306751748975156e-07 2.2790819258916312e-07 -1.0000007468329382
vn 1.8315577020138324e-07 2.2398950203839953e-07 -1.0000006636014254
vn -4.445061199964144e-07 2.3182688313992672e-07 -1.0000008300644507
vn -4.445061199964144e-07 2.3182688313992672e-07 -1.0000008300644507
vn 0.7070590970505068 -4.8593274746726967e-08 -0.707155338506323
vn 0.7070592385216885 -5.055529736496397e-08 -0.7071550740529604
vn 0.7070592385216885 -5.055529736496397e-08 -0.7071550740529604
vn 0.7070590970505068 -4.8593274746726967e-08 -0.707155338506323
vn 0.7070592607835258 -5.2517284150791576e-08 -0.7071548095995374
vn 0.7070592607835258 -5.2517284150791576e-08 -0.7071548095995374
vn -0.7072728991049336 4.870710519196924e-08 0.7069415365763958
vn -0.7072731485908396 4.968767003986691e-08 0.7069412255135257
vn -0.7072728991049336 4.870710519196924e-08 0.7069415365763958
vn -0.7072727049552301 5.2628776182666965e-08 0.7069413056043117
vn -0.7072727049552301 5.2628776182666965e-08 0.7069413056043117
vn 0.7070213403275991 -3.7646546085914846e-07 0.7071931265052742
vn 0.7070211295309978 -3.7467529530250124e-07 0.7071932594719472
vn 0.7070211295309978 -3.7467529530250124e-07 0.7071932594719472
vn 0.7070213403275991 -3.7646546085914846e-07 0.7071931265052742
vn 0.7070204971411259 -3.6930474382786793e-07 0.7071934199531987
vn 0.7070204971411259 -3.6930474382786793e-07 0.7071934199531987
vn -0.9999998963109723 2.982953098995654e-07 -7.476775852358779e-08
vn -1.0000000375050144 2.988674914421304e-07 7.062027391596657e-08
vn -1.0000001786990567 2.9943967298469546e-07 2.160083063555209e-07
vn -0.9999998963109723 2.982953098995654e-07 -7.476775852358779e-08
vn -1.000000319893099 3.000118545272605e-07 3.613963387950753e-07
vn -1.0000001786990567 2.9943967298469546e-07 2.160083063555209e-07
vn -1.0000004610871411 3.005840360698255e-07 5.067843712346296e-07
vn -1.0000004610871411 3.005840360698255e-07 5.067843712346296e-07
vn 0.5312772638797713 -0.672461629751837 0.5153059574544264
vn 0.5312772638797713 -0.672461629751837 0.5153059574544264
vn -0.5310461718158356 -0.6727149011536354 0.5152136506492856
vn -0.5310461718158356 -0.6727149011536354 0.5152136506492856
vn 0.7228655766922861 -0.6909889272743809 -0.0002026696417788119
vn 0.7228655766922861 -0.6909889272743809 -0.0002026696417788119
vn 0.7228655766922861 -0.6909889272743809 -0.0002026696417788119
vn 0.7228655766922861 -0.6909889272743809 -0.0002026696417788119
vn -8.333734249259958e-05 -0.6020101357907338 0.7984888595091807
vn -8.333734249259958e-05 -0.6020101357907338 0.7984888595091807
vn -8.333734249259958e-05 -0.6020101357907338 0.7984888595091807
vn -8.333734249259958e-05 -0.6020101357907338 0.7984888595091807
vn -0.7225550795972124 -0.6913136756061405 8.505762020420331e-05
vn -0.7225550795972124 -0.6913136756061405 8.505762020420331e-05
vn -0.7225550795972124 -0.6913136756061405 8.505762020420331e-05
vn -0.7225550795972124 -0.6913136756061405 8.505762020420331e-05
vn -1.019608151093129e-06 -0.6015977659518363 -0.7987995661069216
vn -1.019608151093129e-06 -0.6015977659518363 -0.7987995661069216
vn -1.019608151093129e-06 -0.6015977659518363 -0.7987995661069216
vn -1.019608151093129e-06 -0.6015977659518363 -0.7987995661069216
vn -0.7070211365675079 1.1323157496430027e-07 0.7071926275589734
vn -0.7070207566153754 1.4876221570059911e-07 0.7071929441130596
vn -3.129424779394293e-05 -1.000000532251468 -1.3823573651663638e-07
vn -3.129424779394293e-05 -1.000000532251468 -1.3823573651663638e-07
vn -5.053540924298975e-07 -1.0000005322692118 3.3188456461313546e-05
vn -5.053540924298975e-07 -1.0000005322692118 3.3188456461313546e-05
vn -0.9999998170310436 4.383731790358384e-07 8.612361584457065e-07
vn -0.9999998170310436 4.383731790358384e-07 8.612361584457065e-07
vn -1.000000356802363 2.8914709080610955e-07 -3.377787580543065e-07
vn -1.000000356802363 2.8914709080610955e-07 -3.377787580543065e-07
vn 0.7073120295524891 -7.78370149457088e-08 -0.7069016786793336
vn 0.7073120295524891 -7.78370149457088e-08 -0.7069016786793336
vn 0.7073105695616169 -2.1998791729490597e-07 -0.7069028259606892
vn 0.7073105695616169 -2.1998791729490597e-07 -0.7069028259606892
vn -5.841649829466605e-08 -1.662601600655738e-07 0.9999999930222879
vn -5.841649829466605e-08 -1.662601600655738e-07 0.9999999930222879
vn -3.764911527183353e-07 -1.7920455251885714e-07 0.9999999293659557
vn -3.764911527183353e-07 -1.7920455251885714e-07 0.9999999293659557
vn 2.5965815612900314e-07 -1.5331576761229047e-07 1.00000005667862
vn 2.5965815612900314e-07 -1.5331576761229047e-07 1.00000005667862
vn 8.958074649763416e-07 -1.274269827057238e-07 1.0000001839912844
vn 8.958074649763416e-07 -1.274269827057238e-07 1.0000001839912844
vn -2.5965815612900314e-07 1.5331576761229047e-07 -1.00000005667862
vn 3.764911527183353e-07 1.7920455251885714e-07 -0.9999999293659557
vn 3.764911527183353e-07 1.7920455251885714e-07 -0.9999999293659557
vn -8.958074649763416e-07 1.274269827057238e-07 -1.0000001839912844
vn -8.958074649763416e-07 1.274269827057238e-07 -1.0000001839912844
vn -0.707059509256664 3.656178645346177e-07 -0.7071540694049945
vn -0.707059509256664 3.656178645346177e-07 -0.7071540694049945
vn -0.7070597682872263 4.000663528482586e-07 -0.707153795152035
vn -0.7070597682872263 4.000663528482586e-07 -0.707153795152035
vn -0.7070592502261553 3.311693838162168e-07 -0.7071544032626096
vn -0.7070592502261553 3.311693838162168e-07 -0.7071544032626096
vn 0.7072736193127962 -3.8289789701291033e-07 0.7069399812601995
vn 0.7072736295219717 -4.0013285225748313e-07 0.7069399334630471
vn 0.7072736295219717 -4.0013285225748313e-07 0.7069399334630471
vn 0.7072728138249902 -3.3119286352314094e-07 0.7069408399076015
vn 0.7072728138249902 -3.3119286352314094e-07 0.7069408399076015
vn -0.7070204362678976 1.842928858049274e-07 0.7071932010624993
vn -0.7070204362678976 1.842928858049274e-07 0.7071932010624993
vn -0.7070201159204198 2.1982355590925567e-07 0.7071934580119389
vn -0.7070201159204198 2.1982355590925567e-07 0.7071934580119389
vn -0.7070214569149749 7.770090340787591e-08 0.7071923706095197
vn -0.7070214569149749 7.770090340787591e-08 0.7071923706095197
vn 1.0000000869167032 -3.63760134920974e-07 -2.6172870019569997e-07
vn 1.0000002218595332 -3.2645361286354177e-07 3.8025028929303266e-08
vn 1.000000356802363 -2.8914709080610955e-07 3.377787580543065e-07
vn 1.000000356802363 -2.8914709080610955e-07 3.377787580543065e-07
vn 0.9999999519738734 -4.010666569784062e-07 -5.614824293207032e-07
vn 1.0000000869167032 -3.63760134920974e-07 -2.6172870019569997e-07
vn 0.9999998170310436 -4.383731790358384e-07 -8.612361584457065e-07
vn 0.9999998170310436 -4.383731790358384e-07 -8.612361584457065e-07
vn -1.3702675988709888e-07 -1.0880328393686262e-06 -1.0000000659013362
vn -1.3702675988709888e-07 -1.0880328393686262e-06 -1.0000000659013362
vn 0.9999999657719597 1.1971567940302286e-06 -1.370280526191938e-07
vn 0.9999999657719597 1.1971567940302286e-06 -1.370280526191938e-07
vn 1.3702675988709888e-07 1.0880328393686262e-06 1.0000000659013362
vn 1.3702675988709888e-07 1.0880328393686262e-06 1.0000000659013362
vn 1.3702675988709888e-07 1.0880328393686262e-06 1.0000000659013362
vn 1.3702675988709888e-07 1.0880328393686262e-06 1.0000000659013362
vn 1.128699831327437e-06 -1.0000001001301033 1.0880327411561476e-06
vn 1.128699831327437e-06 -1.0000001001301033 1.0880327411561476e-06
vn 1.128699831327437e-06 -1.0000001001301033 1.0880327411561476e-06
vn 1.128699831327437e-06 -1.0000001001301033 1.0880327411561476e-06
vn -1.128699831327437e-06 1.0000001001301033 -1.0880327411561476e-06
vn -1.128699831327437e-06 1.0000001001301033 -1.0880327411561476e-06
vn -1.128699831327437e-06 1.0000001001301033 -1.0880327411561476e-06
vn -1.128699831327437e-06 1.0000001001301033 -1.0880327411561476e-06
f 19/19/19 18/18/18 17/17/17
f 22/22/22 21/21/21 20/20/20
f 25/25/25 24/24/24 23/23/23
f 28/28/28 27/27/27 26/26/26
f 51/51/51 50/50/50 49/49/49
f 56/56/56 55/55/55 54/54/54
f 61/61/61 60/60/60 59/59/59
f 66/66/66 65/65/65 64/64/64
f 10/10/10 1/1/1 3/3/3
f 9/9/9 10/10/10 3/3/3
f 174/174/174 173/173/173 7/7/7
f 11/11/11 174/174/174 7/7/7
f 176/176/176 175/175/175 5/5/5
f 12/12/12 176/176/176 5/5/5
f 179/179/179 178/178/178 177/177/177
f 180/180/180 179/179/179 177/177/177
f 183/183/183 182/182/182 181/181/181
f 184/184/184 183/183/183 181/181/181
f 2/2/2 4/4/4 8/8/8
f 6/6/6 2/2/2 8/8/8
f 187/187/187 186/186/186 185/185/185
f 188/188/188 187/187/187 185/185/185
f 191/191/191 190/190/190 189/189/189
f 192/192/192 191/191/191 189/189/189
f 195/195/195 194/194/194 193/193/193
f 196/196/196 195/195/195 193/193/193
f 199/199/199 198/198/198 197/197/197
f 200/200/200 199/199/199 197/197/197
f 14/14/14 13/13/13 16/16/16
f 15/15/15 14/14/14 16/16/16
f 34/34/34 15/15/15 16/16/16
f 37/37/37 34/34/34 16/16/16
f 35/35/35 34/34/34 37/37/37
f 36/36/36 35/35/35 37/37/37
f 203/203/203 202/202/202 201/201/201
f 204/204/204 203/203/203 201/201/201
f 207/207/207 206/206/206 205/205/205
f 208/208/208 207/207/207 205/205/205
f 211/211/211 210/210/210 209/209/209
f 212/212/212 211/211/211 209/209/209
f 215/215/215 214/214/214 213/213/213
f 216/216/216 215/215/215 213/213/213
f 219/219/219 218/218/218 217/217/217
f 220/220/220 219/219/219 217/217/217
f 224/224/224 223/223/223 39/39/39
f 223/223/223 38/38/38 39/39/39
f 225/225/225 39/39/39 38/38/38
f 226/226/226 225/225/225 38/38/38
f 229/229/229 228/228/228 227/227/227
f 228/228/228 40/40/40 227/227/227
f 227/227/227 40/40/40 230/230/230
f 40/40/40 42/42/42 230/230/230
f 230/230/230 42/42/42 43/43/43
f 42/42/42 41/41/41 43/43/43
f 231/231/231 43/43/43 41/41/41
f 232/232/232 231/231/231 41/41/41
f 235/235/235 234/234/234 233/233/233
f 234/234/234 44/44/44 233/233/233
f 236/236/236 233/233/233 44/44/44
f 237/237/237 236/236/236 44/44/44
f 240/240/240 239/239/239 238/238/238
f 239/239/239 45/45/45 238/238/238
f 238/238/238 45/45/45 31/31/31
f 45/45/45 30/30/30 31/31/31
f 31/31/31 30/30/30 29/29/29
f 32/32/32 31/31/31 29/29/29
f 241/241/241 32/32/32 29/29/29
f 242/242/242 241/241/241 29/29/29
f 245/245/245 244/244/244 46/46/46
f 244/244/244 243/243/243 46/46/46
f 47/47/47 46/46/46 243/243/243
f 48/48/48 47/47/47 243/243/243
f 246/246/246 48/48/48 243/243/243
f 247/247/247 246/246/246 243/243/243
f 250/250/250 249/249/249 248/248/248
f 249/249/249 33/33/33 248/248/248
f 221/221/221 248/248/248 33/33/33
f 222/222/222 221/221/221 33/33/33
f 251/251/251 222/222/222 33/33/33
f 252/252/252 251/251/251 33/33/33
f 256/256/256 255/255/255 253/253/253
f 255/255/255 254/254/254 253/253/253
f 253/253/253 254/254/254 259/259/259
f 254/254/254 258/258/258 259/259/259
f 259/259/259 258/258/258 257/257/257
f 260/260/260 259/259/259 257/257/257
f 261/261/261 260/260/260 257/257/257
f 262/262/262 261/261/261 257/257/257
f 266/266/266 265/265/265 263/263/263
f 265/265/265 264/264/264 263/263/263
f 267/267/267 263/263/263 264/264/264
f 268/268/268 267/267/267 264/264/264
f 63/63/63 62/62/62 68/68/68
f 67/67/67 63/63/63 68/68/68
f 63/63/63 67/67/67 53/53/53
f 57/57/57 63/63/63 53/53/53
f 57/57/57 53/53/53 52/52/52
f 58/58/58 57/57/57 52/52/52
f 271/271/271 270/270/270 269/269/269
f 272/272/272 271/271/271 269/269/269
f 275/275/275 274/274/274 273/273/273
f 276/276/276 275/275/275 273/273/273
f 279/279/279 278/278/278 277/277/277
f 280/280/280 279/279/279 277/277/277
f 283/283/283 282/282/282 281/281/281
f 284/284/284 283/283/283 281/281/281
f 287/287/287 286/286/286 285/285/285
f 288/288/288 287/287/287 285/285/285
f 292/292/292 70/70/70 291/291/291
f 70/70/70 69/69/69 291/291/291
f 69/69/69 70/70/70 293/293/293
f 294/294/294 69/69/69 293/293/293
f 297/297/297 296/296/296 295/295/295
f 296/296/296 74/74/74 295/295/295
f 296/296/296 298/298/298 74/74/74
f 298/298/298 82/82/82 74/74/74
f 298/298/298 71/71/71 82/82/82
f 71/71/71 73/73/73 82/82/82
f 73/73/73 71/71/71 299/299/299
f 300/300/300 73/73/73 299/299/299
f 303/303/303 302/302/302 301/301/301
f 302/302/302 80/80/80 301/301/301
f 80/80/80 302/302/302 304/304/304
f 305/305/305 80/80/80 304/304/304
f 308/308/308 307/307/307 306/306/306
f 307/307/307 76/76/76 306/306/306
f 307/307/307 81/81/81 76/76/76
f 81/81/81 83/83/83 76/76/76
f 83/83/83 81/81/81 75/75/75
f 81/81/81 72/72/72 75/75/75
f 75/75/75 72/72/72 309/309/309
f 310/310/310 75/75/75 309/309/309
f 313/313/313 77/77/77 311/311/311
f 77/77/77 312/312/312 311/311/311
f 77/77/77 84/84/84 312/312/312
f 84/84/84 78/78/78 312/312/312
f 312/312/312 78/78/78 314/314/314
f 315/315/315 312/312/312 314/314/314
f 318/318/318 317/317/317 316/316/316
f 317/317/317 79/79/79 316/316/316
f 317/317/317 290/290/290 79/79/79
f 290/290/290 289/289/289 79/79/79
f 79/79/79 289/289/289 319/319/319
f 320/320/320 79/79/79 319/319/319
f 324/324/324 323/323/323 321/321/321
f 323/323/323 322/322/322 321/321/321
f 323/323/323 327/327/327 322/322/322
f 327/327/327 328/328/328 322/322/322
f 328/328/328 327/327/327 325/325/325
f 327/327/327 326/326/326 325/325/325
f 325/325/325 326/326/326 329/329/329
f 330/330/330 325/325/325 329/329/329
f 334/334/334 333/333/333 331/331/331
f 333/333/333 332/332/332 331/331/331
f 332/332/332 333/333/333 335/335/335
f 336/336/336 332/332/332 335/335/335
f 101/101/101 99/99/99 97/97/97
f 103/103/103 101/101/101 97/97/97
f 103/103/103 97/97/97 359/359/359
f 360/360/360 103/103/103 359/359/359
f 360/360/360 359/359/359 361/361/361
f 362/362/362 360/360/360 361/361/361
f 90/90/90 89/89/89 92/92/92
f 91/91/91 90/90/90 92/92/92
f 90/90/90 91/91/91 86/86/86
f 87/87/87 90/90/90 86/86/86
f 87/87/87 86/86/86 85/85/85
f 88/88/88 87/87/87 85/85/85
f 93/93/93 95/95/95 96/96/96
f 94/94/94 93/93/93 96/96/96
f 338/338/338 337/337/337 100/100/100
f 98/98/98 338/338/338 100/100/100
f 105/105/105 107/107/107 108/108/108
f 106/106/106 105/105/105 108/108/108
f 340/340/340 339/339/339 104/104/104
f 102/102/102 340/340/340 104/104/104
f 343/343/343 342/342/342 341/341/341
f 344/344/344 343/343/343 341/341/341
f 347/347/347 346/346/346 345/345/345
f 348/348/348 347/347/347 345/345/345
f 351/351/351 350/350/350 349/349/349
f 352/352/352 351/351/351 349/349/349
f 355/355/355 354/354/354 353/353/353
f 356/356/356 355/355/355 353/353/353
f 364/364/364 116/116/116 363/363/363
f 116/116/116 115/115/115 363/363/363
f 115/115/115 116/116/116 123/123/123
f 123/123/123 116/116/116 114/114/114
f 114/114/114 116/116/116 365/365/365
f 366/366/366 114/114/114 365/365/365
f 368/368/368 118/118/118 367/367/367
f 118/118/118 117/117/117 367/367/367
f 117/117/117 118/118/118 369/369/369
f 370/370/370 117/117/117 369/369/369
f 374/374/374 373/373/373 371/371/371
f 373/373/373 372/372/372 371/371/371
f 373/373/373 376/376/376 372/372/372
f 376/376/376 375/375/375 372/372/372
f 376/376/376 111/111/111 375/375/375
f 111/111/111 120/120/120 375/375/375
f 120/120/120 111/111/111 377/377/377
f 378/378/378 120/120/120 377/377/377
f 381/381/381 109/109/109 379/379/379
f 109/109/109 380/380/380 379/379/379
f 380/380/380 109/109/109 382/382/382
f 383/383/383 380/380/380 382/382/382
f 387/387/387 386/386/386 384/384/384
f 386/386/386 385/385/385 384/384/384
f 385/385/385 386/386/386 388/388/388
f 389/389/389 385/385/385 388/388/388
f 392/392/392 391/391/391 390/390/390
f 391/391/391 112/112/112 390/390/390
f 391/391/391 121/121/121 112/112/112
f 121/121/121 122/122/122 112/112/112
f 122/122/122 121/121/121 113/113/113
f 121/121/121 110/110/110 113/113/113
f 113/113/113 110/110/110 393/393/393
f 394/394/394 113/113/113 393/393/393
f 398/398/398 397/397/397 395/395/395
f 397/397/397 396/396/396 395/395/395
f 396/396/396 397/397/397 124/124/124
f 397/397/397 358/358/358 124/124/124
f 358/358/358 357/357/357 124/124/124
f 357/357/357 119/119/119 124/124/124
f 119/119/119 357/357/357 399/399/399
f 400/400/400 119/119/119 399/399/399
f 404/404/404 403/403/403 401/401/401
f 403/403/403 402/402/402 401/401/401
f 402/402/402 403/403/403 406/406/406
f 406/406/406 403/403/403 405/405/405
f 405/405/405 403/403/403 407/407/407
f 408/408/408 405/405/405 407/407/407
f 128/128/128 127/127/127 125/125/125
f 127/127/127 126/126/126 125/125/125
f 431/431/431 125/125/125 126/126/126
f 432/432/432 431/431/431 126/126/126
f 433/433/433 431/431/431 432/432/432
f 434/434/434 433/433/433 432/432/432
f 130/130/130 129/129/129 132/132/132
f 131/131/131 130/130/130 132/132/132
f 154/154/154 131/131/131 132/132/132
f 155/155/155 154/154/154 132/132/132
f 156/156/156 154/154/154 155/155/155
f 157/157/157 156/156/156 155/155/155
f 138/138/138 137/137/137 136/136/136
f 139/139/139 138/138/138 136/136/136
f 409/409/409 141/141/141 140/140/140
f 410/410/410 409/409/409 140/140/140
f 144/144/144 143/143/143 142/142/142
f 145/145/145 144/144/144 142/142/142
f 411/411/411 147/147/147 146/146/146
f 412/412/412 411/411/411 146/146/146
f 415/415/415 414/414/414 413/413/413
f 416/416/416 415/415/415 413/413/413
f 419/419/419 418/418/418 417/417/417
f 420/420/420 419/419/419 417/417/417
f 423/423/423 422/422/422 421/421/421
f 424/424/424 423/423/423 421/421/421
f 427/427/427 426/426/426 425/425/425
f 428/428/428 427/427/427 425/425/425
f 436/436/436 435/435/435 135/135/135
f 435/435/435 158/158/158 135/135/135
f 135/135/135 158/158/158 134/134/134
f 135/135/135 134/134/134 133/133/133
f 437/437/437 135/135/135 133/133/133
f 438/438/438 437/437/437 133/133/133
f 440/440/440 439/439/439 160/160/160
f 439/439/439 159/159/159 160/160/160
f 441/441/441 160/160/160 159/159/159
f 442/442/442 441/441/441 159/159/159
f 446/446/446 445/445/445 443/443/443
f 445/445/445 444/444/444 443/443/443
f 443/443/443 444/444/444 448/448/448
f 444/444/444 447/447/447 448/448/448
f 448/448/448 447/447/447 162/162/162
f 447/447/447 161/161/161 162/162/162
f 449/449/449 162/162/162 161/161/161
f 450/450/450 449/449/449 161/161/161
f 453/453/453 452/452/452 163/163/163
f 452/452/452 451/451/451 163/163/163
f 454/454/454 163/163/163 451/451/451
f 455/455/455 454/454/454 451/451/451
f 459/459/459 458/458/458 456/456/456
f 458/458/458 457/457/457 456/456/456
f 460/460/460 456/456/456 457/457/457
f 461/461/461 460/460/460 457/457/457
f 464/464/464 463/463/463 462/462/462
f 463/463/463 164/164/164 462/462/462
f 462/462/462 164/164/164 150/150/150
f 164/164/164 149/149/149 150/150/150
f 150/150/150 149/149/149 148/148/148
f 151/151/151 150/150/150 148/148/148
f 465/465/465 151/151/151 148/148/148
f 466/466/466 465/465/465 148/148/148
f 470/470/470 469/469/469 467/467/467
f 469/469/469 468/468/468 467/467/467
f 467/467/467 468/468/468 153/153/153
f 430/430/430 467/467/467 153/153/153
f 430/430/430 153/153/153 429/429/429
f 153/153/153 152/152/152 429/429/429
f 471/471/471 429/429/429 152/152/152
f 472/472/472 471/471/471 152/152/152
f 476/476/476 475/475/475 473/473/473
f 475/475/475 474/474/474 473/473/473
f 473/473/473 474/474/474 478/478/478
f 473/473/473 478/478/478 477/477/477
f 479/479/479 473/473/473 477/477/477
f 480/480/480 479/479/479 477/477/477
f 168/168/168 167/167/167 165/165/165
f 166/166/166 168/168/168 165/165/165
f 171/171/171 482/482/482 481/481/481
f 172/172/172 171/171/171 481/481/481
f 170/170/170 169/169/169 483/483/483
f 484/484/484 170/170/170 483/483/483
f 487/487/487 486/486/486 485/485/485
f 488/488/488 487/487/487 485/485/485
f 491/491/491 490/490/490 489/489/489
f 492/492/492 491/491/491 489/489/489
f 495/495/495 494/494/494 493/493/493
f 496/496/496 495/495/495 493/493/493