g ArmorGirlHelmet
v -0.256901801 1.89714837 0.168911859
v -0.256901652 1.89714837 -0.185359776
v -0.225327522 1.93021524 0.168911889
v -0.225327566 1.89714837 0.202414006
v 0.225327432 1.89714813 0.202414215
v 0.225327462 1.930215 0.168912083
v 0.256901741 1.89714813 0.168912098
v 0.256901443 1.89714813 -0.185359538
v 0.225327641 1.930215 -0.185359553
v 0.225327626 1.89714813 -0.218862057
v -0.225327373 1.89714837 -0.218861938
v -0.225327358 1.93021524 -0.185359746
v -0.25690186 1.79818416 0.1689118
v -0.256901681 1.79818416 -0.185359791
v -0.225327417 1.79818416 -0.218861982
v 0.225327581 1.79818392 -0.218862072
v 0.256901413 1.79818392 -0.185359553
v 0.256901711 1.79818392 0.168912038
v 0.225327387 1.79818392 0.2024142
v -0.225327596 1.79818416 0.202413991
v -0.233715504 1.79818416 0.210255101
v -0.266465157 1.79818416 0.175505787
v -0.266465187 1.75751495 0.175505772
v -0.233715534 1.75751495 0.210255086
v -0.266464978 1.75751495 -0.191953763
v -0.266464978 1.79818416 -0.191953748
v 0.233715281 1.7575146 0.21025531
v 0.233715296 1.79818392 0.21025531
v 0.266464978 1.79818392 0.17550604
v 0.266464949 1.7575146 0.17550604
v 0.26646468 1.7575146 -0.191953495
v 0.26646471 1.79818392 -0.191953495
v 0.23371549 1.7575146 -0.226703182
v 0.233715504 1.79818392 -0.226703182
v -0.233715296 1.79818416 -0.226703063
v -0.233715326 1.75751495 -0.226703092
v -0.0473171361 1.93021536 -0.185359895
v -0.0473171361 1.89714825 -0.218862012
v -0.0473172031 1.75959158 -0.218862027
v -0.0562549494 1.75751472 0.20241417
v -0.0473173372 1.89714825 0.202414185
v -0.0473173037 1.93021536 0.168911755
v 0.0473155156 1.89714825 -0.218861982
v 0.0473154485 1.75959158 -0.218861997
v 0.0562527888 1.75751472 0.202414066
v 0.0473153144 1.89714825 0.202414095
v 0.0473153479 1.93021536 0.168911815
v 0.0473155156 1.93021536 -0.185359851
v -0.0473171324 1.94213867 -0.189690009
v -0.0473171324 1.90450513 -0.228705004
v 0.0473155193 1.94213867 -0.189689994
v 0.0473155193 1.90450513 -0.228704959
v 0.0473154522 1.75959158 -0.228704974
v -0.0473171994 1.75959158 -0.228705019
v -0.0562549345 1.75751472 0.212257057
v -0.047317341 1.90450513 0.212257177
v 0.056252785 1.75751472 0.212256983
v 0.0473153107 1.90450513 0.212257072
v 0.0473153479 1.94213867 0.173241958
v -0.0473173037 1.94213867 0.173241898
v -0.023659246 1.72695923 0.20241417
v 0.02365705 1.72695923 0.202414051
v 0.0236570444 1.72695923 0.212256968
v -0.0236592498 1.72695923 0.212257057
v -0.0473173745 1.81916153 0.20241417
v -0.0473173782 1.81916177 0.212257087
v 0.0473152809 1.81916177 0.212257057
v 0.0473152883 1.81916153 0.202414095
v -0.0562549159 1.81083977 0.20241417
v -0.0562549196 1.81083977 0.212257087
v 0.0562528074 1.81083977 0.212257013
v 0.0562528111 1.81083977 0.202414095
v -0.266465157 1.79818416 0.175505787
v -0.266465187 1.75751495 0.175505772
v -0.225327522 1.93021524 0.168911889
v -0.256901801 1.89714837 0.168911859
v -0.225327566 1.89714837 0.202414006
v -0.225327522 1.93021524 0.168911889
v -0.233715534 1.75751495 0.210255086
v -0.233715504 1.79818416 0.210255101
v 0.233715281 1.7575146 0.21025531
v 0.233715296 1.79818392 0.21025531
v 0.225327462 1.930215 0.168912083
v 0.225327432 1.89714813 0.202414215
v 0.256901741 1.89714813 0.168912098
v 0.225327462 1.930215 0.168912083
v 0.266464949 1.7575146 0.17550604
v 0.266464978 1.79818392 0.17550604
v 0.256901443 1.89714813 -0.185359538
v 0.225327641 1.930215 -0.185359553
v 0.26646468 1.7575146 -0.191953495
v 0.26646471 1.79818392 -0.191953495
v 0.23371549 1.7575146 -0.226703182
v 0.233715504 1.79818392 -0.226703182
v -0.225327358 1.93021524 -0.185359746
v 0.225327626 1.89714813 -0.218862057
v 0.225327641 1.930215 -0.185359553
v -0.266464978 1.79818416 -0.191953748
v -0.266464978 1.75751495 -0.191953763
v -0.233715326 1.75751495 -0.226703092
v -0.233715296 1.79818416 -0.226703063
v -0.225327358 1.93021524 -0.185359746
v -0.256901652 1.89714837 -0.185359776
v -0.225327373 1.89714837 -0.218861938
v -0.225327522 1.93021524 0.168911889
v -0.225327358 1.93021524 -0.185359746
v 0.225327641 1.930215 -0.185359553
v 0.225327462 1.930215 0.168912083
v -0.256901652 1.89714837 -0.185359776
v -0.256901801 1.89714837 0.168911859
v -0.225327373 1.89714837 -0.218861938
v -0.256901652 1.89714837 -0.185359776
v -0.256901681 1.79818416 -0.185359791
v -0.225327373 1.89714837 -0.218861938
v -0.225327417 1.79818416 -0.218861982
v 0.225327626 1.89714813 -0.218862057
v 0.256901443 1.89714813 -0.185359538
v 0.225327626 1.89714813 -0.218862057
v 0.225327581 1.79818392 -0.218862072
v 0.256901741 1.89714813 0.168912098
v 0.256901443 1.89714813 -0.185359538
v 0.256901413 1.79818392 -0.185359553
v 0.225327432 1.89714813 0.202414215
v 0.256901741 1.89714813 0.168912098
v 0.256901711 1.79818392 0.168912038
v -0.225327566 1.89714837 0.202414006
v 0.225327432 1.89714813 0.202414215
v 0.225327387 1.79818392 0.2024142
v -0.256901801 1.89714837 0.168911859
v -0.225327566 1.89714837 0.202414006
v -0.225327596 1.79818416 0.202413991
v -0.25690186 1.79818416 0.1689118
v -0.225327596 1.79818416 0.202413991
v -0.233715504 1.79818416 0.210255101
v -0.266465157 1.79818416 0.175505787
v -0.25690186 1.79818416 0.1689118
v -0.25690186 1.79818416 0.1689118
v -0.266465157 1.79818416 0.175505787
v -0.266464978 1.79818416 -0.191953748
v -0.256901681 1.79818416 -0.185359791
v 0.225327387 1.79818392 0.2024142
v 0.233715296 1.79818392 0.21025531
v 0.256901711 1.79818392 0.168912038
v 0.266464978 1.79818392 0.17550604
v 0.256901413 1.79818392 -0.185359553
v 0.26646471 1.79818392 -0.191953495
v 0.266464978 1.79818392 0.17550604
v 0.256901711 1.79818392 0.168912038
v 0.225327581 1.79818392 -0.218862072
v 0.233715504 1.79818392 -0.226703182
v 0.26646471 1.79818392 -0.191953495
v 0.256901413 1.79818392 -0.185359553
v -0.225327417 1.79818416 -0.218861982
v -0.233715296 1.79818416 -0.226703063
v -0.256901681 1.79818416 -0.185359791
v -0.266464978 1.79818416 -0.191953748
v 0.23371549 1.7575146 -0.226703182
v 0.233715281 1.7575146 0.21025531
v 0.266464949 1.7575146 0.17550604
v 0.26646468 1.7575146 -0.191953495
v -0.233715326 1.75751495 -0.226703092
v -0.233715534 1.75751495 0.210255086
v -0.266464978 1.75751495 -0.191953763
v -0.266465187 1.75751495 0.175505772
v 0.0473155193 1.90450513 -0.228704959
v -0.0473171324 1.90450513 -0.228705004
v 0.0473153107 1.90450513 0.212257072
v -0.047317341 1.90450513 0.212257177
v 0.0473153479 1.94213867 0.173241958
v -0.0473173037 1.94213867 0.173241898
v -0.0473171324 1.94213867 -0.189690009
v 0.0473155193 1.94213867 -0.189689994
v -0.0473171324 1.90450513 -0.228705004
v -0.0473171324 1.94213867 -0.189690009
v 0.0473155193 1.94213867 -0.189689994
v 0.0473155193 1.90450513 -0.228704959
v 0.0473154522 1.75959158 -0.228704974
v 0.0473154485 1.75959158 -0.218861997
v 0.0473154522 1.75959158 -0.228704974
v -0.0473171994 1.75959158 -0.228705019
v -0.0473171994 1.75959158 -0.228705019
v -0.0473172031 1.75959158 -0.218862027
v -0.047317341 1.90450513 0.212257177
v -0.0473173782 1.81916177 0.212257087
v 0.0473152809 1.81916177 0.212257057
v 0.0473153107 1.90450513 0.212257072
v 0.0473153479 1.94213867 0.173241958
v -0.0473173037 1.94213867 0.173241898
v -0.023659246 1.72695923 0.20241417
v 0.02365705 1.72695923 0.202414051
v 0.0562527888 1.75751472 0.202414066
v 0.02365705 1.72695923 0.202414051
v 0.0236570444 1.72695923 0.212256968
v 0.056252785 1.75751472 0.212256983
v 0.0236570444 1.72695923 0.212256968
v -0.0236592498 1.72695923 0.212257057
v -0.0562549345 1.75751472 0.212257057
v -0.0236592498 1.72695923 0.212257057
v -0.023659246 1.72695923 0.20241417
v -0.0562549494 1.75751472 0.20241417
v -0.0473173782 1.81916177 0.212257087
v -0.0473173745 1.81916153 0.20241417
v 0.0473152809 1.81916177 0.212257057
v -0.0562549196 1.81083977 0.212257087
v -0.0473173782 1.81916177 0.212257087
v 0.0562528074 1.81083977 0.212257013
v 0.0473152809 1.81916177 0.212257057
v 0.0473152883 1.81916153 0.202414095
v -0.0562549196 1.81083977 0.212257087
v -0.0562549345 1.75751472 0.212257057
v -0.0562549494 1.75751472 0.20241417
v -0.0562549159 1.81083977 0.20241417
v 0.0562527888 1.75751472 0.202414066
v 0.056252785 1.75751472 0.212256983
v 0.0562528074 1.81083977 0.212257013
v 0.0562528111 1.81083977 0.202414095
vt 0.298848718 0.573037922
vt 0.298848718 0.740605891
vt 0.320451111 0.573037922
vt 0.645230412 0.52956295
vt 0.645230412 0.317013472
vt 0.667275488 0.316123575
vt 0.64910084 0.296491951
vt 0.554980159 0.740605891
vt 0.533377886 0.740605891
vt 0.671604156 0.808313251
vt 0.671604156 0.595763683
vt 0.320450932 0.740605891
vt 0.252089649 0.573037922
vt 0.252089322 0.740605712
vt 0.624965429 0.594951689
vt 0.62496531 0.809124827
vt 0.626598001 0.831529558
vt 0.601739168 0.573038101
vt 0.598591447 0.316201478
vt 0.598591387 0.530374348
vt 0.459309638 0.867609143
vt 0.436029971 0.867609143
vt 0.436029971 0.848138094
vt 0.459309638 0.848138094
vt 0.265138149 0.848138094
vt 0.265138149 0.867609143
vt 0.657343149 0.848138094
vt 0.657343149 0.867609143
vt 0.677354157 0.867609143
vt 0.677354157 0.848138094
vt 0.798304439 0.848138094
vt 0.798304439 0.867609143
vt 0.0397471339 0.848138094
vt 0.0397471339 0.867609143
vt 0.241789579 0.867609143
vt 0.241789579 0.848138094
vt 0.346466064 0.76739186
vt 0.318377346 0.76739186
vt 0.25003019 0.76739186
vt 0.56940937 0.546088815
vt 0.543993413 0.767391801
vt 0.5163607 0.767391801
vt 0.318377435 0.823213816
vt 0.25003022 0.823213816
vt 0.516251147 0.546089232
vt 0.543993413 0.823213756
vt 0.5163607 0.823213756
vt 0.346466064 0.823213816
vt 0.345059842 0.772638261
vt 0.320743591 0.772638261
vt 0.34514448 0.817824066
vt 0.320756465 0.817824066
vt 0.252670765 0.817824066
vt 0.252670825 0.772638381
vt 0.516251326 0.477517158
vt 0.542158067 0.772638321
vt 0.573227048 0.325250983
vt 0.542236447 0.817824125
vt 0.517777026 0.817824125
vt 0.51767844 0.772638321
vt 0.568578303 0.368714601
vt 0.568577349 0.346359551
vt 0.573227763 0.346359432
vt 0.573228598 0.368714333
vt 0.582321644 0.767391801
vt 0.582321644 0.772638321
vt 0.582321644 0.817824125
vt 0.582321703 0.823213756
vt 0.568579733 0.4150168
vt 0.573230088 0.415016562
vt 0.569408894 0.502712429
vt 0.56857574 0.300057352
vt 0.436029971 0.867609143
vt 0.436029971 0.848138094
vt 0.667275488 0.530369222
vt 0.64910084 0.549732327
vt 0.645230412 0.52956295
vt 0.667275488 0.530369222
vt 0.459309638 0.848138094
vt 0.459309638 0.867609143
vt 0.657343149 0.848138094
vt 0.657343149 0.867609143
vt 0.667275488 0.316123575
vt 0.645230412 0.317013472
vt 0.554980159 0.573037922
vt 0.533377886 0.573037922
vt 0.677354157 0.848138094
vt 0.677354157 0.867609143
vt 0.675474584 0.828482807
vt 0.693649232 0.809119523
vt 0.0199999996 0.848138094
vt 0.0199999996 0.867609143
vt 0.0397471339 0.848138094
vt 0.0397471339 0.867609143
vt 0.693649232 0.594873786
vt 0.671604156 0.808313251
vt 0.693649232 0.809119523
vt 0.265138149 0.867609143
vt 0.265138149 0.848138094
vt 0.241789579 0.848138094
vt 0.241789579 0.867609143
vt 0.693649232 0.594873786
vt 0.675474584 0.575242221
vt 0.671604156 0.595763683
vt 0.320451111 0.573037922
vt 0.320450932 0.740605891
vt 0.533377886 0.740605891
vt 0.533377886 0.573037922
vt 0.298848718 0.740605891
vt 0.298848718 0.573037922
vt 0.671604156 0.595763683
vt 0.675474584 0.575242221
vt 0.626598001 0.573037922
vt 0.671604156 0.595763683
vt 0.624965429 0.594951689
vt 0.671604156 0.808313251
vt 0.675474584 0.828482807
vt 0.671604156 0.808313251
vt 0.62496531 0.809124827
vt 0.554980159 0.573037922
vt 0.554980159 0.740605891
vt 0.60173887 0.740605891
vt 0.645230412 0.317013472
vt 0.64910084 0.296491951
vt 0.600224137 0.294287771
vt 0.645230412 0.52956295
vt 0.645230412 0.317013472
vt 0.598591447 0.316201478
vt 0.64910084 0.549732327
vt 0.645230412 0.52956295
vt 0.598591387 0.530374348
vt 0.600224137 0.552779257
vt 0.459309638 0.872365117
vt 0.459309638 0.867609143
vt 0.436029971 0.867609143
vt 0.436029971 0.872365117
vt 0.436029971 0.872365117
vt 0.436029971 0.867609143
vt 0.265138149 0.867609143
vt 0.265138149 0.872365117
vt 0.657343149 0.872365117
vt 0.657343149 0.867609143
vt 0.677354157 0.872365117
vt 0.677354157 0.867609143
vt 0.798304439 0.872365117
vt 0.798304439 0.867609143
vt 0.677354157 0.867609143
vt 0.677354157 0.872365117
vt 0.0397471339 0.872365117
vt 0.0397471339 0.867609143
vt 0.0199999996 0.867609143
vt 0.0199999996 0.872365117
vt 0.241789579 0.872365117
vt 0.241789579 0.867609143
vt 0.265138149 0.872365117
vt 0.265138149 0.867609143
vt 0.0211290456 0.589323878
vt 0.227585211 0.589323878
vt 0.211166769 0.573850095
vt 0.0375478417 0.573850334
vt 0.0211293865 0.810177803
vt 0.227585211 0.810177803
vt 0.0375478417 0.825651467
vt 0.211166769 0.825651467
vt 0.320756465 0.817824066
vt 0.320743591 0.772638261
vt 0.542236447 0.817824125
vt 0.542158067 0.772638321
vt 0.517777026 0.817824125
vt 0.51767844 0.772638321
vt 0.345059842 0.772638261
vt 0.34514448 0.817824066
vt 0.320743591 0.772638261
vt 0.345059842 0.772638261
vt 0.34514448 0.817824066
vt 0.320756465 0.817824066
vt 0.252670765 0.817824066
vt 0.25003022 0.823213816
vt 0.252670765 0.817824066
vt 0.252670825 0.772638381
vt 0.252670825 0.772638381
vt 0.25003019 0.76739186
vt 0.542158067 0.772638321
vt 0.582321644 0.772638321
vt 0.582321644 0.817824125
vt 0.542236447 0.817824125
vt 0.517777026 0.817824125
vt 0.51767844 0.772638321
vt 0.554008245 0.531651974
vt 0.531652153 0.531652153
vt 0.568576694 0.325251251
vt 0.568577349 0.346359551
vt 0.573227763 0.346359432
vt 0.569409072 0.477517158
vt 0.554008067 0.463080257
vt 0.531652153 0.463080257
vt 0.573229373 0.389822811
vt 0.573228598 0.368714333
vt 0.568578303 0.368714601
vt 0.568579018 0.38982287
vt 0.573230147 0.420786291
vt 0.568579853 0.420786321
vt 0.565186203 0.506644309
vt 0.516251147 0.502712309
vt 0.520473897 0.506644309
vt 0.573226035 0.300057232
vt 0.573225856 0.294287533
vt 0.568575561 0.294287771
vt 0.573230088 0.415016562
vt 0.573229373 0.389822811
vt 0.568579018 0.38982287
vt 0.568579733 0.4150168
vt 0.568576694 0.325251251
vt 0.573227048 0.325250983
vt 0.573226035 0.300057232
vt 0.56857574 0.300057352
vn -0.72324121 0.690595508 -0.0
vn -0.72324121 0.690595508 -0.0
vn -0.72324121 0.690595508 -0.0
vn -0.597616494 0.570640624 0.563226163
vn -0.0 0.711715102 0.702468276
vn -0.0 0.711715102 0.702468276
vn 0.597615778 0.570640504 0.563227177
vn 0.723243892 0.690592706 -0.0
vn 0.723243892 0.690592706 -0.0
vn 0.597623944 0.570639372 -0.563219607
vn -0.0 0.711717248 -0.702465951
vn -0.72324121 0.690595508 -0.0
vn -1.0 0.0 -0.0
vn -1.0 0.0 -0.0
vn -0.727735698 0.0 -0.685857713
vn -0.0 0.0 -1.0
vn 0.727743983 0.0 -0.685848832
vn 1.0 0.0 -0.0
vn 0.727734923 0.0 0.685858428
vn -0.0 0.0 1.0
vn -0.727735579 0.0 0.685857773
vn -0.727735579 0.0 0.685857773
vn -0.727735579 0.0 0.685857773
vn -0.727735579 0.0 0.685857773
vn -1.0 0.0 -0.0
vn -1.0 0.0 -0.0
vn -0.0 0.0 1.0
vn -0.0 0.0 1.0
vn 0.727734983 0.0 0.685858369
vn 0.727734983 0.0 0.685858369
vn 1.0 0.0 -0.0
vn 1.0 0.0 -0.0
vn 0.727743983 0.0 -0.685848892
vn 0.727743983 0.0 -0.685848892
vn -0.0 0.0 -1.0
vn -0.0 0.0 -1.0
vn -1.0 0.0 -0.0
vn -1.0 0.0 -0.0
vn -0.0 -1.0 -0.0
vn -0.0 0.0 -1.0
vn -1.0 0.0 -0.0
vn -1.0 0.0 -0.0
vn 1.0 0.0 -0.0
vn 1.0 0.0 -0.0
vn -0.0 0.0 -1.0
vn 1.0 0.0 -0.0
vn 1.0 0.0 -0.0
vn 1.0 0.0 -0.0
vn -0.0 0.719734371 -0.694249511
vn -0.0 0.719734371 -0.694249511
vn -0.0 0.719734371 -0.694249511
vn -0.0 0.719734371 -0.694249511
vn -0.0 0.0 -1.0
vn -0.0 0.0 -1.0
vn -0.0 0.0 1.0
vn -0.0 0.0 1.0
vn 0.683906198 -0.729569912 -0.0
vn -0.0 0.0 1.0
vn -0.0 0.719736338 0.694247603
vn -0.0 0.719736338 0.694247603
vn -0.0 -1.0 -0.0
vn -0.0 -1.0 -0.0
vn -0.0 -1.0 -0.0
vn -0.0 -1.0 -0.0
vn -1.0 0.0 -0.0
vn -0.0 0.0 1.0
vn -0.0 0.0 1.0
vn 1.0 0.0 -0.0
vn -0.6814484 0.731866181 -1.1674123e-05
vn -0.6814484 0.731866181 -1.1674123e-05
vn -0.0 0.0 1.0
vn 0.681448996 0.731865644 -1.10016172e-05
vn -1.0 0.0 -0.0
vn -1.0 0.0 -0.0
vn -0.597616494 0.570640624 0.563226163
vn -0.597616494 0.570640624 0.563226163
vn -0.0 0.711715102 0.702468276
vn -0.0 0.711715102 0.702468276
vn -0.0 0.0 1.0
vn -0.0 0.0 1.0
vn 0.727734983 0.0 0.685858369
vn 0.727734983 0.0 0.685858369
vn 0.597615778 0.570640504 0.563227177
vn 0.597615778 0.570640504 0.563227177
vn 0.723243892 0.690592706 -0.0
vn 0.723243892 0.690592706 -0.0
vn 1.0 0.0 -0.0
vn 1.0 0.0 -0.0
vn 0.597623944 0.570639372 -0.563219607
vn 0.597623944 0.570639372 -0.563219607
vn 0.727743983 0.0 -0.685848892
vn 0.727743983 0.0 -0.685848892
vn -0.0 0.0 -1.0
vn -0.0 0.0 -1.0
vn -0.0 0.711717248 -0.702465951
vn -0.0 0.711717248 -0.702465951
vn -0.0 0.711717248 -0.702465951
vn -0.72773546 0.0 -0.685858011
vn -0.72773546 0.0 -0.685858011
vn -0.72773546 0.0 -0.685858011
vn -0.72773546 0.0 -0.685858011
vn -0.597615957 0.570641398 -0.563225985
vn -0.597615957 0.570641398 -0.563225985
vn -0.597615957 0.570641398 -0.563225985
vn -0.0 1.0 -0.0
vn -0.0 1.0 -0.0
vn -0.0 1.0 -0.0
vn -0.0 1.0 -0.0
vn -1.0 0.0 -0.0
vn -1.0 0.0 -0.0
vn -0.727735698 0.0 -0.685857713
vn -0.727735698 0.0 -0.685857713
vn -0.727735698 0.0 -0.685857713
vn -0.0 0.0 -1.0
vn -0.0 0.0 -1.0
vn -0.0 0.0 -1.0
vn 0.727743983 0.0 -0.685848832
vn 0.727743983 0.0 -0.685848832
vn 0.727743983 0.0 -0.685848832
vn 1.0 0.0 -0.0
vn 1.0 0.0 -0.0
vn 1.0 0.0 -0.0
vn 0.727734923 0.0 0.685858428
vn 0.727734923 0.0 0.685858428
vn 0.727734923 0.0 0.685858428
vn -0.0 0.0 1.0
vn -0.0 0.0 1.0
vn -0.0 0.0 1.0
vn -0.727735937 0.0 0.685857415
vn -0.727735937 0.0 0.685857415
vn -0.727735937 0.0 0.685857415
vn -0.727735937 0.0 0.685857415
vn -0.0 1.0 -0.0
vn -0.0 1.0 -0.0
vn -0.0 1.0 -0.0
vn -0.0 1.0 -0.0
vn -0.0 1.0 -0.0
vn -0.0 1.0 -0.0
vn -0.0 1.0 -0.0
vn -0.0 1.0 -0.0
vn -0.0 1.0 -0.0
vn -0.0 1.0 -0.0
vn -0.0 1.0 -0.0
vn -0.0 1.0 -0.0
vn -0.0 1.0 -0.0
vn -0.0 1.0 -0.0
vn -0.0 1.0 -0.0
vn -0.0 1.0 -0.0
vn -0.0 1.0 -0.0
vn -0.0 1.0 -0.0
vn -0.0 1.0 -0.0
vn -0.0 1.0 -0.0
vn -0.0 1.0 -0.0
vn -0.0 1.0 -0.0
vn -0.0 1.0 -0.0
vn -0.0 1.0 -0.0
vn -0.0 -1.0 -0.0
vn -0.0 -1.0 -0.0
vn -0.0 -1.0 -0.0
vn -0.0 -1.0 -0.0
vn -0.0 -1.0 -0.0
vn -0.0 -1.0 -0.0
vn -0.0 -1.0 -0.0
vn -0.0 -1.0 -0.0
vn -0.0 0.0 -1.0
vn -0.0 0.0 -1.0
vn -0.0 0.719736338 0.694247603
vn -0.0 0.719736338 0.694247603
vn -0.0 1.0 -0.0
vn -0.0 1.0 -0.0
vn -0.0 1.0 -0.0
vn -0.0 1.0 -0.0
vn -1.0 0.0 -0.0
vn -1.0 0.0 -0.0
vn 1.0 0.0 -0.0
vn 1.0 0.0 -0.0
vn 1.0 0.0 -0.0
vn -0.0 -1.0 -0.0
vn -0.0 -1.0 -0.0
vn -0.0 -1.0 -0.0
vn -1.0 0.0 -0.0
vn -1.0 0.0 -0.0
vn -1.0 0.0 -0.0
vn -1.0 0.0 -0.0
vn 1.0 0.0 -0.0
vn 1.0 0.0 -0.0
vn 1.0 0.0 -0.0
vn -1.0 0.0 -0.0
vn -0.0 0.0 -1.0
vn -0.0 0.0 -1.0
vn 0.683906198 -0.729569912 -0.0
vn 0.683906198 -0.729569912 -0.0
vn 0.683906198 -0.729569912 -0.0
vn -0.0 0.0 1.0
vn -0.0 0.0 1.0
vn -0.0 0.0 1.0
vn -0.683906734 -0.729569495 -0.0
vn -0.683906734 -0.729569495 -0.0
vn -0.683906734 -0.729569495 -0.0
vn -0.683906734 -0.729569495 -0.0
vn -0.6814484 0.731866181 -1.1674123e-05
vn -0.6814484 0.731866181 -1.1674123e-05
vn -0.0 0.0 1.0
vn -0.0 0.0 1.0
vn -0.0 0.0 1.0
vn 0.681448996 0.731865644 -1.10016172e-05
vn 0.681448996 0.731865644 -1.10016172e-05
vn 0.681448996 0.731865644 -1.10016172e-05
vn -1.0 0.0 -0.0
vn -1.0 0.0 -0.0
vn -1.0 0.0 -0.0
vn -1.0 0.0 -0.0
vn 1.0 0.0 -0.0
vn 1.0 0.0 -0.0
vn 1.0 0.0 -0.0
vn 1.0 0.0 -0.0
g ArmorGirlHelmet_0
f 76/76/76 4/4/4 75/75/75
f 84/84/84 7/7/7 83/83/83
f 90/90/90 89/89/89 10/10/10
f 104/104/104 103/103/103 102/102/102
f 23/23/23 24/24/24 21/21/21
f 22/22/22 23/23/23 21/21/21
f 73/73/73 26/26/26 25/25/25
f 74/74/74 73/73/73 25/25/25
f 2/2/2 1/1/1 3/3/3
f 12/12/12 2/2/2 3/3/3
f 6/6/6 78/78/78 77/77/77
f 5/5/5 6/6/6 77/77/77
f 28/28/28 80/80/80 79/79/79
f 27/27/27 28/28/28 79/79/79
f 81/81/81 30/30/30 29/29/29
f 82/82/82 81/81/81 29/29/29
f 85/85/85 8/8/8 9/9/9
f 86/86/86 85/85/85 9/9/9
f 32/32/32 88/88/88 87/87/87
f 31/31/31 32/32/32 87/87/87
f 34/34/34 92/92/92 91/91/91
f 33/33/33 34/34/34 91/91/91
f 93/93/93 36/36/36 35/35/35
f 94/94/94 93/93/93 35/35/35
f 96/96/96 11/11/11 95/95/95
f 97/97/97 96/96/96 95/95/95
f 100/100/100 99/99/99 98/98/98
f 101/101/101 100/100/100 98/98/98
f 107/107/107 106/106/106 105/105/105
f 108/108/108 107/107/107 105/105/105
f 110/110/110 109/109/109 14/14/14
f 13/13/13 110/110/110 14/14/14
f 113/113/113 112/112/112 111/111/111
f 15/15/15 113/113/113 111/111/111
f 16/16/16 115/115/115 114/114/114
f 116/116/116 16/16/16 114/114/114
f 118/118/118 117/117/117 17/17/17
f 119/119/119 118/118/118 17/17/17
f 121/121/121 120/120/120 18/18/18
f 122/122/122 121/121/121 18/18/18
f 125/125/125 124/124/124 123/123/123
f 19/19/19 125/125/125 123/123/123
f 127/127/127 126/126/126 20/20/20
f 128/128/128 127/127/127 20/20/20
f 131/131/131 130/130/130 129/129/129
f 132/132/132 131/131/131 129/129/129
f 136/136/136 135/135/135 133/133/133
f 135/135/135 134/134/134 133/133/133
f 133/133/133 134/134/134 141/141/141
f 134/134/134 142/142/142 141/141/141
f 141/141/141 142/142/142 143/143/143
f 142/142/142 144/144/144 143/143/143
f 139/139/139 138/138/138 137/137/137
f 140/140/140 139/139/139 137/137/137
f 147/147/147 146/146/146 145/145/145
f 148/148/148 147/147/147 145/145/145
f 152/152/152 151/151/151 149/149/149
f 151/151/151 150/150/150 149/149/149
f 149/149/149 150/150/150 153/153/153
f 150/150/150 154/154/154 153/153/153
f 153/153/153 154/154/154 155/155/155
f 154/154/154 156/156/156 155/155/155
f 160/160/160 159/159/159 157/157/157
f 159/159/159 158/158/158 157/157/157
f 158/158/158 162/162/162 157/157/157
f 162/162/162 161/161/161 157/157/157
f 162/162/162 164/164/164 161/161/161
f 164/164/164 163/163/163 161/161/161
f 51/51/51 52/52/52 50/50/50
f 49/49/49 51/51/51 50/50/50
f 166/166/166 165/165/165 53/53/53
f 54/54/54 166/166/166 53/53/53
f 67/67/67 58/58/58 56/56/56
f 66/66/66 67/67/67 56/56/56
f 60/60/60 168/168/168 167/167/167
f 59/59/59 60/60/60 167/167/167
f 171/171/171 170/170/170 169/169/169
f 172/172/172 171/171/171 169/169/169
f 44/44/44 177/177/177 43/43/43
f 177/177/177 176/176/176 43/43/43
f 43/43/43 176/176/176 48/48/48
f 176/176/176 175/175/175 48/48/48
f 48/48/48 175/175/175 47/47/47
f 175/175/175 187/187/187 47/47/47
f 47/47/47 187/187/187 46/46/46
f 187/187/187 186/186/186 46/46/46
f 46/46/46 186/186/186 185/185/185
f 68/68/68 46/46/46 185/185/185
f 180/180/180 179/179/179 178/178/178
f 39/39/39 180/180/180 178/178/178
f 182/182/182 38/38/38 181/181/181
f 38/38/38 173/173/173 181/181/181
f 174/174/174 173/173/173 38/38/38
f 37/37/37 174/174/174 38/38/38
f 188/188/188 174/174/174 37/37/37
f 42/42/42 188/188/188 37/37/37
f 183/183/183 188/188/188 42/42/42
f 41/41/41 183/183/183 42/42/42
f 184/184/184 183/183/183 41/41/41
f 65/65/65 184/184/184 41/41/41
f 63/63/63 64/64/64 61/61/61
f 62/62/62 63/63/63 61/61/61
f 190/190/190 189/189/189 40/40/40
f 45/45/45 190/190/190 40/40/40
f 193/193/193 192/192/192 191/191/191
f 57/57/57 193/193/193 191/191/191
f 196/196/196 195/195/195 194/194/194
f 55/55/55 196/196/196 194/194/194
f 55/55/55 194/194/194 71/71/71
f 204/204/204 55/55/55 71/71/71
f 204/204/204 71/71/71 203/203/203
f 205/205/205 204/204/204 203/203/203
f 199/199/199 198/198/198 197/197/197
f 200/200/200 199/199/199 197/197/197
f 69/69/69 70/70/70 201/201/201
f 202/202/202 69/69/69 201/201/201
f 208/208/208 207/207/207 206/206/206
f 72/72/72 208/208/208 206/206/206
f 211/211/211 210/210/210 209/209/209
f 212/212/212 211/211/211 209/209/209
f 215/215/215 214/214/214 213/213/213
f 216/216/216 215/215/215 213/213/213
