g ArmorGirlPants
v 0.00303241285 0.354172289 0.0904101133
v 0.00303241285 0.415232033 0.0904101133
v 0.00303241285 0.415232033 -0.096122466
v 0.00303241285 0.354172289 -0.096122466
v 0.0481834002 0.415232033 0.111344218
v 0.0481834002 0.415232033 -0.117056571
v 0.0481834002 0.354172289 -0.117056571
v 0.0481834002 0.354172289 0.111344218
v 0.164814711 0.415232033 0.111344218
v 0.164814711 0.415232033 -0.117056571
v 0.164814711 0.354172289 -0.117056571
v 0.164814711 0.354172289 0.111344218
v 0.223953351 0.415232033 0.0763469264
v 0.223953351 0.354172289 0.0763469487
v 0.223953351 0.415232033 -0.0820593163
v 0.223953351 0.354172289 -0.0820593089
v 0.0463840179 0.34231022 0.128871843
v 0.0650514811 0.319193751 0.128871843
v 0.0547211878 0.301787704 0.111344203
v 0.0312020555 0.330912113 0.111344203
v 0.0463840179 0.430021852 0.128871858
v 0.0650514811 0.453138292 0.128871858
v 0.0547211915 0.470544428 0.111344218
v 0.0312020574 0.441419929 0.111344218
v 0.163213387 0.34231022 0.128871843
v 0.144545913 0.319193751 0.128871843
v 0.154876202 0.301787704 0.111344203
v 0.17839548 0.330912113 0.111344203
v 0.163213387 0.430021852 0.128871858
v 0.144545913 0.453138292 0.128871858
v 0.154876202 0.470544428 0.111344218
v 0.17839548 0.441419929 0.111344218
v -0.00303241285 0.354172289 0.0904101133
v -0.00303241285 0.415232033 0.0904101133
v -0.00303241285 0.415232033 -0.096122466
v -0.00303241285 0.354172289 -0.096122466
v -0.0481834002 0.415232033 0.111344218
v -0.0481834002 0.415232033 -0.117056571
v -0.0481834002 0.354172289 -0.117056571
v -0.0481834002 0.354172289 0.111344218
v -0.164814711 0.415232033 0.111344218
v -0.164814711 0.415232033 -0.117056571
v -0.164814711 0.354172289 -0.117056571
v -0.164814711 0.354172289 0.111344218
v -0.223953351 0.415232033 0.0763469264
v -0.223953351 0.354172289 0.0763469487
v -0.223953351 0.415232033 -0.0820593163
v -0.223953351 0.354172289 -0.0820593089
v -0.0463840179 0.34231022 0.128871843
v -0.0650514811 0.319193751 0.128871843
v -0.0547211878 0.301787704 0.111344203
v -0.0312020555 0.330912113 0.111344203
v -0.0463840179 0.430021852 0.128871858
v -0.0650514811 0.453138292 0.128871858
v -0.0547211915 0.470544428 0.111344218
v -0.0312020574 0.441419929 0.111344218
v -0.163213387 0.34231022 0.128871843
v -0.144545913 0.319193751 0.128871843
v -0.154876202 0.301787704 0.111344203
v -0.17839548 0.330912113 0.111344203
v -0.163213387 0.430021852 0.128871858
v -0.144545913 0.453138292 0.128871858
v -0.154876202 0.470544428 0.111344218
v -0.17839548 0.441419929 0.111344218
v -0.20571433 0.415232033 0.0632690638
v -0.156340569 0.415232033 0.0924876779
v -0.20571433 0.354172289 -0.0689814314
v -0.156340569 0.354172289 -0.0982000232
v -0.0589671731 0.354172289 -0.0982000232
v -0.0212714355 0.354172289 -0.0807225183
v -0.0589671731 0.354172289 0.0924876779
v -0.0212714355 0.354172289 0.0750101656
v -0.0212714355 0.415232033 0.0750101656
v -0.0212714355 0.415232033 -0.0807225183
v -0.20571433 0.415232033 -0.0689814389
v -0.156340569 0.415232033 -0.0982000232
v -0.0589671731 0.415232033 -0.0982000232
v -0.0589671731 0.415232033 0.0924876779
v -0.20571433 0.354172289 0.0632690787
v -0.156340569 0.354172289 0.0924876779
v 0.156340569 0.354172289 0.0924876779
v 0.20571436 0.354172289 0.0632690638
v 0.156340569 0.415232033 0.0924876779
v 0.20571436 0.415232033 0.0632690638
v 0.20571436 0.415232033 -0.0689814389
v 0.156340569 0.415232033 -0.0982000232
v 0.156340569 0.354172289 -0.0982000232
v 0.20571436 0.354172289 -0.0689814389
v 0.0589671917 0.415232033 -0.0982000232
v 0.0212714411 0.415232033 -0.0807225183
v 0.021271443 0.415232033 0.0750101656
v 0.058967188 0.415232033 0.0924876779
v 0.0589671917 0.354172289 -0.0982000232
v 0.0212714411 0.354172289 -0.0807225183
v 0.058967188 0.354172289 0.0924876779
v 0.021271443 0.354172289 0.0750101656
v 0.00303241285 0.415232033 -0.096122466
v 0.00303241285 0.354172289 -0.096122466
v 0.00303241285 0.415232033 0.0904101133
v 0.00303241285 0.354172289 0.0904101133
v 0.164814711 0.354172289 -0.117056571
v 0.164814711 0.415232033 -0.117056571
v 0.0481834002 0.415232033 -0.117056571
v 0.0481834002 0.354172289 -0.117056571
v 0.223953351 0.354172289 -0.0820593089
v 0.223953351 0.354172289 0.0763469487
v 0.223953351 0.415232033 0.0763469264
v 0.223953351 0.415232033 -0.0820593163
v 0.0312020555 0.330912113 0.111344203
v 0.0463840179 0.34231022 0.128871843
v 0.0650514811 0.453138292 0.128871858
v 0.0463840179 0.430021852 0.128871858
v 0.0312020574 0.441419929 0.111344218
v 0.0547211915 0.470544428 0.111344218
v 0.0650514811 0.319193751 0.128871843
v 0.0547211878 0.301787704 0.111344203
v 0.144545913 0.319193751 0.128871843
v 0.154876202 0.301787704 0.111344203
v 0.163213387 0.34231022 0.128871843
v 0.17839548 0.330912113 0.111344203
v 0.0312020574 0.441419929 0.111344218
v 0.17839548 0.441419929 0.111344218
v 0.154876202 0.470544428 0.111344218
v 0.0547211915 0.470544428 0.111344218
v 0.144545913 0.453138292 0.128871858
v 0.154876202 0.470544428 0.111344218
v 0.17839548 0.441419929 0.111344218
v 0.163213387 0.430021852 0.128871858
v 0.17839548 0.330912113 0.111344203
v 0.0312020555 0.330912113 0.111344203
v 0.0547211878 0.301787704 0.111344203
v 0.154876202 0.301787704 0.111344203
v 0.0463840179 0.430021852 0.128871858
v 0.0650514811 0.453138292 0.128871858
v 0.144545913 0.453138292 0.128871858
v 0.163213387 0.430021852 0.128871858
v 0.0463840179 0.34231022 0.128871843
v 0.163213387 0.34231022 0.128871843
v 0.0650514811 0.319193751 0.128871843
v 0.144545913 0.319193751 0.128871843
v -0.00303241285 0.354172289 -0.096122466
v -0.00303241285 0.415232033 -0.096122466
v -0.00303241285 0.415232033 0.0904101133
v -0.00303241285 0.354172289 0.0904101133
v -0.164814711 0.354172289 -0.117056571
v -0.0481834002 0.354172289 -0.117056571
v -0.0481834002 0.415232033 -0.117056571
v -0.164814711 0.415232033 -0.117056571
v -0.223953351 0.354172289 -0.0820593089
v -0.223953351 0.415232033 -0.0820593163
v -0.223953351 0.415232033 0.0763469264
v -0.223953351 0.354172289 0.0763469487
v -0.0463840179 0.34231022 0.128871843
v -0.0312020555 0.330912113 0.111344203
v -0.0650514811 0.453138292 0.128871858
v -0.0547211915 0.470544428 0.111344218
v -0.0312020574 0.441419929 0.111344218
v -0.0463840179 0.430021852 0.128871858
v -0.0650514811 0.319193751 0.128871843
v -0.0547211878 0.301787704 0.111344203
v -0.144545913 0.319193751 0.128871843
v -0.154876202 0.301787704 0.111344203
v -0.163213387 0.34231022 0.128871843
v -0.17839548 0.330912113 0.111344203
v -0.0312020574 0.441419929 0.111344218
v -0.0547211915 0.470544428 0.111344218
v -0.154876202 0.470544428 0.111344218
v -0.17839548 0.441419929 0.111344218
v -0.144545913 0.453138292 0.128871858
v -0.163213387 0.430021852 0.128871858
v -0.17839548 0.441419929 0.111344218
v -0.154876202 0.470544428 0.111344218
v -0.17839548 0.330912113 0.111344203
v -0.0312020555 0.330912113 0.111344203
v -0.154876202 0.301787704 0.111344203
v -0.0547211878 0.301787704 0.111344203
v -0.0463840179 0.430021852 0.128871858
v -0.163213387 0.430021852 0.128871858
v -0.144545913 0.453138292 0.128871858
v -0.0650514811 0.453138292 0.128871858
v -0.0463840179 0.34231022 0.128871843
v -0.163213387 0.34231022 0.128871843
v -0.0650514811 0.319193751 0.128871843
v -0.144545913 0.319193751 0.128871843
v -0.223953351 0.415232033 0.0763469264
v -0.164814711 0.415232033 0.111344218
v -0.223953351 0.354172289 -0.0820593089
v -0.164814711 0.354172289 -0.117056571
v -0.0481834002 0.354172289 -0.117056571
v -0.00303241285 0.354172289 -0.096122466
v -0.00303241285 0.354172289 0.0904101133
v -0.0481834002 0.354172289 0.111344218
v -0.00303241285 0.354172289 -0.096122466
v -0.0212714355 0.354172289 -0.0807225183
v -0.0212714355 0.354172289 0.0750101656
v -0.00303241285 0.354172289 0.0904101133
v -0.00303241285 0.415232033 0.0904101133
v -0.00303241285 0.415232033 -0.096122466
v -0.164814711 0.415232033 -0.117056571
v -0.223953351 0.415232033 -0.0820593163
v -0.00303241285 0.415232033 -0.096122466
v -0.0212714355 0.415232033 -0.0807225183
v -0.0481834002 0.415232033 -0.117056571
v -0.0481834002 0.415232033 0.111344218
v -0.0212714355 0.415232033 0.0750101656
v -0.00303241285 0.415232033 0.0904101133
v -0.164814711 0.354172289 -0.117056571
v -0.156340569 0.354172289 -0.0982000232
v -0.0589671731 0.354172289 -0.0982000232
v -0.0481834002 0.354172289 -0.117056571
v -0.0481834002 0.415232033 -0.117056571
v -0.0589671731 0.415232033 -0.0982000232
v -0.156340569 0.415232033 -0.0982000232
v -0.164814711 0.415232033 -0.117056571
v -0.164814711 0.354172289 0.111344218
v -0.223953351 0.354172289 0.0763469487
v -0.223953351 0.415232033 -0.0820593163
v -0.20571433 0.415232033 -0.0689814389
v -0.20571433 0.415232033 0.0632690638
v -0.223953351 0.415232033 0.0763469264
v -0.223953351 0.354172289 0.0763469487
v -0.20571433 0.354172289 0.0632690787
v -0.20571433 0.354172289 -0.0689814314
v -0.223953351 0.354172289 -0.0820593089
v 0.223953351 0.354172289 0.0763469487
v 0.164814711 0.354172289 0.111344218
v 0.164814711 0.415232033 0.111344218
v 0.223953351 0.415232033 0.0763469264
v 0.223953351 0.415232033 -0.0820593163
v 0.164814711 0.415232033 -0.117056571
v 0.164814711 0.354172289 -0.117056571
v 0.223953351 0.354172289 -0.0820593089
v 0.0481834002 0.415232033 -0.117056571
v 0.00303241285 0.415232033 -0.096122466
v 0.00303241285 0.415232033 0.0904101133
v 0.0481834002 0.415232033 0.111344218
v 0.00303241285 0.354172289 -0.096122466
v 0.0481834002 0.354172289 -0.117056571
v 0.0481834002 0.354172289 0.111344218
v 0.00303241285 0.354172289 0.0904101133
v 0.164814711 0.415232033 -0.117056571
v 0.156340569 0.415232033 -0.0982000232
v 0.0589671917 0.415232033 -0.0982000232
v 0.0481834002 0.415232033 -0.117056571
v 0.0481834002 0.354172289 -0.117056571
v 0.0589671917 0.354172289 -0.0982000232
v 0.156340569 0.354172289 -0.0982000232
v 0.164814711 0.354172289 -0.117056571
v 0.223953351 0.415232033 0.0763469264
v 0.20571436 0.415232033 0.0632690638
v 0.20571436 0.415232033 -0.0689814389
v 0.223953351 0.415232033 -0.0820593163
v 0.223953351 0.354172289 -0.0820593089
v 0.20571436 0.354172289 -0.0689814389
v 0.20571436 0.354172289 0.0632690638
v 0.223953351 0.354172289 0.0763469487
v 0.00303241285 0.354172289 0.0904101133
v 0.021271443 0.354172289 0.0750101656
v 0.0212714411 0.354172289 -0.0807225183
v 0.00303241285 0.354172289 -0.096122466
v 0.00303241285 0.415232033 -0.096122466
v 0.0212714411 0.415232033 -0.0807225183
v 0.021271443 0.415232033 0.0750101656
v 0.00303241285 0.415232033 0.0904101133
v -0.156340569 0.415232033 0.0924876779
v -0.156340569 0.354172289 0.0924876779
v -0.0589671731 0.354172289 0.0924876779
v -0.0589671731 0.415232033 0.0924876779
v -0.0589671731 0.415232033 0.0924876779
v -0.0589671731 0.354172289 0.0924876779
v -0.0212714355 0.354172289 0.0750101656
v -0.0212714355 0.415232033 0.0750101656
v -0.0212714355 0.415232033 0.0750101656
v -0.0212714355 0.354172289 0.0750101656
v -0.0212714355 0.354172289 -0.0807225183
v -0.0212714355 0.415232033 -0.0807225183
v -0.0212714355 0.415232033 -0.0807225183
v -0.0212714355 0.354172289 -0.0807225183
v -0.0589671731 0.354172289 -0.0982000232
v -0.0589671731 0.415232033 -0.0982000232
v -0.0589671731 0.415232033 -0.0982000232
v -0.0589671731 0.354172289 -0.0982000232
v -0.156340569 0.354172289 -0.0982000232
v -0.156340569 0.415232033 -0.0982000232
v -0.156340569 0.415232033 -0.0982000232
v -0.156340569 0.354172289 -0.0982000232
v -0.20571433 0.354172289 -0.0689814314
v -0.20571433 0.415232033 -0.0689814389
v -0.20571433 0.415232033 -0.0689814389
v -0.20571433 0.354172289 -0.0689814314
v -0.20571433 0.354172289 0.0632690787
v -0.20571433 0.415232033 0.0632690638
v -0.20571433 0.415232033 0.0632690638
v -0.20571433 0.354172289 0.0632690787
v -0.156340569 0.354172289 0.0924876779
v -0.156340569 0.415232033 0.0924876779
v 0.20571436 0.354172289 0.0632690638
v 0.20571436 0.415232033 0.0632690638
v 0.156340569 0.415232033 0.0924876779
v 0.156340569 0.354172289 0.0924876779
v 0.156340569 0.354172289 0.0924876779
v 0.156340569 0.415232033 0.0924876779
v 0.058967188 0.415232033 0.0924876779
v 0.058967188 0.354172289 0.0924876779
v 0.058967188 0.354172289 0.0924876779
v 0.058967188 0.415232033 0.0924876779
v 0.021271443 0.415232033 0.0750101656
v 0.021271443 0.354172289 0.0750101656
v 0.021271443 0.354172289 0.0750101656
v 0.021271443 0.415232033 0.0750101656
v 0.0212714411 0.415232033 -0.0807225183
v 0.0212714411 0.354172289 -0.0807225183
v 0.0212714411 0.354172289 -0.0807225183
v 0.0212714411 0.415232033 -0.0807225183
v 0.0589671917 0.415232033 -0.0982000232
v 0.0589671917 0.354172289 -0.0982000232
v 0.0589671917 0.354172289 -0.0982000232
v 0.0589671917 0.415232033 -0.0982000232
v 0.156340569 0.415232033 -0.0982000232
v 0.156340569 0.354172289 -0.0982000232
v 0.156340569 0.354172289 -0.0982000232
v 0.156340569 0.415232033 -0.0982000232
v 0.20571436 0.415232033 -0.0689814389
v 0.20571436 0.354172289 -0.0689814389
v 0.20571436 0.354172289 -0.0689814389
v 0.20571436 0.415232033 -0.0689814389
v 0.20571436 0.415232033 0.0632690638
v 0.20571436 0.354172289 0.0632690638
vt 0.41796875 0.9375
vt 0.41796875 0.970214844
vt 0.518066406 0.970214844
vt 0.518066406 0.9375
vt 0.393554688 0.970214844
vt 0.542480469 0.970214844
vt 0.542480469 0.9375
vt 0.393554688 0.9375
vt 0.728027344 0.970214844
vt 0.604980469 0.970214844
vt 0.604980469 0.9375
vt 0.728027344 0.9375
vt 0.708984375 0.970214844
vt 0.708984375 0.9375
vt 0.624023438 0.970214844
vt 0.624023438 0.9375
vt 0.758300781 0.916015625
vt 0.768554688 0.903808594
vt 0.762695312 0.894042969
vt 0.75 0.91015625
vt 0.758300781 0.964355469
vt 0.768554688 0.977050781
vt 0.762695312 0.986328125
vt 0.75 0.970214844
vt 0.822265625 0.916015625
vt 0.812011719 0.903808594
vt 0.817871094 0.894042969
vt 0.830566406 0.91015625
vt 0.822265625 0.964355469
vt 0.812011719 0.977050781
vt 0.817871094 0.986328125
vt 0.830566406 0.970214844
vt 0.41796875 0.9375
vt 0.41796875 0.970214844
vt 0.518066406 0.970214844
vt 0.518066406 0.9375
vt 0.393554688 0.970214844
vt 0.542480469 0.970214844
vt 0.542480469 0.9375
vt 0.393554688 0.9375
vt 0.728027344 0.970214844
vt 0.604980469 0.970214844
vt 0.604980469 0.9375
vt 0.728027344 0.9375
vt 0.708984375 0.970214844
vt 0.708984375 0.9375
vt 0.624023438 0.970214844
vt 0.624023438 0.9375
vt 0.822265625 0.916015625
vt 0.812011719 0.903808594
vt 0.817871094 0.894042969
vt 0.830566406 0.91015625
vt 0.822265625 0.964355469
vt 0.812011719 0.977050781
vt 0.817871094 0.986328125
vt 0.830566406 0.970214844
vt 0.758300781 0.916015625
vt 0.768554688 0.903808594
vt 0.762695312 0.894042969
vt 0.75 0.91015625
vt 0.758300781 0.964355469
vt 0.768554688 0.977050781
vt 0.762695312 0.986328125
vt 0.75 0.970214844
vt 0.81640625 0.804199219
vt 0.791503906 0.818847656
vt 0.81640625 0.736816406
vt 0.791503906 0.722167969
vt 0.7421875 0.722167969
vt 0.72265625 0.730957031
vt 0.7421875 0.818847656
vt 0.72265625 0.810058594
vt 0.72265625 0.810058594
vt 0.72265625 0.730957031
vt 0.81640625 0.736816406
vt 0.791503906 0.722167969
vt 0.7421875 0.722167969
vt 0.7421875 0.818847656
vt 0.81640625 0.804199219
vt 0.791503906 0.818847656
vt 0.791503906 0.818847656
vt 0.81640625 0.804199219
vt 0.791503906 0.818847656
vt 0.81640625 0.804199219
vt 0.81640625 0.736816406
vt 0.791503906 0.722167969
vt 0.791503906 0.722167969
vt 0.81640625 0.736816406
vt 0.7421875 0.722167969
vt 0.72265625 0.730957031
vt 0.72265625 0.810058594
vt 0.7421875 0.818847656
vt 0.7421875 0.722167969
vt 0.72265625 0.730957031
vt 0.7421875 0.818847656
vt 0.72265625 0.810058594
vt 0.518066406 0.970214844
vt 0.518066406 0.9375
vt 0.41796875 0.970214844
vt 0.41796875 0.9375
vt 0.604980469 0.9375
vt 0.604980469 0.970214844
vt 0.542480469 0.970214844
vt 0.542480469 0.9375
vt 0.624023438 0.9375
vt 0.708984375 0.9375
vt 0.708984375 0.970214844
vt 0.624023438 0.970214844
vt 0.75 0.91015625
vt 0.758300781 0.916015625
vt 0.768554688 0.977050781
vt 0.758300781 0.964355469
vt 0.75 0.970214844
vt 0.762695312 0.986328125
vt 0.768554688 0.903808594
vt 0.762695312 0.894042969
vt 0.812011719 0.903808594
vt 0.817871094 0.894042969
vt 0.822265625 0.916015625
vt 0.830566406 0.91015625
vt 0.78125 0.620117188
vt 0.78125 0.694824219
vt 0.795898438 0.682617188
vt 0.795898438 0.631835938
vt 0.812011719 0.977050781
vt 0.817871094 0.986328125
vt 0.830566406 0.970214844
vt 0.822265625 0.964355469
vt 0.725097656 0.694824219
vt 0.725097656 0.620117188
vt 0.710449219 0.631835938
vt 0.710449219 0.682617188
vt 0.758300781 0.964355469
vt 0.768554688 0.977050781
vt 0.812011719 0.977050781
vt 0.822265625 0.964355469
vt 0.758300781 0.916015625
vt 0.822265625 0.916015625
vt 0.768554688 0.903808594
vt 0.812011719 0.903808594
vt 0.518066406 0.9375
vt 0.518066406 0.970214844
vt 0.41796875 0.970214844
vt 0.41796875 0.9375
vt 0.604980469 0.9375
vt 0.542480469 0.9375
vt 0.542480469 0.970214844
vt 0.604980469 0.970214844
vt 0.624023438 0.9375
vt 0.624023438 0.970214844
vt 0.708984375 0.970214844
vt 0.708984375 0.9375
vt 0.822265625 0.916015625
vt 0.830566406 0.91015625
vt 0.812011719 0.977050781
vt 0.817871094 0.986328125
vt 0.830566406 0.970214844
vt 0.822265625 0.964355469
vt 0.812011719 0.903808594
vt 0.817871094 0.894042969
vt 0.768554688 0.903808594
vt 0.762695312 0.894042969
vt 0.758300781 0.916015625
vt 0.75 0.91015625
vt 0.78125 0.694824219
vt 0.795898438 0.682617188
vt 0.795898438 0.631835938
vt 0.78125 0.620117188
vt 0.768554688 0.977050781
vt 0.758300781 0.964355469
vt 0.75 0.970214844
vt 0.762695312 0.986328125
vt 0.725097656 0.620117188
vt 0.725097656 0.694824219
vt 0.710449219 0.631835938
vt 0.710449219 0.682617188
vt 0.822265625 0.964355469
vt 0.758300781 0.964355469
vt 0.768554688 0.977050781
vt 0.812011719 0.977050781
vt 0.822265625 0.916015625
vt 0.758300781 0.916015625
vt 0.812011719 0.903808594
vt 0.768554688 0.903808594
vt 0.825683594 0.810546875
vt 0.795410156 0.828613281
vt 0.825683594 0.73046875
vt 0.795410156 0.712402344
vt 0.736328125 0.712402344
vt 0.713378906 0.723144531
vt 0.713378906 0.817871094
vt 0.736328125 0.828613281
vt 0.713378906 0.723144531
vt 0.72265625 0.730957031
vt 0.72265625 0.810058594
vt 0.713378906 0.817871094
vt 0.713378906 0.817871094
vt 0.713378906 0.723144531
vt 0.795410156 0.712402344
vt 0.825683594 0.73046875
vt 0.713378906 0.723144531
vt 0.72265625 0.730957031
vt 0.736328125 0.712402344
vt 0.736328125 0.828613281
vt 0.72265625 0.810058594
vt 0.713378906 0.817871094
vt 0.795410156 0.712402344
vt 0.791503906 0.722167969
vt 0.7421875 0.722167969
vt 0.736328125 0.712402344
vt 0.736328125 0.712402344
vt 0.7421875 0.722167969
vt 0.791503906 0.722167969
vt 0.795410156 0.712402344
vt 0.795410156 0.828613281
vt 0.825683594 0.810546875
vt 0.825683594 0.73046875
vt 0.81640625 0.736816406
vt 0.81640625 0.804199219
vt 0.825683594 0.810546875
vt 0.825683594 0.810546875
vt 0.81640625 0.804199219
vt 0.81640625 0.736816406
vt 0.825683594 0.73046875
vt 0.825683594 0.810546875
vt 0.795410156 0.828613281
vt 0.795410156 0.828613281
vt 0.825683594 0.810546875
vt 0.825683594 0.73046875
vt 0.795410156 0.712402344
vt 0.795410156 0.712402344
vt 0.825683594 0.73046875
vt 0.736328125 0.712402344
vt 0.713378906 0.723144531
vt 0.713378906 0.817871094
vt 0.736328125 0.828613281
vt 0.713378906 0.723144531
vt 0.736328125 0.712402344
vt 0.736328125 0.828613281
vt 0.713378906 0.817871094
vt 0.795410156 0.712402344
vt 0.791503906 0.722167969
vt 0.7421875 0.722167969
vt 0.736328125 0.712402344
vt 0.736328125 0.712402344
vt 0.7421875 0.722167969
vt 0.791503906 0.722167969
vt 0.795410156 0.712402344
vt 0.825683594 0.810546875
vt 0.81640625 0.804199219
vt 0.81640625 0.736816406
vt 0.825683594 0.73046875
vt 0.825683594 0.73046875
vt 0.81640625 0.736816406
vt 0.81640625 0.804199219
vt 0.825683594 0.810546875
vt 0.713378906 0.817871094
vt 0.72265625 0.810058594
vt 0.72265625 0.730957031
vt 0.713378906 0.723144531
vt 0.713378906 0.723144531
vt 0.72265625 0.730957031
vt 0.72265625 0.810058594
vt 0.713378906 0.817871094
vt 0.465576172 0.918945312
vt 0.465576172 0.886230469
vt 0.413574219 0.886230469
vt 0.413574219 0.918945312
vt 0.413574219 0.918945312
vt 0.413574219 0.886230469
vt 0.393554688 0.886230469
vt 0.393554688 0.918945312
vt 0.722167969 0.918945312
vt 0.722167969 0.886230469
vt 0.639160156 0.886230469
vt 0.639160156 0.918945312
vt 0.639160156 0.918945312
vt 0.639160156 0.886230469
vt 0.619140625 0.886230469
vt 0.619140625 0.918945312
vt 0.619140625 0.918945312
vt 0.619140625 0.886230469
vt 0.567382812 0.886230469
vt 0.567382812 0.918945312
vt 0.567382812 0.918945312
vt 0.567382812 0.886230469
vt 0.551757812 0.886230469
vt 0.551757812 0.918945312
vt 0.551757812 0.918945312
vt 0.551757812 0.886230469
vt 0.481201172 0.886230469
vt 0.481201172 0.918945312
vt 0.481201172 0.918945312
vt 0.481201172 0.886230469
vt 0.465576172 0.886230469
vt 0.465576172 0.918945312
vt 0.481201172 0.886230469
vt 0.481201172 0.918945312
vt 0.465576172 0.918945312
vt 0.465576172 0.886230469
vt 0.465576172 0.886230469
vt 0.465576172 0.918945312
vt 0.413574219 0.918945312
vt 0.413574219 0.886230469
vt 0.413574219 0.886230469
vt 0.413574219 0.918945312
vt 0.393554688 0.918945312
vt 0.393554688 0.886230469
vt 0.722167969 0.886230469
vt 0.722167969 0.918945312
vt 0.639160156 0.918945312
vt 0.639160156 0.886230469
vt 0.639160156 0.886230469
vt 0.639160156 0.918945312
vt 0.619140625 0.918945312
vt 0.619140625 0.886230469
vt 0.619140625 0.886230469
vt 0.619140625 0.918945312
vt 0.567382812 0.918945312
vt 0.567382812 0.886230469
vt 0.567382812 0.886230469
vt 0.567382812 0.918945312
vt 0.551757812 0.918945312
vt 0.551757812 0.886230469
vt 0.551757812 0.886230469
vt 0.551757812 0.918945312
vt 0.481201172 0.918945312
vt 0.481201172 0.886230469
vn -1 0 0
vn -1 0 0
vn -1 0 0
vn -1 0 0
vn -0.420634329 0 0.907230318
vn -0.420634329 0 -0.907230318
vn -0.420634329 0 -0.907230318
vn -0.420634329 0 0.907230318
vn 0.509287119 0 0.860596716
vn 0.509286821 0 -0.860596836
vn 0.509286821 0 -0.860596836
vn 0.509287119 0 0.860596716
vn 0.509287119 0 0.860596716
vn 0.509287119 0 0.860596716
vn 0.509286821 0 -0.860596836
vn 0.509286821 0 -0.860596836
vn -0.755873799 0 0.654717326
vn -0.527937114 -0.426330179 0.734523535
vn -0.527937114 -0.426330179 0.734523535
vn -0.755873799 0 0.654717326
vn -0.755873799 0 0.654717326
vn -0 0.709562182 0.704642892
vn -0 0.709562182 0.704642892
vn -0.755873799 0 0.654717326
vn 0.527935505 -0.426330358 0.734524667
vn -0 -0.70956403 0.704640865
vn -0 -0.70956403 0.704640865
vn 0.527935505 -0.426330358 0.734524667
vn 0.755870998 0 0.654720545
vn -0 0.709562182 0.704642892
vn -0 0.709562182 0.704642892
vn 0.755870998 0 0.654720545
vn 1 0 0
vn 1 0 0
vn 1 0 0
vn 1 0 0
vn 0.420634329 0 0.907230318
vn 0.420634329 0 -0.907230318
vn 0.420634329 0 -0.907230318
vn 0.420634329 0 0.907230318
vn -0.509287119 0 0.860596716
vn -0.509286821 0 -0.860596836
vn -0.509286821 0 -0.860596836
vn -0.509287119 0 0.860596716
vn -0.509287119 0 0.860596716
vn -0.509287119 0 0.860596716
vn -0.509286821 0 -0.860596836
vn -0.509286821 0 -0.860596836
vn 0.75587374 0 0.654717445
vn 0.527937174 -0.426330268 0.734523654
vn 0.527937174 -0.426330268 0.734523654
vn 0.75587374 0 0.654717445
vn 0.75587374 0 0.654717445
vn -0 0.709562182 0.704642892
vn -0 0.709562182 0.704642892
vn 0.75587374 0 0.654717445
vn -0.527935505 -0.426330417 0.734524667
vn -0 -0.70956409 0.704640865
vn -0 -0.70956409 0.704640865
vn -0.527935505 -0.426330417 0.734524667
vn -0.755870998 0 0.654720545
vn -0 0.709562182 0.704642892
vn -0 0.709562182 0.704642892
vn -0.755870998 0 0.654720545
vn -0 1 0
vn -0 1 0
vn -0 -1 0
vn -0 -1 0
vn -0 -1 0
vn -0 -1 0
vn -0 -1 0
vn -0 -1 0
vn -0 1 0
vn -0 1 0
vn -0 1 0
vn -0 1 0
vn -0 1 0
vn -0 1 0
vn -0 -1 0
vn -0 -1 0
vn -0 -1 0
vn -0 -1 0
vn -0 1 0
vn -0 1 0
vn -0 1 0
vn -0 1 0
vn -0 -1 0
vn -0 -1 0
vn -0 1 0
vn -0 1 0
vn -0 1 0
vn -0 1 0
vn -0 -1 0
vn -0 -1 0
vn -0 -1 0
vn -0 -1 0
vn -0.420634329 0 -0.907230318
vn -0.420634329 0 -0.907230318
vn -0.420634329 0 0.907230318
vn -0.420634329 0 0.907230318
vn -0 0 -1
vn -0 0 -1
vn -0 0 -1
vn -0 0 -1
vn 1 0 0
vn 1 0 0
vn 1 0 0
vn 1 0 0
vn -0.527937114 -0.426330179 0.734523535
vn -0.527937114 -0.426330179 0.734523535
vn -0.527936876 0.426329672 0.734524131
vn -0.527936876 0.426329672 0.734524131
vn -0.527936876 0.426329672 0.734524131
vn -0.527936876 0.426329672 0.734524131
vn -0 -0.70956403 0.704640865
vn -0 -0.70956403 0.704640865
vn 0.527935505 -0.426330358 0.734524667
vn 0.527935505 -0.426330358 0.734524667
vn 0.755870998 0 0.654720545
vn 0.755870998 0 0.654720545
vn -0 0 -1
vn -0 0 -1
vn -0 0 -1
vn -0 0 -1
vn 0.527935326 0.426329762 0.734525144
vn 0.527935326 0.426329762 0.734525144
vn 0.527935326 0.426329762 0.734525144
vn 0.527935326 0.426329762 0.734525144
vn -0 0 -1
vn -0 0 -1
vn -0 0 -1
vn -0 0 -1
vn -0 0 1
vn -0 0 1
vn -0 0 1
vn -0 0 1
vn -0 0 1
vn -0 0 1
vn -0 0 1
vn -0 0 1
vn 0.420634329 0 -0.907230318
vn 0.420634329 0 -0.907230318
vn 0.420634329 0 0.907230318
vn 0.420634329 0 0.907230318
vn -0 0 -1
vn -0 0 -1
vn -0 0 -1
vn -0 0 -1
vn -1 0 0
vn -1 0 0
vn -1 0 0
vn -1 0 0
vn 0.527937174 -0.426330268 0.734523654
vn 0.527937174 -0.426330268 0.734523654
vn 0.527936935 0.426329672 0.734524071
vn 0.527936935 0.426329672 0.734524071
vn 0.527936935 0.426329672 0.734524071
vn 0.527936935 0.426329672 0.734524071
vn -0 -0.70956409 0.704640865
vn -0 -0.70956409 0.704640865
vn -0.527935505 -0.426330417 0.734524667
vn -0.527935505 -0.426330417 0.734524667
vn -0.755870998 0 0.654720545
vn -0.755870998 0 0.654720545
vn -0 0 -1
vn -0 0 -1
vn -0 0 -1
vn -0 0 -1
vn -0.527935326 0.426329821 0.734525144
vn -0.527935326 0.426329821 0.734525144
vn -0.527935326 0.426329821 0.734525144
vn -0.527935326 0.426329821 0.734525144
vn -0 0 -1
vn -0 0 -1
vn -0 0 -1
vn -0 0 -1
vn -0 0 1
vn -0 0 1
vn -0 0 1
vn -0 0 1
vn -0 0 1
vn -0 0 1
vn -0 0 1
vn -0 0 1
vn -0 1 0
vn -0 1 0
vn -0 -1 0
vn -0 -1 0
vn -0 -1 0
vn -0 -1 0
vn -0 -1 0
vn -0 -1 0
vn -0 -1 0
vn -0 -1 0
vn -0 -1 0
vn -0 -1 0
vn -0 1 0
vn -0 1 0
vn -0 1 0
vn -0 1 0
vn -0 1 0
vn -0 1 0
vn -0 1 0
vn -0 1 0
vn -0 1 0
vn -0 1 0
vn -0 -1 0
vn -0 -1 0
vn -0 -1 0
vn -0 -1 0
vn -0 1 0
vn -0 1 0
vn -0 1 0
vn -0 1 0
vn -0 -1 0
vn -0 -1 0
vn -0 1 0
vn -0 1 0
vn -0 1 0
vn -0 1 0
vn -0 -1 0
vn -0 -1 0
vn -0 -1 0
vn -0 -1 0
vn -0 -1 0
vn -0 -1 0
vn -0 1 0
vn -0 1 0
vn -0 1 0
vn -0 1 0
vn -0 -1 0
vn -0 -1 0
vn -0 1 0
vn -0 1 0
vn -0 1 0
vn -0 1 0
vn -0 -1 0
vn -0 -1 0
vn -0 -1 0
vn -0 -1 0
vn -0 1 0
vn -0 1 0
vn -0 1 0
vn -0 1 0
vn -0 -1 0
vn -0 -1 0
vn -0 -1 0
vn -0 -1 0
vn -0 1 0
vn -0 1 0
vn -0 1 0
vn -0 1 0
vn -0 -1 0
vn -0 -1 0
vn -0 -1 0
vn -0 -1 0
vn -0 -1 0
vn -0 -1 0
vn -0 -1 0
vn -0 -1 0
vn -0 1 0
vn -0 1 0
vn -0 1 0
vn -0 1 0
vn -0 0 -1
vn -0 0 -1
vn -0 0 -1
vn -0 0 -1
vn -0.420634329 0 -0.907230198
vn -0.420634329 0 -0.907230198
vn -0.420634329 0 -0.907230198
vn -0.420634329 0 -0.907230198
vn -1 0 0
vn -1 0 0
vn -1 0 0
vn -1 0 0
vn -0.42063427 0 0.907230318
vn -0.42063427 0 0.907230318
vn -0.42063427 0 0.907230318
vn -0.42063427 0 0.907230318
vn -0 0 1
vn -0 0 1
vn -0 0 1
vn -0 0 1
vn 0.509287059 0 0.860596716
vn 0.509287059 0 0.860596716
vn 0.509287059 0 0.860596716
vn 0.509287059 0 0.860596716
vn 1 0 0
vn 1 0 0
vn 1 0 0
vn 1 0 0
vn 0.509287238 0 -0.860596657
vn 0.509287238 0 -0.860596657
vn 0.509287238 0 -0.860596657
vn 0.509287238 0 -0.860596657
vn -0.509287238 0 -0.860596657
vn -0.509287238 0 -0.860596657
vn -0.509287238 0 -0.860596657
vn -0.509287238 0 -0.860596657
vn -0 0 -1
vn -0 0 -1
vn -0 0 -1
vn -0 0 -1
vn 0.420634329 0 -0.907230318
vn 0.420634329 0 -0.907230318
vn 0.420634329 0 -0.907230318
vn 0.420634329 0 -0.907230318
vn 1 0 0
vn 1 0 0
vn 1 0 0
vn 1 0 0
vn 0.420634151 0 0.907230437
vn 0.420634151 0 0.907230437
vn 0.420634151 0 0.907230437
vn 0.420634151 0 0.907230437
vn -0 0 1
vn -0 0 1
vn -0 0 1
vn -0 0 1
vn -0.50928688 0 0.860596836
vn -0.50928688 0 0.860596836
vn -0.50928688 0 0.860596836
vn -0.50928688 0 0.860596836
vn -1 0 0
vn -1 0 0
vn -1 0 0
vn -1 0 0
g ArmorGirlPants_0
f 14/14/14 13/13/13 9/9/9
f 12/12/12 14/14/14 9/9/9
f 15/15/15 16/16/16 11/11/11
f 10/10/10 15/15/15 11/11/11
f 4/4/4 1/1/1 2/2/2
f 3/3/3 4/4/4 2/2/2
f 97/97/97 6/6/6 7/7/7
f 98/98/98 97/97/97 7/7/7
f 8/8/8 5/5/5 99/99/99
f 100/100/100 8/8/8 99/99/99
f 103/103/103 102/102/102 101/101/101
f 104/104/104 103/103/103 101/101/101
f 107/107/107 106/106/106 105/105/105
f 108/108/108 107/107/107 105/105/105
f 24/24/24 20/20/20 17/17/17
f 21/21/21 24/24/24 17/17/17
f 109/109/109 19/19/19 18/18/18
f 110/110/110 109/109/109 18/18/18
f 22/22/22 30/30/30 31/31/31
f 23/23/23 22/22/22 31/31/31
f 113/113/113 112/112/112 111/111/111
f 114/114/114 113/113/113 111/111/111
f 27/27/27 26/26/26 115/115/115
f 116/116/116 27/27/27 115/115/115
f 28/28/28 25/25/25 117/117/117
f 118/118/118 28/28/28 117/117/117
f 32/32/32 29/29/29 119/119/119
f 120/120/120 32/32/32 119/119/119
f 124/124/124 123/123/123 121/121/121
f 123/123/123 122/122/122 121/121/121
f 121/121/121 122/122/122 129/129/129
f 130/130/130 121/121/121 129/129/129
f 131/131/131 130/130/130 129/129/129
f 132/132/132 131/131/131 129/129/129
f 127/127/127 126/126/126 125/125/125
f 128/128/128 127/127/127 125/125/125
f 135/135/135 134/134/134 133/133/133
f 136/136/136 135/135/135 133/133/133
f 136/136/136 133/133/133 137/137/137
f 138/138/138 136/136/136 137/137/137
f 138/138/138 137/137/137 139/139/139
f 140/140/140 138/138/138 139/139/139
f 36/36/36 35/35/35 34/34/34
f 33/33/33 36/36/36 34/34/34
f 42/42/42 43/43/43 48/48/48
f 47/47/47 42/42/42 48/48/48
f 142/142/142 141/141/141 39/39/39
f 38/38/38 142/142/142 39/39/39
f 40/40/40 144/144/144 143/143/143
f 37/37/37 40/40/40 143/143/143
f 147/147/147 146/146/146 145/145/145
f 148/148/148 147/147/147 145/145/145
f 44/44/44 41/41/41 45/45/45
f 46/46/46 44/44/44 45/45/45
f 151/151/151 150/150/150 149/149/149
f 152/152/152 151/151/151 149/149/149
f 56/56/56 53/53/53 49/49/49
f 52/52/52 56/56/56 49/49/49
f 154/154/154 153/153/153 50/50/50
f 51/51/51 154/154/154 50/50/50
f 54/54/54 55/55/55 63/63/63
f 62/62/62 54/54/54 63/63/63
f 157/157/157 156/156/156 155/155/155
f 158/158/158 157/157/157 155/155/155
f 59/59/59 160/160/160 159/159/159
f 58/58/58 59/59/59 159/159/159
f 60/60/60 162/162/162 161/161/161
f 57/57/57 60/60/60 161/161/161
f 64/64/64 164/164/164 163/163/163
f 61/61/61 64/64/64 163/163/163
f 167/167/167 166/166/166 165/165/165
f 168/168/168 167/167/167 165/165/165
f 168/168/168 165/165/165 173/173/173
f 165/165/165 174/174/174 173/173/173
f 174/174/174 176/176/176 173/173/173
f 176/176/176 175/175/175 173/173/173
f 171/171/171 170/170/170 169/169/169
f 172/172/172 171/171/171 169/169/169
f 180/180/180 179/179/179 177/177/177
f 179/179/179 178/178/178 177/177/177
f 177/177/177 178/178/178 181/181/181
f 178/178/178 182/182/182 181/181/181
f 181/181/181 182/182/182 183/183/183
f 182/182/182 184/184/184 183/183/183
f 66/66/66 65/65/65 185/185/185
f 186/186/186 66/66/66 185/185/185
f 186/186/186 204/204/204 66/66/66
f 204/204/204 78/78/78 66/66/66
f 205/205/205 78/78/78 204/204/204
f 206/206/206 205/205/205 204/204/204
f 68/68/68 67/67/67 187/187/187
f 188/188/188 68/68/68 187/187/187
f 70/70/70 69/69/69 189/189/189
f 190/190/190 70/70/70 189/189/189
f 71/71/71 72/72/72 191/191/191
f 192/192/192 71/71/71 191/191/191
f 192/192/192 215/215/215 71/71/71
f 215/215/215 80/80/80 71/71/71
f 79/79/79 80/80/80 215/215/215
f 216/216/216 79/79/79 215/215/215
f 195/195/195 194/194/194 193/193/193
f 196/196/196 195/195/195 193/193/193
f 74/74/74 73/73/73 197/197/197
f 198/198/198 74/74/74 197/197/197
f 75/75/75 76/76/76 199/199/199
f 200/200/200 75/75/75 199/199/199
f 77/77/77 202/202/202 201/201/201
f 203/203/203 77/77/77 201/201/201
f 209/209/209 208/208/208 207/207/207
f 210/210/210 209/209/209 207/207/207
f 213/213/213 212/212/212 211/211/211
f 214/214/214 213/213/213 211/211/211
f 219/219/219 218/218/218 217/217/217
f 220/220/220 219/219/219 217/217/217
f 223/223/223 222/222/222 221/221/221
f 224/224/224 223/223/223 221/221/221
f 81/81/81 82/82/82 225/225/225
f 226/226/226 81/81/81 225/225/225
f 226/226/226 239/239/239 81/81/81
f 239/239/239 95/95/95 81/81/81
f 96/96/96 95/95/95 239/239/239
f 240/240/240 96/96/96 239/239/239
f 228/228/228 84/84/84 227/227/227
f 84/84/84 83/83/83 227/227/227
f 83/83/83 92/92/92 227/227/227
f 92/92/92 236/236/236 227/227/227
f 236/236/236 92/92/92 235/235/235
f 92/92/92 91/91/91 235/235/235
f 86/86/86 85/85/85 229/229/229
f 230/230/230 86/86/86 229/229/229
f 88/88/88 87/87/87 231/231/231
f 232/232/232 88/88/88 231/231/231
f 90/90/90 89/89/89 233/233/233
f 234/234/234 90/90/90 233/233/233
f 93/93/93 94/94/94 237/237/237
f 238/238/238 93/93/93 237/237/237
f 243/243/243 242/242/242 241/241/241
f 244/244/244 243/243/243 241/241/241
f 247/247/247 246/246/246 245/245/245
f 248/248/248 247/247/247 245/245/245
f 251/251/251 250/250/250 249/249/249
f 252/252/252 251/251/251 249/249/249
f 255/255/255 254/254/254 253/253/253
f 256/256/256 255/255/255 253/253/253
f 259/259/259 258/258/258 257/257/257
f 260/260/260 259/259/259 257/257/257
f 263/263/263 262/262/262 261/261/261
f 264/264/264 263/263/263 261/261/261
f 267/267/267 266/266/266 265/265/265
f 268/268/268 267/267/267 265/265/265
f 271/271/271 270/270/270 269/269/269
f 272/272/272 271/271/271 269/269/269
f 275/275/275 274/274/274 273/273/273
f 276/276/276 275/275/275 273/273/273
f 279/279/279 278/278/278 277/277/277
f 280/280/280 279/279/279 277/277/277
f 283/283/283 282/282/282 281/281/281
f 284/284/284 283/283/283 281/281/281
f 287/287/287 286/286/286 285/285/285
f 288/288/288 287/287/287 285/285/285
f 291/291/291 290/290/290 289/289/289
f 292/292/292 291/291/291 289/289/289
f 295/295/295 294/294/294 293/293/293
f 296/296/296 295/295/295 293/293/293
f 299/299/299 298/298/298 297/297/297
f 300/300/300 299/299/299 297/297/297
f 303/303/303 302/302/302 301/301/301
f 304/304/304 303/303/303 301/301/301
f 307/307/307 306/306/306 305/305/305
f 308/308/308 307/307/307 305/305/305
f 311/311/311 310/310/310 309/309/309
f 312/312/312 311/311/311 309/309/309
f 315/315/315 314/314/314 313/313/313
f 316/316/316 315/315/315 313/313/313
f 319/319/319 318/318/318 317/317/317
f 320/320/320 319/319/319 317/317/317
f 323/323/323 322/322/322 321/321/321
f 324/324/324 323/323/323 321/321/321
f 327/327/327 326/326/326 325/325/325
f 328/328/328 327/327/327 325/325/325
