v 0.2187988022655838 1.4879779395752664 -0.17931519421810044
v 0.21879881231449763 1.5200881023552468 -0.2118468651926509
v 0.2494576365580059 1.5200876391373939 -0.1793151983879507
v 0.21879879233486604 1.4879781533732004 0.16468975751817141
v -0.21879631177232456 1.4879780337700228 -0.1793152068506451
v -0.2494555599789591 1.5200882233678992 -0.17931521279092896
v -0.21879630172342232 1.5200881965502533 -0.2118464754938168
v -0.21879632170304358 1.4879782475679846 0.1646897895891133
v -0.21879631353236273 1.52008845078435 0.1972210332207048
v -0.2494555699098134 1.5200879603291666 0.16468978364912573
v -0.2494554643715104 1.892089246415024 0.16468958225389657
v -0.24945545444079223 1.892089032617081 -0.17931538438353745
v -0.21879619794546315 1.9241988267679033 0.16468960788645717
v -0.2187962079941954 1.8920892600335224 0.19722084672693413
v 0.21879890604371294 1.892089165838766 0.19722085935947878
v 0.21879880050554562 1.5200883565895935 0.19722104585324945
v 0.21879891609244562 1.9241987325731376 0.16468960561783968
v 0.24945814939808902 1.8920891390211232 0.16468959665659053
v 0.2494577420963085 1.8920889252232607 -0.1793153848820177
v 0.2494580438599213 1.5200883297719598 0.16468979805152334
v 0.21879892602316423 1.9241985187751853 -0.1793153759207565
v 0.21879891785266495 1.8920889116044193 -0.21184705168642157
v -0.21879619618525503 1.8920890057994257 -0.21184666198758748
v -0.21879618801474499 1.9241986129699602 -0.17931535875097684
v 0.2187988022655838 1.4879779395752664 -0.17931519421810044
v 0.21879881231449763 1.5200881023552468 -0.2118468651926509
v 0.2494576365580059 1.5200876391373939 -0.1793151983879507
v 0.2187988022655838 1.4879779395752664 -0.17931519421810044
v 0.21879879233486604 1.4879781533732004 0.16468975751817141
v 0.2187988022655838 1.4879779395752664 -0.17931519421810044
v -0.21879631177232456 1.4879780337700228 -0.1793152068506451
v -0.21879631177232456 1.4879780337700228 -0.1793152068506451
v -0.21879632170304358 1.4879782475679846 0.1646897895891133
v -0.21879631177232456 1.4879780337700228 -0.1793152068506451
v -0.21879630172342232 1.5200881965502533 -0.2118464754938168
v -0.2494555599789591 1.5200882233678992 -0.17931521279092896
v -0.21879632170304358 1.4879782475679846 0.1646897895891133
v 0.21879879233486604 1.4879781533732004 0.16468975751817141
v -0.21879632170304358 1.4879782475679846 0.1646897895891133
v -0.2494555699098134 1.5200879603291666 0.16468978364912573
v -0.21879631353236273 1.52008845078435 0.1972210332207048
v -0.21879631353236273 1.52008845078435 0.1972210332207048
v -0.2494555699098134 1.5200879603291666 0.16468978364912573
v -0.2494555699098134 1.5200879603291666 0.16468978364912573
v -0.2494555599789591 1.5200882233678992 -0.17931521279092896
v -0.2494554643715104 1.892089246415024 0.16468958225389657
v -0.2494554643715104 1.892089246415024 0.16468958225389657
v -0.24945545444079223 1.892089032617081 -0.17931538438353745
v -0.21879619794546315 1.9241988267679033 0.16468960788645717
v -0.2187962079941954 1.8920892600335224 0.19722084672693413
v -0.2494554643715104 1.892089246415024 0.16468958225389657
v -0.2187962079941954 1.8920892600335224 0.19722084672693413
v -0.21879619794546315 1.9241988267679033 0.16468960788645717
v 0.21879880050554562 1.5200883565895935 0.19722104585324945
v -0.21879631353236273 1.52008845078435 0.1972210332207048
v -0.2187962079941954 1.8920892600335224 0.19722084672693413
v 0.21879890604371294 1.892089165838766 0.19722085935947878
v 0.21879890604371294 1.892089165838766 0.19722085935947878
v 0.2494580438599213 1.5200883297719598 0.16468979805152334
v 0.21879880050554562 1.5200883565895935 0.19722104585324945
v 0.21879891609244562 1.9241987325731376 0.16468960561783968
v 0.24945814939808902 1.8920891390211232 0.16468959665659053
v 0.21879890604371294 1.892089165838766 0.19722085935947878
v 0.24945814939808902 1.8920891390211232 0.16468959665659053
v 0.21879891609244562 1.9241987325731376 0.16468960561783968
v 0.2494576365580059 1.5200876391373939 -0.1793151983879507
v 0.2494580438599213 1.5200883297719598 0.16468979805152334
v 0.24945814939808902 1.8920891390211232 0.16468959665659053
v 0.2494577420963085 1.8920889252232607 -0.1793153848820177
v 0.21879879233486604 1.4879781533732004 0.16468975751817141
v 0.21879880050554562 1.5200883565895935 0.19722104585324945
v 0.2494580438599213 1.5200883297719598 0.16468979805152334
v 0.2494577420963085 1.8920889252232607 -0.1793153848820177
v 0.21879892602316423 1.9241985187751853 -0.1793153759207565
v 0.21879881231449763 1.5200881023552468 -0.2118468651926509
v 0.2494576365580059 1.5200876391373939 -0.1793151983879507
v 0.2494577420963085 1.8920889252232607 -0.1793153848820177
v 0.21879891785266495 1.8920889116044193 -0.21184705168642157
v -0.21879630172342232 1.5200881965502533 -0.2118464754938168
v 0.21879881231449763 1.5200881023552468 -0.2118468651926509
v 0.21879891785266495 1.8920889116044193 -0.21184705168642157
v -0.21879618801474499 1.9241986129699602 -0.17931535875097684
v -0.21879619618525503 1.8920890057994257 -0.21184666198758748
v 0.21879891785266495 1.8920889116044193 -0.21184705168642157
v 0.21879892602316423 1.9241985187751853 -0.1793153759207565
v -0.21879619618525503 1.8920890057994257 -0.21184666198758748
v -0.24945545444079223 1.892089032617081 -0.17931538438353745
v -0.2494555599789591 1.5200882233678992 -0.17931521279092896
v -0.21879630172342232 1.5200881965502533 -0.2118464754938168
v -0.21879618801474499 1.9241986129699602 -0.17931535875097684
v -0.24945545444079223 1.892089032617081 -0.17931538438353745
v -0.21879619618525503 1.8920890057994257 -0.21184666198758748
v -0.21879619794546315 1.9241988267679033 0.16468960788645717
v -0.21879618801474499 1.9241986129699602 -0.17931535875097684
v 0.21879892602316423 1.9241985187751853 -0.1793153759207565
v 0.21879891609244562 1.9241987325731376 0.16468960561783968
vt 0.9407430291175842 0.7590692043304443
vt 0.9407432079315186 0.7440497875213623
vt 0.9554312229156494 0.744050145149231
vt 0.8800696730613708 0.03632998466491699
vt 0.7969611883163452 0.7590692043304443
vt 0.7587500810623169 0.05091738700866699
vt 0.7969611883163452 0.7440496683120728
vt 0.7969611883163452 0.34148716926574707
vt 0.79696124792099 0.35650643706321716
vt 0.871780514717102 0.050917208194732666
vt 0.7822732925415039 0.4787360727787018
vt 0.7587502002716064 0.17314600944519043
vt 0.8717806339263916 0.18773281574249268
vt 0.79696124792099 0.47873666882514954
vt 0.9407432079315186 0.47873666882514954
vt 0.9407432079315186 0.3565064072608948
vt 0.9407429695129395 0.4937592148780823
vt 0.9554312825202942 0.478736013174057
vt 0.9930999875068665 0.17314571142196655
vt 0.8800695538520813 0.050916969776153564
vt 0.9930999875068665 0.18773281574249268
vt 0.9407432079315186 0.6218183040618896
vt 0.7969611883163452 0.6218183040618896
vt 0.7587502002716064 0.18773281574249268
vt 0.9485222101211548 0.7568978071212769
vt 0.9407432079315186 0.7440497875213623
vt 0.993100106716156 0.05091679096221924
vt 0.993100106716156 0.03632998466491699
vt 0.9407430291175842 0.34148719906806946
vt 0.9407430291175842 0.22845643758773804
vt 0.7969611883163452 0.22845643758773804
vt 0.7587500810623169 0.03633010387420654
vt 0.8717803955078125 0.03633010387420654
vt 0.7891824245452881 0.7568976879119873
vt 0.7969611883163452 0.7440496683120728
vt 0.7822732329368591 0.7440497875213623
vt 0.7969611883163452 0.34148716926574707
vt 0.9407430291175842 0.34148719906806946
vt 0.7891825437545776 0.34365883469581604
vt 0.7822732925415039 0.3565062880516052
vt 0.79696124792099 0.35650643706321716
vt 0.79696124792099 0.35650643706321716
vt 0.7822732925415039 0.3565062880516052
vt 0.871780514717102 0.050917208194732666
vt 0.7587500810623169 0.05091738700866699
vt 0.871780514717102 0.17314600944519043
vt 0.871780514717102 0.17314600944519043
vt 0.7587502002716064 0.17314600944519043
vt 0.7891825437545776 0.4915834665298462
vt 0.79696124792099 0.47873666882514954
vt 0.7822732925415039 0.4787360727787018
vt 0.79696124792099 0.47873666882514954
vt 0.7969611883163452 0.4937592148780823
vt 0.9407432079315186 0.3565064072608948
vt 0.79696124792099 0.35650643706321716
vt 0.79696124792099 0.47873666882514954
vt 0.9407432079315186 0.47873666882514954
vt 0.9407432079315186 0.47873666882514954
vt 0.9554312825202942 0.3565063774585724
vt 0.9407432079315186 0.3565064072608948
vt 0.9485220909118652 0.4915834665298462
vt 0.9554312825202942 0.478736013174057
vt 0.9407432079315186 0.47873666882514954
vt 0.8800695538520813 0.17314571142196655
vt 0.8800695538520813 0.18773281574249268
vt 0.993100106716156 0.05091679096221924
vt 0.8800695538520813 0.050916969776153564
vt 0.8800695538520813 0.17314571142196655
vt 0.9930999875068665 0.17314571142196655
vt 0.94852215051651 0.34365877509117126
vt 0.9407432079315186 0.3565064072608948
vt 0.9554312825202942 0.3565063774585724
vt 0.9554312825202942 0.6218197345733643
vt 0.9485222697257996 0.6089721918106079
vt 0.9407432079315186 0.7440497875213623
vt 0.9554312229156494 0.744050145149231
vt 0.9554312825202942 0.6218197345733643
vt 0.9407432079315186 0.6218183040618896
vt 0.7969611883163452 0.7440496683120728
vt 0.9407432079315186 0.7440497875213623
vt 0.9407432079315186 0.6218183040618896
vt 0.7969611287117004 0.6067942380905151
vt 0.7969611883163452 0.6218183040618896
vt 0.9407432079315186 0.6218183040618896
vt 0.9407429099082947 0.6067942380905151
vt 0.7969611883163452 0.6218183040618896
vt 0.7822732329368591 0.6218197345733643
vt 0.7822732329368591 0.7440497875213623
vt 0.7969611883163452 0.7440496683120728
vt 0.7891824245452881 0.6089720726013184
vt 0.7822732329368591 0.6218197345733643
vt 0.7969611883163452 0.6218183040618896
vt 0.7969611883163452 0.4937592148780823
vt 0.7969611287117004 0.6067942380905151
vt 0.9407429099082947 0.6067942380905151
vt 0.9407429695129395 0.4937592148780823
vn -1.8163287653514834e-07 -0.7117000645307145 -0.7024828407657256
vn -1.8163287653514834e-07 -0.7117000645307145 -0.7024828407657256
vn 0.5976276525037385 -0.5706242155126897 -0.5632304777744263
vn 0.7232576786137662 -0.6905774677839762 4.5007057599931235e-07
vn -1.8163287653514834e-07 -0.7117000645307145 -0.7024828407657256
vn -0.7232556862680478 -0.6905796598066595 4.0831402237930004e-07
vn -1.8163287653514834e-07 -0.7117000645307145 -0.7024828407657256
vn -2.8370386114413013e-07 -0.9999990272532888 6.214960466219178e-07
vn -2.2219091025471252e-07 -0.7116973436053257 0.7024855731465579
vn -0.7232556862680478 -0.6905796598066595 4.0831402237930004e-07
vn -0.7277353354903824 5.829075704646648e-07 0.6858580950413561
vn -0.9999999657785195 2.1525549576523288e-07 -2.886811076547915e-08
vn -0.7232529102408931 0.6905825937774143 -4.5007362413382694e-07
vn -0.7277353354903824 5.829075704646648e-07 0.6858580950413561
vn 1.8163371835941115e-07 0.7117027467353794 0.7024800393455696
vn -2.2219091025471252e-07 -0.7116973436053257 0.7024855731465579
vn 1.8163371835941115e-07 0.7117027467353794 0.7024800393455696
vn 0.727735295891745 2.6960954445733546e-07 0.6858581966626935
vn 0.723255626663439 0.6905797790158459 -4.083140981880757e-07
vn 0.7232576786137662 -0.6905774677839762 4.5007057599931235e-07
vn 0.723255626663439 0.6905797790158459 -4.083140981880757e-07
vn 0.5976303604668239 0.5706264767859108 -0.5632254054069167
vn 2.8867951907601936e-08 -6.214967163839758e-07 -1.0000000659018682
vn -0.7232529102408931 0.6905825937774143 -4.5007362413382694e-07
vn 0.5976276525037385 -0.5706242155126897 -0.5632304777744263
vn 0.5976276525037385 -0.5706242155126897 -0.5632304777744263
vn 0.7232576786137662 -0.6905774677839762 4.5007057599931235e-07
vn 0.7232576786137662 -0.6905774677839762 4.5007057599931235e-07
vn -2.8370386114413013e-07 -0.9999990272532888 6.214960466219178e-07
vn -2.8370386114413013e-07 -0.9999990272532888 6.214960466219178e-07
vn -2.8370386114413013e-07 -0.9999990272532888 6.214960466219178e-07
vn -0.7232556862680478 -0.6905796598066595 4.0831402237930004e-07
vn -0.7232556862680478 -0.6905796598066595 4.0831402237930004e-07
vn -0.597625797993796 -0.5706216336518113 -0.56323516144318
vn -0.597625797993796 -0.5706216336518113 -0.56323516144318
vn -0.597625797993796 -0.5706216336518113 -0.56323516144318
vn -2.2219091025471252e-07 -0.7116973436053257 0.7024855731465579
vn -2.2219091025471252e-07 -0.7116973436053257 0.7024855731465579
vn -0.597620048863355 -0.5706241522009847 0.5632386972424305
vn -0.597620048863355 -0.5706241522009847 0.5632386972424305
vn -0.597620048863355 -0.5706241522009847 0.5632386972424305
vn -0.7277353354903824 5.829075704646648e-07 0.6858580950413561
vn -0.7277353354903824 5.829075704646648e-07 0.6858580950413561
vn -0.9999999657785195 2.1525549576523288e-07 -2.886811076547915e-08
vn -0.9999999657785195 2.1525549576523288e-07 -2.886811076547915e-08
vn -0.9999999657785195 2.1525549576523288e-07 -2.886811076547915e-08
vn -0.7232529102408931 0.6905825937774143 -4.5007362413382694e-07
vn -0.7232529102408931 0.6905825937774143 -4.5007362413382694e-07
vn -0.5976228841315531 0.57062713613775 0.5632326235401021
vn -0.5976228841315531 0.57062713613775 0.5632326235401021
vn -0.5976228841315531 0.57062713613775 0.5632326235401021
vn 1.8163371835941115e-07 0.7117027467353794 0.7024800393455696
vn 1.8163371835941115e-07 0.7117027467353794 0.7024800393455696
vn -2.8867951907601936e-08 6.214967163839758e-07 1.0000000659018682
vn -2.8867951907601936e-08 6.214967163839758e-07 1.0000000659018682
vn -2.8867951907601936e-08 6.214967163839758e-07 1.0000000659018682
vn -2.8867951907601936e-08 6.214967163839758e-07 1.0000000659018682
vn 0.727735295891745 2.6960954445733546e-07 0.6858581966626935
vn 0.727735295891745 2.6960954445733546e-07 0.6858581966626935
vn 0.727735295891745 2.6960954445733546e-07 0.6858581966626935
vn 0.5976230561818617 0.5706271172727567 0.5632325388351499
vn 0.5976230561818617 0.5706271172727567 0.5632325388351499
vn 0.5976230561818617 0.5706271172727567 0.5632325388351499
vn 0.723255626663439 0.6905797790158459 -4.083140981880757e-07
vn 0.723255626663439 0.6905797790158459 -4.083140981880757e-07
vn 0.9999999657785195 -2.1525549576523288e-07 2.886811076547915e-08
vn 0.9999999657785195 -2.1525549576523288e-07 2.886811076547915e-08
vn 0.9999999657785195 -2.1525549576523288e-07 2.886811076547915e-08
vn 0.9999999657785195 -2.1525549576523288e-07 2.886811076547915e-08
vn 0.5976249377764691 -0.570622025302463 0.5632356919083307
vn 0.5976249377764691 -0.570622025302463 0.5632356919083307
vn 0.5976249377764691 -0.570622025302463 0.5632356919083307
vn 0.5976303604668239 0.5706264767859108 -0.5632254054069167
vn 0.5976303604668239 0.5706264767859108 -0.5632254054069167
vn 0.7277442761865174 -5.829035679442074e-07 -0.6858485582973054
vn 0.7277442761865174 -5.829035679442074e-07 -0.6858485582973054
vn 0.7277442761865174 -5.829035679442074e-07 -0.6858485582973054
vn 0.7277442761865174 -5.829035679442074e-07 -0.6858485582973054
vn 2.8867951907601936e-08 -6.214967163839758e-07 -1.0000000659018682
vn 2.8867951907601936e-08 -6.214967163839758e-07 -1.0000000659018682
vn 2.8867951907601936e-08 -6.214967163839758e-07 -1.0000000659018682
vn 2.2219283758833694e-07 0.7117049133925902 -0.7024779437562284
vn 2.2219283758833694e-07 0.7117049133925902 -0.7024779437562284
vn 2.2219283758833694e-07 0.7117049133925902 -0.7024779437562284
vn 2.2219283758833694e-07 0.7117049133925902 -0.7024779437562284
vn -0.7277354747056783 -2.6960939483438036e-07 -0.6858580178487527
vn -0.7277354747056783 -2.6960939483438036e-07 -0.6858580178487527
vn -0.7277354747056783 -2.6960939483438036e-07 -0.6858580178487527
vn -0.7277354747056783 -2.6960939483438036e-07 -0.6858580178487527
vn -0.5976224939846828 0.5706273897166378 -0.5632326520745102
vn -0.5976224939846828 0.5706273897166378 -0.5632326520745102
vn -0.5976224939846828 0.5706273897166378 -0.5632326520745102
vn 2.8370386114413013e-07 0.9999990272532888 -6.214960466219178e-07
vn 2.8370386114413013e-07 0.9999990272532888 -6.214960466219178e-07
vn 2.8370386114413013e-07 0.9999990272532888 -6.214960466219178e-07
vn 2.8370386114413013e-07 0.9999990272532888 -6.214960466219178e-07
f 26/26/26 3/3/3 25/25/25
f 36/36/36 35/35/35 34/34/34
f 41/41/41 40/40/40 39/39/39
f 51/51/51 50/50/50 49/49/49
f 63/63/63 62/62/62 61/61/61
f 72/72/72 71/71/71 70/70/70
f 74/74/74 73/73/73 22/22/22
f 92/92/92 91/91/91 90/90/90
f 7/7/7 2/2/2 1/1/1
f 5/5/5 7/7/7 1/1/1
f 27/27/27 20/20/20 4/4/4
f 28/28/28 27/27/27 4/4/4
f 31/31/31 30/30/30 29/29/29
f 8/8/8 31/31/31 29/29/29
f 10/10/10 6/6/6 32/32/32
f 33/33/33 10/10/10 32/32/32
f 16/16/16 9/9/9 37/37/37
f 38/38/38 16/16/16 37/37/37
f 42/42/42 14/14/14 11/11/11
f 43/43/43 42/42/42 11/11/11
f 12/12/12 45/45/45 44/44/44
f 46/46/46 12/12/12 44/44/44
f 48/48/48 47/47/47 13/13/13
f 24/24/24 48/48/48 13/13/13
f 52/52/52 15/15/15 17/17/17
f 53/53/53 52/52/52 17/17/17
f 56/56/56 55/55/55 54/54/54
f 57/57/57 56/56/56 54/54/54
f 59/59/59 18/18/18 58/58/58
f 60/60/60 59/59/59 58/58/58
f 64/64/64 19/19/19 21/21/21
f 65/65/65 64/64/64 21/21/21
f 68/68/68 67/67/67 66/66/66
f 69/69/69 68/68/68 66/66/66
f 77/77/77 76/76/76 75/75/75
f 78/78/78 77/77/77 75/75/75
f 81/81/81 80/80/80 79/79/79
f 23/23/23 81/81/81 79/79/79
f 84/84/84 83/83/83 82/82/82
f 85/85/85 84/84/84 82/82/82
f 88/88/88 87/87/87 86/86/86
f 89/89/89 88/88/88 86/86/86
f 95/95/95 94/94/94 93/93/93
f 96/96/96 95/95/95 93/93/93
