g ArmorGirlBoots
v 0.00128782913 0.0417030714 0.0904740766
v 0.00128782925 0.243099004 0.0904740766
v 0.00128782925 0.243099004 -0.0961904675
v 0.00128782913 0.0417030714 -0.0961904675
v 0.0482174829 0.243099004 0.119826637
v 0.0482174829 0.243099004 -0.121023253
v 0.0482174829 0.0417030714 -0.121023253
v 0.0482174829 0.0417030714 0.119826637
v 0.161528215 0.243099004 0.119826637
v 0.161528215 0.243099004 -0.121023253
v 0.161528215 0.0417030714 -0.121023253
v 0.161528215 0.0417030714 0.119826637
v 0.224111795 0.243099004 0.076400958
v 0.224111795 0.0417030714 0.0764009729
v 0.224111795 0.243099004 -0.0821173564
v 0.224111795 0.0417030714 -0.0821173564
v 0.146526694 -0.0194630101 0.0852232352
v 0.146526694 -0.0194630064 -0.0864198506
v 0.192438275 -0.0194630064 -0.0671804771
v 0.0230239034 -0.0194630064 -0.0687226132
v 0.066221267 -0.0194630064 -0.0864198506
v 0.066221267 -0.0194630064 0.0852232352
v 0.0230239034 -0.0194630064 0.0643049628
v 0.192438275 -0.0194630101 0.0627628267
v -0.00128782936 0.0417030714 0.0904740766
v -0.00128782925 0.243099004 0.0904740766
v -0.00128782925 0.243099004 -0.0961904675
v -0.00128782936 0.0417030714 -0.0961904675
v -0.0482174829 0.243099004 0.119826637
v -0.0482174829 0.243099004 -0.121023253
v -0.0482174829 0.0417030714 -0.121023253
v -0.0482174829 0.0417030714 0.119826637
v -0.161528215 0.243099004 0.119826637
v -0.161528215 0.243099004 -0.121023253
v -0.161528215 0.0417030714 -0.121023253
v -0.161528215 0.0417030714 0.119826637
v -0.224111795 0.243099004 0.076400958
v -0.224111795 0.0417030714 0.0764009729
v -0.224111795 0.243099004 -0.0821173564
v -0.224111795 0.0417030714 -0.0821173564
v -0.146526679 -0.0194630064 0.0852232352
v -0.146526679 -0.0194630064 -0.0864198506
v -0.19243826 -0.0194630064 -0.0671804771
v -0.0230238903 -0.0194630064 -0.0687226132
v -0.0662212521 -0.0194630064 -0.0864198506
v -0.0662212521 -0.0194630064 0.0852232352
v -0.0230238903 -0.0194630064 0.0643049628
v -0.19243826 -0.0194630064 0.0627628267
v -0.206001893 0.243099004 0.0638851672
v -0.15359129 0.243099004 0.100251749
v -0.0193977207 0.243099004 0.0756707862
v -0.0193977207 0.243099004 -0.0806520805
v -0.206001893 0.243099004 -0.068866834
v -0.15359129 0.243099004 -0.101448365
v -0.0586988926 0.243099004 0.100251749
v -0.0586988926 0.243099004 -0.101448365
v 0.153681204 0.243099004 0.10047362
v 0.206207231 0.243099004 0.0640267059
v 0.206207231 0.243099004 -0.0690167472
v 0.153681204 0.243099004 -0.101670228
v 0.0585801825 0.243099004 -0.101670228
v 0.0191924069 0.243099004 -0.0808282271
v 0.0191924069 0.243099004 0.0758381858
v 0.0585801825 0.243099004 0.10047362
v -0.206001893 0.0393543839 0.0638851672
v -0.15359129 0.0393543839 0.100251749
v -0.0193977207 0.0393543839 0.0756707862
v -0.0193977207 0.0393543839 -0.0806520805
v -0.206001893 0.0393543839 -0.068866834
v -0.15359129 0.0393543839 -0.101448365
v -0.0586988926 0.0393543839 0.100251749
v -0.0586988926 0.0393543839 -0.101448365
v 0.153681204 0.0393543839 0.10047362
v 0.206207231 0.0393543839 0.0640267059
v 0.206207231 0.0393543839 -0.0690167472
v 0.153681204 0.0393543839 -0.101670228
v 0.0585801825 0.0393543839 -0.101670228
v 0.0191924069 0.0393543839 -0.0808282271
v 0.0191924069 0.0393543839 0.0758381858
v 0.0585801825 0.0393543839 0.10047362
v 0.00128782925 0.243099004 -0.0961904675
v 0.00128782913 0.0417030714 -0.0961904675
v 0.00128782925 0.243099004 0.0904740766
v 0.00128782913 0.0417030714 0.0904740766
v 0.161528215 0.0417030714 -0.121023253
v 0.161528215 0.243099004 -0.121023253
v 0.0482174829 0.243099004 -0.121023253
v 0.0482174829 0.0417030714 -0.121023253
v 0.224111795 0.0417030714 -0.0821173564
v 0.224111795 0.0417030714 0.0764009729
v 0.224111795 0.243099004 0.076400958
v 0.224111795 0.243099004 -0.0821173564
v 0.161528215 0.0417030714 0.119826637
v 0.0482174829 0.0417030714 0.119826637
v 0.0482174829 0.243099004 0.119826637
v 0.161528215 0.243099004 0.119826637
v 0.224111795 0.0417030714 -0.0821173564
v 0.161528215 0.0417030714 -0.121023253
v 0.00128782913 0.0417030714 -0.0961904675
v 0.0482174829 0.0417030714 -0.121023253
v 0.0482174829 0.0417030714 0.119826637
v 0.00128782913 0.0417030714 0.0904740766
v 0.0482174829 0.0417030714 -0.121023253
v 0.066221267 -0.0194630064 -0.0864198506
v 0.146526694 -0.0194630064 -0.0864198506
v 0.161528215 0.0417030714 -0.121023253
v 0.161528215 0.0417030714 0.119826637
v 0.066221267 -0.0194630064 0.0852232352
v 0.0482174829 0.0417030714 0.119826637
v 0.146526694 -0.0194630101 0.0852232352
v 0.161528215 0.0417030714 0.119826637
v 0.224111795 0.0417030714 0.0764009729
v 0.0230239034 -0.0194630064 -0.0687226132
v 0.00128782913 0.0417030714 -0.0961904675
v 0.00128782913 0.0417030714 0.0904740766
v 0.0230239034 -0.0194630064 0.0643049628
v 0.224111795 0.0417030714 -0.0821173564
v 0.192438275 -0.0194630064 -0.0671804771
v 0.192438275 -0.0194630101 0.0627628267
v 0.224111795 0.0417030714 0.0764009729
v 0.0230239034 -0.0194630064 -0.0687226132
v 0.0230239034 -0.0194630064 0.0643049628
v 0.066221267 -0.0194630064 0.0852232352
v 0.066221267 -0.0194630064 -0.0864198506
v 0.146526694 -0.0194630101 0.0852232352
v 0.146526694 -0.0194630064 -0.0864198506
v 0.192438275 -0.0194630101 0.0627628267
v 0.192438275 -0.0194630064 -0.0671804771
v -0.00128782936 0.0417030714 -0.0961904675
v -0.00128782925 0.243099004 -0.0961904675
v -0.00128782925 0.243099004 0.0904740766
v -0.00128782936 0.0417030714 0.0904740766
v -0.161528215 0.0417030714 -0.121023253
v -0.0482174829 0.0417030714 -0.121023253
v -0.0482174829 0.243099004 -0.121023253
v -0.161528215 0.243099004 -0.121023253
v -0.224111795 0.0417030714 -0.0821173564
v -0.224111795 0.243099004 -0.0821173564
v -0.224111795 0.243099004 0.076400958
v -0.224111795 0.0417030714 0.0764009729
v -0.161528215 0.0417030714 0.119826637
v -0.161528215 0.243099004 0.119826637
v -0.0482174829 0.243099004 0.119826637
v -0.0482174829 0.0417030714 0.119826637
v -0.224111795 0.0417030714 0.0764009729
v -0.161528215 0.0417030714 0.119826637
v -0.161528215 0.0417030714 -0.121023253
v -0.224111795 0.0417030714 -0.0821173564
v -0.00128782936 0.0417030714 -0.0961904675
v -0.0482174829 0.0417030714 -0.121023253
v -0.0482174829 0.0417030714 0.119826637
v -0.00128782936 0.0417030714 0.0904740766
v -0.0482174829 0.0417030714 -0.121023253
v -0.161528215 0.0417030714 -0.121023253
v -0.146526679 -0.0194630064 -0.0864198506
v -0.0662212521 -0.0194630064 -0.0864198506
v -0.161528215 0.0417030714 0.119826637
v -0.0482174829 0.0417030714 0.119826637
v -0.0662212521 -0.0194630064 0.0852232352
v -0.146526679 -0.0194630064 0.0852232352
v -0.0230238903 -0.0194630064 -0.0687226132
v -0.0230238903 -0.0194630064 0.0643049628
v -0.00128782936 0.0417030714 0.0904740766
v -0.00128782936 0.0417030714 -0.0961904675
v -0.224111795 0.0417030714 -0.0821173564
v -0.224111795 0.0417030714 0.0764009729
v -0.19243826 -0.0194630064 0.0627628267
v -0.19243826 -0.0194630064 -0.0671804771
v -0.0230238903 -0.0194630064 -0.0687226132
v -0.0662212521 -0.0194630064 -0.0864198506
v -0.0662212521 -0.0194630064 0.0852232352
v -0.0230238903 -0.0194630064 0.0643049628
v -0.146526679 -0.0194630064 -0.0864198506
v -0.146526679 -0.0194630064 0.0852232352
v -0.19243826 -0.0194630064 -0.0671804771
v -0.19243826 -0.0194630064 0.0627628267
v -0.224111795 0.243099004 0.076400958
v -0.161528215 0.243099004 0.119826637
v -0.00128782925 0.243099004 0.0904740766
v -0.00128782925 0.243099004 -0.0961904675
v -0.161528215 0.243099004 -0.121023253
v -0.224111795 0.243099004 -0.0821173564
v -0.0482174829 0.243099004 0.119826637
v -0.0193977207 0.243099004 0.0756707862
v -0.00128782925 0.243099004 0.0904740766
v -0.00128782925 0.243099004 -0.0961904675
v -0.0193977207 0.243099004 -0.0806520805
v -0.0482174829 0.243099004 -0.121023253
v -0.0482174829 0.243099004 -0.121023253
v -0.0586988926 0.243099004 -0.101448365
v -0.15359129 0.243099004 -0.101448365
v -0.161528215 0.243099004 -0.121023253
v -0.224111795 0.243099004 -0.0821173564
v -0.206001893 0.243099004 -0.068866834
v -0.206001893 0.243099004 0.0638851672
v -0.224111795 0.243099004 0.076400958
v -0.161528215 0.243099004 0.119826637
v -0.15359129 0.243099004 0.100251749
v -0.0586988926 0.243099004 0.100251749
v -0.0482174829 0.243099004 0.119826637
v 0.161528215 0.243099004 0.119826637
v 0.224111795 0.243099004 0.076400958
v 0.224111795 0.243099004 -0.0821173564
v 0.161528215 0.243099004 -0.121023253
v 0.0482174829 0.243099004 -0.121023253
v 0.00128782925 0.243099004 -0.0961904675
v 0.00128782925 0.243099004 0.0904740766
v 0.0482174829 0.243099004 0.119826637
v 0.161528215 0.243099004 -0.121023253
v 0.153681204 0.243099004 -0.101670228
v 0.0585801825 0.243099004 -0.101670228
v 0.0482174829 0.243099004 -0.121023253
v 0.0482174829 0.243099004 0.119826637
v 0.0585801825 0.243099004 0.10047362
v 0.153681204 0.243099004 0.10047362
v 0.161528215 0.243099004 0.119826637
v 0.224111795 0.243099004 0.076400958
v 0.206207231 0.243099004 0.0640267059
v 0.206207231 0.243099004 -0.0690167472
v 0.224111795 0.243099004 -0.0821173564
v 0.00128782925 0.243099004 -0.0961904675
v 0.0191924069 0.243099004 -0.0808282271
v 0.0191924069 0.243099004 0.0758381858
v 0.00128782925 0.243099004 0.0904740766
v -0.206001893 0.243099004 0.0638851672
v -0.15359129 0.243099004 0.100251749
v -0.0193977207 0.243099004 0.0756707862
v -0.0193977207 0.243099004 -0.0806520805
v -0.15359129 0.243099004 -0.101448365
v -0.206001893 0.243099004 -0.068866834
v -0.0586988926 0.243099004 0.100251749
v -0.0193977207 0.0393543839 0.0756707862
v -0.0193977207 0.243099004 0.0756707862
v -0.0193977207 0.243099004 -0.0806520805
v -0.0193977207 0.0393543839 -0.0806520805
v -0.0586988926 0.243099004 -0.101448365
v -0.0586988926 0.243099004 -0.101448365
v -0.0586988926 0.0393543839 -0.101448365
v -0.15359129 0.0393543839 -0.101448365
v -0.15359129 0.243099004 -0.101448365
v -0.206001893 0.243099004 -0.068866834
v -0.206001893 0.0393543839 -0.068866834
v -0.206001893 0.0393543839 0.0638851672
v -0.206001893 0.243099004 0.0638851672
v -0.15359129 0.243099004 0.100251749
v -0.15359129 0.0393543839 0.100251749
v -0.0586988926 0.0393543839 0.100251749
v -0.0586988926 0.243099004 0.100251749
v 0.153681204 0.243099004 0.10047362
v 0.206207231 0.243099004 0.0640267059
v 0.206207231 0.243099004 -0.0690167472
v 0.153681204 0.243099004 -0.101670228
v 0.0585801825 0.243099004 -0.101670228
v 0.0191924069 0.243099004 -0.0808282271
v 0.0191924069 0.243099004 0.0758381858
v 0.0585801825 0.243099004 0.10047362
v 0.153681204 0.243099004 -0.101670228
v 0.153681204 0.0393543839 -0.101670228
v 0.0585801825 0.0393543839 -0.101670228
v 0.0585801825 0.243099004 -0.101670228
v 0.0585801825 0.243099004 0.10047362
v 0.0585801825 0.0393543839 0.10047362
v 0.153681204 0.0393543839 0.10047362
v 0.153681204 0.243099004 0.10047362
v 0.206207231 0.243099004 0.0640267059
v 0.206207231 0.0393543839 0.0640267059
v 0.206207231 0.0393543839 -0.0690167472
v 0.206207231 0.243099004 -0.0690167472
v 0.0191924069 0.243099004 -0.0808282271
v 0.0191924069 0.0393543839 -0.0808282271
v 0.0191924069 0.0393543839 0.0758381858
v 0.0191924069 0.243099004 0.0758381858
v 0.206207231 0.0393543839 -0.0690167472
v 0.0191924069 0.0393543839 -0.0808282271
v 0.0585801825 0.0393543839 -0.101670228
v 0.153681204 0.0393543839 -0.101670228
v 0.206207231 0.0393543839 0.0640267059
v 0.0191924069 0.0393543839 0.0758381858
v 0.153681204 0.0393543839 0.10047362
v 0.0585801825 0.0393543839 0.10047362
v 0.0191924069 0.0393543839 0.0758381858
v -0.15359129 0.0393543839 -0.101448365
v -0.0586988926 0.0393543839 -0.101448365
v -0.0193977207 0.0393543839 -0.0806520805
v -0.206001893 0.0393543839 -0.068866834
v -0.0193977207 0.0393543839 0.0756707862
v -0.206001893 0.0393543839 0.0638851672
v -0.15359129 0.0393543839 0.100251749
v -0.206001893 0.0393543839 0.0638851672
v -0.0586988926 0.0393543839 0.100251749
vt 0.810335398 0.285799503
vt 0.688000083 0.285799474
vt 0.688000202 0.368852943
vt 0.810335517 0.368852943
vt 0.688000083 0.261322647
vt 0.688000202 0.392052352
vt 0.810335755 0.392052263
vt 0.810335398 0.261322588
vt 0.688000202 0.210678428
vt 0.688000083 0.0730825067
vt 0.810335398 0.0730825067
vt 0.810335398 0.210678428
vt 0.688000083 0.176928371
vt 0.810335398 0.176928312
vt 0.688000083 0.105565988
vt 0.810335457 0.105565943
vt 0.841027021 0.208833307
vt 0.841027021 0.0851994455
vt 0.841027081 0.112606138
vt 0.841026902 0.342907876
vt 0.841026902 0.36233303
vt 0.841027021 0.251894444
vt 0.841027021 0.279604882
vt 0.841027021 0.179194003
vt 0.810335398 0.285799474
vt 0.688000083 0.285799474
vt 0.688000321 0.368853182
vt 0.810335517 0.368852824
vt 0.688000083 0.261322647
vt 0.688000083 0.392052352
vt 0.810335517 0.392052382
vt 0.810335279 0.261322588
vt 0.688000083 0.210678428
vt 0.688000083 0.0730825067
vt 0.810335398 0.0730825067
vt 0.810335398 0.210678428
vt 0.688000083 0.17692861
vt 0.810335398 0.176928312
vt 0.688000083 0.105566107
vt 0.810335457 0.105566077
vt 0.841026902 0.208833307
vt 0.841026902 0.0851994455
vt 0.841026962 0.112606257
vt 0.841026902 0.342907876
vt 0.841026902 0.36233303
vt 0.841026902 0.251894444
vt 0.841026902 0.279604882
vt 0.841026902 0.179194003
vt 0.856522083 0.76392889
vt 0.883181334 0.745430768
vt 0.951440096 0.757934153
vt 0.951440096 0.837449133
vt 0.856522083 0.831454456
vt 0.883181334 0.848027408
vt 0.931449175 0.745430768
vt 0.931449175 0.848027408
vt 0.88328898 0.745696366
vt 0.856767893 0.764098883
vt 0.856767893 0.831274569
vt 0.883289099 0.847761691
vt 0.931306839 0.847761691
vt 0.951194167 0.837238252
vt 0.951194167 0.75813514
vt 0.931306839 0.745696366
vt 0.268135071 0.989598453
vt 0.300465107 0.989598453
vt 0.0194635391 0.989598453
vt 0.0987727642 0.989598453
vt 0.200784445 0.989598453
vt 0.169440031 0.989598453
vt 0.348608017 0.989598453
vt 0.121331692 0.989598453
vt 0.300579786 0.886400044
vt 0.268144846 0.886400044
vt 0.200720072 0.886400044
vt 0.169410944 0.886400044
vt 0.121180058 0.886400044
vt 0.0985965729 0.886400044
vt 0.372319937 0.886400044
vt 0.348775864 0.886400044
vt 0.688000202 0.368852943
vt 0.810335517 0.368852943
vt 0.688000083 0.285799474
vt 0.810335398 0.285799503
vt 0.810335398 0.0730825067
vt 0.688000083 0.0730825067
vt 0.688000023 0.0223999918
vt 0.810335398 0.0224002004
vt 0.810335457 0.105565943
vt 0.810335398 0.176928312
vt 0.688000083 0.176928371
vt 0.688000083 0.105565988
vt 0.810335398 0.210678428
vt 0.810335398 0.261322588
vt 0.688000083 0.261322647
vt 0.688000202 0.210678428
vt 0.810335457 0.105565943
vt 0.810335398 0.0730825067
vt 0.810335517 0.368852943
vt 0.810335755 0.392052263
vt 0.810335398 0.261322588
vt 0.810335398 0.285799503
vt 0.810335398 0.0224002004
vt 0.841027021 0.0471221805
vt 0.841027021 0.0851994455
vt 0.810335398 0.0730825067
vt 0.810335398 0.210678428
vt 0.841027021 0.251894444
vt 0.810335398 0.261322588
vt 0.841027021 0.208833307
vt 0.810335398 0.210678428
vt 0.810335398 0.176928312
vt 0.841026902 0.342907876
vt 0.810335517 0.368852943
vt 0.810335398 0.285799503
vt 0.841027021 0.279604882
vt 0.810335457 0.105565943
vt 0.841027081 0.112606138
vt 0.841027021 0.179194003
vt 0.810335398 0.176928312
vt 0.839999974 0.63499999
vt 0.839999974 0.700853586
vt 0.863267362 0.712236106
vt 0.863267362 0.625249743
vt 0.903965414 0.712236106
vt 0.903965414 0.625249743
vt 0.925857246 0.701635122
vt 0.925857008 0.634218454
vt 0.810335517 0.368852824
vt 0.688000321 0.368853182
vt 0.688000083 0.285799474
vt 0.810335398 0.285799474
vt 0.810335398 0.0730825067
vt 0.810335398 0.0224002004
vt 0.688000143 0.0224002302
vt 0.688000083 0.0730825067
vt 0.810335457 0.105566077
vt 0.688000083 0.105566107
vt 0.688000083 0.17692861
vt 0.810335398 0.176928312
vt 0.810335398 0.210678428
vt 0.688000083 0.210678428
vt 0.688000083 0.261322647
vt 0.810335279 0.261322588
vt 0.810335398 0.176928312
vt 0.810335398 0.210678428
vt 0.810335398 0.0730825067
vt 0.810335457 0.105566077
vt 0.810335517 0.368852824
vt 0.810335517 0.392052382
vt 0.810335279 0.261322588
vt 0.810335398 0.285799474
vt 0.810335398 0.0224002004
vt 0.810335398 0.0730825067
vt 0.841026902 0.0851994455
vt 0.841026902 0.0471222997
vt 0.810335398 0.210678428
vt 0.810335279 0.261322588
vt 0.841026902 0.251894444
vt 0.841026902 0.208833307
vt 0.841026902 0.342907876
vt 0.841026902 0.279604882
vt 0.810335398 0.285799474
vt 0.810335517 0.368852824
vt 0.810335457 0.105566077
vt 0.810335398 0.176928312
vt 0.841026902 0.179194003
vt 0.841026962 0.112606257
vt 0.925856829 0.634218454
vt 0.903964937 0.625249684
vt 0.903964937 0.712236285
vt 0.925856829 0.701635182
vt 0.863267481 0.625249684
vt 0.863267481 0.712236285
vt 0.839999974 0.63500005
vt 0.839999974 0.700853527
vt 0.847372532 0.757605553
vt 0.879171371 0.735541046
vt 0.960589528 0.750455081
vt 0.960589528 0.845299542
vt 0.879171371 0.857917011
vt 0.847372532 0.838148892
vt 0.936744571 0.735540986
vt 0.951440096 0.757934153
vt 0.960589528 0.750455081
vt 0.960589528 0.845299542
vt 0.951440096 0.837449133
vt 0.936744571 0.857917011
vt 0.936744571 0.857917011
vt 0.931449175 0.848027408
vt 0.883181334 0.848027408
vt 0.879171371 0.857917011
vt 0.847372532 0.838148892
vt 0.856522083 0.831454456
vt 0.856522083 0.76392889
vt 0.847372532 0.757605553
vt 0.879171371 0.735541046
vt 0.883181334 0.745430768
vt 0.931449175 0.745430768
vt 0.936744571 0.735540986
vt 0.879299879 0.735858023
vt 0.847665906 0.757808328
vt 0.847665906 0.837934434
vt 0.879299879 0.857600033
vt 0.936574936 0.857600033
vt 0.960296273 0.845047891
vt 0.960296273 0.750694811
vt 0.936574817 0.735857964
vt 0.879299879 0.857600033
vt 0.883289099 0.847761691
vt 0.931306839 0.847761691
vt 0.936574936 0.857600033
vt 0.936574817 0.735857964
vt 0.931306839 0.745696366
vt 0.88328898 0.745696366
vt 0.879299879 0.735858023
vt 0.847665906 0.757808328
vt 0.856767893 0.764098883
vt 0.856767893 0.831274569
vt 0.847665906 0.837934434
vt 0.960296273 0.845047891
vt 0.951194167 0.837238252
vt 0.951194167 0.75813514
vt 0.960296273 0.750694811
vt 0.268065691 0.886456668
vt 0.300464869 0.886456668
vt 0.0193939209 0.886456668
vt 0.098703146 0.886456668
vt 0.169440031 0.886456668
vt 0.200714827 0.886456668
vt 0.348607779 0.886456668
vt 0.372126341 0.989598453
vt 0.372126102 0.886456668
vt 0.098703146 0.886456668
vt 0.0987727642 0.989598453
vt 0.121261843 0.886456668
vt 0.121261843 0.886456668
vt 0.121331692 0.989598453
vt 0.169440031 0.989598453
vt 0.169440031 0.886456668
vt 0.200714827 0.886456668
vt 0.200784445 0.989598453
vt 0.268135071 0.989598453
vt 0.268065691 0.886456668
vt 0.300464869 0.886456668
vt 0.300465107 0.989598453
vt 0.348608017 0.989598453
vt 0.348607779 0.886456668
vt 0.300579786 0.989655077
vt 0.268214226 0.989655077
vt 0.20078969 0.989655077
vt 0.169410944 0.989655077
vt 0.121249907 0.989655077
vt 0.0986661911 0.989655077
vt 0.372319937 0.989655077
vt 0.348775864 0.989655077
vt 0.169410944 0.989655077
vt 0.169410944 0.886400044
vt 0.121180058 0.886400044
vt 0.121249907 0.989655077
vt 0.348775864 0.989655077
vt 0.348775864 0.886400044
vt 0.300579786 0.886400044
vt 0.300579786 0.989655077
vt 0.268214226 0.989655077
vt 0.268144846 0.886400044
vt 0.200720072 0.886400044
vt 0.20078969 0.989655077
vt 0.0986661911 0.989655077
vt 0.0985965729 0.886400044
vt 0.0192000866 0.886400044
vt 0.0192697048 0.989655077
vt 0.855000019 0.962424874
vt 0.949672699 0.96841073
vt 0.929763556 0.978916883
vt 0.881567597 0.978916883
vt 0.855000019 0.894999981
vt 0.949672699 0.889014006
vt 0.881567597 0.876585364
vt 0.929763556 0.876585364
vt 0.949672699 0.889014006
vt 0.881613135 0.978916883
vt 0.929703355 0.978916883
vt 0.949672699 0.968321443
vt 0.855000019 0.962348759
vt 0.949672699 0.889099002
vt 0.855000019 0.895071864
vt 0.881613135 0.876585364
vt 0.855000019 0.895071864
vt 0.929703355 0.876585364
vn -1 0 0
vn -1 0 0
vn -1 0 0
vn -1 0 0
vn -0.530278563 0 0.847823501
vn -0.467706323 0 -0.883883893
vn -0.467706323 0 -0.883883893
vn -0.530278563 0 0.847823501
vn 0.570084453 0 0.821586072
vn 0.527959526 0 -0.849269509
vn 0.527959526 0 -0.849269509
vn 0.570084453 0 0.821586072
vn 0.570084453 0 0.821586072
vn 0.570084453 0 0.821586072
vn 0.527959526 0 -0.849269509
vn 0.527959526 0 -0.849269509
vn -0 -0.492394567 0.870372117
vn 0.416129291 -0.473214477 -0.776469231
vn 0.416129291 -0.473214477 -0.776469231
vn -0.36634618 -0.512921989 -0.776338518
vn -0.36634618 -0.512921989 -0.776338518
vn -0.419160128 -0.509488702 0.751482546
vn -0.419160128 -0.509488702 0.751482546
vn 0.457655311 -0.471806526 0.753624797
vn 1 0 0
vn 1 0 0
vn 1 0 0
vn 1 0 0
vn 0.530278563 0 0.847823501
vn 0.467706323 0 -0.883883893
vn 0.467706323 0 -0.883883893
vn 0.530278563 0 0.847823501
vn -0.570084453 0 0.821586072
vn -0.527959526 0 -0.849269509
vn -0.527959526 0 -0.849269509
vn -0.570084453 0 0.821586072
vn -0.570084453 0 0.821586072
vn -0.570084453 0 0.821586072
vn -0.527959526 0 -0.849269509
vn -0.527959526 0 -0.849269509
vn -0.457655311 -0.471806616 0.753624737
vn -0.416129231 -0.473214686 -0.776469171
vn -0.416129231 -0.473214686 -0.776469171
vn 0.36634624 -0.512921989 -0.776338518
vn 0.36634624 -0.512921989 -0.776338518
vn 0.419160157 -0.509488642 0.751482546
vn 0.419160157 -0.509488642 0.751482546
vn -0.457655311 -0.471806616 0.753624737
vn -0 1 0
vn -0 1 0
vn -0 1 0
vn -0 1 0
vn -0 1 0
vn -0 1 0
vn -0 1 0
vn -0 1 0
vn -0 1 0
vn -0 1 0
vn -0 1 0
vn -0 1 0
vn -0 1 0
vn -0 1 0
vn -0 1 0
vn -0 1 0
vn 0.570082009 0 -0.821587801
vn 0.570082009 0 -0.821587801
vn -1 0 0
vn -1 0 0
vn 0.527957082 0 0.849271059
vn 0.527957082 0 0.849271059
vn -0.530273974 0 -0.847826302
vn -0.467708111 0 0.883882999
vn -0.570084512 0 -0.821586072
vn -0.570084512 0 -0.821586072
vn -0.527959287 0 0.849269688
vn -0.527959287 0 0.849269688
vn 0.467706174 0 0.883884013
vn 0.467706174 0 0.883884013
vn 0.530278623 0 -0.847823381
vn 0.530278623 0 -0.847823381
vn -0.467706323 0 -0.883883893
vn -0.467706323 0 -0.883883893
vn -0.530278563 0 0.847823501
vn -0.530278563 0 0.847823501
vn -0 0 -1
vn -0 0 -1
vn -0 0 -1
vn -0 0 -1
vn 1 0 0
vn 1 0 0
vn 1 0 0
vn 1 0 0
vn -0 0 1
vn -0 0 1
vn -0 0 1
vn -0 0 1
vn 0.416129291 -0.473214477 -0.776469231
vn 0.416129291 -0.473214477 -0.776469231
vn -0.36634618 -0.512921989 -0.776338518
vn -0.36634618 -0.512921989 -0.776338518
vn -0.419160128 -0.509488702 0.751482546
vn -0.419160128 -0.509488702 0.751482546
vn -0 -0.492394567 -0.870372117
vn -0 -0.492394567 -0.870372117
vn -0 -0.492394567 -0.870372117
vn -0 -0.492394567 -0.870372117
vn -0 -0.492394567 0.870372117
vn -0 -0.492394567 0.870372117
vn -0 -0.492394567 0.870372117
vn 0.457655311 -0.471806526 0.753624797
vn 0.457655311 -0.471806526 0.753624797
vn 0.457655311 -0.471806526 0.753624797
vn -0.942272365 -0.334847391 0
vn -0.942272365 -0.334847391 0
vn -0.942272365 -0.334847391 0
vn -0.942272365 -0.334847391 0
vn 0.888004959 -0.459834039 0
vn 0.888004959 -0.459834039 0
vn 0.888004959 -0.459834039 0
vn 0.888004959 -0.459834039 0
vn -0 -1 0
vn -0 -1 0
vn -0 -1 0
vn -0 -1 0
vn -0 -1 0
vn -0 -1 0
vn -0 -1 0
vn -0 -1 0
vn 0.467706323 0 -0.883883893
vn 0.467706323 0 -0.883883893
vn 0.530278563 0 0.847823501
vn 0.530278563 0 0.847823501
vn -0 0 -1
vn -0 0 -1
vn -0 0 -1
vn -0 0 -1
vn -1 0 0
vn -1 0 0
vn -1 0 0
vn -1 0 0
vn -0 0 1
vn -0 0 1
vn -0 0 1
vn -0 0 1
vn -0.457655311 -0.471806616 0.753624737
vn -0.457655311 -0.471806616 0.753624737
vn -0.416129231 -0.473214686 -0.776469171
vn -0.416129231 -0.473214686 -0.776469171
vn 0.36634624 -0.512921989 -0.776338518
vn 0.36634624 -0.512921989 -0.776338518
vn 0.419160157 -0.509488642 0.751482546
vn 0.419160157 -0.509488642 0.751482546
vn -0 -0.492394477 -0.870372176
vn -0 -0.492394477 -0.870372176
vn -0 -0.492394477 -0.870372176
vn -0 -0.492394477 -0.870372176
vn -0 -0.492394567 0.870372117
vn -0 -0.492394567 0.870372117
vn -0 -0.492394567 0.870372117
vn -0 -0.492394567 0.870372117
vn 0.942272365 -0.334847271 0
vn 0.942272365 -0.334847271 0
vn 0.942272365 -0.334847271 0
vn 0.942272365 -0.334847271 0
vn -0.88800478 -0.459834248 0
vn -0.88800478 -0.459834248 0
vn -0.88800478 -0.459834248 0
vn -0.88800478 -0.459834248 0
vn -0 -1 0
vn -0 -1 0
vn -0 -1 0
vn -0 -1 0
vn -0 -1 0
vn -0 -1 0
vn -0 -1 0
vn -0 -1 0
vn -0 1 0
vn -0 1 0
vn -0 1 0
vn -0 1 0
vn -0 1 0
vn -0 1 0
vn -0 1 0
vn -0 1 0
vn -0 1 0
vn -0 1 0
vn -0 1 0
vn -0 1 0
vn -0 1 0
vn -0 1 0
vn -0 1 0
vn -0 1 0
vn -0 1 0
vn -0 1 0
vn -0 1 0
vn -0 1 0
vn -0 1 0
vn -0 1 0
vn -0 1 0
vn -0 1 0
vn -0 1 0
vn -0 1 0
vn -0 1 0
vn -0 1 0
vn -0 1 0
vn -0 1 0
vn -0 1 0
vn -0 1 0
vn -0 1 0
vn -0 1 0
vn -0 1 0
vn -0 1 0
vn -0 1 0
vn -0 1 0
vn -0 1 0
vn -0 1 0
vn -0 1 0
vn -0 1 0
vn -0 1 0
vn -0 1 0
vn -0 1 0
vn -0 1 0
vn -0 1 0
vn -0 1 0
vn 0.570082009 0 -0.821587801
vn 0.570082009 0 -0.821587801
vn -1 0 0
vn -1 0 0
vn 0.527957082 0 0.849271059
vn 0.527957082 0 0.849271059
vn -0.530273974 0 -0.847826302
vn -0.530273974 0 -0.847826302
vn -0.530273974 0 -0.847826302
vn -0.467708111 0 0.883882999
vn -0.467708111 0 0.883882999
vn -0.467708111 0 0.883882999
vn -0 0 1
vn -0 0 1
vn -0 0 1
vn -0 0 1
vn 1 0 0
vn 1 0 0
vn 1 0 0
vn 1 0 0
vn -0 0 -1
vn -0 0 -1
vn -0 0 -1
vn -0 0 -1
vn -0.570084512 0 -0.821586072
vn -0.570084512 0 -0.821586072
vn -0.527959287 0 0.849269688
vn -0.527959287 0 0.849269688
vn 0.467706174 0 0.883884013
vn 0.467706174 0 0.883884013
vn 0.530278623 0 -0.847823381
vn 0.530278623 0 -0.847823381
vn -0 0 1
vn -0 0 1
vn -0 0 1
vn -0 0 1
vn -0 0 -1
vn -0 0 -1
vn -0 0 -1
vn -0 0 -1
vn -1 0 0
vn -1 0 0
vn -1 0 0
vn -1 0 0
vn 1 0 0
vn 1 0 0
vn 1 0 0
vn 1 0 0
vn -0 1 0
vn -0 1 0
vn -0 1 0
vn -0 1 0
vn -0 1 0
vn -0 1 0
vn -0 1 0
vn -0 1 0
vn -0 1 0
vn -0 1 0
vn -0 1 0
vn -0 1 0
vn -0 1 0
vn -0 1 0
vn -0 1 0
vn -0 1 0
vn -0 1 0
vn -0 1 0
g ArmorGirlBoots_0
f 14/14/14 13/13/13 9/9/9
f 12/12/12 14/14/14 9/9/9
f 15/15/15 16/16/16 11/11/11
f 10/10/10 15/15/15 11/11/11
f 4/4/4 1/1/1 2/2/2
f 3/3/3 4/4/4 2/2/2
f 81/81/81 6/6/6 7/7/7
f 82/82/82 81/81/81 7/7/7
f 8/8/8 5/5/5 83/83/83
f 84/84/84 8/8/8 83/83/83
f 87/87/87 86/86/86 85/85/85
f 88/88/88 87/87/87 85/85/85
f 91/91/91 90/90/90 89/89/89
f 92/92/92 91/91/91 89/89/89
f 95/95/95 94/94/94 93/93/93
f 96/96/96 95/95/95 93/93/93
f 97/97/97 19/19/19 18/18/18
f 98/98/98 97/97/97 18/18/18
f 21/21/21 20/20/20 99/99/99
f 100/100/100 21/21/21 99/99/99
f 23/23/23 22/22/22 101/101/101
f 102/102/102 23/23/23 101/101/101
f 105/105/105 104/104/104 103/103/103
f 106/106/106 105/105/105 103/103/103
f 108/108/108 17/17/17 107/107/107
f 109/109/109 108/108/108 107/107/107
f 111/111/111 110/110/110 24/24/24
f 112/112/112 111/111/111 24/24/24
f 115/115/115 114/114/114 113/113/113
f 116/116/116 115/115/115 113/113/113
f 119/119/119 118/118/118 117/117/117
f 120/120/120 119/119/119 117/117/117
f 123/123/123 122/122/122 121/121/121
f 124/124/124 123/123/123 121/121/121
f 125/125/125 123/123/123 124/124/124
f 126/126/126 125/125/125 124/124/124
f 127/127/127 125/125/125 126/126/126
f 128/128/128 127/127/127 126/126/126
f 28/28/28 27/27/27 26/26/26
f 25/25/25 28/28/28 26/26/26
f 34/34/34 35/35/35 40/40/40
f 39/39/39 34/34/34 40/40/40
f 130/130/130 129/129/129 31/31/31
f 30/30/30 130/130/130 31/31/31
f 32/32/32 132/132/132 131/131/131
f 29/29/29 32/32/32 131/131/131
f 135/135/135 134/134/134 133/133/133
f 136/136/136 135/135/135 133/133/133
f 36/36/36 33/33/33 37/37/37
f 38/38/38 36/36/36 37/37/37
f 139/139/139 138/138/138 137/137/137
f 140/140/140 139/139/139 137/137/137
f 143/143/143 142/142/142 141/141/141
f 144/144/144 143/143/143 141/141/141
f 145/145/145 48/48/48 41/41/41
f 146/146/146 145/145/145 41/41/41
f 147/147/147 42/42/42 43/43/43
f 148/148/148 147/147/147 43/43/43
f 45/45/45 150/150/150 149/149/149
f 44/44/44 45/45/45 149/149/149
f 47/47/47 152/152/152 151/151/151
f 46/46/46 47/47/47 151/151/151
f 155/155/155 154/154/154 153/153/153
f 156/156/156 155/155/155 153/153/153
f 159/159/159 158/158/158 157/157/157
f 160/160/160 159/159/159 157/157/157
f 163/163/163 162/162/162 161/161/161
f 164/164/164 163/163/163 161/161/161
f 167/167/167 166/166/166 165/165/165
f 168/168/168 167/167/167 165/165/165
f 172/172/172 171/171/171 169/169/169
f 171/171/171 170/170/170 169/169/169
f 171/171/171 174/174/174 170/170/170
f 174/174/174 173/173/173 170/170/170
f 173/173/173 174/174/174 175/175/175
f 174/174/174 176/176/176 175/175/175
f 50/50/50 49/49/49 177/177/177
f 178/178/178 50/50/50 177/177/177
f 52/52/52 51/51/51 179/179/179
f 180/180/180 52/52/52 179/179/179
f 53/53/53 54/54/54 181/181/181
f 182/182/182 53/53/53 181/181/181
f 184/184/184 55/55/55 183/183/183
f 185/185/185 184/184/184 183/183/183
f 56/56/56 187/187/187 186/186/186
f 188/188/188 56/56/56 186/186/186
f 191/191/191 190/190/190 189/189/189
f 192/192/192 191/191/191 189/189/189
f 195/195/195 194/194/194 193/193/193
f 196/196/196 195/195/195 193/193/193
f 199/199/199 198/198/198 197/197/197
f 200/200/200 199/199/199 197/197/197
f 58/58/58 57/57/57 201/201/201
f 202/202/202 58/58/58 201/201/201
f 60/60/60 59/59/59 203/203/203
f 204/204/204 60/60/60 203/203/203
f 62/62/62 61/61/61 205/205/205
f 206/206/206 62/62/62 205/205/205
f 64/64/64 63/63/63 207/207/207
f 208/208/208 64/64/64 207/207/207
f 211/211/211 210/210/210 209/209/209
f 212/212/212 211/211/211 209/209/209
f 215/215/215 214/214/214 213/213/213
f 216/216/216 215/215/215 213/213/213
f 219/219/219 218/218/218 217/217/217
f 220/220/220 219/219/219 217/217/217
f 223/223/223 222/222/222 221/221/221
f 224/224/224 223/223/223 221/221/221
f 66/66/66 65/65/65 225/225/225
f 226/226/226 66/66/66 225/225/225
f 68/68/68 67/67/67 227/227/227
f 228/228/228 68/68/68 227/227/227
f 69/69/69 70/70/70 229/229/229
f 230/230/230 69/69/69 229/229/229
f 232/232/232 71/71/71 231/231/231
f 233/233/233 232/232/232 231/231/231
f 72/72/72 235/235/235 234/234/234
f 236/236/236 72/72/72 234/234/234
f 239/239/239 238/238/238 237/237/237
f 240/240/240 239/239/239 237/237/237
f 243/243/243 242/242/242 241/241/241
f 244/244/244 243/243/243 241/241/241
f 247/247/247 246/246/246 245/245/245
f 248/248/248 247/247/247 245/245/245
f 74/74/74 73/73/73 249/249/249
f 250/250/250 74/74/74 249/249/249
f 76/76/76 75/75/75 251/251/251
f 252/252/252 76/76/76 251/251/251
f 78/78/78 77/77/77 253/253/253
f 254/254/254 78/78/78 253/253/253
f 80/80/80 79/79/79 255/255/255
f 256/256/256 80/80/80 255/255/255
f 259/259/259 258/258/258 257/257/257
f 260/260/260 259/259/259 257/257/257
f 263/263/263 262/262/262 261/261/261
f 264/264/264 263/263/263 261/261/261
f 267/267/267 266/266/266 265/265/265
f 268/268/268 267/267/267 265/265/265
f 271/271/271 270/270/270 269/269/269
f 272/272/272 271/271/271 269/269/269
f 276/276/276 275/275/275 273/273/273
f 275/275/275 274/274/274 273/273/273
f 273/273/273 274/274/274 277/277/277
f 274/274/274 278/278/278 277/277/277
f 280/280/280 279/279/279 277/277/277
f 281/281/281 280/280/280 277/277/277
f 284/284/284 283/283/283 282/282/282
f 285/285/285 284/284/284 282/282/282
f 284/284/284 285/285/285 286/286/286
f 285/285/285 287/287/287 286/286/286
f 286/286/286 289/289/289 288/288/288
f 290/290/290 286/286/286 288/288/288
