v 0.0014501140703758058 0.04695960349264955 0.10187800996665225
v 0.0014501241856303114 0.2737407922262679 0.10187798481302877
v 0.00145012888139489 0.27374076679597936 -0.10831498664717211
v 0.0014501187661403844 0.04695957806236096 -0.10831496149354863
v 0.054295085565768904 0.27374079809663 0.13493033814167607
v 0.054295091030889385 0.2737407619074615 -0.13627785154817418
v 0.054295081625789866 0.046959576550769974 -0.13627782801518237
v 0.05429507556692972 0.04695960936301161 0.13493036329529956
v 0.1818882310058976 0.27374080261535194 0.13493034045646204
v 0.18188823706475774 0.2737407698031103 -0.1362778508540199
v 0.18188822706591856 0.0469595810694919 -0.1362778257003964
v 0.18188821890509907 0.04695961323629182 0.13493036401388586
v 0.25236024733902945 0.27374079919501654 0.08603100447998699
v 0.2523602373401901 0.04695961046139906 0.08603103708419213
v 0.25236025132674283 0.2737407775992358 -0.092468004660724
v 0.25236024132790363 0.04695958886561747 -0.09246797950710052
v 0.1649958158816808 -0.021916247320225048 0.09596532836515245
v 0.1649958201995633 -0.02191626511612523 -0.09731278124012195
v 0.2166943839589706 -0.02191626066413585 -0.07564835144531265
v 0.025925943661619308 -0.021916267630309103 -0.07738486942710633
v 0.07456817781715756 -0.021916268318627755 -0.09731278288065395
v 0.07456817349927532 -0.02191624493479113 0.09596532672461984
v 0.025925940315155428 -0.021916249507266367 0.07241037149062947
v 0.2166943806900948 -0.02191624854921549 0.07067386043065198
v -0.0014501748482889352 0.046959523184038246 0.10187801847538214
v -0.0014501615913615161 0.27374071932510197 0.10187798543508758
v -0.0014501611177695562 0.2737406661484451 -0.10831497545634998
v -0.0014501743746969753 0.04695947000738137 -0.10831494241605542
v -0.054295132844019815 0.2737407276435626 0.13493033555137854
v -0.05429513223295267 0.2737406590306835 -0.13627784212241917
v -0.05429514537346475 0.0469594628896198 -0.13627780908212458
v -0.054295145984531896 0.04695953150249887 0.13493036859167312
v -0.18188830015850052 0.2737407275386676 0.1349303341226495
v -0.18188829954743338 0.2737406589257886 -0.13627784355114822
v -0.18188831268794547 0.04695946278472486 -0.13627781051085366
v -0.18188831329901262 0.04695953139760392 0.13493036716294404
v -0.25236032737063474 0.2737407151097036 0.08603099853728227
v -0.2523603405111468 0.04695951896864174 0.08603103902815815
v -0.25236032696845334 0.27374066995129276 -0.09246800162827712
v -0.25236034010896546 0.04695947381022901 -0.09246796858798255
v -0.16499588154468747 -0.021916330997556667 0.09596533476810115
v -0.1649958811092069 -0.021916379894927708 -0.09731276511890956
v -0.2166944691656932 -0.021916374456551996 -0.07564833793022316
v -0.025925996120617932 -0.021916374739040623 -0.07738485022765815
v -0.0745682381252032 -0.021916379820586716 -0.09731276410634279
v -0.0745682385606838 -0.021916330923215675 0.09596533578066792
v -0.025925996458125992 -0.0219163368423875 0.07241038315818714
v -0.21669446949537607 -0.021916337438539452 0.07067386658847855
v -0.23196772761016018 0.27374071156099256 0.07193763564563009
v -0.17295093993474164 0.2737407219695534 0.11288808747755034
v -0.021842743936638504 0.2737407150912028 0.085208792219434
v -0.021842743540027295 0.27374067055822926 -0.090818023115246
v -0.23196772727335127 0.27374067374284444 -0.07754728847975881
v -0.17295093942300255 0.27374066450959583 -0.11423560415647757
v -0.06609769239059322 0.27374072205739797 0.11288808867404342
v -0.06609769187885414 0.2737406645974404 -0.1142356029599845
v 0.17305212623874028 0.27374079966585746 0.11313794024846141
v 0.23219885782920954 0.27374079679518953 0.07209701567813637
v 0.2321988611760729 0.2737407786699834 -0.07771610663561235
v 0.1730521313239049 0.2737407721267419 -0.11448545096662725
v 0.06596396937736412 0.27374076380729134 -0.11448545105635761
v 0.021611512146036665 0.2737407696028747 -0.09101638966804144
v 0.021611508204910056 0.27374079094636106 0.08539729106964336
v 0.06596396531157922 0.2737407958733213 0.11313793830567544
v -0.2319677409039173 0.044314785994711677 0.0719376690712416
v -0.17295095322849877 0.04431479640327255 0.11288812090316186
v -0.02184275723039565 0.04431478952492192 0.08520882564504552
v -0.021842756833784442 0.04431474499194841 -0.09081798968963449
v -0.23196774056710842 0.04431474817656361 -0.0775472550541473
v -0.1729509527167597 0.04431473894331496 -0.11423557073086606
v -0.06609770568435037 0.04431479649111711 0.11288812209965493
v -0.06609770517261128 0.044314739031159525 -0.11423556953437299
v 0.17305211612329433 0.0443148815934078 0.11313796569542724
v 0.2321988477137636 0.044314878722739884 0.0720970411251022
v 0.23219885106062693 0.044314860597533756 -0.07771608118864652
v 0.17305212120845892 0.04431485405429226 -0.11448542551966143
v 0.06596396028129785 0.04431485026175608 -0.1144854274624474
v 0.021611502030590705 0.04431485153042505 -0.09101636422107562
v 0.021611498089464092 0.04431487287391137 0.08539731651660919
v 0.06596395519613325 0.04431487780087162 0.11313796375264126
v 0.00145012888139489 0.27374076679597936 -0.10831498664717211
v 0.0014501187661403844 0.04695957806236096 -0.10831496149354863
v 0.0014501241856303114 0.2737407922262679 0.10187798481302877
v 0.0014501140703758058 0.04695960349264955 0.10187800996665225
v 0.18188822706591856 0.0469595810694919 -0.1362778257003964
v 0.18188823706475774 0.2737407698031103 -0.1362778508540199
v 0.054295091030889385 0.2737407619074615 -0.13627785154817418
v 0.054295081625789866 0.046959576550769974 -0.13627782801518237
v 0.25236024132790363 0.04695958886561747 -0.09246797950710052
v 0.2523602373401901 0.04695961046139906 0.08603103708419213
v 0.25236024733902945 0.27374079919501654 0.08603100447998699
v 0.25236025132674283 0.2737407775992358 -0.092468004660724
v 0.18188821890509907 0.04695961323629182 0.13493036401388586
v 0.05429507556692972 0.04695960936301161 0.13493036329529956
v 0.054295085565768904 0.27374079809663 0.13493033814167607
v 0.1818882310058976 0.27374080261535194 0.13493034045646204
v 0.25236024132790363 0.04695958886561747 -0.09246797950710052
v 0.18188822706591856 0.0469595810694919 -0.1362778257003964
v 0.0014501187661403844 0.04695957806236096 -0.10831496149354863
v 0.054295081625789866 0.046959576550769974 -0.13627782801518237
v 0.05429507556692972 0.04695960936301161 0.13493036329529956
v 0.0014501140703758058 0.04695960349264955 0.10187800996665225
v 0.054295081625789866 0.046959576550769974 -0.13627782801518237
v 0.07456817781715756 -0.021916268318627755 -0.09731278288065395
v 0.1649958201995633 -0.02191626511612523 -0.09731278124012195
v 0.18188822706591856 0.0469595810694919 -0.1362778257003964
v 0.18188821890509907 0.04695961323629182 0.13493036401388586
v 0.07456817349927532 -0.02191624493479113 0.09596532672461984
v 0.05429507556692972 0.04695960936301161 0.13493036329529956
v 0.1649958158816808 -0.021916247320225048 0.09596532836515245
v 0.18188821890509907 0.04695961323629182 0.13493036401388586
v 0.2523602373401901 0.04695961046139906 0.08603103708419213
v 0.025925943661619308 -0.021916267630309103 -0.07738486942710633
v 0.0014501187661403844 0.04695957806236096 -0.10831496149354863
v 0.0014501140703758058 0.04695960349264955 0.10187800996665225
v 0.025925940315155428 -0.021916249507266367 0.07241037149062947
v 0.25236024132790363 0.04695958886561747 -0.09246797950710052
v 0.2166943839589706 -0.02191626066413585 -0.07564835144531265
v 0.2166943806900948 -0.02191624854921549 0.07067386043065198
v 0.2523602373401901 0.04695961046139906 0.08603103708419213
v 0.025925943661619308 -0.021916267630309103 -0.07738486942710633
v 0.025925940315155428 -0.021916249507266367 0.07241037149062947
v 0.07456817349927532 -0.02191624493479113 0.09596532672461984
v 0.07456817781715756 -0.021916268318627755 -0.09731278288065395
v 0.1649958158816808 -0.021916247320225048 0.09596532836515245
v 0.1649958201995633 -0.02191626511612523 -0.09731278124012195
v 0.2166943806900948 -0.02191624854921549 0.07067386043065198
v 0.2166943839589706 -0.02191626066413585 -0.07564835144531265
v -0.0014501743746969753 0.04695947000738137 -0.10831494241605542
v -0.0014501611177695562 0.2737406661484451 -0.10831497545634998
v -0.0014501615913615161 0.27374071932510197 0.10187798543508758
v -0.0014501748482889352 0.046959523184038246 0.10187801847538214
v -0.18188831268794547 0.04695946278472486 -0.13627781051085366
v -0.05429514537346475 0.0469594628896198 -0.13627780908212458
v -0.05429513223295267 0.2737406590306835 -0.13627784212241917
v -0.18188829954743338 0.2737406589257886 -0.13627784355114822
v -0.25236034010896546 0.04695947381022901 -0.09246796858798255
v -0.25236032696845334 0.27374066995129276 -0.09246800162827712
v -0.25236032737063474 0.2737407151097036 0.08603099853728227
v -0.2523603405111468 0.04695951896864174 0.08603103902815815
v -0.18188831329901262 0.04695953139760392 0.13493036716294404
v -0.18188830015850052 0.2737407275386676 0.1349303341226495
v -0.054295132844019815 0.2737407276435626 0.13493033555137854
v -0.054295145984531896 0.04695953150249887 0.13493036859167312
v -0.2523603405111468 0.04695951896864174 0.08603103902815815
v -0.18188831329901262 0.04695953139760392 0.13493036716294404
v -0.18188831268794547 0.04695946278472486 -0.13627781051085366
v -0.25236034010896546 0.04695947381022901 -0.09246796858798255
v -0.0014501743746969753 0.04695947000738137 -0.10831494241605542
v -0.05429514537346475 0.0469594628896198 -0.13627780908212458
v -0.054295145984531896 0.04695953150249887 0.13493036859167312
v -0.0014501748482889352 0.046959523184038246 0.10187801847538214
v -0.05429514537346475 0.0469594628896198 -0.13627780908212458
v -0.18188831268794547 0.04695946278472486 -0.13627781051085366
v -0.1649958811092069 -0.021916379894927708 -0.09731276511890956
v -0.0745682381252032 -0.021916379820586716 -0.09731276410634279
v -0.18188831329901262 0.04695953139760392 0.13493036716294404
v -0.054295145984531896 0.04695953150249887 0.13493036859167312
v -0.0745682385606838 -0.021916330923215675 0.09596533578066792
v -0.16499588154468747 -0.021916330997556667 0.09596533476810115
v -0.025925996120617932 -0.021916374739040623 -0.07738485022765815
v -0.025925996458125992 -0.0219163368423875 0.07241038315818714
v -0.0014501748482889352 0.046959523184038246 0.10187801847538214
v -0.0014501743746969753 0.04695947000738137 -0.10831494241605542
v -0.25236034010896546 0.04695947381022901 -0.09246796858798255
v -0.2523603405111468 0.04695951896864174 0.08603103902815815
v -0.21669446949537607 -0.021916337438539452 0.07067386658847855
v -0.2166944691656932 -0.021916374456551996 -0.07564833793022316
v -0.025925996120617932 -0.021916374739040623 -0.07738485022765815
v -0.0745682381252032 -0.021916379820586716 -0.09731276410634279
v -0.0745682385606838 -0.021916330923215675 0.09596533578066792
v -0.025925996458125992 -0.0219163368423875 0.07241038315818714
v -0.1649958811092069 -0.021916379894927708 -0.09731276511890956
v -0.16499588154468747 -0.021916330997556667 0.09596533476810115
v -0.2166944691656932 -0.021916374456551996 -0.07564833793022316
v -0.21669446949537607 -0.021916337438539452 0.07067386658847855
v -0.25236032737063474 0.2737407151097036 0.08603099853728227
v -0.18188830015850052 0.2737407275386676 0.1349303341226495
v -0.0014501615913615161 0.27374071932510197 0.10187798543508758
v -0.0014501611177695562 0.2737406661484451 -0.10831497545634998
v -0.18188829954743338 0.2737406589257886 -0.13627784355114822
v -0.25236032696845334 0.27374066995129276 -0.09246800162827712
v -0.054295132844019815 0.2737407276435626 0.13493033555137854
v -0.021842743936638504 0.2737407150912028 0.085208792219434
v -0.0014501615913615161 0.27374071932510197 0.10187798543508758
v -0.0014501611177695562 0.2737406661484451 -0.10831497545634998
v -0.021842743540027295 0.27374067055822926 -0.090818023115246
v -0.05429513223295267 0.2737406590306835 -0.13627784212241917
v -0.05429513223295267 0.2737406590306835 -0.13627784212241917
v -0.06609769187885414 0.2737406645974404 -0.1142356029599845
v -0.17295093942300255 0.27374066450959583 -0.11423560415647757
v -0.18188829954743338 0.2737406589257886 -0.13627784355114822
v -0.25236032696845334 0.27374066995129276 -0.09246800162827712
v -0.23196772727335127 0.27374067374284444 -0.07754728847975881
v -0.23196772761016018 0.27374071156099256 0.07193763564563009
v -0.25236032737063474 0.2737407151097036 0.08603099853728227
v -0.18188830015850052 0.2737407275386676 0.1349303341226495
v -0.17295093993474164 0.2737407219695534 0.11288808747755034
v -0.06609769239059322 0.27374072205739797 0.11288808867404342
v -0.054295132844019815 0.2737407276435626 0.13493033555137854
v 0.1818882310058976 0.27374080261535194 0.13493034045646204
v 0.25236024733902945 0.27374079919501654 0.08603100447998699
v 0.25236025132674283 0.2737407775992358 -0.092468004660724
v 0.18188823706475774 0.2737407698031103 -0.1362778508540199
v 0.054295091030889385 0.2737407619074615 -0.13627785154817418
v 0.00145012888139489 0.27374076679597936 -0.10831498664717211
v 0.0014501241856303114 0.2737407922262679 0.10187798481302877
v 0.054295085565768904 0.27374079809663 0.13493033814167607
v 0.18188823706475774 0.2737407698031103 -0.1362778508540199
v 0.1730521313239049 0.2737407721267419 -0.11448545096662725
v 0.06596396937736412 0.27374076380729134 -0.11448545105635761
v 0.054295091030889385 0.2737407619074615 -0.13627785154817418
v 0.054295085565768904 0.27374079809663 0.13493033814167607
v 0.06596396531157922 0.2737407958733213 0.11313793830567544
v 0.17305212623874028 0.27374079966585746 0.11313794024846141
v 0.1818882310058976 0.27374080261535194 0.13493034045646204
v 0.25236024733902945 0.27374079919501654 0.08603100447998699
v 0.23219885782920954 0.27374079679518953 0.07209701567813637
v 0.2321988611760729 0.2737407786699834 -0.07771610663561235
v 0.25236025132674283 0.2737407775992358 -0.092468004660724
v 0.00145012888139489 0.27374076679597936 -0.10831498664717211
v 0.021611512146036665 0.2737407696028747 -0.09101638966804144
v 0.021611508204910056 0.27374079094636106 0.08539729106964336
v 0.0014501241856303114 0.2737407922262679 0.10187798481302877
v -0.23196772761016018 0.27374071156099256 0.07193763564563009
v -0.17295093993474164 0.2737407219695534 0.11288808747755034
v -0.021842743936638504 0.2737407150912028 0.085208792219434
v -0.021842743540027295 0.27374067055822926 -0.090818023115246
v -0.17295093942300255 0.27374066450959583 -0.11423560415647757
v -0.23196772727335127 0.27374067374284444 -0.07754728847975881
v -0.06609769239059322 0.27374072205739797 0.11288808867404342
v -0.02184275723039565 0.04431478952492192 0.08520882564504552
v -0.021842743936638504 0.2737407150912028 0.085208792219434
v -0.021842743540027295 0.27374067055822926 -0.090818023115246
v -0.021842756833784442 0.04431474499194841 -0.09081798968963449
v -0.06609769187885414 0.2737406645974404 -0.1142356029599845
v -0.06609769187885414 0.2737406645974404 -0.1142356029599845
v -0.06609770517261128 0.044314739031159525 -0.11423556953437299
v -0.1729509527167597 0.04431473894331496 -0.11423557073086606
v -0.17295093942300255 0.27374066450959583 -0.11423560415647757
v -0.23196772727335127 0.27374067374284444 -0.07754728847975881
v -0.23196774056710842 0.04431474817656361 -0.0775472550541473
v -0.2319677409039173 0.044314785994711677 0.0719376690712416
v -0.23196772761016018 0.27374071156099256 0.07193763564563009
v -0.17295093993474164 0.2737407219695534 0.11288808747755034
v -0.17295095322849877 0.04431479640327255 0.11288812090316186
v -0.06609770568435037 0.04431479649111711 0.11288812209965493
v -0.06609769239059322 0.27374072205739797 0.11288808867404342
v 0.17305212623874028 0.27374079966585746 0.11313794024846141
v 0.23219885782920954 0.27374079679518953 0.07209701567813637
v 0.2321988611760729 0.2737407786699834 -0.07771610663561235
v 0.1730521313239049 0.2737407721267419 -0.11448545096662725
v 0.06596396937736412 0.27374076380729134 -0.11448545105635761
v 0.021611512146036665 0.2737407696028747 -0.09101638966804144
v 0.021611508204910056 0.27374079094636106 0.08539729106964336
v 0.06596396531157922 0.2737407958733213 0.11313793830567544
v 0.1730521313239049 0.2737407721267419 -0.11448545096662725
v 0.17305212120845892 0.04431485405429226 -0.11448542551966143
v 0.06596396028129785 0.04431485026175608 -0.1144854274624474
v 0.06596396937736412 0.27374076380729134 -0.11448545105635761
v 0.06596396531157922 0.2737407958733213 0.11313793830567544
v 0.06596395519613325 0.04431487780087162 0.11313796375264126
v 0.17305211612329433 0.0443148815934078 0.11313796569542724
v 0.17305212623874028 0.27374079966585746 0.11313794024846141
v 0.23219885782920954 0.27374079679518953 0.07209701567813637
v 0.2321988477137636 0.044314878722739884 0.0720970411251022
v 0.23219885106062693 0.044314860597533756 -0.07771608118864652
v 0.2321988611760729 0.2737407786699834 -0.07771610663561235
v 0.021611512146036665 0.2737407696028747 -0.09101638966804144
v 0.021611502030590705 0.04431485153042505 -0.09101636422107562
v 0.021611498089464092 0.04431487287391137 0.08539731651660919
v 0.021611508204910056 0.27374079094636106 0.08539729106964336
v 0.23219885106062693 0.044314860597533756 -0.07771608118864652
v 0.021611502030590705 0.04431485153042505 -0.09101636422107562
v 0.06596396028129785 0.04431485026175608 -0.1144854274624474
v 0.17305212120845892 0.04431485405429226 -0.11448542551966143
v 0.2321988477137636 0.044314878722739884 0.0720970411251022
v 0.021611498089464092 0.04431487287391137 0.08539731651660919
v 0.17305211612329433 0.0443148815934078 0.11313796569542724
v 0.06596395519613325 0.04431487780087162 0.11313796375264126
v 0.021611498089464092 0.04431487287391137 0.08539731651660919
v -0.1729509527167597 0.04431473894331496 -0.11423557073086606
v -0.06609770517261128 0.044314739031159525 -0.11423556953437299
v -0.021842756833784442 0.04431474499194841 -0.09081798968963449
v -0.23196774056710842 0.04431474817656361 -0.0775472550541473
v -0.02184275723039565 0.04431478952492192 0.08520882564504552
v -0.2319677409039173 0.044314785994711677 0.0719376690712416
v -0.17295095322849877 0.04431479640327255 0.11288812090316186
v -0.2319677409039173 0.044314785994711677 0.0719376690712416
v -0.06609770568435037 0.04431479649111711 0.11288812209965493
vt 0.8103353977203369 0.285799503326416
vt 0.6880000829696655 0.28579947352409363
vt 0.6880002021789551 0.3688529431819916
vt 0.8103355169296265 0.3688529431819916
vt 0.6880000829696655 0.26132264733314514
vt 0.6880002021789551 0.3920523524284363
vt 0.8103357553482056 0.3920522630214691
vt 0.8103353977203369 0.26132258772850037
vt 0.6880002021789551 0.21067842841148376
vt 0.6880000829696655 0.07308250665664673
vt 0.8103353977203369 0.07308250665664673
vt 0.8103353977203369 0.21067842841148376
vt 0.6880000829696655 0.17692837119102478
vt 0.8103353977203369 0.17692831158638
vt 0.6880000829696655 0.10556598752737045
vt 0.8103354573249817 0.10556594282388687
vt 0.841027021408081 0.20883330702781677
vt 0.841027021408081 0.08519944548606873
vt 0.8410270810127258 0.11260613799095154
vt 0.8410269021987915 0.3429078757762909
vt 0.8410269021987915 0.3623330295085907
vt 0.841027021408081 0.25189444422721863
vt 0.841027021408081 0.27960488200187683
vt 0.841027021408081 0.17919400334358215
vt 0.8103353977203369 0.28579947352409363
vt 0.6880000829696655 0.28579947352409363
vt 0.6880003213882446 0.3688531816005707
vt 0.8103355169296265 0.368852823972702
vt 0.6880000829696655 0.26132264733314514
vt 0.6880000829696655 0.3920523524284363
vt 0.8103355169296265 0.39205238223075867
vt 0.8103352785110474 0.26132258772850037
vt 0.6880000829696655 0.21067842841148376
vt 0.6880000829696655 0.07308250665664673
vt 0.8103353977203369 0.07308250665664673
vt 0.8103353977203369 0.21067842841148376
vt 0.6880000829696655 0.17692860960960388
vt 0.8103353977203369 0.17692831158638
vt 0.6880000829696655 0.10556610673666
vt 0.8103354573249817 0.10556607693433762
vt 0.8410269021987915 0.20883330702781677
vt 0.8410269021987915 0.08519944548606873
vt 0.8410269618034363 0.11260625720024109
vt 0.8410269021987915 0.3429078757762909
vt 0.8410269021987915 0.3623330295085907
vt 0.8410269021987915 0.25189444422721863
vt 0.8410269021987915 0.27960488200187683
vt 0.8410269021987915 0.17919400334358215
vt 0.8565220832824707 0.7639288902282715
vt 0.8831813335418701 0.7454307675361633
vt 0.9514400959014893 0.7579341530799866
vt 0.9514400959014893 0.8374491333961487
vt 0.8565220832824707 0.8314544558525085
vt 0.8831813335418701 0.8480274081230164
vt 0.9314491748809814 0.7454307675361633
vt 0.9314491748809814 0.8480274081230164
vt 0.8832889795303345 0.7456963658332825
vt 0.8567678928375244 0.7640988826751709
vt 0.8567678928375244 0.8312745690345764
vt 0.883289098739624 0.8477616906166077
vt 0.9313068389892578 0.8477616906166077
vt 0.951194167137146 0.8372382521629333
vt 0.951194167137146 0.7581351399421692
vt 0.9313068389892578 0.7456963658332825
vt 0.26813507080078125 0.9895984530448914
vt 0.30046510696411133 0.9895984530448914
vt 0.019463539123535156 0.9895984530448914
vt 0.09877276420593262 0.9895984530448914
vt 0.20078444480895996 0.9895984530448914
vt 0.16944003105163574 0.9895984530448914
vt 0.34860801696777344 0.9895984530448914
vt 0.12133169174194336 0.9895984530448914
vt 0.3005797863006592 0.886400043964386
vt 0.2681448459625244 0.886400043964386
vt 0.20072007179260254 0.886400043964386
vt 0.16941094398498535 0.886400043964386
vt 0.12118005752563477 0.886400043964386
vt 0.09859657287597656 0.886400043964386
vt 0.37231993675231934 0.886400043964386
vt 0.34877586364746094 0.886400043964386
vt 0.6880002021789551 0.3688529431819916
vt 0.8103355169296265 0.3688529431819916
vt 0.6880000829696655 0.28579947352409363
vt 0.8103353977203369 0.285799503326416
vt 0.8103353977203369 0.07308250665664673
vt 0.6880000829696655 0.07308250665664673
vt 0.6880000233650208 0.022399991750717163
vt 0.8103353977203369 0.022400200366973877
vt 0.8103354573249817 0.10556594282388687
vt 0.8103353977203369 0.17692831158638
vt 0.6880000829696655 0.17692837119102478
vt 0.6880000829696655 0.10556598752737045
vt 0.8103353977203369 0.21067842841148376
vt 0.8103353977203369 0.26132258772850037
vt 0.6880000829696655 0.26132264733314514
vt 0.6880002021789551 0.21067842841148376
vt 0.8103354573249817 0.10556594282388687
vt 0.8103353977203369 0.07308250665664673
vt 0.8103355169296265 0.3688529431819916
vt 0.8103357553482056 0.3920522630214691
vt 0.8103353977203369 0.26132258772850037
vt 0.8103353977203369 0.285799503326416
vt 0.8103353977203369 0.022400200366973877
vt 0.841027021408081 0.047122180461883545
vt 0.841027021408081 0.08519944548606873
vt 0.8103353977203369 0.07308250665664673
vt 0.8103353977203369 0.21067842841148376
vt 0.841027021408081 0.25189444422721863
vt 0.8103353977203369 0.26132258772850037
vt 0.841027021408081 0.20883330702781677
vt 0.8103353977203369 0.21067842841148376
vt 0.8103353977203369 0.17692831158638
vt 0.8410269021987915 0.3429078757762909
vt 0.8103355169296265 0.3688529431819916
vt 0.8103353977203369 0.285799503326416
vt 0.841027021408081 0.27960488200187683
vt 0.8103354573249817 0.10556594282388687
vt 0.8410270810127258 0.11260613799095154
vt 0.841027021408081 0.17919400334358215
vt 0.8103353977203369 0.17692831158638
vt 0.8399999737739563 0.6349999904632568
vt 0.8399999737739563 0.7008535861968994
vt 0.8632673621177673 0.7122361063957214
vt 0.8632673621177673 0.6252497434616089
vt 0.903965413570404 0.7122361063957214
vt 0.903965413570404 0.6252497434616089
vt 0.9258572459220886 0.7016351222991943
vt 0.9258570075035095 0.6342184543609619
vt 0.8103355169296265 0.368852823972702
vt 0.6880003213882446 0.3688531816005707
vt 0.6880000829696655 0.28579947352409363
vt 0.8103353977203369 0.28579947352409363
vt 0.8103353977203369 0.07308250665664673
vt 0.8103353977203369 0.022400200366973877
vt 0.6880001425743103 0.022400230169296265
vt 0.6880000829696655 0.07308250665664673
vt 0.8103354573249817 0.10556607693433762
vt 0.6880000829696655 0.10556610673666
vt 0.6880000829696655 0.17692860960960388
vt 0.8103353977203369 0.17692831158638
vt 0.8103353977203369 0.21067842841148376
vt 0.6880000829696655 0.21067842841148376
vt 0.6880000829696655 0.26132264733314514
vt 0.8103352785110474 0.26132258772850037
vt 0.8103353977203369 0.17692831158638
vt 0.8103353977203369 0.21067842841148376
vt 0.8103353977203369 0.07308250665664673
vt 0.8103354573249817 0.10556607693433762
vt 0.8103355169296265 0.368852823972702
vt 0.8103355169296265 0.39205238223075867
vt 0.8103352785110474 0.26132258772850037
vt 0.8103353977203369 0.28579947352409363
vt 0.8103353977203369 0.022400200366973877
vt 0.8103353977203369 0.07308250665664673
vt 0.8410269021987915 0.08519944548606873
vt 0.8410269021987915 0.047122299671173096
vt 0.8103353977203369 0.21067842841148376
vt 0.8103352785110474 0.26132258772850037
vt 0.8410269021987915 0.25189444422721863
vt 0.8410269021987915 0.20883330702781677
vt 0.8410269021987915 0.3429078757762909
vt 0.8410269021987915 0.27960488200187683
vt 0.8103353977203369 0.28579947352409363
vt 0.8103355169296265 0.368852823972702
vt 0.8103354573249817 0.10556607693433762
vt 0.8103353977203369 0.17692831158638
vt 0.8410269021987915 0.17919400334358215
vt 0.8410269618034363 0.11260625720024109
vt 0.9258568286895752 0.6342184543609619
vt 0.9039649367332458 0.6252496838569641
vt 0.9039649367332458 0.7122362852096558
vt 0.9258568286895752 0.7016351819038391
vt 0.8632674813270569 0.6252496838569641
vt 0.8632674813270569 0.7122362852096558
vt 0.8399999737739563 0.6350000500679016
vt 0.8399999737739563 0.7008535265922546
vt 0.8473725318908691 0.7576055526733398
vt 0.8791713714599609 0.735541045665741
vt 0.9605895280838013 0.7504550814628601
vt 0.9605895280838013 0.8452995419502258
vt 0.8791713714599609 0.8579170107841492
vt 0.8473725318908691 0.8381488919258118
vt 0.9367445707321167 0.7355409860610962
vt 0.9514400959014893 0.7579341530799866
vt 0.9605895280838013 0.7504550814628601
vt 0.9605895280838013 0.8452995419502258
vt 0.9514400959014893 0.8374491333961487
vt 0.9367445707321167 0.8579170107841492
vt 0.9367445707321167 0.8579170107841492
vt 0.9314491748809814 0.8480274081230164
vt 0.8831813335418701 0.8480274081230164
vt 0.8791713714599609 0.8579170107841492
vt 0.8473725318908691 0.8381488919258118
vt 0.8565220832824707 0.8314544558525085
vt 0.8565220832824707 0.7639288902282715
vt 0.8473725318908691 0.7576055526733398
vt 0.8791713714599609 0.735541045665741
vt 0.8831813335418701 0.7454307675361633
vt 0.9314491748809814 0.7454307675361633
vt 0.9367445707321167 0.7355409860610962
vt 0.8792998790740967 0.7358580231666565
vt 0.8476659059524536 0.7578083276748657
vt 0.8476659059524536 0.8379344344139099
vt 0.8792998790740967 0.8576000332832336
vt 0.9365749359130859 0.8576000332832336
vt 0.9602962732315063 0.8450478911399841
vt 0.9602962732315063 0.7506948113441467
vt 0.9365748167037964 0.7358579635620117
vt 0.8792998790740967 0.8576000332832336
vt 0.883289098739624 0.8477616906166077
vt 0.9313068389892578 0.8477616906166077
vt 0.9365749359130859 0.8576000332832336
vt 0.9365748167037964 0.7358579635620117
vt 0.9313068389892578 0.7456963658332825
vt 0.8832889795303345 0.7456963658332825
vt 0.8792998790740967 0.7358580231666565
vt 0.8476659059524536 0.7578083276748657
vt 0.8567678928375244 0.7640988826751709
vt 0.8567678928375244 0.8312745690345764
vt 0.8476659059524536 0.8379344344139099
vt 0.9602962732315063 0.8450478911399841
vt 0.951194167137146 0.8372382521629333
vt 0.951194167137146 0.7581351399421692
vt 0.9602962732315063 0.7506948113441467
vt 0.2680656909942627 0.8864566683769226
vt 0.3004648685455322 0.8864566683769226
vt 0.0193939208984375 0.8864566683769226
vt 0.09870314598083496 0.8864566683769226
vt 0.16944003105163574 0.8864566683769226
vt 0.2007148265838623 0.8864566683769226
vt 0.34860777854919434 0.8864566683769226
vt 0.37212634086608887 0.9895984530448914
vt 0.37212610244750977 0.8864566683769226
vt 0.09870314598083496 0.8864566683769226
vt 0.09877276420593262 0.9895984530448914
vt 0.1212618425488472 0.8864566683769226
vt 0.1212618425488472 0.8864566683769226
vt 0.12133169174194336 0.9895984530448914
vt 0.16944003105163574 0.9895984530448914
vt 0.16944003105163574 0.8864566683769226
vt 0.2007148265838623 0.8864566683769226
vt 0.20078444480895996 0.9895984530448914
vt 0.26813507080078125 0.9895984530448914
vt 0.2680656909942627 0.8864566683769226
vt 0.3004648685455322 0.8864566683769226
vt 0.30046510696411133 0.9895984530448914
vt 0.34860801696777344 0.9895984530448914
vt 0.34860777854919434 0.8864566683769226
vt 0.3005797863006592 0.989655077457428
vt 0.26821422576904297 0.989655077457428
vt 0.2007896900177002 0.989655077457428
vt 0.16941094398498535 0.989655077457428
vt 0.12124990671873093 0.989655077457428
vt 0.09866619110107422 0.989655077457428
vt 0.37231993675231934 0.989655077457428
vt 0.34877586364746094 0.989655077457428
vt 0.16941094398498535 0.989655077457428
vt 0.16941094398498535 0.886400043964386
vt 0.12118005752563477 0.886400043964386
vt 0.12124990671873093 0.989655077457428
vt 0.34877586364746094 0.989655077457428
vt 0.34877586364746094 0.886400043964386
vt 0.3005797863006592 0.886400043964386
vt 0.3005797863006592 0.989655077457428
vt 0.26821422576904297 0.989655077457428
vt 0.2681448459625244 0.886400043964386
vt 0.20072007179260254 0.886400043964386
vt 0.2007896900177002 0.989655077457428
vt 0.09866619110107422 0.989655077457428
vt 0.09859657287597656 0.886400043964386
vt 0.01920008659362793 0.886400043964386
vt 0.019269704818725586 0.989655077457428
vt 0.8550000190734863 0.9624248743057251
vt 0.9496726989746094 0.9684107303619385
vt 0.9297635555267334 0.9789168834686279
vt 0.8815675973892212 0.9789168834686279
vt 0.8550000190734863 0.8949999809265137
vt 0.9496726989746094 0.8890140056610107
vt 0.8815675973892212 0.8765853643417358
vt 0.9297635555267334 0.8765853643417358
vt 0.9496726989746094 0.8890140056610107
vt 0.8816131353378296 0.9789168834686279
vt 0.9297033548355103 0.9789168834686279
vt 0.9496726989746094 0.9683214426040649
vt 0.8550000190734863 0.9623487591743469
vt 0.9496726989746094 0.8890990018844604
vt 0.8550000190734863 0.8950718641281128
vt 0.8816131353378296 0.8765853643417358
vt 0.8550000190734863 0.8950718641281128
vt 0.9297033548355103 0.8765853643417358
vn -0.9999999760206673 -3.5415082869870024e-08 -1.8141930061483225e-08
vn -0.9999999760206673 -3.5415082869870024e-08 -1.8141930061483225e-08
vn -0.9999999760206673 -3.5415082869870024e-08 -1.8141930061483225e-08
vn -0.9999999760206673 -3.5415082869870024e-08 -1.8141930061483225e-08
vn -0.5302786293289611 8.379443603391222e-08 0.847823494145199
vn -0.46770634595991006 -1.2365080071557348e-07 -0.8838840190562468
vn -0.4677063513131463 -1.2350095515590402e-07 -0.8838840295200185
vn -0.5302786293289611 8.379443603391222e-08 0.847823494145199
vn 0.570084539813689 1.195895425868774e-07 0.8215860821335074
vn 0.5279595318979575 -8.405152750542538e-08 -0.8492696222874897
vn 0.5279595318979575 -8.405152750542538e-08 -0.8492696222874897
vn 0.5700845331663773 1.196843636505096e-07 0.8215860723293196
vn 0.570084539813689 1.195895425868774e-07 0.8215860821335074
vn 0.570084539813689 1.195895425868774e-07 0.8215860821335074
vn 0.5279595318979575 -8.405152750542538e-08 -0.8492696222874897
vn 0.5279595318979575 -8.405152750542538e-08 -0.8492696222874897
vn -4.1154140954315246e-08 -0.492394548669394 0.8703722967753907
vn 0.41612924775913335 -0.4732147001394742 -0.7764692230558933
vn 0.41612924775913335 -0.4732147001394742 -0.7764692230558933
vn -0.3663462663324869 -0.5129222465495008 -0.7763385198424629
vn -0.3663462663324869 -0.5129222465495008 -0.7763385198424629
vn -0.4191601568403977 -0.509488835427079 0.7514827036749838
vn -0.4191601568403977 -0.509488835427079 0.7514827036749838
vn 0.457655262018287 -0.4718065025784874 0.7536249066448916
vn 1.0000001474589637 8.221048368256832e-10 1.1197537471855163e-08
vn 1.0000001474589637 8.221048368256832e-10 1.1197537471855163e-08
vn 1.0000001474589637 8.221048368256832e-10 1.1197537471855163e-08
vn 1.0000001474589637 8.221048368256832e-10 1.1197537471855163e-08
vn 0.5302786993881756 2.1492655882556518e-07 0.8478234670736741
vn 0.4677064532336312 -2.2322904998561462e-07 -0.8838839713549774
vn 0.4677064532336312 -2.2322904998561462e-07 -0.8838839713549774
vn 0.5302786993881756 2.1492655882556518e-07 0.8478234670736741
vn -0.5700846577535987 2.073841448664248e-07 0.8215860240971627
vn -0.5279596015240248 -2.152905077990833e-07 -0.8492695950752106
vn -0.5279596015240248 -2.152905077990833e-07 -0.8492695950752106
vn -0.5700846577535987 2.073841448664248e-07 0.8215860240971627
vn -0.5700846577535987 2.073841448664248e-07 0.8215860240971627
vn -0.5700846577535987 2.073841448664248e-07 0.8215860240971627
vn -0.5279596015240248 -2.152905077990833e-07 -0.8492695950752106
vn -0.5279596015240248 -2.152905077990833e-07 -0.8492695950752106
vn -0.45765531774537543 -0.4718065244987317 0.7536248717321645
vn -0.41612937808984735 -0.47321495238218325 -0.7764691201616185
vn -0.41612937808984735 -0.47321495238218325 -0.7764691201616185
vn 0.3663462362910043 -0.5129222929032834 -0.776338511825781
vn 0.3663462362910043 -0.5129222929032834 -0.776338511825781
vn 0.41916027744320766 -0.5094886184713077 0.7514826959056977
vn 0.41916027744320766 -0.5094886184713077 0.7514826959056977
vn -0.45765531774537543 -0.4718065244987317 0.7536248717321645
vn 5.794358203538321e-08 1.0000002102360643 -1.4569242101877583e-07
vn 5.794358203538321e-08 1.0000002102360643 -1.4569242101877583e-07
vn 5.794358203538321e-08 1.0000002102360643 -1.4569242101877583e-07
vn 5.794358203538321e-08 1.0000002102360643 -1.4569242101877583e-07
vn 5.794358203538321e-08 1.0000002102360643 -1.4569242101877583e-07
vn 5.794358203538321e-08 1.0000002102360643 -1.4569242101877583e-07
vn 5.794358203538321e-08 1.0000002102360643 -1.4569242101877583e-07
vn 5.794358203538321e-08 1.0000002102360643 -1.4569242101877583e-07
vn 4.409025729980257e-08 1.0000001775726555 -1.1091584839654658e-07
vn 4.409025729980257e-08 1.0000001775726555 -1.1091584839654658e-07
vn 4.409025729980257e-08 1.0000001775726555 -1.1091584839654658e-07
vn 4.409025729980257e-08 1.0000001775726555 -1.1091584839654658e-07
vn 4.4107515620611996e-08 1.0000001615480316 -1.109591726675275e-07
vn 4.409025729980257e-08 1.0000001775726555 -1.1091584839654658e-07
vn 4.409025729980257e-08 1.0000001775726555 -1.1091584839654658e-07
vn 4.409025729980257e-08 1.0000001775726555 -1.1091584839654658e-07
vn 0.5700820351488464 -2.073846446414727e-07 -0.8215879910506547
vn 0.5700820351488464 -2.073846446414727e-07 -0.8215879910506547
vn -1.0000001474589637 -8.221048368256832e-10 -1.1197537471855163e-08
vn -1.0000001474589637 -8.221048368256832e-10 -1.1197537471855163e-08
vn 0.527957157733225 2.1529089785347973e-07 0.8492711447960931
vn 0.527957157733225 2.1529089785347973e-07 0.8492711447960931
vn -0.5302739906205372 -2.1492732400199848e-07 -0.8478265069107908
vn -0.4677082413732361 2.2322882232512559e-07 0.8838830772852017
vn -0.570084480209043 -1.1958955489856407e-07 -0.821586201342813
vn -0.570084480209043 -1.1958955489856407e-07 -0.821586201342813
vn -0.5279594126886735 8.405154614982237e-08 0.8492697414967986
vn -0.5279594126886735 8.405154614982237e-08 0.8492697414967986
vn 0.46770626190617864 1.23500966412139e-07 0.8838841487293236
vn 0.46770626190617864 1.23500966412139e-07 0.8838841487293236
vn 0.5302786293289611 -8.379443603391222e-08 -0.847823494145199
vn 0.5302786293289611 -8.379443603391222e-08 -0.847823494145199
vn -0.4677063513131463 -1.2350095515590402e-07 -0.8838840295200185
vn -0.4677063513131463 -1.2350095515590402e-07 -0.8838840295200185
vn -0.5302786293289611 8.379443603391222e-08 0.847823494145199
vn -0.5302786293289611 8.379443603391222e-08 0.847823494145199
vn 2.2340258209837328e-08 -1.209854548278523e-07 -1.0000001443007225
vn 2.2340258209837328e-08 -1.209854548278523e-07 -1.0000001443007225
vn 2.231030687279237e-08 -1.2118227945085019e-07 -1.000000132467801
vn 2.2340258209837328e-08 -1.209854548278523e-07 -1.0000001443007225
vn 0.9999999760206673 3.5415082869870024e-08 1.8141930061483225e-08
vn 0.9999999760206673 3.5415082869870024e-08 1.8141930061483225e-08
vn 0.9999999760206673 3.5415082869870024e-08 1.8141930061483225e-08
vn 0.9999999760206673 3.5415082869870024e-08 1.8141930061483225e-08
vn -2.231879203953869e-08 1.2112651842106013e-07 1.0000001323726253
vn -2.2340258209837328e-08 1.209854548278523e-07 1.0000001443007225
vn -2.2340258209837328e-08 1.209854548278523e-07 1.0000001443007225
vn -2.2340258209837328e-08 1.209854548278523e-07 1.0000001443007225
vn 0.41612924775913335 -0.4732147001394742 -0.7764692230558933
vn 0.41612924775913335 -0.4732147001394742 -0.7764692230558933
vn -0.3663462663324869 -0.5129222465495008 -0.7763385198424629
vn -0.3663462663324869 -0.5129222465495008 -0.7763385198424629
vn -0.4191601568403977 -0.509488835427079 0.7514827036749838
vn -0.4191601568403977 -0.509488835427079 0.7514827036749838
vn -2.2654587213229094e-09 -0.4923946400648233 -0.8703722471513351
vn -2.2654587213229094e-09 -0.4923946400648233 -0.8703722471513351
vn -2.2654587213229094e-09 -0.4923946400648233 -0.8703722471513351
vn -2.2654587213229094e-09 -0.4923946400648233 -0.8703722471513351
vn -4.114274665508165e-08 -0.49239454271693067 0.8703722864118062
vn -4.1154140954315246e-08 -0.492394548669394 0.8703722967753907
vn -4.1154140954315246e-08 -0.492394548669394 0.8703722967753907
vn 0.457655262018287 -0.4718065025784874 0.7536249066448916
vn 0.45765525667695994 -0.4718064969031626 0.7536248976697195
vn 0.457655262018287 -0.4718065025784874 0.7536249066448916
vn -0.9422723572616788 -0.33484754308675246 2.0045249682213437e-08
vn -0.9422723572616788 -0.33484754308675246 2.0045249682213437e-08
vn -0.9422723572616788 -0.33484754308675246 2.0045249682213437e-08
vn -0.9422723572616788 -0.33484754308675246 2.0045249682213437e-08
vn 0.8880049170616406 -0.4598340894164554 6.711300643443789e-08
vn 0.8880049170616406 -0.4598340894164554 6.711300643443789e-08
vn 0.8880049170616406 -0.4598340894164554 6.711300643443789e-08
vn 0.8880049170616406 -0.4598340894164554 6.711300643443789e-08
vn -4.409025729980257e-08 -1.0000001775726555 1.1091584839654658e-07
vn -4.409025729980257e-08 -1.0000001775726555 1.1091584839654658e-07
vn -4.409025729980257e-08 -1.0000001775726555 1.1091584839654658e-07
vn -4.409025729980257e-08 -1.0000001775726555 1.1091584839654658e-07
vn -4.409025729980257e-08 -1.0000001775726555 1.1091584839654658e-07
vn -4.409025729980257e-08 -1.0000001775726555 1.1091584839654658e-07
vn -4.409025729980257e-08 -1.0000001775726555 1.1091584839654658e-07
vn -4.409025729980257e-08 -1.0000001775726555 1.1091584839654658e-07
vn 0.4677064532336312 -2.2322904998561462e-07 -0.8838839713549774
vn 0.4677064532336312 -2.2322904998561462e-07 -0.8838839713549774
vn 0.5302786993881756 2.1492655882556518e-07 0.8478234670736741
vn 0.5302786993881756 2.1492655882556518e-07 0.8478234670736741
vn 2.253129706999625e-09 -2.529897369006281e-07 -1.0000000940194749
vn 2.253129706999625e-09 -2.529897369006281e-07 -1.0000000940194749
vn 2.253129706999625e-09 -2.529897369006281e-07 -1.0000000940194749
vn 2.253129706999625e-09 -2.529897369006281e-07 -1.0000000940194749
vn -1.0000001474589637 -8.221048368256832e-10 -1.1197537471855163e-08
vn -1.0000001474589637 -8.221048368256832e-10 -1.1197537471855163e-08
vn -1.0000001474589637 -8.221048368256832e-10 -1.1197537471855163e-08
vn -1.0000001474589637 -8.221048368256832e-10 -1.1197537471855163e-08
vn -2.253129706999625e-09 2.529897369006281e-07 1.0000000940194749
vn -2.253129706999625e-09 2.529897369006281e-07 1.0000000940194749
vn -2.253129706999625e-09 2.529897369006281e-07 1.0000000940194749
vn -2.253129706999625e-09 2.529897369006281e-07 1.0000000940194749
vn -0.45765531774537543 -0.4718065244987317 0.7536248717321645
vn -0.45765531774537543 -0.4718065244987317 0.7536248717321645
vn -0.41612937808984735 -0.47321495238218325 -0.7764691201616185
vn -0.41612937808984735 -0.47321495238218325 -0.7764691201616185
vn 0.3663462362910043 -0.5129222929032834 -0.776338511825781
vn 0.3663462362910043 -0.5129222929032834 -0.776338511825781
vn 0.41916027744320766 -0.5094886184713077 0.7514826959056977
vn 0.41916027744320766 -0.5094886184713077 0.7514826959056977
vn -2.6570038373017495e-08 -0.49239480084328735 -0.8703721862641406
vn -2.6570038373017495e-08 -0.49239480084328735 -0.8703721862641406
vn -2.6570038373017495e-08 -0.49239480084328735 -0.8703721862641406
vn -2.6570038373017495e-08 -0.49239480084328735 -0.8703721862641406
vn -3.049216623183109e-08 -0.4923944498598327 0.8703722701357902
vn -3.049216623183109e-08 -0.4923944498598327 0.8703722701357902
vn -3.049216623183109e-08 -0.4923944498598327 0.8703722701357902
vn -3.049216623183109e-08 -0.4923944498598327 0.8703722701357902
vn 0.9422724846374874 -0.3348473410647392 5.933583976480145e-08
vn 0.9422724846374874 -0.3348473410647392 5.933583976480145e-08
vn 0.9422724846374874 -0.3348473410647392 5.933583976480145e-08
vn 0.9422724846374874 -0.3348473410647392 5.933583976480145e-08
vn -0.8880049374043801 -0.4598343154289768 5.7050893694195594e-08
vn -0.8880049374043801 -0.4598343154289768 5.7050893694195594e-08
vn -0.8880049374043801 -0.4598343154289768 5.7050893694195594e-08
vn -0.8880049374043801 -0.4598343154289768 5.7050893694195594e-08
vn -5.794358203538321e-08 -1.0000002102360643 1.4569242101877583e-07
vn -5.794358203538321e-08 -1.0000002102360643 1.4569242101877583e-07
vn -5.794358203538321e-08 -1.0000002102360643 1.4569242101877583e-07
vn -5.794358203538321e-08 -1.0000002102360643 1.4569242101877583e-07
vn -5.794358203538321e-08 -1.0000002102360643 1.4569242101877583e-07
vn -5.794358203538321e-08 -1.0000002102360643 1.4569242101877583e-07
vn -5.794358203538321e-08 -1.0000002102360643 1.4569242101877583e-07
vn -5.794358203538321e-08 -1.0000002102360643 1.4569242101877583e-07
vn 5.794358203538321e-08 1.0000002102360643 -1.4569242101877583e-07
vn 5.794358203538321e-08 1.0000002102360643 -1.4569242101877583e-07
vn 5.794358203538321e-08 1.0000002102360643 -1.4569242101877583e-07
vn 5.794358203538321e-08 1.0000002102360643 -1.4569242101877583e-07
vn 5.794358203538321e-08 1.0000002102360643 -1.4569242101877583e-07
vn 5.794358203538321e-08 1.0000002102360643 -1.4569242101877583e-07
vn 5.794358203538321e-08 1.0000002102360643 -1.4569242101877583e-07
vn 5.794358203538321e-08 1.0000002102360643 -1.4569242101877583e-07
vn 5.794358203538321e-08 1.0000002102360643 -1.4569242101877583e-07
vn 5.794358203538321e-08 1.0000002102360643 -1.4569242101877583e-07
vn 5.794358203538321e-08 1.0000002102360643 -1.4569242101877583e-07
vn 5.794358203538321e-08 1.0000002102360643 -1.4569242101877583e-07
vn 5.794358203538321e-08 1.0000002102360643 -1.4569242101877583e-07
vn 5.794358203538321e-08 1.0000002102360643 -1.4569242101877583e-07
vn 5.794358203538321e-08 1.0000002102360643 -1.4569242101877583e-07
vn 5.794358203538321e-08 1.0000002102360643 -1.4569242101877583e-07
vn 5.794358203538321e-08 1.0000002102360643 -1.4569242101877583e-07
vn 5.794358203538321e-08 1.0000002102360643 -1.4569242101877583e-07
vn 5.794358203538321e-08 1.0000002102360643 -1.4569242101877583e-07
vn 5.794358203538321e-08 1.0000002102360643 -1.4569242101877583e-07
vn 5.794358203538321e-08 1.0000002102360643 -1.4569242101877583e-07
vn 5.794358203538321e-08 1.0000002102360643 -1.4569242101877583e-07
vn 5.794358203538321e-08 1.0000002102360643 -1.4569242101877583e-07
vn 5.794358203538321e-08 1.0000002102360643 -1.4569242101877583e-07
vn 4.409025729980257e-08 1.0000001775726555 -1.1091584839654658e-07
vn 4.409025729980257e-08 1.0000001775726555 -1.1091584839654658e-07
vn 4.409025729980257e-08 1.0000001775726555 -1.1091584839654658e-07
vn 4.409025729980257e-08 1.0000001775726555 -1.1091584839654658e-07
vn 4.4110912892560534e-08 1.000000165863409 -1.109677009804682e-07
vn 4.409025729980257e-08 1.0000001775726555 -1.1091584839654658e-07
vn 4.409025729980257e-08 1.0000001775726555 -1.1091584839654658e-07
vn 4.409025729980257e-08 1.0000001775726555 -1.1091584839654658e-07
vn 4.409025729980257e-08 1.0000001775726555 -1.1091584839654658e-07
vn 4.409025729980257e-08 1.0000001775726555 -1.1091584839654658e-07
vn 4.4107515620611996e-08 1.0000001615480316 -1.109591726675275e-07
vn 4.4110912892560534e-08 1.000000165863409 -1.109677009804682e-07
vn 4.409025729980257e-08 1.0000001775726555 -1.1091584839654658e-07
vn 4.409025729980257e-08 1.0000001775726555 -1.1091584839654658e-07
vn 4.409025729980257e-08 1.0000001775726555 -1.1091584839654658e-07
vn 4.409025729980257e-08 1.0000001775726555 -1.1091584839654658e-07
vn 4.409025729980257e-08 1.0000001775726555 -1.1091584839654658e-07
vn 4.409025729980257e-08 1.0000001775726555 -1.1091584839654658e-07
vn 4.409025729980257e-08 1.0000001775726555 -1.1091584839654658e-07
vn 4.409025729980257e-08 1.0000001775726555 -1.1091584839654658e-07
vn 4.409025729980257e-08 1.0000001775726555 -1.1091584839654658e-07
vn 4.409025729980257e-08 1.0000001775726555 -1.1091584839654658e-07
vn 4.409025729980257e-08 1.0000001775726555 -1.1091584839654658e-07
vn 4.409025729980257e-08 1.0000001775726555 -1.1091584839654658e-07
vn 0.5700820351488464 -2.073846446414727e-07 -0.8215879910506547
vn 0.5700820351488464 -2.073846446414727e-07 -0.8215879910506547
vn -1.0000001474589637 -8.221048368256832e-10 -1.1197537471855163e-08
vn -1.0000001474589637 -8.221048368256832e-10 -1.1197537471855163e-08
vn 0.527957157733225 2.1529089785347973e-07 0.8492711447960931
vn 0.527957157733225 2.1529089785347973e-07 0.8492711447960931
vn -0.5302739906205372 -2.1492732400199848e-07 -0.8478265069107908
vn -0.5302739906205372 -2.1492732400199848e-07 -0.8478265069107908
vn -0.5302739906205372 -2.1492732400199848e-07 -0.8478265069107908
vn -0.4677082413732361 2.2322882232512559e-07 0.8838830772852017
vn -0.4677082413732361 2.2322882232512559e-07 0.8838830772852017
vn -0.4677082413732361 2.2322882232512559e-07 0.8838830772852017
vn -2.253129706999625e-09 2.529897369006281e-07 1.0000000940194749
vn -2.253129706999625e-09 2.529897369006281e-07 1.0000000940194749
vn -2.253129706999625e-09 2.529897369006281e-07 1.0000000940194749
vn -2.253129706999625e-09 2.529897369006281e-07 1.0000000940194749
vn 1.0000001474589637 8.221048368256832e-10 1.1197537471855163e-08
vn 1.0000001474589637 8.221048368256832e-10 1.1197537471855163e-08
vn 1.0000001474589637 8.221048368256832e-10 1.1197537471855163e-08
vn 1.0000001474589637 8.221048368256832e-10 1.1197537471855163e-08
vn 2.253129706999625e-09 -2.529897369006281e-07 -1.0000000940194749
vn 2.253129706999625e-09 -2.529897369006281e-07 -1.0000000940194749
vn 2.253129706999625e-09 -2.529897369006281e-07 -1.0000000940194749
vn 2.253129706999625e-09 -2.529897369006281e-07 -1.0000000940194749
vn -0.570084480209043 -1.1958955489856407e-07 -0.821586201342813
vn -0.570084480209043 -1.1958955489856407e-07 -0.821586201342813
vn -0.5279594126886735 8.405154614982237e-08 0.8492697414967986
vn -0.5279594126886735 8.405154614982237e-08 0.8492697414967986
vn 0.4677062545143449 1.2362616778339213e-07 0.8838841344700318
vn 0.46770626190617864 1.23500966412139e-07 0.8838841487293236
vn 0.5302786293289611 -8.379443603391222e-08 -0.847823494145199
vn 0.5302786293289611 -8.379443603391222e-08 -0.847823494145199
vn -2.2340258209837328e-08 1.209854548278523e-07 1.0000001443007225
vn -2.2340258209837328e-08 1.209854548278523e-07 1.0000001443007225
vn -2.2340258209837328e-08 1.209854548278523e-07 1.0000001443007225
vn -2.2315232498345316e-08 1.211499091279725e-07 1.0000001281727633
vn 2.2340258209837328e-08 -1.209854548278523e-07 -1.0000001443007225
vn 2.2340258209837328e-08 -1.209854548278523e-07 -1.0000001443007225
vn 2.2340258209837328e-08 -1.209854548278523e-07 -1.0000001443007225
vn 2.2340258209837328e-08 -1.209854548278523e-07 -1.0000001443007225
vn -0.9999999760206673 -3.5415082869870024e-08 -1.8141930061483225e-08
vn -0.9999999760206673 -3.5415082869870024e-08 -1.8141930061483225e-08
vn -0.9999999760206673 -3.5415082869870024e-08 -1.8141930061483225e-08
vn -0.9999999760206673 -3.5415082869870024e-08 -1.8141930061483225e-08
vn 0.9999999760206673 3.5415082869870024e-08 1.8141930061483225e-08
vn 0.9999999760206673 3.5415082869870024e-08 1.8141930061483225e-08
vn 0.9999999760206673 3.5415082869870024e-08 1.8141930061483225e-08
vn 0.9999999760206673 3.5415082869870024e-08 1.8141930061483225e-08
vn 4.409025729980257e-08 1.0000001775726555 -1.1091584839654658e-07
vn 4.409025729980257e-08 1.0000001775726555 -1.1091584839654658e-07
vn 4.409025729980257e-08 1.0000001775726555 -1.1091584839654658e-07
vn 4.409025729980257e-08 1.0000001775726555 -1.1091584839654658e-07
vn 4.409025729980257e-08 1.0000001775726555 -1.1091584839654658e-07
vn 4.409025729980257e-08 1.0000001775726555 -1.1091584839654658e-07
vn 4.409025729980257e-08 1.0000001775726555 -1.1091584839654658e-07
vn 4.409025729980257e-08 1.0000001775726555 -1.1091584839654658e-07
vn 4.409025729980257e-08 1.0000001775726555 -1.1091584839654658e-07
vn 5.794358203538321e-08 1.0000002102360643 -1.4569242101877583e-07
vn 5.794358203538321e-08 1.0000002102360643 -1.4569242101877583e-07
vn 5.794358203538321e-08 1.0000002102360643 -1.4569242101877583e-07
vn 5.794358203538321e-08 1.0000002102360643 -1.4569242101877583e-07
vn 5.794358203538321e-08 1.0000002102360643 -1.4569242101877583e-07
vn 5.794358203538321e-08 1.0000002102360643 -1.4569242101877583e-07
vn 5.794358203538321e-08 1.0000002102360643 -1.4569242101877583e-07
vn 5.794358203538321e-08 1.0000002102360643 -1.4569242101877583e-07
vn 5.794358203538321e-08 1.0000002102360643 -1.4569242101877583e-07
f 14/14/14 13/13/13 9/9/9
f 12/12/12 14/14/14 9/9/9
f 15/15/15 16/16/16 11/11/11
f 10/10/10 15/15/15 11/11/11
f 4/4/4 1/1/1 2/2/2
f 3/3/3 4/4/4 2/2/2
f 81/81/81 6/6/6 7/7/7
f 82/82/82 81/81/81 7/7/7
f 8/8/8 5/5/5 83/83/83
f 84/84/84 8/8/8 83/83/83
f 87/87/87 86/86/86 85/85/85
f 88/88/88 87/87/87 85/85/85
f 91/91/91 90/90/90 89/89/89
f 92/92/92 91/91/91 89/89/89
f 95/95/95 94/94/94 93/93/93
f 96/96/96 95/95/95 93/93/93
f 97/97/97 19/19/19 18/18/18
f 98/98/98 97/97/97 18/18/18
f 21/21/21 20/20/20 99/99/99
f 100/100/100 21/21/21 99/99/99
f 23/23/23 22/22/22 101/101/101
f 102/102/102 23/23/23 101/101/101
f 105/105/105 104/104/104 103/103/103
f 106/106/106 105/105/105 103/103/103
f 108/108/108 17/17/17 107/107/107
f 109/109/109 108/108/108 107/107/107
f 111/111/111 110/110/110 24/24/24
f 112/112/112 111/111/111 24/24/24
f 115/115/115 114/114/114 113/113/113
f 116/116/116 115/115/115 113/113/113
f 119/119/119 118/118/118 117/117/117
f 120/120/120 119/119/119 117/117/117
f 123/123/123 122/122/122 121/121/121
f 124/124/124 123/123/123 121/121/121
f 125/125/125 123/123/123 124/124/124
f 126/126/126 125/125/125 124/124/124
f 127/127/127 125/125/125 126/126/126
f 128/128/128 127/127/127 126/126/126
f 28/28/28 27/27/27 26/26/26
f 25/25/25 28/28/28 26/26/26
f 34/34/34 35/35/35 40/40/40
f 39/39/39 34/34/34 40/40/40
f 130/130/130 129/129/129 31/31/31
f 30/30/30 130/130/130 31/31/31
f 32/32/32 132/132/132 131/131/131
f 29/29/29 32/32/32 131/131/131
f 135/135/135 134/134/134 133/133/133
f 136/136/136 135/135/135 133/133/133
f 36/36/36 33/33/33 37/37/37
f 38/38/38 36/36/36 37/37/37
f 139/139/139 138/138/138 137/137/137
f 140/140/140 139/139/139 137/137/137
f 143/143/143 142/142/142 141/141/141
f 144/144/144 143/143/143 141/141/141
f 145/145/145 48/48/48 41/41/41
f 146/146/146 145/145/145 41/41/41
f 147/147/147 42/42/42 43/43/43
f 148/148/148 147/147/147 43/43/43
f 45/45/45 150/150/150 149/149/149
f 44/44/44 45/45/45 149/149/149
f 47/47/47 152/152/152 151/151/151
f 46/46/46 47/47/47 151/151/151
f 155/155/155 154/154/154 153/153/153
f 156/156/156 155/155/155 153/153/153
f 159/159/159 158/158/158 157/157/157
f 160/160/160 159/159/159 157/157/157
f 163/163/163 162/162/162 161/161/161
f 164/164/164 163/163/163 161/161/161
f 167/167/167 166/166/166 165/165/165
f 168/168/168 167/167/167 165/165/165
f 172/172/172 171/171/171 169/169/169
f 171/171/171 170/170/170 169/169/169
f 171/171/171 174/174/174 170/170/170
f 174/174/174 173/173/173 170/170/170
f 173/173/173 174/174/174 175/175/175
f 174/174/174 176/176/176 175/175/175
f 50/50/50 49/49/49 177/177/177
f 178/178/178 50/50/50 177/177/177
f 52/52/52 51/51/51 179/179/179
f 180/180/180 52/52/52 179/179/179
f 53/53/53 54/54/54 181/181/181
f 182/182/182 53/53/53 181/181/181
f 184/184/184 55/55/55 183/183/183
f 185/185/185 184/184/184 183/183/183
f 56/56/56 187/187/187 186/186/186
f 188/188/188 56/56/56 186/186/186
f 191/191/191 190/190/190 189/189/189
f 192/192/192 191/191/191 189/189/189
f 195/195/195 194/194/194 193/193/193
f 196/196/196 195/195/195 193/193/193
f 199/199/199 198/198/198 197/197/197
f 200/200/200 199/199/199 197/197/197
f 58/58/58 57/57/57 201/201/201
f 202/202/202 58/58/58 201/201/201
f 60/60/60 59/59/59 203/203/203
f 204/204/204 60/60/60 203/203/203
f 62/62/62 61/61/61 205/205/205
f 206/206/206 62/62/62 205/205/205
f 64/64/64 63/63/63 207/207/207
f 208/208/208 64/64/64 207/207/207
f 211/211/211 210/210/210 209/209/209
f 212/212/212 211/211/211 209/209/209
f 215/215/215 214/214/214 213/213/213
f 216/216/216 215/215/215 213/213/213
f 219/219/219 218/218/218 217/217/217
f 220/220/220 219/219/219 217/217/217
f 223/223/223 222/222/222 221/221/221
f 224/224/224 223/223/223 221/221/221
f 66/66/66 65/65/65 225/225/225
f 226/226/226 66/66/66 225/225/225
f 68/68/68 67/67/67 227/227/227
f 228/228/228 68/68/68 227/227/227
f 69/69/69 70/70/70 229/229/229
f 230/230/230 69/69/69 229/229/229
f 232/232/232 71/71/71 231/231/231
f 233/233/233 232/232/232 231/231/231
f 72/72/72 235/235/235 234/234/234
f 236/236/236 72/72/72 234/234/234
f 239/239/239 238/238/238 237/237/237
f 240/240/240 239/239/239 237/237/237
f 243/243/243 242/242/242 241/241/241
f 244/244/244 243/243/243 241/241/241
f 247/247/247 246/246/246 245/245/245
f 248/248/248 247/247/247 245/245/245
f 74/74/74 73/73/73 249/249/249
f 250/250/250 74/74/74 249/249/249
f 76/76/76 75/75/75 251/251/251
f 252/252/252 76/76/76 251/251/251
f 78/78/78 77/77/77 253/253/253
f 254/254/254 78/78/78 253/253/253
f 80/80/80 79/79/79 255/255/255
f 256/256/256 80/80/80 255/255/255
f 259/259/259 258/258/258 257/257/257
f 260/260/260 259/259/259 257/257/257
f 263/263/263 262/262/262 261/261/261
f 264/264/264 263/263/263 261/261/261
f 267/267/267 266/266/266 265/265/265
f 268/268/268 267/267/267 265/265/265
f 271/271/271 270/270/270 269/269/269
f 272/272/272 271/271/271 269/269/269
f 276/276/276 275/275/275 273/273/273
f 275/275/275 274/274/274 273/273/273
f 273/273/273 274/274/274 277/277/277
f 274/274/274 278/278/278 277/277/277
f 280/280/280 279/279/279 277/277/277
f 281/281/281 280/280/280 277/277/277
f 284/284/284 283/283/283 282/282/282
f 285/285/285 284/284/284 282/282/282
f 284/284/284 285/285/285 286/286/286
f 285/285/285 287/287/287 286/286/286
f 286/286/286 289/289/289 288/288/288
f 290/290/290 286/286/286 288/288/288
