v 0.003417026355243518 0.3778592417714149 0.10187796580333316
v 0.0034170302902875255 0.446664027089814 0.10187795724655847
v 0.0034170309497582423 0.4466640008028596 -0.10831499898957406
v 0.0034170270147142346 0.3778592154844605 -0.10831499043279937
v 0.05429510208680333 0.4466640306098674 0.12546741364871292
v 0.05429510289429569 0.4466639984226691 -0.13190444771021562
v 0.054295098959251685 0.37785921310426995 -0.1319044391534409
v 0.054295098981481084 0.37785925044243746 0.12546742394802365
v 0.18572028375909466 0.44666403208207883 0.12546741394697744
v 0.185720284566587 0.4466639998948805 -0.1319044474119511
v 0.185720280631543 0.37785921457648136 -0.1319044388551764
v 0.18572027982405065 0.3778592467636797 0.12546742250375215
v 0.25236023721989104 0.4466640278966069 0.08603095172252795
v 0.25236023328484697 0.3778592425782106 0.08603098263104604
v 0.2523602377799234 0.4466640055733347 -0.09246802958851466
v 0.2523602338448794 0.3778592202549365 -0.09246801358115883
v 0.052267474166958997 0.3644925754840528 0.14521828859640962
v 0.07330276933839648 0.33844390991007783 0.14521829188364063
v 0.061662150785132486 0.3188300453187238 0.1254674014370313
v 0.03515978726611399 0.35164872282024573 0.12546739561935738
v 0.05226747981960406 0.46332985290318446 0.14521830610702635
v 0.07330278542113886 0.48937845934377255 0.1452183029152804
v 0.061662164524063326 0.5089924421551771 0.12546740591407923
v 0.03515979811316526 0.4761737002435788 0.12546740993537275
v 0.18391580815702607 0.3644925769587639 0.14521828889518057
v 0.16288051000606774 0.3384439109135185 0.14521829208693393
v 0.17452113102708514 0.3188300423712932 0.12546740001706494
v 0.20102366507602695 0.3516487246782359 0.12546739599577922
v 0.18391581380967115 0.4633298543778956 0.1452183064057973
v 0.16288051863823025 0.48937846034721316 0.14521830311857373
v 0.17452114190274454 0.5089924434194117 0.12546740617020846
v 0.20102367398265247 0.47617370606689213 0.1254674113735962
v -0.0034170580796998576 0.3778592224496981 0.10187797280119044
v -0.0034170540929049815 0.44666400762302644 0.10187796277685683
v -0.0034170536193130216 0.4466639544463695 -0.10831499811458073
v -0.0034170576061078976 0.3778591692730412 -0.10831498809024712
v -0.05429513846259861 0.44666401354908924 0.12546741901629005
v -0.054295137882706464 0.4466639484366544 -0.131904448042851
v -0.054295141869501344 0.3778591632633261 -0.13190443801851737
v -0.054295142449393485 0.3778592283757609 0.1254674290406237
v -0.18572035228469377 0.44666401344104395 0.12546741754465152
v -0.18572035170480164 0.4466639483286091 -0.13190444951448954
v -0.1857203556915965 0.3778591631552808 -0.13190443949015593
v -0.18572035627148864 0.3778592282677156 0.12546742756898513
v -0.25236032183466206 0.4466640034092394 0.08603095354933205
v -0.25236032582145695 0.37785921823591667 0.08603098592540956
v -0.2523603214324807 0.4466639582508323 -0.09246803171506475
v -0.2523603250967443 0.377859172742481 -0.09246801414398072
v -0.05226751961402757 0.3644925611476099 0.1452182961813912
v -0.07330282293032461 0.3384438953756286 0.14521829974094003
v -0.06166220382307474 0.3188300293779791 0.12546740975628845
v -0.0351598299005332 0.3516487061898808 0.12546740327124048
v -0.05226751388704296 0.4633298383583529 0.1452183115838772
v -0.07330282163521978 0.48937844449109047 0.14521830755324988
v -0.06166219552583924 0.5089924248744014 0.1254674098530219
v -0.035159826410402405 0.47617368335066407 0.12546741493122404
v -0.183915885808487 0.36449256103938116 0.1452182947072539
v -0.16288058551089535 0.33844389530198626 0.14521829873788983
v -0.17452121153126632 0.31883002413444334 0.12546740649216867
v -0.20102374828479477 0.35164870605352333 0.1254674014139733
v -0.1839158800815024 0.46332983825012414 0.14521831010973993
v -0.1628805767652088 0.48937844441744816 0.14521830655019977
v -0.17452120051257805 0.5089924247816195 0.12546740858927916
v -0.20102374106937312 0.4761736832143066 0.12546741307395692
v -0.2318077878860607 0.4466639996979026 0.0712942553161821
v -0.1761712993055166 0.4466640080732746 0.1042190452448049
v -0.23180779077276784 0.37785917567604743 -0.0777313004022633
v -0.17617130280817 0.37785916853875073 -0.11065606697645759
v -0.06644676499134283 0.3778591686289558 -0.11065606574781314
v -0.023969575728118732 0.3778591736463583 -0.09096166060660445
v -0.06644676547548431 0.37785922299015134 0.10421905649778297
v -0.023969576123512103 0.3778592180425884 0.08452464485727268
v -0.02396957213671723 0.4466640032159167 0.08452463483293905
v -0.02396957174132386 0.4466639588196866 -0.09096167063093807
v -0.23180778755028678 0.44666396199596553 -0.07773131812047675
v -0.1761712988213751 0.44666395371207906 -0.11065607700079122
v -0.06644676100454797 0.44666395380228413 -0.11065607577214677
v -0.06644676148868943 0.4466640081634797 0.10421904647344934
v -0.2318077918728556 0.37785921452457805 0.07129428024167832
v -0.17617130329231148 0.3778592228999463 0.10421905526913852
v 0.17617122929534518 0.37785924399936827 0.10421905054591249
v 0.2318077342456543 0.3778592405049937 0.07129426209575683
v 0.1761712332303892 0.4466640293177674 0.10421904198913778
v 0.2318077381806983 0.4466640258233928 0.07129425353898212
v 0.23180773864825915 0.44666400718609667 -0.07773131659709283
v 0.17617123390454997 0.44666400244525695 -0.11065607549745388
v 0.17617122996950596 0.3778592171268578 -0.11065606694067917
v 0.23180773471321514 0.37785922186769755 -0.07773130804031812
v 0.06644674528075312 0.4466640012161345 -0.11065607574646949
v 0.02396954953851362 0.4466640032033124 -0.09096167161348816
v 0.023969552713223367 0.44666402514981574 0.08452462996375891
v 0.06644673715601247 0.44666402808864486 0.10421904174012216
v 0.06644674134570912 0.37785921589773536 -0.11065606718969478
v 0.02396954560346961 0.3778592178849133 -0.09096166305671345
v 0.06644673394726452 0.37785924642620516 0.10421905133132017
v 0.02396954877817936 0.3778592398314166 0.08452463852053362
v 0.0034170309497582423 0.4466640008028596 -0.10831499898957406
v 0.0034170270147142346 0.3778592154844605 -0.10831499043279937
v 0.0034170302902875255 0.446664027089814 0.10187795724655847
v 0.003417026355243518 0.3778592417714149 0.10187796580333316
v 0.185720280631543 0.37785921457648136 -0.1319044388551764
v 0.185720284566587 0.4466639998948805 -0.1319044474119511
v 0.05429510289429569 0.4466639984226691 -0.13190444771021562
v 0.054295098959251685 0.37785921310426995 -0.1319044391534409
v 0.2523602338448794 0.3778592202549365 -0.09246801358115883
v 0.25236023328484697 0.3778592425782106 0.08603098263104604
v 0.25236023721989104 0.4466640278966069 0.08603095172252795
v 0.2523602377799234 0.4466640055733347 -0.09246802958851466
v 0.03515978726611399 0.35164872282024573 0.12546739561935738
v 0.052267474166958997 0.3644925754840528 0.14521828859640962
v 0.07330278542113886 0.48937845934377255 0.1452183029152804
v 0.05226747981960406 0.46332985290318446 0.14521830610702635
v 0.03515979811316526 0.4761737002435788 0.12546740993537275
v 0.061662164524063326 0.5089924421551771 0.12546740591407923
v 0.07330276933839648 0.33844390991007783 0.14521829188364063
v 0.061662150785132486 0.3188300453187238 0.1254674014370313
v 0.16288051000606774 0.3384439109135185 0.14521829208693393
v 0.17452113102708514 0.3188300423712932 0.12546740001706494
v 0.18391580815702607 0.3644925769587639 0.14521828889518057
v 0.20102366507602695 0.3516487246782359 0.12546739599577922
v 0.03515979811316526 0.4761737002435788 0.12546740993537275
v 0.20102367398265247 0.47617370606689213 0.1254674113735962
v 0.17452114190274454 0.5089924434194117 0.12546740617020846
v 0.061662164524063326 0.5089924421551771 0.12546740591407923
v 0.16288051863823025 0.48937846034721316 0.14521830311857373
v 0.17452114190274454 0.5089924434194117 0.12546740617020846
v 0.20102367398265247 0.47617370606689213 0.1254674113735962
v 0.18391581380967115 0.4633298543778956 0.1452183064057973
v 0.20102366507602695 0.3516487246782359 0.12546739599577922
v 0.03515978726611399 0.35164872282024573 0.12546739561935738
v 0.061662150785132486 0.3188300453187238 0.1254674014370313
v 0.17452113102708514 0.3188300423712932 0.12546740001706494
v 0.05226747981960406 0.46332985290318446 0.14521830610702635
v 0.07330278542113886 0.48937845934377255 0.1452183029152804
v 0.16288051863823025 0.48937846034721316 0.14521830311857373
v 0.18391581380967115 0.4633298543778956 0.1452183064057973
v 0.052267474166958997 0.3644925754840528 0.14521828859640962
v 0.18391580815702607 0.3644925769587639 0.14521828889518057
v 0.07330276933839648 0.33844390991007783 0.14521829188364063
v 0.16288051000606774 0.3384439109135185 0.14521829208693393
v -0.0034170576061078976 0.3778591692730412 -0.10831498809024712
v -0.0034170536193130216 0.4466639544463695 -0.10831499811458073
v -0.0034170540929049815 0.44666400762302644 0.10187796277685683
v -0.0034170580796998576 0.3778592224496981 0.10187797280119044
v -0.1857203556915965 0.3778591631552808 -0.13190443949015593
v -0.054295141869501344 0.3778591632633261 -0.13190443801851737
v -0.054295137882706464 0.4466639484366544 -0.131904448042851
v -0.18572035170480164 0.4466639483286091 -0.13190444951448954
v -0.2523603250967443 0.377859172742481 -0.09246801414398072
v -0.2523603214324807 0.4466639582508323 -0.09246803171506475
v -0.25236032183466206 0.4466640034092394 0.08603095354933205
v -0.25236032582145695 0.37785921823591667 0.08603098592540956
v -0.05226751961402757 0.3644925611476099 0.1452182961813912
v -0.0351598299005332 0.3516487061898808 0.12546740327124048
v -0.07330282163521978 0.48937844449109047 0.14521830755324988
v -0.06166219552583924 0.5089924248744014 0.1254674098530219
v -0.035159826410402405 0.47617368335066407 0.12546741493122404
v -0.05226751388704296 0.4633298383583529 0.1452183115838772
v -0.07330282293032461 0.3384438953756286 0.14521829974094003
v -0.06166220382307474 0.3188300293779791 0.12546740975628845
v -0.16288058551089535 0.33844389530198626 0.14521829873788983
v -0.17452121153126632 0.31883002413444334 0.12546740649216867
v -0.183915885808487 0.36449256103938116 0.1452182947072539
v -0.20102374828479477 0.35164870605352333 0.1254674014139733
v -0.035159826410402405 0.47617368335066407 0.12546741493122404
v -0.06166219552583924 0.5089924248744014 0.1254674098530219
v -0.17452120051257805 0.5089924247816195 0.12546740858927916
v -0.20102374106937312 0.4761736832143066 0.12546741307395692
v -0.1628805767652088 0.48937844441744816 0.14521830655019977
v -0.1839158800815024 0.46332983825012414 0.14521831010973993
v -0.20102374106937312 0.4761736832143066 0.12546741307395692
v -0.17452120051257805 0.5089924247816195 0.12546740858927916
v -0.20102374828479477 0.35164870605352333 0.1254674014139733
v -0.0351598299005332 0.3516487061898808 0.12546740327124048
v -0.17452121153126632 0.31883002413444334 0.12546740649216867
v -0.06166220382307474 0.3188300293779791 0.12546740975628845
v -0.05226751388704296 0.4633298383583529 0.1452183115838772
v -0.1839158800815024 0.46332983825012414 0.14521831010973993
v -0.1628805767652088 0.48937844441744816 0.14521830655019977
v -0.07330282163521978 0.48937844449109047 0.14521830755324988
v -0.05226751961402757 0.3644925611476099 0.1452182961813912
v -0.183915885808487 0.36449256103938116 0.1452182947072539
v -0.07330282293032461 0.3384438953756286 0.14521829974094003
v -0.16288058551089535 0.33844389530198626 0.14521829873788983
v -0.25236032183466206 0.4466640034092394 0.08603095354933205
v -0.18572035228469377 0.44666401344104395 0.12546741754465152
v -0.2523603250967443 0.377859172742481 -0.09246801414398072
v -0.1857203556915965 0.3778591631552808 -0.13190443949015593
v -0.054295141869501344 0.3778591632633261 -0.13190443801851737
v -0.0034170576061078976 0.3778591692730412 -0.10831498809024712
v -0.0034170580796998576 0.3778592224496981 0.10187797280119044
v -0.054295142449393485 0.3778592283757609 0.1254674290406237
v -0.0034170576061078976 0.3778591692730412 -0.10831498809024712
v -0.023969575728118732 0.3778591736463583 -0.09096166060660445
v -0.023969576123512103 0.3778592180425884 0.08452464485727268
v -0.0034170580796998576 0.3778592224496981 0.10187797280119044
v -0.0034170540929049815 0.44666400762302644 0.10187796277685683
v -0.0034170536193130216 0.4466639544463695 -0.10831499811458073
v -0.18572035170480164 0.4466639483286091 -0.13190444951448954
v -0.2523603214324807 0.4466639582508323 -0.09246803171506475
v -0.0034170536193130216 0.4466639544463695 -0.10831499811458073
v -0.02396957174132386 0.4466639588196866 -0.09096167063093807
v -0.054295137882706464 0.4466639484366544 -0.131904448042851
v -0.05429513846259861 0.44666401354908924 0.12546741901629005
v -0.02396957213671723 0.4466640032159167 0.08452463483293905
v -0.0034170540929049815 0.44666400762302644 0.10187796277685683
v -0.1857203556915965 0.3778591631552808 -0.13190443949015593
v -0.17617130280817 0.37785916853875073 -0.11065606697645759
v -0.06644676499134283 0.3778591686289558 -0.11065606574781314
v -0.054295141869501344 0.3778591632633261 -0.13190443801851737
v -0.054295137882706464 0.4466639484366544 -0.131904448042851
v -0.06644676100454797 0.44666395380228413 -0.11065607577214677
v -0.1761712988213751 0.44666395371207906 -0.11065607700079122
v -0.18572035170480164 0.4466639483286091 -0.13190444951448954
v -0.18572035627148864 0.3778592282677156 0.12546742756898513
v -0.25236032582145695 0.37785921823591667 0.08603098592540956
v -0.2523603214324807 0.4466639582508323 -0.09246803171506475
v -0.23180778755028678 0.44666396199596553 -0.07773131812047675
v -0.2318077878860607 0.4466639996979026 0.0712942553161821
v -0.25236032183466206 0.4466640034092394 0.08603095354933205
v -0.25236032582145695 0.37785921823591667 0.08603098592540956
v -0.2318077918728556 0.37785921452457805 0.07129428024167832
v -0.23180779077276784 0.37785917567604743 -0.0777313004022633
v -0.2523603250967443 0.377859172742481 -0.09246801414398072
v 0.25236023328484697 0.3778592425782106 0.08603098263104604
v 0.18572027982405065 0.3778592467636797 0.12546742250375215
v 0.18572028375909466 0.44666403208207883 0.12546741394697744
v 0.25236023721989104 0.4466640278966069 0.08603095172252795
v 0.2523602377799234 0.4466640055733347 -0.09246802958851466
v 0.185720284566587 0.4466639998948805 -0.1319044474119511
v 0.185720280631543 0.37785921457648136 -0.1319044388551764
v 0.2523602338448794 0.3778592202549365 -0.09246801358115883
v 0.05429510289429569 0.4466639984226691 -0.13190444771021562
v 0.0034170309497582423 0.4466640008028596 -0.10831499898957406
v 0.0034170302902875255 0.446664027089814 0.10187795724655847
v 0.05429510208680333 0.4466640306098674 0.12546741364871292
v 0.0034170270147142346 0.3778592154844605 -0.10831499043279937
v 0.054295098959251685 0.37785921310426995 -0.1319044391534409
v 0.054295098981481084 0.37785925044243746 0.12546742394802365
v 0.003417026355243518 0.3778592417714149 0.10187796580333316
v 0.185720284566587 0.4466639998948805 -0.1319044474119511
v 0.17617123390454997 0.44666400244525695 -0.11065607549745388
v 0.06644674528075312 0.4466640012161345 -0.11065607574646949
v 0.05429510289429569 0.4466639984226691 -0.13190444771021562
v 0.054295098959251685 0.37785921310426995 -0.1319044391534409
v 0.06644674134570912 0.37785921589773536 -0.11065606718969478
v 0.17617122996950596 0.3778592171268578 -0.11065606694067917
v 0.185720280631543 0.37785921457648136 -0.1319044388551764
v 0.25236023721989104 0.4466640278966069 0.08603095172252795
v 0.2318077381806983 0.4466640258233928 0.07129425353898212
v 0.23180773864825915 0.44666400718609667 -0.07773131659709283
v 0.2523602377799234 0.4466640055733347 -0.09246802958851466
v 0.2523602338448794 0.3778592202549365 -0.09246801358115883
v 0.23180773471321514 0.37785922186769755 -0.07773130804031812
v 0.2318077342456543 0.3778592405049937 0.07129426209575683
v 0.25236023328484697 0.3778592425782106 0.08603098263104604
v 0.003417026355243518 0.3778592417714149 0.10187796580333316
v 0.02396954877817936 0.3778592398314166 0.08452463852053362
v 0.02396954560346961 0.3778592178849133 -0.09096166305671345
v 0.0034170270147142346 0.3778592154844605 -0.10831499043279937
v 0.0034170309497582423 0.4466640008028596 -0.10831499898957406
v 0.02396954953851362 0.4466640032033124 -0.09096167161348816
v 0.023969552713223367 0.44666402514981574 0.08452462996375891
v 0.0034170302902875255 0.446664027089814 0.10187795724655847
v -0.1761712993055166 0.4466640080732746 0.1042190452448049
v -0.17617130329231148 0.3778592228999463 0.10421905526913852
v -0.06644676547548431 0.37785922299015134 0.10421905649778297
v -0.06644676148868943 0.4466640081634797 0.10421904647344934
v -0.06644676148868943 0.4466640081634797 0.10421904647344934
v -0.06644676547548431 0.37785922299015134 0.10421905649778297
v -0.023969576123512103 0.3778592180425884 0.08452464485727268
v -0.02396957213671723 0.4466640032159167 0.08452463483293905
v -0.02396957213671723 0.4466640032159167 0.08452463483293905
v -0.023969576123512103 0.3778592180425884 0.08452464485727268
v -0.023969575728118732 0.3778591736463583 -0.09096166060660445
v -0.02396957174132386 0.4466639588196866 -0.09096167063093807
v -0.02396957174132386 0.4466639588196866 -0.09096167063093807
v -0.023969575728118732 0.3778591736463583 -0.09096166060660445
v -0.06644676499134283 0.3778591686289558 -0.11065606574781314
v -0.06644676100454797 0.44666395380228413 -0.11065607577214677
v -0.06644676100454797 0.44666395380228413 -0.11065607577214677
v -0.06644676499134283 0.3778591686289558 -0.11065606574781314
v -0.17617130280817 0.37785916853875073 -0.11065606697645759
v -0.1761712988213751 0.44666395371207906 -0.11065607700079122
v -0.1761712988213751 0.44666395371207906 -0.11065607700079122
v -0.17617130280817 0.37785916853875073 -0.11065606697645759
v -0.23180779077276784 0.37785917567604743 -0.0777313004022633
v -0.23180778755028678 0.44666396199596553 -0.07773131812047675
v -0.23180778755028678 0.44666396199596553 -0.07773131812047675
v -0.23180779077276784 0.37785917567604743 -0.0777313004022633
v -0.2318077918728556 0.37785921452457805 0.07129428024167832
v -0.2318077878860607 0.4466639996979026 0.0712942553161821
v -0.2318077878860607 0.4466639996979026 0.0712942553161821
v -0.2318077918728556 0.37785921452457805 0.07129428024167832
v -0.17617130329231148 0.3778592228999463 0.10421905526913852
v -0.1761712993055166 0.4466640080732746 0.1042190452448049
v 0.2318077342456543 0.3778592405049937 0.07129426209575683
v 0.2318077381806983 0.4466640258233928 0.07129425353898212
v 0.1761712332303892 0.4466640293177674 0.10421904198913778
v 0.17617122929534518 0.37785924399936827 0.10421905054591249
v 0.17617122929534518 0.37785924399936827 0.10421905054591249
v 0.1761712332303892 0.4466640293177674 0.10421904198913778
v 0.06644673715601247 0.44666402808864486 0.10421904174012216
v 0.06644673394726452 0.37785924642620516 0.10421905133132017
v 0.06644673394726452 0.37785924642620516 0.10421905133132017
v 0.06644673715601247 0.44666402808864486 0.10421904174012216
v 0.023969552713223367 0.44666402514981574 0.08452462996375891
v 0.02396954877817936 0.3778592398314166 0.08452463852053362
v 0.02396954877817936 0.3778592398314166 0.08452463852053362
v 0.023969552713223367 0.44666402514981574 0.08452462996375891
v 0.02396954953851362 0.4466640032033124 -0.09096167161348816
v 0.02396954560346961 0.3778592178849133 -0.09096166305671345
v 0.02396954560346961 0.3778592178849133 -0.09096166305671345
v 0.02396954953851362 0.4466640032033124 -0.09096167161348816
v 0.06644674528075312 0.4466640012161345 -0.11065607574646949
v 0.06644674134570912 0.37785921589773536 -0.11065606718969478
v 0.06644674134570912 0.37785921589773536 -0.11065606718969478
v 0.06644674528075312 0.4466640012161345 -0.11065607574646949
v 0.17617123390454997 0.44666400244525695 -0.11065607549745388
v 0.17617122996950596 0.3778592171268578 -0.11065606694067917
v 0.17617122996950596 0.3778592171268578 -0.11065606694067917
v 0.17617123390454997 0.44666400244525695 -0.11065607549745388
v 0.23180773864825915 0.44666400718609667 -0.07773131659709283
v 0.23180773471321514 0.37785922186769755 -0.07773130804031812
v 0.23180773471321514 0.37785922186769755 -0.07773130804031812
v 0.23180773864825915 0.44666400718609667 -0.07773131659709283
v 0.2318077381806983 0.4466640258233928 0.07129425353898212
v 0.2318077342456543 0.3778592405049937 0.07129426209575683
vt 0.41796875 0.9375
vt 0.41796875 0.97021484375
vt 0.51806640625 0.97021484375
vt 0.51806640625 0.9375
vt 0.3935546875 0.97021484375
vt 0.54248046875 0.97021484375
vt 0.54248046875 0.9375
vt 0.3935546875 0.9375
vt 0.72802734375 0.97021484375
vt 0.60498046875 0.97021484375
vt 0.60498046875 0.9375
vt 0.72802734375 0.9375
vt 0.708984375 0.97021484375
vt 0.708984375 0.9375
vt 0.6240234375 0.97021484375
vt 0.6240234375 0.9375
vt 0.75830078125 0.916015625
vt 0.7685546875 0.90380859375
vt 0.7626953125 0.89404296875
vt 0.75 0.91015625
vt 0.75830078125 0.96435546875
vt 0.7685546875 0.97705078125
vt 0.7626953125 0.986328125
vt 0.75 0.97021484375
vt 0.822265625 0.916015625
vt 0.81201171875 0.90380859375
vt 0.81787109375 0.89404296875
vt 0.83056640625 0.91015625
vt 0.822265625 0.96435546875
vt 0.81201171875 0.97705078125
vt 0.81787109375 0.986328125
vt 0.83056640625 0.97021484375
vt 0.41796875 0.9375
vt 0.41796875 0.97021484375
vt 0.51806640625 0.97021484375
vt 0.51806640625 0.9375
vt 0.3935546875 0.97021484375
vt 0.54248046875 0.97021484375
vt 0.54248046875 0.9375
vt 0.3935546875 0.9375
vt 0.72802734375 0.97021484375
vt 0.60498046875 0.97021484375
vt 0.60498046875 0.9375
vt 0.72802734375 0.9375
vt 0.708984375 0.97021484375
vt 0.708984375 0.9375
vt 0.6240234375 0.97021484375
vt 0.6240234375 0.9375
vt 0.822265625 0.916015625
vt 0.81201171875 0.90380859375
vt 0.81787109375 0.89404296875
vt 0.83056640625 0.91015625
vt 0.822265625 0.96435546875
vt 0.81201171875 0.97705078125
vt 0.81787109375 0.986328125
vt 0.83056640625 0.97021484375
vt 0.75830078125 0.916015625
vt 0.7685546875 0.90380859375
vt 0.7626953125 0.89404296875
vt 0.75 0.91015625
vt 0.75830078125 0.96435546875
vt 0.7685546875 0.97705078125
vt 0.7626953125 0.986328125
vt 0.75 0.97021484375
vt 0.81640625 0.80419921875
vt 0.79150390625 0.81884765625
vt 0.81640625 0.73681640625
vt 0.79150390625 0.72216796875
vt 0.7421875 0.72216796875
vt 0.72265625 0.73095703125
vt 0.7421875 0.81884765625
vt 0.72265625 0.81005859375
vt 0.72265625 0.81005859375
vt 0.72265625 0.73095703125
vt 0.81640625 0.73681640625
vt 0.79150390625 0.72216796875
vt 0.7421875 0.72216796875
vt 0.7421875 0.81884765625
vt 0.81640625 0.80419921875
vt 0.79150390625 0.81884765625
vt 0.79150390625 0.81884765625
vt 0.81640625 0.80419921875
vt 0.79150390625 0.81884765625
vt 0.81640625 0.80419921875
vt 0.81640625 0.73681640625
vt 0.79150390625 0.72216796875
vt 0.79150390625 0.72216796875
vt 0.81640625 0.73681640625
vt 0.7421875 0.72216796875
vt 0.72265625 0.73095703125
vt 0.72265625 0.81005859375
vt 0.7421875 0.81884765625
vt 0.7421875 0.72216796875
vt 0.72265625 0.73095703125
vt 0.7421875 0.81884765625
vt 0.72265625 0.81005859375
vt 0.51806640625 0.97021484375
vt 0.51806640625 0.9375
vt 0.41796875 0.97021484375
vt 0.41796875 0.9375
vt 0.60498046875 0.9375
vt 0.60498046875 0.97021484375
vt 0.54248046875 0.97021484375
vt 0.54248046875 0.9375
vt 0.6240234375 0.9375
vt 0.708984375 0.9375
vt 0.708984375 0.97021484375
vt 0.6240234375 0.97021484375
vt 0.75 0.91015625
vt 0.75830078125 0.916015625
vt 0.7685546875 0.97705078125
vt 0.75830078125 0.96435546875
vt 0.75 0.97021484375
vt 0.7626953125 0.986328125
vt 0.7685546875 0.90380859375
vt 0.7626953125 0.89404296875
vt 0.81201171875 0.90380859375
vt 0.81787109375 0.89404296875
vt 0.822265625 0.916015625
vt 0.83056640625 0.91015625
vt 0.78125 0.6201171875
vt 0.78125 0.69482421875
vt 0.7958984375 0.6826171875
vt 0.7958984375 0.6318359375
vt 0.81201171875 0.97705078125
vt 0.81787109375 0.986328125
vt 0.83056640625 0.97021484375
vt 0.822265625 0.96435546875
vt 0.72509765625 0.69482421875
vt 0.72509765625 0.6201171875
vt 0.71044921875 0.6318359375
vt 0.71044921875 0.6826171875
vt 0.75830078125 0.96435546875
vt 0.7685546875 0.97705078125
vt 0.81201171875 0.97705078125
vt 0.822265625 0.96435546875
vt 0.75830078125 0.916015625
vt 0.822265625 0.916015625
vt 0.7685546875 0.90380859375
vt 0.81201171875 0.90380859375
vt 0.51806640625 0.9375
vt 0.51806640625 0.97021484375
vt 0.41796875 0.97021484375
vt 0.41796875 0.9375
vt 0.60498046875 0.9375
vt 0.54248046875 0.9375
vt 0.54248046875 0.97021484375
vt 0.60498046875 0.97021484375
vt 0.6240234375 0.9375
vt 0.6240234375 0.97021484375
vt 0.708984375 0.97021484375
vt 0.708984375 0.9375
vt 0.822265625 0.916015625
vt 0.83056640625 0.91015625
vt 0.81201171875 0.97705078125
vt 0.81787109375 0.986328125
vt 0.83056640625 0.97021484375
vt 0.822265625 0.96435546875
vt 0.81201171875 0.90380859375
vt 0.81787109375 0.89404296875
vt 0.7685546875 0.90380859375
vt 0.7626953125 0.89404296875
vt 0.75830078125 0.916015625
vt 0.75 0.91015625
vt 0.78125 0.69482421875
vt 0.7958984375 0.6826171875
vt 0.7958984375 0.6318359375
vt 0.78125 0.6201171875
vt 0.7685546875 0.97705078125
vt 0.75830078125 0.96435546875
vt 0.75 0.97021484375
vt 0.7626953125 0.986328125
vt 0.72509765625 0.6201171875
vt 0.72509765625 0.69482421875
vt 0.71044921875 0.6318359375
vt 0.71044921875 0.6826171875
vt 0.822265625 0.96435546875
vt 0.75830078125 0.96435546875
vt 0.7685546875 0.97705078125
vt 0.81201171875 0.97705078125
vt 0.822265625 0.916015625
vt 0.75830078125 0.916015625
vt 0.81201171875 0.90380859375
vt 0.7685546875 0.90380859375
vt 0.82568359375 0.810546875
vt 0.79541015625 0.82861328125
vt 0.82568359375 0.73046875
vt 0.79541015625 0.71240234375
vt 0.736328125 0.71240234375
vt 0.71337890625 0.72314453125
vt 0.71337890625 0.81787109375
vt 0.736328125 0.82861328125
vt 0.71337890625 0.72314453125
vt 0.72265625 0.73095703125
vt 0.72265625 0.81005859375
vt 0.71337890625 0.81787109375
vt 0.71337890625 0.81787109375
vt 0.71337890625 0.72314453125
vt 0.79541015625 0.71240234375
vt 0.82568359375 0.73046875
vt 0.71337890625 0.72314453125
vt 0.72265625 0.73095703125
vt 0.736328125 0.71240234375
vt 0.736328125 0.82861328125
vt 0.72265625 0.81005859375
vt 0.71337890625 0.81787109375
vt 0.79541015625 0.71240234375
vt 0.79150390625 0.72216796875
vt 0.7421875 0.72216796875
vt 0.736328125 0.71240234375
vt 0.736328125 0.71240234375
vt 0.7421875 0.72216796875
vt 0.79150390625 0.72216796875
vt 0.79541015625 0.71240234375
vt 0.79541015625 0.82861328125
vt 0.82568359375 0.810546875
vt 0.82568359375 0.73046875
vt 0.81640625 0.73681640625
vt 0.81640625 0.80419921875
vt 0.82568359375 0.810546875
vt 0.82568359375 0.810546875
vt 0.81640625 0.80419921875
vt 0.81640625 0.73681640625
vt 0.82568359375 0.73046875
vt 0.82568359375 0.810546875
vt 0.79541015625 0.82861328125
vt 0.79541015625 0.82861328125
vt 0.82568359375 0.810546875
vt 0.82568359375 0.73046875
vt 0.79541015625 0.71240234375
vt 0.79541015625 0.71240234375
vt 0.82568359375 0.73046875
vt 0.736328125 0.71240234375
vt 0.71337890625 0.72314453125
vt 0.71337890625 0.81787109375
vt 0.736328125 0.82861328125
vt 0.71337890625 0.72314453125
vt 0.736328125 0.71240234375
vt 0.736328125 0.82861328125
vt 0.71337890625 0.81787109375
vt 0.79541015625 0.71240234375
vt 0.79150390625 0.72216796875
vt 0.7421875 0.72216796875
vt 0.736328125 0.71240234375
vt 0.736328125 0.71240234375
vt 0.7421875 0.72216796875
vt 0.79150390625 0.72216796875
vt 0.79541015625 0.71240234375
vt 0.82568359375 0.810546875
vt 0.81640625 0.80419921875
vt 0.81640625 0.73681640625
vt 0.82568359375 0.73046875
vt 0.82568359375 0.73046875
vt 0.81640625 0.73681640625
vt 0.81640625 0.80419921875
vt 0.82568359375 0.810546875
vt 0.71337890625 0.81787109375
vt 0.72265625 0.81005859375
vt 0.72265625 0.73095703125
vt 0.71337890625 0.72314453125
vt 0.71337890625 0.72314453125
vt 0.72265625 0.73095703125
vt 0.72265625 0.81005859375
vt 0.71337890625 0.81787109375
vt 0.465576171875 0.9189453125
vt 0.465576171875 0.88623046875
vt 0.41357421875 0.88623046875
vt 0.41357421875 0.9189453125
vt 0.41357421875 0.9189453125
vt 0.41357421875 0.88623046875
vt 0.3935546875 0.88623046875
vt 0.3935546875 0.9189453125
vt 0.72216796875 0.9189453125
vt 0.72216796875 0.88623046875
vt 0.63916015625 0.88623046875
vt 0.63916015625 0.9189453125
vt 0.63916015625 0.9189453125
vt 0.63916015625 0.88623046875
vt 0.619140625 0.88623046875
vt 0.619140625 0.9189453125
vt 0.619140625 0.9189453125
vt 0.619140625 0.88623046875
vt 0.5673828125 0.88623046875
vt 0.5673828125 0.9189453125
vt 0.5673828125 0.9189453125
vt 0.5673828125 0.88623046875
vt 0.5517578125 0.88623046875
vt 0.5517578125 0.9189453125
vt 0.5517578125 0.9189453125
vt 0.5517578125 0.88623046875
vt 0.481201171875 0.88623046875
vt 0.481201171875 0.9189453125
vt 0.481201171875 0.9189453125
vt 0.481201171875 0.88623046875
vt 0.465576171875 0.88623046875
vt 0.465576171875 0.9189453125
vt 0.481201171875 0.88623046875
vt 0.481201171875 0.9189453125
vt 0.465576171875 0.9189453125
vt 0.465576171875 0.88623046875
vt 0.465576171875 0.88623046875
vt 0.465576171875 0.9189453125
vt 0.41357421875 0.9189453125
vt 0.41357421875 0.88623046875
vt 0.41357421875 0.88623046875
vt 0.41357421875 0.9189453125
vt 0.3935546875 0.9189453125
vt 0.3935546875 0.88623046875
vt 0.72216796875 0.88623046875
vt 0.72216796875 0.9189453125
vt 0.63916015625 0.9189453125
vt 0.63916015625 0.88623046875
vt 0.63916015625 0.88623046875
vt 0.63916015625 0.9189453125
vt 0.619140625 0.9189453125
vt 0.619140625 0.88623046875
vt 0.619140625 0.88623046875
vt 0.619140625 0.9189453125
vt 0.5673828125 0.9189453125
vt 0.5673828125 0.88623046875
vt 0.5673828125 0.88623046875
vt 0.5673828125 0.9189453125
vt 0.5517578125 0.9189453125
vt 0.5517578125 0.88623046875
vt 0.5517578125 0.88623046875
vt 0.5517578125 0.9189453125
vt 0.481201171875 0.9189453125
vt 0.481201171875 0.88623046875
vn -0.9999999028346055 -1.1201896409639629e-08 -2.269462256684481e-09
vn -0.9999999028346055 -1.1201896409639629e-08 -2.269462256684481e-09
vn -0.9999999028346055 -1.1201896409639629e-08 -2.269462256684481e-09
vn -0.9999999028346055 -1.1201896409639629e-08 -2.269462256684481e-09
vn -0.4206342912942932 1.0874729323483809e-07 0.9072303818421963
vn -0.4206342856015062 -1.1817109760157746e-07 -0.9072303837514237
vn -0.4206342856015062 -1.1817109760157746e-07 -0.9072303837514237
vn -0.4206342973133482 1.0903132985280866e-07 0.9072303943433608
vn 0.5092870667265768 1.1333212139037982e-07 0.8605967198076728
vn 0.5092868933128255 -1.0192218265847084e-07 -0.8605968963100046
vn 0.5092868933128255 -1.0192218265847084e-07 -0.8605968963100046
vn 0.5092870667265768 1.1333212139037982e-07 0.8605967198076728
vn 0.5092870667265768 1.1333212139037982e-07 0.8605967198076728
vn 0.5092870667265768 1.1333212139037982e-07 0.8605967198076728
vn 0.5092868933128255 -1.0192218265847084e-07 -0.8605968963100046
vn 0.5092868933128255 -1.0192218265847084e-07 -0.8605968963100046
vn -0.7558736683287667 7.34124457747332e-08 0.654717490713767
vn -0.5279373280470385 -0.42633000474454225 0.734523758597124
vn -0.5279373352042548 -0.4263300102850643 0.7345237683694112
vn -0.7558736683287667 7.34124457747332e-08 0.654717490713767
vn -0.7558736683287667 7.34124457747332e-08 0.654717490713767
vn 3.837010994556727e-08 0.7095626000354285 0.7046426754704124
vn 3.837010994556727e-08 0.7095626000354285 0.7046426754704124
vn -0.7558736683287667 7.34124457747332e-08 0.654717490713767
vn 0.5279356057432052 -0.42633026113758615 0.7345248338771044
vn -4.279177464538159e-08 -0.7095642119286448 0.7046409446086171
vn -4.279177464538159e-08 -0.7095642119286448 0.7046409446086171
vn 0.5279356057432052 -0.42633026113758615 0.7345248338771044
vn 0.755870624383876 9.034727527558394e-08 0.6547208916096102
vn 3.837010994556727e-08 0.7095626000354285 0.7046426754704124
vn 3.837010994556727e-08 0.7095626000354285 0.7046426754704124
vn 0.7558706309785794 9.045330384444187e-08 0.6547208971270965
vn 1.0000001474589637 8.221048368256832e-10 1.1197537471855163e-08
vn 1.0000001474589637 8.221048368256832e-10 1.1197537471855163e-08
vn 1.0000001474589637 8.221048368256832e-10 1.1197537471855163e-08
vn 1.0000001474589637 8.221048368256832e-10 1.1197537471855163e-08
vn 0.42063438930119496 2.298657648726985e-07 0.9072304076000076
vn 0.42063439338941017 -2.2917415383936233e-07 -0.9072303981798703
vn 0.42063439338941017 -2.2917415383936233e-07 -0.9072303981798703
vn 0.42063438930119496 2.298657648726985e-07 0.9072304076000076
vn -0.5092871959497299 2.1730343437742884e-07 0.8605967320094006
vn -0.509287013257697 -2.1814085427609594e-07 -0.8605969222288729
vn -0.509287013257697 -2.1814085427609594e-07 -0.8605969222288729
vn -0.5092871959497299 2.1730343437742884e-07 0.8605967320094006
vn -0.5092871959497299 2.1730343437742884e-07 0.8605967320094006
vn -0.5092871959497299 2.1730343437742884e-07 0.8605967320094006
vn -0.509287013257697 -2.1814085427609594e-07 -0.8605969222288729
vn -0.5092870125403449 -2.1798720707522864e-07 -0.8605969212925852
vn 0.7558738497045859 1.6625820170675483e-07 0.6547175153936501
vn 0.5279373445436882 -0.4263300227404148 0.7345237910682629
vn 0.5279373527858282 -0.4263300297547732 0.7345238028130241
vn 0.7558738497045859 1.6625820170675483e-07 0.6547175153936501
vn 0.7558738497045859 1.6625820170675483e-07 0.6547175153936501
vn 3.952693345811394e-08 0.7095626886833598 0.7046426759421953
vn 3.952693345811394e-08 0.7095626886833598 0.7046426759421953
vn 0.7558738497045859 1.6625820170675483e-07 0.6547175153936501
vn -0.5279357879341937 -0.42633014281751136 0.7345247925241595
vn -4.270233563108608e-08 -0.7095641202888123 0.7046409753493603
vn -4.270233563108608e-08 -0.7095641202888123 0.7046409753493603
vn -0.5279357879341937 -0.42633014281751136 0.7345247925241595
vn -0.7558709320268957 1.6501626379598844e-07 0.6547209555355558
vn 3.952693345811394e-08 0.7095626886833598 0.7046426759421953
vn 3.952693345811394e-08 0.7095626886833598 0.7046426759421953
vn -0.7558709320268957 1.6501626379598844e-07 0.6547209555355558
vn 5.794358203538321e-08 1.0000002102360643 -1.4569242101877583e-07
vn 5.794358203538321e-08 1.0000002102360643 -1.4569242101877583e-07
vn -5.794280614345089e-08 -1.0000002070950245 1.4567042286552873e-07
vn -5.794358203538321e-08 -1.0000002102360643 1.4569242101877583e-07
vn -5.794358203538321e-08 -1.0000002102360643 1.4569242101877583e-07
vn -5.794358203538321e-08 -1.0000002102360643 1.4569242101877583e-07
vn -5.794358203538321e-08 -1.0000002102360643 1.4569242101877583e-07
vn -5.794358203538321e-08 -1.0000002102360643 1.4569242101877583e-07
vn 5.794358203538321e-08 1.0000002102360643 -1.4569242101877583e-07
vn 5.794358203538321e-08 1.0000002102360643 -1.4569242101877583e-07
vn 5.794358203538321e-08 1.0000002102360643 -1.4569242101877583e-07
vn 5.794358203538321e-08 1.0000002102360643 -1.4569242101877583e-07
vn 5.794358203538321e-08 1.0000002102360643 -1.4569242101877583e-07
vn 5.794358203538321e-08 1.0000002102360643 -1.4569242101877583e-07
vn -5.794358203538321e-08 -1.0000002102360643 1.4569242101877583e-07
vn -5.794358203538321e-08 -1.0000002102360643 1.4569242101877583e-07
vn -5.719144133224765e-08 -1.0000002123445058 1.2436310180144808e-07
vn -5.719144133224765e-08 -1.0000002123445058 1.2436310180144808e-07
vn 5.719144133224765e-08 1.0000002123445058 -1.2436310180144808e-07
vn 5.719144133224765e-08 1.0000002123445058 -1.2436310180144808e-07
vn 5.719144133224765e-08 1.0000002123445058 -1.2436310180144808e-07
vn 5.719144133224765e-08 1.0000002123445058 -1.2436310180144808e-07
vn -5.719144133224765e-08 -1.0000002123445058 1.2436310180144808e-07
vn -5.719144133224765e-08 -1.0000002123445058 1.2436310180144808e-07
vn 5.719144133224765e-08 1.0000002123445058 -1.2436310180144808e-07
vn 5.719144133224765e-08 1.0000002123445058 -1.2436310180144808e-07
vn 5.719144133224765e-08 1.0000002123445058 -1.2436310180144808e-07
vn 5.719144133224765e-08 1.0000002123445058 -1.2436310180144808e-07
vn -5.719144133224765e-08 -1.0000002123445058 1.2436310180144808e-07
vn -5.719144133224765e-08 -1.0000002123445058 1.2436310180144808e-07
vn -5.7192936298073165e-08 -1.0000002221192057 1.2440548162355046e-07
vn -5.719144133224765e-08 -1.0000002123445058 1.2436310180144808e-07
vn -0.4206342856015062 -1.1817109760157746e-07 -0.9072303837514237
vn -0.4206342856015062 -1.1817109760157746e-07 -0.9072303837514237
vn -0.4206342912942932 1.0874729323483809e-07 0.9072303818421963
vn -0.4206342912942932 1.0874729323483809e-07 0.9072303818421963
vn 3.137454156379073e-09 -1.2506107128262335e-07 -1.0000000718717044
vn 3.137454156379073e-09 -1.2506107128262335e-07 -1.0000000718717044
vn 3.137454156379073e-09 -1.2506107128262335e-07 -1.0000000718717044
vn 3.137454156379073e-09 -1.2506107128262335e-07 -1.0000000718717044
vn 0.9999999028346055 1.1201896409639629e-08 2.269462256684481e-09
vn 0.9999999028346055 1.1201896409639629e-08 2.269462256684481e-09
vn 0.9999999028346055 1.1201896409639629e-08 2.269462256684481e-09
vn 0.9999999028346055 1.1201896409639629e-08 2.269462256684481e-09
vn -0.5279373280470385 -0.42633000474454225 0.734523758597124
vn -0.5279373280470385 -0.42633000474454225 0.734523758597124
vn -0.5279367428404569 0.42632978920716563 0.7345241293949235
vn -0.5279367428404569 0.42632978920716563 0.7345241293949235
vn -0.5279367428404569 0.42632978920716563 0.7345241293949235
vn -0.5279367428404569 0.42632978920716563 0.7345241293949235
vn -4.279177464538159e-08 -0.7095642119286448 0.7046409446086171
vn -4.279167052763156e-08 -0.7095642212382558 0.7046409539961326
vn 0.5279356057432052 -0.42633026113758615 0.7345248338771044
vn 0.5279356057432052 -0.42633026113758615 0.7345248338771044
vn 0.755870624383876 9.034727527558394e-08 0.6547208916096102
vn 0.755870624383876 9.034727527558394e-08 0.6547208916096102
vn 3.137454156379073e-09 -1.2506107128262335e-07 -1.0000000718717044
vn 3.136219025474402e-09 -1.2523975337136254e-07 -1.0000000802845423
vn 3.137454156379073e-09 -1.2506107128262335e-07 -1.0000000718717044
vn 3.137454156379073e-09 -1.2506107128262335e-07 -1.0000000718717044
vn 0.5279351180663069 0.4263299202443979 0.7345253238841515
vn 0.5279351180663069 0.4263299202443979 0.7345253238841515
vn 0.527935122673144 0.4263299239401904 0.7345253300574762
vn 0.5279351180663069 0.4263299202443979 0.7345253238841515
vn 3.137454156379073e-09 -1.2506107128262335e-07 -1.0000000718717044
vn 3.137454156379073e-09 -1.2506107128262335e-07 -1.0000000718717044
vn 3.136419123061325e-09 -1.252108095667634e-07 -1.0000000851689752
vn 3.137454156379073e-09 -1.2506107128262335e-07 -1.0000000718717044
vn -3.137454156379073e-09 1.2506107128262335e-07 1.0000000718717044
vn -3.137454156379073e-09 1.2506107128262335e-07 1.0000000718717044
vn -3.137454156379073e-09 1.2506107128262335e-07 1.0000000718717044
vn -3.137454156379073e-09 1.2506107128262335e-07 1.0000000718717044
vn -3.137454156379073e-09 1.2506107128262335e-07 1.0000000718717044
vn -3.137454156379073e-09 1.2506107128262335e-07 1.0000000718717044
vn -3.137454156379073e-09 1.2506107128262335e-07 1.0000000718717044
vn -3.137454156379073e-09 1.2506107128262335e-07 1.0000000718717044
vn 0.42063439338941017 -2.2917415383936233e-07 -0.9072303981798703
vn 0.42063439338941017 -2.2917415383936233e-07 -0.9072303981798703
vn 0.42063438930119496 2.298657648726985e-07 0.9072304076000076
vn 0.42063438930119496 2.298657648726985e-07 0.9072304076000076
vn 2.253129706999625e-09 -2.529897369006281e-07 -1.0000000940194749
vn 2.253129706999625e-09 -2.529897369006281e-07 -1.0000000940194749
vn 2.253129706999625e-09 -2.529897369006281e-07 -1.0000000940194749
vn 2.253129706999625e-09 -2.529897369006281e-07 -1.0000000940194749
vn -1.0000001460526124 -8.373213528927723e-10 -1.1184449123358606e-08
vn -1.0000001474589637 -8.221048368256832e-10 -1.1197537471855163e-08
vn -1.0000001474589637 -8.221048368256832e-10 -1.1197537471855163e-08
vn -1.0000001474589637 -8.221048368256832e-10 -1.1197537471855163e-08
vn 0.5279373445436882 -0.4263300227404148 0.7345237910682629
vn 0.5279373445436882 -0.4263300227404148 0.7345237910682629
vn 0.5279369171126159 0.42632985882055086 0.7345241436794043
vn 0.5279369171126159 0.42632985882055086 0.7345241436794043
vn 0.5279369171126159 0.42632985882055086 0.7345241436794043
vn 0.5279369171126159 0.42632985882055086 0.7345241436794043
vn -4.270233563108608e-08 -0.7095641202888123 0.7046409753493603
vn -4.2702501648253106e-08 -0.7095641318575824 0.7046409866128137
vn -0.5279357879341937 -0.42633014281751136 0.7345247925241595
vn -0.5279357879341937 -0.42633014281751136 0.7345247925241595
vn -0.7558709320268957 1.6501626379598844e-07 0.6547209555355558
vn -0.7558709320268957 1.6501626379598844e-07 0.6547209555355558
vn 2.253129706999625e-09 -2.529897369006281e-07 -1.0000000940194749
vn 2.253129706999625e-09 -2.529897369006281e-07 -1.0000000940194749
vn 2.253129706999625e-09 -2.529897369006281e-07 -1.0000000940194749
vn 2.253129706999625e-09 -2.529897369006281e-07 -1.0000000940194749
vn -0.5279352020861402 0.4263300069644583 0.7345253239492243
vn -0.5279352020861402 0.4263300069644583 0.7345253239492243
vn -0.5279352020861402 0.4263300069644583 0.7345253239492243
vn -0.5279352020861402 0.4263300069644583 0.7345253239492243
vn 2.253129706999625e-09 -2.529897369006281e-07 -1.0000000940194749
vn 2.253129706999625e-09 -2.529897369006281e-07 -1.0000000940194749
vn 2.253129706999625e-09 -2.529897369006281e-07 -1.0000000940194749
vn 2.2547644478166083e-09 -2.5275326036012554e-07 -1.0000001100438498
vn -2.253129706999625e-09 2.529897369006281e-07 1.0000000940194749
vn -2.253129706999625e-09 2.529897369006281e-07 1.0000000940194749
vn -2.253129706999625e-09 2.529897369006281e-07 1.0000000940194749
vn -2.253129706999625e-09 2.529897369006281e-07 1.0000000940194749
vn -2.253129706999625e-09 2.529897369006281e-07 1.0000000940194749
vn -2.253129706999625e-09 2.529897369006281e-07 1.0000000940194749
vn -2.253129706999625e-09 2.529897369006281e-07 1.0000000940194749
vn -2.253129706999625e-09 2.529897369006281e-07 1.0000000940194749
vn 5.794358203538321e-08 1.0000002102360643 -1.4569242101877583e-07
vn 5.794358203538321e-08 1.0000002102360643 -1.4569242101877583e-07
vn -5.794247935506295e-08 -1.0000002091914173 1.4566115261332522e-07
vn -5.794358203538321e-08 -1.0000002102360643 1.4569242101877583e-07
vn -5.794358203538321e-08 -1.0000002102360643 1.4569242101877583e-07
vn -5.794358203538321e-08 -1.0000002102360643 1.4569242101877583e-07
vn -5.794358203538321e-08 -1.0000002102360643 1.4569242101877583e-07
vn -5.794358203538321e-08 -1.0000002102360643 1.4569242101877583e-07
vn -5.794358203538321e-08 -1.0000002102360643 1.4569242101877583e-07
vn -5.794358203538321e-08 -1.0000002102360643 1.4569242101877583e-07
vn -5.794358203538321e-08 -1.0000002102360643 1.4569242101877583e-07
vn -5.794358203538321e-08 -1.0000002102360643 1.4569242101877583e-07
vn 5.794358203538321e-08 1.0000002102360643 -1.4569242101877583e-07
vn 5.794358203538321e-08 1.0000002102360643 -1.4569242101877583e-07
vn 5.794358203538321e-08 1.0000002102360643 -1.4569242101877583e-07
vn 5.794358203538321e-08 1.0000002102360643 -1.4569242101877583e-07
vn 5.794358203538321e-08 1.0000002102360643 -1.4569242101877583e-07
vn 5.794358203538321e-08 1.0000002102360643 -1.4569242101877583e-07
vn 5.794358203538321e-08 1.0000002102360643 -1.4569242101877583e-07
vn 5.794358203538321e-08 1.0000002102360643 -1.4569242101877583e-07
vn 5.794358203538321e-08 1.0000002102360643 -1.4569242101877583e-07
vn 5.794358203538321e-08 1.0000002102360643 -1.4569242101877583e-07
vn -5.794358203538321e-08 -1.0000002102360643 1.4569242101877583e-07
vn -5.794358203538321e-08 -1.0000002102360643 1.4569242101877583e-07
vn -5.794358203538321e-08 -1.0000002102360643 1.4569242101877583e-07
vn -5.794358203538321e-08 -1.0000002102360643 1.4569242101877583e-07
vn 5.794358203538321e-08 1.0000002102360643 -1.4569242101877583e-07
vn 5.794358203538321e-08 1.0000002102360643 -1.4569242101877583e-07
vn 5.794358203538321e-08 1.0000002102360643 -1.4569242101877583e-07
vn 5.794358203538321e-08 1.0000002102360643 -1.4569242101877583e-07
vn -5.794358203538321e-08 -1.0000002102360643 1.4569242101877583e-07
vn -5.794358203538321e-08 -1.0000002102360643 1.4569242101877583e-07
vn 5.794358203538321e-08 1.0000002102360643 -1.4569242101877583e-07
vn 5.794358203538321e-08 1.0000002102360643 -1.4569242101877583e-07
vn 5.794358203538321e-08 1.0000002102360643 -1.4569242101877583e-07
vn 5.794358203538321e-08 1.0000002102360643 -1.4569242101877583e-07
vn -5.794358203538321e-08 -1.0000002102360643 1.4569242101877583e-07
vn -5.794358203538321e-08 -1.0000002102360643 1.4569242101877583e-07
vn -5.794280614345089e-08 -1.0000002070950245 1.4567042286552873e-07
vn -5.794247935506295e-08 -1.0000002091914173 1.4566115261332522e-07
vn -5.719144133224765e-08 -1.0000002123445058 1.2436310180144808e-07
vn -5.719144133224765e-08 -1.0000002123445058 1.2436310180144808e-07
vn 5.719144133224765e-08 1.0000002123445058 -1.2436310180144808e-07
vn 5.719144133224765e-08 1.0000002123445058 -1.2436310180144808e-07
vn 5.719144133224765e-08 1.0000002123445058 -1.2436310180144808e-07
vn 5.719144133224765e-08 1.0000002123445058 -1.2436310180144808e-07
vn -5.719144133224765e-08 -1.0000002123445058 1.2436310180144808e-07
vn -5.719144133224765e-08 -1.0000002123445058 1.2436310180144808e-07
vn 5.719144133224765e-08 1.0000002123445058 -1.2436310180144808e-07
vn 5.719144133224765e-08 1.0000002123445058 -1.2436310180144808e-07
vn 5.719144133224765e-08 1.0000002123445058 -1.2436310180144808e-07
vn 5.719144133224765e-08 1.0000002123445058 -1.2436310180144808e-07
vn -5.719144133224765e-08 -1.0000002123445058 1.2436310180144808e-07
vn -5.719144133224765e-08 -1.0000002123445058 1.2436310180144808e-07
vn -5.71932160940322e-08 -1.0000002260765437 1.2441341019224304e-07
vn -5.719144133224765e-08 -1.0000002123445058 1.2436310180144808e-07
vn 5.719144133224765e-08 1.0000002123445058 -1.2436310180144808e-07
vn 5.719144133224765e-08 1.0000002123445058 -1.2436310180144808e-07
vn 5.719144133224765e-08 1.0000002123445058 -1.2436310180144808e-07
vn 5.719144133224765e-08 1.0000002123445058 -1.2436310180144808e-07
vn -5.719144133224765e-08 -1.0000002123445058 1.2436310180144808e-07
vn -5.719144133224765e-08 -1.0000002123445058 1.2436310180144808e-07
vn -5.719144133224765e-08 -1.0000002123445058 1.2436310180144808e-07
vn -5.719144133224765e-08 -1.0000002123445058 1.2436310180144808e-07
vn 5.719144133224765e-08 1.0000002123445058 -1.2436310180144808e-07
vn 5.719144133224765e-08 1.0000002123445058 -1.2436310180144808e-07
vn 5.719144133224765e-08 1.0000002123445058 -1.2436310180144808e-07
vn 5.719144133224765e-08 1.0000002123445058 -1.2436310180144808e-07
vn -5.719144133224765e-08 -1.0000002123445058 1.2436310180144808e-07
vn -5.719144133224765e-08 -1.0000002123445058 1.2436310180144808e-07
vn -5.719144133224765e-08 -1.0000002123445058 1.2436310180144808e-07
vn -5.719144133224765e-08 -1.0000002123445058 1.2436310180144808e-07
vn -5.719144133224765e-08 -1.0000002123445058 1.2436310180144808e-07
vn -5.719144133224765e-08 -1.0000002123445058 1.2436310180144808e-07
vn -5.719144133224765e-08 -1.0000002123445058 1.2436310180144808e-07
vn -5.719144133224765e-08 -1.0000002123445058 1.2436310180144808e-07
vn 5.719144133224765e-08 1.0000002123445058 -1.2436310180144808e-07
vn 5.719144133224765e-08 1.0000002123445058 -1.2436310180144808e-07
vn 5.719144133224765e-08 1.0000002123445058 -1.2436310180144808e-07
vn 5.719144133224765e-08 1.0000002123445058 -1.2436310180144808e-07
vn 2.253129706999625e-09 -2.529897369006281e-07 -1.0000000940194749
vn 2.253129706999625e-09 -2.529897369006281e-07 -1.0000000940194749
vn 2.253129706999625e-09 -2.529897369006281e-07 -1.0000000940194749
vn 2.253129706999625e-09 -2.529897369006281e-07 -1.0000000940194749
vn -0.42063438930119496 -2.298657648726985e-07 -0.9072304076000076
vn -0.42063438930119496 -2.298657648726985e-07 -0.9072304076000076
vn -0.42063438930119496 -2.298657648726985e-07 -0.9072304076000076
vn -0.42063438930119496 -2.298657648726985e-07 -0.9072304076000076
vn -1.0000001474589637 -8.221048368256832e-10 -1.1197537471855163e-08
vn -1.0000001474589637 -8.221048368256832e-10 -1.1197537471855163e-08
vn -1.0000001474589637 -8.221048368256832e-10 -1.1197537471855163e-08
vn -1.0000001474589637 -8.221048368256832e-10 -1.1197537471855163e-08
vn -0.42063439338941017 2.2917415383936233e-07 0.9072303981798703
vn -0.42063439338941017 2.2917415383936233e-07 0.9072303981798703
vn -0.42063439338941017 2.2917415383936233e-07 0.9072303981798703
vn -0.42063439338941017 2.2917415383936233e-07 0.9072303981798703
vn -2.253129706999625e-09 2.529897369006281e-07 1.0000000940194749
vn -2.253129706999625e-09 2.529897369006281e-07 1.0000000940194749
vn -2.253129706999625e-09 2.529897369006281e-07 1.0000000940194749
vn -2.253129706999625e-09 2.529897369006281e-07 1.0000000940194749
vn 0.5092871324670043 2.181408242153717e-07 0.8605968030195734
vn 0.5092871324670043 2.181408242153717e-07 0.8605968030195734
vn 0.5092871307369332 2.1803273054571564e-07 0.8605968002901867
vn 0.5092871324670043 2.181408242153717e-07 0.8605968030195734
vn 1.0000001474589637 8.221048368256832e-10 1.1197537471855163e-08
vn 1.0000001440634596 8.328098872261425e-10 1.1188329591052606e-08
vn 1.0000001474589637 8.221048368256832e-10 1.1197537471855163e-08
vn 1.0000001474589637 8.221048368256832e-10 1.1197537471855163e-08
vn 0.5092873151590367 -2.1730340412069948e-07 -0.8605966128000985
vn 0.5092873151590367 -2.1730340412069948e-07 -0.8605966128000985
vn 0.5092873151590367 -2.1730340412069948e-07 -0.8605966128000985
vn 0.5092873151590367 -2.1730340412069948e-07 -0.8605966128000985
vn -0.5092871859358548 -1.1333212272574993e-07 -0.860596719807673
vn -0.5092871859358548 -1.1333212272574993e-07 -0.860596719807673
vn -0.5092871859358548 -1.1333212272574993e-07 -0.860596719807673
vn -0.5092871859358548 -1.1333212272574993e-07 -0.860596719807673
vn 3.137454156379073e-09 -1.2506107128262335e-07 -1.0000000718717044
vn 3.137454156379073e-09 -1.2506107128262335e-07 -1.0000000718717044
vn 3.137454156379073e-09 -1.2506107128262335e-07 -1.0000000718717044
vn 3.135697148449896e-09 -1.253152502623682e-07 -1.0000000816945969
vn 0.4206342360058386 -1.089865676026205e-07 -0.9072303907463607
vn 0.4206342316896542 -1.0874729390252315e-07 -0.9072303818421964
vn 0.4206342316896542 -1.0874729390252315e-07 -0.9072303818421964
vn 0.4206342316896542 -1.0874729390252315e-07 -0.9072303818421964
vn 0.9999999028346055 1.1201896409639629e-08 2.269462256684481e-09
vn 0.9999999028346055 1.1201896409639629e-08 2.269462256684481e-09
vn 0.9999999028346055 1.1201896409639629e-08 2.269462256684481e-09
vn 0.9999999028346055 1.1201896409639629e-08 2.269462256684481e-09
vn 0.4206341067875892 1.1817109559852229e-07 0.9072303837514233
vn 0.4206341067875892 1.1817109559852229e-07 0.9072303837514233
vn 0.4206341067875892 1.1817109559852229e-07 0.9072303837514233
vn 0.4206341067875892 1.1817109559852229e-07 0.9072303837514233
vn -3.137454156379073e-09 1.2506107128262335e-07 1.0000000718717044
vn -3.137454156379073e-09 1.2506107128262335e-07 1.0000000718717044
vn -3.137454156379073e-09 1.2506107128262335e-07 1.0000000718717044
vn -3.137454156379073e-09 1.2506107128262335e-07 1.0000000718717044
vn -0.5092869529174645 1.0192218199078578e-07 0.8605968963100044
vn -0.5092869529174645 1.0192218199078578e-07 0.8605968963100044
vn -0.5092869529174645 1.0192218199078578e-07 0.8605968963100044
vn -0.5092869529174645 1.0192218199078578e-07 0.8605968963100044
vn -0.9999999028346055 -1.1201896409639629e-08 -2.269462256684481e-09
vn -0.9999999028346055 -1.1201896409639629e-08 -2.269462256684481e-09
vn -0.9999999028346055 -1.1201896409639629e-08 -2.269462256684481e-09
vn -0.9999999028346055 -1.1201896409639629e-08 -2.269462256684481e-09
f 14/14/14 13/13/13 9/9/9
f 12/12/12 14/14/14 9/9/9
f 15/15/15 16/16/16 11/11/11
f 10/10/10 15/15/15 11/11/11
f 4/4/4 1/1/1 2/2/2
f 3/3/3 4/4/4 2/2/2
f 97/97/97 6/6/6 7/7/7
f 98/98/98 97/97/97 7/7/7
f 8/8/8 5/5/5 99/99/99
f 100/100/100 8/8/8 99/99/99
f 103/103/103 102/102/102 101/101/101
f 104/104/104 103/103/103 101/101/101
f 107/107/107 106/106/106 105/105/105
f 108/108/108 107/107/107 105/105/105
f 24/24/24 20/20/20 17/17/17
f 21/21/21 24/24/24 17/17/17
f 109/109/109 19/19/19 18/18/18
f 110/110/110 109/109/109 18/18/18
f 22/22/22 30/30/30 31/31/31
f 23/23/23 22/22/22 31/31/31
f 113/113/113 112/112/112 111/111/111
f 114/114/114 113/113/113 111/111/111
f 27/27/27 26/26/26 115/115/115
f 116/116/116 27/27/27 115/115/115
f 28/28/28 25/25/25 117/117/117
f 118/118/118 28/28/28 117/117/117
f 32/32/32 29/29/29 119/119/119
f 120/120/120 32/32/32 119/119/119
f 124/124/124 123/123/123 121/121/121
f 123/123/123 122/122/122 121/121/121
f 121/121/121 122/122/122 129/129/129
f 130/130/130 121/121/121 129/129/129
f 131/131/131 130/130/130 129/129/129
f 132/132/132 131/131/131 129/129/129
f 127/127/127 126/126/126 125/125/125
f 128/128/128 127/127/127 125/125/125
f 135/135/135 134/134/134 133/133/133
f 136/136/136 135/135/135 133/133/133
f 136/136/136 133/133/133 137/137/137
f 138/138/138 136/136/136 137/137/137
f 138/138/138 137/137/137 139/139/139
f 140/140/140 138/138/138 139/139/139
f 36/36/36 35/35/35 34/34/34
f 33/33/33 36/36/36 34/34/34
f 42/42/42 43/43/43 48/48/48
f 47/47/47 42/42/42 48/48/48
f 142/142/142 141/141/141 39/39/39
f 38/38/38 142/142/142 39/39/39
f 40/40/40 144/144/144 143/143/143
f 37/37/37 40/40/40 143/143/143
f 147/147/147 146/146/146 145/145/145
f 148/148/148 147/147/147 145/145/145
f 44/44/44 41/41/41 45/45/45
f 46/46/46 44/44/44 45/45/45
f 151/151/151 150/150/150 149/149/149
f 152/152/152 151/151/151 149/149/149
f 56/56/56 53/53/53 49/49/49
f 52/52/52 56/56/56 49/49/49
f 154/154/154 153/153/153 50/50/50
f 51/51/51 154/154/154 50/50/50
f 54/54/54 55/55/55 63/63/63
f 62/62/62 54/54/54 63/63/63
f 157/157/157 156/156/156 155/155/155
f 158/158/158 157/157/157 155/155/155
f 59/59/59 160/160/160 159/159/159
f 58/58/58 59/59/59 159/159/159
f 60/60/60 162/162/162 161/161/161
f 57/57/57 60/60/60 161/161/161
f 64/64/64 164/164/164 163/163/163
f 61/61/61 64/64/64 163/163/163
f 167/167/167 166/166/166 165/165/165
f 168/168/168 167/167/167 165/165/165
f 168/168/168 165/165/165 173/173/173
f 165/165/165 174/174/174 173/173/173
f 174/174/174 176/176/176 173/173/173
f 176/176/176 175/175/175 173/173/173
f 171/171/171 170/170/170 169/169/169
f 172/172/172 171/171/171 169/169/169
f 180/180/180 179/179/179 177/177/177
f 179/179/179 178/178/178 177/177/177
f 177/177/177 178/178/178 181/181/181
f 178/178/178 182/182/182 181/181/181
f 181/181/181 182/182/182 183/183/183
f 182/182/182 184/184/184 183/183/183
f 66/66/66 65/65/65 185/185/185
f 186/186/186 66/66/66 185/185/185
f 186/186/186 204/204/204 66/66/66
f 204/204/204 78/78/78 66/66/66
f 205/205/205 78/78/78 204/204/204
f 206/206/206 205/205/205 204/204/204
f 68/68/68 67/67/67 187/187/187
f 188/188/188 68/68/68 187/187/187
f 70/70/70 69/69/69 189/189/189
f 190/190/190 70/70/70 189/189/189
f 71/71/71 72/72/72 191/191/191
f 192/192/192 71/71/71 191/191/191
f 192/192/192 215/215/215 71/71/71
f 215/215/215 80/80/80 71/71/71
f 79/79/79 80/80/80 215/215/215
f 216/216/216 79/79/79 215/215/215
f 195/195/195 194/194/194 193/193/193
f 196/196/196 195/195/195 193/193/193
f 74/74/74 73/73/73 197/197/197
f 198/198/198 74/74/74 197/197/197
f 75/75/75 76/76/76 199/199/199
f 200/200/200 75/75/75 199/199/199
f 77/77/77 202/202/202 201/201/201
f 203/203/203 77/77/77 201/201/201
f 209/209/209 208/208/208 207/207/207
f 210/210/210 209/209/209 207/207/207
f 213/213/213 212/212/212 211/211/211
f 214/214/214 213/213/213 211/211/211
f 219/219/219 218/218/218 217/217/217
f 220/220/220 219/219/219 217/217/217
f 223/223/223 222/222/222 221/221/221
f 224/224/224 223/223/223 221/221/221
f 81/81/81 82/82/82 225/225/225
f 226/226/226 81/81/81 225/225/225
f 226/226/226 239/239/239 81/81/81
f 239/239/239 95/95/95 81/81/81
f 96/96/96 95/95/95 239/239/239
f 240/240/240 96/96/96 239/239/239
f 228/228/228 84/84/84 227/227/227
f 84/84/84 83/83/83 227/227/227
f 83/83/83 92/92/92 227/227/227
f 92/92/92 236/236/236 227/227/227
f 236/236/236 92/92/92 235/235/235
f 92/92/92 91/91/91 235/235/235
f 86/86/86 85/85/85 229/229/229
f 230/230/230 86/86/86 229/229/229
f 88/88/88 87/87/87 231/231/231
f 232/232/232 88/88/88 231/231/231
f 90/90/90 89/89/89 233/233/233
f 234/234/234 90/90/90 233/233/233
f 93/93/93 94/94/94 237/237/237
f 238/238/238 93/93/93 237/237/237
f 243/243/243 242/242/242 241/241/241
f 244/244/244 243/243/243 241/241/241
f 247/247/247 246/246/246 245/245/245
f 248/248/248 247/247/247 245/245/245
f 251/251/251 250/250/250 249/249/249
f 252/252/252 251/251/251 249/249/249
f 255/255/255 254/254/254 253/253/253
f 256/256/256 255/255/255 253/253/253
f 259/259/259 258/258/258 257/257/257
f 260/260/260 259/259/259 257/257/257
f 263/263/263 262/262/262 261/261/261
f 264/264/264 263/263/263 261/261/261
f 267/267/267 266/266/266 265/265/265
f 268/268/268 267/267/267 265/265/265
f 271/271/271 270/270/270 269/269/269
f 272/272/272 271/271/271 269/269/269
f 275/275/275 274/274/274 273/273/273
f 276/276/276 275/275/275 273/273/273
f 279/279/279 278/278/278 277/277/277
f 280/280/280 279/279/279 277/277/277
f 283/283/283 282/282/282 281/281/281
f 284/284/284 283/283/283 281/281/281
f 287/287/287 286/286/286 285/285/285
f 288/288/288 287/287/287 285/285/285
f 291/291/291 290/290/290 289/289/289
f 292/292/292 291/291/291 289/289/289
f 295/295/295 294/294/294 293/293/293
f 296/296/296 295/295/295 293/293/293
f 299/299/299 298/298/298 297/297/297
f 300/300/300 299/299/299 297/297/297
f 303/303/303 302/302/302 301/301/301
f 304/304/304 303/303/303 301/301/301
f 307/307/307 306/306/306 305/305/305
f 308/308/308 307/307/307 305/305/305
f 311/311/311 310/310/310 309/309/309
f 312/312/312 311/311/311 309/309/309
f 315/315/315 314/314/314 313/313/313
f 316/316/316 315/315/315 313/313/313
f 319/319/319 318/318/318 317/317/317
f 320/320/320 319/319/319 317/317/317
f 323/323/323 322/322/322 321/321/321
f 324/324/324 323/323/323 321/321/321
f 327/327/327 326/326/326 325/325/325
f 328/328/328 327/327/327 325/325/325
