v 0.21879877251795352 1.4879779703971145 -0.1793152225315311
v 0.21879877716995794 1.520088138768847 -0.2118468879867835
v 0.24945760681038856 1.5200876699592432 -0.17931522626838706
v 0.21879881965679956 1.487978125065267 0.16468972920477717
v -0.2187963415199559 1.4879780645918583 -0.17931516256810054
v -0.24945558972657766 1.5200882541897343 -0.17931515790278596
v -0.21879633686789632 1.5200882329637717 -0.21184642569197415
v -0.2187962943811037 1.487978219260031 0.16468983387169425
v -0.21879628081355693 1.520088416884717 0.19722108302259075
v -0.24945554258786076 1.5200879320212126 0.16468983853722324
v -0.24945543704943238 1.8920892181071038 0.16468970108393008
v -0.24945548418828048 1.8920890634389445 -0.17931526555354038
v -0.21879617062336723 1.9241987984599793 0.16468972714939287
v -0.21879617527526177 1.8920892261339204 0.19722096047067414
v 0.21879893876264764 1.8920891319391766 0.19722090050724359
v 0.21879883322435248 1.520088322689973 0.19722102305916017
v 0.21879894341454012 1.9241987042652289 0.1646896522848001
v 0.24945817672016826 1.8920891107132172 0.16468963271805745
v 0.249457712348819 1.892088956045141 -0.17931534882051803
v 0.24945807118187516 1.5200883014640205 0.1646897701711362
v 0.21879889627569 1.9241985495970628 -0.17931532925383253
v 0.2187988827082531 1.8920889480180505 -0.21184701053870006
v -0.2187962313296012 1.8920890422129752 -0.21184654824389076
v -0.21879621776221533 1.92419864379182 -0.1793152394880776
v 0.21879877251795352 1.4879779703971145 -0.1793152225315311
v 0.21879877716995794 1.520088138768847 -0.2118468879867835
v 0.24945760681038856 1.5200876699592432 -0.17931522626838706
v 0.21879877251795352 1.4879779703971145 -0.1793152225315311
v 0.21879881965679956 1.487978125065267 0.16468972920477717
v 0.21879877251795352 1.4879779703971145 -0.1793152225315311
v -0.2187963415199559 1.4879780645918583 -0.17931516256810054
v -0.2187963415199559 1.4879780645918583 -0.17931516256810054
v -0.2187962943811037 1.487978219260031 0.16468983387169425
v -0.2187963415199559 1.4879780645918583 -0.17931516256810054
v -0.21879633686789632 1.5200882329637717 -0.21184642569197415
v -0.24945558972657766 1.5200882541897343 -0.17931515790278596
v -0.2187962943811037 1.487978219260031 0.16468983387169425
v 0.21879881965679956 1.487978125065267 0.16468972920477717
v -0.2187962943811037 1.487978219260031 0.16468983387169425
v -0.24945554258786076 1.5200879320212126 0.16468983853722324
v -0.21879628081355693 1.520088416884717 0.19722108302259075
v -0.21879628081355693 1.520088416884717 0.19722108302259075
v -0.24945554258786076 1.5200879320212126 0.16468983853722324
v -0.24945554258786076 1.5200879320212126 0.16468983853722324
v -0.24945558972657766 1.5200882541897343 -0.17931515790278596
v -0.24945543704943238 1.8920892181071038 0.16468970108393008
v -0.24945543704943238 1.8920892181071038 0.16468970108393008
v -0.24945548418828048 1.8920890634389445 -0.17931526555354038
v -0.21879617062336723 1.9241987984599793 0.16468972714939287
v -0.21879617527526177 1.8920892261339204 0.19722096047067414
v -0.24945543704943238 1.8920892181071038 0.16468970108393008
v -0.21879617527526177 1.8920892261339204 0.19722096047067414
v -0.21879617062336723 1.9241987984599793 0.16468972714939287
v 0.21879883322435248 1.520088322689973 0.19722102305916017
v -0.21879628081355693 1.520088416884717 0.19722108302259075
v -0.21879617527526177 1.8920892261339204 0.19722096047067414
v 0.21879893876264764 1.8920891319391766 0.19722090050724359
v 0.21879893876264764 1.8920891319391766 0.19722090050724359
v 0.24945807118187516 1.5200883014640205 0.1646897701711362
v 0.21879883322435248 1.520088322689973 0.19722102305916017
v 0.21879894341454012 1.9241987042652289 0.1646896522848001
v 0.24945817672016826 1.8920891107132172 0.16468963271805745
v 0.21879893876264764 1.8920891319391766 0.19722090050724359
v 0.24945817672016826 1.8920891107132172 0.16468963271805745
v 0.21879894341454012 1.9241987042652289 0.1646896522848001
v 0.24945760681038856 1.5200876699592432 -0.17931522626838706
v 0.24945807118187516 1.5200883014640205 0.1646897701711362
v 0.24945817672016826 1.8920891107132172 0.16468963271805745
v 0.249457712348819 1.892088956045141 -0.17931534882051803
v 0.21879881965679956 1.487978125065267 0.16468972920477717
v 0.21879883322435248 1.520088322689973 0.19722102305916017
v 0.24945807118187516 1.5200883014640205 0.1646897701711362
v 0.249457712348819 1.892088956045141 -0.17931534882051803
v 0.21879889627569 1.9241985495970628 -0.17931532925383253
v 0.21879877716995794 1.520088138768847 -0.2118468879867835
v 0.24945760681038856 1.5200876699592432 -0.17931522626838706
v 0.249457712348819 1.892088956045141 -0.17931534882051803
v 0.2187988827082531 1.8920889480180505 -0.21184701053870006
v -0.21879633686789632 1.5200882329637717 -0.21184642569197415
v 0.21879877716995794 1.520088138768847 -0.2118468879867835
v 0.2187988827082531 1.8920889480180505 -0.21184701053870006
v -0.21879621776221533 1.92419864379182 -0.1793152394880776
v -0.2187962313296012 1.8920890422129752 -0.21184654824389076
v 0.2187988827082531 1.8920889480180505 -0.21184701053870006
v 0.21879889627569 1.9241985495970628 -0.17931532925383253
v -0.2187962313296012 1.8920890422129752 -0.21184654824389076
v -0.24945548418828048 1.8920890634389445 -0.17931526555354038
v -0.24945558972657766 1.5200882541897343 -0.17931515790278596
v -0.21879633686789632 1.5200882329637717 -0.21184642569197415
v -0.21879621776221533 1.92419864379182 -0.1793152394880776
v -0.24945548418828048 1.8920890634389445 -0.17931526555354038
v -0.2187962313296012 1.8920890422129752 -0.21184654824389076
v -0.21879617062336723 1.9241987984599793 0.16468972714939287
v -0.21879621776221533 1.92419864379182 -0.1793152394880776
v 0.21879889627569 1.9241985495970628 -0.17931532925383253
v 0.21879894341454012 1.9241987042652289 0.1646896522848001
vt 0.9407430291175842 0.7590692043304443
vt 0.9407432079315186 0.7440497875213623
vt 0.9554312229156494 0.744050145149231
vt 0.8800696730613708 0.03632998466491699
vt 0.7969611883163452 0.7590692043304443
vt 0.7587500810623169 0.05091738700866699
vt 0.7969611883163452 0.7440496683120728
vt 0.7969611883163452 0.34148716926574707
vt 0.79696124792099 0.35650643706321716
vt 0.871780514717102 0.050917208194732666
vt 0.7822732925415039 0.4787360727787018
vt 0.7587502002716064 0.17314600944519043
vt 0.8717806339263916 0.18773281574249268
vt 0.79696124792099 0.47873666882514954
vt 0.9407432079315186 0.47873666882514954
vt 0.9407432079315186 0.3565064072608948
vt 0.9407429695129395 0.4937592148780823
vt 0.9554312825202942 0.478736013174057
vt 0.9930999875068665 0.17314571142196655
vt 0.8800695538520813 0.050916969776153564
vt 0.9930999875068665 0.18773281574249268
vt 0.9407432079315186 0.6218183040618896
vt 0.7969611883163452 0.6218183040618896
vt 0.7587502002716064 0.18773281574249268
vt 0.9485222101211548 0.7568978071212769
vt 0.9407432079315186 0.7440497875213623
vt 0.993100106716156 0.05091679096221924
vt 0.993100106716156 0.03632998466491699
vt 0.9407430291175842 0.34148719906806946
vt 0.9407430291175842 0.22845643758773804
vt 0.7969611883163452 0.22845643758773804
vt 0.7587500810623169 0.03633010387420654
vt 0.8717803955078125 0.03633010387420654
vt 0.7891824245452881 0.7568976879119873
vt 0.7969611883163452 0.7440496683120728
vt 0.7822732329368591 0.7440497875213623
vt 0.7969611883163452 0.34148716926574707
vt 0.9407430291175842 0.34148719906806946
vt 0.7891825437545776 0.34365883469581604
vt 0.7822732925415039 0.3565062880516052
vt 0.79696124792099 0.35650643706321716
vt 0.79696124792099 0.35650643706321716
vt 0.7822732925415039 0.3565062880516052
vt 0.871780514717102 0.050917208194732666
vt 0.7587500810623169 0.05091738700866699
vt 0.871780514717102 0.17314600944519043
vt 0.871780514717102 0.17314600944519043
vt 0.7587502002716064 0.17314600944519043
vt 0.7891825437545776 0.4915834665298462
vt 0.79696124792099 0.47873666882514954
vt 0.7822732925415039 0.4787360727787018
vt 0.79696124792099 0.47873666882514954
vt 0.7969611883163452 0.4937592148780823
vt 0.9407432079315186 0.3565064072608948
vt 0.79696124792099 0.35650643706321716
vt 0.79696124792099 0.47873666882514954
vt 0.9407432079315186 0.47873666882514954
vt 0.9407432079315186 0.47873666882514954
vt 0.9554312825202942 0.3565063774585724
vt 0.9407432079315186 0.3565064072608948
vt 0.9485220909118652 0.4915834665298462
vt 0.9554312825202942 0.478736013174057
vt 0.9407432079315186 0.47873666882514954
vt 0.8800695538520813 0.17314571142196655
vt 0.8800695538520813 0.18773281574249268
vt 0.993100106716156 0.05091679096221924
vt 0.8800695538520813 0.050916969776153564
vt 0.8800695538520813 0.17314571142196655
vt 0.9930999875068665 0.17314571142196655
vt 0.94852215051651 0.34365877509117126
vt 0.9407432079315186 0.3565064072608948
vt 0.9554312825202942 0.3565063774585724
vt 0.9554312825202942 0.6218197345733643
vt 0.9485222697257996 0.6089721918106079
vt 0.9407432079315186 0.7440497875213623
vt 0.9554312229156494 0.744050145149231
vt 0.9554312825202942 0.6218197345733643
vt 0.9407432079315186 0.6218183040618896
vt 0.7969611883163452 0.7440496683120728
vt 0.9407432079315186 0.7440497875213623
vt 0.9407432079315186 0.6218183040618896
vt 0.7969611287117004 0.6067942380905151
vt 0.7969611883163452 0.6218183040618896
vt 0.9407432079315186 0.6218183040618896
vt 0.9407429099082947 0.6067942380905151
vt 0.7969611883163452 0.6218183040618896
vt 0.7822732329368591 0.6218197345733643
vt 0.7822732329368591 0.7440497875213623
vt 0.7969611883163452 0.7440496683120728
vt 0.7891824245452881 0.6089720726013184
vt 0.7822732329368591 0.6218197345733643
vt 0.7969611883163452 0.6218183040618896
vt 0.7969611883163452 0.4937592148780823
vt 0.7969611287117004 0.6067942380905151
vt 0.9407429099082947 0.6067942380905151
vt 0.9407429695129395 0.4937592148780823
vn -2.9817333213013003e-07 -0.7116999437834484 -0.7024829630972375
vn -2.9817333213013003e-07 -0.7116999437834484 -0.7024829630972375
vn 0.5976275590649616 -0.5706241187009946 -0.5632306750019181
vn 0.7232576786135444 -0.6905774677840268 2.1138303684315547e-07
vn -2.9817333213013003e-07 -0.7116999437834484 -0.7024829630972375
vn -0.7232556862682732 -0.6905796598067517 4.095991354153187e-07
vn -2.9817333213013003e-07 -0.7116999437834484 -0.7024829630972375
vn -2.8370418485140217e-07 -0.9999990272533923 4.4960988326289956e-07
vn -1.0565060888813008e-07 -0.7116974643530567 0.7024854508155124
vn -0.7232556862682732 -0.6905796598067517 4.095991354153187e-07
vn -0.7277352217082327 4.6501785014195896e-07 0.6858582157709644
vn -0.9999999657785219 2.152554669675843e-07 1.3702947449370837e-07
vn -0.7232529102406713 0.6905825937774648 -2.1138599495062213e-07
vn -0.7277352217082327 4.6501785014195896e-07 0.6858582157709644
vn 2.9817370920691833e-07 0.7117026259885946 0.7024801616775426
vn -1.0565060888813008e-07 -0.7116974643530567 0.7024854508155124
vn 2.9817370920691833e-07 0.7117026259885946 0.7024801616775426
vn 0.7277354096739082 1.5171985580353295e-07 0.6858580759332306
vn 0.7232556266636644 0.6905797790159381 -4.0959918084540035e-07
vn 0.7232576786135444 -0.6905774677840268 2.1138303684315547e-07
vn 0.7232556266636644 0.6905797790159381 -4.0959918084540035e-07
vn 0.5976302670293755 0.5706265735967303 -0.5632254064694103
vn -1.3702956579686706e-07 -4.4961028043452094e-07 -1.000000065901974
vn -0.7232529102406713 0.6905825937774648 -2.1138599495062213e-07
vn 0.5976275590649616 -0.5706241187009946 -0.5632306750019181
vn 0.5976275590649616 -0.5706241187009946 -0.5632306750019181
vn 0.7232576786135444 -0.6905774677840268 2.1138303684315547e-07
vn 0.7232576786135444 -0.6905774677840268 2.1138303684315547e-07
vn -2.8370418485140217e-07 -0.9999990272533923 4.4960988326289956e-07
vn -2.8370418485140217e-07 -0.9999990272533923 4.4960988326289956e-07
vn -2.8370418485140217e-07 -0.9999990272533923 4.4960988326289956e-07
vn -0.7232556862682732 -0.6905796598067517 4.095991354153187e-07
vn -0.7232556862682732 -0.6905796598067517 4.095991354153187e-07
vn -0.5976258914333472 -0.5706215368393515 -0.5632351603806044
vn -0.5976258914333472 -0.5706215368393515 -0.5632351603806044
vn -0.5976258914333472 -0.5706215368393515 -0.5632351603806044
vn -1.0565060888813008e-07 -0.7116974643530567 0.7024854508155124
vn -1.0565060888813008e-07 -0.7116974643530567 0.7024854508155124
vn -0.5976199554237015 -0.5706242490140888 0.5632386983036131
vn -0.5976199554237015 -0.5706242490140888 0.5632386983036131
vn -0.5976199554237015 -0.5706242490140888 0.5632386983036131
vn -0.7277352217082327 4.6501785014195896e-07 0.6858582157709644
vn -0.7277352217082327 4.6501785014195896e-07 0.6858582157709644
vn -0.9999999657785219 2.152554669675843e-07 1.3702947449370837e-07
vn -0.9999999657785219 2.152554669675843e-07 1.3702947449370837e-07
vn -0.9999999657785219 2.152554669675843e-07 1.3702947449370837e-07
vn -0.7232529102406713 0.6905825937774648 -2.1138599495062213e-07
vn -0.7232529102406713 0.6905825937774648 -2.1138599495062213e-07
vn -0.5976227906924201 0.5706270393256859 0.563232820767305
vn -0.5976227906924201 0.5706270393256859 0.563232820767305
vn -0.5976227906924201 0.5706270393256859 0.563232820767305
vn 2.9817370920691833e-07 0.7117026259885946 0.7024801616775426
vn 2.9817370920691833e-07 0.7117026259885946 0.7024801616775426
vn 1.3702956579686706e-07 4.4961028043452094e-07 1.000000065901974
vn 1.3702956579686706e-07 4.4961028043452094e-07 1.000000065901974
vn 1.3702956579686706e-07 4.4961028043452094e-07 1.000000065901974
vn 1.3702956579686706e-07 4.4961028043452094e-07 1.000000065901974
vn 0.7277354096739082 1.5171985580353295e-07 0.6858580759332306
vn 0.7277354096739082 1.5171985580353295e-07 0.6858580759332306
vn 0.7277354096739082 1.5171985580353295e-07 0.6858580759332306
vn 0.5976231496209777 0.5706270204607476 0.5632325377739716
vn 0.5976231496209777 0.5706270204607476 0.5632325377739716
vn 0.5976231496209777 0.5706270204607476 0.5632325377739716
vn 0.7232556266636644 0.6905797790159381 -4.0959918084540035e-07
vn 0.7232556266636644 0.6905797790159381 -4.0959918084540035e-07
vn 0.9999999657785219 -2.152554669675843e-07 -1.3702947449370837e-07
vn 0.9999999657785219 -2.152554669675843e-07 -1.3702947449370837e-07
vn 0.9999999657785219 -2.152554669675843e-07 -1.3702947449370837e-07
vn 0.9999999657785219 -2.152554669675843e-07 -1.3702947449370837e-07
vn 0.5976250312156212 -0.5706221221150103 0.5632354946816591
vn 0.5976250312156212 -0.5706221221150103 0.5632354946816591
vn 0.5976250312156212 -0.5706221221150103 0.5632354946816591
vn 0.5976302670293755 0.5706265735967303 -0.5632254064694103
vn 0.5976302670293755 0.5706265735967303 -0.5632254064694103
vn 0.7277441624059499 -4.6501548685803723e-07 -0.685848679028397
vn 0.7277441624059499 -4.6501548685803723e-07 -0.685848679028397
vn 0.7277441624059499 -4.6501548685803723e-07 -0.685848679028397
vn 0.7277441624059499 -4.6501548685803723e-07 -0.685848679028397
vn -1.3702956579686706e-07 -4.4961028043452094e-07 -1.000000065901974
vn -1.3702956579686706e-07 -4.4961028043452094e-07 -1.000000065901974
vn -1.3702956579686706e-07 -4.4961028043452094e-07 -1.000000065901974
vn 1.0565380192181923e-07 0.71170503413901 -0.7024778214238817
vn 1.0565380192181923e-07 0.71170503413901 -0.7024778214238817
vn 1.0565380192181923e-07 0.71170503413901 -0.7024778214238817
vn 1.0565380192181923e-07 0.71170503413901 -0.7024778214238817
vn -0.7277355884878118 -1.5171973691627284e-07 -0.6858578971192599
vn -0.7277355884878118 -1.5171973691627284e-07 -0.6858578971192599
vn -0.7277355884878118 -1.5171973691627284e-07 -0.6858578971192599
vn -0.7277355884878118 -1.5171973691627284e-07 -0.6858578971192599
vn -0.5976225874233305 0.5706274865286626 -0.5632324548473221
vn -0.5976225874233305 0.5706274865286626 -0.5632324548473221
vn -0.5976225874233305 0.5706274865286626 -0.5632324548473221
vn 2.8370418485140217e-07 0.9999990272533923 -4.4960988326289956e-07
vn 2.8370418485140217e-07 0.9999990272533923 -4.4960988326289956e-07
vn 2.8370418485140217e-07 0.9999990272533923 -4.4960988326289956e-07
vn 2.8370418485140217e-07 0.9999990272533923 -4.4960988326289956e-07
f 26/26/26 3/3/3 25/25/25
f 36/36/36 35/35/35 34/34/34
f 41/41/41 40/40/40 39/39/39
f 51/51/51 50/50/50 49/49/49
f 63/63/63 62/62/62 61/61/61
f 72/72/72 71/71/71 70/70/70
f 74/74/74 73/73/73 22/22/22
f 92/92/92 91/91/91 90/90/90
f 7/7/7 2/2/2 1/1/1
f 5/5/5 7/7/7 1/1/1
f 27/27/27 20/20/20 4/4/4
f 28/28/28 27/27/27 4/4/4
f 31/31/31 30/30/30 29/29/29
f 8/8/8 31/31/31 29/29/29
f 10/10/10 6/6/6 32/32/32
f 33/33/33 10/10/10 32/32/32
f 16/16/16 9/9/9 37/37/37
f 38/38/38 16/16/16 37/37/37
f 42/42/42 14/14/14 11/11/11
f 43/43/43 42/42/42 11/11/11
f 12/12/12 45/45/45 44/44/44
f 46/46/46 12/12/12 44/44/44
f 48/48/48 47/47/47 13/13/13
f 24/24/24 48/48/48 13/13/13
f 52/52/52 15/15/15 17/17/17
f 53/53/53 52/52/52 17/17/17
f 56/56/56 55/55/55 54/54/54
f 57/57/57 56/56/56 54/54/54
f 59/59/59 18/18/18 58/58/58
f 60/60/60 59/59/59 58/58/58
f 64/64/64 19/19/19 21/21/21
f 65/65/65 64/64/64 21/21/21
f 68/68/68 67/67/67 66/66/66
f 69/69/69 68/68/68 66/66/66
f 77/77/77 76/76/76 75/75/75
f 78/78/78 77/77/77 75/75/75
f 81/81/81 80/80/80 79/79/79
f 23/23/23 81/81/81 79/79/79
f 84/84/84 83/83/83 82/82/82
f 85/85/85 84/84/84 82/82/82
f 88/88/88 87/87/87 86/86/86
f 89/89/89 88/88/88 86/86/86
f 95/95/95 94/94/94 93/93/93
f 96/96/96 95/95/95 93/93/93