v -0.25067239326957824 1.479599782086547 -0.09145734144296881
v -0.25067245560435353 1.3133758419213772 -0.09145716631699614
v -0.22000970088218552 1.4795998917211446 -0.09145946387912073
v -0.2200097632170055 1.3133758323467304 -0.09145928875300109
v -0.22001170105223508 1.4795998562931463 -0.12035633939646445
v -0.22001176338705508 1.313375796918732 -0.1203561642703448
v -0.2506743934395831 1.4795998658677934 -0.1203542169604595
v -0.25067445577440306 1.313375806493379 -0.12035404183433986
v -0.2506573631079457 1.4796000483081821 0.12568655079565363
v -0.25065742544272096 1.3133761081430124 0.1256867259216263
v -0.21999467072055295 1.4796001579427798 0.12568442835950172
v -0.21999473305537295 1.3133760985683656 0.12568460348562135
v -0.21999667089627534 1.479600122514681 0.09678747088572964
v -0.21999673323109534 1.3133760631402667 0.09678764601184929
v -0.25065936328362337 1.479600132089328 0.09678959332173459
v -0.25065942561844334 1.3133760727149137 0.09678976844785424
v -0.4351661290811698 1.2827134022785853 0.12569953520173266
v -0.21999474456192727 1.2827133350896214 0.1256845220786977
v -0.4351661175828669 1.3133761657571832 0.12569949739930597
v -0.21999473305537295 1.3133760985683656 0.12568460348562135
v -0.4351681177560107 1.31337613032913 0.09680257717845589
v -0.2199967332285168 1.3133760631403124 0.09678768326477127
v -0.43516812925431364 1.2827133668505322 0.09680261498088255
v -0.2199967447268197 1.2827132996617145 0.09678772106719793
v -0.4351811592397081 1.282713136057005 -0.09144431233338343
v -0.22000977472046554 1.2827130688680413 -0.0914593254564184
v -0.43518114774140515 1.3133758995356029 -0.09144435013581009
v -0.22000976321391125 1.3133758323467852 -0.09145924404949471
v -0.4351831479135176 1.313375864107568 -0.12034125545549139
v -0.2200117633886022 1.3133757969187045 -0.120356186622098
v -0.4351831594118205 1.28271310062897 -0.12034121765306473
v -0.22001177488690513 1.2827130334401067 -0.12035614881967134
v -0.41360491742573424 1.313376125591155 0.09842851575640135
v -0.2226966519859086 1.313376065978571 0.09841521935125122
v -0.4136048658870839 1.450818066529792 0.09842833141065863
v -0.2226966004415854 1.4508180069173084 0.09841511696193689
v -0.4136181150346859 1.4508178318543559 -0.09298487820544256
v -0.22270984958918735 1.4508177722418722 -0.0929980926541643
v -0.41361816657591477 1.313375890915673 -0.09298473111262182
v -0.22270990113041628 1.3133758313031894 -0.09299794556134357
v -0.4158920840861738 1.3133761307599978 0.1020620558782779
v -0.22269640049171738 1.31337607043316 0.10204860859128047
v -0.415892024459063 1.472386361906389 0.10206185239276645
v -0.22269634085944953 1.4723863015796426 0.102048479611613
v -0.41590589535503286 1.472386116218239 -0.09833388608070322
v -0.22271021175799793 1.472386055891447 -0.09834729611477866
v -0.41590595498472216 1.3133758850718023 -0.09833371984811377
v -0.22271027138510868 1.3133758247450558 -0.09834709262926723
v -0.41270882593709446 1.282713359837407 0.09680102312103271
v -0.4127218857253336 1.2827131290438798 -0.09144591164175478
v -0.41270881443879154 1.3133761233160048 0.09680098531860605
v -0.4127218444247017 1.3133758925224686 -0.09144594944624433
v -0.43516811775858927 1.3133761303290843 0.0968025399255339
v -0.43518114774449945 1.313375899535548 -0.09144439483931648
v -0.4351681292568922 1.2827133668504864 0.09680257772796057
v -0.4351811592428024 1.2827131360569501 -0.09144435703688981
v 0.2506638574573224 1.4796006310803824 -0.09145142485415486
v 0.25066379779933873 1.3133767054531218 -0.09145187857557179
v 0.22000116326283872 1.47960075988184 -0.09145052671103295
v 0.22000110360481231 1.313376715045345 -0.09145098043275388
v 0.22000031730368882 1.479600834318917 -0.1203474003716645
v 0.22000025764566242 1.3133767894824222 -0.12034785409338543
v 0.2506630114982153 1.4796008247266939 -0.1203482985144824
v 0.25066295184018883 1.313376779890199 -0.12034875223620334
v 0.2506702143682061 1.479600071727291 0.1256924534323119
v 0.25067015471022247 1.3133761461000304 0.12569199971089498
v 0.22000752017372244 1.4796002005287485 0.12569335157543382
v 0.22000746051569603 1.3133761556922536 0.1256928978537129
v 0.22000667421217326 1.4796002749660366 0.09679639595837916
v 0.22000661455414686 1.3133762301295417 0.09679594223665824
v 0.25066936840669973 1.4796002653738136 0.09679549781556127
v 0.2506693087486733 1.3133762205373185 0.09679504409384034
v 0.435178831818916 1.2827133275832414 0.1256865170569184
v 0.2200074495074623 1.2827133948957004 0.12569270044546269
v 0.4351788428236599 1.3133760883801018 0.12568659525582593
v 0.22000746051569603 1.3133761556922536 0.1256928978537129
v 0.43517799686320124 1.3133761628172942 0.09678967689169085
v 0.22000661455523743 1.3133762301294458 0.09679597948957783
v 0.43517798585845735 1.2827134020204338 0.09678959869278334
v 0.22000660355049356 1.2827134693325855 0.09679590129067031
v 0.4351724749093409 1.2827138869362178 -0.09145731652604486
v 0.22000109259788725 1.2827139542486765 -0.09145113313750057
v 0.4351724859140848 1.3133766477330782 -0.09145723832713734
v 0.22000110360612102 1.3133767150452298 -0.09145093572925037
v 0.43517163995406244 1.313376722170232 -0.12035414179010456
v 0.22000025764500808 1.3133767894824797 -0.12034787644513718
v 0.4351716289493186 1.2827139613733716 -0.12035421998901208
v 0.22000024664026419 1.2827140286856193 -0.1203479546440447
v 0.41361498535435404 1.313376165370684 0.098417739541851
v 0.22270670865482547 1.3133762250928094 0.09842324949123066
v 0.4136150346812839 1.4508180942888296 0.09841807515734922
v 0.2227067579841546 1.4508181540107439 0.09842366706315199
v 0.4136094310389113 1.450818587360817 -0.09299512215987091
v 0.222701154341782 1.4508186470827316 -0.09298953025406814
v 0.41360938171089084 1.3133766584427675 -0.09299549502828873
v 0.22270110501376159 1.3133767181646818 -0.09298990312248596
v 0.41590248020859677 1.313376155295688 0.1020510540978064
v 0.22270681502268766 1.313376215733359 0.10205663849780358
v 0.4159025372765183 1.4723863725352162 0.10205145216926118
v 0.2227068720927904 1.4723864329726954 0.10205711107509753
v 0.41589667066964386 1.472386888745802 -0.09834427342817263
v 0.22270100548482533 1.4723869491833772 -0.09833865177525587
v 0.41589661360063174 1.3133766715063697 -0.098344708752547
v 0.22270094841690377 1.3133767319438487 -0.09833904984671064
v 0.4127186812138768 1.2827134090464831 0.09679021929670546
v 0.41271322986920367 1.2827138939622678 -0.09145670337445255
v 0.4127186922186207 1.3133761698433435 0.09679029749561296
v 0.41271318126928613 1.3133766547591468 -0.09145662517379916
v 0.43517799686211067 1.3133761628173901 0.09678963963877127
v 0.43517248591277613 1.3133766477331932 -0.09145728303064085
v 0.4351779858573668 1.2827134020205297 0.09678956143986375
v 0.43517247490803224 1.2827138869363328 -0.09145736122954837
v -0.22490707787133998 0.9159749450147587 -0.1666411947816104
v -0.22490777618285024 1.4671207922086837 -0.16664100061195333
v -0.22490707787167197 0.9159749897941458 0.1666411041703633
v -0.22490777618318222 1.4671208369880546 0.16664117913072296
v 0.22490695812195063 0.9159749498173057 -0.1666412096823302
v 0.22490786913579425 1.4671207970112476 -0.16664101551267313
v 0.22490695812161865 0.9159749945966287 0.16664061243245387
v 0.22490786913546226 1.4671208417905568 0.16664070229397573
v 0.1380684346230938 1.4671208408634104 0.16664082150318774
v 0.13806843462342577 1.4671207960840873 -0.16664100061159634
v -0.13806834167081375 1.467120837915199 0.16664104502034877
v -0.13806834167048176 1.4671207931358459 -0.16664100061186793
v -0.13806833050417272 1.4024819335904075 -0.16664102172939652
v 0.1380684010862528 1.4024819365386485 -0.16664102172912493
v 0.1380684010859208 1.4024819813179696 0.16664078548449696
v -0.1380683305045047 1.4024819783697626 0.16664103880398237
v -0.2119067688490177 0.9159749470346099 -0.15264098667321174
v -0.2119067688493218 0.9159749880519186 0.15264105997477415
v 0.21190675340772527 0.915974951559556 -0.15264100157395713
v 0.21190675340742118 0.9159749925768206 0.1526407172484609
v -0.13806832757825557 1.453120854650205 -0.1526409992387382
v -0.13806832757855966 1.4531208956675097 0.15264101760692336
v 0.13806841146275026 1.453120857598446 -0.1526409992384666
v 0.13806841146244617 1.4531208986157187 0.15264077918860014
v -0.13806833050449077 1.4024819764887364 0.15264100950954262
v -0.13806833050418668 1.4024819354714357 -0.15264097753379458
v 0.13806840108593474 1.4024819794369454 0.15264077109121937
v 0.13806840108623883 1.4024819384196727 -0.15264100733584735
v -0.2118461794958601 1.4531208948798024 0.1526410176068508
v -0.211846179495556 1.4531208538624978 -0.15264099923881075
v 0.21184627083063107 1.4531208583861532 -0.15264099923839403
v 0.21184627083032698 1.453120899403426 0.15264077918867272
v -0.22000970088218552 1.4795998917211446 -0.09145946387912073
v -0.2200097632170055 1.3133758323467304 -0.09145928875300109
v -0.22001170105223508 1.4795998562931463 -0.12035633939646445
v -0.22001176338705508 1.313375796918732 -0.1203561642703448
v -0.2506743934395831 1.4795998658677934 -0.1203542169604595
v -0.25067239326957824 1.479599782086547 -0.09145734144296881
v -0.25067245560435353 1.3133758419213772 -0.09145716631699614
v -0.25067445577440306 1.313375806493379 -0.12035404183433986
v -0.2506743934395831 1.4795998658677934 -0.1203542169604595
v -0.22001170105223508 1.4795998562931463 -0.12035633939646445
v -0.22000970088218552 1.4795998917211446 -0.09145946387912073
v -0.25067239326957824 1.479599782086547 -0.09145734144296881
v -0.21999467072055295 1.4796001579427798 0.12568442835950172
v -0.21999473305537295 1.3133760985683656 0.12568460348562135
v -0.21999667089627534 1.479600122514681 0.09678747088572964
v -0.21999673323109534 1.3133760631402667 0.09678764601184929
v -0.25065936328362337 1.479600132089328 0.09678959332173459
v -0.2506573631079457 1.4796000483081821 0.12568655079565363
v -0.25065742544272096 1.3133761081430124 0.1256867259216263
v -0.25065942561844334 1.3133760727149137 0.09678976844785424
v -0.25065936328362337 1.479600132089328 0.09678959332173459
v -0.21999667089627534 1.479600122514681 0.09678747088572964
v -0.21999467072055295 1.4796001579427798 0.12568442835950172
v -0.2506573631079457 1.4796000483081821 0.12568655079565363
v -0.4351661175828669 1.3133761657571832 0.12569949739930597
v -0.21999473305537295 1.3133760985683656 0.12568460348562135
v -0.4351681177560107 1.31337613032913 0.09680257717845589
v -0.2199967332285168 1.3133760631403124 0.09678768326477127
v -0.2199967447268197 1.2827132996617145 0.09678772106719793
v -0.43516812925431364 1.2827133668505322 0.09680261498088255
v -0.4351661290811698 1.2827134022785853 0.12569953520173266
v -0.21999474456192727 1.2827133350896214 0.1256845220786977
v -0.43516812925431364 1.2827133668505322 0.09680261498088255
v -0.4351681177560107 1.31337613032913 0.09680257717845589
v -0.4351661175828669 1.3133761657571832 0.12569949739930597
v -0.4351661290811698 1.2827134022785853 0.12569953520173266
v -0.43518114774140515 1.3133758995356029 -0.09144435013581009
v -0.22000976321391125 1.3133758323467852 -0.09145924404949471
v -0.4351831479135176 1.313375864107568 -0.12034125545549139
v -0.2200117633886022 1.3133757969187045 -0.120356186622098
v -0.22001177488690513 1.2827130334401067 -0.12035614881967134
v -0.4351831594118205 1.28271310062897 -0.12034121765306473
v -0.4351811592397081 1.282713136057005 -0.09144431233338343
v -0.22000977472046554 1.2827130688680413 -0.0914593254564184
v -0.4351831594118205 1.28271310062897 -0.12034121765306473
v -0.4351831479135176 1.313375864107568 -0.12034125545549139
v -0.43518114774140515 1.3133758995356029 -0.09144435013581009
v -0.4351811592397081 1.282713136057005 -0.09144431233338343
v -0.4136048658870839 1.450818066529792 0.09842833141065863
v -0.2226966004415854 1.4508180069173084 0.09841511696193689
v -0.4136181150346859 1.4508178318543559 -0.09298487820544256
v -0.22270984958918735 1.4508177722418722 -0.0929980926541643
v -0.41361816657591477 1.313375890915673 -0.09298473111262182
v -0.41360491742573424 1.313376125591155 0.09842851575640135
v -0.4136048658870839 1.450818066529792 0.09842833141065863
v -0.4136181150346859 1.4508178318543559 -0.09298487820544256
v -0.415892024459063 1.472386361906389 0.10206185239276645
v -0.22269634085944953 1.4723863015796426 0.102048479611613
v -0.41590589535503286 1.472386116218239 -0.09833388608070322
v -0.22271021175799793 1.472386055891447 -0.09834729611477866
v -0.41590595498472216 1.3133758850718023 -0.09833371984811377
v -0.41590589535503286 1.472386116218239 -0.09833388608070322
v -0.415892024459063 1.472386361906389 0.10206185239276645
v -0.4158920840861738 1.3133761307599978 0.1020620558782779
v -0.2226966004415854 1.4508180069173084 0.09841511696193689
v -0.22269634085944953 1.4723863015796426 0.102048479611613
v -0.22271021175799793 1.472386055891447 -0.09834729611477866
v -0.22270984958918735 1.4508177722418722 -0.0929980926541643
v -0.41270881443879154 1.3133761233160048 0.09680098531860605
v -0.4127218444247017 1.3133758925224686 -0.09144594944624433
v -0.43516811775858927 1.3133761303290843 0.0968025399255339
v -0.43518114774449945 1.313375899535548 -0.09144439483931648
v -0.4351811592428024 1.2827131360569501 -0.09144435703688981
v -0.4351681292568922 1.2827133668504864 0.09680257772796057
v -0.41270882593709446 1.282713359837407 0.09680102312103271
v -0.4127218857253336 1.2827131290438798 -0.09144591164175478
v 0.22000116326283872 1.47960075988184 -0.09145052671103295
v 0.22000110360481231 1.313376715045345 -0.09145098043275388
v 0.22000031730368882 1.479600834318917 -0.1203474003716645
v 0.22000025764566242 1.3133767894824222 -0.12034785409338543
v 0.2506630114982153 1.4796008247266939 -0.1203482985144824
v 0.25066295184018883 1.313376779890199 -0.12034875223620334
v 0.25066379779933873 1.3133767054531218 -0.09145187857557179
v 0.2506638574573224 1.4796006310803824 -0.09145142485415486
v 0.2506630114982153 1.4796008247266939 -0.1203482985144824
v 0.2506638574573224 1.4796006310803824 -0.09145142485415486
v 0.22000116326283872 1.47960075988184 -0.09145052671103295
v 0.22000031730368882 1.479600834318917 -0.1203474003716645
v 0.22000752017372244 1.4796002005287485 0.12569335157543382
v 0.22000746051569603 1.3133761556922536 0.1256928978537129
v 0.22000667421217326 1.4796002749660366 0.09679639595837916
v 0.22000661455414686 1.3133762301295417 0.09679594223665824
v 0.25066936840669973 1.4796002653738136 0.09679549781556127
v 0.2506693087486733 1.3133762205373185 0.09679504409384034
v 0.25067015471022247 1.3133761461000304 0.12569199971089498
v 0.2506702143682061 1.479600071727291 0.1256924534323119
v 0.25066936840669973 1.4796002653738136 0.09679549781556127
v 0.2506702143682061 1.479600071727291 0.1256924534323119
v 0.22000752017372244 1.4796002005287485 0.12569335157543382
v 0.22000667421217326 1.4796002749660366 0.09679639595837916
v 0.4351788428236599 1.3133760883801018 0.12568659525582593
v 0.22000746051569603 1.3133761556922536 0.1256928978537129
v 0.43517799686320124 1.3133761628172942 0.09678967689169085
v 0.22000661455523743 1.3133762301294458 0.09679597948957783
v 0.22000660355049356 1.2827134693325855 0.09679590129067031
v 0.2200074495074623 1.2827133948957004 0.12569270044546269
v 0.435178831818916 1.2827133275832414 0.1256865170569184
v 0.43517798585845735 1.2827134020204338 0.09678959869278334
v 0.43517798585845735 1.2827134020204338 0.09678959869278334
v 0.435178831818916 1.2827133275832414 0.1256865170569184
v 0.4351788428236599 1.3133760883801018 0.12568659525582593
v 0.43517799686320124 1.3133761628172942 0.09678967689169085
v 0.4351724859140848 1.3133766477330782 -0.09145723832713734
v 0.22000110360612102 1.3133767150452298 -0.09145093572925037
v 0.43517163995406244 1.313376722170232 -0.12035414179010456
v 0.22000025764500808 1.3133767894824797 -0.12034787644513718
v 0.22000024664026419 1.2827140286856193 -0.1203479546440447
v 0.22000109259788725 1.2827139542486765 -0.09145113313750057
v 0.4351724749093409 1.2827138869362178 -0.09145731652604486
v 0.4351716289493186 1.2827139613733716 -0.12035421998901208
v 0.4351716289493186 1.2827139613733716 -0.12035421998901208
v 0.4351724749093409 1.2827138869362178 -0.09145731652604486
v 0.4351724859140848 1.3133766477330782 -0.09145723832713734
v 0.43517163995406244 1.313376722170232 -0.12035414179010456
v 0.4136150346812839 1.4508180942888296 0.09841807515734922
v 0.2227067579841546 1.4508181540107439 0.09842366706315199
v 0.4136094310389113 1.450818587360817 -0.09299512215987091
v 0.222701154341782 1.4508186470827316 -0.09298953025406814
v 0.41360938171089084 1.3133766584427675 -0.09299549502828873
v 0.4136094310389113 1.450818587360817 -0.09299512215987091
v 0.4136150346812839 1.4508180942888296 0.09841807515734922
v 0.41361498535435404 1.313376165370684 0.098417739541851
v 0.4159025372765183 1.4723863725352162 0.10205145216926118
v 0.2227068720927904 1.4723864329726954 0.10205711107509753
v 0.41589667066964386 1.472386888745802 -0.09834427342817263
v 0.22270100548482533 1.4723869491833772 -0.09833865177525587
v 0.41589661360063174 1.3133766715063697 -0.098344708752547
v 0.41590248020859677 1.313376155295688 0.1020510540978064
v 0.4159025372765183 1.4723863725352162 0.10205145216926118
v 0.41589667066964386 1.472386888745802 -0.09834427342817263
v 0.2227067579841546 1.4508181540107439 0.09842366706315199
v 0.222701154341782 1.4508186470827316 -0.09298953025406814
v 0.22270100548482533 1.4723869491833772 -0.09833865177525587
v 0.2227068720927904 1.4723864329726954 0.10205711107509753
v 0.4127186922186207 1.3133761698433435 0.09679029749561296
v 0.41271318126928613 1.3133766547591468 -0.09145662517379916
v 0.43517799686211067 1.3133761628173901 0.09678963963877127
v 0.43517248591277613 1.3133766477331932 -0.09145728303064085
v 0.43517247490803224 1.2827138869363328 -0.09145736122954837
v 0.41271322986920367 1.2827138939622678 -0.09145670337445255
v 0.4127186812138768 1.2827134090464831 0.09679021929670546
v 0.4351779858573668 1.2827134020205297 0.09678956143986375
v -0.22490777618318222 1.4671208369880546 0.16664117913072296
v 0.22490786913579425 1.4671207970112476 -0.16664101551267313
v -0.13806834167081375 1.467120837915199 0.16664104502034877
v -0.22490777618318222 1.4671208369880546 0.16664117913072296
v -0.22490777618285024 1.4671207922086837 -0.16664100061195333
v 0.22490786913546226 1.4671208417905568 0.16664070229397573
v 0.13806843462342577 1.4671207960840873 -0.16664100061159634
v 0.22490786913579425 1.4671207970112476 -0.16664101551267313
v -0.22490707787167197 0.9159749897941458 0.1666411041703633
v -0.22490707787133998 0.9159749450147587 -0.1666411947816104
v 0.22490695812195063 0.9159749498173057 -0.1666412096823302
v 0.22490695812161865 0.9159749945966287 0.16664061243245387
v -0.13806834167048176 1.4671207931358459 -0.16664100061186793
v -0.13806834167081375 1.467120837915199 0.16664104502034877
v -0.1380683305045047 1.4024819783697626 0.16664103880398237
v 0.1380684010862528 1.4024819365386485 -0.16664102172912493
v 0.13806843462342577 1.4671207960840873 -0.16664100061159634
v 0.1380684346230938 1.4671208408634104 0.16664082150318774
v 0.13806840108593474 1.4024819794369454 0.15264077109121937
v 0.1380684010859208 1.4024819813179696 0.16664078548449696
v -0.1380683305045047 1.4024819783697626 0.16664103880398237
v -0.13806833050449077 1.4024819764887364 0.15264100950954262
v -0.13806833050418668 1.4024819354714357 -0.15264097753379458
v -0.13806833050417272 1.4024819335904075 -0.16664102172939652
v 0.1380684010862528 1.4024819365386485 -0.16664102172912493
v 0.13806840108623883 1.4024819384196727 -0.15264100733584735
v -0.13806832757825557 1.453120854650205 -0.1526409992387382
v -0.13806832757855966 1.4531208956675097 0.15264101760692336
v -0.13806833050449077 1.4024819764887364 0.15264100950954262
v -0.13806832757855966 1.4531208956675097 0.15264101760692336
v -0.2118461794958601 1.4531208948798024 0.1526410176068508
v 0.13806840108623883 1.4024819384196727 -0.15264100733584735
v 0.13806841146275026 1.453120857598446 -0.1526409992384666
v 0.13806841146244617 1.4531208986157187 0.15264077918860014
v 0.21184627083063107 1.4531208583861532 -0.15264099923839403
v 0.13806841146275026 1.453120857598446 -0.1526409992384666
v 0.21184627083032698 1.453120899403426 0.15264077918867272
v 0.21190675340742118 0.9159749925768206 0.1526407172484609
v 0.21190675340772527 0.915974951559556 -0.15264100157395713
v 0.21184627083063107 1.4531208583861532 -0.15264099923839403
v -0.211846179495556 1.4531208538624978 -0.15264099923881075
v -0.2119067688490177 0.9159749470346099 -0.15264098667321174
v -0.2119067688493218 0.9159749880519186 0.15264105997477415
v -0.2118461794958601 1.4531208948798024 0.1526410176068508
v -0.13806833050417272 1.4024819335904075 -0.16664102172939652
v -0.13806834167048176 1.4671207931358459 -0.16664100061186793
v -0.22490777618285024 1.4671207922086837 -0.16664100061195333
v 0.22490695812195063 0.9159749498173057 -0.1666412096823302
v 0.1380684010859208 1.4024819813179696 0.16664078548449696
v 0.1380684346230938 1.4671208408634104 0.16664082150318774
v 0.22490786913546226 1.4671208417905568 0.16664070229397573
v -0.22490707787167197 0.9159749897941458 0.1666411041703633
v 0.22490695812161865 0.9159749945966287 0.16664061243245387
v -0.22490707787133998 0.9159749450147587 -0.1666411947816104
v -0.211846179495556 1.4531208538624978 -0.15264099923881075
v -0.13806832757825557 1.453120854650205 -0.1526409992387382
v -0.13806833050418668 1.4024819354714357 -0.15264097753379458
v -0.2119067688490177 0.9159749470346099 -0.15264098667321174
v 0.21190675340772527 0.915974951559556 -0.15264100157395713
v 0.21184627083032698 1.453120899403426 0.15264077918867272
v 0.13806841146244617 1.4531208986157187 0.15264077918860014
v 0.13806840108593474 1.4024819794369454 0.15264077109121937
v 0.21190675340742118 0.9159749925768206 0.1526407172484609
v -0.2119067688493218 0.9159749880519186 0.15264105997477415
v -0.22000976321391125 1.3133758323467852 -0.09145924404949471
v -0.2200117633886022 1.3133757969187045 -0.120356186622098
v -0.22001177488690513 1.2827130334401067 -0.12035614881967134
v -0.22000977472046554 1.2827130688680413 -0.0914593254564184
v -0.21999473305537295 1.3133760985683656 0.12568460348562135
v -0.2199967332285168 1.3133760631403124 0.09678768326477127
v -0.2199967447268197 1.2827132996617145 0.09678772106719793
v -0.21999474456192727 1.2827133350896214 0.1256845220786977
v 0.22000109259788725 1.2827139542486765 -0.09145113313750057
v 0.22000024664026419 1.2827140286856193 -0.1203479546440447
v 0.22000025764500808 1.3133767894824797 -0.12034787644513718
v 0.22000110360612102 1.3133767150452298 -0.09145093572925037
v 0.2200074495074623 1.2827133948957004 0.12569270044546269
v 0.22000660355049356 1.2827134693325855 0.09679590129067031
v 0.22000661455523743 1.3133762301294458 0.09679597948957783
v 0.22000746051569603 1.3133761556922536 0.1256928978537129
vt 0.9296875 0.314453125
vt 0.9296875 0.23974609375
vt 0.943359375 0.314453125
vt 0.943359375 0.23974609375
vt 0.9560546875 0.314453125
vt 0.9560546875 0.23974609375
vt 0.97021484375 0.314453125
vt 0.97021484375 0.23974609375
vt 0.9423828125 0.314453125
vt 0.9423828125 0.23974609375
vt 0.9560546875 0.314453125
vt 0.9560546875 0.23974609375
vt 0.96923828125 0.314453125
vt 0.96923828125 0.23974609375
vt 0.98291015625 0.314453125
vt 0.98291015625 0.23974609375
vt 0.8876953125 0.33349609375
vt 0.8876953125 0.23681640625
vt 0.9013671875 0.33349609375
vt 0.9013671875 0.23681640625
vt 0.91455078125 0.33349609375
vt 0.91455078125 0.23681640625
vt 0.87451171875 0.33349609375
vt 0.87451171875 0.23681640625
vt 0.900390625 0.33349609375
vt 0.900390625 0.23681640625
vt 0.91455078125 0.33349609375
vt 0.91455078125 0.23681640625
vt 0.8740234375 0.33349609375
vt 0.8740234375 0.23681640625
vt 0.8876953125 0.33349609375
vt 0.8876953125 0.23681640625
vt 0.92333984375 0.6044921875
vt 0.92333984375 0.5185546875
vt 0.861328125 0.6044921875
vt 0.861328125 0.5185546875
vt 0.775390625 0.6044921875
vt 0.775390625 0.5185546875
vt 0.71337890625 0.6044921875
vt 0.71337890625 0.5185546875
vt 0.68798828125 0.499755859375
vt 0.68798828125 0.412841796875
vt 0.759765625 0.499755859375
vt 0.759765625 0.412841796875
vt 0.849609375 0.499755859375
vt 0.849609375 0.412841796875
vt 0.92138671875 0.499755859375
vt 0.92138671875 0.412841796875
vt 0.86083984375 0.3828125
vt 0.9453125 0.3828125
vt 0.86083984375 0.396484375
vt 0.9453125 0.396484375
vt 0.86083984375 0.35888671875
vt 0.9453125 0.35888671875
vt 0.86083984375 0.372802734375
vt 0.9453125 0.372802734375
vt 0.9296875 0.314453125
vt 0.9296875 0.23974609375
vt 0.943359375 0.314453125
vt 0.943359375 0.23974609375
vt 0.9560546875 0.314453125
vt 0.9560546875 0.23974609375
vt 0.97021484375 0.314453125
vt 0.97021484375 0.23974609375
vt 0.9423828125 0.314453125
vt 0.9423828125 0.23974609375
vt 0.9560546875 0.314453125
vt 0.9560546875 0.23974609375
vt 0.96923828125 0.314453125
vt 0.96923828125 0.23974609375
vt 0.98291015625 0.314453125
vt 0.98291015625 0.23974609375
vt 0.8876953125 0.33349609375
vt 0.8876953125 0.23681640625
vt 0.9013671875 0.33349609375
vt 0.9013671875 0.23681640625
vt 0.91455078125 0.33349609375
vt 0.91455078125 0.23681640625
vt 0.87451171875 0.33349609375
vt 0.87451171875 0.23681640625
vt 0.900390625 0.33349609375
vt 0.900390625 0.23681640625
vt 0.91455078125 0.33349609375
vt 0.91455078125 0.23681640625
vt 0.8740234375 0.33349609375
vt 0.8740234375 0.23681640625
vt 0.8876953125 0.33349609375
vt 0.8876953125 0.23681640625
vt 0.92333984375 0.6044921875
vt 0.92333984375 0.5185546875
vt 0.861328125 0.6044921875
vt 0.861328125 0.5185546875
vt 0.775390625 0.6044921875
vt 0.775390625 0.5185546875
vt 0.71337890625 0.6044921875
vt 0.71337890625 0.5185546875
vt 0.68798828125 0.499755859375
vt 0.68798828125 0.412841796875
vt 0.759765625 0.499755859375
vt 0.759765625 0.412841796875
vt 0.849609375 0.499755859375
vt 0.849609375 0.412841796875
vt 0.92138671875 0.499755859375
vt 0.92138671875 0.412841796875
vt 0.86083984375 0.3828125
vt 0.9453125 0.3828125
vt 0.86083984375 0.396484375
vt 0.9453125 0.396484375
vt 0.86083984375 0.35888671875
vt 0.9453125 0.35888671875
vt 0.86083984375 0.372802734375
vt 0.9453125 0.372802734375
vt 0.0200042724609375 0.294189453125
vt 0.0200042724609375 0.552734375
vt 0.1636962890625 0.294189453125
vt 0.1636962890625 0.552734375
vt 0.1636962890625 0.294189453125
vt 0.1636962890625 0.552734375
vt 0.0200042724609375 0.294189453125
vt 0.0200042724609375 0.552734375
vt 0.433349609375 0.322998046875
vt 0.05853271484375 0.271240234375
vt 0.280029296875 0.271240234375
vt 0.4736328125 0.46875
vt 0.54638671875 0.43798828125
vt 0.05853271484375 0.2418212890625
vt 0.54638671875 0.43798828125
vt 0.280029296875 0.2418212890625
vt 0.353271484375 0.49658203125
vt 0.486572265625 0.49658203125
vt 0.353271484375 0.30029296875
vt 0.486572265625 0.30029296875
vt 0.5224609375 0.431884765625
vt 0.5224609375 0.30029296875
vt 0.5224609375 0.30029296875
vt 0.5224609375 0.431884765625
vt 0.54638671875 0.30029296875
vt 0.54638671875 0.431884765625
vt 0.54638671875 0.431884765625
vt 0.54638671875 0.30029296875
vt 0.375732421875 0.463623046875
vt 0.375732421875 0.330322265625
vt 0.65087890625 0.264892578125
vt 0.409912109375 0.463623046875
vt 0.943359375 0.314453125
vt 0.943359375 0.23974609375
vt 0.9560546875 0.314453125
vt 0.9560546875 0.23974609375
vt 0.97021484375 0.314453125
vt 0.98291015625 0.314453125
vt 0.98291015625 0.23974609375
vt 0.97021484375 0.23974609375
vt 0.69482421875 0.55419921875
vt 0.69482421875 0.54052734375
vt 0.681640625 0.54052734375
vt 0.681640625 0.55419921875
vt 0.9560546875 0.314453125
vt 0.9560546875 0.23974609375
vt 0.96923828125 0.314453125
vt 0.96923828125 0.23974609375
vt 0.9296875 0.314453125
vt 0.9423828125 0.314453125
vt 0.9423828125 0.23974609375
vt 0.9296875 0.23974609375
vt 0.69482421875 0.55419921875
vt 0.69482421875 0.54052734375
vt 0.681640625 0.54052734375
vt 0.681640625 0.55419921875
vt 0.9013671875 0.33349609375
vt 0.9013671875 0.23681640625
vt 0.86083984375 0.33349609375
vt 0.86083984375 0.23681640625
vt 0.87451171875 0.23681640625
vt 0.87451171875 0.33349609375
vt 0.8876953125 0.33349609375
vt 0.8876953125 0.23681640625
vt 0.681640625 0.54052734375
vt 0.681640625 0.55419921875
vt 0.69482421875 0.55419921875
vt 0.69482421875 0.54052734375
vt 0.86083984375 0.33349609375
vt 0.86083984375 0.23681640625
vt 0.8740234375 0.33349609375
vt 0.8740234375 0.23681640625
vt 0.8876953125 0.23681640625
vt 0.8876953125 0.33349609375
vt 0.900390625 0.33349609375
vt 0.900390625 0.23681640625
vt 0.681640625 0.54052734375
vt 0.681640625 0.55419921875
vt 0.69482421875 0.55419921875
vt 0.69482421875 0.54052734375
vt 0.861328125 0.6044921875
vt 0.861328125 0.5185546875
vt 0.775390625 0.6044921875
vt 0.775390625 0.5185546875
vt 0.86083984375 0.1312255859375
vt 0.86083984375 0.21728515625
vt 0.9228515625 0.21728515625
vt 0.9228515625 0.1312255859375
vt 0.759765625 0.499755859375
vt 0.759765625 0.412841796875
vt 0.849609375 0.499755859375
vt 0.849609375 0.412841796875
vt 0.86083984375 0.10931396484375
vt 0.93212890625 0.10931396484375
vt 0.93212890625 0.019195556640625
vt 0.86083984375 0.019195556640625
vt 0.947265625 0.1328125
vt 0.9375 0.1312255859375
vt 0.9375 0.2213134765625
vt 0.947265625 0.218994140625
vt 0.86083984375 0.348876953125
vt 0.9453125 0.348876953125
vt 0.86083984375 0.35888671875
vt 0.9453125 0.35888671875
vt 0.9453125 0.372802734375
vt 0.86083984375 0.372802734375
vt 0.86083984375 0.3828125
vt 0.9453125 0.3828125
vt 0.943359375 0.314453125
vt 0.943359375 0.23974609375
vt 0.9560546875 0.314453125
vt 0.9560546875 0.23974609375
vt 0.97021484375 0.314453125
vt 0.97021484375 0.23974609375
vt 0.98291015625 0.23974609375
vt 0.98291015625 0.314453125
vt 0.69482421875 0.55419921875
vt 0.681640625 0.55419921875
vt 0.681640625 0.54052734375
vt 0.69482421875 0.54052734375
vt 0.9560546875 0.314453125
vt 0.9560546875 0.23974609375
vt 0.96923828125 0.314453125
vt 0.96923828125 0.23974609375
vt 0.9296875 0.314453125
vt 0.9296875 0.23974609375
vt 0.9423828125 0.23974609375
vt 0.9423828125 0.314453125
vt 0.69482421875 0.55419921875
vt 0.681640625 0.55419921875
vt 0.681640625 0.54052734375
vt 0.69482421875 0.54052734375
vt 0.9013671875 0.33349609375
vt 0.9013671875 0.23681640625
vt 0.86083984375 0.33349609375
vt 0.86083984375 0.23681640625
vt 0.87451171875 0.23681640625
vt 0.8876953125 0.23681640625
vt 0.8876953125 0.33349609375
vt 0.87451171875 0.33349609375
vt 0.681640625 0.54052734375
vt 0.69482421875 0.54052734375
vt 0.69482421875 0.55419921875
vt 0.681640625 0.55419921875
vt 0.86083984375 0.33349609375
vt 0.86083984375 0.23681640625
vt 0.8740234375 0.33349609375
vt 0.8740234375 0.23681640625
vt 0.8876953125 0.23681640625
vt 0.900390625 0.23681640625
vt 0.900390625 0.33349609375
vt 0.8876953125 0.33349609375
vt 0.681640625 0.54052734375
vt 0.69482421875 0.54052734375
vt 0.69482421875 0.55419921875
vt 0.681640625 0.55419921875
vt 0.861328125 0.6044921875
vt 0.861328125 0.5185546875
vt 0.775390625 0.6044921875
vt 0.775390625 0.5185546875
vt 0.86083984375 0.1312255859375
vt 0.9228515625 0.1312255859375
vt 0.9228515625 0.21728515625
vt 0.86083984375 0.21728515625
vt 0.759765625 0.499755859375
vt 0.759765625 0.412841796875
vt 0.849609375 0.499755859375
vt 0.849609375 0.412841796875
vt 0.86083984375 0.10931396484375
vt 0.86083984375 0.019195556640625
vt 0.93212890625 0.019195556640625
vt 0.93212890625 0.10931396484375
vt 0.947265625 0.1328125
vt 0.947265625 0.218994140625
vt 0.9375 0.2213134765625
vt 0.9375 0.1312255859375
vt 0.86083984375 0.348876953125
vt 0.9453125 0.348876953125
vt 0.86083984375 0.35888671875
vt 0.9453125 0.35888671875
vt 0.9453125 0.372802734375
vt 0.9453125 0.3828125
vt 0.86083984375 0.3828125
vt 0.86083984375 0.372802734375
vt 0.2415771484375 0.271240234375
vt 0.0200042724609375 0.271240234375
vt 0.4736328125 0.322998046875
vt 0.433349609375 0.322998046875
vt 0.433349609375 0.46875
vt 0.4736328125 0.322998046875
vt 0.433349609375 0.46875
vt 0.4736328125 0.46875
vt 0.49267578125 0.50244140625
vt 0.346923828125 0.50244140625
vt 0.346923828125 0.294189453125
vt 0.49267578125 0.294189453125
vt 0.515625 0.43798828125
vt 0.515625 0.294189453125
vt 0.54638671875 0.294189453125
vt 0.54638671875 0.294189453125
vt 0.515625 0.294189453125
vt 0.515625 0.43798828125
vt 0.346923828125 0.5263671875
vt 0.346923828125 0.53271484375
vt 0.474853515625 0.53271484375
vt 0.474853515625 0.5263671875
vt 0.474853515625 0.53271484375
vt 0.474853515625 0.5263671875
vt 0.346923828125 0.5263671875
vt 0.346923828125 0.53271484375
vt 0.409912109375 0.330322265625
vt 0.409912109375 0.463623046875
vt 0.6181640625 0.2418212890625
vt 0.6181640625 0.264892578125
vt 0.65087890625 0.264892578125
vt 0.6181640625 0.2418212890625
vt 0.6181640625 0.264892578125
vt 0.375732421875 0.463623046875
vt 0.409912109375 0.330322265625
vt 0.375732421875 0.330322265625
vt 0.1888427734375 0.294189453125
vt 0.1888427734375 0.54638671875
vt 0.3203125 0.54638671875
vt 0.3203125 0.294189453125
vt 0.3203125 0.54638671875
vt 0.3203125 0.294189453125
vt 0.1888427734375 0.294189453125
vt 0.1888427734375 0.54638671875
vt 0.1810302734375 0.2418212890625
vt 0.1810302734375 0.271240234375
vt 0.2196044921875 0.271240234375
vt 0.0200042724609375 0.0200042724609375
vt 0.402587890625 0.2418212890625
vt 0.402587890625 0.271240234375
vt 0.441162109375 0.271240234375
vt 0.2415771484375 0.0200042724609375
vt 0.441162109375 0.0200042724609375
vt 0.2196044921875 0.0200042724609375
vt 0.463134765625 0.264892578125
vt 0.495849609375 0.264892578125
vt 0.495849609375 0.2418212890625
vt 0.463134765625 0.0200042724609375
vt 0.6513671875 0.0200042724609375
vt 0.463134765625 0.264892578125
vt 0.495849609375 0.264892578125
vt 0.495849609375 0.2418212890625
vt 0.463134765625 0.0200042724609375
vt 0.6513671875 0.0200042724609375
vt 0.681640625 0.55419921875
vt 0.69482421875 0.55419921875
vt 0.69482421875 0.54052734375
vt 0.681640625 0.54052734375
vt 0.681640625 0.55419921875
vt 0.69482421875 0.55419921875
vt 0.69482421875 0.54052734375
vt 0.681640625 0.54052734375
vt 0.69482421875 0.54052734375
vt 0.681640625 0.54052734375
vt 0.681640625 0.55419921875
vt 0.69482421875 0.55419921875
vt 0.69482421875 0.54052734375
vt 0.681640625 0.54052734375
vt 0.681640625 0.55419921875
vt 0.69482421875 0.55419921875
vn 6.921755497619995e-05 1.226015469066835e-06 1.000000510055818
vn 6.921755497619995e-05 1.226015469066835e-06 1.000000510055818
vn 6.921755497619995e-05 1.226015469066835e-06 1.000000510055818
vn 6.921755497619995e-05 1.226015469066835e-06 1.000000510055818
vn 1.0000002202886733 -3.1225728537113544e-07 -6.921885546390036e-05
vn 1.0000002202886733 -3.1225728537113544e-07 -6.921885546390036e-05
vn -6.921755497619995e-05 -1.226015469066835e-06 -1.000000510055818
vn -6.921755497619995e-05 -1.226015469066835e-06 -1.000000510055818
vn 6.921755497619995e-05 1.226015469066835e-06 1.000000510055818
vn 6.921755497619995e-05 1.226015469066835e-06 1.000000510055818
vn 6.921755497619995e-05 1.226015469066835e-06 1.000000510055818
vn 6.921755497619995e-05 1.226015469066835e-06 1.000000510055818
vn 1.0000002202886733 -3.1225728537113544e-07 -6.921885546390036e-05
vn 1.0000002202886733 -3.1225728537113544e-07 -6.921885546390036e-05
vn -6.921755497619995e-05 -1.226015469066835e-06 -1.000000510055818
vn -6.921755497619995e-05 -1.226015469066835e-06 -1.000000510055818
vn 6.921755497619995e-05 1.226015469066835e-06 1.000000510055818
vn 6.921755497619995e-05 1.226015469066835e-06 1.000000510055818
vn 6.921755497619995e-05 1.226015469066835e-06 1.000000510055818
vn 6.921755497619995e-05 1.226015469066835e-06 1.000000510055818
vn 3.7499224767573424e-07 0.9999996229605798 -1.232844275009697e-06
vn 3.7499224767573424e-07 0.9999996229605798 -1.232844275009697e-06
vn -6.921755497619995e-05 -1.226015469066835e-06 -1.000000510055818
vn -6.921755497619995e-05 -1.226015469066835e-06 -1.000000510055818
vn 6.921755497619995e-05 1.226015469066835e-06 1.000000510055818
vn 6.921755497619995e-05 1.226015469066835e-06 1.000000510055818
vn 6.921755497619995e-05 1.226015469066835e-06 1.000000510055818
vn 6.921755497619995e-05 1.226015469066835e-06 1.000000510055818
vn 3.7499224767573424e-07 0.9999996229605798 -1.232844275009697e-06
vn 3.7499224767573424e-07 0.9999996229605798 -1.232844275009697e-06
vn -6.921755497619995e-05 -1.226015469066835e-06 -1.000000510055818
vn -6.921755497619995e-05 -1.226015469066835e-06 -1.000000510055818
vn -6.921755497619995e-05 -1.226015469066835e-06 -1.000000510055818
vn -6.921755497619995e-05 -1.226015469066835e-06 -1.000000510055818
vn -6.921755497619995e-05 -1.226015469066835e-06 -1.000000510055818
vn -6.921755497619995e-05 -1.226015469066835e-06 -1.000000510055818
vn -3.7499224767573424e-07 -0.9999996229605798 1.232844275009697e-06
vn -3.7499224767573424e-07 -0.9999996229605798 1.232844275009697e-06
vn 6.921755497619995e-05 1.226015469066835e-06 1.000000510055818
vn 6.921755497619995e-05 1.226015469066835e-06 1.000000510055818
vn 6.921755497619995e-05 1.226015469066835e-06 1.000000510055818
vn 6.921755497619995e-05 1.226015469066835e-06 1.000000510055818
vn 6.921755497619995e-05 1.226015469066835e-06 1.000000510055818
vn 6.921755497619995e-05 1.226015469066835e-06 1.000000510055818
vn 3.7499224767573424e-07 0.9999996229605798 -1.232844275009697e-06
vn 3.7499224767573424e-07 0.9999996229605798 -1.232844275009697e-06
vn -6.921755497619995e-05 -1.226015469066835e-06 -1.000000510055818
vn -6.921755497619995e-05 -1.226015469066835e-06 -1.000000510055818
vn 1.0000002202886733 -3.1225728537113544e-07 -6.921885546390036e-05
vn 1.0000002202886733 -3.1225728537113544e-07 -6.921885546390036e-05
vn 1.0000002202886733 -3.1225728537113544e-07 -6.921885546390036e-05
vn 1.0000002202886733 -3.1225728537113544e-07 -6.921885546390036e-05
vn 3.7499224767573424e-07 0.9999996229605798 -1.232844275009697e-06
vn 3.7499224767573424e-07 0.9999996229605798 -1.232844275009697e-06
vn -1.0000002202886733 3.1225728537113544e-07 6.921885546390036e-05
vn -1.0000002202886733 3.1225728537113544e-07 6.921885546390036e-05
vn 2.9275122871602795e-05 -2.5759572188919274e-06 1.000000445802743
vn 2.9275122871602795e-05 -2.5759572188919274e-06 1.000000445802743
vn 2.9275122871602795e-05 -2.5759572188919274e-06 1.000000445802743
vn 2.9275122871602795e-05 -2.5759572188919274e-06 1.000000445802743
vn -1.000000279226055 3.128304972158585e-07 2.9291068260194685e-05
vn -1.000000279226055 3.128304972158585e-07 2.9291068260194685e-05
vn -2.9275122871602795e-05 2.5759572188919274e-06 -1.000000445802743
vn -2.9275122871602795e-05 2.5759572188919274e-06 -1.000000445802743
vn 2.9275122871602795e-05 -2.5759572188919274e-06 1.000000445802743
vn 2.9275122871602795e-05 -2.5759572188919274e-06 1.000000445802743
vn 2.9275122871602795e-05 -2.5759572188919274e-06 1.000000445802743
vn 2.9275122871602795e-05 -2.5759572188919274e-06 1.000000445802743
vn -1.000000279226055 3.128304972158585e-07 2.9291068260194685e-05
vn -1.000000279226055 3.128304972158585e-07 2.9291068260194685e-05
vn -2.9275122871602795e-05 2.5759572188919274e-06 -1.000000445802743
vn -2.9275122871602795e-05 2.5759572188919274e-06 -1.000000445802743
vn 2.9275122871602795e-05 -2.5759572188919274e-06 1.000000445802743
vn 2.9275122871602795e-05 -2.5759572188919274e-06 1.000000445802743
vn 2.9275122871602795e-05 -2.5759572188919274e-06 1.000000445802743
vn 2.9275122871602795e-05 -2.5759572188919274e-06 1.000000445802743
vn 3.5889588832627156e-07 0.999999535501516 2.5502880089809976e-06
vn 3.5889588832627156e-07 0.999999535501516 2.5502880089809976e-06
vn -2.9275122871602795e-05 2.5759572188919274e-06 -1.000000445802743
vn -2.9275122871602795e-05 2.5759572188919274e-06 -1.000000445802743
vn 2.9275122871602795e-05 -2.5759572188919274e-06 1.000000445802743
vn 2.9275122871602795e-05 -2.5759572188919274e-06 1.000000445802743
vn 2.9275122871602795e-05 -2.5759572188919274e-06 1.000000445802743
vn 2.9275122871602795e-05 -2.5759572188919274e-06 1.000000445802743
vn 3.5889588832627156e-07 0.999999535501516 2.5502880089809976e-06
vn 3.5889588832627156e-07 0.999999535501516 2.5502880089809976e-06
vn -2.9275122871602795e-05 2.5759572188919274e-06 -1.000000445802743
vn -2.9275122871602795e-05 2.5759572188919274e-06 -1.000000445802743
vn -2.9275122871602795e-05 2.5759572188919274e-06 -1.000000445802743
vn -2.9275122871602795e-05 2.5759572188919274e-06 -1.000000445802743
vn -2.9275122871602795e-05 2.5759572188919274e-06 -1.000000445802743
vn -2.9275122871602795e-05 2.5759572188919274e-06 -1.000000445802743
vn -3.5889588832627156e-07 -0.999999535501516 -2.5502880089809976e-06
vn -3.5889588832627156e-07 -0.999999535501516 -2.5502880089809976e-06
vn 2.9275122871602795e-05 -2.5759572188919274e-06 1.000000445802743
vn 2.9275122871602795e-05 -2.5759572188919274e-06 1.000000445802743
vn 2.9275122871602795e-05 -2.5759572188919274e-06 1.000000445802743
vn 2.9275122871602795e-05 -2.5759572188919274e-06 1.000000445802743
vn 2.9275122871602795e-05 -2.5759572188919274e-06 1.000000445802743
vn 2.9275122871602795e-05 -2.5759572188919274e-06 1.000000445802743
vn 3.5889588832627156e-07 0.999999535501516 2.5502880089809976e-06
vn 3.5889588832627156e-07 0.999999535501516 2.5502880089809976e-06
vn -2.9275122871602795e-05 2.5759572188919274e-06 -1.000000445802743
vn -2.9275122871602795e-05 2.5759572188919274e-06 -1.000000445802743
vn -1.000000279226055 3.128304972158585e-07 2.9291068260194685e-05
vn -1.000000279226055 3.128304972158585e-07 2.9291068260194685e-05
vn -1.000000279226055 3.128304972158585e-07 2.9291068260194685e-05
vn -1.000000279226055 3.128304972158585e-07 2.9291068260194685e-05
vn 3.5889588832627156e-07 0.999999535501516 2.5502880089809976e-06
vn 3.5889588832627156e-07 0.999999535501516 2.5502880089809976e-06
vn 1.000000279226055 -3.128304972158585e-07 -2.9291068260194685e-05
vn 1.000000279226055 -3.128304972158585e-07 -2.9291068260194685e-05
vn -0.999999965771626 -1.0676742728218083e-08 -9.835041961243325e-13
vn -0.999999965771626 -1.0676742728218083e-08 -9.835041961243325e-13
vn -0.999999965771626 -1.0676742728218083e-08 -9.835041961243325e-13
vn -0.999999965771626 -1.0676742728218083e-08 -9.835041961243325e-13
vn 0.999999965771626 1.0676742728218083e-08 9.835041961243325e-13
vn 0.999999965771626 1.0676742728218083e-08 9.835041961243325e-13
vn 0.999999965771626 1.0676742728218083e-08 9.835041961243325e-13
vn 0.999999965771626 1.0676742728218083e-08 9.835041961243325e-13
vn 5.778028918558907e-08 1.0000001001304033 -1.3435875438391787e-07
vn 9.960918651302174e-13 -1.3435874090482966e-07 -1.0000000659019268
vn -9.960918651302174e-13 1.3435874090482966e-07 1.0000000659019268
vn 5.778028918558907e-08 1.0000001001304033 -1.3435875438391787e-07
vn 0.999999965771626 1.0676742728218083e-08 9.835041961243325e-13
vn 9.960918651302174e-13 -1.3435874090482966e-07 -1.0000000659019268
vn -0.999999965771626 -1.0676742728218083e-08 -9.835041961243325e-13
vn -9.960918651302174e-13 1.3435874090482966e-07 1.0000000659019268
vn -5.778028918558907e-08 -1.0000001001304033 1.3435875438391787e-07
vn -5.778028918558907e-08 -1.0000001001304033 1.3435875438391787e-07
vn -5.778028918558907e-08 -1.0000001001304033 1.3435875438391787e-07
vn -5.778028918558907e-08 -1.0000001001304033 1.3435875438391787e-07
vn 0.999999965771626 1.0676742728218083e-08 9.835041961243325e-13
vn 0.999999965771626 1.0676742728218083e-08 9.835041961243325e-13
vn -0.999999965771626 -1.0676742728218083e-08 -9.835041961243325e-13
vn -0.999999965771626 -1.0676742728218083e-08 -9.835041961243325e-13
vn 0.999999965771626 1.0676742728218083e-08 9.835041961243325e-13
vn 0.999999965771626 1.0676742728218083e-08 9.835041961243325e-13
vn -0.999999965771626 -1.0676742728218083e-08 -9.835041961243325e-13
vn -0.999999965771626 -1.0676742728218083e-08 -9.835041961243325e-13
vn -5.778028918558907e-08 -1.0000001001304033 1.3435875438391787e-07
vn -5.778028918558907e-08 -1.0000001001304033 1.3435875438391787e-07
vn -9.960918651302174e-13 1.3435874090482966e-07 1.0000000659019268
vn -5.778028918558907e-08 -1.0000001001304033 1.3435875438391787e-07
vn 1.0000002202886733 -3.1225728537113544e-07 -6.921885546390036e-05
vn 1.0000002202886733 -3.1225728537113544e-07 -6.921885546390036e-05
vn -6.921755497619995e-05 -1.226015469066835e-06 -1.000000510055818
vn -6.921755497619995e-05 -1.226015469066835e-06 -1.000000510055818
vn -1.0000002202886733 3.1225728537113544e-07 6.921885546390036e-05
vn -1.0000002202886733 3.1225728537113544e-07 6.921885546390036e-05
vn -1.0000002202886733 3.1225728537113544e-07 6.921885546390036e-05
vn -1.0000002202886733 3.1225728537113544e-07 6.921885546390036e-05
vn 3.7499224767573424e-07 0.9999996229605798 -1.232844275009697e-06
vn 3.7499224767573424e-07 0.9999996229605798 -1.232844275009697e-06
vn 3.7499224767573424e-07 0.9999996229605798 -1.232844275009697e-06
vn 3.7499224767573424e-07 0.9999996229605798 -1.232844275009697e-06
vn 1.0000002202886733 -3.1225728537113544e-07 -6.921885546390036e-05
vn 1.0000002202886733 -3.1225728537113544e-07 -6.921885546390036e-05
vn -6.921755497619995e-05 -1.226015469066835e-06 -1.000000510055818
vn -6.921755497619995e-05 -1.226015469066835e-06 -1.000000510055818
vn -1.0000002202886733 3.1225728537113544e-07 6.921885546390036e-05
vn -1.0000002202886733 3.1225728537113544e-07 6.921885546390036e-05
vn -1.0000002202886733 3.1225728537113544e-07 6.921885546390036e-05
vn -1.0000002202886733 3.1225728537113544e-07 6.921885546390036e-05
vn 3.7499224767573424e-07 0.9999996229605798 -1.232844275009697e-06
vn 3.7499224767573424e-07 0.9999996229605798 -1.232844275009697e-06
vn 3.7499224767573424e-07 0.9999996229605798 -1.232844275009697e-06
vn 3.7499224767573424e-07 0.9999996229605798 -1.232844275009697e-06
vn 3.7499224767573424e-07 0.9999996229605798 -1.232844275009697e-06
vn 3.7499224767573424e-07 0.9999996229605798 -1.232844275009697e-06
vn -6.921755497619995e-05 -1.226015469066835e-06 -1.000000510055818
vn -6.921755497619995e-05 -1.226015469066835e-06 -1.000000510055818
vn -3.7499224767573424e-07 -0.9999996229605798 1.232844275009697e-06
vn -3.7499224767573424e-07 -0.9999996229605798 1.232844275009697e-06
vn -3.7499224767573424e-07 -0.9999996229605798 1.232844275009697e-06
vn -3.7499224767573424e-07 -0.9999996229605798 1.232844275009697e-06
vn -1.0000002202886733 3.1225728537113544e-07 6.921885546390036e-05
vn -1.0000002202886733 3.1225728537113544e-07 6.921885546390036e-05
vn -1.0000002202886733 3.1225728537113544e-07 6.921885546390036e-05
vn -1.0000002202886733 3.1225728537113544e-07 6.921885546390036e-05
vn 3.7499224767573424e-07 0.9999996229605798 -1.232844275009697e-06
vn 3.7499224767573424e-07 0.9999996229605798 -1.232844275009697e-06
vn -6.921755497619995e-05 -1.226015469066835e-06 -1.000000510055818
vn -6.921755497619995e-05 -1.226015469066835e-06 -1.000000510055818
vn -3.7499224767573424e-07 -0.9999996229605798 1.232844275009697e-06
vn -3.7499224767573424e-07 -0.9999996229605798 1.232844275009697e-06
vn -3.7499224767573424e-07 -0.9999996229605798 1.232844275009697e-06
vn -3.7499224767573424e-07 -0.9999996229605798 1.232844275009697e-06
vn -1.0000002202886733 3.1225728537113544e-07 6.921885546390036e-05
vn -1.0000002202886733 3.1225728537113544e-07 6.921885546390036e-05
vn -1.0000002202886733 3.1225728537113544e-07 6.921885546390036e-05
vn -1.0000002202886733 3.1225728537113544e-07 6.921885546390036e-05
vn -3.7499224767573424e-07 -0.9999996229605798 1.232844275009697e-06
vn -3.7499224767573424e-07 -0.9999996229605798 1.232844275009697e-06
vn 6.921755497619995e-05 1.226015469066835e-06 1.000000510055818
vn 6.921755497619995e-05 1.226015469066835e-06 1.000000510055818
vn 1.0000002202886733 -3.1225728537113544e-07 -6.921885546390036e-05
vn 1.0000002202886733 -3.1225728537113544e-07 -6.921885546390036e-05
vn 1.0000002202886733 -3.1225728537113544e-07 -6.921885546390036e-05
vn 1.0000002202886733 -3.1225728537113544e-07 -6.921885546390036e-05
vn 3.7499224767573424e-07 0.9999996229605798 -1.232844275009697e-06
vn 3.7499224767573424e-07 0.9999996229605798 -1.232844275009697e-06
vn -6.921755497619995e-05 -1.226015469066835e-06 -1.000000510055818
vn -6.921755497619995e-05 -1.226015469066835e-06 -1.000000510055818
vn -1.0000002202886733 3.1225728537113544e-07 6.921885546390036e-05
vn -1.0000002202886733 3.1225728537113544e-07 6.921885546390036e-05
vn -1.0000002202886733 3.1225728537113544e-07 6.921885546390036e-05
vn -1.0000002202886733 3.1225728537113544e-07 6.921885546390036e-05
vn 1.0000002202886733 -3.1225728537113544e-07 -6.921885546390036e-05
vn 1.0000002202886733 -3.1225728537113544e-07 -6.921885546390036e-05
vn 1.0000002202886733 -3.1225728537113544e-07 -6.921885546390036e-05
vn 1.0000002202886733 -3.1225728537113544e-07 -6.921885546390036e-05
vn 3.7499224767573424e-07 0.9999996229605798 -1.232844275009697e-06
vn 3.7499224767573424e-07 0.9999996229605798 -1.232844275009697e-06
vn -1.0000002202886733 3.1225728537113544e-07 6.921885546390036e-05
vn -1.0000002202886733 3.1225728537113544e-07 6.921885546390036e-05
vn -3.7499224767573424e-07 -0.9999996229605798 1.232844275009697e-06
vn -3.7499224767573424e-07 -0.9999996229605798 1.232844275009697e-06
vn -3.7499224767573424e-07 -0.9999996229605798 1.232844275009697e-06
vn -3.7499224767573424e-07 -0.9999996229605798 1.232844275009697e-06
vn -1.000000279226055 3.128304972158585e-07 2.9291068260194685e-05
vn -1.000000279226055 3.128304972158585e-07 2.9291068260194685e-05
vn -2.9275122871602795e-05 2.5759572188919274e-06 -1.000000445802743
vn -2.9275122871602795e-05 2.5759572188919274e-06 -1.000000445802743
vn 1.000000279226055 -3.128304972158585e-07 -2.9291068260194685e-05
vn 1.000000279226055 -3.128304972158585e-07 -2.9291068260194685e-05
vn 1.000000279226055 -3.128304972158585e-07 -2.9291068260194685e-05
vn 1.000000279226055 -3.128304972158585e-07 -2.9291068260194685e-05
vn 3.5889588832627156e-07 0.999999535501516 2.5502880089809976e-06
vn 3.5889588832627156e-07 0.999999535501516 2.5502880089809976e-06
vn 3.5889588832627156e-07 0.999999535501516 2.5502880089809976e-06
vn 3.5889588832627156e-07 0.999999535501516 2.5502880089809976e-06
vn -1.000000279226055 3.128304972158585e-07 2.9291068260194685e-05
vn -1.000000279226055 3.128304972158585e-07 2.9291068260194685e-05
vn -2.9275122871602795e-05 2.5759572188919274e-06 -1.000000445802743
vn -2.9275122871602795e-05 2.5759572188919274e-06 -1.000000445802743
vn 1.000000279226055 -3.128304972158585e-07 -2.9291068260194685e-05
vn 1.000000279226055 -3.128304972158585e-07 -2.9291068260194685e-05
vn 1.000000279226055 -3.128304972158585e-07 -2.9291068260194685e-05
vn 1.000000279226055 -3.128304972158585e-07 -2.9291068260194685e-05
vn 3.5889588832627156e-07 0.999999535501516 2.5502880089809976e-06
vn 3.5889588832627156e-07 0.999999535501516 2.5502880089809976e-06
vn 3.5889588832627156e-07 0.999999535501516 2.5502880089809976e-06
vn 3.5889588832627156e-07 0.999999535501516 2.5502880089809976e-06
vn 3.5889588832627156e-07 0.999999535501516 2.5502880089809976e-06
vn 3.5889588832627156e-07 0.999999535501516 2.5502880089809976e-06
vn -2.9275122871602795e-05 2.5759572188919274e-06 -1.000000445802743
vn -2.9275122871602795e-05 2.5759572188919274e-06 -1.000000445802743
vn -3.5889588832627156e-07 -0.999999535501516 -2.5502880089809976e-06
vn -3.5889588832627156e-07 -0.999999535501516 -2.5502880089809976e-06
vn -3.5889588832627156e-07 -0.999999535501516 -2.5502880089809976e-06
vn -3.5889588832627156e-07 -0.999999535501516 -2.5502880089809976e-06
vn 1.000000279226055 -3.128304972158585e-07 -2.9291068260194685e-05
vn 1.000000279226055 -3.128304972158585e-07 -2.9291068260194685e-05
vn 1.000000279226055 -3.128304972158585e-07 -2.9291068260194685e-05
vn 1.000000279226055 -3.128304972158585e-07 -2.9291068260194685e-05
vn 3.5889588832627156e-07 0.999999535501516 2.5502880089809976e-06
vn 3.5889588832627156e-07 0.999999535501516 2.5502880089809976e-06
vn -2.9275122871602795e-05 2.5759572188919274e-06 -1.000000445802743
vn -2.9275122871602795e-05 2.5759572188919274e-06 -1.000000445802743
vn -3.5889588832627156e-07 -0.999999535501516 -2.5502880089809976e-06
vn -3.5889588832627156e-07 -0.999999535501516 -2.5502880089809976e-06
vn -3.5889588832627156e-07 -0.999999535501516 -2.5502880089809976e-06
vn -3.5889588832627156e-07 -0.999999535501516 -2.5502880089809976e-06
vn 1.000000279226055 -3.128304972158585e-07 -2.9291068260194685e-05
vn 1.000000279226055 -3.128304972158585e-07 -2.9291068260194685e-05
vn 1.000000279226055 -3.128304972158585e-07 -2.9291068260194685e-05
vn 1.000000279226055 -3.128304972158585e-07 -2.9291068260194685e-05
vn -3.5889588832627156e-07 -0.999999535501516 -2.5502880089809976e-06
vn -3.5889588832627156e-07 -0.999999535501516 -2.5502880089809976e-06
vn 2.9275122871602795e-05 -2.5759572188919274e-06 1.000000445802743
vn 2.9275122871602795e-05 -2.5759572188919274e-06 1.000000445802743
vn -1.000000279226055 3.128304972158585e-07 2.9291068260194685e-05
vn -1.000000279226055 3.128304972158585e-07 2.9291068260194685e-05
vn -1.000000279226055 3.128304972158585e-07 2.9291068260194685e-05
vn -1.000000279226055 3.128304972158585e-07 2.9291068260194685e-05
vn 3.5889588832627156e-07 0.999999535501516 2.5502880089809976e-06
vn 3.5889588832627156e-07 0.999999535501516 2.5502880089809976e-06
vn -2.9275122871602795e-05 2.5759572188919274e-06 -1.000000445802743
vn -2.9275122871602795e-05 2.5759572188919274e-06 -1.000000445802743
vn 1.000000279226055 -3.128304972158585e-07 -2.9291068260194685e-05
vn 1.000000279226055 -3.128304972158585e-07 -2.9291068260194685e-05
vn 1.000000279226055 -3.128304972158585e-07 -2.9291068260194685e-05
vn 1.000000279226055 -3.128304972158585e-07 -2.9291068260194685e-05
vn -1.000000279226055 3.128304972158585e-07 2.9291068260194685e-05
vn -1.000000279226055 3.128304972158585e-07 2.9291068260194685e-05
vn -1.000000279226055 3.128304972158585e-07 2.9291068260194685e-05
vn -1.000000279226055 3.128304972158585e-07 2.9291068260194685e-05
vn 3.5889588832627156e-07 0.999999535501516 2.5502880089809976e-06
vn 3.5889588832627156e-07 0.999999535501516 2.5502880089809976e-06
vn 1.000000279226055 -3.128304972158585e-07 -2.9291068260194685e-05
vn 1.000000279226055 -3.128304972158585e-07 -2.9291068260194685e-05
vn -3.5889588832627156e-07 -0.999999535501516 -2.5502880089809976e-06
vn -3.5889588832627156e-07 -0.999999535501516 -2.5502880089809976e-06
vn -3.5889588832627156e-07 -0.999999535501516 -2.5502880089809976e-06
vn -3.5889588832627156e-07 -0.999999535501516 -2.5502880089809976e-06
vn -9.960918651302174e-13 1.3435874090482966e-07 1.0000000659019268
vn 9.960918651302174e-13 -1.3435874090482966e-07 -1.0000000659019268
vn 5.778028918558907e-08 1.0000001001304033 -1.3435875438391787e-07
vn 5.778028918558907e-08 1.0000001001304033 -1.3435875438391787e-07
vn 5.778028918558907e-08 1.0000001001304033 -1.3435875438391787e-07
vn 5.778028918558907e-08 1.0000001001304033 -1.3435875438391787e-07
vn 5.778028918558907e-08 1.0000001001304033 -1.3435875438391787e-07
vn 5.778028918558907e-08 1.0000001001304033 -1.3435875438391787e-07
vn -5.778028918558907e-08 -1.0000001001304033 1.3435875438391787e-07
vn -5.778028918558907e-08 -1.0000001001304033 1.3435875438391787e-07
vn -5.778028918558907e-08 -1.0000001001304033 1.3435875438391787e-07
vn -5.778028918558907e-08 -1.0000001001304033 1.3435875438391787e-07
vn 0.999999965771626 1.0676742728218083e-08 9.835041961243325e-13
vn 0.999999965771626 1.0676742728218083e-08 9.835041961243325e-13
vn 0.999999965771626 1.0676742728218083e-08 9.835041961243325e-13
vn -0.999999965771626 -1.0676742728218083e-08 -9.835041961243325e-13
vn -0.999999965771626 -1.0676742728218083e-08 -9.835041961243325e-13
vn -0.999999965771626 -1.0676742728218083e-08 -9.835041961243325e-13
vn 5.778028918558907e-08 1.0000001001304033 -1.3435875438391787e-07
vn 5.778028918558907e-08 1.0000001001304033 -1.3435875438391787e-07
vn 5.778028918558907e-08 1.0000001001304033 -1.3435875438391787e-07
vn 5.778028918558907e-08 1.0000001001304033 -1.3435875438391787e-07
vn 5.778028918558907e-08 1.0000001001304033 -1.3435875438391787e-07
vn 5.778028918558907e-08 1.0000001001304033 -1.3435875438391787e-07
vn 5.778028918558907e-08 1.0000001001304033 -1.3435875438391787e-07
vn 5.778028918558907e-08 1.0000001001304033 -1.3435875438391787e-07
vn -5.778028918558907e-08 -1.0000001001304033 1.3435875438391787e-07
vn -5.778028918558907e-08 -1.0000001001304033 1.3435875438391787e-07
vn 9.960918651302174e-13 -1.3435874090482966e-07 -1.0000000659019268
vn 9.960918651302174e-13 -1.3435874090482966e-07 -1.0000000659019268
vn 9.960918651302174e-13 -1.3435874090482966e-07 -1.0000000659019268
vn -9.960918651302174e-13 1.3435874090482966e-07 1.0000000659019268
vn -9.960918651302174e-13 1.3435874090482966e-07 1.0000000659019268
vn -5.778028918558907e-08 -1.0000001001304033 1.3435875438391787e-07
vn -5.778028918558907e-08 -1.0000001001304033 1.3435875438391787e-07
vn -5.778028918558907e-08 -1.0000001001304033 1.3435875438391787e-07
vn -0.9999999657781361 -0.00011268060153008178 1.415468503904121e-11
vn -0.9999999657781361 -0.00011268060153008178 1.415468503904121e-11
vn -0.9999999657781361 -0.00011268060153008178 1.415468503904121e-11
vn -0.9999999657781361 -0.00011268060153008178 1.415468503904121e-11
vn 0.9999999657651117 -0.00011273026867400871 1.6131235673633918e-11
vn 0.9999999657651117 -0.00011273026867400871 1.6131235673633918e-11
vn 0.9999999657651117 -0.00011273026867400871 1.6131235673633918e-11
vn 0.9999999657651117 -0.00011273026867400871 1.6131235673633918e-11
vn 9.960918651302174e-13 -1.3435874090482966e-07 -1.0000000659019268
vn 9.960918651302174e-13 -1.3435874090482966e-07 -1.0000000659019268
vn 9.960918651302174e-13 -1.3435874090482966e-07 -1.0000000659019268
vn 9.960918651302174e-13 -1.3435874090482966e-07 -1.0000000659019268
vn -9.960918651302174e-13 1.3435874090482966e-07 1.0000000659019268
vn -9.960918651302174e-13 1.3435874090482966e-07 1.0000000659019268
vn -9.960918651302174e-13 1.3435874090482966e-07 1.0000000659019268
vn -9.960918651302174e-13 1.3435874090482966e-07 1.0000000659019268
vn -9.960918651302174e-13 1.3435874090482966e-07 1.0000000659019268
vn 9.960918651302174e-13 -1.3435874090482966e-07 -1.0000000659019268
vn -9.960918651302174e-13 1.3435874090482966e-07 1.0000000659019268
vn -9.960918651302174e-13 1.3435874090482966e-07 1.0000000659019268
vn -9.960918651302174e-13 1.3435874090482966e-07 1.0000000659019268
vn -9.960918651302174e-13 1.3435874090482966e-07 1.0000000659019268
vn -9.960918651302174e-13 1.3435874090482966e-07 1.0000000659019268
vn 9.960918651302174e-13 -1.3435874090482966e-07 -1.0000000659019268
vn 9.960918651302174e-13 -1.3435874090482966e-07 -1.0000000659019268
vn 9.960918651302174e-13 -1.3435874090482966e-07 -1.0000000659019268
vn 9.960918651302174e-13 -1.3435874090482966e-07 -1.0000000659019268
vn 9.960918651302174e-13 -1.3435874090482966e-07 -1.0000000659019268
vn 1.0000002202886733 -3.1225728537113544e-07 -6.921885546390036e-05
vn 1.0000002202886733 -3.1225728537113544e-07 -6.921885546390036e-05
vn 1.0000002202886733 -3.1225728537113544e-07 -6.921885546390036e-05
vn 1.0000002202886733 -3.1225728537113544e-07 -6.921885546390036e-05
vn 1.0000002202886733 -3.1225728537113544e-07 -6.921885546390036e-05
vn 1.0000002202886733 -3.1225728537113544e-07 -6.921885546390036e-05
vn 1.0000002202886733 -3.1225728537113544e-07 -6.921885546390036e-05
vn 1.0000002202886733 -3.1225728537113544e-07 -6.921885546390036e-05
vn -1.000000279226055 3.128304972158585e-07 2.9291068260194685e-05
vn -1.000000279226055 3.128304972158585e-07 2.9291068260194685e-05
vn -1.000000279226055 3.128304972158585e-07 2.9291068260194685e-05
vn -1.000000279226055 3.128304972158585e-07 2.9291068260194685e-05
vn -1.000000279226055 3.128304972158585e-07 2.9291068260194685e-05
vn -1.000000279226055 3.128304972158585e-07 2.9291068260194685e-05
vn -1.000000279226055 3.128304972158585e-07 2.9291068260194685e-05
vn -1.000000279226055 3.128304972158585e-07 2.9291068260194685e-05
f 4/4/4 3/3/3 1/1/1
f 2/2/2 4/4/4 1/1/1
f 6/6/6 5/5/5 145/145/145
f 146/146/146 6/6/6 145/145/145
f 8/8/8 7/7/7 147/147/147
f 148/148/148 8/8/8 147/147/147
f 151/151/151 150/150/150 149/149/149
f 152/152/152 151/151/151 149/149/149
f 155/155/155 154/154/154 153/153/153
f 156/156/156 155/155/155 153/153/153
f 12/12/12 11/11/11 9/9/9
f 10/10/10 12/12/12 9/9/9
f 14/14/14 13/13/13 157/157/157
f 158/158/158 14/14/14 157/157/157
f 16/16/16 15/15/15 159/159/159
f 160/160/160 16/16/16 159/159/159
f 163/163/163 162/162/162 161/161/161
f 164/164/164 163/163/163 161/161/161
f 167/167/167 166/166/166 165/165/165
f 168/168/168 167/167/167 165/165/165
f 20/20/20 19/19/19 17/17/17
f 18/18/18 20/20/20 17/17/17
f 22/22/22 21/21/21 169/169/169
f 170/170/170 22/22/22 169/169/169
f 24/24/24 23/23/23 171/171/171
f 172/172/172 24/24/24 171/171/171
f 175/175/175 174/174/174 173/173/173
f 176/176/176 175/175/175 173/173/173
f 179/179/179 178/178/178 177/177/177
f 180/180/180 179/179/179 177/177/177
f 28/28/28 27/27/27 25/25/25
f 26/26/26 28/28/28 25/25/25
f 30/30/30 29/29/29 181/181/181
f 182/182/182 30/30/30 181/181/181
f 32/32/32 31/31/31 183/183/183
f 184/184/184 32/32/32 183/183/183
f 187/187/187 186/186/186 185/185/185
f 188/188/188 187/187/187 185/185/185
f 191/191/191 190/190/190 189/189/189
f 192/192/192 191/191/191 189/189/189
f 36/36/36 34/34/34 33/33/33
f 35/35/35 36/36/36 33/33/33
f 38/38/38 194/194/194 193/193/193
f 37/37/37 38/38/38 193/193/193
f 40/40/40 196/196/196 195/195/195
f 39/39/39 40/40/40 195/195/195
f 199/199/199 198/198/198 197/197/197
f 200/200/200 199/199/199 197/197/197
f 44/44/44 43/43/43 41/41/41
f 42/42/42 44/44/44 41/41/41
f 46/46/46 45/45/45 201/201/201
f 202/202/202 46/46/46 201/201/201
f 48/48/48 47/47/47 203/203/203
f 204/204/204 48/48/48 203/203/203
f 207/207/207 206/206/206 205/205/205
f 208/208/208 207/207/207 205/205/205
f 211/211/211 210/210/210 209/209/209
f 212/212/212 211/211/211 209/209/209
f 52/52/52 51/51/51 49/49/49
f 50/50/50 52/52/52 49/49/49
f 54/54/54 53/53/53 213/213/213
f 214/214/214 54/54/54 213/213/213
f 56/56/56 55/55/55 215/215/215
f 216/216/216 56/56/56 215/215/215
f 219/219/219 218/218/218 217/217/217
f 220/220/220 219/219/219 217/217/217
f 60/60/60 58/58/58 57/57/57
f 59/59/59 60/60/60 57/57/57
f 62/62/62 222/222/222 221/221/221
f 61/61/61 62/62/62 221/221/221
f 64/64/64 224/224/224 223/223/223
f 63/63/63 64/64/64 223/223/223
f 227/227/227 226/226/226 225/225/225
f 228/228/228 227/227/227 225/225/225
f 231/231/231 230/230/230 229/229/229
f 232/232/232 231/231/231 229/229/229
f 68/68/68 66/66/66 65/65/65
f 67/67/67 68/68/68 65/65/65
f 70/70/70 234/234/234 233/233/233
f 69/69/69 70/70/70 233/233/233
f 72/72/72 236/236/236 235/235/235
f 71/71/71 72/72/72 235/235/235
f 239/239/239 238/238/238 237/237/237
f 240/240/240 239/239/239 237/237/237
f 243/243/243 242/242/242 241/241/241
f 244/244/244 243/243/243 241/241/241
f 76/76/76 74/74/74 73/73/73
f 75/75/75 76/76/76 73/73/73
f 78/78/78 246/246/246 245/245/245
f 77/77/77 78/78/78 245/245/245
f 80/80/80 248/248/248 247/247/247
f 79/79/79 80/80/80 247/247/247
f 251/251/251 250/250/250 249/249/249
f 252/252/252 251/251/251 249/249/249
f 255/255/255 254/254/254 253/253/253
f 256/256/256 255/255/255 253/253/253
f 84/84/84 82/82/82 81/81/81
f 83/83/83 84/84/84 81/81/81
f 86/86/86 258/258/258 257/257/257
f 85/85/85 86/86/86 257/257/257
f 88/88/88 260/260/260 259/259/259
f 87/87/87 88/88/88 259/259/259
f 263/263/263 262/262/262 261/261/261
f 264/264/264 263/263/263 261/261/261
f 267/267/267 266/266/266 265/265/265
f 268/268/268 267/267/267 265/265/265
f 92/92/92 91/91/91 89/89/89
f 90/90/90 92/92/92 89/89/89
f 94/94/94 93/93/93 269/269/269
f 270/270/270 94/94/94 269/269/269
f 96/96/96 95/95/95 271/271/271
f 272/272/272 96/96/96 271/271/271
f 275/275/275 274/274/274 273/273/273
f 276/276/276 275/275/275 273/273/273
f 100/100/100 98/98/98 97/97/97
f 99/99/99 100/100/100 97/97/97
f 102/102/102 278/278/278 277/277/277
f 101/101/101 102/102/102 277/277/277
f 104/104/104 280/280/280 279/279/279
f 103/103/103 104/104/104 279/279/279
f 283/283/283 282/282/282 281/281/281
f 284/284/284 283/283/283 281/281/281
f 287/287/287 286/286/286 285/285/285
f 288/288/288 287/287/287 285/285/285
f 108/108/108 106/106/106 105/105/105
f 107/107/107 108/108/108 105/105/105
f 110/110/110 290/290/290 289/289/289
f 109/109/109 110/110/110 289/289/289
f 112/112/112 292/292/292 291/291/291
f 111/111/111 112/112/112 291/291/291
f 295/295/295 294/294/294 293/293/293
f 296/296/296 295/295/295 293/293/293
f 115/115/115 116/116/116 114/114/114
f 113/113/113 115/115/115 114/114/114
f 128/128/128 123/123/123 297/297/297
f 297/297/297 348/348/348 128/128/128
f 348/348/348 349/349/349 128/128/128
f 349/349/349 345/345/345 128/128/128
f 349/349/349 347/347/347 345/345/345
f 347/347/347 346/346/346 345/345/345
f 118/118/118 120/120/120 119/119/119
f 117/117/117 118/118/118 119/119/119
f 126/126/126 122/122/122 298/298/298
f 126/126/126 298/298/298 344/344/344
f 341/341/341 126/126/126 344/344/344
f 350/350/350 341/341/341 344/344/344
f 350/350/350 343/343/343 341/341/341
f 343/343/343 342/342/342 341/341/341
f 301/301/301 300/300/300 299/299/299
f 124/124/124 301/301/301 299/299/299
f 303/303/303 121/121/121 302/302/302
f 304/304/304 303/303/303 302/302/302
f 310/310/310 311/311/311 137/137/137
f 134/134/134 310/310/310 137/137/137
f 310/310/310 134/134/134 309/309/309
f 134/134/134 133/133/133 309/309/309
f 125/125/125 309/309/309 133/133/133
f 138/138/138 125/125/125 133/133/133
f 313/313/313 312/312/312 140/140/140
f 135/135/135 313/313/313 140/140/140
f 313/313/313 135/135/135 314/314/314
f 135/135/135 136/136/136 314/314/314
f 127/127/127 314/314/314 136/136/136
f 139/139/139 127/127/127 136/136/136
f 317/317/317 316/316/316 315/315/315
f 318/318/318 317/317/317 315/315/315
f 321/321/321 320/320/320 319/319/319
f 322/322/322 321/321/321 319/319/319
f 141/141/141 142/142/142 323/323/323
f 324/324/324 141/141/141 323/323/323
f 327/327/327 326/326/326 325/325/325
f 360/360/360 327/327/327 325/325/325
f 360/360/360 325/325/325 358/358/358
f 359/359/359 360/360/360 358/358/358
f 359/359/359 358/358/358 356/356/356
f 358/358/358 357/357/357 356/356/356
f 143/143/143 329/329/329 328/328/328
f 355/355/355 143/143/143 328/328/328
f 355/355/355 328/328/328 353/353/353
f 354/354/354 355/355/355 353/353/353
f 354/354/354 353/353/353 351/351/351
f 353/353/353 352/352/352 351/351/351
f 331/331/331 144/144/144 330/330/330
f 332/332/332 331/331/331 330/330/330
f 335/335/335 334/334/334 333/333/333
f 336/336/336 335/335/335 333/333/333
f 339/339/339 338/338/338 337/337/337
f 340/340/340 339/339/339 337/337/337
f 363/363/363 362/362/362 361/361/361
f 364/364/364 363/363/363 361/361/361
f 367/367/367 366/366/366 365/365/365
f 368/368/368 367/367/367 365/365/365
f 371/371/371 370/370/370 369/369/369
f 372/372/372 371/371/371 369/369/369
f 375/375/375 374/374/374 373/373/373
f 376/376/376 375/375/375 373/373/373
f 308/308/308 132/132/132 307/307/307
f 308/308/308 305/305/305 132/132/132
f 132/132/132 131/131/131 307/307/307
f 305/305/305 130/130/130 132/132/132
f 307/307/307 131/131/131 129/129/129
f 129/129/129 130/130/130 305/305/305
f 306/306/306 307/307/307 129/129/129
f 306/306/306 129/129/129 305/305/305