v -0.26984809056795644 1.9153283726763237 0.17875070618266575
v -0.2698480798254208 1.9153281414008025 -0.19337601683513642
v -0.2366824928739767 1.9500617464004246 0.17875073025690028
v -0.23668250374386016 1.9153283874080982 0.2139413215369337
v 0.23668520089915704 1.9153282855130949 0.21394133520216552
v 0.23668521176904136 1.9500616445054026 0.17875071411980772
v 0.2698507897550151 1.9153282565031697 0.17875072176275333
v 0.2698503534627302 1.9153280252277447 -0.19337600125506174
v 0.23668522251157656 1.9500614132298908 -0.19337599399683225
v 0.23668521367346565 1.9153280104956332 -0.2285670040395334
v -0.23668249096956057 1.915328112390831 -0.2285667047803595
v -0.23668248213144064 1.9500615151248941 -0.19337600766206406
v -0.2698481200595193 1.8113765427954391 0.17875072608489334
v -0.2698481093169841 1.811376311519927 -0.19337598203174663
v -0.23668252046112434 1.8113762825099649 -0.2285666550758075
v 0.23668518418190232 1.8113761806147577 -0.22856696923614359
v 0.26985032397116687 1.8113761953468692 -0.19337596645167193
v 0.2698507602634522 1.811376426622285 0.17875074166498095
v 0.23668517140759285 1.811376455632238 0.21394139980787966
v -0.23668253323542435 1.8113765575272414 0.21394138614264788
v -0.24549318745424498 1.8113765645426005 0.22217766055427862
v -0.2798934099089892 1.8113765492624236 0.18567703929400248
v -0.2798934220285363 1.7686575842788055 0.18567706584369614
v -0.2454931995737921 1.7686575995589824 0.22217768710397232
v -0.2798934108861054 1.7686573443939597 -0.20030222456765262
v -0.27989339876655833 1.8113763093775779 -0.20030225111734629
v 0.24549581303133763 1.7686574938708954 0.222177701277898
v 0.24549582515088475 1.8113764588545136 0.22217767472820432
v 0.2798960497130251 1.8113764287646619 0.18567705545406715
v 0.27989603759347803 1.7686574637810437 0.18567708200376085
v 0.279895571898767 1.7686572238963008 -0.20030220840760168
v 0.2798955840183141 1.811376188879919 -0.20030223495729538
v 0.24549582628117586 1.7686572086157806 -0.23680321709808066
v 0.24549583840072295 1.8113761735993987 -0.23680324364777433
v -0.24549317420441538 1.8113762792876709 -0.2368029597984565
v -0.24549318632396247 1.7686573143040527 -0.2368029332487628
v -0.04970065778419193 1.9500618325034 -0.19337624068306894
v -0.049700659171836005 1.9153280721418793 -0.22856683349300666
v -0.04970070016403753 1.7708388051540798 -0.22856678839689762
v -0.059088709283717 1.7686575543156189 0.21394149232495113
v -0.049700671946142895 1.9153283471593041 0.21394144614404353
v -0.04970066107614809 1.950062063778938 0.17875051213705778
v 0.049701414922529524 1.9153280507450359 -0.22856683062345648
v 0.049701373930328 1.7708387837572364 -0.22856678552734744
v 0.0590893413624199 1.7686575288770598 0.21394136162606875
v 0.0497014021482278 1.9153283257623495 0.21394127019964762
v 0.04970141301821744 1.9500620423820947 0.17875051500660796
v 0.04970142376075437 1.9500618111065458 -0.19337625271468073
v -0.04970064664920023 1.9625858262448375 -0.19792460470343987
v -0.049700664131592194 1.923055681185005 -0.23890590536328066
v 0.04970142744516616 1.9625858048479754 -0.19792463163621404
v 0.049701417413353675 1.92305565978816 -0.23890590249373025
v 0.049701374228795676 1.7708387773315406 -0.23890585259493408
v -0.04970070731615019 1.7708387987283856 -0.23890585546448448
v -0.05908869095573165 1.7686575607412645 0.22428048488672744
v -0.049700677502834426 1.9230559690538214 0.2242805084089428
v 0.05908934106395353 1.7686575353027278 0.22428038399016884
v 0.049701404042115316 1.923055947656893 0.22428037716803365
v 0.04970141644002536 1.9625860417771104 0.18329886345973528
v -0.04970066510492051 1.9625860631739553 0.18329886059018488
v -0.024850194826067977 1.7365620266756467 0.21394151326061103
v 0.024850808693507122 1.7365620159771489 0.21394138058492557
v 0.024850808395040738 1.7365620224028169 0.22428040294902565
v -0.0248501951245335 1.7365620331012963 0.2242805058223868
v -0.04970070263693972 1.8334112601340602 0.21394149705523857
v -0.049700702935338036 1.8334115049780662 0.22428050451802833
v 0.04970138233490144 1.8334114835811461 0.22428038817828141
v 0.049701382633301476 1.833411238737103 0.213941321110843
v -0.05908868221684824 1.8246701302921888 0.21394150221680958
v -0.05908868251531419 1.8246701367178475 0.2242805096797475
v 0.059089356954952196 1.824670111279291 0.22428037898086478
v 0.05908935725341944 1.8246701048536043 0.21394132681444034
v -0.2798934099089892 1.8113765492624236 0.18567703929400248
v -0.2798934220285363 1.7686575842788055 0.18567706584369614
v -0.2366824928739767 1.9500617464004246 0.17875073025690028
v -0.26984809056795644 1.9153283726763237 0.17875070618266575
v -0.23668250374386016 1.9153283874080982 0.2139413215369337
v -0.2366824928739767 1.9500617464004246 0.17875073025690028
v -0.2454931995737921 1.7686575995589824 0.22217768710397232
v -0.24549318745424498 1.8113765645426005 0.22217766055427862
v 0.24549581303133763 1.7686574938708954 0.222177701277898
v 0.24549582515088475 1.8113764588545136 0.22217767472820432
v 0.23668521176904136 1.9500616445054026 0.17875071411980772
v 0.23668520089915704 1.9153282855130949 0.21394133520216552
v 0.2698507897550151 1.9153282565031697 0.17875072176275333
v 0.23668521176904136 1.9500616445054026 0.17875071411980772
v 0.27989603759347803 1.7686574637810437 0.18567708200376085
v 0.2798960497130251 1.8113764287646619 0.18567705545406715
v 0.2698503534627302 1.9153280252277447 -0.19337600125506174
v 0.23668522251157656 1.9500614132298908 -0.19337599399683225
v 0.279895571898767 1.7686572238963008 -0.20030220840760168
v 0.2798955840183141 1.811376188879919 -0.20030223495729538
v 0.24549582628117586 1.7686572086157806 -0.23680321709808066
v 0.24549583840072295 1.8113761735993987 -0.23680324364777433
v -0.23668248213144064 1.9500615151248941 -0.19337600766206406
v 0.23668521367346565 1.9153280104956332 -0.2285670040395334
v 0.23668522251157656 1.9500614132298908 -0.19337599399683225
v -0.27989339876655833 1.8113763093775779 -0.20030225111734629
v -0.2798934108861054 1.7686573443939597 -0.20030222456765262
v -0.24549318632396247 1.7686573143040527 -0.2368029332487628
v -0.24549317420441538 1.8113762792876709 -0.2368029597984565
v -0.23668248213144064 1.9500615151248941 -0.19337600766206406
v -0.2698480798254208 1.9153281414008025 -0.19337601683513642
v -0.23668249096956057 1.915328112390831 -0.2285667047803595
v -0.2366824928739767 1.9500617464004246 0.17875073025690028
v -0.23668248213144064 1.9500615151248941 -0.19337600766206406
v 0.23668522251157656 1.9500614132298908 -0.19337599399683225
v 0.23668521176904136 1.9500616445054026 0.17875071411980772
v -0.2698480798254208 1.9153281414008025 -0.19337601683513642
v -0.26984809056795644 1.9153283726763237 0.17875070618266575
v -0.23668249096956057 1.915328112390831 -0.2285667047803595
v -0.2698480798254208 1.9153281414008025 -0.19337601683513642
v -0.2698481093169841 1.811376311519927 -0.19337598203174663
v -0.23668249096956057 1.915328112390831 -0.2285667047803595
v -0.23668252046112434 1.8113762825099649 -0.2285666550758075
v 0.23668521367346565 1.9153280104956332 -0.2285670040395334
v 0.2698503534627302 1.9153280252277447 -0.19337600125506174
v 0.23668521367346565 1.9153280104956332 -0.2285670040395334
v 0.23668518418190232 1.8113761806147577 -0.22856696923614359
v 0.2698507897550151 1.9153282565031697 0.17875072176275333
v 0.2698503534627302 1.9153280252277447 -0.19337600125506174
v 0.26985032397116687 1.8113761953468692 -0.19337596645167193
v 0.23668520089915704 1.9153282855130949 0.21394133520216552
v 0.2698507897550151 1.9153282565031697 0.17875072176275333
v 0.2698507602634522 1.811376426622285 0.17875074166498095
v -0.23668250374386016 1.9153283874080982 0.2139413215369337
v 0.23668520089915704 1.9153282855130949 0.21394133520216552
v 0.23668517140759285 1.811376455632238 0.21394139980787966
v -0.26984809056795644 1.9153283726763237 0.17875070618266575
v -0.23668250374386016 1.9153283874080982 0.2139413215369337
v -0.23668253323542435 1.8113765575272414 0.21394138614264788
v -0.2698481200595193 1.8113765427954391 0.17875072608489334
v -0.23668253323542435 1.8113765575272414 0.21394138614264788
v -0.24549318745424498 1.8113765645426005 0.22217766055427862
v -0.2798934099089892 1.8113765492624236 0.18567703929400248
v -0.2698481200595193 1.8113765427954391 0.17875072608489334
v -0.2698481200595193 1.8113765427954391 0.17875072608489334
v -0.2798934099089892 1.8113765492624236 0.18567703929400248
v -0.27989339876655833 1.8113763093775779 -0.20030225111734629
v -0.2698481093169841 1.811376311519927 -0.19337598203174663
v 0.23668517140759285 1.811376455632238 0.21394139980787966
v 0.24549582515088475 1.8113764588545136 0.22217767472820432
v 0.2698507602634522 1.811376426622285 0.17875074166498095
v 0.2798960497130251 1.8113764287646619 0.18567705545406715
v 0.26985032397116687 1.8113761953468692 -0.19337596645167193
v 0.2798955840183141 1.811376188879919 -0.20030223495729538
v 0.2798960497130251 1.8113764287646619 0.18567705545406715
v 0.2698507602634522 1.811376426622285 0.17875074166498095
v 0.23668518418190232 1.8113761806147577 -0.22856696923614359
v 0.24549583840072295 1.8113761735993987 -0.23680324364777433
v 0.2798955840183141 1.811376188879919 -0.20030223495729538
v 0.26985032397116687 1.8113761953468692 -0.19337596645167193
v -0.23668252046112434 1.8113762825099649 -0.2285666550758075
v -0.24549317420441538 1.8113762792876709 -0.2368029597984565
v -0.2698481093169841 1.811376311519927 -0.19337598203174663
v -0.27989339876655833 1.8113763093775779 -0.20030225111734629
v 0.24549582628117586 1.7686572086157806 -0.23680321709808066
v 0.24549581303133763 1.7686574938708954 0.222177701277898
v 0.27989603759347803 1.7686574637810437 0.18567708200376085
v 0.279895571898767 1.7686572238963008 -0.20030220840760168
v -0.24549318632396247 1.7686573143040527 -0.2368029332487628
v -0.2454931995737921 1.7686575995589824 0.22217768710397232
v -0.2798934108861054 1.7686573443939597 -0.20030222456765262
v -0.2798934220285363 1.7686575842788055 0.18567706584369614
v 0.049701417413353675 1.92305565978816 -0.23890590249373025
v -0.049700664131592194 1.923055681185005 -0.23890590536328066
v 0.049701404042115316 1.923055947656893 0.22428037716803365
v -0.049700677502834426 1.9230559690538214 0.2242805084089428
v 0.04970141644002536 1.9625860417771104 0.18329886345973528
v -0.04970066510492051 1.9625860631739553 0.18329886059018488
v -0.04970064664920023 1.9625858262448375 -0.19792460470343987
v 0.04970142744516616 1.9625858048479754 -0.19792463163621404
v -0.049700664131592194 1.923055681185005 -0.23890590536328066
v -0.04970064664920023 1.9625858262448375 -0.19792460470343987
v 0.04970142744516616 1.9625858048479754 -0.19792463163621404
v 0.049701417413353675 1.92305565978816 -0.23890590249373025
v 0.049701374228795676 1.7708387773315406 -0.23890585259493408
v 0.049701373930328 1.7708387837572364 -0.22856678552734744
v 0.049701374228795676 1.7708387773315406 -0.23890585259493408
v -0.04970070731615019 1.7708387987283856 -0.23890585546448448
v -0.04970070731615019 1.7708387987283856 -0.23890585546448448
v -0.04970070016403753 1.7708388051540798 -0.22856678839689762
v -0.049700677502834426 1.9230559690538214 0.2242805084089428
v -0.049700702935338036 1.8334115049780662 0.22428050451802833
v 0.04970138233490144 1.8334114835811461 0.22428038817828141
v 0.049701404042115316 1.923055947656893 0.22428037716803365
v 0.04970141644002536 1.9625860417771104 0.18329886345973528
v -0.04970066510492051 1.9625860631739553 0.18329886059018488
v -0.024850194826067977 1.7365620266756467 0.21394151326061103
v 0.024850808693507122 1.7365620159771489 0.21394138058492557
v 0.0590893413624199 1.7686575288770598 0.21394136162606875
v 0.024850808693507122 1.7365620159771489 0.21394138058492557
v 0.024850808395040738 1.7365620224028169 0.22428040294902565
v 0.05908934106395353 1.7686575353027278 0.22428038399016884
v 0.024850808395040738 1.7365620224028169 0.22428040294902565
v -0.0248501951245335 1.7365620331012963 0.2242805058223868
v -0.05908869095573165 1.7686575607412645 0.22428048488672744
v -0.0248501951245335 1.7365620331012963 0.2242805058223868
v -0.024850194826067977 1.7365620266756467 0.21394151326061103
v -0.059088709283717 1.7686575543156189 0.21394149232495113
v -0.049700702935338036 1.8334115049780662 0.22428050451802833
v -0.04970070263693972 1.8334112601340602 0.21394149705523857
v 0.04970138233490144 1.8334114835811461 0.22428038817828141
v -0.05908868251531419 1.8246701367178475 0.2242805096797475
v -0.049700702935338036 1.8334115049780662 0.22428050451802833
v 0.059089356954952196 1.824670111279291 0.22428037898086478
v 0.04970138233490144 1.8334114835811461 0.22428038817828141
v 0.049701382633301476 1.833411238737103 0.213941321110843
v -0.05908868251531419 1.8246701367178475 0.2242805096797475
v -0.05908869095573165 1.7686575607412645 0.22428048488672744
v -0.059088709283717 1.7686575543156189 0.21394149232495113
v -0.05908868221684824 1.8246701302921888 0.21394150221680958
v 0.0590893413624199 1.7686575288770598 0.21394136162606875
v 0.05908934106395353 1.7686575353027278 0.22428038399016884
v 0.059089356954952196 1.824670111279291 0.22428037898086478
v 0.05908935725341944 1.8246701048536043 0.21394132681444034
vt 0.2988487184047699 0.5730379223823547
vt 0.2988487184047699 0.740605890750885
vt 0.32045111060142517 0.5730379223823547
vt 0.6452304124832153 0.5295629501342773
vt 0.6452304124832153 0.3170134723186493
vt 0.6672754883766174 0.3161235749721527
vt 0.6491008400917053 0.29649195075035095
vt 0.5549801588058472 0.740605890750885
vt 0.5333778858184814 0.740605890750885
vt 0.6716041564941406 0.808313250541687
vt 0.6716041564941406 0.5957636833190918
vt 0.32045093178749084 0.740605890750885
vt 0.25208964943885803 0.5730379223823547
vt 0.25208932161331177 0.7406057119369507
vt 0.6249654293060303 0.5949516892433167
vt 0.6249653100967407 0.8091248273849487
vt 0.6265980005264282 0.8315295577049255
vt 0.6017391681671143 0.5730381011962891
vt 0.5985914468765259 0.31620147824287415
vt 0.5985913872718811 0.5303743481636047
vt 0.4593096375465393 0.8676091432571411
vt 0.43602997064590454 0.8676091432571411
vt 0.43602997064590454 0.8481380939483643
vt 0.4593096375465393 0.8481380939483643
vt 0.2651381492614746 0.8481380939483643
vt 0.2651381492614746 0.8676091432571411
vt 0.6573431491851807 0.8481380939483643
vt 0.6573431491851807 0.8676091432571411
vt 0.6773541569709778 0.8676091432571411
vt 0.6773541569709778 0.8481380939483643
vt 0.7983044385910034 0.8481380939483643
vt 0.7983044385910034 0.8676091432571411
vt 0.03974713385105133 0.8481380939483643
vt 0.03974713385105133 0.8676091432571411
vt 0.2417895793914795 0.8676091432571411
vt 0.2417895793914795 0.8481380939483643
vt 0.346466064453125 0.7673918604850769
vt 0.3183773458003998 0.7673918604850769
vt 0.25003018975257874 0.7673918604850769
vt 0.5694093704223633 0.5460888147354126
vt 0.5439934134483337 0.7673918008804321
vt 0.5163607001304626 0.7673918008804321
vt 0.31837743520736694 0.8232138156890869
vt 0.2500302195549011 0.8232138156890869
vt 0.5162511467933655 0.546089231967926
vt 0.5439934134483337 0.8232137560844421
vt 0.5163607001304626 0.8232137560844421
vt 0.346466064453125 0.8232138156890869
vt 0.3450598418712616 0.7726382613182068
vt 0.320743590593338 0.7726382613182068
vt 0.34514448046684265 0.8178240656852722
vt 0.3207564651966095 0.8178240656852722
vt 0.2526707649230957 0.8178240656852722
vt 0.2526708245277405 0.7726383805274963
vt 0.5162513256072998 0.47751715779304504
vt 0.5421580672264099 0.7726383209228516
vt 0.573227047920227 0.3252509832382202
vt 0.5422364473342896 0.817824125289917
vt 0.5177770256996155 0.817824125289917
vt 0.517678439617157 0.7726383209228516
vt 0.56857830286026 0.3687146008014679
vt 0.5685773491859436 0.3463595509529114
vt 0.5732277631759644 0.3463594317436218
vt 0.5732285976409912 0.3687143325805664
vt 0.5823216438293457 0.7673918008804321
vt 0.5823216438293457 0.7726383209228516
vt 0.5823216438293457 0.817824125289917
vt 0.5823217034339905 0.8232137560844421
vt 0.5685797333717346 0.4150168001651764
vt 0.5732300877571106 0.4150165617465973
vt 0.5694088935852051 0.5027124285697937
vt 0.5685757398605347 0.3000573515892029
vt 0.43602997064590454 0.8676091432571411
vt 0.43602997064590454 0.8481380939483643
vt 0.6672754883766174 0.530369222164154
vt 0.6491008400917053 0.5497323274612427
vt 0.6452304124832153 0.5295629501342773
vt 0.6672754883766174 0.530369222164154
vt 0.4593096375465393 0.8481380939483643
vt 0.4593096375465393 0.8676091432571411
vt 0.6573431491851807 0.8481380939483643
vt 0.6573431491851807 0.8676091432571411
vt 0.6672754883766174 0.3161235749721527
vt 0.6452304124832153 0.3170134723186493
vt 0.5549801588058472 0.5730379223823547
vt 0.5333778858184814 0.5730379223823547
vt 0.6773541569709778 0.8481380939483643
vt 0.6773541569709778 0.8676091432571411
vt 0.6754745841026306 0.8284828066825867
vt 0.6936492323875427 0.8091195225715637
vt 0.019999999552965164 0.8481380939483643
vt 0.019999999552965164 0.8676091432571411
vt 0.03974713385105133 0.8481380939483643
vt 0.03974713385105133 0.8676091432571411
vt 0.6936492323875427 0.5948737859725952
vt 0.6716041564941406 0.808313250541687
vt 0.6936492323875427 0.8091195225715637
vt 0.2651381492614746 0.8676091432571411
vt 0.2651381492614746 0.8481380939483643
vt 0.2417895793914795 0.8481380939483643
vt 0.2417895793914795 0.8676091432571411
vt 0.6936492323875427 0.5948737859725952
vt 0.6754745841026306 0.5752422213554382
vt 0.6716041564941406 0.5957636833190918
vt 0.32045111060142517 0.5730379223823547
vt 0.32045093178749084 0.740605890750885
vt 0.5333778858184814 0.740605890750885
vt 0.5333778858184814 0.5730379223823547
vt 0.2988487184047699 0.740605890750885
vt 0.2988487184047699 0.5730379223823547
vt 0.6716041564941406 0.5957636833190918
vt 0.6754745841026306 0.5752422213554382
vt 0.6265980005264282 0.5730379223823547
vt 0.6716041564941406 0.5957636833190918
vt 0.6249654293060303 0.5949516892433167
vt 0.6716041564941406 0.808313250541687
vt 0.6754745841026306 0.8284828066825867
vt 0.6716041564941406 0.808313250541687
vt 0.6249653100967407 0.8091248273849487
vt 0.5549801588058472 0.5730379223823547
vt 0.5549801588058472 0.740605890750885
vt 0.6017388701438904 0.740605890750885
vt 0.6452304124832153 0.3170134723186493
vt 0.6491008400917053 0.29649195075035095
vt 0.6002241373062134 0.294287770986557
vt 0.6452304124832153 0.5295629501342773
vt 0.6452304124832153 0.3170134723186493
vt 0.5985914468765259 0.31620147824287415
vt 0.6491008400917053 0.5497323274612427
vt 0.6452304124832153 0.5295629501342773
vt 0.5985913872718811 0.5303743481636047
vt 0.6002241373062134 0.5527792572975159
vt 0.4593096375465393 0.8723651170730591
vt 0.4593096375465393 0.8676091432571411
vt 0.43602997064590454 0.8676091432571411
vt 0.43602997064590454 0.8723651170730591
vt 0.43602997064590454 0.8723651170730591
vt 0.43602997064590454 0.8676091432571411
vt 0.2651381492614746 0.8676091432571411
vt 0.2651381492614746 0.8723651170730591
vt 0.6573431491851807 0.8723651170730591
vt 0.6573431491851807 0.8676091432571411
vt 0.6773541569709778 0.8723651170730591
vt 0.6773541569709778 0.8676091432571411
vt 0.7983044385910034 0.8723651170730591
vt 0.7983044385910034 0.8676091432571411
vt 0.6773541569709778 0.8676091432571411
vt 0.6773541569709778 0.8723651170730591
vt 0.03974713385105133 0.8723651170730591
vt 0.03974713385105133 0.8676091432571411
vt 0.019999999552965164 0.8676091432571411
vt 0.019999999552965164 0.8723651170730591
vt 0.2417895793914795 0.8723651170730591
vt 0.2417895793914795 0.8676091432571411
vt 0.2651381492614746 0.8723651170730591
vt 0.2651381492614746 0.8676091432571411
vt 0.021129045635461807 0.589323878288269
vt 0.22758521139621735 0.589323878288269
vt 0.21116676926612854 0.5738500952720642
vt 0.03754784166812897 0.5738503336906433
vt 0.021129386499524117 0.8101778030395508
vt 0.22758521139621735 0.8101778030395508
vt 0.03754784166812897 0.8256514668464661
vt 0.21116676926612854 0.8256514668464661
vt 0.3207564651966095 0.8178240656852722
vt 0.320743590593338 0.7726382613182068
vt 0.5422364473342896 0.817824125289917
vt 0.5421580672264099 0.7726383209228516
vt 0.5177770256996155 0.817824125289917
vt 0.517678439617157 0.7726383209228516
vt 0.3450598418712616 0.7726382613182068
vt 0.34514448046684265 0.8178240656852722
vt 0.320743590593338 0.7726382613182068
vt 0.3450598418712616 0.7726382613182068
vt 0.34514448046684265 0.8178240656852722
vt 0.3207564651966095 0.8178240656852722
vt 0.2526707649230957 0.8178240656852722
vt 0.2500302195549011 0.8232138156890869
vt 0.2526707649230957 0.8178240656852722
vt 0.2526708245277405 0.7726383805274963
vt 0.2526708245277405 0.7726383805274963
vt 0.25003018975257874 0.7673918604850769
vt 0.5421580672264099 0.7726383209228516
vt 0.5823216438293457 0.7726383209228516
vt 0.5823216438293457 0.817824125289917
vt 0.5422364473342896 0.817824125289917
vt 0.5177770256996155 0.817824125289917
vt 0.517678439617157 0.7726383209228516
vt 0.5540082454681396 0.5316519737243652
vt 0.5316521525382996 0.5316521525382996
vt 0.5685766935348511 0.3252512514591217
vt 0.5685773491859436 0.3463595509529114
vt 0.5732277631759644 0.3463594317436218
vt 0.5694090723991394 0.47751715779304504
vt 0.5540080666542053 0.4630802571773529
vt 0.5316521525382996 0.4630802571773529
vt 0.5732293725013733 0.3898228108882904
vt 0.5732285976409912 0.3687143325805664
vt 0.56857830286026 0.3687146008014679
vt 0.5685790181159973 0.3898228704929352
vt 0.5732301473617554 0.4207862913608551
vt 0.5685798525810242 0.4207863211631775
vt 0.5651862025260925 0.5066443085670471
vt 0.5162511467933655 0.5027123093605042
vt 0.5204738974571228 0.5066443085670471
vt 0.5732260346412659 0.30005723237991333
vt 0.5732258558273315 0.2942875325679779
vt 0.5685755610466003 0.294287770986557
vt 0.5732300877571106 0.4150165617465973
vt 0.5732293725013733 0.3898228108882904
vt 0.5685790181159973 0.3898228704929352
vt 0.5685797333717346 0.4150168001651764
vt 0.5685766935348511 0.3252512514591217
vt 0.573227047920227 0.3252509832382202
vt 0.5732260346412659 0.30005723237991333
vt 0.5685757398605347 0.3000573515892029
vn -0.7232414661461228 0.690594455087723 -4.5008066553068387e-07
vn -0.7232414661461228 0.690594455087723 -4.5008066553068387e-07
vn -0.7232414661461228 0.690594455087723 -4.5008066553068387e-07
vn -0.5976165064310419 0.5706397127005235 0.5632267226722483
vn 1.8163731753199274e-07 0.7117142504134071 0.7024684164319229
vn 1.8163731753199274e-07 0.7117142504134071 0.7024684164319229
vn 0.5976164996749381 0.570639813047377 0.5632264591529025
vn 0.72324412297079 0.690591759540268 -4.0832187613232753e-07
vn 0.72324412297079 0.690591759540268 -4.0832187613232753e-07
vn 0.597623744354792 0.5706386957309619 -0.5632200409963183
vn 2.221957353231435e-07 0.7117162978758177 -0.7024664400661041
vn -0.7232414661461228 0.690594455087723 -4.5008066553068387e-07
vn -0.9999999657785195 2.1525549576523288e-07 -2.886811076547915e-08
vn -0.9999999657785195 2.1525549576523288e-07 -2.886811076547915e-08
vn -0.7277358919381931 -2.696089716259697e-07 -0.6858574814069264
vn 2.8867951907601936e-08 -6.214967163839758e-07 -1.0000000659018682
vn 0.7277437993493893 -5.829037616551166e-07 -0.6858490351345088
vn 0.9999999657785195 -2.1525549576523288e-07 2.886811076547915e-08
vn 0.7277354747056783 2.6960939483438036e-07 0.6858580178487527
vn -2.8867951907601936e-08 6.214967163839758e-07 1.0000000659018682
vn -0.727735335490384 5.829076075087558e-07 0.6858581546460047
vn -0.727735335490384 5.829076075087558e-07 0.6858581546460047
vn -0.727735335490384 5.829076075087558e-07 0.6858581546460047
vn -0.727735335490384 5.829076075087558e-07 0.6858581546460047
vn -0.9999999657785195 2.1525549576523288e-07 -2.886811076547915e-08
vn -0.9999999657785195 2.1525549576523288e-07 -2.886811076547915e-08
vn -2.8867951907601936e-08 6.214967163839758e-07 1.0000000659018682
vn -2.8867951907601936e-08 6.214967163839758e-07 1.0000000659018682
vn 0.727735295891745 2.6960954445733546e-07 0.6858581966626935
vn 0.727735295891745 2.6960954445733546e-07 0.6858581966626935
vn 0.9999999657785195 -2.1525549576523288e-07 2.886811076547915e-08
vn 0.9999999657785195 -2.1525549576523288e-07 2.886811076547915e-08
vn 0.7277435609308253 -5.829038585105712e-07 -0.6858492735531105
vn 0.7277435609308253 -5.829038585105712e-07 -0.6858492735531105
vn 2.8867951907601936e-08 -6.214967163839758e-07 -1.0000000659018682
vn 2.8867951907601936e-08 -6.214967163839758e-07 -1.0000000659018682
vn -0.9999999657785195 2.1525549576523288e-07 -2.886811076547915e-08
vn -0.9999999657785195 2.1525549576523288e-07 -2.886811076547915e-08
vn -2.8370386114413013e-07 -0.9999990272532888 6.214960466219178e-07
vn 2.8867951907601936e-08 -6.214967163839758e-07 -1.0000000659018682
vn -0.9999999657785195 2.1525549576523288e-07 -2.886811076547915e-08
vn -0.9999999657785195 2.1525549576523288e-07 -2.886811076547915e-08
vn 0.9999999657785195 -2.1525549576523288e-07 2.886811076547915e-08
vn 0.9999999657785195 -2.1525549576523288e-07 2.886811076547915e-08
vn 2.8867951907601936e-08 -6.214967163839758e-07 -1.0000000659018682
vn 0.9999999657785195 -2.1525549576523288e-07 2.886811076547915e-08
vn 0.9999999657785195 -2.1525549576523288e-07 2.886811076547915e-08
vn 0.9999999657785195 -2.1525549576523288e-07 2.886811076547915e-08
vn 2.2423307431386186e-07 0.7197335967431383 -0.6942497058064603
vn 2.2423307431386186e-07 0.7197335967431383 -0.6942497058064603
vn 2.2423307431386186e-07 0.7197335967431383 -0.6942497058064603
vn 2.2423307431386186e-07 0.7197335967431383 -0.6942497058064603
vn 2.8867951907601936e-08 -6.214967163839758e-07 -1.0000000659018682
vn 2.8867951907601936e-08 -6.214967163839758e-07 -1.0000000659018682
vn -2.8867951907601936e-08 6.214967163839758e-07 1.0000000659018682
vn -2.8867951907601936e-08 6.214967163839758e-07 1.0000000659018682
vn 0.6839053711152325 -0.7295699455303619 4.7316824911323067e-07
vn -2.8867951907601936e-08 6.214967163839758e-07 1.0000000659018682
vn 1.841505867986975e-07 0.7197364266404181 0.6942467250179566
vn 1.841505867986975e-07 0.7197364266404181 0.6942467250179566
vn -2.8370386114413013e-07 -0.9999990272532888 6.214960466219178e-07
vn -2.8370386114413013e-07 -0.9999990272532888 6.214960466219178e-07
vn -2.8370386114413013e-07 -0.9999990272532888 6.214960466219178e-07
vn -2.8370386114413013e-07 -0.9999990272532888 6.214960466219178e-07
vn -0.9999999657785195 2.1525549576523288e-07 -2.886811076547915e-08
vn -2.8867951907601936e-08 6.214967163839758e-07 1.0000000659018682
vn -2.8867951907601936e-08 6.214967163839758e-07 1.0000000659018682
vn 0.9999999657785195 -2.1525549576523288e-07 2.886811076547915e-08
vn -0.681447274997304 0.7318663905212877 -4.7452452173893215e-07
vn -0.681447274997304 0.7318663905212877 -4.7452452173893215e-07
vn -2.8867951907601936e-08 6.214967163839758e-07 1.0000000659018682
vn 0.6814476902642663 0.7318660971506461 -4.3518031757363035e-07
vn -0.9999999657785195 2.1525549576523288e-07 -2.886811076547915e-08
vn -0.9999999657785195 2.1525549576523288e-07 -2.886811076547915e-08
vn -0.5976165064310419 0.5706397127005235 0.5632267226722483
vn -0.5976165064310419 0.5706397127005235 0.5632267226722483
vn 1.8163731753199274e-07 0.7117142504134071 0.7024684164319229
vn 1.8163731753199274e-07 0.7117142504134071 0.7024684164319229
vn -2.8867951907601936e-08 6.214967163839758e-07 1.0000000659018682
vn -2.8867951907601936e-08 6.214967163839758e-07 1.0000000659018682
vn 0.727735295891745 2.6960954445733546e-07 0.6858581966626935
vn 0.727735295891745 2.6960954445733546e-07 0.6858581966626935
vn 0.5976164996749381 0.570639813047377 0.5632264591529025
vn 0.5976164996749381 0.570639813047377 0.5632264591529025
vn 0.72324412297079 0.690591759540268 -4.0832187613232753e-07
vn 0.72324412297079 0.690591759540268 -4.0832187613232753e-07
vn 0.9999999657785195 -2.1525549576523288e-07 2.886811076547915e-08
vn 0.9999999657785195 -2.1525549576523288e-07 2.886811076547915e-08
vn 0.597623744354792 0.5706386957309619 -0.5632200409963183
vn 0.597623744354792 0.5706386957309619 -0.5632200409963183
vn 0.7277435609308253 -5.829038585105712e-07 -0.6858492735531105
vn 0.7277435609308253 -5.829038585105712e-07 -0.6858492735531105
vn 2.8867951907601936e-08 -6.214967163839758e-07 -1.0000000659018682
vn 2.8867951907601936e-08 -6.214967163839758e-07 -1.0000000659018682
vn 2.221957353231435e-07 0.7117162978758177 -0.7024664400661041
vn 2.221957353231435e-07 0.7117162978758177 -0.7024664400661041
vn 2.221957353231435e-07 0.7117162978758177 -0.7024664400661041
vn -0.7277359515428374 -2.6960892175165137e-07 -0.6858574218022795
vn -0.7277359515428374 -2.6960892175165137e-07 -0.6858574218022795
vn -0.7277359515428374 -2.6960892175165137e-07 -0.6858574218022795
vn -0.7277359515428374 -2.6960892175165137e-07 -0.6858574218022795
vn -0.597616473912315 0.5706402047054666 -0.5632262743848896
vn -0.597616473912315 0.5706402047054666 -0.5632262743848896
vn -0.597616473912315 0.5706402047054666 -0.5632262743848896
vn 2.8370386114413013e-07 0.9999990272532888 -6.214960466219178e-07
vn 2.8370386114413013e-07 0.9999990272532888 -6.214960466219178e-07
vn 2.8370386114413013e-07 0.9999990272532888 -6.214960466219178e-07
vn 2.8370386114413013e-07 0.9999990272532888 -6.214960466219178e-07
vn -0.9999999657785195 2.1525549576523288e-07 -2.886811076547915e-08
vn -0.9999999657785195 2.1525549576523288e-07 -2.886811076547915e-08
vn -0.7277358919381931 -2.696089716259697e-07 -0.6858574814069264
vn -0.7277358919381931 -2.696089716259697e-07 -0.6858574814069264
vn -0.7277358919381931 -2.696089716259697e-07 -0.6858574814069264
vn 2.8867951907601936e-08 -6.214967163839758e-07 -1.0000000659018682
vn 2.8867951907601936e-08 -6.214967163839758e-07 -1.0000000659018682
vn 2.8867951907601936e-08 -6.214967163839758e-07 -1.0000000659018682
vn 0.7277437993493893 -5.829037616551166e-07 -0.6858490351345088
vn 0.7277437993493893 -5.829037616551166e-07 -0.6858490351345088
vn 0.7277437993493893 -5.829037616551166e-07 -0.6858490351345088
vn 0.9999999657785195 -2.1525549576523288e-07 2.886811076547915e-08
vn 0.9999999657785195 -2.1525549576523288e-07 2.886811076547915e-08
vn 0.9999999657785195 -2.1525549576523288e-07 2.886811076547915e-08
vn 0.7277354747056783 2.6960939483438036e-07 0.6858580178487527
vn 0.7277354747056783 2.6960939483438036e-07 0.6858580178487527
vn 0.7277354747056783 2.6960939483438036e-07 0.6858580178487527
vn -2.8867951907601936e-08 6.214967163839758e-07 1.0000000659018682
vn -2.8867951907601936e-08 6.214967163839758e-07 1.0000000659018682
vn -2.8867951907601936e-08 6.214967163839758e-07 1.0000000659018682
vn -0.7277355143043072 5.829075348671648e-07 0.6858579758320534
vn -0.7277355143043072 5.829075348671648e-07 0.6858579758320534
vn -0.7277355143043072 5.829075348671648e-07 0.6858579758320534
vn -0.7277355143043072 5.829075348671648e-07 0.6858579758320534
vn 2.8370386114413013e-07 0.9999990272532888 -6.214960466219178e-07
vn 2.8370386114413013e-07 0.9999990272532888 -6.214960466219178e-07
vn 2.8370386114413013e-07 0.9999990272532888 -6.214960466219178e-07
vn 2.8370386114413013e-07 0.9999990272532888 -6.214960466219178e-07
vn 2.8370386114413013e-07 0.9999990272532888 -6.214960466219178e-07
vn 2.8370386114413013e-07 0.9999990272532888 -6.214960466219178e-07
vn 2.8370386114413013e-07 0.9999990272532888 -6.214960466219178e-07
vn 2.8370386114413013e-07 0.9999990272532888 -6.214960466219178e-07
vn 2.8370386114413013e-07 0.9999990272532888 -6.214960466219178e-07
vn 2.8370386114413013e-07 0.9999990272532888 -6.214960466219178e-07
vn 2.8370386114413013e-07 0.9999990272532888 -6.214960466219178e-07
vn 2.8370386114413013e-07 0.9999990272532888 -6.214960466219178e-07
vn 2.8370386114413013e-07 0.9999990272532888 -6.214960466219178e-07
vn 2.8370386114413013e-07 0.9999990272532888 -6.214960466219178e-07
vn 2.8370386114413013e-07 0.9999990272532888 -6.214960466219178e-07
vn 2.8370386114413013e-07 0.9999990272532888 -6.214960466219178e-07
vn 2.8370386114413013e-07 0.9999990272532888 -6.214960466219178e-07
vn 2.8370386114413013e-07 0.9999990272532888 -6.214960466219178e-07
vn 2.8370386114413013e-07 0.9999990272532888 -6.214960466219178e-07
vn 2.8370386114413013e-07 0.9999990272532888 -6.214960466219178e-07
vn 2.8370386114413013e-07 0.9999990272532888 -6.214960466219178e-07
vn 2.8370386114413013e-07 0.9999990272532888 -6.214960466219178e-07
vn 2.8370386114413013e-07 0.9999990272532888 -6.214960466219178e-07
vn 2.8370386114413013e-07 0.9999990272532888 -6.214960466219178e-07
vn -2.8370386114413013e-07 -0.9999990272532888 6.214960466219178e-07
vn -2.8370386114413013e-07 -0.9999990272532888 6.214960466219178e-07
vn -2.8370386114413013e-07 -0.9999990272532888 6.214960466219178e-07
vn -2.8370386114413013e-07 -0.9999990272532888 6.214960466219178e-07
vn -2.8370386114413013e-07 -0.9999990272532888 6.214960466219178e-07
vn -2.8370386114413013e-07 -0.9999990272532888 6.214960466219178e-07
vn -2.8370386114413013e-07 -0.9999990272532888 6.214960466219178e-07
vn -2.8370386114413013e-07 -0.9999990272532888 6.214960466219178e-07
vn 2.8867951907601936e-08 -6.214967163839758e-07 -1.0000000659018682
vn 2.8867951907601936e-08 -6.214967163839758e-07 -1.0000000659018682
vn 1.841505867986975e-07 0.7197364266404181 0.6942467250179566
vn 1.841505867986975e-07 0.7197364266404181 0.6942467250179566
vn 2.8370386114413013e-07 0.9999990272532888 -6.214960466219178e-07
vn 2.8370386114413013e-07 0.9999990272532888 -6.214960466219178e-07
vn 2.8370386114413013e-07 0.9999990272532888 -6.214960466219178e-07
vn 2.8370386114413013e-07 0.9999990272532888 -6.214960466219178e-07
vn -0.9999999657785195 2.1525549576523288e-07 -2.886811076547915e-08
vn -0.9999999657785195 2.1525549576523288e-07 -2.886811076547915e-08
vn 0.9999999657785195 -2.1525549576523288e-07 2.886811076547915e-08
vn 0.9999999657785195 -2.1525549576523288e-07 2.886811076547915e-08
vn 0.9999999657785195 -2.1525549576523288e-07 2.886811076547915e-08
vn -2.8370386114413013e-07 -0.9999990272532888 6.214960466219178e-07
vn -2.8370386114413013e-07 -0.9999990272532888 6.214960466219178e-07
vn -2.8370386114413013e-07 -0.9999990272532888 6.214960466219178e-07
vn -0.9999999657785195 2.1525549576523288e-07 -2.886811076547915e-08
vn -0.9999999657785195 2.1525549576523288e-07 -2.886811076547915e-08
vn -0.9999999657785195 2.1525549576523288e-07 -2.886811076547915e-08
vn -0.9999999657785195 2.1525549576523288e-07 -2.886811076547915e-08
vn 0.9999999657785195 -2.1525549576523288e-07 2.886811076547915e-08
vn 0.9999999657785195 -2.1525549576523288e-07 2.886811076547915e-08
vn 0.9999999657785195 -2.1525549576523288e-07 2.886811076547915e-08
vn -0.9999999657785195 2.1525549576523288e-07 -2.886811076547915e-08
vn 2.8867951907601936e-08 -6.214967163839758e-07 -1.0000000659018682
vn 2.8867951907601936e-08 -6.214967163839758e-07 -1.0000000659018682
vn 0.6839053711152325 -0.7295699455303619 4.7316824911323067e-07
vn 0.6839053711152325 -0.7295699455303619 4.7316824911323067e-07
vn 0.6839053711152325 -0.7295699455303619 4.7316824911323067e-07
vn -2.8867951907601936e-08 6.214967163839758e-07 1.0000000659018682
vn -2.8867951907601936e-08 6.214967163839758e-07 1.0000000659018682
vn -2.8867951907601936e-08 6.214967163839758e-07 1.0000000659018682
vn -0.683906023497676 -0.7295694126830848 4.3368196873978047e-07
vn -0.683906023497676 -0.7295694126830848 4.3368196873978047e-07
vn -0.683906023497676 -0.7295694126830848 4.3368196873978047e-07
vn -0.683906023497676 -0.7295694126830848 4.3368196873978047e-07
vn -0.681447274997304 0.7318663905212877 -4.7452452173893215e-07
vn -0.681447274997304 0.7318663905212877 -4.7452452173893215e-07
vn -2.8867951907601936e-08 6.214967163839758e-07 1.0000000659018682
vn -2.8867951907601936e-08 6.214967163839758e-07 1.0000000659018682
vn -2.8867951907601936e-08 6.214967163839758e-07 1.0000000659018682
vn 0.6814476902642663 0.7318660971506461 -4.3518031757363035e-07
vn 0.6814476902642663 0.7318660971506461 -4.3518031757363035e-07
vn 0.6814476902642663 0.7318660971506461 -4.3518031757363035e-07
vn -0.9999999657785195 2.1525549576523288e-07 -2.886811076547915e-08
vn -0.9999999657785195 2.1525549576523288e-07 -2.886811076547915e-08
vn -0.9999999657785195 2.1525549576523288e-07 -2.886811076547915e-08
vn -0.9999999657785195 2.1525549576523288e-07 -2.886811076547915e-08
vn 0.9999999657785195 -2.1525549576523288e-07 2.886811076547915e-08
vn 0.9999999657785195 -2.1525549576523288e-07 2.886811076547915e-08
vn 0.9999999657785195 -2.1525549576523288e-07 2.886811076547915e-08
vn 0.9999999657785195 -2.1525549576523288e-07 2.886811076547915e-08
f 76/76/76 4/4/4 75/75/75
f 84/84/84 7/7/7 83/83/83
f 90/90/90 89/89/89 10/10/10
f 104/104/104 103/103/103 102/102/102
f 23/23/23 24/24/24 21/21/21
f 22/22/22 23/23/23 21/21/21
f 73/73/73 26/26/26 25/25/25
f 74/74/74 73/73/73 25/25/25
f 2/2/2 1/1/1 3/3/3
f 12/12/12 2/2/2 3/3/3
f 6/6/6 78/78/78 77/77/77
f 5/5/5 6/6/6 77/77/77
f 28/28/28 80/80/80 79/79/79
f 27/27/27 28/28/28 79/79/79
f 81/81/81 30/30/30 29/29/29
f 82/82/82 81/81/81 29/29/29
f 85/85/85 8/8/8 9/9/9
f 86/86/86 85/85/85 9/9/9
f 32/32/32 88/88/88 87/87/87
f 31/31/31 32/32/32 87/87/87
f 34/34/34 92/92/92 91/91/91
f 33/33/33 34/34/34 91/91/91
f 93/93/93 36/36/36 35/35/35
f 94/94/94 93/93/93 35/35/35
f 96/96/96 11/11/11 95/95/95
f 97/97/97 96/96/96 95/95/95
f 100/100/100 99/99/99 98/98/98
f 101/101/101 100/100/100 98/98/98
f 107/107/107 106/106/106 105/105/105
f 108/108/108 107/107/107 105/105/105
f 110/110/110 109/109/109 14/14/14
f 13/13/13 110/110/110 14/14/14
f 113/113/113 112/112/112 111/111/111
f 15/15/15 113/113/113 111/111/111
f 16/16/16 115/115/115 114/114/114
f 116/116/116 16/16/16 114/114/114
f 118/118/118 117/117/117 17/17/17
f 119/119/119 118/118/118 17/17/17
f 121/121/121 120/120/120 18/18/18
f 122/122/122 121/121/121 18/18/18
f 125/125/125 124/124/124 123/123/123
f 19/19/19 125/125/125 123/123/123
f 127/127/127 126/126/126 20/20/20
f 128/128/128 127/127/127 20/20/20
f 131/131/131 130/130/130 129/129/129
f 132/132/132 131/131/131 129/129/129
f 136/136/136 135/135/135 133/133/133
f 135/135/135 134/134/134 133/133/133
f 133/133/133 134/134/134 141/141/141
f 134/134/134 142/142/142 141/141/141
f 141/141/141 142/142/142 143/143/143
f 142/142/142 144/144/144 143/143/143
f 139/139/139 138/138/138 137/137/137
f 140/140/140 139/139/139 137/137/137
f 147/147/147 146/146/146 145/145/145
f 148/148/148 147/147/147 145/145/145
f 152/152/152 151/151/151 149/149/149
f 151/151/151 150/150/150 149/149/149
f 149/149/149 150/150/150 153/153/153
f 150/150/150 154/154/154 153/153/153
f 153/153/153 154/154/154 155/155/155
f 154/154/154 156/156/156 155/155/155
f 160/160/160 159/159/159 157/157/157
f 159/159/159 158/158/158 157/157/157
f 158/158/158 162/162/162 157/157/157
f 162/162/162 161/161/161 157/157/157
f 162/162/162 164/164/164 161/161/161
f 164/164/164 163/163/163 161/161/161
f 51/51/51 52/52/52 50/50/50
f 49/49/49 51/51/51 50/50/50
f 166/166/166 165/165/165 53/53/53
f 54/54/54 166/166/166 53/53/53
f 67/67/67 58/58/58 56/56/56
f 66/66/66 67/67/67 56/56/56
f 60/60/60 168/168/168 167/167/167
f 59/59/59 60/60/60 167/167/167
f 171/171/171 170/170/170 169/169/169
f 172/172/172 171/171/171 169/169/169
f 44/44/44 177/177/177 43/43/43
f 177/177/177 176/176/176 43/43/43
f 43/43/43 176/176/176 48/48/48
f 176/176/176 175/175/175 48/48/48
f 48/48/48 175/175/175 47/47/47
f 175/175/175 187/187/187 47/47/47
f 47/47/47 187/187/187 46/46/46
f 187/187/187 186/186/186 46/46/46
f 46/46/46 186/186/186 185/185/185
f 68/68/68 46/46/46 185/185/185
f 180/180/180 179/179/179 178/178/178
f 39/39/39 180/180/180 178/178/178
f 182/182/182 38/38/38 181/181/181
f 38/38/38 173/173/173 181/181/181
f 174/174/174 173/173/173 38/38/38
f 37/37/37 174/174/174 38/38/38
f 188/188/188 174/174/174 37/37/37
f 42/42/42 188/188/188 37/37/37
f 183/183/183 188/188/188 42/42/42
f 41/41/41 183/183/183 42/42/42
f 184/184/184 183/183/183 41/41/41
f 65/65/65 184/184/184 41/41/41
f 63/63/63 64/64/64 61/61/61
f 62/62/62 63/63/63 61/61/61
f 190/190/190 189/189/189 40/40/40
f 45/45/45 190/190/190 40/40/40
f 193/193/193 192/192/192 191/191/191
f 57/57/57 193/193/193 191/191/191
f 196/196/196 195/195/195 194/194/194
f 55/55/55 196/196/196 194/194/194
f 55/55/55 194/194/194 71/71/71
f 204/204/204 55/55/55 71/71/71
f 204/204/204 71/71/71 203/203/203
f 205/205/205 204/204/204 203/203/203
f 199/199/199 198/198/198 197/197/197
f 200/200/200 199/199/199 197/197/197
f 69/69/69 70/70/70 201/201/201
f 202/202/202 69/69/69 201/201/201
f 208/208/208 207/207/207 206/206/206
f 72/72/72 208/208/208 206/206/206
f 211/211/211 210/210/210 209/209/209
f 212/212/212 211/211/211 209/209/209
f 215/215/215 214/214/214 213/213/213
f 216/216/216 215/215/215 213/213/213