g ArmorGirlBulletproof
v -0.227761403 1.48602509 -0.0893792734
v -0.227761403 1.33498979 -0.0893792734
v -0.199900553 1.48602521 -0.0893792734
v -0.199900553 1.33498979 -0.0893792734
v -0.199900553 1.48602521 -0.115635678
v -0.199900553 1.33498979 -0.115635678
v -0.227761403 1.48602521 -0.115635678
v -0.227761403 1.33498979 -0.115635678
v -0.227761403 1.48602509 0.107922822
v -0.227761403 1.33498979 0.107922822
v -0.199900553 1.48602521 0.107922822
v -0.199900553 1.33498979 0.107922822
v -0.199900553 1.48602521 0.08166641
v -0.199900553 1.33498979 0.08166641
v -0.227761403 1.48602521 0.08166641
v -0.227761403 1.33498979 0.08166641
v -0.395410448 1.30712891 0.107922822
v -0.199900553 1.30712891 0.10792274
v -0.395410448 1.33498979 0.107922822
v -0.199900553 1.33498979 0.107922822
v -0.395410448 1.33498979 0.08166641
v -0.199900553 1.33498979 0.08166641
v -0.395410448 1.30712891 0.08166641
v -0.199900553 1.30712891 0.08166641
v -0.395410448 1.30712891 -0.0893792734
v -0.199900553 1.30712891 -0.0893792734
v -0.395410448 1.33498979 -0.0893792734
v -0.199900553 1.33498979 -0.0893792734
v -0.395410448 1.33498979 -0.115635678
v -0.199900553 1.33498979 -0.115635678
v -0.395410448 1.30712891 -0.115635678
v -0.199900553 1.30712891 -0.115635678
v -0.375817716 1.33498991 0.0831451416
v -0.20235385 1.33498979 0.0831450671
v -0.375817716 1.45987296 0.0831451416
v -0.20235385 1.45987296 0.0831451416
v -0.375817716 1.45987296 -0.0907774344
v -0.20235385 1.45987296 -0.0907774344
v -0.375817716 1.33498979 -0.0907775834
v -0.20235385 1.33498979 -0.0907775834
v -0.3778961 1.33498991 0.0864465311
v -0.20235385 1.33498979 0.0864464566
v -0.3778961 1.47947049 0.0864465311
v -0.20235385 1.47947049 0.0864465311
v -0.3778961 1.47947049 -0.0956378132
v -0.20235385 1.47947049 -0.0956378132
v -0.3778961 1.33498979 -0.0956378132
v -0.20235385 1.33498979 -0.0956378132
v -0.375003397 1.30712891 0.08166641
v -0.375003427 1.30712891 -0.0893792734
v -0.375003397 1.33498979 0.08166641
v -0.375003397 1.33498979 -0.0893792734
v -0.395410448 1.33498979 0.08166641
v -0.395410448 1.33498979 -0.0893792734
v -0.395410448 1.30712891 0.08166641
v -0.395410448 1.30712891 -0.0893792734
v 0.227761403 1.48602509 -0.0893792734
v 0.227761403 1.33498979 -0.0893792734
v 0.199900553 1.48602521 -0.0893792734
v 0.199900553 1.33498979 -0.0893792734
v 0.199900553 1.48602521 -0.115635678
v 0.199900553 1.33498979 -0.115635678
v 0.227761403 1.48602521 -0.115635678
v 0.227761403 1.33498979 -0.115635678
v 0.227761403 1.48602509 0.107922822
v 0.227761403 1.33498979 0.107922822
v 0.199900553 1.48602521 0.107922822
v 0.199900553 1.33498979 0.107922822
v 0.199900553 1.48602521 0.08166641
v 0.199900553 1.33498979 0.08166641
v 0.227761403 1.48602521 0.08166641
v 0.227761403 1.33498979 0.08166641
v 0.395410448 1.30712891 0.107922822
v 0.199900553 1.30712891 0.10792274
v 0.395410448 1.33498979 0.107922822
v 0.199900553 1.33498979 0.107922822
v 0.395410448 1.33498979 0.08166641
v 0.199900553 1.33498979 0.08166641
v 0.395410448 1.30712891 0.08166641
v 0.199900553 1.30712891 0.08166641
v 0.395410448 1.30712891 -0.0893792734
v 0.199900553 1.30712891 -0.0893792734
v 0.395410448 1.33498979 -0.0893792734
v 0.199900553 1.33498979 -0.0893792734
v 0.395410448 1.33498979 -0.115635678
v 0.199900553 1.33498979 -0.115635678
v 0.395410448 1.30712891 -0.115635678
v 0.199900553 1.30712891 -0.115635678
v 0.375817716 1.33498991 0.0831451416
v 0.20235385 1.33498979 0.0831450671
v 0.375817716 1.45987296 0.0831451416
v 0.20235385 1.45987296 0.0831451416
v 0.375817716 1.45987296 -0.0907774344
v 0.20235385 1.45987296 -0.0907774344
v 0.375817716 1.33498979 -0.0907775834
v 0.20235385 1.33498979 -0.0907775834
v 0.3778961 1.33498991 0.0864465311
v 0.20235385 1.33498979 0.0864464566
v 0.3778961 1.47947049 0.0864465311
v 0.20235385 1.47947049 0.0864465311
v 0.3778961 1.47947049 -0.0956378132
v 0.20235385 1.47947049 -0.0956378132
v 0.3778961 1.33498979 -0.0956378132
v 0.20235385 1.33498979 -0.0956378132
v 0.375003397 1.30712891 0.08166641
v 0.375003427 1.30712891 -0.0893792734
v 0.375003397 1.33498979 0.08166641
v 0.375003397 1.33498979 -0.0893792734
v 0.395410448 1.33498979 0.08166641
v 0.395410448 1.33498979 -0.0893792734
v 0.395410448 1.30712891 0.08166641
v 0.395410448 1.30712891 -0.0893792734
v -0.204356059 0.973901272 -0.157696754
v -0.20435673 1.47468579 -0.15769653
v -0.204356059 0.973901272 0.145131603
v -0.20435673 1.47468579 0.145131826
v 0.204355925 0.973901272 -0.157696754
v 0.20435673 1.47468579 -0.15769653
v 0.204355925 0.973901272 0.145131141
v 0.20435673 1.47468579 0.145131379
v 0.12545231 1.47468591 0.145131379
v 0.12545231 1.47468579 -0.15769653
v -0.125452295 1.47468579 0.145131677
v -0.125452295 1.47468579 -0.15769653
v -0.12545228 1.41595328 -0.15769653
v 0.12545228 1.41595328 -0.15769653
v 0.12545228 1.41595352 0.145131379
v -0.12545228 1.41595328 0.145131603
v -0.192543671 0.973901272 -0.144975811
v -0.192543671 0.973901331 0.132410809
v 0.192543641 0.973901331 -0.144975886
v 0.192543641 0.973901272 0.132410511
v -0.12545228 1.4619652 -0.144975737
v -0.12545228 1.4619652 0.132410884
v 0.12545228 1.4619652 -0.144975737
v 0.12545228 1.4619652 0.132410735
v -0.12545228 1.41595352 0.132410884
v -0.12545228 1.41595328 -0.144975737
v 0.12545228 1.41595328 0.13241066
v 0.12545228 1.41595328 -0.144975737
v -0.192488641 1.4619652 0.132410884
v -0.192488641 1.4619652 -0.144975737
v 0.192488641 1.4619652 -0.144975737
v 0.192488641 1.4619652 0.132410735
v -0.199900553 1.48602521 -0.0893792734
v -0.199900553 1.33498979 -0.0893792734
v -0.199900553 1.48602521 -0.115635678
v -0.199900553 1.33498979 -0.115635678
v -0.227761403 1.48602521 -0.115635678
v -0.227761403 1.48602509 -0.0893792734
v -0.227761403 1.33498979 -0.0893792734
v -0.227761403 1.33498979 -0.115635678
v -0.227761403 1.48602521 -0.115635678
v -0.199900553 1.48602521 -0.115635678
v -0.199900553 1.48602521 -0.0893792734
v -0.227761403 1.48602509 -0.0893792734
v -0.199900553 1.48602521 0.107922822
v -0.199900553 1.33498979 0.107922822
v -0.199900553 1.48602521 0.08166641
v -0.199900553 1.33498979 0.08166641
v -0.227761403 1.48602521 0.08166641
v -0.227761403 1.48602509 0.107922822
v -0.227761403 1.33498979 0.107922822
v -0.227761403 1.33498979 0.08166641
v -0.227761403 1.48602521 0.08166641
v -0.199900553 1.48602521 0.08166641
v -0.199900553 1.48602521 0.107922822
v -0.227761403 1.48602509 0.107922822
v -0.395410448 1.33498979 0.107922822
v -0.199900553 1.33498979 0.107922822
v -0.395410448 1.33498979 0.08166641
v -0.199900553 1.33498979 0.08166641
v -0.199900553 1.30712891 0.08166641
v -0.395410448 1.30712891 0.08166641
v -0.395410448 1.30712891 0.107922822
v -0.199900553 1.30712891 0.10792274
v -0.395410448 1.30712891 0.08166641
v -0.395410448 1.33498979 0.08166641
v -0.395410448 1.33498979 0.107922822
v -0.395410448 1.30712891 0.107922822
v -0.395410448 1.33498979 -0.0893792734
v -0.199900553 1.33498979 -0.0893792734
v -0.395410448 1.33498979 -0.115635678
v -0.199900553 1.33498979 -0.115635678
v -0.199900553 1.30712891 -0.115635678
v -0.395410448 1.30712891 -0.115635678
v -0.395410448 1.30712891 -0.0893792734
v -0.199900553 1.30712891 -0.0893792734
v -0.395410448 1.30712891 -0.115635678
v -0.395410448 1.33498979 -0.115635678
v -0.395410448 1.33498979 -0.0893792734
v -0.395410448 1.30712891 -0.0893792734
v -0.375817716 1.45987296 0.0831451416
v -0.20235385 1.45987296 0.0831451416
v -0.375817716 1.45987296 -0.0907774344
v -0.20235385 1.45987296 -0.0907774344
v -0.375817716 1.33498979 -0.0907775834
v -0.375817716 1.33498991 0.0831451416
v -0.375817716 1.45987296 0.0831451416
v -0.375817716 1.45987296 -0.0907774344
v -0.3778961 1.47947049 0.0864465311
v -0.20235385 1.47947049 0.0864465311
v -0.3778961 1.47947049 -0.0956378132
v -0.20235385 1.47947049 -0.0956378132
v -0.3778961 1.33498979 -0.0956378132
v -0.3778961 1.47947049 -0.0956378132
v -0.3778961 1.47947049 0.0864465311
v -0.3778961 1.33498991 0.0864465311
v -0.20235385 1.45987296 0.0831451416
v -0.20235385 1.47947049 0.0864465311
v -0.20235385 1.47947049 -0.0956378132
v -0.20235385 1.45987296 -0.0907774344
v -0.375003397 1.33498979 0.08166641
v -0.375003397 1.33498979 -0.0893792734
v -0.395410448 1.33498979 0.08166641
v -0.395410448 1.33498979 -0.0893792734
v -0.395410448 1.30712891 -0.0893792734
v -0.395410448 1.30712891 0.08166641
v -0.375003397 1.30712891 0.08166641
v -0.375003427 1.30712891 -0.0893792734
v 0.199900553 1.48602521 -0.0893792734
v 0.199900553 1.33498979 -0.0893792734
v 0.199900553 1.48602521 -0.115635678
v 0.199900553 1.33498979 -0.115635678
v 0.227761403 1.48602521 -0.115635678
v 0.227761403 1.33498979 -0.115635678
v 0.227761403 1.33498979 -0.0893792734
v 0.227761403 1.48602509 -0.0893792734
v 0.227761403 1.48602521 -0.115635678
v 0.227761403 1.48602509 -0.0893792734
v 0.199900553 1.48602521 -0.0893792734
v 0.199900553 1.48602521 -0.115635678
v 0.199900553 1.48602521 0.107922822
v 0.199900553 1.33498979 0.107922822
v 0.199900553 1.48602521 0.08166641
v 0.199900553 1.33498979 0.08166641
v 0.227761403 1.48602521 0.08166641
v 0.227761403 1.33498979 0.08166641
v 0.227761403 1.33498979 0.107922822
v 0.227761403 1.48602509 0.107922822
v 0.227761403 1.48602521 0.08166641
v 0.227761403 1.48602509 0.107922822
v 0.199900553 1.48602521 0.107922822
v 0.199900553 1.48602521 0.08166641
v 0.395410448 1.33498979 0.107922822
v 0.199900553 1.33498979 0.107922822
v 0.395410448 1.33498979 0.08166641
v 0.199900553 1.33498979 0.08166641
v 0.199900553 1.30712891 0.08166641
v 0.199900553 1.30712891 0.10792274
v 0.395410448 1.30712891 0.107922822
v 0.395410448 1.30712891 0.08166641
v 0.395410448 1.30712891 0.08166641
v 0.395410448 1.30712891 0.107922822
v 0.395410448 1.33498979 0.107922822
v 0.395410448 1.33498979 0.08166641
v 0.395410448 1.33498979 -0.0893792734
v 0.199900553 1.33498979 -0.0893792734
v 0.395410448 1.33498979 -0.115635678
v 0.199900553 1.33498979 -0.115635678
v 0.199900553 1.30712891 -0.115635678
v 0.199900553 1.30712891 -0.0893792734
v 0.395410448 1.30712891 -0.0893792734
v 0.395410448 1.30712891 -0.115635678
v 0.395410448 1.30712891 -0.115635678
v 0.395410448 1.30712891 -0.0893792734
v 0.395410448 1.33498979 -0.0893792734
v 0.395410448 1.33498979 -0.115635678
v 0.375817716 1.45987296 0.0831451416
v 0.20235385 1.45987296 0.0831451416
v 0.375817716 1.45987296 -0.0907774344
v 0.20235385 1.45987296 -0.0907774344
v 0.375817716 1.33498979 -0.0907775834
v 0.375817716 1.45987296 -0.0907774344
v 0.375817716 1.45987296 0.0831451416
v 0.375817716 1.33498991 0.0831451416
v 0.3778961 1.47947049 0.0864465311
v 0.20235385 1.47947049 0.0864465311
v 0.3778961 1.47947049 -0.0956378132
v 0.20235385 1.47947049 -0.0956378132
v 0.3778961 1.33498979 -0.0956378132
v 0.3778961 1.33498991 0.0864465311
v 0.3778961 1.47947049 0.0864465311
v 0.3778961 1.47947049 -0.0956378132
v 0.20235385 1.45987296 0.0831451416
v 0.20235385 1.45987296 -0.0907774344
v 0.20235385 1.47947049 -0.0956378132
v 0.20235385 1.47947049 0.0864465311
v 0.375003397 1.33498979 0.08166641
v 0.375003397 1.33498979 -0.0893792734
v 0.395410448 1.33498979 0.08166641
v 0.395410448 1.33498979 -0.0893792734
v 0.395410448 1.30712891 -0.0893792734
v 0.375003427 1.30712891 -0.0893792734
v 0.375003397 1.30712891 0.08166641
v 0.395410448 1.30712891 0.08166641
v -0.20435673 1.47468579 0.145131826
v 0.20435673 1.47468579 -0.15769653
v -0.125452295 1.47468579 0.145131677
v -0.20435673 1.47468579 0.145131826
v -0.20435673 1.47468579 -0.15769653
v 0.20435673 1.47468579 0.145131379
v 0.12545231 1.47468579 -0.15769653
v 0.20435673 1.47468579 -0.15769653
v -0.204356059 0.973901272 0.145131603
v -0.204356059 0.973901272 -0.157696754
v 0.204355925 0.973901272 -0.157696754
v 0.204355925 0.973901272 0.145131141
v -0.125452295 1.47468579 -0.15769653
v -0.125452295 1.47468579 0.145131677
v -0.12545228 1.41595328 0.145131603
v 0.12545228 1.41595328 -0.15769653
v 0.12545231 1.47468579 -0.15769653
v 0.12545231 1.47468591 0.145131379
v 0.12545228 1.41595328 0.13241066
v 0.12545228 1.41595352 0.145131379
v -0.12545228 1.41595328 0.145131603
v -0.12545228 1.41595352 0.132410884
v -0.12545228 1.41595328 -0.144975737
v -0.12545228 1.41595328 -0.15769653
v 0.12545228 1.41595328 -0.15769653
v 0.12545228 1.41595328 -0.144975737
v -0.12545228 1.4619652 -0.144975737
v -0.12545228 1.4619652 0.132410884
v -0.12545228 1.41595352 0.132410884
v -0.12545228 1.4619652 0.132410884
v -0.192488641 1.4619652 0.132410884
v 0.12545228 1.41595328 -0.144975737
v 0.12545228 1.4619652 -0.144975737
v 0.12545228 1.4619652 0.132410735
v 0.192488641 1.4619652 -0.144975737
v 0.12545228 1.4619652 -0.144975737
v 0.192488641 1.4619652 0.132410735
v 0.192543641 0.973901272 0.132410511
v 0.192543641 0.973901331 -0.144975886
v 0.192488641 1.4619652 -0.144975737
v -0.192488641 1.4619652 -0.144975737
v -0.192543671 0.973901272 -0.144975811
v -0.192543671 0.973901331 0.132410809
v -0.192488641 1.4619652 0.132410884
v -0.12545228 1.41595328 -0.15769653
v -0.125452295 1.47468579 -0.15769653
v -0.20435673 1.47468579 -0.15769653
v 0.204355925 0.973901272 -0.157696754
v 0.12545228 1.41595352 0.145131379
v 0.12545231 1.47468591 0.145131379
v 0.20435673 1.47468579 0.145131379
v -0.204356059 0.973901272 0.145131603
v 0.204355925 0.973901272 0.145131141
v -0.204356059 0.973901272 -0.157696754
v -0.192488641 1.4619652 -0.144975737
v -0.12545228 1.4619652 -0.144975737
v -0.12545228 1.41595328 -0.144975737
v -0.192543671 0.973901272 -0.144975811
v 0.192543641 0.973901331 -0.144975886
v 0.192488641 1.4619652 0.132410735
v 0.12545228 1.4619652 0.132410735
v 0.12545228 1.41595328 0.13241066
v 0.192543641 0.973901272 0.132410511
v -0.192543671 0.973901331 0.132410809
v -0.199900553 1.33498979 -0.0893792734
v -0.199900553 1.33498979 -0.115635678
v -0.199900553 1.30712891 -0.115635678
v -0.199900553 1.30712891 -0.0893792734
v -0.199900553 1.33498979 0.107922822
v -0.199900553 1.33498979 0.08166641
v -0.199900553 1.30712891 0.08166641
v -0.199900553 1.30712891 0.10792274
v 0.199900553 1.30712891 -0.0893792734
v 0.199900553 1.30712891 -0.115635678
v 0.199900553 1.33498979 -0.115635678
v 0.199900553 1.33498979 -0.0893792734
v 0.199900553 1.30712891 0.10792274
v 0.199900553 1.30712891 0.08166641
v 0.199900553 1.33498979 0.08166641
v 0.199900553 1.33498979 0.107922822
vt 0.9296875 0.314453125
vt 0.9296875 0.239746094
vt 0.943359375 0.314453125
vt 0.943359375 0.239746094
vt 0.956054688 0.314453125
vt 0.956054688 0.239746094
vt 0.970214844 0.314453125
vt 0.970214844 0.239746094
vt 0.942382812 0.314453125
vt 0.942382812 0.239746094
vt 0.956054688 0.314453125
vt 0.956054688 0.239746094
vt 0.969238281 0.314453125
vt 0.969238281 0.239746094
vt 0.982910156 0.314453125
vt 0.982910156 0.239746094
vt 0.887695312 0.333496094
vt 0.887695312 0.236816406
vt 0.901367188 0.333496094
vt 0.901367188 0.236816406
vt 0.914550781 0.333496094
vt 0.914550781 0.236816406
vt 0.874511719 0.333496094
vt 0.874511719 0.236816406
vt 0.900390625 0.333496094
vt 0.900390625 0.236816406
vt 0.914550781 0.333496094
vt 0.914550781 0.236816406
vt 0.874023438 0.333496094
vt 0.874023438 0.236816406
vt 0.887695312 0.333496094
vt 0.887695312 0.236816406
vt 0.923339844 0.604492188
vt 0.923339844 0.518554688
vt 0.861328125 0.604492188
vt 0.861328125 0.518554688
vt 0.775390625 0.604492188
vt 0.775390625 0.518554688
vt 0.713378906 0.604492188
vt 0.713378906 0.518554688
vt 0.687988281 0.499755859
vt 0.687988281 0.412841797
vt 0.759765625 0.499755859
vt 0.759765625 0.412841797
vt 0.849609375 0.499755859
vt 0.849609375 0.412841797
vt 0.921386719 0.499755859
vt 0.921386719 0.412841797
vt 0.860839844 0.3828125
vt 0.9453125 0.3828125
vt 0.860839844 0.396484375
vt 0.9453125 0.396484375
vt 0.860839844 0.358886719
vt 0.9453125 0.358886719
vt 0.860839844 0.372802734
vt 0.9453125 0.372802734
vt 0.9296875 0.314453125
vt 0.9296875 0.239746094
vt 0.943359375 0.314453125
vt 0.943359375 0.239746094
vt 0.956054688 0.314453125
vt 0.956054688 0.239746094
vt 0.970214844 0.314453125
vt 0.970214844 0.239746094
vt 0.942382812 0.314453125
vt 0.942382812 0.239746094
vt 0.956054688 0.314453125
vt 0.956054688 0.239746094
vt 0.969238281 0.314453125
vt 0.969238281 0.239746094
vt 0.982910156 0.314453125
vt 0.982910156 0.239746094
vt 0.887695312 0.333496094
vt 0.887695312 0.236816406
vt 0.901367188 0.333496094
vt 0.901367188 0.236816406
vt 0.914550781 0.333496094
vt 0.914550781 0.236816406
vt 0.874511719 0.333496094
vt 0.874511719 0.236816406
vt 0.900390625 0.333496094
vt 0.900390625 0.236816406
vt 0.914550781 0.333496094
vt 0.914550781 0.236816406
vt 0.874023438 0.333496094
vt 0.874023438 0.236816406
vt 0.887695312 0.333496094
vt 0.887695312 0.236816406
vt 0.923339844 0.604492188
vt 0.923339844 0.518554688
vt 0.861328125 0.604492188
vt 0.861328125 0.518554688
vt 0.775390625 0.604492188
vt 0.775390625 0.518554688
vt 0.713378906 0.604492188
vt 0.713378906 0.518554688
vt 0.687988281 0.499755859
vt 0.687988281 0.412841797
vt 0.759765625 0.499755859
vt 0.759765625 0.412841797
vt 0.849609375 0.499755859
vt 0.849609375 0.412841797
vt 0.921386719 0.499755859
vt 0.921386719 0.412841797
vt 0.860839844 0.3828125
vt 0.9453125 0.3828125
vt 0.860839844 0.396484375
vt 0.9453125 0.396484375
vt 0.860839844 0.358886719
vt 0.9453125 0.358886719
vt 0.860839844 0.372802734
vt 0.9453125 0.372802734
vt 0.0200042725 0.294189453
vt 0.0200042725 0.552734375
vt 0.163696289 0.294189453
vt 0.163696289 0.552734375
vt 0.163696289 0.294189453
vt 0.163696289 0.552734375
vt 0.0200042725 0.294189453
vt 0.0200042725 0.552734375
vt 0.433349609 0.322998047
vt 0.0585327148 0.271240234
vt 0.280029297 0.271240234
vt 0.473632812 0.46875
vt 0.546386719 0.437988281
vt 0.0585327148 0.241821289
vt 0.546386719 0.437988281
vt 0.280029297 0.241821289
vt 0.353271484 0.496582031
vt 0.486572266 0.496582031
vt 0.353271484 0.300292969
vt 0.486572266 0.300292969
vt 0.522460938 0.431884766
vt 0.522460938 0.300292969
vt 0.522460938 0.300292969
vt 0.522460938 0.431884766
vt 0.546386719 0.300292969
vt 0.546386719 0.431884766
vt 0.546386719 0.431884766
vt 0.546386719 0.300292969
vt 0.375732422 0.463623047
vt 0.375732422 0.330322266
vt 0.650878906 0.264892578
vt 0.409912109 0.463623047
vt 0.943359375 0.314453125
vt 0.943359375 0.239746094
vt 0.956054688 0.314453125
vt 0.956054688 0.239746094
vt 0.970214844 0.314453125
vt 0.982910156 0.314453125
vt 0.982910156 0.239746094
vt 0.970214844 0.239746094
vt 0.694824219 0.554199219
vt 0.694824219 0.540527344
vt 0.681640625 0.540527344
vt 0.681640625 0.554199219
vt 0.956054688 0.314453125
vt 0.956054688 0.239746094
vt 0.969238281 0.314453125
vt 0.969238281 0.239746094
vt 0.9296875 0.314453125
vt 0.942382812 0.314453125
vt 0.942382812 0.239746094
vt 0.9296875 0.239746094
vt 0.694824219 0.554199219
vt 0.694824219 0.540527344
vt 0.681640625 0.540527344
vt 0.681640625 0.554199219
vt 0.901367188 0.333496094
vt 0.901367188 0.236816406
vt 0.860839844 0.333496094
vt 0.860839844 0.236816406
vt 0.874511719 0.236816406
vt 0.874511719 0.333496094
vt 0.887695312 0.333496094
vt 0.887695312 0.236816406
vt 0.681640625 0.540527344
vt 0.681640625 0.554199219
vt 0.694824219 0.554199219
vt 0.694824219 0.540527344
vt 0.860839844 0.333496094
vt 0.860839844 0.236816406
vt 0.874023438 0.333496094
vt 0.874023438 0.236816406
vt 0.887695312 0.236816406
vt 0.887695312 0.333496094
vt 0.900390625 0.333496094
vt 0.900390625 0.236816406
vt 0.681640625 0.540527344
vt 0.681640625 0.554199219
vt 0.694824219 0.554199219
vt 0.694824219 0.540527344
vt 0.861328125 0.604492188
vt 0.861328125 0.518554688
vt 0.775390625 0.604492188
vt 0.775390625 0.518554688
vt 0.860839844 0.131225586
vt 0.860839844 0.217285156
vt 0.922851562 0.217285156
vt 0.922851562 0.131225586
vt 0.759765625 0.499755859
vt 0.759765625 0.412841797
vt 0.849609375 0.499755859
vt 0.849609375 0.412841797
vt 0.860839844 0.109313965
vt 0.932128906 0.109313965
vt 0.932128906 0.0191955566
vt 0.860839844 0.0191955566
vt 0.947265625 0.1328125
vt 0.9375 0.131225586
vt 0.9375 0.221313477
vt 0.947265625 0.218994141
vt 0.860839844 0.348876953
vt 0.9453125 0.348876953
vt 0.860839844 0.358886719
vt 0.9453125 0.358886719
vt 0.9453125 0.372802734
vt 0.860839844 0.372802734
vt 0.860839844 0.3828125
vt 0.9453125 0.3828125
vt 0.943359375 0.314453125
vt 0.943359375 0.239746094
vt 0.956054688 0.314453125
vt 0.956054688 0.239746094
vt 0.970214844 0.314453125
vt 0.970214844 0.239746094
vt 0.982910156 0.239746094
vt 0.982910156 0.314453125
vt 0.694824219 0.554199219
vt 0.681640625 0.554199219
vt 0.681640625 0.540527344
vt 0.694824219 0.540527344
vt 0.956054688 0.314453125
vt 0.956054688 0.239746094
vt 0.969238281 0.314453125
vt 0.969238281 0.239746094
vt 0.9296875 0.314453125
vt 0.9296875 0.239746094
vt 0.942382812 0.239746094
vt 0.942382812 0.314453125
vt 0.694824219 0.554199219
vt 0.681640625 0.554199219
vt 0.681640625 0.540527344
vt 0.694824219 0.540527344
vt 0.901367188 0.333496094
vt 0.901367188 0.236816406
vt 0.860839844 0.333496094
vt 0.860839844 0.236816406
vt 0.874511719 0.236816406
vt 0.887695312 0.236816406
vt 0.887695312 0.333496094
vt 0.874511719 0.333496094
vt 0.681640625 0.540527344
vt 0.694824219 0.540527344
vt 0.694824219 0.554199219
vt 0.681640625 0.554199219
vt 0.860839844 0.333496094
vt 0.860839844 0.236816406
vt 0.874023438 0.333496094
vt 0.874023438 0.236816406
vt 0.887695312 0.236816406
vt 0.900390625 0.236816406
vt 0.900390625 0.333496094
vt 0.887695312 0.333496094
vt 0.681640625 0.540527344
vt 0.694824219 0.540527344
vt 0.694824219 0.554199219
vt 0.681640625 0.554199219
vt 0.861328125 0.604492188
vt 0.861328125 0.518554688
vt 0.775390625 0.604492188
vt 0.775390625 0.518554688
vt 0.860839844 0.131225586
vt 0.922851562 0.131225586
vt 0.922851562 0.217285156
vt 0.860839844 0.217285156
vt 0.759765625 0.499755859
vt 0.759765625 0.412841797
vt 0.849609375 0.499755859
vt 0.849609375 0.412841797
vt 0.860839844 0.109313965
vt 0.860839844 0.0191955566
vt 0.932128906 0.0191955566
vt 0.932128906 0.109313965
vt 0.947265625 0.1328125
vt 0.947265625 0.218994141
vt 0.9375 0.221313477
vt 0.9375 0.131225586
vt 0.860839844 0.348876953
vt 0.9453125 0.348876953
vt 0.860839844 0.358886719
vt 0.9453125 0.358886719
vt 0.9453125 0.372802734
vt 0.9453125 0.3828125
vt 0.860839844 0.3828125
vt 0.860839844 0.372802734
vt 0.241577148 0.271240234
vt 0.0200042725 0.271240234
vt 0.473632812 0.322998047
vt 0.433349609 0.322998047
vt 0.433349609 0.46875
vt 0.473632812 0.322998047
vt 0.433349609 0.46875
vt 0.473632812 0.46875
vt 0.492675781 0.502441406
vt 0.346923828 0.502441406
vt 0.346923828 0.294189453
vt 0.492675781 0.294189453
vt 0.515625 0.437988281
vt 0.515625 0.294189453
vt 0.546386719 0.294189453
vt 0.546386719 0.294189453
vt 0.515625 0.294189453
vt 0.515625 0.437988281
vt 0.346923828 0.526367188
vt 0.346923828 0.532714844
vt 0.474853516 0.532714844
vt 0.474853516 0.526367188
vt 0.474853516 0.532714844
vt 0.474853516 0.526367188
vt 0.346923828 0.526367188
vt 0.346923828 0.532714844
vt 0.409912109 0.330322266
vt 0.409912109 0.463623047
vt 0.618164062 0.241821289
vt 0.618164062 0.264892578
vt 0.650878906 0.264892578
vt 0.618164062 0.241821289
vt 0.618164062 0.264892578
vt 0.375732422 0.463623047
vt 0.409912109 0.330322266
vt 0.375732422 0.330322266
vt 0.188842773 0.294189453
vt 0.188842773 0.546386719
vt 0.3203125 0.546386719
vt 0.3203125 0.294189453
vt 0.3203125 0.546386719
vt 0.3203125 0.294189453
vt 0.188842773 0.294189453
vt 0.188842773 0.546386719
vt 0.181030273 0.241821289
vt 0.181030273 0.271240234
vt 0.219604492 0.271240234
vt 0.0200042725 0.0200042725
vt 0.402587891 0.241821289
vt 0.402587891 0.271240234
vt 0.441162109 0.271240234
vt 0.241577148 0.0200042725
vt 0.441162109 0.0200042725
vt 0.219604492 0.0200042725
vt 0.463134766 0.264892578
vt 0.495849609 0.264892578
vt 0.495849609 0.241821289
vt 0.463134766 0.0200042725
vt 0.651367188 0.0200042725
vt 0.463134766 0.264892578
vt 0.495849609 0.264892578
vt 0.495849609 0.241821289
vt 0.463134766 0.0200042725
vt 0.651367188 0.0200042725
vt 0.681640625 0.554199219
vt 0.694824219 0.554199219
vt 0.694824219 0.540527344
vt 0.681640625 0.540527344
vt 0.681640625 0.554199219
vt 0.694824219 0.554199219
vt 0.694824219 0.540527344
vt 0.681640625 0.540527344
vt 0.694824219 0.540527344
vt 0.681640625 0.540527344
vt 0.681640625 0.554199219
vt 0.694824219 0.554199219
vt 0.694824219 0.540527344
vt 0.681640625 0.540527344
vt 0.681640625 0.554199219
vt 0.694824219 0.554199219
vn -0 0 1
vn -0 0 1
vn -0 0 1
vn -0 0 1
vn 1 0 0
vn 1 0 0
vn -0 0 -1
vn -0 0 -1
vn -0 0 1
vn -0 0 1
vn -0 0 1
vn -0 0 1
vn 1 0 0
vn 1 0 0
vn -0 0 -1
vn -0 0 -1
vn -0 0 1
vn -0 0 1
vn -0 0 1
vn -0 0 1
vn -0 1 0
vn -0 1 0
vn -0 0 -1
vn -0 0 -1
vn -0 0 1
vn -0 0 1
vn -0 0 1
vn -0 0 1
vn -0 1 0
vn -0 1 0
vn -0 0 -1
vn -0 0 -1
vn -0 0 -1
vn -0 0 -1
vn -0 0 -1
vn -0 0 -1
vn -0 -1 0
vn -0 -1 0
vn -0 0 1
vn -0 0 1
vn -0 0 1
vn -0 0 1
vn -0 0 1
vn -0 0 1
vn -0 1 0
vn -0 1 0
vn -0 0 -1
vn -0 0 -1
vn 1 0 0
vn 1 0 0
vn 1 0 0
vn 1 0 0
vn -0 1 0
vn -0 1 0
vn -1 0 0
vn -1 0 0
vn -0 0 1
vn -0 0 1
vn -0 0 1
vn -0 0 1
vn -1 0 0
vn -1 0 0
vn -0 0 -1
vn -0 0 -1
vn -0 0 1
vn -0 0 1
vn -0 0 1
vn -0 0 1
vn -1 0 0
vn -1 0 0
vn -0 0 -1
vn -0 0 -1
vn -0 0 1
vn -0 0 1
vn -0 0 1
vn -0 0 1
vn -0 1 0
vn -0 1 0
vn -0 0 -1
vn -0 0 -1
vn -0 0 1
vn -0 0 1
vn -0 0 1
vn -0 0 1
vn -0 1 0
vn -0 1 0
vn -0 0 -1
vn -0 0 -1
vn -0 0 -1
vn -0 0 -1
vn -0 0 -1
vn -0 0 -1
vn -0 -1 0
vn -0 -1 0
vn -0 0 1
vn -0 0 1
vn -0 0 1
vn -0 0 1
vn -0 0 1
vn -0 0 1
vn -0 1 0
vn -0 1 0
vn -0 0 -1
vn -0 0 -1
vn -1 0 0
vn -1 0 0
vn -1 0 0
vn -1 0 0
vn -0 1 0
vn -0 1 0
vn 1 0 0
vn 1 0 0
vn -1 0 0
vn -1 0 0
vn -1 0 0
vn -1 0 0
vn 1 0 0
vn 1 0 0
vn 1 0 0
vn 1 0 0
vn -0 1 0
vn -0 0 -1
vn -0 0 1
vn -0 1 0
vn 1 0 0
vn -0 0 -1
vn -1 0 0
vn -0 0 1
vn -0 -1 0
vn -0 -1 0
vn -0 -1 0
vn -0 -1 0
vn 1 0 0
vn 1 0 0
vn -1 0 0
vn -1 0 0
vn 1 0 0
vn 1 0 0
vn -1 0 0
vn -1 0 0
vn -0 -1 0
vn -0 -1 0
vn -0 0 1
vn -0 -1 0
vn 1 0 0
vn 1 0 0
vn -0 0 -1
vn -0 0 -1
vn -1 0 0
vn -1 0 0
vn -1 0 0
vn -1 0 0
vn -0 1 0
vn -0 1 0
vn -0 1 0
vn -0 1 0
vn 1 0 0
vn 1 0 0
vn -0 0 -1
vn -0 0 -1
vn -1 0 0
vn -1 0 0
vn -1 0 0
vn -1 0 0
vn -0 1 0
vn -0 1 0
vn -0 1 0
vn -0 1 0
vn -0 1 0
vn -0 1 0
vn -0 0 -1
vn -0 0 -1
vn -0 -1 0
vn -0 -1 0
vn -0 -1 0
vn -0 -1 0
vn -1 0 0
vn -1 0 0
vn -1 0 0
vn -1 0 0
vn -0 1 0
vn -0 1 0
vn -0 0 -1
vn -0 0 -1
vn -0 -1 0
vn -0 -1 0
vn -0 -1 0
vn -0 -1 0
vn -1 0 0
vn -1 0 0
vn -1 0 0
vn -1 0 0
vn -0 -1 0
vn -0 -1 0
vn -0 0 1
vn -0 0 1
vn 1 0 0
vn 1 0 0
vn 1 0 0
vn 1 0 0
vn -0 1 0
vn -0 1 0
vn -0 0 -1
vn -0 0 -1
vn -1 0 0
vn -1 0 0
vn -1 0 0
vn -1 0 0
vn 1 0 0
vn 1 0 0
vn 1 0 0
vn 1 0 0
vn -0 1 0
vn -0 1 0
vn -1 0 0
vn -1 0 0
vn -0 -1 0
vn -0 -1 0
vn -0 -1 0
vn -0 -1 0
vn -1 0 0
vn -1 0 0
vn -0 0 -1
vn -0 0 -1
vn 1 0 0
vn 1 0 0
vn 1 0 0
vn 1 0 0
vn -0 1 0
vn -0 1 0
vn -0 1 0
vn -0 1 0
vn -1 0 0
vn -1 0 0
vn -0 0 -1
vn -0 0 -1
vn 1 0 0
vn 1 0 0
vn 1 0 0
vn 1 0 0
vn -0 1 0
vn -0 1 0
vn -0 1 0
vn -0 1 0
vn -0 1 0
vn -0 1 0
vn -0 0 -1
vn -0 0 -1
vn -0 -1 0
vn -0 -1 0
vn -0 -1 0
vn -0 -1 0
vn 1 0 0
vn 1 0 0
vn 1 0 0
vn 1 0 0
vn -0 1 0
vn -0 1 0
vn -0 0 -1
vn -0 0 -1
vn -0 -1 0
vn -0 -1 0
vn -0 -1 0
vn -0 -1 0
vn 1 0 0
vn 1 0 0
vn 1 0 0
vn 1 0 0
vn -0 -1 0
vn -0 -1 0
vn -0 0 1
vn -0 0 1
vn -1 0 0
vn -1 0 0
vn -1 0 0
vn -1 0 0
vn -0 1 0
vn -0 1 0
vn -0 0 -1
vn -0 0 -1
vn 1 0 0
vn 1 0 0
vn 1 0 0
vn 1 0 0
vn -1 0 0
vn -1 0 0
vn -1 0 0
vn -1 0 0
vn -0 1 0
vn -0 1 0
vn 1 0 0
vn 1 0 0
vn -0 -1 0
vn -0 -1 0
vn -0 -1 0
vn -0 -1 0
vn -0 0 1
vn -0 0 -1
vn -0 1 0
vn -0 1 0
vn -0 1 0
vn -0 1 0
vn -0 1 0
vn -0 1 0
vn -0 -1 0
vn -0 -1 0
vn -0 -1 0
vn -0 -1 0
vn 1 0 0
vn 1 0 0
vn 1 0 0
vn -1 0 0
vn -1 0 0
vn -1 0 0
vn -0 1 0
vn -0 1 0
vn -0 1 0
vn -0 1 0
vn -0 1 0
vn -0 1 0
vn -0 1 0
vn -0 1 0
vn -0 -1 0
vn -0 -1 0
vn -0 0 -1
vn -0 0 -1
vn -0 0 -1
vn -0 0 1
vn -0 0 1
vn -0 -1 0
vn -0 -1 0
vn -0 -1 0
vn -1 -0.00011266736 0
vn -1 -0.00011266736 0
vn -1 -0.00011266736 0
vn -1 -0.00011266736 0
vn 1 -0.000112745533 0
vn 1 -0.000112745533 0
vn 1 -0.000112745533 0
vn 1 -0.000112745533 0
vn -0 0 -1
vn -0 0 -1
vn -0 0 -1
vn -0 0 -1
vn -0 0 1
vn -0 0 1
vn -0 0 1
vn -0 0 1
vn -0 0 1
vn -0 0 -1
vn -0 0 1
vn -0 0 1
vn -0 0 1
vn -0 0 1
vn -0 0 1
vn -0 0 -1
vn -0 0 -1
vn -0 0 -1
vn -0 0 -1
vn -0 0 -1
vn 1 0 0
vn 1 0 0
vn 1 0 0
vn 1 0 0
vn 1 0 0
vn 1 0 0
vn 1 0 0
vn 1 0 0
vn -1 0 0
vn -1 0 0
vn -1 0 0
vn -1 0 0
vn -1 0 0
vn -1 0 0
vn -1 0 0
vn -1 0 0
g ArmorGirlBulletproof_0
f 4/4/4 3/3/3 1/1/1
f 2/2/2 4/4/4 1/1/1
f 6/6/6 5/5/5 145/145/145
f 146/146/146 6/6/6 145/145/145
f 8/8/8 7/7/7 147/147/147
f 148/148/148 8/8/8 147/147/147
f 151/151/151 150/150/150 149/149/149
f 152/152/152 151/151/151 149/149/149
f 155/155/155 154/154/154 153/153/153
f 156/156/156 155/155/155 153/153/153
f 12/12/12 11/11/11 9/9/9
f 10/10/10 12/12/12 9/9/9
f 14/14/14 13/13/13 157/157/157
f 158/158/158 14/14/14 157/157/157
f 16/16/16 15/15/15 159/159/159
f 160/160/160 16/16/16 159/159/159
f 163/163/163 162/162/162 161/161/161
f 164/164/164 163/163/163 161/161/161
f 167/167/167 166/166/166 165/165/165
f 168/168/168 167/167/167 165/165/165
f 20/20/20 19/19/19 17/17/17
f 18/18/18 20/20/20 17/17/17
f 22/22/22 21/21/21 169/169/169
f 170/170/170 22/22/22 169/169/169
f 24/24/24 23/23/23 171/171/171
f 172/172/172 24/24/24 171/171/171
f 175/175/175 174/174/174 173/173/173
f 176/176/176 175/175/175 173/173/173
f 179/179/179 178/178/178 177/177/177
f 180/180/180 179/179/179 177/177/177
f 28/28/28 27/27/27 25/25/25
f 26/26/26 28/28/28 25/25/25
f 30/30/30 29/29/29 181/181/181
f 182/182/182 30/30/30 181/181/181
f 32/32/32 31/31/31 183/183/183
f 184/184/184 32/32/32 183/183/183
f 187/187/187 186/186/186 185/185/185
f 188/188/188 187/187/187 185/185/185
f 191/191/191 190/190/190 189/189/189
f 192/192/192 191/191/191 189/189/189
f 36/36/36 34/34/34 33/33/33
f 35/35/35 36/36/36 33/33/33
f 38/38/38 194/194/194 193/193/193
f 37/37/37 38/38/38 193/193/193
f 40/40/40 196/196/196 195/195/195
f 39/39/39 40/40/40 195/195/195
f 199/199/199 198/198/198 197/197/197
f 200/200/200 199/199/199 197/197/197
f 44/44/44 43/43/43 41/41/41
f 42/42/42 44/44/44 41/41/41
f 46/46/46 45/45/45 201/201/201
f 202/202/202 46/46/46 201/201/201
f 48/48/48 47/47/47 203/203/203
f 204/204/204 48/48/48 203/203/203
f 207/207/207 206/206/206 205/205/205
f 208/208/208 207/207/207 205/205/205
f 211/211/211 210/210/210 209/209/209
f 212/212/212 211/211/211 209/209/209
f 52/52/52 51/51/51 49/49/49
f 50/50/50 52/52/52 49/49/49
f 54/54/54 53/53/53 213/213/213
f 214/214/214 54/54/54 213/213/213
f 56/56/56 55/55/55 215/215/215
f 216/216/216 56/56/56 215/215/215
f 219/219/219 218/218/218 217/217/217
f 220/220/220 219/219/219 217/217/217
f 60/60/60 58/58/58 57/57/57
f 59/59/59 60/60/60 57/57/57
f 62/62/62 222/222/222 221/221/221
f 61/61/61 62/62/62 221/221/221
f 64/64/64 224/224/224 223/223/223
f 63/63/63 64/64/64 223/223/223
f 227/227/227 226/226/226 225/225/225
f 228/228/228 227/227/227 225/225/225
f 231/231/231 230/230/230 229/229/229
f 232/232/232 231/231/231 229/229/229
f 68/68/68 66/66/66 65/65/65
f 67/67/67 68/68/68 65/65/65
f 70/70/70 234/234/234 233/233/233
f 69/69/69 70/70/70 233/233/233
f 72/72/72 236/236/236 235/235/235
f 71/71/71 72/72/72 235/235/235
f 239/239/239 238/238/238 237/237/237
f 240/240/240 239/239/239 237/237/237
f 243/243/243 242/242/242 241/241/241
f 244/244/244 243/243/243 241/241/241
f 76/76/76 74/74/74 73/73/73
f 75/75/75 76/76/76 73/73/73
f 78/78/78 246/246/246 245/245/245
f 77/77/77 78/78/78 245/245/245
f 80/80/80 248/248/248 247/247/247
f 79/79/79 80/80/80 247/247/247
f 251/251/251 250/250/250 249/249/249
f 252/252/252 251/251/251 249/249/249
f 255/255/255 254/254/254 253/253/253
f 256/256/256 255/255/255 253/253/253
f 84/84/84 82/82/82 81/81/81
f 83/83/83 84/84/84 81/81/81
f 86/86/86 258/258/258 257/257/257
f 85/85/85 86/86/86 257/257/257
f 88/88/88 260/260/260 259/259/259
f 87/87/87 88/88/88 259/259/259
f 263/263/263 262/262/262 261/261/261
f 264/264/264 263/263/263 261/261/261
f 267/267/267 266/266/266 265/265/265
f 268/268/268 267/267/267 265/265/265
f 92/92/92 91/91/91 89/89/89
f 90/90/90 92/92/92 89/89/89
f 94/94/94 93/93/93 269/269/269
f 270/270/270 94/94/94 269/269/269
f 96/96/96 95/95/95 271/271/271
f 272/272/272 96/96/96 271/271/271
f 275/275/275 274/274/274 273/273/273
f 276/276/276 275/275/275 273/273/273
f 100/100/100 98/98/98 97/97/97
f 99/99/99 100/100/100 97/97/97
f 102/102/102 278/278/278 277/277/277
f 101/101/101 102/102/102 277/277/277
f 104/104/104 280/280/280 279/279/279
f 103/103/103 104/104/104 279/279/279
f 283/283/283 282/282/282 281/281/281
f 284/284/284 283/283/283 281/281/281
f 287/287/287 286/286/286 285/285/285
f 288/288/288 287/287/287 285/285/285
f 108/108/108 106/106/106 105/105/105
f 107/107/107 108/108/108 105/105/105
f 110/110/110 290/290/290 289/289/289
f 109/109/109 110/110/110 289/289/289
f 112/112/112 292/292/292 291/291/291
f 111/111/111 112/112/112 291/291/291
f 295/295/295 294/294/294 293/293/293
f 296/296/296 295/295/295 293/293/293
f 115/115/115 116/116/116 114/114/114
f 113/113/113 115/115/115 114/114/114
f 128/128/128 123/123/123 297/297/297
f 297/297/297 348/348/348 128/128/128
f 348/348/348 349/349/349 128/128/128
f 349/349/349 345/345/345 128/128/128
f 349/349/349 347/347/347 345/345/345
f 347/347/347 346/346/346 345/345/345
f 118/118/118 120/120/120 119/119/119
f 117/117/117 118/118/118 119/119/119
f 126/126/126 122/122/122 298/298/298
f 126/126/126 298/298/298 344/344/344
f 341/341/341 126/126/126 344/344/344
f 350/350/350 341/341/341 344/344/344
f 350/350/350 343/343/343 341/341/341
f 343/343/343 342/342/342 341/341/341
f 301/301/301 300/300/300 299/299/299
f 124/124/124 301/301/301 299/299/299
f 303/303/303 121/121/121 302/302/302
f 304/304/304 303/303/303 302/302/302
f 310/310/310 311/311/311 137/137/137
f 134/134/134 310/310/310 137/137/137
f 310/310/310 134/134/134 309/309/309
f 134/134/134 133/133/133 309/309/309
f 125/125/125 309/309/309 133/133/133
f 138/138/138 125/125/125 133/133/133
f 313/313/313 312/312/312 140/140/140
f 135/135/135 313/313/313 140/140/140
f 313/313/313 135/135/135 314/314/314
f 135/135/135 136/136/136 314/314/314
f 127/127/127 314/314/314 136/136/136
f 139/139/139 127/127/127 136/136/136
f 317/317/317 316/316/316 315/315/315
f 318/318/318 317/317/317 315/315/315
f 321/321/321 320/320/320 319/319/319
f 322/322/322 321/321/321 319/319/319
f 141/141/141 142/142/142 323/323/323
f 324/324/324 141/141/141 323/323/323
f 327/327/327 326/326/326 325/325/325
f 360/360/360 327/327/327 325/325/325
f 360/360/360 325/325/325 358/358/358
f 359/359/359 360/360/360 358/358/358
f 359/359/359 358/358/358 356/356/356
f 358/358/358 357/357/357 356/356/356
f 143/143/143 329/329/329 328/328/328
f 355/355/355 143/143/143 328/328/328
f 355/355/355 328/328/328 353/353/353
f 354/354/354 355/355/355 353/353/353
f 354/354/354 353/353/353 351/351/351
f 353/353/353 352/352/352 351/351/351
f 331/331/331 144/144/144 330/330/330
f 332/332/332 331/331/331 330/330/330
f 335/335/335 334/334/334 333/333/333
f 336/336/336 335/335/335 333/333/333
f 339/339/339 338/338/338 337/337/337
f 340/340/340 339/339/339 337/337/337
f 363/363/363 362/362/362 361/361/361
f 364/364/364 363/363/363 361/361/361
f 367/367/367 366/366/366 365/365/365
f 368/368/368 367/367/367 365/365/365
f 371/371/371 370/370/370 369/369/369
f 372/372/372 371/371/371 369/369/369
f 375/375/375 374/374/374 373/373/373
f 376/376/376 375/375/375 373/373/373
f 308/308/308 132/132/132 307/307/307
f 308/308/308 305/305/305 132/132/132
f 132/132/132 131/131/131 307/307/307
f 305/305/305 130/130/130 132/132/132
f 307/307/307 131/131/131 129/129/129
f 129/129/129 130/130/130 305/305/305
f 306/306/306 307/307/307 129/129/129
f 306/306/306 129/129/129 305/305/305
