v -0.21888245027261552 0.828863590807418 -0.1530597083348885
v -0.21888333751042446 1.4628887511859274 -0.153059644510089
v -0.21888245027292044 0.8288636319372008 0.15305945580181302
v -0.2188833375107294 1.4628887923156981 0.15305943021963947
v 0.21888231347666137 0.8288635954813159 -0.1530597381367823
v 0.2188834080932234 1.4628887558598485 -0.15305965941082064
v 0.21888231347635645 0.8288636366110406 0.15305899386621613
v 0.21888340809291848 1.4628887969895612 0.15305898318520475
v -0.21888248930078563 0.9270912022929376 0.15305944260408033
v -0.2188824893004807 0.9270911611631549 -0.15305972153262118
v 0.21888231915197331 0.9270912069667779 0.15305898066848345
v 0.21888231915227824 0.9270911658370533 -0.153059751334515
v -0.357254851410249 0.6473924870519219 -0.0466276303669403
v -0.3572528120228668 0.6939773350711701 -0.08807105178867869
v -0.39869905417693313 0.6939766708508949 -0.04663042507564746
v -0.3987171403557758 1.462888929048833 -0.046618699069355084
v -0.3572765923301553 1.4628888652970704 -0.08806540246544498
v -0.35726130365408315 0.6473925881107099 0.051962835363993806
v -0.39870550642271774 0.6939767719097133 0.05196007045760074
v -0.35726468878409573 0.6939775210918979 0.09340619101660509
v -0.35726403091356157 1.4628890877910758 0.09341201327259617
v -0.3987103161884201 1.4628890499218505 0.051971475615581395
v -0.26032084581736986 0.6939790508021227 0.09341256793707796
v -0.21887466326482627 0.6939797150223608 0.05197189279138389
v -0.2603174606873573 0.6473941178209346 0.05196921228446667
v -0.21888038762733322 1.462889066293605 0.051960313309834034
v -0.2603216808795393 1.4628890548007198 0.09340604325024252
v -0.2603089690551657 0.6939788647813796 -0.08806468976936287
v -0.26031100844303545 0.647394016762139 -0.04662126089704596
v -0.21886821101952927 0.6939796139635499 -0.046618595291285786
v -0.2603314177119347 1.4628888978973582 -0.0880713668768896
v -0.21888583352594218 1.4628889226286657 -0.04663029259927534
v -0.2173117705791743 0.8436102790168989 -0.0552237136138009
v -0.16877404663772505 0.8436112267279153 -0.10378954513176138
v -0.168774057592883 0.843609938531222 0.10379583491690537
v -0.21731177640853605 0.8436096635487623 0.055235271898417156
v -0.008965259372456486 0.8436120450877146 0.05523529386954373
v -0.0575376331842783 0.843611156992627 0.10379584664730378
v -0.05753762222907635 0.8436125643986162 -0.10378953340134237
v -0.008965253543028759 0.8436128393697949 -0.05522369164264341
v -0.1434693938564349 -0.00020623296489264957 -0.06609397426465288
v -0.16877426791609046 0.04431328197762808 -0.1037896450078416
v -0.16945737858529292 -0.00020600894570558493 -0.0377839764593318
v -0.21731194638936463 0.04430956973222737 -0.05522379983011187
v -0.16948933476593353 -0.0002137500869222179 0.037748974691805784
v -0.21731191464734548 0.044298717734649565 0.055235193305038705
v -0.1434693558768997 -0.00021236841141172234 0.06606246418583049
v -0.16877420826044345 0.04430111982450673 0.10379574191756911
v -0.0828742271720952 -0.00020466874350898233 0.06606244375661224
v -0.05753785019010567 0.04431463212674443 0.10379570441490293
v -0.05686137986056011 -0.00020260871637911855 0.03774893671949635
v -0.008965522797889468 0.044314812787350534 0.05523512306058899
v -0.05684306569418843 -0.00020530078153874133 -0.03778400697841045
v -0.008965551749972855 0.04431432873034962 -0.05522387007668154
v -0.08287426515454668 -0.0002067336913736858 -0.066093994695404
v -0.05753790985048493 0.044313487547380646 -0.10378968251299517
v -0.10322449828247261 1.4298523780082988 0.06509032819637064
v -0.1032246486063136 1.5696366088857123 0.06509017443127646
v -0.1032245016973856 1.4298522018916686 -0.07469372653299938
v -0.1032246520212268 1.5696364327690915 -0.0746938728475125
v 0.10322495116409477 1.4298526251607 0.06509032670583288
v 0.10322480084025377 1.5696368560381135 0.0650901729407387
v 0.10322494774918177 1.4298524490440698 -0.07469372802353713
v 0.1032247974253408 1.5696366799214834 -0.07469388178863133
v 0.2188849499390636 1.4628893571404031 0.05196748034574983
v 0.21888263176942707 1.4628894710740696 -0.04662307842684978
v 0.26032512651523043 1.4628896001542577 -0.08806753932228165
v 0.26032926009695617 1.4628891771655976 0.09340984036015088
v 0.3572738708265433 1.4628891770595303 0.09340736168730981
v 0.39871607667420017 1.4628892708511365 0.05196275155682869
v 0.3987009509428898 0.6939765217758979 0.0519652851753807
v 0.3572567519082811 0.6939771120999739 0.09340803715756234
v 0.3572583286185588 0.647392507215411 -0.046626027281001244
v 0.39870257018319893 0.6939767159458445 -0.04662529590932813
v 0.3572597277251508 0.6939774099073696 -0.08806936549747792
v 0.3572567093784989 0.6473923130454936 0.051964538902539874
v 0.2603129056003208 0.6939787595399984 0.09340648472732477
v 0.26031289287292964 0.6473939604855137 0.051962982747508234
v 0.21887015255008524 0.6939796323154201 0.05196237043751542
v 0.26031588141756434 0.693979057347438 -0.08807094027946706
v 0.2188717866915326 0.6939797668807464 -0.04662821064706115
v 0.2603145121131142 0.6473941546554457 -0.046627590886616735
v 0.3572685580558271 1.4628896445373318 -0.08807003493967135
v 0.39871319043652165 1.4628895248150504 -0.046627405617513246
v 0.1694888283052675 -0.00021402922872818664 0.03774891891693392
v 0.05686083589821763 -0.00020282367865299278 0.03774903917824886
v 0.08287373096210912 -0.00020490167317535607 0.06606251565740917
v 0.1434688597995732 -0.0002126358922956149 0.06606245095509052
v 0.008965235657092256 0.8436116275144514 0.05523524108225991
v 0.008965307744179835 0.8436124177305194 -0.05522379674816181
v 0.057537671894520435 0.8436121131435681 -0.10378960544487369
v 0.05753753642142356 0.8436107133788361 0.10379585417078475
v 0.008965027115786218 0.04431465749875574 0.055235296583322616
v 0.0089649018583687 0.044314185352104976 -0.055223734448621276
v 0.2173113090761942 0.04430930772744756 -0.055223956912135594
v 0.16877359126723213 0.04431305657363881 -0.10378975801006024
v 0.1434687099401521 -0.00020648578160844722 -0.06609402538290263
v 0.16945673496734098 -0.00020627971296027932 -0.0377840506511422
v 0.16877382665882165 0.044300872024146044 0.10379570013030309
v 0.21731143432975417 0.04429844753330244 0.055235074117308
v 0.05753719942079777 0.044313325475858756 -0.10378963923704355
v 0.05684241809493797 -0.0002055073730789468 -0.037783930406731274
v 0.08287358109989658 -0.00020695196519878386 -0.06609396068239325
v 0.05753743481691568 0.04431444394707017 0.10379581890625487
v 0.2173116284063411 0.8436097976165228 -0.055223634439581566
v 0.16877401752798807 0.8436107117433613 -0.10378951878813221
v 0.16877388205493263 0.843609431187932 0.10379594082754555
v 0.21731155631929497 0.8436091266097574 0.055235403390859486
v -0.39870796480023496 1.067483765931247 0.05196582310962079
v -0.35726442824351823 1.0674841594569466 0.09340915780255321
v -0.26031759222690654 1.023272496756359 -0.08806666539187394
v -0.2603244654041169 1.1116970304541893 -0.08807001552601249
v -0.35726148086612985 1.0232716848670274 -0.08806976304971131
v -0.3572683559799017 1.1116964621140297 -0.08806659190142724
v -0.21887958830232462 1.1001913484373655 -0.04662803968685814
v -0.2188754415178446 1.034782304161571 -0.04662204143086374
v -0.39871036881809224 1.1001900885306337 -0.04662147231666876
v -0.39870625883632327 1.034781153946638 -0.046627618380807395
v -0.21887718823380087 1.0674852690154526 0.05196554210367761
v -0.2603205833396476 1.0674848495716973 0.09340899109446713
v 0.39870837508167345 1.0674836659546427 0.05196398633110922
v 0.3572653522514575 1.0674838880950372 0.09340746032789994
v 0.357263589803193 1.1116966788380376 -0.08807038317732756
v 0.3572639143622073 1.0232717634671429 -0.0880697320288134
v 0.2603197090105317 1.1116975455767169 -0.08806862110287672
v 0.26032006579811195 1.0232727524416643 -0.08806968786098635
v 0.2603214730196864 1.0674847567808414 0.0934081150832552
v 0.21887654606318324 1.0347821555929984 -0.046626025930079626
v 0.21887697815684065 1.100191264524892 -0.04662434389093287
v 0.3987073129223899 1.0347805103060443 -0.04662633405058042
v 0.3987076809318821 1.1001897741452638 -0.04662739069413238
v 0.21887779521180142 1.067485342435992 0.05196499100975191
v -0.05753776249987404 0.4817195481756932 -0.1037895871833472
v -0.1687741409833471 0.5242816434603625 0.10379580386723251
v -0.168774116483835 0.4419829970086755 0.1037958072865662
v -0.21731180723015267 0.4526960257540684 0.05523525610651914
v -0.217311861564867 0.5109566901997281 0.05523523558063467
v -0.00896537931689966 0.5109651515933691 0.05523523449829874
v -0.00896538618054216 0.45270573920615 0.05523520891538612
v -0.008965394450188242 0.48171952697026155 -0.055223765673883096
v -0.21731184749264798 0.48171958885902094 -0.05522374153550028
v -0.1687741611872872 0.4817195812181694 -0.10378957429583827
v -0.05753773315841836 0.5242882860409447 0.10379580328974705
v -0.0575377269287378 0.4419906530604051 0.10379578209162003
v 0.008965153264884427 0.4527057324859014 0.05523533909524088
v 0.008965140226487889 0.5109648832516112 0.05523523185695182
v 0.008965120067838523 0.481719474782238 -0.05522374482620393
v 0.21731148028380903 0.4817194176773783 -0.055223774902930824
v 0.16877381593936258 0.48171943948259044 -0.10378960831342314
v 0.057537526839835616 0.4419906962550071 0.10379587910819628
v 0.05753746860761927 0.5242880535061124 0.10379581622761895
v 0.16877390713055662 0.4419829171611046 0.10379581169111782
v 0.1687738257923976 0.5242813472934217 0.10379585152592061
v 0.05753744719913272 0.4817194699709427 -0.10378959225542299
v 0.21731152350388966 0.5109563622804785 0.05523529797160277
v 0.2173115798201143 0.4526959896256099 0.055235212823631516
v -0.2603210448756139 1.0674848837328539 -0.08806834562781674
v -0.35726491958182205 1.067484193618111 -0.08806817891967483
v -0.21887752321958387 1.0674869461880176 -0.04662504073906619
v -0.39870832958786395 1.0674856815225664 -0.04662453994118328
v 0.35726399431388756 1.067484149517138 -0.08806994041168449
v 0.26032009592631045 1.0674850500165975 -0.08806928828125962
v 0.2188769745159207 1.0674866711999669 -0.04662553596828571
v 0.3987076827711403 1.0674850261856066 -0.04662653583690469
v -0.16877413683465267 0.48171955225057217 0.10379580546715295
v -0.21731183453428166 0.4817195734449705 0.05523524778924876
v -0.00896538428578995 0.48171951155621195 0.05523522365086628
v -0.05753773814723952 0.48171951920809597 0.103795792579644
v 0.008965146653068062 0.48171945544578854 0.0552352933302802
v 0.0575374971606983 0.4817194336319941 0.10379584427229116
v 0.16877386590092816 0.4817194031436418 0.10379582821429101
v 0.21731155157250473 0.4817193983409166 0.05523526325354684
v -0.21888245027292044 0.8288636319372008 0.15305945580181302
v -0.21888248930078563 0.9270912022929376 0.15305944260408033
v 0.21888231347635645 0.8288636366110406 0.15305899386621613
v 0.21888231915197331 0.9270912069667779 0.15305898066848345
v 0.21888231347666137 0.8288635954813159 -0.1530597381367823
v 0.21888231915227824 0.9270911658370533 -0.153059751334515
v -0.2188824893004807 0.9270911611631549 -0.15305972153262118
v -0.21888245027261552 0.828863590807418 -0.1530597083348885
v -0.21888245027261552 0.828863590807418 -0.1530597083348885
v -0.21888245027292044 0.8288636319372008 0.15305945580181302
v 0.21888231347635645 0.8288636366110406 0.15305899386621613
v 0.21888231347666137 0.8288635954813159 -0.1530597381367823
v -0.2188833375107294 1.4628887923156981 0.15305943021963947
v -0.21888248930078563 0.9270912022929376 0.15305944260408033
v -0.2188824893004807 0.9270911611631549 -0.15305972153262118
v -0.21888333751042446 1.4628887511859274 -0.153059644510089
v 0.21888340809291848 1.4628887969895612 0.15305898318520475
v 0.21888231915197331 0.9270912069667779 0.15305898066848345
v -0.21888248930078563 0.9270912022929376 0.15305944260408033
v -0.2188833375107294 1.4628887923156981 0.15305943021963947
v 0.2188834080932234 1.4628887558598485 -0.15305965941082064
v 0.21888231915227824 0.9270911658370533 -0.153059751334515
v 0.21888231915197331 0.9270912069667779 0.15305898066848345
v 0.21888340809291848 1.4628887969895612 0.15305898318520475
v -0.2188824893004807 0.9270911611631549 -0.15305972153262118
v 0.21888231915227824 0.9270911658370533 -0.153059751334515
v 0.2188834080932234 1.4628887558598485 -0.15305965941082064
v -0.21888333751042446 1.4628887511859274 -0.153059644510089
v -0.35726130365408315 0.6473925881107099 0.051962835363993806
v -0.357254851410249 0.6473924870519219 -0.0466276303669403
v -0.39869905417693313 0.6939766708508949 -0.04663042507564746
v -0.39870550642271774 0.6939767719097133 0.05196007045760074
v -0.2603174606873573 0.6473941178209346 0.05196921228446667
v -0.35726130365408315 0.6473925881107099 0.051962835363993806
v -0.35726468878409573 0.6939775210918979 0.09340619101660509
v -0.26032084581736986 0.6939790508021227 0.09341256793707796
v -0.357254851410249 0.6473924870519219 -0.0466276303669403
v -0.26031100844303545 0.647394016762139 -0.04662126089704596
v -0.2603089690551657 0.6939788647813796 -0.08806468976936287
v -0.3572528120228668 0.6939773350711701 -0.08807105178867869
v -0.21887466326482627 0.6939797150223608 0.05197189279138389
v -0.21886821101952927 0.6939796139635499 -0.046618595291285786
v -0.26031100844303545 0.647394016762139 -0.04662126089704596
v -0.2603174606873573 0.6473941178209346 0.05196921228446667
v -0.35726130365408315 0.6473925881107099 0.051962835363993806
v -0.2603174606873573 0.6473941178209346 0.05196921228446667
v -0.26031100844303545 0.647394016762139 -0.04662126089704596
v -0.357254851410249 0.6473924870519219 -0.0466276303669403
v -0.21887958830232462 1.1001913484373655 -0.04662803968685814
v -0.21887752321958387 1.0674869461880176 -0.04662504073906619
v -0.1434693558768997 -0.00021236841141172234 0.06606246418583049
v -0.16948933476593353 -0.0002137500869222179 0.037748974691805784
v -0.05686137986056011 -0.00020260871637911855 0.03774893671949635
v -0.0828742271720952 -0.00020466874350898233 0.06606244375661224
v -0.16945737858529292 -0.00020600894570558493 -0.0377839764593318
v -0.21731194638936463 0.04430956973222737 -0.05522379983011187
v -0.21731191464734548 0.044298717734649565 0.055235193305038705
v -0.16948933476593353 -0.0002137500869222179 0.037748974691805784
v -0.1434693558768997 -0.00021236841141172234 0.06606246418583049
v -0.16877420826044345 0.04430111982450673 0.10379574191756911
v -0.05753785019010567 0.04431463212674443 0.10379570441490293
v -0.0828742271720952 -0.00020466874350898233 0.06606244375661224
v -0.05686137986056011 -0.00020260871637911855 0.03774893671949635
v -0.008965522797889468 0.044314812787350534 0.05523512306058899
v -0.008965551749972855 0.04431432873034962 -0.05522387007668154
v -0.05684306569418843 -0.00020530078153874133 -0.03778400697841045
v -0.08287426515454668 -0.0002067336913736858 -0.066093994695404
v -0.05753790985048493 0.044313487547380646 -0.10378968251299517
v -0.16877426791609046 0.04431328197762808 -0.1037896450078416
v -0.1434693938564349 -0.00020623296489264957 -0.06609397426465288
v -0.00896537931689966 0.5109651515933691 0.05523523449829874
v -0.00896538428578995 0.48171951155621195 0.05523522365086628
v -0.16945737858529292 -0.00020600894570558493 -0.0377839764593318
v -0.05684306569418843 -0.00020530078153874133 -0.03778400697841045
v -0.1434693938564349 -0.00020623296489264957 -0.06609397426465288
v -0.08287426515454668 -0.0002067336913736858 -0.066093994695404
v -0.1032246520212268 1.5696364327690915 -0.0746938728475125
v -0.1032245016973856 1.4298522018916686 -0.07469372653299938
v 0.10322494774918177 1.4298524490440698 -0.07469372802353713
v 0.1032247974253408 1.5696366799214834 -0.07469388178863133
v 0.10322495116409477 1.4298526251607 0.06509032670583288
v -0.10322449828247261 1.4298523780082988 0.06509032819637064
v -0.1032246486063136 1.5696366088857123 0.06509017443127646
v 0.10322480084025377 1.5696368560381135 0.0650901729407387
v 0.10322494774918177 1.4298524490440698 -0.07469372802353713
v -0.1032245016973856 1.4298522018916686 -0.07469372653299938
v -0.10322449828247261 1.4298523780082988 0.06509032819637064
v 0.10322495116409477 1.4298526251607 0.06509032670583288
v -0.1032246520212268 1.5696364327690915 -0.0746938728475125
v 0.1032247974253408 1.5696366799214834 -0.07469388178863133
v 0.10322480084025377 1.5696368560381135 0.0650901729407387
v -0.1032246486063136 1.5696366088857123 0.06509017443127646
v 0.3572567093784989 0.6473923130454936 0.051964538902539874
v 0.3987009509428898 0.6939765217758979 0.0519652851753807
v 0.39870257018319893 0.6939767159458445 -0.04662529590932813
v 0.3572583286185588 0.647392507215411 -0.046626027281001244
v 0.26031289287292964 0.6473939604855137 0.051962982747508234
v 0.2603129056003208 0.6939787595399984 0.09340648472732477
v 0.3572567519082811 0.6939771120999739 0.09340803715756234
v 0.3572567093784989 0.6473923130454936 0.051964538902539874
v 0.3572583286185588 0.647392507215411 -0.046626027281001244
v 0.3572597277251508 0.6939774099073696 -0.08806936549747792
v 0.26031588141756434 0.693979057347438 -0.08807094027946706
v 0.2603145121131142 0.6473941546554457 -0.046627590886616735
v 0.21887015255008524 0.6939796323154201 0.05196237043751542
v 0.26031289287292964 0.6473939604855137 0.051962982747508234
v 0.2603145121131142 0.6473941546554457 -0.046627590886616735
v 0.2188717866915326 0.6939797668807464 -0.04662821064706115
v 0.3572567093784989 0.6473923130454936 0.051964538902539874
v 0.3572583286185588 0.647392507215411 -0.046626027281001244
v 0.2603145121131142 0.6473941546554457 -0.046627590886616735
v 0.26031289287292964 0.6473939604855137 0.051962982747508234
v 0.35726399431388756 1.067484149517138 -0.08806994041168449
v 0.3572639143622073 1.0232717634671429 -0.0880697320288134
v 0.3987073129223899 1.0347805103060443 -0.04662633405058042
v 0.3987076827711403 1.0674850261856066 -0.04662653583690469
v 0.1694888283052675 -0.00021402922872818664 0.03774891891693392
v 0.1434688597995732 -0.0002126358922956149 0.06606245095509052
v 0.08287373096210912 -0.00020490167317535607 0.06606251565740917
v 0.05686083589821763 -0.00020282367865299278 0.03774903917824886
v 0.16945673496734098 -0.00020627971296027932 -0.0377840506511422
v 0.1694888283052675 -0.00021402922872818664 0.03774891891693392
v 0.21731143432975417 0.04429844753330244 0.055235074117308
v 0.2173113090761942 0.04430930772744756 -0.055223956912135594
v 0.1434688597995732 -0.0002126358922956149 0.06606245095509052
v 0.08287373096210912 -0.00020490167317535607 0.06606251565740917
v 0.05753743481691568 0.04431444394707017 0.10379581890625487
v 0.16877382665882165 0.044300872024146044 0.10379570013030309
v 0.05686083589821763 -0.00020282367865299278 0.03774903917824886
v 0.05684241809493797 -0.0002055073730789468 -0.037783930406731274
v 0.0089649018583687 0.044314185352104976 -0.055223734448621276
v 0.008965027115786218 0.04431465749875574 0.055235296583322616
v 0.08287358109989658 -0.00020695196519878386 -0.06609396068239325
v 0.1434687099401521 -0.00020648578160844722 -0.06609402538290263
v 0.16877359126723213 0.04431305657363881 -0.10378975801006024
v 0.05753719942079777 0.044313325475858756 -0.10378963923704355
v 0.008965140226487889 0.5109648832516112 0.05523523185695182
v 0.008965146653068062 0.48171945544578854 0.0552352933302802
v 0.16945673496734098 -0.00020627971296027932 -0.0377840506511422
v 0.05684241809493797 -0.0002055073730789468 -0.037783930406731274
v 0.1434687099401521 -0.00020648578160844722 -0.06609402538290263
v 0.08287358109989658 -0.00020695196519878386 -0.06609396068239325
v -0.39870550642271774 0.6939767719097133 0.05196007045760074
v -0.35726468878409573 0.6939775210918979 0.09340619101660509
v -0.35726403091356157 1.4628890877910758 0.09341201327259617
v -0.3987103161884201 1.4628890499218505 0.051971475615581395
v -0.3572765923301553 1.4628888652970704 -0.08806540246544498
v -0.2603244654041169 1.1116970304541893 -0.08807001552601249
v -0.2603314177119347 1.4628888978973582 -0.0880713668768896
v -0.2603210448756139 1.0674848837328539 -0.08806834562781674
v -0.2603089690551657 0.6939788647813796 -0.08806468976936287
v -0.3572528120228668 0.6939773350711701 -0.08807105178867869
v -0.2603216808795393 1.4628890548007198 0.09340604325024252
v -0.35726442824351823 1.0674841594569466 0.09340915780255321
v -0.35726403091356157 1.4628890877910758 0.09341201327259617
v -0.35726468878409573 0.6939775210918979 0.09340619101660509
v -0.26032084581736986 0.6939790508021227 0.09341256793707796
v -0.21886821101952927 0.6939796139635499 -0.046618595291285786
v -0.26031759222690654 1.023272496756359 -0.08806666539187394
v -0.2603089690551657 0.6939788647813796 -0.08806468976936287
v -0.2603314177119347 1.4628888978973582 -0.0880713668768896
v -0.21888583352594218 1.4628889226286657 -0.04663029259927534
v -0.3987103161884201 1.4628890499218505 0.051971475615581395
v -0.39870796480023496 1.067483765931247 0.05196582310962079
v -0.3987171403557758 1.462888929048833 -0.046618699069355084
v -0.39869905417693313 0.6939766708508949 -0.04663042507564746
v -0.39870550642271774 0.6939767719097133 0.05196007045760074
v -0.21887466326482627 0.6939797150223608 0.05197189279138389
v -0.2188754415178446 1.034782304161571 -0.04662204143086374
v -0.21886821101952927 0.6939796139635499 -0.046618595291285786
v -0.21888583352594218 1.4628889226286657 -0.04663029259927534
v -0.21888038762733322 1.462889066293605 0.051960313309834034
v -0.3987171403557758 1.462888929048833 -0.046618699069355084
v -0.39871036881809224 1.1001900885306337 -0.04662147231666876
v -0.3572683559799017 1.1116964621140297 -0.08806659190142724
v -0.3572765923301553 1.4628888652970704 -0.08806540246544498
v -0.39870625883632327 1.034781153946638 -0.046627618380807395
v -0.35726148086612985 1.0232716848670274 -0.08806976304971131
v -0.35726491958182205 1.067484193618111 -0.08806817891967483
v -0.39870832958786395 1.0674856815225664 -0.04662453994118328
v -0.3572528120228668 0.6939773350711701 -0.08807105178867869
v -0.39869905417693313 0.6939766708508949 -0.04663042507564746
v -0.26032084581736986 0.6939790508021227 0.09341256793707796
v -0.2603205833396476 1.0674848495716973 0.09340899109446713
v -0.21887718823380087 1.0674852690154526 0.05196554210367761
v -0.21887466326482627 0.6939797150223608 0.05197189279138389
v -0.21888038762733322 1.462889066293605 0.051960313309834034
v -0.2603216808795393 1.4628890548007198 0.09340604325024252
v 0.3572567519082811 0.6939771120999739 0.09340803715756234
v 0.39870837508167345 1.0674836659546427 0.05196398633110922
v 0.3987009509428898 0.6939765217758979 0.0519652851753807
v 0.39871607667420017 1.4628892708511365 0.05196275155682869
v 0.3572738708265433 1.4628891770595303 0.09340736168730981
v 0.26032512651523043 1.4628896001542577 -0.08806753932228165
v 0.3572685580558271 1.4628896445373318 -0.08807003493967135
v 0.3572597277251508 0.6939774099073696 -0.08806936549747792
v 0.26031588141756434 0.693979057347438 -0.08807094027946706
v 0.3572738708265433 1.4628891770595303 0.09340736168730981
v 0.3572653522514575 1.0674838880950372 0.09340746032789994
v 0.26032926009695617 1.4628891771655976 0.09340984036015088
v 0.2603129056003208 0.6939787595399984 0.09340648472732477
v 0.3572567519082811 0.6939771120999739 0.09340803715756234
v 0.26031588141756434 0.693979057347438 -0.08807094027946706
v 0.26032006579811195 1.0232727524416643 -0.08806968786098635
v 0.2188717866915326 0.6939797668807464 -0.04662821064706115
v 0.26032009592631045 1.0674850500165975 -0.08806928828125962
v 0.2603197090105317 1.1116975455767169 -0.08806862110287672
v 0.21888263176942707 1.4628894710740696 -0.04662307842684978
v 0.26032512651523043 1.4628896001542577 -0.08806753932228165
v 0.39871319043652165 1.4628895248150504 -0.046627405617513246
v 0.39871607667420017 1.4628892708511365 0.05196275155682869
v 0.3987009509428898 0.6939765217758979 0.0519652851753807
v 0.39870257018319893 0.6939767159458445 -0.04662529590932813
v 0.2188717866915326 0.6939797668807464 -0.04662821064706115
v 0.21887654606318324 1.0347821555929984 -0.046626025930079626
v 0.21887015255008524 0.6939796323154201 0.05196237043751542
v 0.21887697815684065 1.100191264524892 -0.04662434389093287
v 0.2188769745159207 1.0674866711999669 -0.04662553596828571
v 0.2188849499390636 1.4628893571404031 0.05196748034574983
v 0.21888263176942707 1.4628894710740696 -0.04662307842684978
v 0.3572685580558271 1.4628896445373318 -0.08807003493967135
v 0.357263589803193 1.1116966788380376 -0.08807038317732756
v 0.3987076809318821 1.1001897741452638 -0.04662739069413238
v 0.39871319043652165 1.4628895248150504 -0.046627405617513246
v 0.39870257018319893 0.6939767159458445 -0.04662529590932813
v 0.3572597277251508 0.6939774099073696 -0.08806936549747792
v 0.21887015255008524 0.6939796323154201 0.05196237043751542
v 0.21887779521180142 1.067485342435992 0.05196499100975191
v 0.2603214730196864 1.0674847567808414 0.0934081150832552
v 0.2603129056003208 0.6939787595399984 0.09340648472732477
v 0.26032926009695617 1.4628891771655976 0.09340984036015088
v 0.2188849499390636 1.4628893571404031 0.05196748034574983
v -0.008965522797889468 0.044314812787350534 0.05523512306058899
v -0.008965551749972855 0.04431432873034962 -0.05522387007668154
v -0.008965253543028759 0.8436128393697949 -0.05522369164264341
v -0.008965259372456486 0.8436120450877146 0.05523529386954373
v -0.2173117705791743 0.8436102790168989 -0.0552237136138009
v -0.16877404663772505 0.8436112267279153 -0.10378954513176138
v -0.16877426791609046 0.04431328197762808 -0.1037896450078416
v -0.21731194638936463 0.04430956973222737 -0.05522379983011187
v -0.0575376331842783 0.843611156992627 0.10379584664730378
v -0.05753773315841836 0.5242882860409447 0.10379580328974705
v -0.1687741409833471 0.5242816434603625 0.10379580386723251
v -0.168774057592883 0.843609938531222 0.10379583491690537
v -0.05753773814723952 0.48171951920809597 0.103795792579644
v -0.16877413683465267 0.48171955225057217 0.10379580546715295
v -0.16877420826044345 0.04430111982450673 0.10379574191756911
v -0.05753785019010567 0.04431463212674443 0.10379570441490293
v -0.16877404663772505 0.8436112267279153 -0.10378954513176138
v -0.1687741611872872 0.4817195812181694 -0.10378957429583827
v -0.05753762222907635 0.8436125643986162 -0.10378953340134237
v -0.05753790985048493 0.044313487547380646 -0.10378968251299517
v -0.16877426791609046 0.04431328197762808 -0.1037896450078416
v -0.008965551749972855 0.04431432873034962 -0.05522387007668154
v -0.008965394450188242 0.48171952697026155 -0.055223765673883096
v -0.05753776249987404 0.4817195481756932 -0.1037895871833472
v -0.05753790985048493 0.044313487547380646 -0.10378968251299517
v -0.05753762222907635 0.8436125643986162 -0.10378953340134237
v -0.008965253543028759 0.8436128393697949 -0.05522369164264341
v -0.21731191464734548 0.044298717734649565 0.055235193305038705
v -0.168774116483835 0.4419829970086755 0.1037958072865662
v -0.16877420826044345 0.04430111982450673 0.10379574191756911
v -0.168774057592883 0.843609938531222 0.10379583491690537
v -0.21731177640853605 0.8436096635487623 0.055235271898417156
v -0.05753785019010567 0.04431463212674443 0.10379570441490293
v -0.0575377269287378 0.4419906530604051 0.10379578209162003
v -0.00896538618054216 0.45270573920615 0.05523520891538612
v -0.008965522797889468 0.044314812787350534 0.05523512306058899
v -0.008965259372456486 0.8436120450877146 0.05523529386954373
v -0.0575376331842783 0.843611156992627 0.10379584664730378
v -0.21731177640853605 0.8436096635487623 0.055235271898417156
v -0.217311861564867 0.5109566901997281 0.05523523558063467
v -0.21731184749264798 0.48171958885902094 -0.05522374153550028
v -0.2173117705791743 0.8436102790168989 -0.0552237136138009
v -0.21731180723015267 0.4526960257540684 0.05523525610651914
v -0.21731183453428166 0.4817195734449705 0.05523524778924876
v -0.21731194638936463 0.04430956973222737 -0.05522379983011187
v -0.21731191464734548 0.044298717734649565 0.055235193305038705
v 0.0089649018583687 0.044314185352104976 -0.055223734448621276
v 0.008965027115786218 0.04431465749875574 0.055235296583322616
v 0.008965235657092256 0.8436116275144514 0.05523524108225991
v 0.008965307744179835 0.8436124177305194 -0.05522379674816181
v 0.16877401752798807 0.8436107117433613 -0.10378951878813221
v 0.2173116284063411 0.8436097976165228 -0.055223634439581566
v 0.2173113090761942 0.04430930772744756 -0.055223956912135594
v 0.16877359126723213 0.04431305657363881 -0.10378975801006024
v 0.16877388205493263 0.843609431187932 0.10379594082754555
v 0.1687738257923976 0.5242813472934217 0.10379585152592061
v 0.05753746860761927 0.5242880535061124 0.10379581622761895
v 0.05753753642142356 0.8436107133788361 0.10379585417078475
v 0.16877386590092816 0.4817194031436418 0.10379582821429101
v 0.0575374971606983 0.4817194336319941 0.10379584427229116
v 0.05753743481691568 0.04431444394707017 0.10379581890625487
v 0.16877382665882165 0.044300872024146044 0.10379570013030309
v 0.057537671894520435 0.8436121131435681 -0.10378960544487369
v 0.16877381593936258 0.48171943948259044 -0.10378960831342314
v 0.16877401752798807 0.8436107117433613 -0.10378951878813221
v 0.16877359126723213 0.04431305657363881 -0.10378975801006024
v 0.05753719942079777 0.044313325475858756 -0.10378963923704355
v 0.05753719942079777 0.044313325475858756 -0.10378963923704355
v 0.05753744719913272 0.4817194699709427 -0.10378959225542299
v 0.008965120067838523 0.481719474782238 -0.05522374482620393
v 0.0089649018583687 0.044314185352104976 -0.055223734448621276
v 0.008965307744179835 0.8436124177305194 -0.05522379674816181
v 0.057537671894520435 0.8436121131435681 -0.10378960544487369
v 0.16877382665882165 0.044300872024146044 0.10379570013030309
v 0.16877390713055662 0.4419829171611046 0.10379581169111782
v 0.21731143432975417 0.04429844753330244 0.055235074117308
v 0.21731155631929497 0.8436091266097574 0.055235403390859486
v 0.16877388205493263 0.843609431187932 0.10379594082754555
v 0.008965027115786218 0.04431465749875574 0.055235296583322616
v 0.008965153264884427 0.4527057324859014 0.05523533909524088
v 0.057537526839835616 0.4419906962550071 0.10379587910819628
v 0.05753743481691568 0.04431444394707017 0.10379581890625487
v 0.05753753642142356 0.8436107133788361 0.10379585417078475
v 0.008965235657092256 0.8436116275144514 0.05523524108225991
v 0.2173116284063411 0.8436097976165228 -0.055223634439581566
v 0.21731148028380903 0.4817194176773783 -0.055223774902930824
v 0.21731152350388966 0.5109563622804785 0.05523529797160277
v 0.21731155631929497 0.8436091266097574 0.055235403390859486
v 0.2173115798201143 0.4526959896256099 0.055235212823631516
v 0.21731155157250473 0.4817193983409166 0.05523526325354684
v 0.21731143432975417 0.04429844753330244 0.055235074117308
v 0.2173113090761942 0.04430930772744756 -0.055223956912135594
vt 0.41845703125 0.4580078125
vt 0.53564453125 0.490966796875
vt 0.29833984375 0.4580078125
vt 0.65576171875 0.490966796875
vt 0.006526947021484375 0.4580078125
vt 0.53564453125 0.6630859375
vt 0.1265869140625 0.4580078125
vt 0.65576171875 0.6630859375
vt 0.29833984375 0.41943359375
vt 0.41845703125 0.41943359375
vt 0.1265869140625 0.41943359375
vt 0.006526947021484375 0.41943359375
vt 0.630859375 0.91748046875
vt 0.62744140625 0.89453125
vt 0.60791015625 0.9140625
vt 0.60986328125 0.7294921875
vt 0.6259765625 0.74560546875
vt 0.630859375 0.9541015625
vt 0.60791015625 0.95751953125
vt 0.62744140625 0.97705078125
vt 0.6259765625 0.67431640625
vt 0.60986328125 0.69091796875
vt 0.67041015625 0.97705078125
vt 0.689453125 0.95751953125
vt 0.6669921875 0.9541015625
vt 0.6806640625 0.69091796875
vt 0.6640625 0.67431640625
vt 0.67041015625 0.89453125
vt 0.6669921875 0.91748046875
vt 0.689453125 0.9140625
vt 0.6640625 0.74560546875
vt 0.6806640625 0.7294921875
vt 0.01123809814453125 0.391845703125
vt 0.0302734375 0.410888671875
vt 0.0302734375 0.329345703125
vt 0.01123809814453125 0.348388671875
vt 0.09295654296875 0.348388671875
vt 0.07391357421875 0.329345703125
vt 0.07391357421875 0.410888671875
vt 0.09295654296875 0.391845703125
vt 0.66015625 0.286376953125
vt 0.67236328125 0.3076171875
vt 0.67041015625 0.276611328125
vt 0.6943359375 0.286376953125
vt 0.67041015625 0.2489013671875
vt 0.6943359375 0.2391357421875
vt 0.66015625 0.2392578125
vt 0.67236328125 0.2178955078125
vt 0.63720703125 0.2392578125
vt 0.625 0.2178955078125
vt 0.626953125 0.2489013671875
vt 0.60302734375 0.2391357421875
vt 0.626953125 0.276611328125
vt 0.60302734375 0.286376953125
vt 0.63720703125 0.286376953125
vt 0.625 0.3076171875
vt 0.9404296875 0.9013671875
vt 0.88525390625 0.9013671875
vt 0.9404296875 0.8466796875
vt 0.88525390625 0.8466796875
vt 0.8740234375 0.84716796875
vt 0.8193359375 0.84716796875
vt 0.93310546875 0.9921875
vt 0.98779296875 0.9921875
vt 0.52783203125 0.69091796875
vt 0.52783203125 0.7294921875
vt 0.5439453125 0.74560546875
vt 0.5439453125 0.67431640625
vt 0.58203125 0.67431640625
vt 0.59814453125 0.69091796875
vt 0.689453125 0.8583984375
vt 0.67041015625 0.8779296875
vt 0.6669921875 0.818359375
vt 0.689453125 0.81494140625
vt 0.67041015625 0.79541015625
vt 0.6669921875 0.85498046875
vt 0.62744140625 0.8779296875
vt 0.630859375 0.85498046875
vt 0.60791015625 0.8583984375
vt 0.62744140625 0.79541015625
vt 0.60791015625 0.81494140625
vt 0.630859375 0.818359375
vt 0.58203125 0.74560546875
vt 0.59814453125 0.7294921875
vt 0.62646484375 0.354736328125
vt 0.669921875 0.354736328125
vt 0.65966796875 0.34521484375
vt 0.63671875 0.34521484375
vt 0.10723876953125 0.348388671875
vt 0.10723876953125 0.391845703125
vt 0.1263427734375 0.410888671875
vt 0.1263427734375 0.329345703125
vt 0.6943359375 0.344970703125
vt 0.6943359375 0.392333984375
vt 0.6025390625 0.392333984375
vt 0.62451171875 0.41357421875
vt 0.63671875 0.39208984375
vt 0.62646484375 0.382568359375
vt 0.62451171875 0.32373046875
vt 0.6025390625 0.344970703125
vt 0.671875 0.41357421875
vt 0.669921875 0.382568359375
vt 0.65966796875 0.39208984375
vt 0.671875 0.32373046875
vt 0.18896484375 0.391845703125
vt 0.169921875 0.410888671875
vt 0.169921875 0.329345703125
vt 0.18896484375 0.348388671875
vt 0.370849609375 0.6171875
vt 0.393798828125 0.6171875
vt 0.271240234375 0.599609375
vt 0.5166015625 0.63427734375
vt 0.30908203125 0.599609375
vt 0.30908203125 0.63427734375
vt 0.49365234375 0.6298828125
vt 0.49365234375 0.6044921875
vt 0.332275390625 0.6298828125
vt 0.332275390625 0.6044921875
vt 0.454833984375 0.6171875
vt 0.431884765625 0.6171875
vt 0.1566162109375 0.6171875
vt 0.133544921875 0.6171875
vt 0.21826171875 0.63427734375
vt 0.21826171875 0.599609375
vt 0.25634765625 0.63427734375
vt 0.25634765625 0.599609375
vt 0.09552001953125 0.6171875
vt 0.03387451171875 0.6044921875
vt 0.03387451171875 0.6298828125
vt 0.1953125 0.6044921875
vt 0.1953125 0.6298828125
vt 0.07257080078125 0.6171875
vt 0.00830841064453125 0.1785888671875
vt 0.149169921875 0.196044921875
vt 0.149169921875 0.163818359375
vt 0.12225341796875 0.16796875
vt 0.12225341796875 0.1907958984375
vt 0.2197265625 0.1907958984375
vt 0.2197265625 0.16796875
vt 0.26318359375 0.1785888671875
vt 0.07891845703125 0.1785888671875
vt 0.05194091796875 0.1785888671875
vt 0.19287109375 0.196044921875
vt 0.19287109375 0.163818359375
vt 0.37548828125 0.16796875
vt 0.37548828125 0.1907958984375
vt 0.332275390625 0.1785888671875
vt 0.5166015625 0.1785888671875
vt 0.54345703125 0.1785888671875
vt 0.402587890625 0.163818359375
vt 0.402587890625 0.196044921875
vt 0.4462890625 0.163818359375
vt 0.4462890625 0.196044921875
vt 0.5869140625 0.1785888671875
vt 0.47314453125 0.1907958984375
vt 0.47314453125 0.16796875
vt 0.5166015625 0.6171875
vt 0.30908203125 0.6171875
vt 0.49365234375 0.6171875
vt 0.332275390625 0.6171875
vt 0.21826171875 0.6171875
vt 0.25634765625 0.6171875
vt 0.03387451171875 0.6171875
vt 0.1953125 0.6171875
vt 0.149169921875 0.180419921875
vt 0.12225341796875 0.179931640625
vt 0.2197265625 0.179931640625
vt 0.19287109375 0.180419921875
vt 0.37548828125 0.179931640625
vt 0.402587890625 0.180419921875
vt 0.4462890625 0.180419921875
vt 0.47314453125 0.179931640625
vt 0.29833984375 0.4580078125
vt 0.29833984375 0.41943359375
vt 0.1265869140625 0.4580078125
vt 0.1265869140625 0.41943359375
vt 0.59033203125 0.4580078125
vt 0.59033203125 0.41943359375
vt 0.41845703125 0.41943359375
vt 0.41845703125 0.4580078125
vt 0.7216796875 0.025909423828125
vt 0.6015625 0.025909423828125
vt 0.6015625 0.1976318359375
vt 0.7216796875 0.1976318359375
vt 0.30224609375 0.9951171875
vt 0.30224609375 0.78466796875
vt 0.1820068359375 0.78466796875
vt 0.1820068359375 0.9951171875
vt 0.473876953125 0.9951171875
vt 0.473876953125 0.78466796875
vt 0.30224609375 0.78466796875
vt 0.30224609375 0.9951171875
vt 0.59423828125 0.9951171875
vt 0.59423828125 0.78466796875
vt 0.473876953125 0.78466796875
vt 0.473876953125 0.9951171875
vt 0.1820068359375 0.78466796875
vt 0.01027679443359375 0.78466796875
vt 0.01027679443359375 0.9951171875
vt 0.1820068359375 0.9951171875
vt 0.630859375 0.9541015625
vt 0.630859375 0.91748046875
vt 0.60791015625 0.9140625
vt 0.60791015625 0.95751953125
vt 0.6669921875 0.9541015625
vt 0.630859375 0.9541015625
vt 0.62744140625 0.97705078125
vt 0.67041015625 0.97705078125
vt 0.630859375 0.91748046875
vt 0.6669921875 0.91748046875
vt 0.67041015625 0.89453125
vt 0.62744140625 0.89453125
vt 0.689453125 0.95751953125
vt 0.689453125 0.9140625
vt 0.6669921875 0.91748046875
vt 0.6669921875 0.9541015625
vt 0.630859375 0.9541015625
vt 0.6669921875 0.9541015625
vt 0.6669921875 0.91748046875
vt 0.630859375 0.91748046875
vt 0.49365234375 0.6298828125
vt 0.49365234375 0.6171875
vt 0.66015625 0.2392578125
vt 0.67041015625 0.2489013671875
vt 0.626953125 0.2489013671875
vt 0.63720703125 0.2392578125
vt 0.67041015625 0.276611328125
vt 0.6943359375 0.286376953125
vt 0.6943359375 0.2391357421875
vt 0.67041015625 0.2489013671875
vt 0.66015625 0.2392578125
vt 0.67236328125 0.2178955078125
vt 0.625 0.2178955078125
vt 0.63720703125 0.2392578125
vt 0.626953125 0.2489013671875
vt 0.60302734375 0.2391357421875
vt 0.60302734375 0.286376953125
vt 0.626953125 0.276611328125
vt 0.63720703125 0.286376953125
vt 0.625 0.3076171875
vt 0.67236328125 0.3076171875
vt 0.66015625 0.286376953125
vt 0.2197265625 0.1907958984375
vt 0.2197265625 0.179931640625
vt 0.67041015625 0.276611328125
vt 0.626953125 0.276611328125
vt 0.66015625 0.286376953125
vt 0.63720703125 0.286376953125
vt 0.98779296875 0.9111328125
vt 0.93310546875 0.9111328125
vt 0.8740234375 0.90185546875
vt 0.8193359375 0.90185546875
vt 0.87841796875 0.9921875
vt 0.87841796875 0.9111328125
vt 0.82373046875 0.9111328125
vt 0.82373046875 0.9921875
vt 0.93310546875 0.9921875
vt 0.93310546875 0.9111328125
vt 0.87841796875 0.9111328125
vt 0.87841796875 0.9921875
vt 0.7685546875 0.9111328125
vt 0.7685546875 0.9921875
vt 0.82373046875 0.9921875
vt 0.82373046875 0.9111328125
vt 0.6669921875 0.85498046875
vt 0.689453125 0.8583984375
vt 0.689453125 0.81494140625
vt 0.6669921875 0.818359375
vt 0.630859375 0.85498046875
vt 0.62744140625 0.8779296875
vt 0.67041015625 0.8779296875
vt 0.6669921875 0.85498046875
vt 0.6669921875 0.818359375
vt 0.67041015625 0.79541015625
vt 0.62744140625 0.79541015625
vt 0.630859375 0.818359375
vt 0.60791015625 0.8583984375
vt 0.630859375 0.85498046875
vt 0.630859375 0.818359375
vt 0.60791015625 0.81494140625
vt 0.6669921875 0.85498046875
vt 0.6669921875 0.818359375
vt 0.630859375 0.818359375
vt 0.630859375 0.85498046875
vt 0.21826171875 0.6171875
vt 0.21826171875 0.599609375
vt 0.1953125 0.6044921875
vt 0.1953125 0.6171875
vt 0.62646484375 0.354736328125
vt 0.63671875 0.34521484375
vt 0.65966796875 0.34521484375
vt 0.669921875 0.354736328125
vt 0.62646484375 0.382568359375
vt 0.62646484375 0.354736328125
vt 0.6025390625 0.344970703125
vt 0.6025390625 0.392333984375
vt 0.63671875 0.34521484375
vt 0.65966796875 0.34521484375
vt 0.671875 0.32373046875
vt 0.62451171875 0.32373046875
vt 0.669921875 0.354736328125
vt 0.669921875 0.382568359375
vt 0.6943359375 0.392333984375
vt 0.6943359375 0.344970703125
vt 0.65966796875 0.39208984375
vt 0.63671875 0.39208984375
vt 0.62451171875 0.41357421875
vt 0.671875 0.41357421875
vt 0.37548828125 0.1907958984375
vt 0.37548828125 0.179931640625
vt 0.62646484375 0.382568359375
vt 0.669921875 0.382568359375
vt 0.63671875 0.39208984375
vt 0.65966796875 0.39208984375
vt 0.370849609375 0.470458984375
vt 0.393798828125 0.470458984375
vt 0.393798828125 0.7724609375
vt 0.370849609375 0.7724609375
vt 0.309326171875 0.7724609375
vt 0.271240234375 0.63427734375
vt 0.271240234375 0.7724609375
vt 0.271240234375 0.6171875
vt 0.271240234375 0.470458984375
vt 0.30908203125 0.470458984375
vt 0.431884765625 0.7724609375
vt 0.393798828125 0.6171875
vt 0.393798828125 0.7724609375
vt 0.393798828125 0.470458984375
vt 0.431884765625 0.470458984375
vt 0.49365234375 0.470458984375
vt 0.5166015625 0.599609375
vt 0.5166015625 0.470458984375
vt 0.5166015625 0.7724609375
vt 0.49365234375 0.7724609375
vt 0.370849609375 0.7724609375
vt 0.370849609375 0.6171875
vt 0.332275390625 0.7724609375
vt 0.332275390625 0.470458984375
vt 0.370849609375 0.470458984375
vt 0.454833984375 0.470458984375
vt 0.49365234375 0.6044921875
vt 0.49365234375 0.470458984375
vt 0.49365234375 0.7724609375
vt 0.454833984375 0.7724609375
vt 0.332275390625 0.7724609375
vt 0.332275390625 0.6298828125
vt 0.30908203125 0.63427734375
vt 0.309326171875 0.7724609375
vt 0.332275390625 0.6044921875
vt 0.30908203125 0.599609375
vt 0.30908203125 0.6171875
vt 0.332275390625 0.6171875
vt 0.30908203125 0.470458984375
vt 0.332275390625 0.470458984375
vt 0.431884765625 0.470458984375
vt 0.431884765625 0.6171875
vt 0.454833984375 0.6171875
vt 0.454833984375 0.470458984375
vt 0.454833984375 0.7724609375
vt 0.431884765625 0.7724609375
vt 0.133544921875 0.470458984375
vt 0.1566162109375 0.6171875
vt 0.1566162109375 0.470458984375
vt 0.1566162109375 0.7724609375
vt 0.133544921875 0.7724609375
vt 0.25634765625 0.7724609375
vt 0.21826171875 0.7724609375
vt 0.21826171875 0.470458984375
vt 0.25634765625 0.470458984375
vt 0.133544921875 0.7724609375
vt 0.133544921875 0.6171875
vt 0.09552001953125 0.7724609375
vt 0.09552001953125 0.470458984375
vt 0.133544921875 0.470458984375
vt 0.0108795166015625 0.470458984375
vt 0.0108795166015625 0.599609375
vt 0.03387451171875 0.470458984375
vt 0.0108795166015625 0.6171875
vt 0.0108795166015625 0.63427734375
vt 0.03387451171875 0.7724609375
vt 0.0108795166015625 0.7724609375
vt 0.1953125 0.7724609375
vt 0.1566162109375 0.7724609375
vt 0.1566162109375 0.470458984375
vt 0.1953125 0.470458984375
vt 0.03387451171875 0.470458984375
vt 0.03387451171875 0.6044921875
vt 0.07257080078125 0.470458984375
vt 0.03387451171875 0.6298828125
vt 0.03387451171875 0.6171875
vt 0.07257080078125 0.7724609375
vt 0.03387451171875 0.7724609375
vt 0.21826171875 0.7724609375
vt 0.21826171875 0.63427734375
vt 0.1953125 0.6298828125
vt 0.1953125 0.7724609375
vt 0.1953125 0.470458984375
vt 0.21826171875 0.470458984375
vt 0.07257080078125 0.470458984375
vt 0.07257080078125 0.6171875
vt 0.09552001953125 0.6171875
vt 0.09552001953125 0.470458984375
vt 0.09552001953125 0.7724609375
vt 0.07257080078125 0.7724609375
vt 0.2197265625 0.007740020751953125
vt 0.26318359375 0.0077362060546875
vt 0.26318359375 0.3212890625
vt 0.2197265625 0.3212890625
vt 0.07891845703125 0.3212890625
vt 0.05194091796875 0.3212890625
vt 0.05194091796875 0.0077362060546875
vt 0.07891845703125 0.0077362060546875
vt 0.19287109375 0.3212890625
vt 0.19287109375 0.196044921875
vt 0.149169921875 0.196044921875
vt 0.149169921875 0.3212890625
vt 0.19287109375 0.180419921875
vt 0.149169921875 0.180419921875
vt 0.149169921875 0.007732391357421875
vt 0.19287109375 0.007740020751953125
vt 0.05194091796875 0.3212890625
vt 0.05194091796875 0.1785888671875
vt 0.00830841064453125 0.3212890625
vt 0.00830841064453125 0.0077362060546875
vt 0.05194091796875 0.0077362060546875
vt 0.26318359375 0.0077362060546875
vt 0.26318359375 0.1785888671875
vt 0.2900390625 0.1785888671875
vt 0.2900390625 0.0077362060546875
vt 0.2900390625 0.3212890625
vt 0.26318359375 0.3212890625
vt 0.12225341796875 0.007732391357421875
vt 0.149169921875 0.163818359375
vt 0.149169921875 0.007732391357421875
vt 0.149169921875 0.3212890625
vt 0.12225341796875 0.3212890625
vt 0.19287109375 0.007740020751953125
vt 0.19287109375 0.163818359375
vt 0.2197265625 0.16796875
vt 0.2197265625 0.007740020751953125
vt 0.2197265625 0.3212890625
vt 0.19287109375 0.3212890625
vt 0.12225341796875 0.3212890625
vt 0.12225341796875 0.1907958984375
vt 0.07891845703125 0.1785888671875
vt 0.07891845703125 0.3212890625
vt 0.12225341796875 0.16796875
vt 0.12225341796875 0.179931640625
vt 0.07891845703125 0.0077362060546875
vt 0.12225341796875 0.007732391357421875
vt 0.332275390625 0.0077362060546875
vt 0.37548828125 0.007740020751953125
vt 0.37548828125 0.3212890625
vt 0.332275390625 0.3212890625
vt 0.54345703125 0.3212890625
vt 0.5166015625 0.3212890625
vt 0.5166015625 0.0077362060546875
vt 0.54345703125 0.0077362060546875
vt 0.4462890625 0.3212890625
vt 0.4462890625 0.196044921875
vt 0.402587890625 0.196044921875
vt 0.402587890625 0.3212890625
vt 0.4462890625 0.180419921875
vt 0.402587890625 0.180419921875
vt 0.402587890625 0.007740020751953125
vt 0.4462890625 0.007732391357421875
vt 0.5869140625 0.3212890625
vt 0.54345703125 0.1785888671875
vt 0.54345703125 0.3212890625
vt 0.54345703125 0.0077362060546875
vt 0.5869140625 0.0077362060546875
vt 0.305419921875 0.0077362060546875
vt 0.305419921875 0.1785888671875
vt 0.332275390625 0.1785888671875
vt 0.332275390625 0.0077362060546875
vt 0.332275390625 0.3212890625
vt 0.305419921875 0.3212890625
vt 0.4462890625 0.007732391357421875
vt 0.4462890625 0.163818359375
vt 0.47314453125 0.007732391357421875
vt 0.47314453125 0.3212890625
vt 0.4462890625 0.3212890625
vt 0.37548828125 0.007740020751953125
vt 0.37548828125 0.16796875
vt 0.402587890625 0.163818359375
vt 0.402587890625 0.007740020751953125
vt 0.402587890625 0.3212890625
vt 0.37548828125 0.3212890625
vt 0.5166015625 0.3212890625
vt 0.5166015625 0.1785888671875
vt 0.47314453125 0.1907958984375
vt 0.47314453125 0.3212890625
vt 0.47314453125 0.16796875
vt 0.47314453125 0.179931640625
vt 0.47314453125 0.007732391357421875
vt 0.5166015625 0.0077362060546875
vn -0.999999965771626 -1.0676742728218083e-08 -9.835041961243325e-13
vn 5.778028918558907e-08 1.0000001001304033 -1.3435875438391787e-07
vn -0.999999965771626 -1.0676742728218083e-08 -9.835041961243325e-13
vn 5.778028918558907e-08 1.0000001001304033 -1.3435875438391787e-07
vn 0.999999965771626 1.0676742728218083e-08 9.835041961243325e-13
vn 5.778028918558907e-08 1.0000001001304033 -1.3435875438391787e-07
vn -9.960918651302174e-13 1.3435874090482966e-07 1.0000000659019268
vn 5.778028918558907e-08 1.0000001001304033 -1.3435875438391787e-07
vn -0.999999965771626 -1.0676742728218083e-08 -9.835041961243325e-13
vn -0.999999965771626 -1.0676742728218083e-08 -9.835041961243325e-13
vn -9.960918651302174e-13 1.3435874090482966e-07 1.0000000659019268
vn 0.999999965771626 1.0676742728218083e-08 9.835041961243325e-13
vn -0.5984813703160541 -0.5324803349000242 -0.5985690048665339
vn -0.5984813703160541 -0.5324803349000242 -0.5985690048665339
vn -0.5984813703160541 -0.5324803349000242 -0.5985690048665339
vn 3.7499224767573424e-07 0.9999996229605798 -1.232844275009697e-06
vn 3.7499224767573424e-07 0.9999996229605798 -1.232844275009697e-06
vn -0.5985602482625926 -0.5324791078698025 0.5984913657803648
vn -0.5985602482625926 -0.5324791078698025 0.5984913657803648
vn -0.5985602482625926 -0.5324791078698025 0.5984913657803648
vn 3.7499224767573424e-07 0.9999996229605798 -1.232844275009697e-06
vn 3.7499224767573424e-07 0.9999996229605798 -1.232844275009697e-06
vn 0.5984992026066362 -0.5324614139628955 0.5985681304672356
vn 0.5984992026066362 -0.5324614139628955 0.5985681304672356
vn 0.5984992026066362 -0.5324614139628955 0.5985681304672356
vn 3.106395881360673e-07 0.9999997495661536 -1.0099949673229653e-06
vn 3.0291216954825514e-07 0.999999716486722 -9.832353945160811e-07
vn 0.5985774842800539 -0.5324624621755688 -0.5984887831504372
vn 0.5985774842800539 -0.5324624621755688 -0.5984887831504372
vn 0.5985774842800539 -0.5324624621755688 -0.5984887831504372
vn 3.042895865662537e-07 0.9999997293158902 -9.880053040322248e-07
vn 3.119430371896056e-07 0.9999997178030969 -1.0145087332616671e-06
vn -1.2205386751811978e-05 1.000000052796176 1.7288652352224237e-07
vn -1.1748060202187152e-05 1.000000052794984 6.175510908044418e-06
vn -1.1748060202187152e-05 1.000000052794984 6.175510908044418e-06
vn -1.2205386751811978e-05 1.000000052796176 1.7288652352224237e-07
vn -1.2197096704187716e-05 1.0000000527961734 1.7288652439645033e-07
vn -1.1743916567936026e-05 1.0000000527948982 6.655280296134489e-06
vn -1.1743916567936026e-05 1.0000000527948982 6.655280296134489e-06
vn -1.2197096704187716e-05 1.0000000527961734 1.7288652439645033e-07
vn -0.5023816859027775 -0.71441499286888 -0.48705606331506535
vn -0.5023816859027775 -0.71441499286888 -0.48705606331506535
vn -0.5023816859027775 -0.71441499286888 -0.48705606331506535
vn -0.5023816859027775 -0.71441499286888 -0.48705606331506535
vn 8.062741570053255e-05 -0.9999996647793195 -2.2782846401457947e-05
vn -0.5021510340914901 -0.7145773373163238 0.4870556580560402
vn 0.00010870725489237508 -0.9999996647887172 -1.207647226207963e-05
vn -0.5021510340914901 -0.7145773373163238 0.4870556580560402
vn 0.00010870725489237508 -0.9999996647887172 -1.207647226207963e-05
vn 0.5019123871482684 -0.7148184960997755 0.48694749466023846
vn 8.062741570053255e-05 -0.9999996647793195 -2.2782846401457947e-05
vn 0.5019123871482684 -0.7148184960997755 0.48694749466023846
vn 0.5020723245348298 -0.7145262136807229 -0.4872117019229464
vn 0.5020723245348298 -0.7145262136807229 -0.4872117019229464
vn 0.5020723245348298 -0.7145262136807229 -0.4872117019229464
vn 0.5020723245348298 -0.7145262136807229 -0.4872117019229464
vn -0.9999999657719572 -1.1971569926064832e-06 -2.8869261442303577e-08
vn -0.9999999657719572 -1.1971569926064832e-06 -2.8869261442303577e-08
vn -0.9999999657719572 -1.1971569926064832e-06 -2.8869261442303577e-08
vn -0.9999999657719572 -1.1971569926064832e-06 -2.8869261442303577e-08
vn 0.9999999657719572 1.1971569926064832e-06 2.8869261442303577e-08
vn 0.9999999657719572 1.1971569926064832e-06 2.8869261442303577e-08
vn 2.8870729395470168e-08 -1.2599193321612232e-06 -1.0000000659011203
vn 2.8870729395470168e-08 -1.2599193321612232e-06 -1.0000000659011203
vn 2.9780856503905354e-07 0.9999996798501101 2.005653685676844e-06
vn 2.990459787555167e-07 0.9999996179251496 2.0166860944780983e-06
vn 2.917809094678504e-07 0.9999996762515435 1.95191311842705e-06
vn 2.904732596374251e-07 0.9999996340000552 1.9402545754890454e-06
vn 3.5889588832627156e-07 0.999999535501516 2.5502880089809976e-06
vn 3.5889588832627156e-07 0.999999535501516 2.5502880089809976e-06
vn 0.5985104008951834 -0.5324812659407582 0.5985392725120351
vn 0.5985104008951834 -0.5324812659407582 0.5985392725120351
vn 0.5985297674810944 -0.5324795640315175 -0.5985213599471042
vn 0.5985297674810944 -0.5324795640315175 -0.5985213599471042
vn 0.5985297674810944 -0.5324795640315175 -0.5985213599471042
vn 0.5985104008951834 -0.5324812659407582 0.5985392725120351
vn -0.5985486530998896 -0.53246178141726 0.5985183214882369
vn -0.5985486530998896 -0.53246178141726 0.5985183214882369
vn -0.5985486530998896 -0.53246178141726 0.5985183214882369
vn -0.5985284520948159 -0.5324604967460502 -0.5985395691429186
vn -0.5985284520948159 -0.5324604967460502 -0.5985395691429186
vn -0.5985284520948159 -0.5324604967460502 -0.5985395691429186
vn 3.5889588832627156e-07 0.999999535501516 2.5502880089809976e-06
vn 3.5889588832627156e-07 0.999999535501516 2.5502880089809976e-06
vn -8.132394572435092e-05 -1.0000006801473589 -2.281978741299441e-05
vn -8.132394572435092e-05 -1.0000006801473589 -2.281978741299441e-05
vn -0.00010940371883143589 -1.000000680141924 -1.2113994064418656e-05
vn -0.00010940371883143589 -1.000000680141924 -1.2113994064418656e-05
vn 1.2913823975208598e-05 1.0000001101537805 1.621772917768667e-07
vn 1.2913823975208598e-05 1.0000001101537805 1.621772917768667e-07
vn 1.2460638814410898e-05 1.0000001101530036 6.644571074554685e-06
vn 1.2460638814410898e-05 1.0000001101530036 6.644571074554685e-06
vn -0.5019119552767205 -0.7148192271020485 0.48694828316219474
vn -0.502073396310228 -0.7145267796462953 -0.48721109837453463
vn 0.5023804378997925 -0.7144162498319941 -0.4870565728631207
vn 0.5023804378997925 -0.7144162498319941 -0.4870565728631207
vn 0.5023804378997925 -0.7144162498319941 -0.4870565728631207
vn 0.5023804378997925 -0.7144162498319941 -0.4870565728631207
vn 0.5021510513388318 -0.7145785205378461 0.4870551253823249
vn 0.5021510513388318 -0.7145785205378461 0.4870551253823249
vn -0.502073396310228 -0.7145267796462953 -0.48721109837453463
vn -0.502073396310228 -0.7145267796462953 -0.48721109837453463
vn -0.502073396310228 -0.7145267796462953 -0.48721109837453463
vn -0.5019119552767205 -0.7148192271020485 0.48694828316219474
vn 1.2922128566369952e-05 1.0000001101537783 1.621772982464307e-07
vn 1.2464791877841648e-05 1.000000110153069 6.164801592340793e-06
vn 1.2464791877841648e-05 1.000000110153069 6.164801592340793e-06
vn 1.2922128566369952e-05 1.0000001101537783 1.621772982464307e-07
vn -0.7071053770452641 -1.034507132425687e-05 0.7071085331921962
vn -0.7071053770452641 -1.034507132425687e-05 0.7071085331921962
vn 3.17792776264683e-05 -1.0752807388753149e-06 -0.9999999185337998
vn 0.7070826623526645 9.363748976058077e-06 -0.7071314099950513
vn 3.17792776264683e-05 -1.0752807388753149e-06 -0.9999999185337998
vn -3.555194410864387e-05 -1.175770559002995e-06 -1.000000312881812
vn 0.7070826623526645 9.363748976058077e-06 -0.7071314099950513
vn 0.7071282110206565 1.0259996000224524e-05 -0.7070857160688047
vn -1.00000036402173 -1.5452099011375e-05 3.554611503360919e-05
vn -1.000000651476454 -1.6899636837379657e-05 -3.1799403129983156e-05
vn 1.0000005077490732 1.6061170662038586e-05 -1.8733558586047098e-06
vn 1.886333241087782e-06 1.125525648939155e-06 1.000000115707806
vn 1.000000213975333 -1.656913994539873e-05 -3.984859615119662e-06
vn 0.7071112016575094 -1.3097173631924832e-05 0.7071028106376273
vn -1.777479828312723e-05 2.4243324429469074e-06 -1.000000443841565
vn 1.014100717747931e-07 2.1886455224860125e-06 -1.0000004407930927
vn -1.777479828312723e-05 2.4243324429469074e-06 -1.000000443841565
vn 1.014100717747931e-07 2.1886455224860125e-06 -1.0000004407930927
vn 6.2744736946516626e-06 -2.2727076670018874e-06 1.0000004418803874
vn -0.7071080529816967 1.2983907060611752e-05 -0.7071059967571158
vn -0.7071210139057618 1.3151290960676281e-05 -0.7070930119549252
vn 1.0000002414485498 -1.6668922607496484e-05 -2.321884914431581e-06
vn 1.0000002631152127 -1.64481483418954e-05 -1.7791981497645375e-05
vn -1.0000002470099347 1.7017075045538153e-05 6.292854873585595e-06
vn -1.1731383167486546e-07 1.395454698365422e-07 -1.0000000731402081
vn -0.7072732889544757 9.923479313661637e-08 0.7069403961019705
vn 2.0235674918539373e-07 -1.214047678046155e-07 1.0000000903974193
vn -0.7072730770104264 1.2365184942738372e-07 0.7069405174233916
vn -0.7072732889544757 9.923479313661637e-08 0.7069403961019705
vn 1.0000002631509413 -2.979181641239351e-07 -5.202102421463698e-09
vn 0.9999999649453415 -2.9617658113277356e-07 -2.2651180687367287e-07
vn 1.0000001140481414 -2.970473726283543e-07 -1.1585695464756828e-07
vn -0.7073117342413131 3.087499942411505e-07 -0.7069018180721764
vn -0.7073117342413131 3.087499942411505e-07 -0.7069018180721764
vn 0.707021147271433 -3.221488831950604e-07 0.7071926952201018
vn 2.0235674918539373e-07 -1.214047678046155e-07 1.0000000903974193
vn -0.9999997142593071 2.740641748147956e-07 6.060558845741788e-07
vn -0.9999995065369864 2.7410798784432606e-07 -3.1733747214011677e-07
vn -0.9999996103981468 2.7408608132956084e-07 1.4435920621703105e-07
vn 0.7073113037515231 -7.011731857129219e-08 -0.7069020166161375
vn 0.7073113037515231 -7.011731857129219e-08 -0.7069020166161375
vn 6.873251600005764e-07 -1.9307502971638388e-07 1.0000003986563495
vn -0.7070206755607742 8.274544249681078e-08 0.7071927625118569
vn 6.873251600005764e-07 -1.9307502971638388e-07 1.0000003986563495
vn 0.7072726310297307 -3.048842107577747e-07 0.7069408451800332
vn -2.4067961478039314e-07 1.750554461177399e-07 -1.0000003465926408
vn 0.7072726310297307 -3.048842107577747e-07 0.7069408451800332
vn 0.7072734094496766 -3.3033075519664315e-07 0.7069402060959381
vn 0.7071053770447753 9.178246334933184e-06 -0.7071085927955308
vn -1.886333241087782e-06 -1.125525648939155e-06 -1.000000115707806
vn 0.7071053770447753 9.178246334933184e-06 -0.7071085927955308
vn -1.0000005077492644 -1.665367897661795e-05 1.873356527445459e-06
vn -6.274464596511871e-06 2.272707481781889e-06 -1.0000004120780501
vn -6.2744736946516626e-06 2.2727076670018874e-06 -1.0000004418803874
vn -0.7071119975811476 1.2945068513561527e-05 -0.7071019972463097
vn 1.0000002470100529 -1.668275588829243e-05 -6.29284315366543e-06
vn -0.7072732425871195 1.1144335205627868e-07 0.7069403673557082
vn -0.7072732425871195 1.1144335205627868e-07 0.7069403673557082
vn 1.0000001140481414 -2.970473726283543e-07 -1.1585695464756828e-07
vn 0.707021161599003 -3.087042534496091e-07 0.7071925695843213
vn -0.9999996103981468 2.7408608132956084e-07 1.4435920621703105e-07
vn -0.7070203735236573 6.998661840257476e-08 0.7071931257601183
vn 0.7072730202397242 -3.176074887312932e-07 0.7069405554403199
vn 0.7072730202397242 -3.176074887312932e-07 0.7069405554403199
vn -9.960918651302174e-13 1.3435874090482966e-07 1.0000000659019268
vn -9.960918651302174e-13 1.3435874090482966e-07 1.0000000659019268
vn 0.999999965771626 1.0676742728218083e-08 9.835041961243325e-13
vn 0.999999965771626 1.0676742728218083e-08 9.835041961243325e-13
vn 9.960918651302174e-13 -1.3435874090482966e-07 -1.0000000659019268
vn 9.960918651302174e-13 -1.3435874090482966e-07 -1.0000000659019268
vn 9.960918651302174e-13 -1.3435874090482966e-07 -1.0000000659019268
vn 9.960918651302174e-13 -1.3435874090482966e-07 -1.0000000659019268
vn -5.778028918558907e-08 -1.0000001001304033 1.3435875438391787e-07
vn -5.778028918558907e-08 -1.0000001001304033 1.3435875438391787e-07
vn -5.778028918558907e-08 -1.0000001001304033 1.3435875438391787e-07
vn -5.778028918558907e-08 -1.0000001001304033 1.3435875438391787e-07
vn -0.999999965771626 -1.0676742728218083e-08 -9.835041961243325e-13
vn -0.999999965771626 -1.0676742728218083e-08 -9.835041961243325e-13
vn -0.999999965771626 -1.0676742728218083e-08 -9.835041961243325e-13
vn -0.999999965771626 -1.0676742728218083e-08 -9.835041961243325e-13
vn -9.960918651302174e-13 1.3435874090482966e-07 1.0000000659019268
vn -9.960918651302174e-13 1.3435874090482966e-07 1.0000000659019268
vn -9.960918651302174e-13 1.3435874090482966e-07 1.0000000659019268
vn -9.960918651302174e-13 1.3435874090482966e-07 1.0000000659019268
vn 0.999999965771626 1.0676742728218083e-08 9.835041961243325e-13
vn 0.999999965771626 1.0676742728218083e-08 9.835041961243325e-13
vn 0.999999965771626 1.0676742728218083e-08 9.835041961243325e-13
vn 0.999999965771626 1.0676742728218083e-08 9.835041961243325e-13
vn 9.960918651302174e-13 -1.3435874090482966e-07 -1.0000000659019268
vn 9.960918651302174e-13 -1.3435874090482966e-07 -1.0000000659019268
vn 9.960918651302174e-13 -1.3435874090482966e-07 -1.0000000659019268
vn 9.960918651302174e-13 -1.3435874090482966e-07 -1.0000000659019268
vn -0.7471237170591771 -0.6646855553793828 -4.823458913320588e-05
vn -0.7471237170591771 -0.6646855553793828 -4.823458913320588e-05
vn -0.7471237170591771 -0.6646855553793828 -4.823458913320588e-05
vn -0.7471237170591771 -0.6646855553793828 -4.823458913320588e-05
vn -3.85570739788916e-05 -0.6646729632261498 0.7471339670975667
vn -3.85570739788916e-05 -0.6646729632261498 0.7471339670975667
vn -3.85570739788916e-05 -0.6646729632261498 0.7471339670975667
vn -3.85570739788916e-05 -0.6646729632261498 0.7471339670975667
vn 5.961735960597218e-05 -0.6646742564851023 -0.7471327821755956
vn 5.961735960597218e-05 -0.6646742564851023 -0.7471327821755956
vn 5.961735960597218e-05 -0.6646742564851023 -0.7471327821755956
vn 5.961735960597218e-05 -0.6646742564851023 -0.7471327821755956
vn 0.7471443388242691 -0.6646622603778679 4.959829688950385e-05
vn 0.7471443388242691 -0.6646622603778679 4.959829688950385e-05
vn 0.7471443388242691 -0.6646622603778679 4.959829688950385e-05
vn 0.7471443388242691 -0.6646622603778679 4.959829688950385e-05
vn 1.6256719277371017e-05 -0.999999706049458 1.0258956280144182e-06
vn 1.6256719277371017e-05 -0.999999706049458 1.0258956280144182e-06
vn 1.6256719277371017e-05 -0.999999706049458 1.0258956280144182e-06
vn 1.6256719277371017e-05 -0.999999706049458 1.0258956280144182e-06
vn 1.0000003640217565 1.5527643433379587e-05 -3.554611512281485e-05
vn 1.0000005077491703 1.636209143507743e-05 -1.8733561982928941e-06
vn -0.5021510340914901 -0.7145773373163238 0.4870556580560402
vn -0.5021510340914901 -0.7145773373163238 0.4870556580560402
vn 0.5019123871482684 -0.7148184960997755 0.48694749466023846
vn 0.5019123871482684 -0.7148184960997755 0.48694749466023846
vn -0.6812107124449175 -0.7320869867264419 -0.00019018463844479533
vn -0.6812107124449175 -0.7320869867264419 -0.00019018463844479533
vn -0.6812107124449175 -0.7320869867264419 -0.00019018463844479533
vn -0.6812107124449175 -0.7320869867264419 -0.00019018463844479533
vn 7.99743707664557e-05 -0.6465961745532671 0.7628323048078333
vn 7.99743707664557e-05 -0.6465961745532671 0.7628323048078333
vn 7.99743707664557e-05 -0.6465961745532671 0.7628323048078333
vn 7.99743707664557e-05 -0.6465961745532671 0.7628323048078333
vn 0.6808805183699699 -0.7323939951777592 7.933830312569211e-05
vn 0.6808805183699699 -0.7323939951777592 7.933830312569211e-05
vn 0.6808805183699699 -0.7323939951777592 7.933830312569211e-05
vn 0.6808805183699699 -0.7323939951777592 7.933830312569211e-05
vn -4.4914154095919936e-07 -0.6461918975918487 -0.7631749752123019
vn -4.4914154095919936e-07 -0.6461918975918487 -0.7631749752123019
vn -4.4914154095919936e-07 -0.6461918975918487 -0.7631749752123019
vn -4.4914154095919936e-07 -0.6461918975918487 -0.7631749752123019
vn 0.707021147271433 -3.221488831950604e-07 0.7071926952201018
vn 0.707021161599003 -3.087042534496091e-07 0.7071925695843213
vn 2.684240199516197e-05 -0.9999996647657697 -1.8693564789261032e-07
vn 2.684240199516197e-05 -0.9999996647657697 -1.8693564789261032e-07
vn -3.5562161611470694e-07 -0.9999996647607705 2.9179370940556977e-05
vn -3.5562161611470694e-07 -0.9999996647607705 2.9179370940556977e-05
vn 2.8870729395470168e-08 -1.2599193321612232e-06 -1.0000000659011203
vn 2.8870729395470168e-08 -1.2599193321612232e-06 -1.0000000659011203
vn 0.9999999657719572 1.1971569926064832e-06 2.8869261442303577e-08
vn 0.9999999657719572 1.1971569926064832e-06 2.8869261442303577e-08
vn -2.8870729395470168e-08 1.2599193321612232e-06 1.0000000659011203
vn -2.8870729395470168e-08 1.2599193321612232e-06 1.0000000659011203
vn -2.8870729395470168e-08 1.2599193321612232e-06 1.0000000659011203
vn -2.8870729395470168e-08 1.2599193321612232e-06 1.0000000659011203
vn 1.1286998217482223e-06 -1.0000001001298902 1.2599193356770181e-06
vn 1.1286998217482223e-06 -1.0000001001298902 1.2599193356770181e-06
vn 1.1286998217482223e-06 -1.0000001001298902 1.2599193356770181e-06
vn 1.1286998217482223e-06 -1.0000001001298902 1.2599193356770181e-06
vn -1.1286998217482223e-06 1.0000001001298902 -1.2599193356770181e-06
vn -1.1286998217482223e-06 1.0000001001298902 -1.2599193356770181e-06
vn -1.1286998217482223e-06 1.0000001001298902 -1.2599193356770181e-06
vn -1.1286998217482223e-06 1.0000001001298902 -1.2599193356770181e-06
vn 0.7471224542848962 -0.6646862207922551 1.1179975335912211e-05
vn 0.7471224542848962 -0.6646862207922551 1.1179975335912211e-05
vn 0.7471224542848962 -0.6646862207922551 1.1179975335912211e-05
vn 0.7471224542848962 -0.6646862207922551 1.1179975335912211e-05
vn -2.3284046023519745e-05 -0.6646745834976417 0.7471329962922635
vn -2.3284046023519745e-05 -0.6646745834976417 0.7471329962922635
vn -2.3284046023519745e-05 -0.6646745834976417 0.7471329962922635
vn -2.3284046023519745e-05 -0.6646745834976417 0.7471329962922635
vn 8.057752470494152e-07 -0.6646725346699113 -0.7471348238117456
vn 8.057752470494152e-07 -0.6646725346699113 -0.7471348238117456
vn 8.057752470494152e-07 -0.6646725346699113 -0.7471348238117456
vn 8.057752470494152e-07 -0.6646725346699113 -0.7471348238117456
vn -0.7471446151119745 -0.6646614934200433 -1.378235140330339e-05
vn -0.7471446151119745 -0.6646614934200433 -1.378235140330339e-05
vn -0.7471446151119745 -0.6646614934200433 -1.378235140330339e-05
vn -0.7471446151119745 -0.6646614934200433 -1.378235140330339e-05
vn -1.6966093300756664e-05 -0.9999994951497453 -1.957637788331224e-06
vn -1.6966093300756664e-05 -0.9999994951497453 -1.957637788331224e-06
vn -1.6966093300756664e-05 -0.9999994951497453 -1.957637788331224e-06
vn -1.6966093300756664e-05 -0.9999994951497453 -1.957637788331224e-06
vn 0.7071045721348976 -8.13845835016441e-06 -0.7071093644218303
vn 0.7071083204442358 -9.483833436267775e-06 -0.7071056516218006
vn 0.7071066225893656 -9.458447416706338e-06 -0.7071073519771356
vn 0.7071045932097086 -8.138458614420419e-06 -0.7071093854938779
vn 0.5021510513388318 -0.7145785205378461 0.4870551253823249
vn 0.5021510513388318 -0.7145785205378461 0.4870551253823249
vn -0.5019119552767205 -0.7148192271020485 0.48694828316219474
vn -0.5019119552767205 -0.7148192271020485 0.48694828316219474
vn 0.6812102041697933 -0.732088177530236 -0.00019123174988812492
vn 0.6812102041697933 -0.732088177530236 -0.00019123174988812492
vn 0.6812102041697933 -0.732088177530236 -0.00019123174988812492
vn 0.6812102041697933 -0.732088177530236 -0.00019123174988812492
vn -7.935862900378663e-05 -0.6465969133289837 0.7628326044312409
vn -7.935862900378663e-05 -0.6465969133289837 0.7628326044312409
vn -7.935862900378663e-05 -0.6465969133289837 0.7628326044312409
vn -7.935862900378663e-05 -0.6465969133289837 0.7628326044312409
vn -0.6808808507635925 -0.7323946492366654 8.028198375999698e-05
vn -0.6808808507635925 -0.7323946492366654 8.028198375999698e-05
vn -0.6808808507635925 -0.7323946492366654 8.028198375999698e-05
vn -0.6808808507635925 -0.7323946492366654 8.028198375999698e-05
vn -1.0853828287967173e-06 -0.6461927098713437 -0.7631750799986576
vn -1.0853828287967173e-06 -0.6461927098713437 -0.7631750799986576
vn -1.0853828287967173e-06 -0.6461927098713437 -0.7631750799986576
vn -1.0853828287967173e-06 -0.6461927098713437 -0.7631750799986576
vn -0.7070206755607742 8.274544249681078e-08 0.7071927625118569
vn -0.7070203735236573 6.998661840257476e-08 0.7071931257601183
vn -2.7539001638934185e-05 -1.0000006801668688 -2.2060480502407155e-07
vn -2.7539001638934185e-05 -1.0000006801668688 -2.2060480502407155e-07
vn -3.4036870446870206e-07 -1.0000006801805208 2.914237763604996e-05
vn -3.4036870446870206e-07 -1.0000006801805208 2.914237763604996e-05
vn -0.7071531310959762 -1.0842181273576145e-05 0.707060753114719
vn -0.7071531310959762 -1.0842181273576145e-05 0.707060753114719
vn -0.7070576826151879 -9.847963225253438e-06 0.7071563132816527
vn -0.7070576826151879 -9.847963225253438e-06 0.7071563132816527
vn -6.921755497619995e-05 -1.226015469066835e-06 -1.000000510055818
vn -3.555194410864387e-05 -1.175770559002995e-06 -1.000000312881812
vn -5.378980935768952e-05 -9.826985523071523e-07 -1.0000004110593546
vn -1.886333241087782e-06 -1.125525648939155e-06 -1.000000115707806
vn 6.544488849402439e-05 -1.0250358288114748e-06 -0.9999997213597938
vn 6.544488849402439e-05 -1.0250358288114748e-06 -0.9999997213597938
vn 5.348924887315281e-05 9.779582951695548e-07 1.0000003942295617
vn 1.886333241087782e-06 1.125525648939155e-06 1.000000115707806
vn 6.921755497619995e-05 1.226015469066835e-06 1.000000510055818
vn -6.544488849402439e-05 1.0250358288114748e-06 0.9999997213597938
vn -6.544488849402439e-05 1.0250358288114748e-06 0.9999997213597938
vn 0.7071521178826231 1.1212037269770783e-05 -0.7070617664601184
vn 0.7071282110206565 1.0259996000224524e-05 -0.7070857160688047
vn 0.7071521178826231 1.1212037269770783e-05 -0.7070617664601184
vn 0.7070698033300132 9.901907505807242e-06 -0.707144141987937
vn 0.7070686267851325 9.8777737198734e-06 -0.7071453304782553
vn -1.000000220294353 -1.4833728714589649e-05 6.921887413654954e-05
vn -1.0000005077491103 -1.6175868819387707e-05 1.8733559880793472e-06
vn -1.000000220294353 -1.4833728714589649e-05 6.921887413654954e-05
vn -1.0000007952034744 -1.6562388677141302e-05 -6.547216340792033e-05
vn -1.0000007952034744 -1.6562388677141302e-05 -6.547216340792033e-05
vn 1.000000795203467 1.6535762318079125e-05 6.54721634352074e-05
vn 1.0000006514763635 1.6594699730751285e-05 3.179940345834603e-05
vn 1.000000795203467 1.6535762318079125e-05 6.54721634352074e-05
vn 1.0000001697055072 1.5048929140697743e-05 -5.54608958089765e-05
vn 1.0000001984619764 1.5050256590139217e-05 -5.5176469602444606e-05
vn -0.7071574782684169 -1.1225384986919314e-05 -0.7070565155722619
vn -0.7071331191478514 -1.0609749073473869e-05 -0.707080901720064
vn -0.7071331191478514 -1.0609749073473869e-05 -0.707080901720064
vn -0.7071574782684169 -1.1225384986919314e-05 -0.7070565155722619
vn -0.7070855332892948 -1.1573042585108761e-05 -0.7071284818230206
vn -0.7070855332892948 -1.1573042585108761e-05 -0.7071284818230206
vn -0.7071091772108582 -1.018829853230819e-05 -0.7071048109851523
vn -0.7071091772108582 -1.018829853230819e-05 -0.7071048109851523
vn -0.7070614721152731 -1.2763601843694472e-05 -0.7071524506610712
vn -0.7070614721152731 -1.2763601843694472e-05 -0.7071524506610712
vn 0.7070606375948495 1.2312550929967913e-05 0.7071532850716936
vn 0.7071079255156181 1.1969163053906616e-05 0.707106062683172
vn 0.7071079255156181 1.1969163053906616e-05 0.707106062683172
vn 0.7070606375948495 1.2312550929967913e-05 0.7071532850716936
vn 0.7071452687149367 1.1515499185336273e-05 0.7070687271404449
vn 0.7071440404182388 1.1502257226128468e-05 0.7070698802023683
vn 0.7070947957523035 -1.308088738662552e-05 0.7071191296845896
vn 0.7071095461297938 -1.3078504646877037e-05 0.7071044212837818
vn 0.7070947957523035 -1.308088738662552e-05 0.7071191296845896
vn 0.7071275479553061 -1.3113463443979373e-05 0.707086491587028
vn 0.7071275479553061 -1.3113463443979373e-05 0.707086491587028
vn -2.2750056251770464e-05 1.971860978787e-06 -1.0000003760286653
vn -2.9275122871602795e-05 2.5759572188919274e-06 -1.000000445802743
vn 1.672617548229947e-05 1.9694581151118475e-06 -1.0000004379580316
vn 1.672617548229947e-05 1.9694581151118475e-06 -1.0000004379580316
vn 2.9275122871602795e-05 -2.5759572188919274e-06 1.000000445802743
vn 6.2744736946516626e-06 -2.2727076670018874e-06 1.0000004418803874
vn 2.262292389710854e-05 -1.9600909628660142e-06 1.000000329675393
vn -1.672617548229947e-05 -1.9694581151118475e-06 1.0000004379580316
vn -1.672617548229947e-05 -1.9694581151118475e-06 1.0000004379580316
vn -0.7070943785118382 1.2822475381525159e-05 -0.7071196065154923
vn -0.7071063292842379 1.2964459446057949e-05 -0.7071076754572354
vn -0.7070943785118382 1.2822475381525159e-05 -0.7071196065154923
vn -0.7071119765129077 1.294506818875216e-05 -0.7071019761676984
vn -0.7071210139057618 1.3151290960676281e-05 -0.7070930119549252
vn -0.707124798833481 1.3009608913392388e-05 -0.707089043686496
vn -0.7071243256488917 1.2957851123955788e-05 -0.7070895685371256
vn 1.0000002792203482 -1.621357900908527e-05 -2.9291108811701783e-05
vn 1.0000002792203482 -1.621357900908527e-05 -2.9291108811701783e-05
vn 1.0000002147999605 -1.6681349476819274e-05 1.6705401746996564e-05
vn 1.0000002147999605 -1.6681349476819274e-05 1.6705401746996564e-05
vn -1.0000002147999019 1.6814928715221387e-05 -1.670540148553355e-05
vn -1.000000271250502 1.761052253123798e-05 2.3218906029826177e-06
vn -1.0000002147999019 1.6814928715221387e-05 -1.670540148553355e-05
vn -1.0000002631152267 1.6410475270237635e-05 1.779198140715249e-05
vn -1.0000002768120382 1.7557606211142372e-05 6.292848739973427e-06
vn -1.0000002454331598 1.6072530653092886e-05 2.3348820451009625e-05
vn -1.0000001871166204 1.607385910806086e-05 2.346919058263148e-05
vn 0.7070888289613567 -9.913098749629325e-06 -0.7071252333312755
vn 0.7070967110787643 -8.875912049027121e-06 -0.7071173392155397
vn 0.7070967110787643 -8.875912049027121e-06 -0.7071173392155397
vn 0.7070888289613567 -9.913098749629325e-06 -0.7071252333312755
vn 0.7071192845961833 -1.063767837728782e-05 -0.7070947298148238
vn 0.7071192845961833 -1.063767837728782e-05 -0.7070947298148238
vn -0.7071183309374208 1.1076095095280875e-05 0.7070956835063475
vn -0.707102089789337 1.0260723906151311e-05 0.7071119484915215
vn -0.707102089789337 1.0260723906151311e-05 0.7071119484915215
vn -0.7071183309374208 1.1076095095280875e-05 0.7070956835063475
vn -0.7070904810216228 9.828853724384126e-06 0.7071234249809448
vn -0.7070900242912384 9.787740430441304e-06 0.7071239782230717
vn 0.9999998158425416 -2.9530578963719275e-07 -3.3716665909977746e-07
vn 0.9999998158425416 -2.9530578963719275e-07 -3.3716665909977746e-07
vn 1.0000004122537411 -2.987889556195159e-07 1.054527498046409e-07
vn 1.0000004122537411 -2.987889556195159e-07 1.054527498046409e-07
vn -0.7073118249315931 3.3562922763428114e-07 -0.7069019502087821
vn -0.7073118249315931 3.3562922763428114e-07 -0.7069019502087821
vn -0.7073115839464336 2.818707555564591e-07 -0.7069018051448932
vn -0.7073115839464336 2.818707555564591e-07 -0.7069018051448932
vn -5.2772003346191136e-08 -1.7582687390039565e-07 1.000000038625786
vn 3.227091416433716e-08 -1.5768617186846893e-07 1.000000055882997
vn 3.227091416433716e-08 -1.5768617186846893e-07 1.000000055882997
vn -5.2772003346191136e-08 -1.7582687390039565e-07 1.000000038625786
vn 1.1731383167486546e-07 -1.395454698365422e-07 1.0000000731402081
vn 1.1731383167486546e-07 -1.395454698365422e-07 1.0000000731402081
vn 2.8739966669592206e-07 -1.0326406577268877e-07 1.0000001076546305
vn 2.8739966669592206e-07 -1.0326406577268877e-07 1.0000001076546305
vn 5.2772003346191136e-08 1.7582687390039565e-07 -1.000000038625786
vn -1.1731383167486546e-07 1.395454698365422e-07 -1.0000000731402081
vn 5.2772003346191136e-08 1.7582687390039565e-07 -1.000000038625786
vn -2.8739966669592206e-07 1.0326406577268877e-07 -1.0000001076546305
vn -2.8739966669592206e-07 1.0326406577268877e-07 -1.0000001076546305
vn 0.707058871132271 -1.3577505126785713e-07 -0.7071545885120383
vn 0.7070592618628619 -1.1134992130770162e-07 -0.7071544076259604
vn 0.7070592618628619 -1.1134992130770162e-07 -0.7071544076259604
vn 0.707058871132271 -1.3577505126785713e-07 -0.7071545885120383
vn 0.7070595333841497 -8.692475593673988e-08 -0.7071542267398686
vn 0.7070595333841497 -8.692475593673988e-08 -0.7071542267398686
vn -0.7072728518291065 1.3586033751445023e-07 0.7069406078864058
vn -0.7072730770104264 1.2365184942738372e-07 0.7069405174233916
vn -0.7072728518291065 1.3586033751445023e-07 0.7069406078864058
vn -0.7072734545311523 8.702627578277826e-08 0.7069403652435954
vn -0.7072734545311523 8.702627578277826e-08 0.7069403652435954
vn 0.7070210710448432 -2.818149833967683e-07 0.7071924971267084
vn 0.7070211163219146 -2.9525961534567975e-07 0.7071925035531892
vn 0.7070211163219146 -2.9525961534567975e-07 0.7071925035531892
vn 0.7070210710448432 -2.818149833967683e-07 0.7071924971267084
vn 0.7070211925485075 -3.355935223283567e-07 0.7071927612512261
vn 0.7070211925485075 -3.355935223283567e-07 0.7071927612512261
vn -1.0000004122537411 2.987889556195159e-07 -1.054527498046409e-07
vn -1.0000002631509413 2.979181641239351e-07 5.202102421463698e-09
vn -1.0000001140481414 2.970473726283543e-07 1.1585695464756828e-07
vn -1.0000004122537411 2.987889556195159e-07 -1.054527498046409e-07
vn -0.9999999649453415 2.9617658113277356e-07 2.2651180687367287e-07
vn -1.0000001140481414 2.970473726283543e-07 1.1585695464756828e-07
vn -0.9999998158425416 2.9530578963719275e-07 3.3716665909977746e-07
vn -0.9999998158425416 2.9530578963719275e-07 3.3716665909977746e-07
vn -0.9999998181204673 2.7404226830003035e-07 1.0677525629313267e-06
vn -0.9999998181204673 2.7404226830003035e-07 1.0677525629313267e-06
vn -0.9999994026758262 2.741298943590913e-07 -7.790341504972646e-07
vn -0.9999994026758262 2.741298943590913e-07 -7.790341504972646e-07
vn 0.7073117882960483 -9.562445550109238e-08 -0.7069012898813221
vn 0.7073117882960483 -9.562445550109238e-08 -0.7069012898813221
vn 0.7073108192069979 -4.461018164149201e-08 -0.706902743350953
vn 0.7073108192069979 -4.461018164149201e-08 -0.706902743350953
vn -6.526114756599732e-07 -1.390162789204519e-07 1.000000242465224
vn -2.0596593043979003e-07 -1.570358625190959e-07 1.0000002945289324
vn -2.0596593043979003e-07 -1.570358625190959e-07 1.0000002945289324
vn -6.526114756599732e-07 -1.390162789204519e-07 1.000000242465224
vn 2.4067961478039314e-07 -1.750554461177399e-07 1.0000003465926408
vn 2.4067961478039314e-07 -1.750554461177399e-07 1.0000003465926408
vn 1.1339707052207594e-06 -2.1109461331502788e-07 1.000000450720058
vn 1.1339707052207594e-06 -2.1109461331502788e-07 1.000000450720058
vn 6.526114756599732e-07 1.390162789204519e-07 -1.000000242465224
vn -2.4067961478039314e-07 1.750554461177399e-07 -1.0000003465926408
vn 6.526114756599732e-07 1.390162789204519e-07 -1.000000242465224
vn -1.1339707052207594e-06 2.1109461331502788e-07 -1.000000450720058
vn -1.1339707052207594e-06 2.1109461331502788e-07 -1.000000450720058
vn -0.7070598778710327 3.430405662663961e-07 -0.7071538377511539
vn -0.7070590993044414 3.1758629355771844e-07 -0.7071544170107782
vn -0.7070590993044414 3.1758629355771844e-07 -0.7071544170107782
vn -0.7070598778710327 3.430405662663961e-07 -0.7071538377511539
vn -0.7070583207378501 2.9213202084904076e-07 -0.7071549962704026
vn -0.7070583207378501 2.9213202084904076e-07 -0.7071549962704026
vn 0.7072739178687761 -3.43054039600056e-07 0.7069397971467513
vn 0.7072734094496766 -3.3033075519664315e-07 0.7069402060959381
vn 0.7072739178687761 -3.43054039600056e-07 0.7069397971467513
vn 0.7072723014244243 -2.921609325516394e-07 0.7069410157104744
vn 0.7072723014244243 -2.921609325516394e-07 0.7069410157104744
vn -0.7070198886586542 4.446900289032118e-08 0.7071938522566033
vn -0.7070201310911558 5.722781064644797e-08 0.7071934890083608
vn -0.7070201310911558 5.722781064644797e-08 0.7071934890083608
vn -0.7070198886586542 4.446900289032118e-08 0.7071938522566033
vn -0.7070209179932306 9.550425854025923e-08 0.7071923396589278
vn -0.7070209179932306 9.550425854025923e-08 0.7071923396589278
vn 0.9999994026758262 -2.741298943590913e-07 7.790341504972646e-07
vn 0.9999996103981468 -2.7408608132956084e-07 -1.4435920621703105e-07
vn 0.9999995065369864 -2.7410798784432606e-07 3.1733747214011677e-07
vn 0.9999994026758262 -2.741298943590913e-07 7.790341504972646e-07
vn 0.9999997142593071 -2.740641748147956e-07 -6.060558845741788e-07
vn 0.9999996103981468 -2.7408608132956084e-07 -1.4435920621703105e-07
vn 0.9999998181204673 -2.7404226830003035e-07 -1.0677525629313267e-06
vn 0.9999998181204673 -2.7404226830003035e-07 -1.0677525629313267e-06
f 15/15/15 14/14/14 13/13/13
f 20/20/20 19/19/19 18/18/18
f 25/25/25 24/24/24 23/23/23
f 30/30/30 29/29/29 28/28/28
f 75/75/75 74/74/74 73/73/73
f 71/71/71 72/72/72 76/76/76
f 79/79/79 78/78/78 77/77/77
f 82/82/82 81/81/81 80/80/80
f 10/10/10 1/1/1 3/3/3
f 9/9/9 10/10/10 3/3/3
f 174/174/174 173/173/173 7/7/7
f 11/11/11 174/174/174 7/7/7
f 176/176/176 175/175/175 5/5/5
f 12/12/12 176/176/176 5/5/5
f 179/179/179 178/178/178 177/177/177
f 180/180/180 179/179/179 177/177/177
f 183/183/183 182/182/182 181/181/181
f 184/184/184 183/183/183 181/181/181
f 2/2/2 4/4/4 8/8/8
f 6/6/6 2/2/2 8/8/8
f 187/187/187 186/186/186 185/185/185
f 188/188/188 187/187/187 185/185/185
f 191/191/191 190/190/190 189/189/189
f 192/192/192 191/191/191 189/189/189
f 195/195/195 194/194/194 193/193/193
f 196/196/196 195/195/195 193/193/193
f 199/199/199 198/198/198 197/197/197
f 200/200/200 199/199/199 197/197/197
f 27/27/27 26/26/26 32/32/32
f 31/31/31 27/27/27 32/32/32
f 27/27/27 31/31/31 17/17/17
f 21/21/21 27/27/27 17/17/17
f 21/21/21 17/17/17 16/16/16
f 22/22/22 21/21/21 16/16/16
f 203/203/203 202/202/202 201/201/201
f 204/204/204 203/203/203 201/201/201
f 207/207/207 206/206/206 205/205/205
f 208/208/208 207/207/207 205/205/205
f 211/211/211 210/210/210 209/209/209
f 212/212/212 211/211/211 209/209/209
f 215/215/215 214/214/214 213/213/213
f 216/216/216 215/215/215 213/213/213
f 219/219/219 218/218/218 217/217/217
f 220/220/220 219/219/219 217/217/217
f 49/49/49 47/47/47 45/45/45
f 51/51/51 49/49/49 45/45/45
f 51/51/51 45/45/45 245/245/245
f 246/246/246 51/51/51 245/245/245
f 246/246/246 245/245/245 247/247/247
f 248/248/248 246/246/246 247/247/247
f 38/38/38 37/37/37 40/40/40
f 39/39/39 38/38/38 40/40/40
f 38/38/38 39/39/39 34/34/34
f 35/35/35 38/38/38 34/34/34
f 35/35/35 34/34/34 33/33/33
f 36/36/36 35/35/35 33/33/33
f 41/41/41 43/43/43 44/44/44
f 42/42/42 41/41/41 44/44/44
f 224/224/224 223/223/223 48/48/48
f 46/46/46 224/224/224 48/48/48
f 53/53/53 55/55/55 56/56/56
f 54/54/54 53/53/53 56/56/56
f 226/226/226 225/225/225 52/52/52
f 50/50/50 226/226/226 52/52/52
f 229/229/229 228/228/228 227/227/227
f 230/230/230 229/229/229 227/227/227
f 233/233/233 232/232/232 231/231/231
f 234/234/234 233/233/233 231/231/231
f 237/237/237 236/236/236 235/235/235
f 238/238/238 237/237/237 235/235/235
f 241/241/241 240/240/240 239/239/239
f 242/242/242 241/241/241 239/239/239
f 60/60/60 59/59/59 57/57/57
f 58/58/58 60/60/60 57/57/57
f 63/63/63 250/250/250 249/249/249
f 64/64/64 63/63/63 249/249/249
f 62/62/62 61/61/61 251/251/251
f 252/252/252 62/62/62 251/251/251
f 255/255/255 254/254/254 253/253/253
f 256/256/256 255/255/255 253/253/253
f 259/259/259 258/258/258 257/257/257
f 260/260/260 259/259/259 257/257/257
f 263/263/263 262/262/262 261/261/261
f 264/264/264 263/263/263 261/261/261
f 66/66/66 65/65/65 68/68/68
f 67/67/67 66/66/66 68/68/68
f 83/83/83 67/67/67 68/68/68
f 69/69/69 83/83/83 68/68/68
f 84/84/84 83/83/83 69/69/69
f 70/70/70 84/84/84 69/69/69
f 267/267/267 266/266/266 265/265/265
f 268/268/268 267/267/267 265/265/265
f 271/271/271 270/270/270 269/269/269
f 272/272/272 271/271/271 269/269/269
f 275/275/275 274/274/274 273/273/273
f 276/276/276 275/275/275 273/273/273
f 279/279/279 278/278/278 277/277/277
f 280/280/280 279/279/279 277/277/277
f 283/283/283 282/282/282 281/281/281
f 284/284/284 283/283/283 281/281/281
f 88/88/88 87/87/87 85/85/85
f 87/87/87 86/86/86 85/85/85
f 311/311/311 85/85/85 86/86/86
f 312/312/312 311/311/311 86/86/86
f 313/313/313 311/311/311 312/312/312
f 314/314/314 313/313/313 312/312/312
f 90/90/90 89/89/89 92/92/92
f 91/91/91 90/90/90 92/92/92
f 106/106/106 91/91/91 92/92/92
f 107/107/107 106/106/106 92/92/92
f 105/105/105 106/106/106 107/107/107
f 108/108/108 105/105/105 107/107/107
f 97/97/97 96/96/96 95/95/95
f 98/98/98 97/97/97 95/95/95
f 289/289/289 100/100/100 99/99/99
f 290/290/290 289/289/289 99/99/99
f 102/102/102 94/94/94 101/101/101
f 103/103/103 102/102/102 101/101/101
f 291/291/291 104/104/104 93/93/93
f 292/292/292 291/291/291 93/93/93
f 295/295/295 294/294/294 293/293/293
f 296/296/296 295/295/295 293/293/293
f 299/299/299 298/298/298 297/297/297
f 300/300/300 299/299/299 297/297/297
f 303/303/303 302/302/302 301/301/301
f 304/304/304 303/303/303 301/301/301
f 307/307/307 306/306/306 305/305/305
f 308/308/308 307/307/307 305/305/305
f 316/316/316 110/110/110 315/315/315
f 110/110/110 109/109/109 315/315/315
f 109/109/109 110/110/110 317/317/317
f 318/318/318 109/109/109 317/317/317
f 321/321/321 320/320/320 319/319/319
f 320/320/320 114/114/114 319/319/319
f 320/320/320 322/322/322 114/114/114
f 322/322/322 158/158/158 114/114/114
f 322/322/322 111/111/111 158/158/158
f 111/111/111 113/113/113 158/158/158
f 113/113/113 111/111/111 323/323/323
f 324/324/324 113/113/113 323/323/323
f 327/327/327 326/326/326 325/325/325
f 326/326/326 120/120/120 325/325/325
f 120/120/120 326/326/326 328/328/328
f 329/329/329 120/120/120 328/328/328
f 332/332/332 331/331/331 330/330/330
f 331/331/331 116/116/116 330/330/330
f 331/331/331 157/157/157 116/116/116
f 157/157/157 159/159/159 116/116/116
f 159/159/159 157/157/157 115/115/115
f 157/157/157 112/112/112 115/115/115
f 115/115/115 112/112/112 333/333/333
f 334/334/334 115/115/115 333/333/333
f 337/337/337 117/117/117 335/335/335
f 117/117/117 336/336/336 335/335/335
f 117/117/117 160/160/160 336/336/336
f 160/160/160 118/118/118 336/336/336
f 336/336/336 118/118/118 338/338/338
f 339/339/339 336/336/336 338/338/338
f 342/342/342 341/341/341 340/340/340
f 341/341/341 119/119/119 340/340/340
f 341/341/341 222/222/222 119/119/119
f 222/222/222 221/221/221 119/119/119
f 119/119/119 221/221/221 343/343/343
f 344/344/344 119/119/119 343/343/343
f 348/348/348 347/347/347 345/345/345
f 347/347/347 346/346/346 345/345/345
f 347/347/347 351/351/351 346/346/346
f 351/351/351 352/352/352 346/346/346
f 352/352/352 351/351/351 349/349/349
f 351/351/351 350/350/350 349/349/349
f 349/349/349 350/350/350 353/353/353
f 354/354/354 349/349/349 353/353/353
f 358/358/358 357/357/357 355/355/355
f 357/357/357 356/356/356 355/355/355
f 356/356/356 357/357/357 359/359/359
f 360/360/360 356/356/356 359/359/359
f 363/363/363 362/362/362 361/361/361
f 362/362/362 122/122/122 361/361/361
f 122/122/122 362/362/362 364/364/364
f 365/365/365 122/122/122 364/364/364
f 367/367/367 123/123/123 366/366/366
f 123/123/123 125/125/125 366/366/366
f 123/123/123 161/161/161 125/125/125
f 161/161/161 162/162/162 125/125/125
f 161/161/161 124/124/124 162/162/162
f 124/124/124 126/126/126 162/162/162
f 126/126/126 124/124/124 368/368/368
f 369/369/369 126/126/126 368/368/368
f 372/372/372 127/127/127 370/370/370
f 127/127/127 371/371/371 370/370/370
f 371/371/371 127/127/127 373/373/373
f 374/374/374 371/371/371 373/373/373
f 377/377/377 128/128/128 375/375/375
f 128/128/128 376/376/376 375/375/375
f 376/376/376 128/128/128 378/378/378
f 128/128/128 163/163/163 378/378/378
f 163/163/163 129/129/129 378/378/378
f 129/129/129 379/379/379 378/378/378
f 379/379/379 129/129/129 380/380/380
f 381/381/381 379/379/379 380/380/380
f 383/383/383 121/121/121 382/382/382
f 121/121/121 131/131/131 382/382/382
f 131/131/131 121/121/121 164/164/164
f 164/164/164 121/121/121 130/130/130
f 130/130/130 121/121/121 384/384/384
f 385/385/385 130/130/130 384/384/384
f 388/388/388 132/132/132 386/386/386
f 132/132/132 387/387/387 386/386/386
f 387/387/387 132/132/132 390/390/390
f 390/390/390 132/132/132 389/389/389
f 389/389/389 132/132/132 391/391/391
f 392/392/392 389/389/389 391/391/391
f 396/396/396 395/395/395 393/393/393
f 395/395/395 394/394/394 393/393/393
f 394/394/394 395/395/395 285/285/285
f 395/395/395 288/288/288 285/285/285
f 288/288/288 287/287/287 285/285/285
f 287/287/287 286/286/286 285/285/285
f 286/286/286 287/287/287 397/397/397
f 398/398/398 286/286/286 397/397/397
f 402/402/402 401/401/401 399/399/399
f 401/401/401 400/400/400 399/399/399
f 400/400/400 401/401/401 403/403/403
f 404/404/404 400/400/400 403/403/403
f 406/406/406 140/140/140 405/405/405
f 140/140/140 139/139/139 405/405/405
f 139/139/139 140/140/140 167/167/167
f 167/167/167 140/140/140 138/138/138
f 138/138/138 140/140/140 407/407/407
f 408/408/408 138/138/138 407/407/407
f 410/410/410 142/142/142 409/409/409
f 142/142/142 141/141/141 409/409/409
f 141/141/141 142/142/142 411/411/411
f 412/412/412 141/141/141 411/411/411
f 416/416/416 415/415/415 413/413/413
f 415/415/415 414/414/414 413/413/413
f 415/415/415 418/418/418 414/414/414
f 418/418/418 417/417/417 414/414/414
f 418/418/418 135/135/135 417/417/417
f 135/135/135 144/144/144 417/417/417
f 144/144/144 135/135/135 419/419/419
f 420/420/420 144/144/144 419/419/419
f 423/423/423 133/133/133 421/421/421
f 133/133/133 422/422/422 421/421/421
f 422/422/422 133/133/133 424/424/424
f 425/425/425 422/422/422 424/424/424
f 429/429/429 428/428/428 426/426/426
f 428/428/428 427/427/427 426/426/426
f 427/427/427 428/428/428 430/430/430
f 431/431/431 427/427/427 430/430/430
f 434/434/434 433/433/433 432/432/432
f 433/433/433 136/136/136 432/432/432
f 433/433/433 165/165/165 136/136/136
f 165/165/165 166/166/166 136/136/136
f 166/166/166 165/165/165 137/137/137
f 165/165/165 134/134/134 137/137/137
f 137/137/137 134/134/134 435/435/435
f 436/436/436 137/137/137 435/435/435
f 440/440/440 439/439/439 437/437/437
f 439/439/439 438/438/438 437/437/437
f 438/438/438 439/439/439 168/168/168
f 439/439/439 244/244/244 168/168/168
f 244/244/244 243/243/243 168/168/168
f 243/243/243 143/143/143 168/168/168
f 143/143/143 243/243/243 441/441/441
f 442/442/442 143/143/143 441/441/441
f 446/446/446 445/445/445 443/443/443
f 445/445/445 444/444/444 443/443/443
f 444/444/444 445/445/445 448/448/448
f 448/448/448 445/445/445 447/447/447
f 447/447/447 445/445/445 449/449/449
f 450/450/450 447/447/447 449/449/449
f 452/452/452 145/145/145 451/451/451
f 145/145/145 147/147/147 451/451/451
f 145/145/145 169/169/169 147/147/147
f 169/169/169 146/146/146 147/147/147
f 147/147/147 146/146/146 453/453/453
f 454/454/454 147/147/147 453/453/453
f 456/456/456 148/148/148 455/455/455
f 148/148/148 149/149/149 455/455/455
f 149/149/149 148/148/148 457/457/457
f 458/458/458 149/149/149 457/457/457
f 462/462/462 461/461/461 459/459/459
f 461/461/461 460/460/460 459/459/459
f 461/461/461 464/464/464 460/460/460
f 464/464/464 463/463/463 460/460/460
f 464/464/464 150/150/150 463/463/463
f 150/150/150 152/152/152 463/463/463
f 152/152/152 150/150/150 465/465/465
f 466/466/466 152/152/152 465/465/465
f 469/469/469 468/468/468 467/467/467
f 468/468/468 154/154/154 467/467/467
f 154/154/154 468/468/468 470/470/470
f 471/471/471 154/154/154 470/470/470
f 475/475/475 474/474/474 472/472/472
f 474/474/474 473/473/473 472/472/472
f 473/473/473 474/474/474 476/476/476
f 477/477/477 473/473/473 476/476/476
f 480/480/480 156/156/156 478/478/478
f 156/156/156 479/479/479 478/478/478
f 479/479/479 156/156/156 171/171/171
f 156/156/156 172/172/172 171/171/171
f 172/172/172 155/155/155 171/171/171
f 155/155/155 153/153/153 171/171/171
f 153/153/153 155/155/155 481/481/481
f 482/482/482 153/153/153 481/481/481
f 486/486/486 485/485/485 483/483/483
f 485/485/485 484/484/484 483/483/483
f 485/485/485 170/170/170 484/484/484
f 170/170/170 310/310/310 484/484/484
f 310/310/310 170/170/170 309/309/309
f 170/170/170 151/151/151 309/309/309
f 309/309/309 151/151/151 487/487/487
f 488/488/488 309/309/309 487/487/487
f 492/492/492 491/491/491 489/489/489
f 491/491/491 490/490/490 489/489/489
f 491/491/491 494/494/494 490/490/490
f 494/494/494 493/493/493 490/490/490
f 490/490/490 493/493/493 495/495/495
f 496/496/496 490/490/490 495/495/495