g hand_R
v 0.055149015 0.051722344 -0.0170843415
v 0.0580223799 0.0551717952 -0.0151758259
v 0.057057526 0.0551717952 -0.0199577101
v 0.0580223799 0.0620720647 -0.0151758259
v 0.055149015 0.0655215234 -0.0170843415
v 0.057057526 0.0620720647 -0.0199577101
v 0.0493955761 0.0620720647 -0.00218769163
v 0.0446136892 0.0620720647 -0.00122282596
v 0.0465221964 0.0655215234 -0.00409620441
v 0.0493955761 0.0551717952 -0.00218769163
v 0.0465221964 0.051722344 -0.00409620441
v 0.0446136892 0.0551717952 -0.00122282596
v -0.0181467514 2.25297718E-08 0.0436501317
v -0.0226828754 0.00453614444 0.0436501317
v -0.0181467514 0.00453614444 0.04818625
v 0.0181467626 0.00453614444 0.04818625
v 0.0226828847 0.00453614444 0.0436501317
v 0.0181467626 2.25297718E-08 0.0436501317
v -0.0226828754 0.0687413067 0.0436501317
v -0.0181467514 0.0732774064 0.0436501317
v -0.0181467514 0.0687413067 0.04818625
v 0.0226828847 0.0687413067 0.0436501317
v 0.0181467626 0.0687413067 0.04818625
v 0.0181467626 0.0732774064 0.0436501317
v -0.0226828754 0.0687413067 -0.0436501317
v -0.0181467514 0.0687412992 -0.04818625
v -0.0181467514 0.0732774064 -0.0436501317
v 0.0181467626 0.0687412992 -0.04818625
v 0.0226828847 0.0687413067 -0.0436501317
v 0.0181467626 0.0732774064 -0.0436501317
v -0.0226828754 0.00453614444 -0.0436501317
v -0.0181467514 2.25297718E-08 -0.0436501317
v -0.0181467514 0.00453614444 -0.04818625
v 0.0181467626 2.25297718E-08 -0.0436501317
v 0.0226828847 0.00453614444 -0.0436501317
v 0.0181467626 0.00453614444 -0.04818625
v 0.0546430163 0.0544819012 0.00863687694
v 0.0537973046 0.051722344 0.011263649
v 0.0564240739 0.0544819012 0.0121093756
v 0.0537973046 0.0655215234 0.011263649
v 0.0546430163 0.062761955 0.00863687694
v 0.0564240739 0.062761955 0.0121093756
v 0.0350153409 0.062761955 0.00521651749
v 0.0384878404 0.062761955 0.00343548227
v 0.0376421139 0.0655215234 0.00606225105
v 0.0376421139 0.051722344 0.00606225105
v 0.0384878404 0.0544819012 0.00343548227
v 0.0350153409 0.0544819012 0.00521651749
v 0.0144790253 0.051722344 0.0531253517
v 0.0117194653 0.0544819012 0.0531253517
v 0.0144790253 0.0544819012 0.0558849126
v 0.0432183743 0.0544819012 0.0531253517
v 0.0404588133 0.051722344 0.0531253517
v 0.0404588133 0.0544819012 0.0558849126
v 0.0117194653 0.062761955 0.0531253517
v 0.0144790253 0.0655215234 0.0531253517
v 0.0144790253 0.062761955 0.0558849126
v 0.0404588059 0.0655215234 0.0531253517
v 0.0432183668 0.062761955 0.0531253517
v 0.0404588133 0.062761955 0.0558849126
v 0.0546430163 0.0393330269 0.00863687694
v 0.0537973046 0.0365734696 0.011263649
v 0.0564240739 0.0393330269 0.0121093756
v 0.0537973046 0.0503726453 0.011263649
v 0.0546430163 0.0476130806 0.00863687694
v 0.0564240739 0.0476130806 0.0121093756
v 0.0350153409 0.0476130806 0.00521651749
v 0.0384878404 0.0476130806 0.00343548227
v 0.0376421139 0.0503726453 0.00606225105
v 0.0376421139 0.0365734696 0.00606225105
v 0.0384878404 0.0393330269 0.00343548227
v 0.0350153409 0.0393330269 0.00521651749
v 0.0144790253 0.0365734696 0.0531253517
v 0.0117194653 0.0393330269 0.0531253517
v 0.0144790253 0.0393330269 0.0558849126
v 0.0432183743 0.0393330269 0.0531253517
v 0.0404588133 0.0365734696 0.0531253517
v 0.0404588133 0.0393330269 0.0558849126
v 0.0117194653 0.0476130806 0.0531253517
v 0.0144790253 0.0503726453 0.0531253517
v 0.0144790253 0.0476130806 0.0558849126
v 0.0404588059 0.0503726453 0.0531253517
v 0.0432183668 0.0476130806 0.0531253517
v 0.0404588133 0.0476130806 0.0558849126
v 0.0546430163 0.0241841543 0.00863687694
v 0.0537973046 0.021424599 0.011263649
v 0.0564240739 0.0241841543 0.0121093756
v 0.0537973046 0.0352237746 0.011263649
v 0.0546430163 0.0324642062 0.00863687694
v 0.0564240739 0.0324642062 0.0121093756
v 0.0350153409 0.0324642062 0.00521651749
v 0.0384878404 0.0324642062 0.00343548227
v 0.0376421139 0.0352237746 0.00606225105
v 0.0376421139 0.021424599 0.00606225105
v 0.0384878404 0.0241841543 0.00343548227
v 0.0350153409 0.0241841543 0.00521651749
v 0.0144790253 0.021424599 0.0531253517
v 0.0117194653 0.0241841543 0.0531253517
v 0.0144790253 0.0241841543 0.0558849126
v 0.0432183743 0.0241841543 0.0531253517
v 0.0404588133 0.021424599 0.0531253517
v 0.0404588133 0.0241841543 0.0558849126
v 0.0117194653 0.0324642062 0.0531253517
v 0.0144790253 0.0352237746 0.0531253517
v 0.0144790253 0.0324642062 0.0558849126
v 0.0404588059 0.0352237746 0.0531253517
v 0.0432183668 0.0324642062 0.0531253517
v 0.0404588133 0.0324642062 0.0558849126
v 0.0546430163 0.00903528184 0.00863687694
v 0.0537973046 0.00627572509 0.011263649
v 0.0564240739 0.00903528184 0.0121093756
v 0.0537973046 0.0200749002 0.011263649
v 0.0546430163 0.0173153356 0.00863687694
v 0.0564240739 0.0173153356 0.0121093756
v 0.0350153409 0.0173153356 0.00521651749
v 0.0384878404 0.0173153356 0.00343548227
v 0.0376421139 0.0200749002 0.00606225105
v 0.0376421139 0.00627572509 0.00606225105
v 0.0384878404 0.00903528184 0.00343548227
v 0.0350153409 0.00903528184 0.00521651749
v 0.0144790253 0.00627572509 0.0531253517
v 0.0117194653 0.00903528184 0.0531253517
v 0.0144790253 0.00903528184 0.0558849126
v 0.0432183743 0.00903528184 0.0531253517
v 0.0404588133 0.00627572509 0.0531253517
v 0.0404588133 0.00903528184 0.0558849126
v 0.0117194653 0.0173153356 0.0531253517
v 0.0144790253 0.0200749002 0.0531253517
v 0.0144790253 0.0173153356 0.0558849126
v 0.0404588059 0.0200749002 0.0531253517
v 0.0432183668 0.0173153356 0.0531253517
v 0.0404588133 0.0173153356 0.0558849126
v 0.055149015 0.051722344 -0.0170843415
v 0.0465221964 0.051722344 -0.00409620441
v 0.0493955761 0.0551717952 -0.00218769163
v 0.0580223799 0.0551717952 -0.0151758259
v 0.057057526 0.0551717952 -0.0199577101
v 0.0223135967 0.0551717952 -0.0430348739
v 0.0204050746 0.051722344 -0.0401614942
v 0.055149015 0.051722344 -0.0170843415
v 0.0580223799 0.0551717952 -0.0151758259
v 0.0580223799 0.0620720647 -0.0151758259
v 0.057057526 0.0620720647 -0.0199577101
v 0.057057526 0.0551717952 -0.0199577101
v 0.0580223799 0.0620720647 -0.0151758259
v 0.0493955761 0.0620720647 -0.00218769163
v 0.0465221964 0.0655215234 -0.00409620441
v 0.055149015 0.0655215234 -0.0170843415
v 0.055149015 0.0655215234 -0.0170843415
v 0.0204050746 0.0655215234 -0.0401614942
v 0.0223135967 0.0620720647 -0.0430348739
v 0.057057526 0.0620720647 -0.0199577101
v 0.0493955761 0.0620720647 -0.00218769163
v 0.0493955761 0.0551717952 -0.00218769163
v 0.0446136892 0.0551717952 -0.00122282596
v 0.0446136892 0.0620720647 -0.00122282596
v 0.0446136892 0.0620720647 -0.00122282596
v 0.00986975245 0.0620720647 -0.0242999922
v 0.0117782652 0.0655215234 -0.0271733683
v 0.0465221964 0.0655215234 -0.00409620441
v 0.0465221964 0.051722344 -0.00409620441
v 0.0117782652 0.051722344 -0.0271733683
v 0.00986975245 0.0551717952 -0.0242999922
v 0.0446136892 0.0551717952 -0.00122282596
v 0.057057526 0.0551717952 -0.0199577101
v 0.057057526 0.0620720647 -0.0199577101
v 0.0223135967 0.0620720647 -0.0430348739
v 0.0223135967 0.0551717952 -0.0430348739
v 0.055149015 0.0655215234 -0.0170843415
v 0.0465221964 0.0655215234 -0.00409620441
v 0.0117782652 0.0655215234 -0.0271733683
v 0.0204050746 0.0655215234 -0.0401614942
v 0.0446136892 0.0620720647 -0.00122282596
v 0.0446136892 0.0551717952 -0.00122282596
v 0.00986975245 0.0551717952 -0.0242999922
v 0.00986975245 0.0620720647 -0.0242999922
v 0.0465221964 0.051722344 -0.00409620441
v 0.055149015 0.051722344 -0.0170843415
v 0.0204050746 0.051722344 -0.0401614942
v 0.0117782652 0.051722344 -0.0271733683
v 0.0493955761 0.0551717952 -0.00218769163
v 0.0493955761 0.0620720647 -0.00218769163
v 0.0580223799 0.0620720647 -0.0151758259
v 0.0580223799 0.0551717952 -0.0151758259
v -0.0181467514 2.25297718E-08 0.0436501317
v -0.0181467514 2.25297718E-08 -0.0436501317
v -0.0226828754 0.00453614444 -0.0436501317
v -0.0226828754 0.00453614444 0.0436501317
v -0.0181467514 0.00453614444 0.04818625
v 0.0181467626 0.00453614444 0.04818625
v 0.0181467626 2.25297718E-08 0.0436501317
v -0.0181467514 2.25297718E-08 0.0436501317
v -0.0226828754 0.00453614444 0.0436501317
v -0.0226828754 0.0687413067 0.0436501317
v -0.0181467514 0.0687413067 0.04818625
v -0.0181467514 0.00453614444 0.04818625
v 0.0181467626 0.00453614444 0.04818625
v 0.0181467626 0.0687413067 0.04818625
v 0.0226828847 0.0687413067 0.0436501317
v 0.0226828847 0.00453614444 0.0436501317
v 0.0226828847 0.00453614444 0.0436501317
v 0.0226828847 0.00453614444 -0.0436501317
v 0.0181467626 2.25297718E-08 -0.0436501317
v 0.0181467626 2.25297718E-08 0.0436501317
v -0.0226828754 0.0687413067 0.0436501317
v -0.0226828754 0.0687413067 -0.0436501317
v -0.0181467514 0.0732774064 -0.0436501317
v -0.0181467514 0.0732774064 0.0436501317
v -0.0181467514 0.0732774064 0.0436501317
v 0.0181467626 0.0732774064 0.0436501317
v 0.0181467626 0.0687413067 0.04818625
v -0.0181467514 0.0687413067 0.04818625
v 0.0181467626 0.0732774064 0.0436501317
v 0.0181467626 0.0732774064 -0.0436501317
v 0.0226828847 0.0687413067 -0.0436501317
v 0.0226828847 0.0687413067 0.0436501317
v -0.0226828754 0.0687413067 -0.0436501317
v -0.0226828754 0.00453614444 -0.0436501317
v -0.0181467514 0.00453614444 -0.04818625
v -0.0181467514 0.0687412992 -0.04818625
v -0.0181467514 0.0687412992 -0.04818625
v 0.0181467626 0.0687412992 -0.04818625
v 0.0181467626 0.0732774064 -0.0436501317
v -0.0181467514 0.0732774064 -0.0436501317
v 0.0181467626 0.0687412992 -0.04818625
v 0.0181467626 0.00453614444 -0.04818625
v 0.0226828847 0.00453614444 -0.0436501317
v 0.0226828847 0.0687413067 -0.0436501317
v -0.0181467514 2.25297718E-08 -0.0436501317
v 0.0181467626 2.25297718E-08 -0.0436501317
v 0.0181467626 0.00453614444 -0.04818625
v -0.0181467514 0.00453614444 -0.04818625
v -0.0181467514 0.0687413067 0.04818625
v 0.0181467626 0.0687413067 0.04818625
v 0.0181467626 0.00453614444 0.04818625
v -0.0181467514 0.00453614444 0.04818625
v -0.0181467514 0.0732774064 0.0436501317
v -0.0181467514 0.0732774064 -0.0436501317
v 0.0181467626 0.0732774064 -0.0436501317
v 0.0181467626 0.0732774064 0.0436501317
v -0.0181467514 2.25297718E-08 -0.0436501317
v -0.0181467514 2.25297718E-08 0.0436501317
v 0.0181467626 2.25297718E-08 0.0436501317
v 0.0181467626 2.25297718E-08 -0.0436501317
v 0.0226828847 0.00453614444 0.0436501317
v 0.0226828847 0.0687413067 0.0436501317
v 0.0226828847 0.0687413067 -0.0436501317
v 0.0226828847 0.00453614444 -0.0436501317
v -0.0226828754 0.00453614444 -0.0436501317
v -0.0226828754 0.0687413067 -0.0436501317
v -0.0226828754 0.0687413067 0.0436501317
v -0.0226828754 0.00453614444 0.0436501317
v -0.0181467514 0.0687412992 -0.04818625
v -0.0181467514 0.00453614444 -0.04818625
v 0.0181467626 0.00453614444 -0.04818625
v 0.0181467626 0.0687412992 -0.04818625
v 0.0404588133 0.051722344 0.0531253517
v 0.0432183743 0.0544819012 0.0531253517
v 0.0537973046 0.051722344 0.011263649
v 0.0564240739 0.0544819012 0.0121093756
v 0.0546430163 0.0544819012 0.00863687694
v 0.0384878404 0.0544819012 0.00343548227
v 0.0376421139 0.051722344 0.00606225105
v 0.0537973046 0.051722344 0.011263649
v 0.0564240739 0.0544819012 0.0121093756
v 0.0564240739 0.062761955 0.0121093756
v 0.0546430163 0.062761955 0.00863687694
v 0.0546430163 0.0544819012 0.00863687694
v 0.0404588059 0.0655215234 0.0531253517
v 0.0537973046 0.0655215234 0.011263649
v 0.0432183668 0.062761955 0.0531253517
v 0.0564240739 0.062761955 0.0121093756
v 0.0537973046 0.0655215234 0.011263649
v 0.0376421139 0.0655215234 0.00606225105
v 0.0384878404 0.062761955 0.00343548227
v 0.0546430163 0.062761955 0.00863687694
v 0.0279523768 0.0655215234 0.0361534841
v 0.0259496868 0.062761955 0.0333939232
v 0.0376421139 0.0655215234 0.00606225105
v 0.0350153409 0.062761955 0.00521651749
v 0.0350153409 0.062761955 0.00521651749
v 0.0350153409 0.0544819012 0.00521651749
v 0.0384878404 0.0544819012 0.00343548227
v 0.0384878404 0.062761955 0.00343548227
v 0.0279523768 0.051722344 0.0361534841
v 0.0376421139 0.051722344 0.00606225105
v 0.0259496868 0.0544819012 0.0333939232
v 0.0350153409 0.0544819012 0.00521651749
v 0.0432183743 0.0544819012 0.0531253517
v 0.0432183668 0.062761955 0.0531253517
v 0.0564240739 0.062761955 0.0121093756
v 0.0564240739 0.0544819012 0.0121093756
v 0.0404588059 0.0655215234 0.0531253517
v 0.0376421139 0.0655215234 0.00606225105
v 0.0537973046 0.0655215234 0.011263649
v 0.0279523768 0.0655215234 0.0361534841
v 0.0144790253 0.0655215234 0.0531253517
v 0.0144790253 0.0655215234 0.0361534841
v 0.0259496868 0.062761955 0.0333939232
v 0.0259496868 0.0544819012 0.0333939232
v 0.0350153409 0.0544819012 0.00521651749
v 0.0350153409 0.062761955 0.00521651749
v 0.0279523768 0.051722344 0.0361534841
v 0.0537973046 0.051722344 0.011263649
v 0.0376421139 0.051722344 0.00606225105
v 0.0404588133 0.051722344 0.0531253517
v 0.0144790253 0.051722344 0.0361534841
v 0.0144790253 0.051722344 0.0531253517
v 0.0546430163 0.0544819012 0.00863687694
v 0.0546430163 0.062761955 0.00863687694
v 0.0384878404 0.062761955 0.00343548227
v 0.0384878404 0.0544819012 0.00343548227
v 0.0144790253 0.051722344 0.0531253517
v 0.0144790253 0.051722344 0.0361534841
v 0.0117194653 0.0544819012 0.0361534841
v 0.0117194653 0.0544819012 0.0531253517
v 0.0144790253 0.0544819012 0.0558849126
v 0.0404588133 0.0544819012 0.0558849126
v 0.0404588133 0.051722344 0.0531253517
v 0.0144790253 0.051722344 0.0531253517
v 0.0117194653 0.0544819012 0.0531253517
v 0.0117194653 0.062761955 0.0531253517
v 0.0144790253 0.062761955 0.0558849126
v 0.0144790253 0.0544819012 0.0558849126
v 0.0404588133 0.0544819012 0.0558849126
v 0.0404588133 0.062761955 0.0558849126
v 0.0432183668 0.062761955 0.0531253517
v 0.0432183743 0.0544819012 0.0531253517
v 0.0117194653 0.062761955 0.0531253517
v 0.0117194653 0.062761955 0.0361534841
v 0.0144790253 0.0655215234 0.0361534841
v 0.0144790253 0.0655215234 0.0531253517
v 0.0144790253 0.0655215234 0.0531253517
v 0.0404588059 0.0655215234 0.0531253517
v 0.0404588133 0.062761955 0.0558849126
v 0.0144790253 0.062761955 0.0558849126
v 0.0144790253 0.062761955 0.0333939232
v 0.0259496868 0.062761955 0.0333939232
v 0.0279523768 0.0655215234 0.0361534841
v 0.0144790253 0.0655215234 0.0361534841
v 0.0144790253 0.051722344 0.0361534841
v 0.0279523768 0.051722344 0.0361534841
v 0.0259496868 0.0544819012 0.0333939232
v 0.0144790253 0.0544819012 0.0333939232
v 0.0144790253 0.0544819012 0.0558849126
v 0.0144790253 0.062761955 0.0558849126
v 0.0404588133 0.062761955 0.0558849126
v 0.0404588133 0.0544819012 0.0558849126
v 0.0144790253 0.062761955 0.0333939232
v 0.0144790253 0.0544819012 0.0333939232
v 0.0259496868 0.0544819012 0.0333939232
v 0.0259496868 0.062761955 0.0333939232
v 0.0117194653 0.0544819012 0.0361534841
v 0.0117194653 0.062761955 0.0361534841
v 0.0117194653 0.062761955 0.0531253517
v 0.0117194653 0.0544819012 0.0531253517
v -0.0112173781 0.0597631074 -0.0862729549
v 0.0112173837 0.0597631074 -0.0862729549
v 0.0112173837 0.0655914173 -0.04818625
v -0.0112173781 0.0655914173 -0.04818625
v -0.0112173781 0.00768603943 -0.04818625
v 0.0112173837 0.00768603943 -0.04818625
v 0.0112173837 0.0135143455 -0.0862729549
v -0.0112173781 0.0135143455 -0.0862729549
v 0.0149968695 0.0115095228 -0.04818625
v 0.0149968695 0.0617679283 -0.04818625
v 0.0149968695 0.0559396259 -0.0862729549
v 0.0149968695 0.0173378289 -0.0862729549
v -0.0149968667 0.0173378289 -0.0862729549
v -0.0149968667 0.0559396259 -0.0862729549
v -0.0149968667 0.0617679283 -0.04818625
v -0.0149968667 0.0115095228 -0.04818625
v -0.0149968667 0.0173378289 -0.0862729549
v -0.0112173781 0.0135143455 -0.0862729549
v 0.0112173837 0.0135143455 -0.0862729549
v 0.0149968695 0.0173378289 -0.0862729549
v -0.0149968667 0.0559396259 -0.0862729549
v 0.0149968695 0.0559396259 -0.0862729549
v 0.0112173837 0.0597631074 -0.0862729549
v -0.0112173781 0.0597631074 -0.0862729549
v -0.0149968667 0.0617679283 -0.04818625
v -0.0149968667 0.0559396259 -0.0862729549
v -0.0112173781 0.0597631074 -0.0862729549
v -0.0112173781 0.0655914173 -0.04818625
v 0.0112173837 0.0655914173 -0.04818625
v 0.0112173837 0.0597631074 -0.0862729549
v 0.0149968695 0.0559396259 -0.0862729549
v 0.0149968695 0.0617679283 -0.04818625
v -0.0112173781 0.00768603943 -0.04818625
v -0.0112173781 0.0135143455 -0.0862729549
v -0.0149968667 0.0173378289 -0.0862729549
v -0.0149968667 0.0115095228 -0.04818625
v 0.0149968695 0.0115095228 -0.04818625
v 0.0149968695 0.0173378289 -0.0862729549
v 0.0112173837 0.0135143455 -0.0862729549
v 0.0112173837 0.00768603943 -0.04818625
v 0.0404588133 0.0365734696 0.0531253517
v 0.0432183743 0.0393330269 0.0531253517
v 0.0537973046 0.0365734696 0.011263649
v 0.0564240739 0.0393330269 0.0121093756
v 0.0546430163 0.0393330269 0.00863687694
v 0.0384878404 0.0393330269 0.00343548227
v 0.0376421139 0.0365734696 0.00606225105
v 0.0537973046 0.0365734696 0.011263649
v 0.0564240739 0.0393330269 0.0121093756
v 0.0564240739 0.0476130806 0.0121093756
v 0.0546430163 0.0476130806 0.00863687694
v 0.0546430163 0.0393330269 0.00863687694
v 0.0404588059 0.0503726453 0.0531253517
v 0.0537973046 0.0503726453 0.011263649
v 0.0432183668 0.0476130806 0.0531253517
v 0.0564240739 0.0476130806 0.0121093756
v 0.0537973046 0.0503726453 0.011263649
v 0.0376421139 0.0503726453 0.00606225105
v 0.0384878404 0.0476130806 0.00343548227
v 0.0546430163 0.0476130806 0.00863687694
v 0.0279523768 0.0503726453 0.0361534841
v 0.0259496868 0.0476130806 0.0333939232
v 0.0376421139 0.0503726453 0.00606225105
v 0.0350153409 0.0476130806 0.00521651749
v 0.0350153409 0.0476130806 0.00521651749
v 0.0350153409 0.0393330269 0.00521651749
v 0.0384878404 0.0393330269 0.00343548227
v 0.0384878404 0.0476130806 0.00343548227
v 0.0279523768 0.0365734696 0.0361534841
v 0.0376421139 0.0365734696 0.00606225105
v 0.0259496868 0.0393330269 0.0333939232
v 0.0350153409 0.0393330269 0.00521651749
v 0.0432183743 0.0393330269 0.0531253517
v 0.0432183668 0.0476130806 0.0531253517
v 0.0564240739 0.0476130806 0.0121093756
v 0.0564240739 0.0393330269 0.0121093756
v 0.0404588059 0.0503726453 0.0531253517
v 0.0376421139 0.0503726453 0.00606225105
v 0.0537973046 0.0503726453 0.011263649
v 0.0279523768 0.0503726453 0.0361534841
v 0.0144790253 0.0503726453 0.0531253517
v 0.0144790253 0.0503726453 0.0361534841
v 0.0259496868 0.0476130806 0.0333939232
v 0.0259496868 0.0393330269 0.0333939232
v 0.0350153409 0.0393330269 0.00521651749
v 0.0350153409 0.0476130806 0.00521651749
v 0.0279523768 0.0365734696 0.0361534841
v 0.0537973046 0.0365734696 0.011263649
v 0.0376421139 0.0365734696 0.00606225105
v 0.0404588133 0.0365734696 0.0531253517
v 0.0144790253 0.0365734696 0.0361534841
v 0.0144790253 0.0365734696 0.0531253517
v 0.0546430163 0.0393330269 0.00863687694
v 0.0546430163 0.0476130806 0.00863687694
v 0.0384878404 0.0476130806 0.00343548227
v 0.0384878404 0.0393330269 0.00343548227
v 0.0144790253 0.0365734696 0.0531253517
v 0.0144790253 0.0365734696 0.0361534841
v 0.0117194653 0.0393330269 0.0361534841
v 0.0117194653 0.0393330269 0.0531253517
v 0.0144790253 0.0393330269 0.0558849126
v 0.0404588133 0.0393330269 0.0558849126
v 0.0404588133 0.0365734696 0.0531253517
v 0.0144790253 0.0365734696 0.0531253517
v 0.0117194653 0.0393330269 0.0531253517
v 0.0117194653 0.0476130806 0.0531253517
v 0.0144790253 0.0476130806 0.0558849126
v 0.0144790253 0.0393330269 0.0558849126
v 0.0404588133 0.0393330269 0.0558849126
v 0.0404588133 0.0476130806 0.0558849126
v 0.0432183668 0.0476130806 0.0531253517
v 0.0432183743 0.0393330269 0.0531253517
v 0.0117194653 0.0476130806 0.0531253517
v 0.0117194653 0.0476130806 0.0361534841
v 0.0144790253 0.0503726453 0.0361534841
v 0.0144790253 0.0503726453 0.0531253517
v 0.0144790253 0.0503726453 0.0531253517
v 0.0404588059 0.0503726453 0.0531253517
v 0.0404588133 0.0476130806 0.0558849126
v 0.0144790253 0.0476130806 0.0558849126
v 0.0144790253 0.0476130806 0.0333939232
v 0.0259496868 0.0476130806 0.0333939232
v 0.0279523768 0.0503726453 0.0361534841
v 0.0144790253 0.0503726453 0.0361534841
v 0.0144790253 0.0365734696 0.0361534841
v 0.0279523768 0.0365734696 0.0361534841
v 0.0259496868 0.0393330269 0.0333939232
v 0.0144790253 0.0393330269 0.0333939232
v 0.0144790253 0.0393330269 0.0558849126
v 0.0144790253 0.0476130806 0.0558849126
v 0.0404588133 0.0476130806 0.0558849126
v 0.0404588133 0.0393330269 0.0558849126
v 0.0144790253 0.0476130806 0.0333939232
v 0.0144790253 0.0393330269 0.0333939232
v 0.0259496868 0.0393330269 0.0333939232
v 0.0259496868 0.0476130806 0.0333939232
v 0.0117194653 0.0393330269 0.0361534841
v 0.0117194653 0.0476130806 0.0361534841
v 0.0117194653 0.0476130806 0.0531253517
v 0.0117194653 0.0393330269 0.0531253517
v 0.0404588133 0.021424599 0.0531253517
v 0.0432183743 0.0241841543 0.0531253517
v 0.0537973046 0.021424599 0.011263649
v 0.0564240739 0.0241841543 0.0121093756
v 0.0546430163 0.0241841543 0.00863687694
v 0.0384878404 0.0241841543 0.00343548227
v 0.0376421139 0.021424599 0.00606225105
v 0.0537973046 0.021424599 0.011263649
v 0.0564240739 0.0241841543 0.0121093756
v 0.0564240739 0.0324642062 0.0121093756
v 0.0546430163 0.0324642062 0.00863687694
v 0.0546430163 0.0241841543 0.00863687694
v 0.0404588059 0.0352237746 0.0531253517
v 0.0537973046 0.0352237746 0.011263649
v 0.0432183668 0.0324642062 0.0531253517
v 0.0564240739 0.0324642062 0.0121093756
v 0.0537973046 0.0352237746 0.011263649
v 0.0376421139 0.0352237746 0.00606225105
v 0.0384878404 0.0324642062 0.00343548227
v 0.0546430163 0.0324642062 0.00863687694
v 0.0279523768 0.0352237746 0.0361534841
v 0.0259496868 0.0324642062 0.0333939232
v 0.0376421139 0.0352237746 0.00606225105
v 0.0350153409 0.0324642062 0.00521651749
v 0.0350153409 0.0324642062 0.00521651749
v 0.0350153409 0.0241841543 0.00521651749
v 0.0384878404 0.0241841543 0.00343548227
v 0.0384878404 0.0324642062 0.00343548227
v 0.0279523768 0.021424599 0.0361534841
v 0.0376421139 0.021424599 0.00606225105
v 0.0259496868 0.0241841543 0.0333939232
v 0.0350153409 0.0241841543 0.00521651749
v 0.0432183743 0.0241841543 0.0531253517
v 0.0432183668 0.0324642062 0.0531253517
v 0.0564240739 0.0324642062 0.0121093756
v 0.0564240739 0.0241841543 0.0121093756
v 0.0404588059 0.0352237746 0.0531253517
v 0.0376421139 0.0352237746 0.00606225105
v 0.0537973046 0.0352237746 0.011263649
v 0.0279523768 0.0352237746 0.0361534841
v 0.0144790253 0.0352237746 0.0531253517
v 0.0144790253 0.0352237746 0.0361534841
v 0.0259496868 0.0324642062 0.0333939232
v 0.0259496868 0.0241841543 0.0333939232
v 0.0350153409 0.0241841543 0.00521651749
v 0.0350153409 0.0324642062 0.00521651749
v 0.0279523768 0.021424599 0.0361534841
v 0.0537973046 0.021424599 0.011263649
v 0.0376421139 0.021424599 0.00606225105
v 0.0404588133 0.021424599 0.0531253517
v 0.0144790253 0.021424599 0.0361534841
v 0.0144790253 0.021424599 0.0531253517
v 0.0546430163 0.0241841543 0.00863687694
v 0.0546430163 0.0324642062 0.00863687694
v 0.0384878404 0.0324642062 0.00343548227
v 0.0384878404 0.0241841543 0.00343548227
v 0.0144790253 0.021424599 0.0531253517
v 0.0144790253 0.021424599 0.0361534841
v 0.0117194653 0.0241841543 0.0361534841
v 0.0117194653 0.0241841543 0.0531253517
v 0.0144790253 0.0241841543 0.0558849126
v 0.0404588133 0.0241841543 0.0558849126
v 0.0404588133 0.021424599 0.0531253517
v 0.0144790253 0.021424599 0.0531253517
v 0.0117194653 0.0241841543 0.0531253517
v 0.0117194653 0.0324642062 0.0531253517
v 0.0144790253 0.0324642062 0.0558849126
v 0.0144790253 0.0241841543 0.0558849126
v 0.0404588133 0.0241841543 0.0558849126
v 0.0404588133 0.0324642062 0.0558849126
v 0.0432183668 0.0324642062 0.0531253517
v 0.0432183743 0.0241841543 0.0531253517
v 0.0117194653 0.0324642062 0.0531253517
v 0.0117194653 0.0324642062 0.0361534841
v 0.0144790253 0.0352237746 0.0361534841
v 0.0144790253 0.0352237746 0.0531253517
v 0.0144790253 0.0352237746 0.0531253517
v 0.0404588059 0.0352237746 0.0531253517
v 0.0404588133 0.0324642062 0.0558849126
v 0.0144790253 0.0324642062 0.0558849126
v 0.0144790253 0.0324642062 0.0333939232
v 0.0259496868 0.0324642062 0.0333939232
v 0.0279523768 0.0352237746 0.0361534841
v 0.0144790253 0.0352237746 0.0361534841
v 0.0144790253 0.021424599 0.0361534841
v 0.0279523768 0.021424599 0.0361534841
v 0.0259496868 0.0241841543 0.0333939232
v 0.0144790253 0.0241841543 0.0333939232
v 0.0144790253 0.0241841543 0.0558849126
v 0.0144790253 0.0324642062 0.0558849126
v 0.0404588133 0.0324642062 0.0558849126
v 0.0404588133 0.0241841543 0.0558849126
v 0.0144790253 0.0324642062 0.0333939232
v 0.0144790253 0.0241841543 0.0333939232
v 0.0259496868 0.0241841543 0.0333939232
v 0.0259496868 0.0324642062 0.0333939232
v 0.0117194653 0.0241841543 0.0361534841
v 0.0117194653 0.0324642062 0.0361534841
v 0.0117194653 0.0324642062 0.0531253517
v 0.0117194653 0.0241841543 0.0531253517
v 0.0404588133 0.00627572509 0.0531253517
v 0.0432183743 0.00903528184 0.0531253517
v 0.0537973046 0.00627572509 0.011263649
v 0.0564240739 0.00903528184 0.0121093756
v 0.0546430163 0.00903528184 0.00863687694
v 0.0384878404 0.00903528184 0.00343548227
v 0.0376421139 0.00627572509 0.00606225105
v 0.0537973046 0.00627572509 0.011263649
v 0.0564240739 0.00903528184 0.0121093756
v 0.0564240739 0.0173153356 0.0121093756
v 0.0546430163 0.0173153356 0.00863687694
v 0.0546430163 0.00903528184 0.00863687694
v 0.0404588059 0.0200749002 0.0531253517
v 0.0537973046 0.0200749002 0.011263649
v 0.0432183668 0.0173153356 0.0531253517
v 0.0564240739 0.0173153356 0.0121093756
v 0.0537973046 0.0200749002 0.011263649
v 0.0376421139 0.0200749002 0.00606225105
v 0.0384878404 0.0173153356 0.00343548227
v 0.0546430163 0.0173153356 0.00863687694
v 0.0279523768 0.0200749002 0.0361534841
v 0.0259496868 0.0173153356 0.0333939232
v 0.0376421139 0.0200749002 0.00606225105
v 0.0350153409 0.0173153356 0.00521651749
v 0.0350153409 0.0173153356 0.00521651749
v 0.0350153409 0.00903528184 0.00521651749
v 0.0384878404 0.00903528184 0.00343548227
v 0.0384878404 0.0173153356 0.00343548227
v 0.0279523768 0.00627572509 0.0361534841
v 0.0376421139 0.00627572509 0.00606225105
v 0.0259496868 0.00903528184 0.0333939232
v 0.0350153409 0.00903528184 0.00521651749
v 0.0432183743 0.00903528184 0.0531253517
v 0.0432183668 0.0173153356 0.0531253517
v 0.0564240739 0.0173153356 0.0121093756
v 0.0564240739 0.00903528184 0.0121093756
v 0.0404588059 0.0200749002 0.0531253517
v 0.0376421139 0.0200749002 0.00606225105
v 0.0537973046 0.0200749002 0.011263649
v 0.0279523768 0.0200749002 0.0361534841
v 0.0144790253 0.0200749002 0.0531253517
v 0.0144790253 0.0200749002 0.0361534841
v 0.0259496868 0.0173153356 0.0333939232
v 0.0259496868 0.00903528184 0.0333939232
v 0.0350153409 0.00903528184 0.00521651749
v 0.0350153409 0.0173153356 0.00521651749
v 0.0279523768 0.00627572509 0.0361534841
v 0.0537973046 0.00627572509 0.011263649
v 0.0376421139 0.00627572509 0.00606225105
v 0.0404588133 0.00627572509 0.0531253517
v 0.0144790253 0.00627572509 0.0361534841
v 0.0144790253 0.00627572509 0.0531253517
v 0.0546430163 0.00903528184 0.00863687694
v 0.0546430163 0.0173153356 0.00863687694
v 0.0384878404 0.0173153356 0.00343548227
v 0.0384878404 0.00903528184 0.00343548227
v 0.0144790253 0.00627572509 0.0531253517
v 0.0144790253 0.00627572509 0.0361534841
v 0.0117194653 0.00903528184 0.0361534841
v 0.0117194653 0.00903528184 0.0531253517
v 0.0144790253 0.00903528184 0.0558849126
v 0.0404588133 0.00903528184 0.0558849126
v 0.0404588133 0.00627572509 0.0531253517
v 0.0144790253 0.00627572509 0.0531253517
v 0.0117194653 0.00903528184 0.0531253517
v 0.0117194653 0.0173153356 0.0531253517
v 0.0144790253 0.0173153356 0.0558849126
v 0.0144790253 0.00903528184 0.0558849126
v 0.0404588133 0.00903528184 0.0558849126
v 0.0404588133 0.0173153356 0.0558849126
v 0.0432183668 0.0173153356 0.0531253517
v 0.0432183743 0.00903528184 0.0531253517
v 0.0117194653 0.0173153356 0.0531253517
v 0.0117194653 0.0173153356 0.0361534841
v 0.0144790253 0.0200749002 0.0361534841
v 0.0144790253 0.0200749002 0.0531253517
v 0.0144790253 0.0200749002 0.0531253517
v 0.0404588059 0.0200749002 0.0531253517
v 0.0404588133 0.0173153356 0.0558849126
v 0.0144790253 0.0173153356 0.0558849126
v 0.0144790253 0.0173153356 0.0333939232
v 0.0259496868 0.0173153356 0.0333939232
v 0.0279523768 0.0200749002 0.0361534841
v 0.0144790253 0.0200749002 0.0361534841
v 0.0144790253 0.00627572509 0.0361534841
v 0.0279523768 0.00627572509 0.0361534841
v 0.0259496868 0.00903528184 0.0333939232
v 0.0144790253 0.00903528184 0.0333939232
v 0.0144790253 0.00903528184 0.0558849126
v 0.0144790253 0.0173153356 0.0558849126
v 0.0404588133 0.0173153356 0.0558849126
v 0.0404588133 0.00903528184 0.0558849126
v 0.0144790253 0.0173153356 0.0333939232
v 0.0144790253 0.00903528184 0.0333939232
v 0.0259496868 0.00903528184 0.0333939232
v 0.0259496868 0.0173153356 0.0333939232
v 0.0117194653 0.00903528184 0.0361534841
v 0.0117194653 0.0173153356 0.0361534841
v 0.0117194653 0.0173153356 0.0531253517
v 0.0117194653 0.00903528184 0.0531253517
vt 0.675292969 0.720703125
vt 0.675292969 0.740234375
vt 0.694824219 0.740234375
vt 0.675292969 0.771972656
vt 0.675292969 0.791503906
vt 0.694824219 0.771972656
vt 0.606445312 0.771972656
vt 0.586914062 0.771972656
vt 0.606445312 0.791503906
vt 0.606445312 0.740234375
vt 0.606445312 0.720703125
vt 0.586914062 0.740234375
vt 0.0236206055 0.985351562
vt 0.0374450684 0.961425781
vt 0.00975799561 0.961425781
vt 0.00975799561 0.194335938
vt 0.0374450684 0.194335938
vt 0.0236206055 0.170288086
vt 0.0374450684 0.684082031
vt 0.0236206055 0.66015625
vt 0.00975799561 0.684082031
vt 0.0374450684 0.471679688
vt 0.00975799561 0.471679688
vt 0.0236206055 0.495849609
vt 0.414794922 0.684082031
vt 0.442382812 0.684082031
vt 0.428466797 0.66015625
vt 0.442382812 0.471679688
vt 0.414794922 0.471679688
vt 0.428466797 0.495849609
vt 0.414794922 0.961425781
vt 0.428466797 0.985351562
vt 0.442382812 0.961425781
vt 0.428466797 0.170288086
vt 0.414794922 0.194335938
vt 0.442382812 0.194335938
vt 0.874511719 0.00975799561
vt 0.870117188 0.0258178711
vt 0.854980469 0.0192260742
vt 0.870117188 0.0258178711
vt 0.874511719 0.00975799561
vt 0.854980469 0.0192260742
vt 0.954589844 0.0555114746
vt 0.945800781 0.0359802246
vt 0.938476562 0.0507507324
vt 0.938476562 0.0507507324
vt 0.945800781 0.0359802246
vt 0.954589844 0.0555114746
vt 0.88671875 0.274414062
vt 0.897460938 0.286621094
vt 0.876464844 0.287841797
vt 0.788574219 0.193725586
vt 0.802734375 0.202392578
vt 0.791503906 0.214355469
vt 0.897460938 0.286621094
vt 0.88671875 0.274414062
vt 0.876464844 0.287841797
vt 0.802734375 0.202392578
vt 0.788574219 0.193725586
vt 0.791503906 0.214355469
vt 0.874511719 0.00975799561
vt 0.870117188 0.0258178711
vt 0.854980469 0.0192260742
vt 0.870117188 0.0258178711
vt 0.874511719 0.00975799561
vt 0.854980469 0.0192260742
vt 0.954589844 0.0555114746
vt 0.945800781 0.0359802246
vt 0.938476562 0.0507507324
vt 0.938476562 0.0507507324
vt 0.945800781 0.0359802246
vt 0.954589844 0.0555114746
vt 0.88671875 0.274414062
vt 0.897460938 0.286621094
vt 0.876464844 0.287841797
vt 0.788574219 0.193725586
vt 0.802734375 0.202392578
vt 0.791503906 0.214355469
vt 0.897460938 0.286621094
vt 0.88671875 0.274414062
vt 0.876464844 0.287841797
vt 0.802734375 0.202392578
vt 0.788574219 0.193725586
vt 0.791503906 0.214355469
vt 0.874511719 0.00975799561
vt 0.870117188 0.0258178711
vt 0.854980469 0.0192260742
vt 0.870117188 0.0258178711
vt 0.874511719 0.00975799561
vt 0.854980469 0.0192260742
vt 0.954589844 0.0555114746
vt 0.945800781 0.0359802246
vt 0.938476562 0.0507507324
vt 0.938476562 0.0507507324
vt 0.945800781 0.0359802246
vt 0.954589844 0.0555114746
vt 0.88671875 0.274414062
vt 0.897460938 0.286621094
vt 0.876464844 0.287841797
vt 0.788574219 0.193725586
vt 0.802734375 0.202392578
vt 0.791503906 0.214355469
vt 0.897460938 0.286621094
vt 0.88671875 0.274414062
vt 0.876464844 0.287841797
vt 0.802734375 0.202392578
vt 0.788574219 0.193725586
vt 0.791503906 0.214355469
vt 0.874511719 0.00975799561
vt 0.870117188 0.0258178711
vt 0.854980469 0.0192260742
vt 0.870117188 0.0258178711
vt 0.874511719 0.00975799561
vt 0.854980469 0.0192260742
vt 0.954589844 0.0555114746
vt 0.945800781 0.0359802246
vt 0.938476562 0.0507507324
vt 0.938476562 0.0507507324
vt 0.945800781 0.0359802246
vt 0.954589844 0.0555114746
vt 0.88671875 0.274414062
vt 0.897460938 0.286621094
vt 0.876464844 0.287841797
vt 0.788574219 0.193725586
vt 0.802734375 0.202392578
vt 0.791503906 0.214355469
vt 0.897460938 0.286621094
vt 0.88671875 0.274414062
vt 0.876464844 0.287841797
vt 0.802734375 0.202392578
vt 0.788574219 0.193725586
vt 0.791503906 0.214355469
vt 0.675292969 0.720703125
vt 0.606445312 0.720703125
vt 0.606445312 0.740234375
vt 0.675292969 0.740234375
vt 0.473632812 0.532714844
vt 0.473632812 0.352294922
vt 0.452636719 0.352294922
vt 0.452636719 0.532714844
vt 0.675292969 0.740234375
vt 0.675292969 0.771972656
vt 0.694824219 0.771972656
vt 0.694824219 0.740234375
vt 0.675292969 0.771972656
vt 0.606445312 0.771972656
vt 0.606445312 0.791503906
vt 0.675292969 0.791503906
vt 0.524414062 0.532714844
vt 0.524414062 0.352294922
vt 0.503417969 0.352294922
vt 0.503417969 0.532714844
vt 0.606445312 0.771972656
vt 0.606445312 0.740234375
vt 0.586914062 0.740234375
vt 0.586914062 0.771972656
vt 0.61328125 0.532714844
vt 0.61328125 0.352294922
vt 0.591796875 0.352294922
vt 0.591796875 0.532714844
vt 0.6640625 0.532714844
vt 0.6640625 0.352294922
vt 0.643066406 0.352294922
vt 0.643066406 0.532714844
vt 0.473632812 0.532714844
vt 0.503417969 0.532714844
vt 0.503417969 0.352294922
vt 0.473632812 0.352294922
vt 0.524414062 0.532714844
vt 0.591796875 0.532714844
vt 0.591796875 0.352294922
vt 0.524414062 0.352294922
vt 0.61328125 0.532714844
vt 0.643066406 0.532714844
vt 0.643066406 0.352294922
vt 0.61328125 0.352294922
vt 0.6640625 0.532714844
vt 0.731445312 0.532714844
vt 0.731445312 0.352294922
vt 0.6640625 0.352294922
vt 0.606445312 0.740234375
vt 0.606445312 0.771972656
vt 0.675292969 0.771972656
vt 0.675292969 0.740234375
vt 0.0374450684 0.989257812
vt 0.414794922 0.989257812
vt 0.414794922 0.961425781
vt 0.0374450684 0.961425781
vt 0.452636719 0.0374755859
vt 0.609375 0.0374755859
vt 0.609375 0.00975799561
vt 0.452636719 0.00975799561
vt 0.0374450684 0.961425781
vt 0.0374450684 0.684082031
vt 0.00975799561 0.684082031
vt 0.00975799561 0.961425781
vt 0.00975799561 0.194335938
vt 0.00975799561 0.471679688
vt 0.0374450684 0.471679688
vt 0.0374450684 0.194335938
vt 0.0374450684 0.194335938
vt 0.414794922 0.194335938
vt 0.414794922 0.166625977
vt 0.0374450684 0.166625977
vt 0.0374450684 0.684082031
vt 0.414794922 0.684082031
vt 0.414794922 0.65625
vt 0.0374450684 0.65625
vt 0.452636719 0.342529297
vt 0.609375 0.342529297
vt 0.609375 0.314941406
vt 0.452636719 0.314941406
vt 0.0374450684 0.499511719
vt 0.414794922 0.499511719
vt 0.414794922 0.471679688
vt 0.0374450684 0.471679688
vt 0.414794922 0.684082031
vt 0.414794922 0.961425781
vt 0.442382812 0.961425781
vt 0.442382812 0.684082031
vt 0.77734375 0.314941406
vt 0.620605469 0.314941406
vt 0.620605469 0.342529297
vt 0.77734375 0.342529297
vt 0.442382812 0.471679688
vt 0.442382812 0.194335938
vt 0.414794922 0.194335938
vt 0.414794922 0.471679688
vt 0.77734375 0.00975799561
vt 0.620605469 0.00975799561
vt 0.620605469 0.0374755859
vt 0.77734375 0.0374755859
vt 0.452636719 0.314941406
vt 0.609375 0.314941406
vt 0.609375 0.0374755859
vt 0.452636719 0.0374755859
vt 0.0374450684 0.65625
vt 0.414794922 0.65625
vt 0.414794922 0.499511719
vt 0.0374450684 0.499511719
vt 0.414794922 0.00975799561
vt 0.0374450684 0.00975799561
vt 0.0374450684 0.166625977
vt 0.414794922 0.166625977
vt 0.0374450684 0.194335938
vt 0.0374450684 0.471679688
vt 0.414794922 0.471679688
vt 0.414794922 0.194335938
vt 0.414794922 0.961425781
vt 0.414794922 0.684082031
vt 0.0374450684 0.684082031
vt 0.0374450684 0.961425781
vt 0.77734375 0.314941406
vt 0.77734375 0.0374755859
vt 0.620605469 0.0374755859
vt 0.620605469 0.314941406
vt 0.802734375 0.202392578
vt 0.788574219 0.193725586
vt 0.870117188 0.0258178711
vt 0.854980469 0.0192260742
vt 0.874511719 0.00975799561
vt 0.945800781 0.0359802246
vt 0.938476562 0.0507507324
vt 0.870117188 0.0258178711
vt 0.8828125 0.583984375
vt 0.918457031 0.583984375
vt 0.918457031 0.566894531
vt 0.8828125 0.566894531
vt 0.802734375 0.202392578
vt 0.870117188 0.0258178711
vt 0.788574219 0.193725586
vt 0.854980469 0.0192260742
vt 0.870117188 0.0258178711
vt 0.938476562 0.0507507324
vt 0.945800781 0.0359802246
vt 0.874511719 0.00975799561
vt 0.891601562 0.180053711
vt 0.910644531 0.176269531
vt 0.938476562 0.0507507324
vt 0.954589844 0.0555114746
vt 0.918457031 0.476806641
vt 0.8828125 0.476806641
vt 0.8828125 0.493896484
vt 0.918457031 0.493896484
vt 0.891601562 0.180053711
vt 0.938476562 0.0507507324
vt 0.910644531 0.176269531
vt 0.954589844 0.0555114746
vt 0.8828125 0.770019531
vt 0.918457031 0.770019531
vt 0.918457031 0.583984375
vt 0.8828125 0.583984375
vt 0.802734375 0.202392578
vt 0.938476562 0.0507507324
vt 0.870117188 0.0258178711
vt 0.891601562 0.180053711
vt 0.88671875 0.274414062
vt 0.935058594 0.221069336
vt 0.918457031 0.349121094
vt 0.8828125 0.349121094
vt 0.8828125 0.476806641
vt 0.918457031 0.476806641
vt 0.891601562 0.180053711
vt 0.870117188 0.0258178711
vt 0.938476562 0.0507507324
vt 0.802734375 0.202392578
vt 0.935058594 0.221069336
vt 0.88671875 0.274414062
vt 0.8828125 0.566894531
vt 0.918457031 0.566894531
vt 0.918457031 0.493896484
vt 0.8828125 0.493896484
vt 0.88671875 0.274414062
vt 0.935058594 0.221069336
vt 0.947753906 0.232543945
vt 0.897460938 0.286621094
vt 0.876464844 0.287841797
vt 0.791503906 0.214355469
vt 0.802734375 0.202392578
vt 0.88671875 0.274414062
vt 0.8828125 0.916015625
vt 0.918457031 0.916015625
vt 0.918457031 0.899414062
vt 0.8828125 0.899414062
vt 0.8828125 0.787109375
vt 0.918457031 0.787109375
vt 0.918457031 0.770019531
vt 0.8828125 0.770019531
vt 0.897460938 0.286621094
vt 0.947753906 0.232543945
vt 0.935058594 0.221069336
vt 0.88671875 0.274414062
vt 0.88671875 0.274414062
vt 0.802734375 0.202392578
vt 0.791503906 0.214355469
vt 0.876464844 0.287841797
vt 0.946777344 0.208740234
vt 0.910644531 0.176269531
vt 0.891601562 0.180053711
vt 0.935058594 0.221069336
vt 0.935058594 0.221069336
vt 0.891601562 0.180053711
vt 0.910644531 0.176269531
vt 0.946777344 0.208740234
vt 0.8828125 0.899414062
vt 0.918457031 0.899414062
vt 0.918457031 0.787109375
vt 0.8828125 0.787109375
vt 0.918457031 0.299560547
vt 0.8828125 0.299560547
vt 0.8828125 0.349121094
vt 0.918457031 0.349121094
vt 0.8828125 0.989746094
vt 0.918457031 0.989746094
vt 0.918457031 0.916015625
vt 0.8828125 0.916015625
vt 0.688964844 0.542480469
vt 0.591796875 0.542480469
vt 0.591796875 0.708984375
vt 0.688964844 0.708984375
vt 0.747070312 0.519042969
vt 0.84375 0.519042969
vt 0.84375 0.352294922
vt 0.747070312 0.352294922
vt 0.705078125 0.565429688
vt 0.705078125 0.782714844
vt 0.869628906 0.7578125
vt 0.869628906 0.591308594
vt 0.869628906 0.591308594
vt 0.869628906 0.7578125
vt 0.705078125 0.782714844
vt 0.705078125 0.565429688
vt 0.58203125 0.559082031
vt 0.565917969 0.542480469
vt 0.468994141 0.542480469
vt 0.452636719 0.559082031
vt 0.58203125 0.725585938
vt 0.452636719 0.725585938
vt 0.468994141 0.7421875
vt 0.565917969 0.7421875
vt 0.705078125 0.782714844
vt 0.869628906 0.7578125
vt 0.869628906 0.78125
vt 0.705078125 0.806152344
vt 0.705078125 0.806152344
vt 0.869628906 0.78125
vt 0.869628906 0.7578125
vt 0.705078125 0.782714844
vt 0.705078125 0.542480469
vt 0.869628906 0.567871094
vt 0.869628906 0.591308594
vt 0.705078125 0.565429688
vt 0.705078125 0.565429688
vt 0.869628906 0.591308594
vt 0.869628906 0.567871094
vt 0.705078125 0.542480469
vt 0.802734375 0.202392578
vt 0.788574219 0.193725586
vt 0.870117188 0.0258178711
vt 0.854980469 0.0192260742
vt 0.874511719 0.00975799561
vt 0.945800781 0.0359802246
vt 0.938476562 0.0507507324
vt 0.870117188 0.0258178711
vt 0.8828125 0.583984375
vt 0.918457031 0.583984375
vt 0.918457031 0.566894531
vt 0.8828125 0.566894531
vt 0.802734375 0.202392578
vt 0.870117188 0.0258178711
vt 0.788574219 0.193725586
vt 0.854980469 0.0192260742
vt 0.870117188 0.0258178711
vt 0.938476562 0.0507507324
vt 0.945800781 0.0359802246
vt 0.874511719 0.00975799561
vt 0.891601562 0.180053711
vt 0.910644531 0.176269531
vt 0.938476562 0.0507507324
vt 0.954589844 0.0555114746
vt 0.918457031 0.476806641
vt 0.8828125 0.476806641
vt 0.8828125 0.493896484
vt 0.918457031 0.493896484
vt 0.891601562 0.180053711
vt 0.938476562 0.0507507324
vt 0.910644531 0.176269531
vt 0.954589844 0.0555114746
vt 0.8828125 0.770019531
vt 0.918457031 0.770019531
vt 0.918457031 0.583984375
vt 0.8828125 0.583984375
vt 0.802734375 0.202392578
vt 0.938476562 0.0507507324
vt 0.870117188 0.0258178711
vt 0.891601562 0.180053711
vt 0.88671875 0.274414062
vt 0.935058594 0.221069336
vt 0.918457031 0.349121094
vt 0.8828125 0.349121094
vt 0.8828125 0.476806641
vt 0.918457031 0.476806641
vt 0.891601562 0.180053711
vt 0.870117188 0.0258178711
vt 0.938476562 0.0507507324
vt 0.802734375 0.202392578
vt 0.935058594 0.221069336
vt 0.88671875 0.274414062
vt 0.8828125 0.566894531
vt 0.918457031 0.566894531
vt 0.918457031 0.493896484
vt 0.8828125 0.493896484
vt 0.88671875 0.274414062
vt 0.935058594 0.221069336
vt 0.947753906 0.232543945
vt 0.897460938 0.286621094
vt 0.876464844 0.287841797
vt 0.791503906 0.214355469
vt 0.802734375 0.202392578
vt 0.88671875 0.274414062
vt 0.8828125 0.916015625
vt 0.918457031 0.916015625
vt 0.918457031 0.899414062
vt 0.8828125 0.899414062
vt 0.8828125 0.787109375
vt 0.918457031 0.787109375
vt 0.918457031 0.770019531
vt 0.8828125 0.770019531
vt 0.897460938 0.286621094
vt 0.947753906 0.232543945
vt 0.935058594 0.221069336
vt 0.88671875 0.274414062
vt 0.88671875 0.274414062
vt 0.802734375 0.202392578
vt 0.791503906 0.214355469
vt 0.876464844 0.287841797
vt 0.946777344 0.208740234
vt 0.910644531 0.176269531
vt 0.891601562 0.180053711
vt 0.935058594 0.221069336
vt 0.935058594 0.221069336
vt 0.891601562 0.180053711
vt 0.910644531 0.176269531
vt 0.946777344 0.208740234
vt 0.8828125 0.899414062
vt 0.918457031 0.899414062
vt 0.918457031 0.787109375
vt 0.8828125 0.787109375
vt 0.918457031 0.299560547
vt 0.8828125 0.299560547
vt 0.8828125 0.349121094
vt 0.918457031 0.349121094
vt 0.8828125 0.989746094
vt 0.918457031 0.989746094
vt 0.918457031 0.916015625
vt 0.8828125 0.916015625
vt 0.802734375 0.202392578
vt 0.788574219 0.193725586
vt 0.870117188 0.0258178711
vt 0.854980469 0.0192260742
vt 0.874511719 0.00975799561
vt 0.945800781 0.0359802246
vt 0.938476562 0.0507507324
vt 0.870117188 0.0258178711
vt 0.8828125 0.583984375
vt 0.918457031 0.583984375
vt 0.918457031 0.566894531
vt 0.8828125 0.566894531
vt 0.802734375 0.202392578
vt 0.870117188 0.0258178711
vt 0.788574219 0.193725586
vt 0.854980469 0.0192260742
vt 0.870117188 0.0258178711
vt 0.938476562 0.0507507324
vt 0.945800781 0.0359802246
vt 0.874511719 0.00975799561
vt 0.891601562 0.180053711
vt 0.910644531 0.176269531
vt 0.938476562 0.0507507324
vt 0.954589844 0.0555114746
vt 0.918457031 0.476806641
vt 0.8828125 0.476806641
vt 0.8828125 0.493896484
vt 0.918457031 0.493896484
vt 0.891601562 0.180053711
vt 0.938476562 0.0507507324
vt 0.910644531 0.176269531
vt 0.954589844 0.0555114746
vt 0.8828125 0.770019531
vt 0.918457031 0.770019531
vt 0.918457031 0.583984375
vt 0.8828125 0.583984375
vt 0.802734375 0.202392578
vt 0.938476562 0.0507507324
vt 0.870117188 0.0258178711
vt 0.891601562 0.180053711
vt 0.88671875 0.274414062
vt 0.935058594 0.221069336
vt 0.918457031 0.349121094
vt 0.8828125 0.349121094
vt 0.8828125 0.476806641
vt 0.918457031 0.476806641
vt 0.891601562 0.180053711
vt 0.870117188 0.0258178711
vt 0.938476562 0.0507507324
vt 0.802734375 0.202392578
vt 0.935058594 0.221069336
vt 0.88671875 0.274414062
vt 0.8828125 0.566894531
vt 0.918457031 0.566894531
vt 0.918457031 0.493896484
vt 0.8828125 0.493896484
vt 0.88671875 0.274414062
vt 0.935058594 0.221069336
vt 0.947753906 0.232543945
vt 0.897460938 0.286621094
vt 0.876464844 0.287841797
vt 0.791503906 0.214355469
vt 0.802734375 0.202392578
vt 0.88671875 0.274414062
vt 0.8828125 0.916015625
vt 0.918457031 0.916015625
vt 0.918457031 0.899414062
vt 0.8828125 0.899414062
vt 0.8828125 0.787109375
vt 0.918457031 0.787109375
vt 0.918457031 0.770019531
vt 0.8828125 0.770019531
vt 0.897460938 0.286621094
vt 0.947753906 0.232543945
vt 0.935058594 0.221069336
vt 0.88671875 0.274414062
vt 0.88671875 0.274414062
vt 0.802734375 0.202392578
vt 0.791503906 0.214355469
vt 0.876464844 0.287841797
vt 0.946777344 0.208740234
vt 0.910644531 0.176269531
vt 0.891601562 0.180053711
vt 0.935058594 0.221069336
vt 0.935058594 0.221069336
vt 0.891601562 0.180053711
vt 0.910644531 0.176269531
vt 0.946777344 0.208740234
vt 0.8828125 0.899414062
vt 0.918457031 0.899414062
vt 0.918457031 0.787109375
vt 0.8828125 0.787109375
vt 0.918457031 0.299560547
vt 0.8828125 0.299560547
vt 0.8828125 0.349121094
vt 0.918457031 0.349121094
vt 0.8828125 0.989746094
vt 0.918457031 0.989746094
vt 0.918457031 0.916015625
vt 0.8828125 0.916015625
vt 0.802734375 0.202392578
vt 0.788574219 0.193725586
vt 0.870117188 0.0258178711
vt 0.854980469 0.0192260742
vt 0.874511719 0.00975799561
vt 0.945800781 0.0359802246
vt 0.938476562 0.0507507324
vt 0.870117188 0.0258178711
vt 0.8828125 0.583984375
vt 0.918457031 0.583984375
vt 0.918457031 0.566894531
vt 0.8828125 0.566894531
vt 0.802734375 0.202392578
vt 0.870117188 0.0258178711
vt 0.788574219 0.193725586
vt 0.854980469 0.0192260742
vt 0.870117188 0.0258178711
vt 0.938476562 0.0507507324
vt 0.945800781 0.0359802246
vt 0.874511719 0.00975799561
vt 0.891601562 0.180053711
vt 0.910644531 0.176269531
vt 0.938476562 0.0507507324
vt 0.954589844 0.0555114746
vt 0.918457031 0.476806641
vt 0.8828125 0.476806641
vt 0.8828125 0.493896484
vt 0.918457031 0.493896484
vt 0.891601562 0.180053711
vt 0.938476562 0.0507507324
vt 0.910644531 0.176269531
vt 0.954589844 0.0555114746
vt 0.8828125 0.770019531
vt 0.918457031 0.770019531
vt 0.918457031 0.583984375
vt 0.8828125 0.583984375
vt 0.802734375 0.202392578
vt 0.938476562 0.0507507324
vt 0.870117188 0.0258178711
vt 0.891601562 0.180053711
vt 0.88671875 0.274414062
vt 0.935058594 0.221069336
vt 0.918457031 0.349121094
vt 0.8828125 0.349121094
vt 0.8828125 0.476806641
vt 0.918457031 0.476806641
vt 0.891601562 0.180053711
vt 0.870117188 0.0258178711
vt 0.938476562 0.0507507324
vt 0.802734375 0.202392578
vt 0.935058594 0.221069336
vt 0.88671875 0.274414062
vt 0.8828125 0.566894531
vt 0.918457031 0.566894531
vt 0.918457031 0.493896484
vt 0.8828125 0.493896484
vt 0.88671875 0.274414062
vt 0.935058594 0.221069336
vt 0.947753906 0.232543945
vt 0.897460938 0.286621094
vt 0.876464844 0.287841797
vt 0.791503906 0.214355469
vt 0.802734375 0.202392578
vt 0.88671875 0.274414062
vt 0.8828125 0.916015625
vt 0.918457031 0.916015625
vt 0.918457031 0.899414062
vt 0.8828125 0.899414062
vt 0.8828125 0.787109375
vt 0.918457031 0.787109375
vt 0.918457031 0.770019531
vt 0.8828125 0.770019531
vt 0.897460938 0.286621094
vt 0.947753906 0.232543945
vt 0.935058594 0.221069336
vt 0.88671875 0.274414062
vt 0.88671875 0.274414062
vt 0.802734375 0.202392578
vt 0.791503906 0.214355469
vt 0.876464844 0.287841797
vt 0.946777344 0.208740234
vt 0.910644531 0.176269531
vt 0.891601562 0.180053711
vt 0.935058594 0.221069336
vt 0.935058594 0.221069336
vt 0.891601562 0.180053711
vt 0.910644531 0.176269531
vt 0.946777344 0.208740234
vt 0.8828125 0.899414062
vt 0.918457031 0.899414062
vt 0.918457031 0.787109375
vt 0.8828125 0.787109375
vt 0.918457031 0.299560547
vt 0.8828125 0.299560547
vt 0.8828125 0.349121094
vt 0.918457031 0.349121094
vt 0.8828125 0.989746094
vt 0.918457031 0.989746094
vt 0.918457031 0.916015625
vt 0.8828125 0.916015625
vn 0.800292969 -0.577148438 -0.161499023
vn 0.800292969 -0.577148438 -0.161499023
vn 0.800292969 -0.577148438 -0.161499023
vn 0.800292969 0.577148438 -0.161499023
vn 0.800292969 0.577148438 -0.161499023
vn 0.800292969 0.577148438 -0.161499023
vn 0.161499023 0.577148438 0.800292969
vn 0.161499023 0.577148438 0.800292969
vn 0.161499023 0.577148438 0.800292969
vn 0.161499023 -0.577148438 0.800292969
vn 0.161499023 -0.577148438 0.800292969
vn 0.161499023 -0.577148438 0.800292969
vn -0.577148438 -0.577148438 0.577148438
vn -0.577148438 -0.577148438 0.577148438
vn -0.577148438 -0.577148438 0.577148438
vn 0.577148438 -0.577148438 0.577148438
vn 0.577148438 -0.577148438 0.577148438
vn 0.577148438 -0.577148438 0.577148438
vn -0.577148438 0.577148438 0.577148438
vn -0.577148438 0.577148438 0.577148438
vn -0.577148438 0.577148438 0.577148438
vn 0.577148438 0.577148438 0.577148438
vn 0.577148438 0.577148438 0.577148438
vn 0.577148438 0.577148438 0.577148438
vn -0.577148438 0.577148438 -0.577148438
vn -0.577148438 0.577148438 -0.577148438
vn -0.577148438 0.577148438 -0.577148438
vn 0.577148438 0.577148438 -0.577148438
vn 0.577148438 0.577148438 -0.577148438
vn 0.577148438 0.577148438 -0.577148438
vn -0.577148438 -0.577148438 -0.577148438
vn -0.577148438 -0.577148438 -0.577148438
vn -0.577148438 -0.577148438 -0.577148438
vn 0.577148438 -0.577148438 -0.577148438
vn 0.577148438 -0.577148438 -0.577148438
vn 0.577148438 -0.577148438 -0.577148438
vn 0.7265625 -0.577148438 -0.372558594
vn 0.7265625 -0.577148438 -0.372558594
vn 0.7265625 -0.577148438 -0.372558594
vn 0.7265625 0.577148438 -0.372558594
vn 0.7265625 0.577148438 -0.372558594
vn 0.7265625 0.577148438 -0.372558594
vn -0.372558594 0.577148438 -0.7265625
vn -0.372558594 0.577148438 -0.7265625
vn -0.372558594 0.577148438 -0.7265625
vn -0.372558594 -0.577148438 -0.7265625
vn -0.372558594 -0.577148438 -0.7265625
vn -0.372558594 -0.577148438 -0.7265625
vn -0.577148438 -0.577148438 0.577148438
vn -0.577148438 -0.577148438 0.577148438
vn -0.577148438 -0.577148438 0.577148438
vn 0.577148438 -0.577148438 0.577148438
vn 0.577148438 -0.577148438 0.577148438
vn 0.577148438 -0.577148438 0.577148438
vn -0.577148438 0.577148438 0.577148438
vn -0.577148438 0.577148438 0.577148438
vn -0.577148438 0.577148438 0.577148438
vn 0.577148438 0.577148438 0.577148438
vn 0.577148438 0.577148438 0.577148438
vn 0.577148438 0.577148438 0.577148438
vn 0.7265625 -0.577148438 -0.372558594
vn 0.7265625 -0.577148438 -0.372558594
vn 0.7265625 -0.577148438 -0.372558594
vn 0.7265625 0.577148438 -0.372558594
vn 0.7265625 0.577148438 -0.372558594
vn 0.7265625 0.577148438 -0.372558594
vn -0.372558594 0.577148438 -0.7265625
vn -0.372558594 0.577148438 -0.7265625
vn -0.372558594 0.577148438 -0.7265625
vn -0.372558594 -0.577148438 -0.7265625
vn -0.372558594 -0.577148438 -0.7265625
vn -0.372558594 -0.577148438 -0.7265625
vn -0.577148438 -0.577148438 0.577148438
vn -0.577148438 -0.577148438 0.577148438
vn -0.577148438 -0.577148438 0.577148438
vn 0.577148438 -0.577148438 0.577148438
vn 0.577148438 -0.577148438 0.577148438
vn 0.577148438 -0.577148438 0.577148438
vn -0.577148438 0.577148438 0.577148438
vn -0.577148438 0.577148438 0.577148438
vn -0.577148438 0.577148438 0.577148438
vn 0.577148438 0.577148438 0.577148438
vn 0.577148438 0.577148438 0.577148438
vn 0.577148438 0.577148438 0.577148438
vn 0.7265625 -0.577148438 -0.372558594
vn 0.7265625 -0.577148438 -0.372558594
vn 0.7265625 -0.577148438 -0.372558594
vn 0.7265625 0.577148438 -0.372558594
vn 0.7265625 0.577148438 -0.372558594
vn 0.7265625 0.577148438 -0.372558594
vn -0.372558594 0.577148438 -0.7265625
vn -0.372558594 0.577148438 -0.7265625
vn -0.372558594 0.577148438 -0.7265625
vn -0.372558594 -0.577148438 -0.7265625
vn -0.372558594 -0.577148438 -0.7265625
vn -0.372558594 -0.577148438 -0.7265625
vn -0.577148438 -0.577148438 0.577148438
vn -0.577148438 -0.577148438 0.577148438
vn -0.577148438 -0.577148438 0.577148438
vn 0.577148438 -0.577148438 0.577148438
vn 0.577148438 -0.577148438 0.577148438
vn 0.577148438 -0.577148438 0.577148438
vn -0.577148438 0.577148438 0.577148438
vn -0.577148438 0.577148438 0.577148438
vn -0.577148438 0.577148438 0.577148438
vn 0.577148438 0.577148438 0.577148438
vn 0.577148438 0.577148438 0.577148438
vn 0.577148438 0.577148438 0.577148438
vn 0.7265625 -0.577148438 -0.372558594
vn 0.7265625 -0.577148438 -0.372558594
vn 0.7265625 -0.577148438 -0.372558594
vn 0.7265625 0.577148438 -0.372558594
vn 0.7265625 0.577148438 -0.372558594
vn 0.7265625 0.577148438 -0.372558594
vn -0.372558594 0.577148438 -0.7265625
vn -0.372558594 0.577148438 -0.7265625
vn -0.372558594 0.577148438 -0.7265625
vn -0.372558594 -0.577148438 -0.7265625
vn -0.372558594 -0.577148438 -0.7265625
vn -0.372558594 -0.577148438 -0.7265625
vn -0.577148438 -0.577148438 0.577148438
vn -0.577148438 -0.577148438 0.577148438
vn -0.577148438 -0.577148438 0.577148438
vn 0.577148438 -0.577148438 0.577148438
vn 0.577148438 -0.577148438 0.577148438
vn 0.577148438 -0.577148438 0.577148438
vn -0.577148438 0.577148438 0.577148438
vn -0.577148438 0.577148438 0.577148438
vn -0.577148438 0.577148438 0.577148438
vn 0.577148438 0.577148438 0.577148438
vn 0.577148438 0.577148438 0.577148438
vn 0.577148438 0.577148438 0.577148438
vn 0.588867188 -0.70703125 0.391113281
vn 0.588867188 -0.70703125 0.391113281
vn 0.588867188 -0.70703125 0.391113281
vn 0.588867188 -0.70703125 0.391113281
vn 0.391113281 -0.70703125 -0.588867188
vn 0.391113281 -0.70703125 -0.588867188
vn 0.391113281 -0.70703125 -0.588867188
vn 0.391113281 -0.70703125 -0.588867188
vn 0.98046875 0 -0.197753906
vn 0.98046875 0 -0.197753906
vn 0.98046875 0 -0.197753906
vn 0.98046875 0 -0.197753906
vn 0.588867188 0.70703125 0.391113281
vn 0.588867188 0.70703125 0.391113281
vn 0.588867188 0.70703125 0.391113281
vn 0.588867188 0.70703125 0.391113281
vn 0.391113281 0.70703125 -0.588867188
vn 0.391113281 0.70703125 -0.588867188
vn 0.391113281 0.70703125 -0.588867188
vn 0.391113281 0.70703125 -0.588867188
vn 0.197753906 0 0.98046875
vn 0.197753906 0 0.98046875
vn 0.197753906 0 0.98046875
vn 0.197753906 0 0.98046875
vn -0.391113281 0.70703125 0.588867188
vn -0.391113281 0.70703125 0.588867188
vn -0.391113281 0.70703125 0.588867188
vn -0.391113281 0.70703125 0.588867188
vn -0.391113281 -0.70703125 0.588867188
vn -0.391113281 -0.70703125 0.588867188
vn -0.391113281 -0.70703125 0.588867188
vn -0.391113281 -0.70703125 0.588867188
vn 0.553222656 0 -0.833007812
vn 0.553222656 0 -0.833007812
vn 0.553222656 0 -0.833007812
vn 0.553222656 0 -0.833007812
vn -0 1 -1.1920929E-07
vn -0 1 -1.1920929E-07
vn -0 1 -1.1920929E-07
vn -0 1 -1.1920929E-07
vn -0.553222656 0 0.833007812
vn -0.553222656 0 0.833007812
vn -0.553222656 0 0.833007812
vn -0.553222656 0 0.833007812
vn -0 -1 5.96046448E-08
vn -0 -1 5.96046448E-08
vn -0 -1 5.96046448E-08
vn -0 -1 5.96046448E-08
vn 0.833007812 0 0.553222656
vn 0.833007812 0 0.553222656
vn 0.833007812 0 0.553222656
vn 0.833007812 0 0.553222656
vn -0.70703125 -0.70703125 0
vn -0.70703125 -0.70703125 0
vn -0.70703125 -0.70703125 0
vn -0.70703125 -0.70703125 0
vn -0 -0.70703125 0.70703125
vn -0 -0.70703125 0.70703125
vn -0 -0.70703125 0.70703125
vn -0 -0.70703125 0.70703125
vn -0.70703125 0 0.70703125
vn -0.70703125 0 0.70703125
vn -0.70703125 0 0.70703125
vn -0.70703125 0 0.70703125
vn 0.70703125 0 0.70703125
vn 0.70703125 0 0.70703125
vn 0.70703125 0 0.70703125
vn 0.70703125 0 0.70703125
vn 0.70703125 -0.70703125 0
vn 0.70703125 -0.70703125 0
vn 0.70703125 -0.70703125 0
vn 0.70703125 -0.70703125 0
vn -0.70703125 0.70703125 0
vn -0.70703125 0.70703125 0
vn -0.70703125 0.70703125 0
vn -0.70703125 0.70703125 0
vn -0 0.70703125 0.70703125
vn -0 0.70703125 0.70703125
vn -0 0.70703125 0.70703125
vn -0 0.70703125 0.70703125
vn 0.70703125 0.70703125 0
vn 0.70703125 0.70703125 0
vn 0.70703125 0.70703125 0
vn 0.70703125 0.70703125 0
vn -0.70703125 0 -0.70703125
vn -0.70703125 0 -0.70703125
vn -0.70703125 0 -0.70703125
vn -0.70703125 0 -0.70703125
vn -0 0.70703125 -0.70703125
vn -0 0.70703125 -0.70703125
vn -0 0.70703125 -0.70703125
vn -0 0.70703125 -0.70703125
vn 0.70703125 0 -0.70703125
vn 0.70703125 0 -0.70703125
vn 0.70703125 0 -0.70703125
vn 0.70703125 0 -0.70703125
vn -0 -0.70703125 -0.70703125
vn -0 -0.70703125 -0.70703125
vn -0 -0.70703125 -0.70703125
vn -0 -0.70703125 -0.70703125
vn -0 0 1
vn -0 0 1
vn -0 0 1
vn -0 0 1
vn -0 1 0
vn -0 1 0
vn -0 1 0
vn -0 1 0
vn -0 -1 0
vn -0 -1 0
vn -0 -1 0
vn -0 -1 0
vn 1 0 0
vn 1 0 0
vn 1 0 0
vn 1 0 0
vn -1 0 0
vn -1 0 0
vn -1 0 0
vn -1 0 0
vn -0 0 -1
vn -0 0 -1
vn -0 0 -1
vn -0 0 -1
vn 0.689941406 -0.689941406 0.219848633
vn 0.688964844 -0.690917969 0.219604492
vn 0.673828125 -0.706054688 0.216918945
vn 0.672851562 -0.70703125 0.216674805
vn 0.216674805 -0.70703125 -0.672851562
vn 0.216674805 -0.70703125 -0.672851562
vn 0.216674805 -0.70703125 -0.672851562
vn 0.216674805 -0.70703125 -0.672851562
vn 0.889648438 0 -0.456298828
vn 0.889648438 0 -0.456298828
vn 0.889648438 0 -0.456298828
vn 0.889648438 0 -0.456298828
vn 0.689941406 0.689941406 0.219848633
vn 0.673828125 0.706054688 0.216918945
vn 0.688964844 0.690917969 0.219604492
vn 0.672851562 0.70703125 0.216674805
vn 0.216674805 0.70703125 -0.672851562
vn 0.216674805 0.70703125 -0.672851562
vn 0.216674805 0.70703125 -0.672851562
vn 0.216674805 0.70703125 -0.672851562
vn -0.673828125 0.706054688 -0.217041016
vn -0.673828125 0.706054688 -0.217041016
vn -0.673339844 0.70703125 -0.216552734
vn -0.673339844 0.70703125 -0.216552734
vn -0.456298828 0 -0.889648438
vn -0.456298828 0 -0.889648438
vn -0.456298828 0 -0.889648438
vn -0.456298828 0 -0.889648438
vn -0.673828125 -0.706054688 -0.217041016
vn -0.673339844 -0.70703125 -0.216552734
vn -0.673828125 -0.706054688 -0.217041016
vn -0.673339844 -0.70703125 -0.216552734
vn 0.951660156 0 0.306396484
vn 0.951660156 0 0.306396484
vn 0.951660156 0 0.306396484
vn 0.951660156 0 0.306396484
vn -0 1 -1.1920929E-07
vn -0 1 -1.1920929E-07
vn -0 1 -1.1920929E-07
vn -0 1 -1.1920929E-07
vn -0 1 2.98023224E-07
vn -0 1 2.98023224E-07
vn -0.952148438 0 -0.306152344
vn -0.952148438 0 -0.306152344
vn -0.952148438 0 -0.306152344
vn -0.952148438 0 -0.306152344
vn -0 -1 0
vn -0 -1 0
vn -0 -1 0
vn -0 -1 0
vn -0 -1 0
vn -0 -1 0
vn 0.306396484 0 -0.951660156
vn 0.306396484 0 -0.951660156
vn 0.306396484 0 -0.951660156
vn 0.306396484 0 -0.951660156
vn -0.70703125 -0.70703125 0
vn -0.70703125 -0.70703125 0
vn -0.70703125 -0.70703125 0
vn -0.70703125 -0.70703125 0
vn -0 -0.70703125 0.70703125
vn -0 -0.70703125 0.70703125
vn -0 -0.70703125 0.70703125
vn -0 -0.70703125 0.70703125
vn -0.70703125 0 0.70703125
vn -0.70703125 0 0.70703125
vn -0.70703125 0 0.70703125
vn -0.70703125 0 0.70703125
vn 0.70703125 3.57627869E-07 0.70703125
vn 0.70703125 3.57627869E-07 0.70703125
vn 0.70703125 3.57627869E-07 0.70703125
vn 0.70703125 3.57627869E-07 0.70703125
vn -0.70703125 0.70703125 0
vn -0.70703125 0.70703125 0
vn -0.70703125 0.70703125 0
vn -0.70703125 0.70703125 0
vn -0 0.70703125 0.70703125
vn -0 0.70703125 0.70703125
vn -0 0.70703125 0.70703125
vn -0 0.70703125 0.70703125
vn -0 0.70703125 -0.70703125
vn -0 0.70703125 -0.70703125
vn -0 0.70703125 -0.70703125
vn -0 0.70703125 -0.70703125
vn -0 -0.70703125 -0.70703125
vn -0 -0.70703125 -0.70703125
vn -0 -0.70703125 -0.70703125
vn -0 -0.70703125 -0.70703125
vn -0 0 1
vn -0 0 1
vn -0 0 1
vn -0 0 1
vn -0 0 -1
vn -0 0 -1
vn -0 0 -1
vn -0 0 -1
vn -1 0 0
vn -1 0 0
vn -1 0 0
vn -1 0 0
vn -0 0.98828125 -0.151245117
vn -0 0.98828125 -0.151245117
vn -0 0.98828125 -0.151245117
vn -0 0.98828125 -0.151245117
vn -0 -0.98828125 -0.151245117
vn -0 -0.98828125 -0.151245117
vn -0 -0.98828125 -0.151245117
vn -0 -0.98828125 -0.151245117
vn 1 0 0
vn 1 0 0
vn 1 0 0
vn 1 0 0
vn -1 0 0
vn -1 0 0
vn -1 0 0
vn -1 0 0
vn -0 0 -1
vn -0 0 -1
vn -0 0 -1
vn -0 0 -1
vn -0 0 -1
vn -0 0 -1
vn -0 0 -1
vn -0 0 -1
vn -0.70703125 0.698730469 -0.106933594
vn -0.70703125 0.698730469 -0.106933594
vn -0.70703125 0.698730469 -0.106933594
vn -0.70703125 0.698730469 -0.106933594
vn 0.70703125 0.698730469 -0.106933594
vn 0.70703125 0.698730469 -0.106933594
vn 0.70703125 0.698730469 -0.106933594
vn 0.70703125 0.698730469 -0.106933594
vn -0.70703125 -0.698730469 -0.106933594
vn -0.70703125 -0.698730469 -0.106933594
vn -0.70703125 -0.698730469 -0.106933594
vn -0.70703125 -0.698730469 -0.106933594
vn 0.70703125 -0.698730469 -0.106933594
vn 0.70703125 -0.698730469 -0.106933594
vn 0.70703125 -0.698730469 -0.106933594
vn 0.70703125 -0.698730469 -0.106933594
vn 0.689941406 -0.689941406 0.219848633
vn 0.688964844 -0.690917969 0.219604492
vn 0.673828125 -0.706054688 0.216918945
vn 0.672851562 -0.70703125 0.216674805
vn 0.216674805 -0.70703125 -0.672851562
vn 0.216674805 -0.70703125 -0.672851562
vn 0.216674805 -0.70703125 -0.672851562
vn 0.216674805 -0.70703125 -0.672851562
vn 0.889648438 0 -0.456298828
vn 0.889648438 0 -0.456298828
vn 0.889648438 0 -0.456298828
vn 0.889648438 0 -0.456298828
vn 0.689941406 0.689941406 0.219848633
vn 0.673828125 0.706054688 0.216918945
vn 0.688964844 0.690917969 0.219604492
vn 0.672851562 0.70703125 0.216674805
vn 0.216674805 0.70703125 -0.672851562
vn 0.216674805 0.70703125 -0.672851562
vn 0.216674805 0.70703125 -0.672851562
vn 0.216674805 0.70703125 -0.672851562
vn -0.673828125 0.706054688 -0.217041016
vn -0.673828125 0.706054688 -0.217041016
vn -0.673339844 0.70703125 -0.216552734
vn -0.673339844 0.70703125 -0.216552734
vn -0.456298828 0 -0.889648438
vn -0.456298828 0 -0.889648438
vn -0.456298828 0 -0.889648438
vn -0.456298828 0 -0.889648438
vn -0.673828125 -0.706054688 -0.217041016
vn -0.673339844 -0.70703125 -0.216552734
vn -0.673828125 -0.706054688 -0.217041016
vn -0.673339844 -0.70703125 -0.216552734
vn 0.951660156 0 0.306396484
vn 0.951660156 0 0.306396484
vn 0.951660156 0 0.306396484
vn 0.951660156 0 0.306396484
vn -0 1 0
vn -0 1 0
vn -0 1 0
vn -0 1 0
vn -0 1 2.98023224E-07
vn -0 1 2.98023224E-07
vn -0.952148438 0 -0.306152344
vn -0.952148438 0 -0.306152344
vn -0.952148438 0 -0.306152344
vn -0.952148438 0 -0.306152344
vn -0 -1 0
vn -0 -1 0
vn -0 -1 0
vn -0 -1 0
vn -0 -1 -2.98023224E-07
vn -0 -1 -2.98023224E-07
vn 0.306396484 0 -0.951660156
vn 0.306396484 0 -0.951660156
vn 0.306396484 0 -0.951660156
vn 0.306396484 0 -0.951660156
vn -0.70703125 -0.70703125 0
vn -0.70703125 -0.70703125 0
vn -0.70703125 -0.70703125 0
vn -0.70703125 -0.70703125 0
vn -0 -0.70703125 0.70703125
vn -0 -0.70703125 0.70703125
vn -0 -0.70703125 0.70703125
vn -0 -0.70703125 0.70703125
vn -0.70703125 0 0.70703125
vn -0.70703125 0 0.70703125
vn -0.70703125 0 0.70703125
vn -0.70703125 0 0.70703125
vn 0.70703125 3.57627869E-07 0.70703125
vn 0.70703125 3.57627869E-07 0.70703125
vn 0.70703125 3.57627869E-07 0.70703125
vn 0.70703125 3.57627869E-07 0.70703125
vn -0.70703125 0.70703125 0
vn -0.70703125 0.70703125 0
vn -0.70703125 0.70703125 0
vn -0.70703125 0.70703125 0
vn -0 0.70703125 0.70703125
vn -0 0.70703125 0.70703125
vn -0 0.70703125 0.70703125
vn -0 0.70703125 0.70703125
vn -0 0.70703125 -0.70703125
vn -0 0.70703125 -0.70703125
vn -0 0.70703125 -0.70703125
vn -0 0.70703125 -0.70703125
vn -0 -0.70703125 -0.70703125
vn -0 -0.70703125 -0.70703125
vn -0 -0.70703125 -0.70703125
vn -0 -0.70703125 -0.70703125
vn -0 0 1
vn -0 0 1
vn -0 0 1
vn -0 0 1
vn -0 0 -1
vn -0 0 -1
vn -0 0 -1
vn -0 0 -1
vn -1 0 0
vn -1 0 0
vn -1 0 0
vn -1 0 0
vn 0.689941406 -0.689941406 0.219848633
vn 0.688964844 -0.690917969 0.219604492
vn 0.673828125 -0.706054688 0.216918945
vn 0.672851562 -0.70703125 0.216674805
vn 0.216674805 -0.70703125 -0.672851562
vn 0.216674805 -0.70703125 -0.672851562
vn 0.216674805 -0.70703125 -0.672851562
vn 0.216674805 -0.70703125 -0.672851562
vn 0.889648438 0 -0.456298828
vn 0.889648438 0 -0.456298828
vn 0.889648438 0 -0.456298828
vn 0.889648438 0 -0.456298828
vn 0.689941406 0.689941406 0.219848633
vn 0.673828125 0.706054688 0.216918945
vn 0.688964844 0.690917969 0.219604492
vn 0.672851562 0.70703125 0.216674805
vn 0.216674805 0.70703125 -0.672851562
vn 0.216674805 0.70703125 -0.672851562
vn 0.216674805 0.70703125 -0.672851562
vn 0.216674805 0.70703125 -0.672851562
vn -0.673828125 0.706054688 -0.217041016
vn -0.673828125 0.706054688 -0.217041016
vn -0.673339844 0.70703125 -0.216552734
vn -0.673339844 0.70703125 -0.216552734
vn -0.456298828 0 -0.889648438
vn -0.456298828 0 -0.889648438
vn -0.456298828 0 -0.889648438
vn -0.456298828 0 -0.889648438
vn -0.673828125 -0.706054688 -0.217041016
vn -0.673339844 -0.70703125 -0.216552734
vn -0.673828125 -0.706054688 -0.217041016
vn -0.673339844 -0.70703125 -0.216552734
vn 0.951660156 0 0.306396484
vn 0.951660156 0 0.306396484
vn 0.951660156 0 0.306396484
vn 0.951660156 0 0.306396484
vn -0 1 5.96046448E-08
vn -0 1 5.96046448E-08
vn -0 1 5.96046448E-08
vn -0 1 5.96046448E-08
vn -0 1 0
vn -0 1 0
vn -0.952148438 0 -0.306152344
vn -0.952148438 0 -0.306152344
vn -0.952148438 0 -0.306152344
vn -0.952148438 0 -0.306152344
vn -0 -1 0
vn -0 -1 0
vn -0 -1 0
vn -0 -1 0
vn -0 -1 0
vn -0 -1 0
vn 0.306396484 0 -0.951660156
vn 0.306396484 0 -0.951660156
vn 0.306396484 0 -0.951660156
vn 0.306396484 0 -0.951660156
vn -0.70703125 -0.70703125 0
vn -0.70703125 -0.70703125 0
vn -0.70703125 -0.70703125 0
vn -0.70703125 -0.70703125 0
vn -0 -0.70703125 0.70703125
vn -0 -0.70703125 0.70703125
vn -0 -0.70703125 0.70703125
vn -0 -0.70703125 0.70703125
vn -0.70703125 0 0.70703125
vn -0.70703125 0 0.70703125
vn -0.70703125 0 0.70703125
vn -0.70703125 0 0.70703125
vn 0.70703125 3.57627869E-07 0.70703125
vn 0.70703125 3.57627869E-07 0.70703125
vn 0.70703125 3.57627869E-07 0.70703125
vn 0.70703125 3.57627869E-07 0.70703125
vn -0.70703125 0.70703125 0
vn -0.70703125 0.70703125 0
vn -0.70703125 0.70703125 0
vn -0.70703125 0.70703125 0
vn -0 0.70703125 0.70703125
vn -0 0.70703125 0.70703125
vn -0 0.70703125 0.70703125
vn -0 0.70703125 0.70703125
vn -0 0.70703125 -0.70703125
vn -0 0.70703125 -0.70703125
vn -0 0.70703125 -0.70703125
vn -0 0.70703125 -0.70703125
vn -0 -0.70703125 -0.70703125
vn -0 -0.70703125 -0.70703125
vn -0 -0.70703125 -0.70703125
vn -0 -0.70703125 -0.70703125
vn -0 0 1
vn -0 0 1
vn -0 0 1
vn -0 0 1
vn -0 0 -1
vn -0 0 -1
vn -0 0 -1
vn -0 0 -1
vn -1 0 0
vn -1 0 0
vn -1 0 0
vn -1 0 0
vn 0.689941406 -0.689941406 0.219848633
vn 0.688964844 -0.690917969 0.219604492
vn 0.673828125 -0.706054688 0.216918945
vn 0.672851562 -0.70703125 0.216674805
vn 0.216674805 -0.70703125 -0.672851562
vn 0.216674805 -0.70703125 -0.672851562
vn 0.216674805 -0.70703125 -0.672851562
vn 0.216674805 -0.70703125 -0.672851562
vn 0.889648438 0 -0.456298828
vn 0.889648438 0 -0.456298828
vn 0.889648438 0 -0.456298828
vn 0.889648438 0 -0.456298828
vn 0.689941406 0.689941406 0.219848633
vn 0.673828125 0.706054688 0.216918945
vn 0.688964844 0.690917969 0.219604492
vn 0.672851562 0.70703125 0.216674805
vn 0.216674805 0.70703125 -0.672851562
vn 0.216674805 0.70703125 -0.672851562
vn 0.216674805 0.70703125 -0.672851562
vn 0.216674805 0.70703125 -0.672851562
vn -0.673828125 0.706054688 -0.217041016
vn -0.673828125 0.706054688 -0.217041016
vn -0.673339844 0.70703125 -0.216552734
vn -0.673339844 0.70703125 -0.216552734
vn -0.456298828 0 -0.889648438
vn -0.456298828 0 -0.889648438
vn -0.456298828 0 -0.889648438
vn -0.456298828 0 -0.889648438
vn -0.673828125 -0.706054688 -0.217041016
vn -0.673339844 -0.70703125 -0.216552734
vn -0.673828125 -0.706054688 -0.217041016
vn -0.673339844 -0.70703125 -0.216552734
vn 0.951660156 0 0.306396484
vn 0.951660156 0 0.306396484
vn 0.951660156 0 0.306396484
vn 0.951660156 0 0.306396484
vn -0 1 0
vn -0 1 0
vn -0 1 0
vn -0 1 0
vn -0 1 5.96046448E-08
vn -0 1 5.96046448E-08
vn -0.952148438 0 -0.306152344
vn -0.952148438 0 -0.306152344
vn -0.952148438 0 -0.306152344
vn -0.952148438 0 -0.306152344
vn -0 -1 0
vn -0 -1 0
vn -0 -1 0
vn -0 -1 0
vn -0 -1 0
vn -0 -1 0
vn 0.306396484 0 -0.951660156
vn 0.306396484 0 -0.951660156
vn 0.306396484 0 -0.951660156
vn 0.306396484 0 -0.951660156
vn -0.70703125 -0.70703125 0
vn -0.70703125 -0.70703125 0
vn -0.70703125 -0.70703125 0
vn -0.70703125 -0.70703125 0
vn -0 -0.70703125 0.70703125
vn -0 -0.70703125 0.70703125
vn -0 -0.70703125 0.70703125
vn -0 -0.70703125 0.70703125
vn -0.70703125 0 0.70703125
vn -0.70703125 0 0.70703125
vn -0.70703125 0 0.70703125
vn -0.70703125 0 0.70703125
vn 0.70703125 3.57627869E-07 0.70703125
vn 0.70703125 3.57627869E-07 0.70703125
vn 0.70703125 3.57627869E-07 0.70703125
vn 0.70703125 3.57627869E-07 0.70703125
vn -0.70703125 0.70703125 0
vn -0.70703125 0.70703125 0
vn -0.70703125 0.70703125 0
vn -0.70703125 0.70703125 0
vn -0 0.70703125 0.70703125
vn -0 0.70703125 0.70703125
vn -0 0.70703125 0.70703125
vn -0 0.70703125 0.70703125
vn -0 0.70703125 -0.70703125
vn -0 0.70703125 -0.70703125
vn -0 0.70703125 -0.70703125
vn -0 0.70703125 -0.70703125
vn -0 -0.70703125 -0.70703125
vn -0 -0.70703125 -0.70703125
vn -0 -0.70703125 -0.70703125
vn -0 -0.70703125 -0.70703125
vn -0 0 1
vn -0 0 1
vn -0 0 1
vn -0 0 1
vn -0 0 -1
vn -0 0 -1
vn -0 0 -1
vn -0 0 -1
vn -1 0 0
vn -1 0 0
vn -1 0 0
vn -1 0 0
g hand_R_0
f 3/3/3 2/2/2 1/1/1
f 6/6/6 5/5/5 4/4/4
f 9/9/9 8/8/8 7/7/7
f 12/12/12 11/11/11 10/10/10
f 15/15/15 14/14/14 13/13/13
f 18/18/18 17/17/17 16/16/16
f 21/21/21 20/20/20 19/19/19
f 24/24/24 23/23/23 22/22/22
f 27/27/27 26/26/26 25/25/25
f 30/30/30 29/29/29 28/28/28
f 33/33/33 32/32/32 31/31/31
f 36/36/36 35/35/35 34/34/34
f 39/39/39 38/38/38 37/37/37
f 42/42/42 41/41/41 40/40/40
f 45/45/45 44/44/44 43/43/43
f 48/48/48 47/47/47 46/46/46
f 51/51/51 50/50/50 49/49/49
f 54/54/54 53/53/53 52/52/52
f 57/57/57 56/56/56 55/55/55
f 60/60/60 59/59/59 58/58/58
f 63/63/63 62/62/62 61/61/61
f 66/66/66 65/65/65 64/64/64
f 69/69/69 68/68/68 67/67/67
f 72/72/72 71/71/71 70/70/70
f 75/75/75 74/74/74 73/73/73
f 78/78/78 77/77/77 76/76/76
f 81/81/81 80/80/80 79/79/79
f 84/84/84 83/83/83 82/82/82
f 87/87/87 86/86/86 85/85/85
f 90/90/90 89/89/89 88/88/88
f 93/93/93 92/92/92 91/91/91
f 96/96/96 95/95/95 94/94/94
f 99/99/99 98/98/98 97/97/97
f 102/102/102 101/101/101 100/100/100
f 105/105/105 104/104/104 103/103/103
f 108/108/108 107/107/107 106/106/106
f 111/111/111 110/110/110 109/109/109
f 114/114/114 113/113/113 112/112/112
f 117/117/117 116/116/116 115/115/115
f 120/120/120 119/119/119 118/118/118
f 123/123/123 122/122/122 121/121/121
f 126/126/126 125/125/125 124/124/124
f 129/129/129 128/128/128 127/127/127
f 132/132/132 131/131/131 130/130/130
f 135/135/135 134/134/134 133/133/133
f 136/136/136 135/135/135 133/133/133
f 139/139/139 138/138/138 137/137/137
f 140/140/140 139/139/139 137/137/137
f 143/143/143 142/142/142 141/141/141
f 144/144/144 143/143/143 141/141/141
f 147/147/147 146/146/146 145/145/145
f 148/148/148 147/147/147 145/145/145
f 151/151/151 150/150/150 149/149/149
f 152/152/152 151/151/151 149/149/149
f 155/155/155 154/154/154 153/153/153
f 156/156/156 155/155/155 153/153/153
f 159/159/159 158/158/158 157/157/157
f 160/160/160 159/159/159 157/157/157
f 163/163/163 162/162/162 161/161/161
f 164/164/164 163/163/163 161/161/161
f 167/167/167 166/166/166 165/165/165
f 168/168/168 167/167/167 165/165/165
f 171/171/171 170/170/170 169/169/169
f 172/172/172 171/171/171 169/169/169
f 175/175/175 174/174/174 173/173/173
f 176/176/176 175/175/175 173/173/173
f 179/179/179 178/178/178 177/177/177
f 180/180/180 179/179/179 177/177/177
f 183/183/183 182/182/182 181/181/181
f 184/184/184 183/183/183 181/181/181
f 187/187/187 186/186/186 185/185/185
f 188/188/188 187/187/187 185/185/185
f 191/191/191 190/190/190 189/189/189
f 192/192/192 191/191/191 189/189/189
f 195/195/195 194/194/194 193/193/193
f 196/196/196 195/195/195 193/193/193
f 199/199/199 198/198/198 197/197/197
f 200/200/200 199/199/199 197/197/197
f 203/203/203 202/202/202 201/201/201
f 204/204/204 203/203/203 201/201/201
f 207/207/207 206/206/206 205/205/205
f 208/208/208 207/207/207 205/205/205
f 211/211/211 210/210/210 209/209/209
f 212/212/212 211/211/211 209/209/209
f 215/215/215 214/214/214 213/213/213
f 216/216/216 215/215/215 213/213/213
f 219/219/219 218/218/218 217/217/217
f 220/220/220 219/219/219 217/217/217
f 223/223/223 222/222/222 221/221/221
f 224/224/224 223/223/223 221/221/221
f 227/227/227 226/226/226 225/225/225
f 228/228/228 227/227/227 225/225/225
f 231/231/231 230/230/230 229/229/229
f 232/232/232 231/231/231 229/229/229
f 235/235/235 234/234/234 233/233/233
f 236/236/236 235/235/235 233/233/233
f 239/239/239 238/238/238 237/237/237
f 240/240/240 239/239/239 237/237/237
f 243/243/243 242/242/242 241/241/241
f 244/244/244 243/243/243 241/241/241
f 247/247/247 246/246/246 245/245/245
f 248/248/248 247/247/247 245/245/245
f 251/251/251 250/250/250 249/249/249
f 252/252/252 251/251/251 249/249/249
f 255/255/255 254/254/254 253/253/253
f 256/256/256 255/255/255 253/253/253
f 259/259/259 258/258/258 257/257/257
f 259/259/259 260/260/260 258/258/258
f 263/263/263 262/262/262 261/261/261
f 264/264/264 263/263/263 261/261/261
f 267/267/267 266/266/266 265/265/265
f 268/268/268 267/267/267 265/265/265
f 271/271/271 270/270/270 269/269/269
f 271/271/271 272/272/272 270/270/270
f 275/275/275 274/274/274 273/273/273
f 276/276/276 275/275/275 273/273/273
f 279/279/279 278/278/278 277/277/277
f 279/279/279 280/280/280 278/278/278
f 283/283/283 282/282/282 281/281/281
f 284/284/284 283/283/283 281/281/281
f 287/287/287 286/286/286 285/285/285
f 287/287/287 288/288/288 286/286/286
f 291/291/291 290/290/290 289/289/289
f 292/292/292 291/291/291 289/289/289
f 295/295/295 294/294/294 293/293/293
f 294/294/294 296/296/296 293/293/293
f 293/293/293 296/296/296 297/297/297
f 296/296/296 298/298/298 297/297/297
f 301/301/301 300/300/300 299/299/299
f 302/302/302 301/301/301 299/299/299
f 305/305/305 304/304/304 303/303/303
f 304/304/304 306/306/306 303/303/303
f 303/303/303 306/306/306 307/307/307
f 306/306/306 308/308/308 307/307/307
f 311/311/311 310/310/310 309/309/309
f 312/312/312 311/311/311 309/309/309
f 315/315/315 314/314/314 313/313/313
f 316/316/316 315/315/315 313/313/313
f 319/319/319 318/318/318 317/317/317
f 320/320/320 319/319/319 317/317/317
f 323/323/323 322/322/322 321/321/321
f 324/324/324 323/323/323 321/321/321
f 327/327/327 326/326/326 325/325/325
f 328/328/328 327/327/327 325/325/325
f 331/331/331 330/330/330 329/329/329
f 332/332/332 331/331/331 329/329/329
f 335/335/335 334/334/334 333/333/333
f 336/336/336 335/335/335 333/333/333
f 339/339/339 338/338/338 337/337/337
f 340/340/340 339/339/339 337/337/337
f 343/343/343 342/342/342 341/341/341
f 344/344/344 343/343/343 341/341/341
f 347/347/347 346/346/346 345/345/345
f 348/348/348 347/347/347 345/345/345
f 351/351/351 350/350/350 349/349/349
f 352/352/352 351/351/351 349/349/349
f 355/355/355 354/354/354 353/353/353
f 356/356/356 355/355/355 353/353/353
f 359/359/359 358/358/358 357/357/357
f 360/360/360 359/359/359 357/357/357
f 363/363/363 362/362/362 361/361/361
f 364/364/364 363/363/363 361/361/361
f 367/367/367 366/366/366 365/365/365
f 368/368/368 367/367/367 365/365/365
f 371/371/371 370/370/370 369/369/369
f 372/372/372 371/371/371 369/369/369
f 375/375/375 374/374/374 373/373/373
f 376/376/376 375/375/375 373/373/373
f 376/376/376 373/373/373 377/377/377
f 378/378/378 376/376/376 377/377/377
f 379/379/379 378/378/378 377/377/377
f 380/380/380 379/379/379 377/377/377
f 383/383/383 382/382/382 381/381/381
f 384/384/384 383/383/383 381/381/381
f 387/387/387 386/386/386 385/385/385
f 388/388/388 387/387/387 385/385/385
f 391/391/391 390/390/390 389/389/389
f 392/392/392 391/391/391 389/389/389
f 395/395/395 394/394/394 393/393/393
f 396/396/396 395/395/395 393/393/393
f 399/399/399 398/398/398 397/397/397
f 399/399/399 400/400/400 398/398/398
f 403/403/403 402/402/402 401/401/401
f 404/404/404 403/403/403 401/401/401
f 407/407/407 406/406/406 405/405/405
f 408/408/408 407/407/407 405/405/405
f 411/411/411 410/410/410 409/409/409
f 411/411/411 412/412/412 410/410/410
f 415/415/415 414/414/414 413/413/413
f 416/416/416 415/415/415 413/413/413
f 419/419/419 418/418/418 417/417/417
f 419/419/419 420/420/420 418/418/418
f 423/423/423 422/422/422 421/421/421
f 424/424/424 423/423/423 421/421/421
f 427/427/427 426/426/426 425/425/425
f 427/427/427 428/428/428 426/426/426
f 431/431/431 430/430/430 429/429/429
f 432/432/432 431/431/431 429/429/429
f 435/435/435 434/434/434 433/433/433
f 434/434/434 436/436/436 433/433/433
f 433/433/433 436/436/436 437/437/437
f 436/436/436 438/438/438 437/437/437
f 441/441/441 440/440/440 439/439/439
f 442/442/442 441/441/441 439/439/439
f 445/445/445 444/444/444 443/443/443
f 444/444/444 446/446/446 443/443/443
f 443/443/443 446/446/446 447/447/447
f 446/446/446 448/448/448 447/447/447
f 451/451/451 450/450/450 449/449/449
f 452/452/452 451/451/451 449/449/449
f 455/455/455 454/454/454 453/453/453
f 456/456/456 455/455/455 453/453/453
f 459/459/459 458/458/458 457/457/457
f 460/460/460 459/459/459 457/457/457
f 463/463/463 462/462/462 461/461/461
f 464/464/464 463/463/463 461/461/461
f 467/467/467 466/466/466 465/465/465
f 468/468/468 467/467/467 465/465/465
f 471/471/471 470/470/470 469/469/469
f 472/472/472 471/471/471 469/469/469
f 475/475/475 474/474/474 473/473/473
f 476/476/476 475/475/475 473/473/473
f 479/479/479 478/478/478 477/477/477
f 480/480/480 479/479/479 477/477/477
f 483/483/483 482/482/482 481/481/481
f 484/484/484 483/483/483 481/481/481
f 487/487/487 486/486/486 485/485/485
f 488/488/488 487/487/487 485/485/485
f 491/491/491 490/490/490 489/489/489
f 492/492/492 491/491/491 489/489/489
f 495/495/495 494/494/494 493/493/493
f 496/496/496 495/495/495 493/493/493
f 499/499/499 498/498/498 497/497/497
f 499/499/499 500/500/500 498/498/498
f 503/503/503 502/502/502 501/501/501
f 504/504/504 503/503/503 501/501/501
f 507/507/507 506/506/506 505/505/505
f 508/508/508 507/507/507 505/505/505
f 511/511/511 510/510/510 509/509/509
f 511/511/511 512/512/512 510/510/510
f 515/515/515 514/514/514 513/513/513
f 516/516/516 515/515/515 513/513/513
f 519/519/519 518/518/518 517/517/517
f 519/519/519 520/520/520 518/518/518
f 523/523/523 522/522/522 521/521/521
f 524/524/524 523/523/523 521/521/521
f 527/527/527 526/526/526 525/525/525
f 527/527/527 528/528/528 526/526/526
f 531/531/531 530/530/530 529/529/529
f 532/532/532 531/531/531 529/529/529
f 535/535/535 534/534/534 533/533/533
f 534/534/534 536/536/536 533/533/533
f 533/533/533 536/536/536 537/537/537
f 536/536/536 538/538/538 537/537/537
f 541/541/541 540/540/540 539/539/539
f 542/542/542 541/541/541 539/539/539
f 545/545/545 544/544/544 543/543/543
f 544/544/544 546/546/546 543/543/543
f 543/543/543 546/546/546 547/547/547
f 546/546/546 548/548/548 547/547/547
f 551/551/551 550/550/550 549/549/549
f 552/552/552 551/551/551 549/549/549
f 555/555/555 554/554/554 553/553/553
f 556/556/556 555/555/555 553/553/553
f 559/559/559 558/558/558 557/557/557
f 560/560/560 559/559/559 557/557/557
f 563/563/563 562/562/562 561/561/561
f 564/564/564 563/563/563 561/561/561
f 567/567/567 566/566/566 565/565/565
f 568/568/568 567/567/567 565/565/565
f 571/571/571 570/570/570 569/569/569
f 572/572/572 571/571/571 569/569/569
f 575/575/575 574/574/574 573/573/573
f 576/576/576 575/575/575 573/573/573
f 579/579/579 578/578/578 577/577/577
f 580/580/580 579/579/579 577/577/577
f 583/583/583 582/582/582 581/581/581
f 584/584/584 583/583/583 581/581/581
f 587/587/587 586/586/586 585/585/585
f 588/588/588 587/587/587 585/585/585
f 591/591/591 590/590/590 589/589/589
f 592/592/592 591/591/591 589/589/589
f 595/595/595 594/594/594 593/593/593
f 596/596/596 595/595/595 593/593/593
f 599/599/599 598/598/598 597/597/597
f 599/599/599 600/600/600 598/598/598
f 603/603/603 602/602/602 601/601/601
f 604/604/604 603/603/603 601/601/601
f 607/607/607 606/606/606 605/605/605
f 608/608/608 607/607/607 605/605/605
f 611/611/611 610/610/610 609/609/609
f 611/611/611 612/612/612 610/610/610
f 615/615/615 614/614/614 613/613/613
f 616/616/616 615/615/615 613/613/613
f 619/619/619 618/618/618 617/617/617
f 619/619/619 620/620/620 618/618/618
f 623/623/623 622/622/622 621/621/621
f 624/624/624 623/623/623 621/621/621
f 627/627/627 626/626/626 625/625/625
f 627/627/627 628/628/628 626/626/626
f 631/631/631 630/630/630 629/629/629
f 632/632/632 631/631/631 629/629/629
f 635/635/635 634/634/634 633/633/633
f 634/634/634 636/636/636 633/633/633
f 633/633/633 636/636/636 637/637/637
f 636/636/636 638/638/638 637/637/637
f 641/641/641 640/640/640 639/639/639
f 642/642/642 641/641/641 639/639/639
f 645/645/645 644/644/644 643/643/643
f 644/644/644 646/646/646 643/643/643
f 643/643/643 646/646/646 647/647/647
f 646/646/646 648/648/648 647/647/647
f 651/651/651 650/650/650 649/649/649
f 652/652/652 651/651/651 649/649/649
f 655/655/655 654/654/654 653/653/653
f 656/656/656 655/655/655 653/653/653
f 659/659/659 658/658/658 657/657/657
f 660/660/660 659/659/659 657/657/657
f 663/663/663 662/662/662 661/661/661
f 664/664/664 663/663/663 661/661/661
f 667/667/667 666/666/666 665/665/665
f 668/668/668 667/667/667 665/665/665
f 671/671/671 670/670/670 669/669/669
f 672/672/672 671/671/671 669/669/669
f 675/675/675 674/674/674 673/673/673
f 676/676/676 675/675/675 673/673/673
f 679/679/679 678/678/678 677/677/677
f 680/680/680 679/679/679 677/677/677
f 683/683/683 682/682/682 681/681/681
f 684/684/684 683/683/683 681/681/681
f 687/687/687 686/686/686 685/685/685
f 688/688/688 687/687/687 685/685/685
f 691/691/691 690/690/690 689/689/689
f 692/692/692 691/691/691 689/689/689
f 695/695/695 694/694/694 693/693/693
f 696/696/696 695/695/695 693/693/693
