g hand_R
v -0.0192251224 0.0127545772 -0.086254254
v -0.0192251224 -0.0127546005 -0.086254254
v 0.00628405949 -0.0127546005 -0.086254254
v 0.00628405949 0.0127545772 -0.086254254
v -0.0192251224 0.0382637531 -0.086254254
v 0.00628405949 0.0382637531 -0.086254254
v 0.031793233 0.0382637531 -0.086254254
v 0.031793233 0.0127545772 -0.086254254
v 0.031793233 -0.0127546005 -0.086254254
v -0.0192251224 -0.0127546005 -0.0607450791
v -0.0192251224 -0.0382637754 -0.0607450791
v 0.00628405949 -0.0382637754 -0.0607450791
v 0.00628405949 -0.0127546005 -0.0607450791
v 0.031793233 -0.0127546005 -0.0607450791
v 0.0317932367 -0.0382637754 -0.0607450791
v 0.0573024042 -0.0127546005 -0.0607450791
v 0.0573024042 -0.0382637754 -0.0607450791
v 0.0573024042 0.0127545772 -0.0607450791
v 0.031793233 0.0127545772 -0.0607450791
v 0.0573024042 0.0382637531 -0.0607450791
v 0.031793233 0.0382637531 -0.0607450791
v 0.0573024042 0.0637729391 -0.0607450791
v 0.082811594 0.0637729391 -0.0607450791
v 0.082811594 0.0382637531 -0.0607450791
v 0.031793233 0.0637729391 -0.0607450791
v 0.00628405949 0.0637729391 -0.0607450791
v 0.00628405949 0.0382637531 -0.0607450791
v -0.0192251224 0.0637729391 -0.0607450791
v -0.0192251224 0.0382637531 -0.0607450791
v -0.0192251224 0.0382637531 -0.0607450791
v -0.0192251224 0.0637729391 -0.0607450791
v -0.0192251224 0.0637729391 -0.0352359004
v -0.0192251224 0.0382637531 -0.0352359004
v -0.0192251224 0.0127545772 -0.0607450791
v -0.0192251224 0.0382637531 -0.00972672459
v -0.0192251224 0.0637729391 -0.00972672459
v -0.0192251224 0.0127545772 -0.0352359004
v -0.0192251224 -0.0127546005 -0.0607450791
v -0.0192251224 0.0382637531 0.0157824531
v -0.0192251224 0.0637729391 0.0157824531
v -0.0192251224 0.0127545735 0.0157824531
v -0.0192251224 0.0127545735 -0.00972672459
v -0.0192251224 -0.0127546005 0.0157824531
v -0.0192251224 -0.0127546005 -0.00972672459
v -0.0192251224 -0.0382637754 0.0157824531
v -0.0192251224 -0.0382637754 -0.00972672459
v -0.0192251224 -0.0127546005 -0.0352359004
v -0.0192251224 -0.0382637754 -0.0607450791
v -0.0192251224 -0.0382637754 -0.0352359004
v 0.0573024042 0.0127545772 -0.0607450791
v 0.0573024042 0.0382637531 -0.0352359004
v 0.0573024042 0.0382637531 -0.0607450791
v 0.0573024042 0.0127545772 -0.0352359004
v 0.0573024042 -0.0127546005 -0.0607450791
v 0.0573024042 -0.0127546005 -0.0352359004
v 0.0573024042 -0.0382637754 -0.0607450791
v 0.0573024042 -0.0382637754 -0.0352359004
v 0.0573024042 -0.0382637754 -0.00972672459
v 0.0573024042 -0.0127546005 -0.00972672459
v 0.0573024042 0.0382637531 -0.0352359004
v 0.082811594 0.0382637531 -0.0352359004
v 0.082811594 0.0382637531 -0.0607450791
v 0.0573024042 0.0382637531 -0.0607450791
v 0.082811594 0.0382637531 -0.0607450791
v 0.082811594 0.0637729391 -0.0352359004
v 0.082811594 0.0637729391 -0.0607450791
v 0.082811594 0.0382637531 -0.0352359004
v 0.082811594 0.0637729391 -0.00972672459
v 0.082811594 0.0382637531 -0.00972672459
v 0.082811594 0.0127545735 -0.00972672459
v 0.082811594 0.0127545735 -0.0352359004
v 0.082811594 -0.0127546005 -0.00972672459
v 0.082811594 -0.0127546005 -0.0352359004
v 0.0573024042 -0.0127546005 -0.0352359004
v 0.082811594 -0.0127546005 -0.0352359004
v 0.082811594 0.0127545735 -0.0352359004
v 0.0573024042 0.0127545772 -0.0352359004
v 0.082811594 0.0382637531 -0.0352359004
v 0.0573024042 0.0382637531 -0.0352359004
v 0.082811594 -0.0127546005 -0.0352359004
v 0.0573024042 -0.0127546005 -0.0352359004
v 0.0573024042 -0.0127546005 -0.00972672459
v 0.082811594 -0.0127546005 -0.00972672459
v 0.082811594 0.0382637531 -0.00972672459
v 0.0573024042 0.0637729391 -0.00972672459
v 0.082811594 0.0637729391 -0.00972672459
v 0.0573024042 0.0382637531 -0.00972672459
v 0.0317932367 0.0637729391 -0.00972672459
v 0.0317932367 0.0382637531 -0.00972672459
v 0.082811594 0.0127545735 -0.00972672459
v 0.0573024042 0.0127545735 -0.00972672459
v 0.082811594 -0.0127546005 -0.00972672459
v 0.0573024042 -0.0127546005 -0.00972672459
v 0.0573024042 0.0127545735 -0.00972672459
v 0.0573024042 0.0382637531 0.0157824531
v 0.0573024042 0.0382637531 -0.00972672459
v 0.0573024042 0.0127545735 0.0157824531
v 0.0573024042 -0.0127546005 -0.00972672459
v 0.0573024042 -0.0127546005 0.0157824531
v 0.0573024042 -0.0382637754 -0.00972672459
v 0.0317932367 -0.0382637754 -0.00972672459
v 0.031793233 -0.0127546005 -0.00972672459
v 0.0573024042 -0.0127546005 -0.00972672459
v 0.0317932367 -0.0382637754 -0.00972672459
v 0.0317932367 -0.0382637754 0.0157824531
v 0.0317932293 -0.0127546005 0.0157824531
v 0.031793233 -0.0127546005 -0.00972672459
v 0.00628405949 -0.0382637754 0.0157824531
v -0.0192251224 -0.0382637754 0.0157824531
v -0.0192251224 -0.0127546005 0.0157824531
v 0.00628405949 -0.0127546005 0.0157824531
v 0.0317932367 -0.0382637754 0.0157824531
v -0.0192251224 0.0127545735 0.0157824531
v 0.0317932293 -0.0127546005 0.0157824531
v 0.00628405949 0.0127545735 0.0157824531
v -0.0192251224 0.0382637531 0.0157824531
v 0.0317932293 0.0127545735 0.0157824531
v 0.0573024042 -0.0127546005 0.0157824531
v 0.0573024042 0.0127545735 0.0157824531
v 0.00628405949 0.0382637531 0.0157824531
v -0.0192251224 0.0637729391 0.0157824531
v 0.00628405949 0.0637729391 0.0157824531
v 0.031793233 0.0382637531 0.0157824531
v 0.0573024042 0.0382637531 0.0157824531
v 0.0317932367 0.0637729391 0.0157824531
v 0.0317932367 0.0637729391 0.0157824531
v 0.0317932367 0.0637729391 -0.00972672459
v 0.0317932367 0.0382637531 -0.00972672459
v 0.031793233 0.0382637531 0.0157824531
v 0.0317932367 0.0382637531 -0.00972672459
v 0.0573024042 0.0382637531 -0.00972672459
v 0.0573024042 0.0382637531 0.0157824531
v 0.031793233 0.0382637531 0.0157824531
v 0.0573024042 -0.0127546005 0.0157824531
v 0.0573024042 -0.0127546005 -0.00972672459
v 0.031793233 -0.0127546005 -0.00972672459
v 0.0317932293 -0.0127546005 0.0157824531
v 0.0573024042 -0.0382637754 -0.0352359004
v 0.0317932367 -0.0382637754 -0.00972672459
v 0.0573024042 -0.0382637754 -0.00972672459
v 0.0317932367 -0.0382637754 -0.0352359004
v 0.0573024042 -0.0382637754 -0.0607450791
v 0.0317932367 -0.0382637754 -0.0607450791
v 0.00628405949 -0.0382637754 -0.0352359004
v 0.00628405949 -0.0382637754 -0.0607450791
v 0.00628405949 -0.0382637754 -0.00972672459
v -0.0192251224 -0.0382637754 -0.0352359004
v -0.0192251224 -0.0382637754 -0.0607450791
v -0.0192251224 -0.0382637754 -0.00972672459
v 0.00628405949 -0.0382637754 0.0157824531
v 0.0317932367 -0.0382637754 0.0157824531
v -0.0192251224 -0.0382637754 0.0157824531
v -0.0192251224 0.0637729391 -0.00972672459
v 0.00628405949 0.0637729391 0.0157824531
v -0.0192251224 0.0637729391 0.0157824531
v 0.00628405949 0.0637729391 -0.00972672459
v 0.0317932367 0.0637729391 0.0157824531
v -0.0192251224 0.0637729391 -0.0352359004
v 0.0317932367 0.0637729391 -0.00972672459
v 0.00628405949 0.0637729391 -0.0352359004
v -0.0192251224 0.0637729391 -0.0607450791
v 0.00628405949 0.0637729391 -0.0607450791
v 0.031793233 0.0637729391 -0.0352359004
v 0.0573024042 0.0637729391 -0.00972672459
v 0.031793233 0.0637729391 -0.0607450791
v 0.0573024042 0.0637729391 -0.0352359004
v 0.082811594 0.0637729391 -0.00972672459
v 0.0573024042 0.0637729391 -0.0607450791
v 0.082811594 0.0637729391 -0.0352359004
v 0.082811594 0.0637729391 -0.0607450791
v -0.0192251224 0.0127545772 -0.0607450791
v -0.0192251224 0.0382637531 -0.086254254
v -0.0192251224 0.0382637531 -0.0607450791
v -0.0192251224 0.0127545772 -0.086254254
v -0.0192251224 -0.0127546005 -0.0607450791
v -0.0192251224 -0.0127546005 -0.086254254
v -0.0192251224 0.0382637531 -0.0607450791
v -0.0192251224 0.0382637531 -0.086254254
v 0.00628405949 0.0382637531 -0.086254254
v 0.00628405949 0.0382637531 -0.0607450791
v 0.031793233 0.0382637531 -0.0607450791
v 0.031793233 0.0382637531 -0.086254254
v 0.031793233 0.0382637531 -0.0607450791
v 0.031793233 0.0382637531 -0.086254254
v 0.031793233 0.0127545772 -0.086254254
v 0.031793233 0.0127545772 -0.0607450791
v 0.031793233 -0.0127546005 -0.086254254
v 0.031793233 -0.0127546005 -0.0607450791
v 0.00628405949 -0.0127546005 -0.0607450791
v -0.0192251224 -0.0127546005 -0.086254254
v -0.0192251224 -0.0127546005 -0.0607450791
v 0.00628405949 -0.0127546005 -0.086254254
v 0.031793233 -0.0127546005 -0.086254254
v 0.031793233 -0.0127546005 -0.0607450791
vt 0.271342158 0.186103106
vt 0.271342278 0.100864053
vt 0.186103225 0.100864053
vt 0.186103225 0.186103046
vt 0.271342158 0.271342278
vt 0.186103225 0.271342039
vt 0.100864053 0.271342039
vt 0.100864172 0.186102986
vt 0.100864291 0.100863993
vt 0.624871492 0.110115558
vt 0.624871254 0.0248765051
vt 0.539632559 0.02487652
vt 0.539632559 0.110115558
vt 0.454393506 0.110115558
vt 0.454393506 0.02487652
vt 0.369154453 0.110115677
vt 0.369154453 0.02487652
vt 0.369154453 0.195354611
vt 0.454393506 0.195354611
vt 0.369154453 0.280593663
vt 0.454393506 0.280593663
vt 0.369154453 0.365832597
vt 0.28391552 0.365832597
vt 0.28391552 0.280593663
vt 0.454393506 0.365832597
vt 0.539632559 0.365832478
vt 0.539632559 0.280593425
vt 0.624871492 0.365832597
vt 0.624871492 0.280593544
vt 0.0156249404 0.621549726
vt 0.0156249404 0.706788719
vt 0.100863993 0.706788719
vt 0.100863993 0.621549726
vt 0.0156249404 0.536310673
vt 0.186102986 0.621549726
vt 0.186102986 0.706788719
vt 0.100863993 0.536310673
vt 0.0156249404 0.45107162
vt 0.27134198 0.621549726
vt 0.27134198 0.706788719
vt 0.27134198 0.536310673
vt 0.186102986 0.536310673
vt 0.27134198 0.45107162
vt 0.186102986 0.45107162
vt 0.27134198 0.365832597
vt 0.186102986 0.365832597
vt 0.100863993 0.45107162
vt 0.0156249404 0.365832597
vt 0.100863993 0.365832597
vt 0.888874114 0.545564115
vt 0.803635001 0.630803108
vt 0.888874114 0.630803108
vt 0.803635001 0.545564115
vt 0.888874114 0.460325092
vt 0.803635001 0.460325092
vt 0.888874114 0.375086099
vt 0.803635001 0.375086099
vt 0.718396664 0.375086069
vt 0.71839571 0.460325062
vt 0.632483482 0.81978488
vt 0.632482827 0.905024052
vt 0.717721581 0.905025423
vt 0.717722893 0.81978631
vt 0.803636074 0.725294411
vt 0.71839726 0.810533345
vt 0.803636074 0.810533345
vt 0.71839726 0.725294411
vt 0.633158326 0.810533345
vt 0.633158326 0.725294411
vt 0.633158326 0.640055537
vt 0.71839726 0.640055537
vt 0.633158326 0.5548172
vt 0.718397141 0.554816127
vt 0.462004989 0.81978482
vt 0.462004989 0.905023992
vt 0.547244072 0.905023992
vt 0.547244072 0.81978482
vt 0.632482827 0.905024052
vt 0.632483482 0.81978488
vt 0.718397141 0.554816127
vt 0.718395114 0.469576716
vt 0.63315618 0.469578803
vt 0.633158326 0.5548172
vt 0.186102986 0.886518061
vt 0.100863934 0.971757054
vt 0.186102986 0.971757054
vt 0.100863934 0.886518061
vt 0.015625 0.971757054
vt 0.015625 0.886518061
vt 0.186102986 0.801279008
vt 0.100863934 0.801279008
vt 0.186102986 0.716040015
vt 0.100863934 0.716040015
vt 0.984372973 0.536310911
vt 0.899133921 0.621550202
vt 0.984372973 0.621549726
vt 0.899133921 0.536310911
vt 0.984372973 0.451072186
vt 0.899133921 0.451071709
vt 0.718396664 0.375086069
vt 0.633158267 0.375083864
vt 0.633156002 0.460322887
vt 0.71839571 0.460325062
vt 0.984375 0.280594528
vt 0.899136066 0.280593306
vt 0.899134755 0.365832418
vt 0.984373808 0.365833491
vt 0.720707953 0.0156248808
vt 0.6354689 0.0156248808
vt 0.6354689 0.100863934
vt 0.720707953 0.100863934
vt 0.805946887 0.0156248808
vt 0.6354689 0.186102971
vt 0.805946887 0.100863934
vt 0.720707953 0.186102971
vt 0.6354689 0.271342039
vt 0.805946887 0.186102971
vt 0.89118588 0.100863934
vt 0.89118588 0.186102971
vt 0.720707953 0.271342039
vt 0.6354689 0.356581092
vt 0.720707953 0.356581092
vt 0.805946887 0.271342039
vt 0.89118588 0.271342039
vt 0.805946887 0.356581092
vt 0.899135351 0.792028189
vt 0.984374404 0.792027712
vt 0.984373927 0.70678854
vt 0.899134994 0.706789255
vt 0.984373927 0.70678854
vt 0.984372973 0.621549726
vt 0.899133921 0.621550202
vt 0.899134994 0.706789255
vt 0.899133921 0.451071709
vt 0.984372973 0.451072186
vt 0.984373808 0.365833491
vt 0.899134755 0.365832418
vt 0.537319779 0.725291312
vt 0.452080727 0.810530305
vt 0.537319779 0.810530305
vt 0.452080727 0.725291312
vt 0.537319779 0.640052319
vt 0.452080727 0.640052319
vt 0.366841912 0.725291312
vt 0.366841912 0.640052319
vt 0.366841912 0.810530305
vt 0.28160274 0.725291312
vt 0.28160274 0.640052319
vt 0.28160274 0.810530305
vt 0.366841912 0.895769238
vt 0.452080727 0.895769238
vt 0.28160274 0.895769238
vt 0.28160274 0.460322917
vt 0.366841704 0.375083864
vt 0.28160274 0.375083864
vt 0.366841704 0.460322917
vt 0.452080756 0.375083864
vt 0.28160274 0.545561969
vt 0.452080756 0.460322917
vt 0.366841704 0.545561969
vt 0.28160274 0.630801022
vt 0.366841704 0.630801022
vt 0.452080756 0.545561969
vt 0.53731966 0.460322917
vt 0.452080756 0.630801022
vt 0.53731966 0.545561969
vt 0.622558713 0.460322917
vt 0.53731966 0.630801022
vt 0.622558713 0.545561969
vt 0.622558713 0.630801022
vt 0.356581092 0.186103106
vt 0.271342158 0.271342278
vt 0.356581092 0.271342039
vt 0.271342158 0.186103106
vt 0.356581092 0.100864053
vt 0.271342278 0.100864053
vt 0.27134192 0.35658133
vt 0.271342158 0.271342278
vt 0.186103225 0.271342039
vt 0.186102867 0.356580973
vt 0.100863934 0.356580734
vt 0.100864053 0.271342039
vt 0.0156248808 0.271341681
vt 0.100864053 0.271342039
vt 0.100864172 0.186102986
vt 0.0156251192 0.186102748
vt 0.100864291 0.100863993
vt 0.0156253576 0.100863755
vt 0.186103225 0.015625
vt 0.271342278 0.100864053
vt 0.271342278 0.015625
vt 0.186103225 0.100864053
vt 0.100864291 0.100863993
vt 0.100864291 0.0156249404
vn -0 0 -1
vn -0 0 -1
vn -0 0 -1
vn -0 0 -1
vn -0 0 -1
vn -0 0 -1
vn -0 0 -1
vn -0 0 -1
vn -0 0 -1
vn -0 0 -1
vn -0 0 -1
vn -0 0 -1
vn -0 0 -1
vn -0 0 -1
vn -0 0 -1
vn -0 0 -1
vn -0 0 -1
vn -0 0 -1
vn -0 0 -1
vn -0 0 -1
vn -0 0 -1
vn -0 0 -1
vn -0 0 -1
vn -0 0 -1
vn -0 0 -1
vn -0 0 -1
vn -0 0 -1
vn -0 0 -1
vn -0 0 -1
vn -1 0 0
vn -1 0 0
vn -1 0 0
vn -1 0 0
vn -1 0 0
vn -1 0 0
vn -1 0 0
vn -1 0 0
vn -1 0 0
vn -1 0 0
vn -1 0 0
vn -1 0 0
vn -1 0 0
vn -1 0 0
vn -1 0 0
vn -1 0 0
vn -1 0 0
vn -1 0 0
vn -1 0 0
vn -1 0 0
vn 1 0 0
vn 1 0 0
vn 1 0 0
vn 1 0 0
vn 1 0 0
vn 1 0 0
vn 1 0 0
vn 1 0 0
vn 1 0 0
vn 1 0 0
vn -0 -1 0
vn -0 -1 0
vn -0 -1 0
vn -0 -1 0
vn 1 0 0
vn 1 0 0
vn 1 0 0
vn 1 0 0
vn 1 0 0
vn 1 0 0
vn 1 0 0
vn 1 0 0
vn 1 0 0
vn 1 0 0
vn -0 0 -1
vn -0 0 -1
vn -0 0 -1
vn -0 0 -1
vn -0 0 -1
vn -0 0 -1
vn -0 -1 0
vn -0 -1 0
vn -0 -1 0
vn -0 -1 0
vn -0 0 1
vn -0 0 1
vn -0 0 1
vn -0 0 1
vn -0 0 1
vn -0 0 1
vn -0 0 1
vn -0 0 1
vn -0 0 1
vn -0 0 1
vn 1 0 0
vn 1 0 0
vn 1 0 0
vn 1 0 0
vn 1 0 0
vn 1 0 0
vn -0 0 1
vn -0 0 1
vn -0 0 1
vn -0 0 1
vn 1 1.43626067E-07 0
vn 1 1.43626067E-07 0
vn 1 1.43626067E-07 0
vn 1 1.43626067E-07 0
vn -0 0 1
vn -0 0 1
vn -0 0 1
vn -0 0 1
vn -0 0 1
vn -0 0 1
vn -0 0 1
vn -0 0 1
vn -0 0 1
vn -0 0 1
vn -0 0 1
vn -0 0 1
vn -0 0 1
vn -0 0 1
vn -0 0 1
vn -0 0 1
vn -0 0 1
vn -0 0 1
vn 1 -7.18130195E-08 0
vn 1 -7.18130195E-08 0
vn 1 -7.18130195E-08 0
vn 1 -7.18130195E-08 0
vn -0 1 0
vn -0 1 0
vn -0 1 0
vn -0 1 0
vn -0 -1 7.1813048E-08
vn -0 -1 7.1813048E-08
vn -0 -1 7.1813048E-08
vn -0 -1 7.18130408E-08
vn -0 -1 0
vn -0 -1 0
vn -0 -1 0
vn -0 -1 0
vn -0 -1 0
vn -0 -1 0
vn -0 -1 0
vn -0 -1 0
vn -0 -1 0
vn -0 -1 0
vn -0 -1 0
vn -0 -1 0
vn -0 -1 0
vn -0 -1 0
vn -0 -1 0
vn -0 1 0
vn -0 1 0
vn -0 1 0
vn -0 1 0
vn -0 1 0
vn -0 1 0
vn -0 1 0
vn -0 1 0
vn -0 1 0
vn -0 1 0
vn -0 1 0
vn -0 1 0
vn -0 1 0
vn -0 1 0
vn -0 1 0
vn -0 1 0
vn -0 1 0
vn -0 1 0
vn -1 0 0
vn -1 0 0
vn -1 0 0
vn -1 0 0
vn -1 0 0
vn -1 0 0
vn -0 1 0
vn -0 1 0
vn -0 1 0
vn -0 1 0
vn -0 1 0
vn -0 1 0
vn 1 0 0
vn 1 0 0
vn 1 0 0
vn 1 0 0
vn 1 0 0
vn 1 0 0
vn -0 -1 0
vn -0 -1 0
vn -0 -1 0
vn -0 -1 0
vn -0 -1 0
vn -0 -1 0
g hand_R_0
f 3/3/3 2/2/2 1/1/1
f 4/4/4 3/3/3 1/1/1
f 1/1/1 5/5/5 4/4/4
f 5/5/5 6/6/6 4/4/4
f 6/6/6 7/7/7 4/4/4
f 7/7/7 8/8/8 4/4/4
f 4/4/4 8/8/8 3/3/3
f 8/8/8 9/9/9 3/3/3
f 12/12/12 11/11/11 10/10/10
f 13/13/13 12/12/12 10/10/10
f 13/13/13 14/14/14 12/12/12
f 14/14/14 15/15/15 12/12/12
f 14/14/14 16/16/16 15/15/15
f 16/16/16 17/17/17 15/15/15
f 18/18/18 16/16/16 14/14/14
f 19/19/19 18/18/18 14/14/14
f 20/20/20 18/18/18 19/19/19
f 21/21/21 20/20/20 19/19/19
f 22/22/22 20/20/20 21/21/21
f 22/22/22 23/23/23 20/20/20
f 23/23/23 24/24/24 20/20/20
f 25/25/25 22/22/22 21/21/21
f 26/26/26 25/25/25 21/21/21
f 27/27/27 26/26/26 21/21/21
f 28/28/28 26/26/26 27/27/27
f 29/29/29 28/28/28 27/27/27
f 32/32/32 31/31/31 30/30/30
f 33/33/33 32/32/32 30/30/30
f 33/33/33 30/30/30 34/34/34
f 33/33/33 35/35/35 32/32/32
f 35/35/35 36/36/36 32/32/32
f 37/37/37 33/33/33 34/34/34
f 34/34/34 38/38/38 37/37/37
f 35/35/35 39/39/39 36/36/36
f 39/39/39 40/40/40 36/36/36
f 39/39/39 35/35/35 41/41/41
f 35/35/35 33/33/33 42/42/42
f 35/35/35 42/42/42 41/41/41
f 33/33/33 37/37/37 42/42/42
f 41/41/41 42/42/42 43/43/43
f 42/42/42 44/44/44 43/43/43
f 42/42/42 37/37/37 44/44/44
f 43/43/43 44/44/44 45/45/45
f 44/44/44 46/46/46 45/45/45
f 38/38/38 47/47/47 37/37/37
f 37/37/37 47/47/47 44/44/44
f 44/44/44 47/47/47 46/46/46
f 38/38/38 48/48/48 47/47/47
f 47/47/47 49/49/49 46/46/46
f 48/48/48 49/49/49 47/47/47
f 52/52/52 51/51/51 50/50/50
f 51/51/51 53/53/53 50/50/50
f 50/50/50 53/53/53 54/54/54
f 53/53/53 55/55/55 54/54/54
f 54/54/54 55/55/55 56/56/56
f 55/55/55 57/57/57 56/56/56
f 58/58/58 57/57/57 55/55/55
f 59/59/59 58/58/58 55/55/55
f 62/62/62 61/61/61 60/60/60
f 63/63/63 62/62/62 60/60/60
f 66/66/66 65/65/65 64/64/64
f 65/65/65 67/67/67 64/64/64
f 65/65/65 68/68/68 67/67/67
f 68/68/68 69/69/69 67/67/67
f 69/69/69 70/70/70 67/67/67
f 70/70/70 71/71/71 67/67/67
f 70/70/70 72/72/72 71/71/71
f 72/72/72 73/73/73 71/71/71
f 76/76/76 75/75/75 74/74/74
f 77/77/77 76/76/76 74/74/74
f 78/78/78 76/76/76 77/77/77
f 79/79/79 78/78/78 77/77/77
f 82/82/82 81/81/81 80/80/80
f 83/83/83 82/82/82 80/80/80
f 86/86/86 85/85/85 84/84/84
f 85/85/85 87/87/87 84/84/84
f 85/85/85 88/88/88 87/87/87
f 88/88/88 89/89/89 87/87/87
f 84/84/84 87/87/87 90/90/90
f 87/87/87 91/91/91 90/90/90
f 90/90/90 91/91/91 92/92/92
f 91/91/91 93/93/93 92/92/92
f 96/96/96 95/95/95 94/94/94
f 95/95/95 97/97/97 94/94/94
f 94/94/94 97/97/97 98/98/98
f 97/97/97 99/99/99 98/98/98
f 102/102/102 101/101/101 100/100/100
f 103/103/103 102/102/102 100/100/100
f 106/106/106 105/105/105 104/104/104
f 107/107/107 106/106/106 104/104/104
f 110/110/110 109/109/109 108/108/108
f 111/111/111 110/110/110 108/108/108
f 108/108/108 112/112/112 111/111/111
f 113/113/113 110/110/110 111/111/111
f 112/112/112 114/114/114 111/111/111
f 115/115/115 113/113/113 111/111/111
f 111/111/111 114/114/114 115/115/115
f 116/116/116 113/113/113 115/115/115
f 114/114/114 117/117/117 115/115/115
f 117/117/117 114/114/114 118/118/118
f 119/119/119 117/117/117 118/118/118
f 120/120/120 116/116/116 115/115/115
f 115/115/115 117/117/117 120/120/120
f 116/116/116 120/120/120 121/121/121
f 120/120/120 122/122/122 121/121/121
f 123/123/123 117/117/117 119/119/119
f 117/117/117 123/123/123 120/120/120
f 120/120/120 123/123/123 122/122/122
f 124/124/124 123/123/123 119/119/119
f 123/123/123 125/125/125 122/122/122
f 128/128/128 127/127/127 126/126/126
f 129/129/129 128/128/128 126/126/126
f 132/132/132 131/131/131 130/130/130
f 133/133/133 132/132/132 130/130/130
f 136/136/136 135/135/135 134/134/134
f 137/137/137 136/136/136 134/134/134
f 140/140/140 139/139/139 138/138/138
f 139/139/139 141/141/141 138/138/138
f 138/138/138 141/141/141 142/142/142
f 141/141/141 143/143/143 142/142/142
f 143/143/143 141/141/141 144/144/144
f 145/145/145 143/143/143 144/144/144
f 141/141/141 139/139/139 146/146/146
f 144/144/144 141/141/141 146/146/146
f 144/144/144 147/147/147 145/145/145
f 147/147/147 148/148/148 145/145/145
f 149/149/149 147/147/147 144/144/144
f 146/146/146 149/149/149 144/144/144
f 146/146/146 139/139/139 150/150/150
f 146/146/146 150/150/150 149/149/149
f 139/139/139 151/151/151 150/150/150
f 150/150/150 152/152/152 149/149/149
f 155/155/155 154/154/154 153/153/153
f 154/154/154 156/156/156 153/153/153
f 154/154/154 157/157/157 156/156/156
f 153/153/153 156/156/156 158/158/158
f 157/157/157 159/159/159 156/156/156
f 156/156/156 160/160/160 158/158/158
f 156/156/156 159/159/159 160/160/160
f 158/158/158 160/160/160 161/161/161
f 160/160/160 162/162/162 161/161/161
f 159/159/159 163/163/163 160/160/160
f 160/160/160 163/163/163 162/162/162
f 159/159/159 164/164/164 163/163/163
f 163/163/163 165/165/165 162/162/162
f 164/164/164 166/166/166 163/163/163
f 163/163/163 166/166/166 165/165/165
f 164/164/164 167/167/167 166/166/166
f 166/166/166 168/168/168 165/165/165
f 167/167/167 169/169/169 166/166/166
f 166/166/166 169/169/169 168/168/168
f 169/169/169 170/170/170 168/168/168
f 173/173/173 172/172/172 171/171/171
f 172/172/172 174/174/174 171/171/171
f 171/171/171 174/174/174 175/175/175
f 174/174/174 176/176/176 175/175/175
f 179/179/179 178/178/178 177/177/177
f 180/180/180 179/179/179 177/177/177
f 180/180/180 181/181/181 179/179/179
f 181/181/181 182/182/182 179/179/179
f 185/185/185 184/184/184 183/183/183
f 186/186/186 185/185/185 183/183/183
f 187/187/187 185/185/185 186/186/186
f 188/188/188 187/187/187 186/186/186
f 191/191/191 190/190/190 189/189/189
f 190/190/190 192/192/192 189/189/189
f 192/192/192 193/193/193 189/189/189
f 193/193/193 194/194/194 189/189/189
